<svg xmlns="http://www.w3.org/2000/svg" viewBox="481.623 1264.09 32.942 32.942">
  <defs>
    <style>
      .cls-1, .cls-4 {
        fill: none;
      }

      .cls-1 {
        stroke: #2a2e3d;
        stroke-width: 2px;
      }

      .cls-2 {
        fill: #2a2e3d;
      }

      .cls-3 {
        stroke: none;
      }
    </style>
  </defs>
  <g id="_6-dice" data-name="6-dice" transform="translate(-3379.33 -5004.268) rotate(-30)">
    <g id="Rectangle_435" data-name="Rectangle 435" class="cls-1" transform="translate(209.504 7359.033) rotate(30)">
      <rect class="cls-3" width="32.942" height="32.942" rx="5"/>
      <rect class="cls-4" x="1" y="1" width="30.942" height="30.942" rx="4"/>
    </g>
    <circle id="Ellipse_425" data-name="Ellipse 425" class="cls-2" cx="3" cy="3" r="3" transform="translate(212.072 7367.34) rotate(30)"/>
    <circle id="Ellipse_426" data-name="Ellipse 426" class="cls-2" cx="3" cy="3" r="3" transform="translate(216.696 7387.331) rotate(30)"/>
    <circle id="Ellipse_429" data-name="Ellipse 429" class="cls-2" cx="3" cy="3" r="3" transform="translate(208.572 7373.402) rotate(30)"/>
    <path id="Path_2328" data-name="Path 2328" class="cls-2" d="M3,0A3,3,0,1,1,0,3,3,3,0,0,1,3,0Z" transform="translate(220.41 7380.899) rotate(30)"/>
    <circle id="Ellipse_428" data-name="Ellipse 428" class="cls-2" cx="3" cy="3" r="3" transform="translate(204.572 7380.33) rotate(30)"/>
    <path id="Path_2329" data-name="Path 2329" class="cls-2" d="M3,0A3,3,0,1,1,0,3,3,3,0,0,1,3,0Z" transform="translate(224.196 7374.34) rotate(30)"/>
  </g>
</svg>
