<svg xmlns="http://www.w3.org/2000/svg" viewBox="3557 -7293 177.118 32.469">
  <defs>
    <style>
      .cls-1 {
        fill: #383c4c;
      }
    </style>
  </defs>
  <g id="Group_1328" data-name="Group 1328" transform="translate(2819.118 -7989.006)">
    <rect id="Rectangle_498" data-name="Rectangle 498" class="cls-1" width="3.989" height="24.28" transform="translate(764.054 703.726)"/>
    <path id="Path_2335" data-name="Path 2335" class="cls-1" d="M247.064,34.322a8.215,8.215,0,0,1,4.142,1.06,7.146,7.146,0,0,1,2.829,2.864l3.468-2.014a11.293,11.293,0,0,0-4.353-4.239,12.534,12.534,0,0,0-18.785,11.03,12.7,12.7,0,0,0,18.829,11.039,11.214,11.214,0,0,0,4.318-4.247l-3.468-1.979a6.914,6.914,0,0,1-2.811,2.864,8.32,8.32,0,0,1-4.16,1.055,8.417,8.417,0,0,1-6.3-2.461,8.565,8.565,0,0,1-2.413-6.244,8.56,8.56,0,0,1,2.408-6.24A8.386,8.386,0,0,1,247.064,34.322Z" transform="translate(538.709 672.836)"/>
    <path id="Path_2336" data-name="Path 2336" class="cls-1" d="M301.9,45.391h9.712V41.608H301.9V35.3h10.579V31.48H297.91V55.765h14.739V51.946H301.9Z" transform="translate(502.987 672.246)"/>
    <path id="Path_2337" data-name="Path 2337" class="cls-1" d="M406.09,31.48l-8.81,24.28h4.335l1.7-4.891h10.325l1.712,4.891h4.3l-8.758-24.28Zm-1.458,15.645,3.858-10.947,3.836,10.947Z" transform="translate(447.13 672.246)"/>
    <path id="Path_2338" data-name="Path 2338" class="cls-1" d="M469.106,43.618,461.784,31.48h-4.3V55.765h3.989V38.416l7.391,12.248h.482l7.391-12.212V55.765h3.989V31.48h-4.269Z" transform="translate(413.29 672.246)"/>
    <path id="Path_2339" data-name="Path 2339" class="cls-1" d="M528.809,51.946V45.391h9.712V41.608h-9.712V35.3h10.579V31.48H524.82V55.765h14.743V51.946Z" transform="translate(375.437 672.246)"/>
    <path id="Path_2340" data-name="Path 2340" class="cls-1" d="M344.745,35a12.111,12.111,0,0,0-3.31,8.622,12.094,12.094,0,0,0,3.31,8.635,10.947,10.947,0,0,0,8.32,3.5H362.6V43.964h-3.989v7.978h-5.548a7.286,7.286,0,0,1-5.6-2.343,8.452,8.452,0,0,1-2.168-5.981,8.477,8.477,0,0,1,2.168-5.968,7.264,7.264,0,0,1,5.6-2.356H362.6V31.476h-9.537A10.947,10.947,0,0,0,344.745,35Z" transform="translate(478.524 672.251)"/>
    <path id="Path_2341" data-name="Path 2341" class="cls-1" d="M163.524,31.475H154v3.818h9.541a7.286,7.286,0,0,1,5.6,2.338,8.418,8.418,0,0,1,2.189,5.986,8.473,8.473,0,0,1-2.189,5.964,7.247,7.247,0,0,1-5.6,2.36h-5.57V38.972H154V55.755h9.541a10.947,10.947,0,0,0,8.32-3.5,12.094,12.094,0,0,0,3.315-8.617A12.09,12.09,0,0,0,171.861,35,10.947,10.947,0,0,0,163.524,31.475Z" transform="translate(583.882 672.251)"/>
    <rect id="Rectangle_499" data-name="Rectangle 499" class="cls-1" width="3.976" height="3.976" transform="translate(764.054 696.006)"/>
  </g>
</svg>
