<svg xmlns="http://www.w3.org/2000/svg" xmlns:xlink="http://www.w3.org/1999/xlink" viewBox="2223 -8251 480 420">
  <defs>
    <style>
      .cls-1 {
        clip-path: url(#clip-Artboard_1);
      }

      .cls-2 {
        fill: #2a2e3d;
      }
    </style>
    <clipPath id="clip-Artboard_1">
      <rect x="2223" y="-8251" width="480" height="420"/>
    </clipPath>
  </defs>
  <g id="Artboard_1" data-name="Artboard – 1" class="cls-1">
    <path id="Path_2292" data-name="Path 2292" class="cls-2" d="M225.807,15.244a52.162,52.162,0,0,0-73.7,0l-32.7,32.6L141.966,70.4l32.7-32.6a20.227,20.227,0,0,1,28.713,0l136.8,136.8a20.227,20.227,0,0,1,0,28.713L203.251,339.986a20.227,20.227,0,0,1-28.713,0L37.866,203.186a20.227,20.227,0,0,1,0-28.713l57.107-57.138,48.652,48.716a51.045,51.045,0,1,0,22.492-22.492L94.972,72.415,15.214,152.173a52.162,52.162,0,0,0,0,73.7l136.8,136.8a52.13,52.13,0,0,0,73.7,0l136.8-136.8a52.161,52.161,0,0,0,0-73.7ZM188.959,169.081a19.971,19.971,0,1,1-19.812,19.812,19.971,19.971,0,0,1,19.812-19.812Z" transform="translate(2273.86 -8230.186)"/>
  </g>
</svg>
