<svg xmlns="http://www.w3.org/2000/svg" viewBox="0 0 40 49.574">
  <defs>
    <style>
      .cls-1 {
        fill: #2a2e3d;
      }

      .cls-2 {
        fill: #3d3a2a;
      }
    </style>
  </defs>
  <g id="download" transform="translate(-3.215)">
    <g id="Group_1098" data-name="Group 1098" transform="translate(16.047 18.623)">
      <path id="Path_1293" data-name="Path 1293" class="cls-1" d="M16.891,30.791h0a.745.745,0,0,1-.745-.745V13.252a.745.745,0,0,1,.745-.745h0a.745.745,0,0,1,.745.745V30.046A.745.745,0,0,1,16.891,30.791Z" transform="translate(-9.723 -12.507)"/>
      <path id="Path_1294" data-name="Path 1294" class="cls-1" d="M19,27.384a.748.748,0,0,1-.527-.217l-6.422-6.422A.744.744,0,0,1,13.1,19.692l5.9,5.9,5.9-5.9a.744.744,0,1,1,1.053,1.053l-6.422,6.422A.736.736,0,0,1,19,27.384Z" transform="translate(-11.833 -9.1)"/>
    </g>
    <g id="Group_1099" data-name="Group 1099" transform="translate(3.215)">
      <path id="Path_1295" data-name="Path 1295" class="cls-2" d="M39.492,49.574H6.938a3.727,3.727,0,0,1-3.723-3.723V3.723A3.727,3.727,0,0,1,6.938,0H30.579a.745.745,0,1,1,0,1.489H6.938A2.236,2.236,0,0,0,4.7,3.723V45.851a2.236,2.236,0,0,0,2.234,2.234H39.492a2.236,2.236,0,0,0,2.234-2.234V12.96a.745.745,0,0,1,1.489,0V45.853A3.725,3.725,0,0,1,39.492,49.574Z" transform="translate(-3.215)"/>
      <path id="Path_1296" data-name="Path 1296" class="cls-2" d="M33.728,13.6H21.837a.745.745,0,0,1-.745-.745V.962a.745.745,0,0,1,1.489,0V12.108H33.728a.745.745,0,0,1,0,1.491Z" transform="translate(5.527 0.106)"/>
      <path id="Path_1297" data-name="Path 1297" class="cls-2" d="M33.727,13.7a.746.746,0,0,1-.533-.225L21.3,1.265A.744.744,0,0,1,22.371.227L34.262,12.442a.744.744,0,0,1-.535,1.263Z" transform="translate(5.528 0.001)"/>
    </g>
  </g>
</svg>
