<svg xmlns="http://www.w3.org/2000/svg" xmlns:xlink="http://www.w3.org/1999/xlink" viewBox="4069 -7416 68 68">
  <defs>
    <style>
      .cls-1 {
        fill: #0088d0;
      }

      .cls-2 {
        fill: #fff;
      }

      .cls-3 {
        filter: url(#Ellipse_430);
      }
    </style>
    <filter id="Ellipse_430" x="4069" y="-7416" width="68" height="68" filterUnits="userSpaceOnUse">
      <feOffset dy="3" input="SourceAlpha"/>
      <feGaussianBlur stdDeviation="3" result="blur"/>
      <feFlood flood-opacity="0.102"/>
      <feComposite operator="in" in2="blur"/>
      <feComposite in="SourceGraphic"/>
    </filter>
  </defs>
  <g id="Group_1305" data-name="Group 1305" transform="translate(2828 -8251)">
    <g class="cls-3" transform="matrix(1, 0, 0, 1, -2828, 8251)">
      <circle id="Ellipse_430-2" data-name="Ellipse 430" class="cls-1" cx="25" cy="25" r="25" transform="translate(4078 -7410)"/>
    </g>
    <g id="telegram" transform="translate(1260 855)">
      <path id="XMLID_497_" class="cls-2" d="M.459,30.255,6.45,32.491l2.319,7.457a.705.705,0,0,0,1.12.337l3.339-2.722a1,1,0,0,1,1.214-.034L20.466,41.9a.706.706,0,0,0,1.106-.427l4.412-21.224a.706.706,0,0,0-.946-.8L.452,28.934A.707.707,0,0,0,.459,30.255ZM8.4,31.3,20.1,24.09a.2.2,0,0,1,.246.323l-9.663,8.982a2,2,0,0,0-.621,1.2l-.329,2.439a.3.3,0,0,1-.591.043L7.88,32.627A1.179,1.179,0,0,1,8.4,31.3Z" transform="translate(0 -19.401)"/>
    </g>
  </g>
</svg>
