<svg xmlns="http://www.w3.org/2000/svg" xmlns:xlink="http://www.w3.org/1999/xlink" viewBox="0 0 294.076 119.395">
  <defs>
    <style>
      .cls-1 {
        fill: #fff;
      }

      .cls-2 {
        filter: url(#Path_704);
      }
    </style>
    <filter id="Path_704" x="0" y="0" width="294.076" height="119.395" filterUnits="userSpaceOnUse">
      <feOffset dy="3" input="SourceAlpha"/>
      <feGaussianBlur stdDeviation="7.5" result="blur"/>
      <feFlood flood-opacity="0.18"/>
      <feComposite operator="in" in2="blur"/>
      <feComposite in="SourceGraphic"/>
    </filter>
  </defs>
  <g id="Group_1100" data-name="Group 1100" transform="translate(-985.483 -537.5)">
    <g class="cls-2" transform="matrix(1, 0, 0, 1, 985.48, 537.5)">
      <path id="Path_704-2" data-name="Path 704" class="cls-1" d="M10.885,0H210.093c7.162,0,12.969,4.691,12.969,10.478V49.331c0,17.9,32.135,25.064,24.973,25.064H12.969C5.806,74.4,0,69.7,0,63.917V10.478C0,4.691,3.723,0,10.885,0Z" transform="translate(22.5 19.5)"/>
    </g>
    <path id="Path_1298" data-name="Path 1298" d="M4.59,0H1.17V-10.005H4.59A5.006,5.006,0,0,1,8.3-8.58,4.875,4.875,0,0,1,9.72-4.995,4.843,4.843,0,0,1,8.3-1.41,5.035,5.035,0,0,1,4.59,0Zm0-1.11A3.649,3.649,0,0,0,7.4-2.22,3.912,3.912,0,0,0,8.43-4.995a3.965,3.965,0,0,0-1.02-2.79A3.639,3.639,0,0,0,4.59-8.9H2.415V-1.11Zm12.8.195a3.327,3.327,0,0,1-2.6,1.1,3.327,3.327,0,0,1-2.6-1.1A3.916,3.916,0,0,1,11.2-3.63a3.888,3.888,0,0,1,.983-2.707,3.338,3.338,0,0,1,2.6-1.088,3.338,3.338,0,0,1,2.6,1.088,3.888,3.888,0,0,1,.983,2.707A3.916,3.916,0,0,1,17.392-.915Zm-4.365-.727a2.137,2.137,0,0,0,1.762.817,2.116,2.116,0,0,0,1.755-.817A3.11,3.11,0,0,0,17.19-3.63a3.079,3.079,0,0,0-.645-1.98,2.123,2.123,0,0,0-1.755-.81,2.137,2.137,0,0,0-1.762.818,3.063,3.063,0,0,0-.653,1.973A3.086,3.086,0,0,0,13.028-1.643ZM30.09,0H28.965V-4.74a1.692,1.692,0,0,0-.42-1.3,1.721,1.721,0,0,0-1.2-.383,2.482,2.482,0,0,0-1.222.33,2.739,2.739,0,0,0-.923.8V0H24.075V-7.245H25.2V-6.2a3.684,3.684,0,0,1,1.125-.863,3.111,3.111,0,0,1,1.455-.368,2.055,2.055,0,0,1,2.31,2.34Zm8.018-.915a3.327,3.327,0,0,1-2.6,1.1,3.327,3.327,0,0,1-2.6-1.1A3.916,3.916,0,0,1,31.92-3.63,3.888,3.888,0,0,1,32.9-6.338a3.338,3.338,0,0,1,2.6-1.088,3.338,3.338,0,0,1,2.6,1.088A3.888,3.888,0,0,1,39.09-3.63,3.916,3.916,0,0,1,38.108-.915Zm-4.365-.727a2.137,2.137,0,0,0,1.763.817,2.116,2.116,0,0,0,1.755-.817A3.11,3.11,0,0,0,37.9-3.63a3.079,3.079,0,0,0-.645-1.98,2.123,2.123,0,0,0-1.755-.81,2.137,2.137,0,0,0-1.763.818A3.063,3.063,0,0,0,33.09-3.63,3.086,3.086,0,0,0,33.743-1.643ZM42.75.18a1.561,1.561,0,0,1-1.2-.435,1.784,1.784,0,0,1-.405-1.26v-4.74h-1.2v-.99h1.2v-1.98H42.27v1.98h1.47v.99H42.27v4.5a1.113,1.113,0,0,0,.188.675A.637.637,0,0,0,43-.825a.976.976,0,0,0,.765-.3l.33.84A1.893,1.893,0,0,1,42.75.18ZM55.23,0H54.1V-4.77a1.643,1.643,0,0,0-.42-1.275A1.767,1.767,0,0,0,52.47-6.42a2.455,2.455,0,0,0-1.208.33,2.9,2.9,0,0,0-.937.8V0H49.2V-10.005h1.125V-6.2a3.684,3.684,0,0,1,1.125-.863,3.14,3.14,0,0,1,1.47-.368,2.042,2.042,0,0,1,2.31,2.31Zm8.018-.915a3.327,3.327,0,0,1-2.6,1.1,3.327,3.327,0,0,1-2.6-1.1A3.916,3.916,0,0,1,57.06-3.63a3.888,3.888,0,0,1,.982-2.707,3.338,3.338,0,0,1,2.6-1.088,3.338,3.338,0,0,1,2.6,1.088A3.888,3.888,0,0,1,64.23-3.63,3.916,3.916,0,0,1,63.247-.915Zm-4.365-.727a2.137,2.137,0,0,0,1.763.817A2.116,2.116,0,0,0,62.4-1.643a3.11,3.11,0,0,0,.645-1.988A3.079,3.079,0,0,0,62.4-5.61a2.123,2.123,0,0,0-1.755-.81,2.137,2.137,0,0,0-1.763.818A3.063,3.063,0,0,0,58.23-3.63,3.086,3.086,0,0,0,58.882-1.643ZM67.185,0H66.06V-10.005h1.125ZM75.81,0H74.685V-1.08A2.9,2.9,0,0,1,72.24.18,2.942,2.942,0,0,1,69.908-.848a4.074,4.074,0,0,1-.893-2.768,4.109,4.109,0,0,1,.893-2.767A2.924,2.924,0,0,1,72.24-7.425,2.913,2.913,0,0,1,74.685-6.15v-3.855H75.81Zm-3.3-.825a2.578,2.578,0,0,0,1.26-.33,2.511,2.511,0,0,0,.915-.81V-5.25a2.5,2.5,0,0,0-.923-.832A2.548,2.548,0,0,0,72.51-6.42a2.058,2.058,0,0,0-1.695.788,3.129,3.129,0,0,0-.63,2.017,3.1,3.1,0,0,0,.63,2.01A2.066,2.066,0,0,0,72.51-.825Zm9.015,3.66.18-1.02a1.5,1.5,0,0,0,.615.12,1.166,1.166,0,0,0,.645-.165,1.264,1.264,0,0,0,.435-.6l.48-1.1-3.03-7.32h1.215l2.415,5.94,2.4-5.94h1.23L84.48,1.47a2.194,2.194,0,0,1-2.13,1.47A3.054,3.054,0,0,1,81.525,2.835ZM95.048-.915a3.327,3.327,0,0,1-2.6,1.1,3.327,3.327,0,0,1-2.6-1.1A3.916,3.916,0,0,1,88.86-3.63a3.888,3.888,0,0,1,.982-2.707,3.338,3.338,0,0,1,2.6-1.088,3.338,3.338,0,0,1,2.6,1.088A3.888,3.888,0,0,1,96.03-3.63,3.916,3.916,0,0,1,95.048-.915Zm-4.365-.727a2.137,2.137,0,0,0,1.763.817A2.116,2.116,0,0,0,94.2-1.643a3.11,3.11,0,0,0,.645-1.988A3.079,3.079,0,0,0,94.2-5.61a2.123,2.123,0,0,0-1.755-.81,2.137,2.137,0,0,0-1.763.818A3.063,3.063,0,0,0,90.03-3.63,3.086,3.086,0,0,0,90.682-1.643ZM103.875,0H102.75V-1.02a3.735,3.735,0,0,1-1.132.855A3.165,3.165,0,0,1,100.17.18a2.042,2.042,0,0,1-2.31-2.31V-7.245h1.125v4.77A1.661,1.661,0,0,0,99.4-1.2a1.738,1.738,0,0,0,1.208.375,2.573,2.573,0,0,0,1.222-.315,2.6,2.6,0,0,0,.923-.78V-7.245h1.125Zm3.375,0h-1.125V-7.245h1.125v1.17a2.963,2.963,0,0,1,2.415-1.32V-6.24a2.145,2.145,0,0,0-.45-.045,2.188,2.188,0,0,0-1.11.36,2.371,2.371,0,0,0-.855.8Zm10.725-.825a2.575,2.575,0,0,0,1.268-.337A2.258,2.258,0,0,0,120.135-2v-3.27a2.3,2.3,0,0,0-.893-.818,2.575,2.575,0,0,0-1.268-.338,2.045,2.045,0,0,0-1.687.78,3.123,3.123,0,0,0-.622,2.01,3.154,3.154,0,0,0,.622,2.018A2.037,2.037,0,0,0,117.975-.825ZM117.705.18a2.933,2.933,0,0,1-2.333-1.035,4.1,4.1,0,0,1-.892-2.775,4.074,4.074,0,0,1,.892-2.768,2.942,2.942,0,0,1,2.333-1.028,2.912,2.912,0,0,1,1.395.345,2.869,2.869,0,0,1,1.035.915v-1.08h1.125V2.76h-1.125V-1.1A2.85,2.85,0,0,1,117.705.18ZM129.54,0h-1.125V-1.02a3.735,3.735,0,0,1-1.133.855,3.165,3.165,0,0,1-1.448.345,2.042,2.042,0,0,1-2.31-2.31V-7.245h1.125v4.77a1.661,1.661,0,0,0,.412,1.275,1.738,1.738,0,0,0,1.208.375,2.573,2.573,0,0,0,1.222-.315,2.6,2.6,0,0,0,.923-.78V-7.245h1.125Zm5.52.18a3.554,3.554,0,0,1-2.655-1.058A3.768,3.768,0,0,1,131.37-3.63a3.819,3.819,0,0,1,1.02-2.693,3.329,3.329,0,0,1,2.55-1.1,3.164,3.164,0,0,1,2.543,1.1,4.145,4.145,0,0,1,.938,2.783v.285h-5.865a2.741,2.741,0,0,0,.78,1.785,2.448,2.448,0,0,0,1.83.72,2.978,2.978,0,0,0,2.235-.915l.54.735A3.9,3.9,0,0,1,135.06.18Zm2.25-4.26a2.623,2.623,0,0,0-.63-1.672,2.15,2.15,0,0,0-1.755-.743,2.113,2.113,0,0,0-1.7.735,2.737,2.737,0,0,0-.667,1.68ZM142.53.18a3.837,3.837,0,0,1-2.925-1.14l.585-.81a2.966,2.966,0,0,0,1.027.735,3.214,3.214,0,0,0,1.357.3,2.03,2.03,0,0,0,1.26-.345,1.082,1.082,0,0,0,.45-.9.848.848,0,0,0-.465-.758,3.719,3.719,0,0,0-1.118-.42q-.652-.142-1.312-.33a2.579,2.579,0,0,1-1.125-.645A1.618,1.618,0,0,1,139.8-5.34a1.853,1.853,0,0,1,.727-1.485,3.007,3.007,0,0,1,1.973-.6,3.636,3.636,0,0,1,2.685,1.05l-.525.78a2.659,2.659,0,0,0-2.16-.915,1.922,1.922,0,0,0-1.17.322.979.979,0,0,0-.435.818.755.755,0,0,0,.465.683,4.357,4.357,0,0,0,1.117.39q.653.142,1.313.338a2.509,2.509,0,0,1,1.125.682,1.761,1.761,0,0,1,.465,1.268,1.946,1.946,0,0,1-.75,1.575A3.225,3.225,0,0,1,142.53.18Zm6.51,0a1.561,1.561,0,0,1-1.2-.435,1.784,1.784,0,0,1-.4-1.26v-4.74h-1.2v-.99h1.2v-1.98h1.125v1.98h1.47v.99h-1.47v4.5a1.113,1.113,0,0,0,.188.675.637.637,0,0,0,.548.255.976.976,0,0,0,.765-.3l.33.84A1.893,1.893,0,0,1,149.04.18Zm3.135-8.46a.732.732,0,0,1-.525-.217.712.712,0,0,1-.225-.533.736.736,0,0,1,.225-.54.72.72,0,0,1,.525-.225.736.736,0,0,1,.54.225.736.736,0,0,1,.225.54.712.712,0,0,1-.225.533A.749.749,0,0,1,152.175-8.28Zm.57,8.28H151.62V-7.245h1.125Zm8.018-.915a3.327,3.327,0,0,1-2.6,1.1,3.327,3.327,0,0,1-2.6-1.1,3.916,3.916,0,0,1-.982-2.715,3.888,3.888,0,0,1,.982-2.707,3.338,3.338,0,0,1,2.6-1.088,3.338,3.338,0,0,1,2.6,1.088,3.888,3.888,0,0,1,.982,2.707A3.916,3.916,0,0,1,160.763-.915ZM156.4-1.643a2.137,2.137,0,0,0,1.762.817,2.116,2.116,0,0,0,1.755-.817,3.11,3.11,0,0,0,.645-1.988,3.079,3.079,0,0,0-.645-1.98,2.123,2.123,0,0,0-1.755-.81A2.137,2.137,0,0,0,156.4-5.6a3.063,3.063,0,0,0-.652,1.973A3.086,3.086,0,0,0,156.4-1.643ZM169.59,0h-1.125V-4.74a1.692,1.692,0,0,0-.42-1.3,1.721,1.721,0,0,0-1.2-.383,2.482,2.482,0,0,0-1.223.33,2.739,2.739,0,0,0-.923.8V0h-1.125V-7.245H164.7V-6.2a3.684,3.684,0,0,1,1.125-.863,3.111,3.111,0,0,1,1.455-.368,2.055,2.055,0,0,1,2.31,2.34Zm4.545.18A3.837,3.837,0,0,1,171.21-.96l.585-.81a2.966,2.966,0,0,0,1.027.735,3.214,3.214,0,0,0,1.357.3,2.03,2.03,0,0,0,1.26-.345,1.082,1.082,0,0,0,.45-.9.848.848,0,0,0-.465-.758,3.719,3.719,0,0,0-1.118-.42q-.652-.142-1.312-.33a2.579,2.579,0,0,1-1.125-.645,1.618,1.618,0,0,1-.465-1.207,1.853,1.853,0,0,1,.727-1.485,3.007,3.007,0,0,1,1.973-.6,3.636,3.636,0,0,1,2.685,1.05l-.525.78a2.659,2.659,0,0,0-2.16-.915,1.922,1.922,0,0,0-1.17.322.979.979,0,0,0-.435.818.755.755,0,0,0,.465.683,4.357,4.357,0,0,0,1.117.39q.653.142,1.313.338a2.509,2.509,0,0,1,1.125.682,1.761,1.761,0,0,1,.465,1.268,1.946,1.946,0,0,1-.75,1.575A3.225,3.225,0,0,1,174.135.18ZM8.52,18H7.4l-1.89-5.82L3.615,18H2.49L.18,10.755H1.35L3.12,16.53l1.9-5.775h.96L7.89,16.53l1.77-5.775h1.17Zm4.17-8.28a.732.732,0,0,1-.525-.217.712.712,0,0,1-.225-.533.736.736,0,0,1,.225-.54A.72.72,0,0,1,12.69,8.2a.768.768,0,0,1,.765.765.712.712,0,0,1-.225.533A.749.749,0,0,1,12.69,9.72ZM13.26,18H12.135V10.755H13.26Zm4.08.18a1.561,1.561,0,0,1-1.2-.435,1.784,1.784,0,0,1-.4-1.26v-4.74h-1.2v-.99h1.2V8.775H16.86v1.98h1.47v.99H16.86v4.5a1.113,1.113,0,0,0,.188.675.637.637,0,0,0,.548.255.976.976,0,0,0,.765-.3l.33.84A1.893,1.893,0,0,1,17.34,18.18ZM25.95,18H24.825V13.23a1.643,1.643,0,0,0-.42-1.275,1.767,1.767,0,0,0-1.215-.375,2.455,2.455,0,0,0-1.208.33,2.9,2.9,0,0,0-.937.8V18H19.92V7.995h1.125v3.81a3.684,3.684,0,0,1,1.125-.863,3.14,3.14,0,0,1,1.47-.368,2.042,2.042,0,0,1,2.31,2.31Zm2.805-8.28A.732.732,0,0,1,28.23,9.5a.712.712,0,0,1-.225-.533.736.736,0,0,1,.225-.54.72.72,0,0,1,.525-.225.768.768,0,0,1,.765.765A.712.712,0,0,1,29.3,9.5.749.749,0,0,1,28.755,9.72Zm.57,8.28H28.2V10.755h1.125Zm8.265,0H36.465V13.26a1.692,1.692,0,0,0-.42-1.3,1.721,1.721,0,0,0-1.2-.382,2.482,2.482,0,0,0-1.222.33,2.739,2.739,0,0,0-.923.8V18H31.575V10.755H32.7v1.05a3.684,3.684,0,0,1,1.125-.863,3.111,3.111,0,0,1,1.455-.368,2.055,2.055,0,0,1,2.31,2.34Zm3.435-.09a.833.833,0,1,1,.24-.585A.8.8,0,0,1,41.025,17.91Zm7.785.27a3.269,3.269,0,0,1-2.61-1.155l.645-.945a2.42,2.42,0,0,0,1.89.99,1.92,1.92,0,0,0,1.462-.577,2.122,2.122,0,0,0,.548-1.523V7.995H51.99v6.99a3.077,3.077,0,0,1-.885,2.377A3.249,3.249,0,0,1,48.81,18.18Zm11.243-1.1a3.64,3.64,0,0,1-5.205,0,3.916,3.916,0,0,1-.982-2.715,3.888,3.888,0,0,1,.982-2.707,3.658,3.658,0,0,1,5.205,0,3.888,3.888,0,0,1,.982,2.707A3.916,3.916,0,0,1,60.053,17.085Zm-4.365-.727a2.3,2.3,0,0,0,3.518,0,3.11,3.11,0,0,0,.645-1.988,3.079,3.079,0,0,0-.645-1.98,2.307,2.307,0,0,0-3.518.007,3.063,3.063,0,0,0-.653,1.973A3.086,3.086,0,0,0,55.688,16.358ZM63.42,9.72a.732.732,0,0,1-.525-.217.712.712,0,0,1-.225-.533.736.736,0,0,1,.225-.54A.72.72,0,0,1,63.42,8.2a.768.768,0,0,1,.765.765.712.712,0,0,1-.225.533A.749.749,0,0,1,63.42,9.72ZM63.99,18H62.865V10.755H63.99Zm8.265,0H71.13V13.26a1.692,1.692,0,0,0-.42-1.3,1.721,1.721,0,0,0-1.2-.382,2.482,2.482,0,0,0-1.222.33,2.739,2.739,0,0,0-.923.8V18H66.24V10.755h1.125v1.05a3.684,3.684,0,0,1,1.125-.863,3.111,3.111,0,0,1,1.455-.368,2.055,2.055,0,0,1,2.31,2.34Zm3.765-.36a2.531,2.531,0,0,1-.345,1.267,3.1,3.1,0,0,1-.885,1l-.555-.465a2.323,2.323,0,0,0,.652-.638,1.716,1.716,0,0,0,.323-.757.515.515,0,0,1-.21.03.676.676,0,0,1-.518-.218.772.772,0,0,1-.2-.548.791.791,0,0,1,.232-.57.754.754,0,0,1,.563-.24.868.868,0,0,1,.668.307A1.2,1.2,0,0,1,76.02,17.64Zm13.2.36H88.1L86.2,12.18,84.315,18H83.19l-2.31-7.245h1.17l1.77,5.775,1.9-5.775h.96l1.9,5.775,1.77-5.775h1.17Zm6.885.18a3.554,3.554,0,0,1-2.655-1.058,3.768,3.768,0,0,1-1.035-2.752,3.819,3.819,0,0,1,1.02-2.693,3.33,3.33,0,0,1,2.55-1.1,3.164,3.164,0,0,1,2.542,1.1,4.145,4.145,0,0,1,.938,2.783v.285H93.6a2.741,2.741,0,0,0,.78,1.785,2.448,2.448,0,0,0,1.83.72,2.978,2.978,0,0,0,2.235-.915l.54.735A3.9,3.9,0,0,1,96.1,18.18Zm2.25-4.26a2.623,2.623,0,0,0-.63-1.673A2.15,2.15,0,0,0,95.97,11.5a2.113,2.113,0,0,0-1.7.735,2.737,2.737,0,0,0-.668,1.68ZM111.18,18h-1.125V13.23a1.643,1.643,0,0,0-.42-1.275,1.767,1.767,0,0,0-1.215-.375,2.455,2.455,0,0,0-1.207.33,2.9,2.9,0,0,0-.937.8V18H105.15V7.995h1.125v3.81a3.684,3.684,0,0,1,1.125-.863,3.14,3.14,0,0,1,1.47-.368,2.042,2.042,0,0,1,2.31,2.31Zm7.9,0H117.96v-.825a3.092,3.092,0,0,1-2.4,1.005,2.664,2.664,0,0,1-1.77-.645,2.175,2.175,0,0,1-.765-1.755,2.153,2.153,0,0,1,.757-1.762,2.714,2.714,0,0,1,1.777-.622,3,3,0,0,1,2.4.99V13.08a1.356,1.356,0,0,0-.51-1.125,2.058,2.058,0,0,0-1.32-.405,2.953,2.953,0,0,0-2.22,1.005l-.525-.78a3.851,3.851,0,0,1,2.895-1.2,3.229,3.229,0,0,1,2.025.6,2.181,2.181,0,0,1,.78,1.845Zm-3.12-.63a2.289,2.289,0,0,0,1.995-.9V15.1a2.289,2.289,0,0,0-1.995-.9,1.869,1.869,0,0,0-1.283.443,1.458,1.458,0,0,0-.5,1.148,1.441,1.441,0,0,0,.5,1.132A1.869,1.869,0,0,0,115.965,17.37ZM124.5,18h-1.23l-3.015-7.245h1.215l2.415,5.94,2.4-5.94h1.23Zm7.455.18a3.554,3.554,0,0,1-2.655-1.058,3.768,3.768,0,0,1-1.035-2.752,3.819,3.819,0,0,1,1.02-2.693,3.329,3.329,0,0,1,2.55-1.1,3.164,3.164,0,0,1,2.543,1.1,4.145,4.145,0,0,1,.938,2.783v.285H129.45a2.741,2.741,0,0,0,.78,1.785,2.448,2.448,0,0,0,1.83.72,2.978,2.978,0,0,0,2.235-.915l.54.735A3.9,3.9,0,0,1,131.955,18.18Zm2.25-4.26a2.623,2.623,0,0,0-.63-1.673,2.15,2.15,0,0,0-1.755-.743,2.113,2.113,0,0,0-1.7.735,2.737,2.737,0,0,0-.667,1.68ZM146.655,18H145.53v-.825a3.092,3.092,0,0,1-2.4,1.005,2.664,2.664,0,0,1-1.77-.645,2.175,2.175,0,0,1-.765-1.755,2.153,2.153,0,0,1,.757-1.762,2.714,2.714,0,0,1,1.778-.622,3,3,0,0,1,2.4.99V13.08a1.356,1.356,0,0,0-.51-1.125,2.058,2.058,0,0,0-1.32-.405,2.953,2.953,0,0,0-2.22,1.005l-.525-.78a3.851,3.851,0,0,1,2.9-1.2,3.229,3.229,0,0,1,2.025.6,2.181,2.181,0,0,1,.78,1.845Zm-3.12-.63a2.289,2.289,0,0,0,1.995-.9V15.1a2.289,2.289,0,0,0-1.995-.9,1.869,1.869,0,0,0-1.283.443,1.458,1.458,0,0,0-.5,1.148,1.441,1.441,0,0,0,.5,1.132A1.869,1.869,0,0,0,143.535,17.37ZM154.92,18h-1.125V13.26a1.692,1.692,0,0,0-.42-1.3,1.721,1.721,0,0,0-1.2-.382,2.482,2.482,0,0,0-1.223.33,2.739,2.739,0,0,0-.923.8V18H148.9V10.755h1.125v1.05a3.684,3.684,0,0,1,1.125-.863,3.111,3.111,0,0,1,1.455-.368,2.055,2.055,0,0,1,2.31,2.34Zm4.545.18a3.837,3.837,0,0,1-2.925-1.14l.585-.81a2.966,2.966,0,0,0,1.027.735,3.214,3.214,0,0,0,1.357.3,2.03,2.03,0,0,0,1.26-.345,1.082,1.082,0,0,0,.45-.9.848.848,0,0,0-.465-.758,3.719,3.719,0,0,0-1.118-.42q-.652-.143-1.312-.33a2.579,2.579,0,0,1-1.125-.645,1.618,1.618,0,0,1-.465-1.208,1.853,1.853,0,0,1,.727-1.485,3.007,3.007,0,0,1,1.973-.6,3.636,3.636,0,0,1,2.685,1.05l-.525.78a2.659,2.659,0,0,0-2.16-.915,1.922,1.922,0,0,0-1.17.323.979.979,0,0,0-.435.817.755.755,0,0,0,.465.683,4.357,4.357,0,0,0,1.118.39q.652.143,1.313.338a2.509,2.509,0,0,1,1.125.682,1.761,1.761,0,0,1,.465,1.267,1.946,1.946,0,0,1-.75,1.575A3.225,3.225,0,0,1,159.465,18.18ZM171.54,18h-1.125l-1.89-5.82L166.635,18H165.51l-2.31-7.245h1.17l1.77,5.775,1.9-5.775h.96l1.9,5.775,1.77-5.775h1.17Zm6.885.18a3.554,3.554,0,0,1-2.655-1.058,3.768,3.768,0,0,1-1.035-2.752,3.819,3.819,0,0,1,1.02-2.693,3.329,3.329,0,0,1,2.55-1.1,3.164,3.164,0,0,1,2.543,1.1,4.145,4.145,0,0,1,.938,2.783v.285H175.92a2.741,2.741,0,0,0,.78,1.785,2.448,2.448,0,0,0,1.83.72,2.978,2.978,0,0,0,2.235-.915l.54.735A3.9,3.9,0,0,1,178.425,18.18Zm2.25-4.26a2.623,2.623,0,0,0-.63-1.673,2.15,2.15,0,0,0-1.755-.743,2.113,2.113,0,0,0-1.7.735,2.737,2.737,0,0,0-.667,1.68Zm4.05,4.08H183.6V10.755h1.125v1.17a2.963,2.963,0,0,1,2.415-1.32V11.76a2.145,2.145,0,0,0-.45-.045,2.188,2.188,0,0,0-1.11.36,2.371,2.371,0,0,0-.855.8Zm6.12.18a3.837,3.837,0,0,1-2.925-1.14l.585-.81a2.966,2.966,0,0,0,1.027.735,3.214,3.214,0,0,0,1.357.3,2.03,2.03,0,0,0,1.26-.345,1.082,1.082,0,0,0,.45-.9.848.848,0,0,0-.465-.758,3.719,3.719,0,0,0-1.118-.42q-.652-.143-1.312-.33a2.579,2.579,0,0,1-1.125-.645,1.618,1.618,0,0,1-.465-1.208,1.853,1.853,0,0,1,.727-1.485,3.007,3.007,0,0,1,1.973-.6,3.636,3.636,0,0,1,2.685,1.05l-.525.78a2.659,2.659,0,0,0-2.16-.915,1.922,1.922,0,0,0-1.17.323.979.979,0,0,0-.435.817.755.755,0,0,0,.465.683,4.357,4.357,0,0,0,1.118.39q.652.143,1.313.338a2.509,2.509,0,0,1,1.125.682,1.761,1.761,0,0,1,.465,1.267,1.946,1.946,0,0,1-.75,1.575A3.225,3.225,0,0,1,190.845,18.18Z" transform="translate(1017 590)"/>
  </g>
</svg>
