<svg xmlns="http://www.w3.org/2000/svg" xmlns:xlink="http://www.w3.org/1999/xlink" viewBox="0 0 314.017 104.395">
  <defs>
    <style>
      .cls-1 {
        fill: #fff;
      }

      .cls-2 {
        fill: #00aadf;
      }

      .cls-3 {
        fill: #ec565c;
      }

      .cls-4 {
        filter: url(#Ellipse_204);
      }

      .cls-5 {
        filter: url(#Path_704);
      }
    </style>
    <filter id="Path_704" x="0" y="0" width="279.076" height="104.395" filterUnits="userSpaceOnUse">
      <feOffset dy="3" input="SourceAlpha"/>
      <feGaussianBlur stdDeviation="5" result="blur"/>
      <feFlood flood-opacity="0.102"/>
      <feComposite operator="in" in2="blur"/>
      <feComposite in="SourceGraphic"/>
    </filter>
    <filter id="Ellipse_204" x="228.017" y="13" width="86" height="86" filterUnits="userSpaceOnUse">
      <feOffset dy="3" input="SourceAlpha"/>
      <feGaussianBlur stdDeviation="5" result="blur-2"/>
      <feFlood flood-opacity="0.102"/>
      <feComposite operator="in" in2="blur-2"/>
      <feComposite in="SourceGraphic"/>
    </filter>
  </defs>
  <g id="Group_782" data-name="Group 782" transform="translate(-992.983 -545)">
    <g class="cls-5" transform="matrix(1, 0, 0, 1, 992.98, 545)">
      <path id="Path_704-2" data-name="Path 704" class="cls-1" d="M10.885,0H210.093c7.162,0,12.969,4.691,12.969,10.478V49.331c0,17.9,32.135,25.064,24.973,25.064H12.969C5.806,74.4,0,69.7,0,63.917V10.478C0,4.691,3.723,0,10.885,0Z" transform="translate(15 12)"/>
    </g>
    <path id="Path_2900" data-name="Path 2900" d="M4.284,0H1.092V-9.338H4.284a4.672,4.672,0,0,1,3.465,1.33A4.55,4.55,0,0,1,9.072-4.662,4.52,4.52,0,0,1,7.749-1.316,4.7,4.7,0,0,1,4.284,0Zm0-1.036A3.406,3.406,0,0,0,6.9-2.072a3.651,3.651,0,0,0,.966-2.59,3.7,3.7,0,0,0-.952-2.6A3.4,3.4,0,0,0,4.284-8.3H2.254v7.266Zm11.949.182A3.105,3.105,0,0,1,13.8.168,3.105,3.105,0,0,1,11.375-.854a3.655,3.655,0,0,1-.917-2.534,3.629,3.629,0,0,1,.917-2.527A3.115,3.115,0,0,1,13.8-6.93a3.115,3.115,0,0,1,2.429,1.015,3.629,3.629,0,0,1,.917,2.527A3.655,3.655,0,0,1,16.233-.854Zm-4.074-.679A1.994,1.994,0,0,0,13.8-.77a1.975,1.975,0,0,0,1.638-.763,2.9,2.9,0,0,0,.6-1.855,2.874,2.874,0,0,0-.6-1.848A1.982,1.982,0,0,0,13.8-5.992a1.994,1.994,0,0,0-1.645.763,2.859,2.859,0,0,0-.609,1.841A2.88,2.88,0,0,0,12.159-1.533ZM28.084,0h-1.05V-4.424a1.579,1.579,0,0,0-.392-1.211,1.606,1.606,0,0,0-1.12-.357,2.316,2.316,0,0,0-1.141.308,2.556,2.556,0,0,0-.861.742V0H22.47V-6.762h1.05v.98a3.438,3.438,0,0,1,1.05-.805,2.9,2.9,0,0,1,1.358-.343,1.918,1.918,0,0,1,2.156,2.184Zm7.483-.854A3.105,3.105,0,0,1,33.138.168,3.105,3.105,0,0,1,30.709-.854a3.655,3.655,0,0,1-.917-2.534,3.629,3.629,0,0,1,.917-2.527A3.115,3.115,0,0,1,33.138-6.93a3.115,3.115,0,0,1,2.429,1.015,3.629,3.629,0,0,1,.917,2.527A3.655,3.655,0,0,1,35.567-.854Zm-4.074-.679a1.994,1.994,0,0,0,1.645.763,1.975,1.975,0,0,0,1.638-.763,2.9,2.9,0,0,0,.6-1.855,2.874,2.874,0,0,0-.6-1.848,1.982,1.982,0,0,0-1.638-.756,1.994,1.994,0,0,0-1.645.763,2.859,2.859,0,0,0-.609,1.841A2.88,2.88,0,0,0,31.493-1.533ZM39.9.168a1.457,1.457,0,0,1-1.12-.406A1.665,1.665,0,0,1,38.4-1.414V-5.838h-1.12v-.924H38.4V-8.61h1.05v1.848h1.372v.924H39.452v4.2a1.039,1.039,0,0,0,.175.63.6.6,0,0,0,.511.238.911.911,0,0,0,.714-.28l.308.784A1.766,1.766,0,0,1,39.9.168ZM51.548,0H50.5V-4.452a1.533,1.533,0,0,0-.392-1.19,1.65,1.65,0,0,0-1.134-.35,2.291,2.291,0,0,0-1.127.308,2.707,2.707,0,0,0-.875.742V0H45.92V-9.338h1.05v3.556a3.438,3.438,0,0,1,1.05-.805,2.93,2.93,0,0,1,1.372-.343,1.906,1.906,0,0,1,2.156,2.156Zm7.483-.854A3.105,3.105,0,0,1,56.6.168,3.105,3.105,0,0,1,54.173-.854a3.655,3.655,0,0,1-.917-2.534,3.629,3.629,0,0,1,.917-2.527A3.115,3.115,0,0,1,56.6-6.93a3.115,3.115,0,0,1,2.429,1.015,3.629,3.629,0,0,1,.917,2.527A3.655,3.655,0,0,1,59.031-.854Zm-4.074-.679A1.994,1.994,0,0,0,56.6-.77a1.975,1.975,0,0,0,1.638-.763,2.9,2.9,0,0,0,.6-1.855,2.874,2.874,0,0,0-.6-1.848A1.982,1.982,0,0,0,56.6-5.992a1.994,1.994,0,0,0-1.645.763,2.859,2.859,0,0,0-.609,1.841A2.88,2.88,0,0,0,54.957-1.533ZM62.706,0h-1.05V-9.338h1.05Zm8.05,0h-1.05V-1.008A2.705,2.705,0,0,1,67.424.168a2.746,2.746,0,0,1-2.177-.959,3.8,3.8,0,0,1-.833-2.583,3.835,3.835,0,0,1,.833-2.583,2.729,2.729,0,0,1,2.177-.973,2.719,2.719,0,0,1,2.282,1.19v-3.6h1.05Zm-3.08-.77a2.406,2.406,0,0,0,1.176-.308,2.344,2.344,0,0,0,.854-.756V-4.9a2.335,2.335,0,0,0-.861-.777,2.378,2.378,0,0,0-1.169-.315,1.921,1.921,0,0,0-1.582.735,2.92,2.92,0,0,0-.588,1.883A2.891,2.891,0,0,0,66.094-1.5,1.928,1.928,0,0,0,67.676-.77ZM76.09,2.646l.168-.952a1.4,1.4,0,0,0,.574.112,1.088,1.088,0,0,0,.6-.154,1.179,1.179,0,0,0,.406-.56L78.288.07,75.46-6.762h1.134l2.254,5.544,2.24-5.544h1.148L78.848,1.372A2.048,2.048,0,0,1,76.86,2.744,2.85,2.85,0,0,1,76.09,2.646Zm12.621-3.5A3.105,3.105,0,0,1,86.282.168,3.105,3.105,0,0,1,83.853-.854a3.655,3.655,0,0,1-.917-2.534,3.629,3.629,0,0,1,.917-2.527A3.115,3.115,0,0,1,86.282-6.93a3.115,3.115,0,0,1,2.429,1.015,3.629,3.629,0,0,1,.917,2.527A3.655,3.655,0,0,1,88.711-.854Zm-4.074-.679a1.994,1.994,0,0,0,1.645.763,1.975,1.975,0,0,0,1.638-.763,2.9,2.9,0,0,0,.6-1.855,2.874,2.874,0,0,0-.6-1.848,1.982,1.982,0,0,0-1.638-.756,1.994,1.994,0,0,0-1.645.763,2.859,2.859,0,0,0-.609,1.841A2.88,2.88,0,0,0,84.637-1.533ZM96.95,0H95.9V-.952a3.486,3.486,0,0,1-1.057.8,2.954,2.954,0,0,1-1.351.322,1.906,1.906,0,0,1-2.156-2.156V-6.762h1.05V-2.31a1.55,1.55,0,0,0,.385,1.19A1.622,1.622,0,0,0,93.9-.77a2.4,2.4,0,0,0,1.141-.294,2.427,2.427,0,0,0,.861-.728v-4.97h1.05Zm3.15,0H99.05V-6.762h1.05V-5.67A2.765,2.765,0,0,1,102.354-6.9v1.078a2,2,0,0,0-.42-.042,2.042,2.042,0,0,0-1.036.336,2.213,2.213,0,0,0-.8.742Zm10.01-.77a2.4,2.4,0,0,0,1.183-.315,2.108,2.108,0,0,0,.833-.777V-4.914a2.148,2.148,0,0,0-.833-.763,2.4,2.4,0,0,0-1.183-.315,1.908,1.908,0,0,0-1.575.728,2.915,2.915,0,0,0-.581,1.876,2.944,2.944,0,0,0,.581,1.883A1.9,1.9,0,0,0,110.11-.77Zm-.252.938A2.737,2.737,0,0,1,107.681-.8a3.83,3.83,0,0,1-.833-2.59,3.8,3.8,0,0,1,.833-2.583,2.746,2.746,0,0,1,2.177-.959,2.718,2.718,0,0,1,1.3.322,2.678,2.678,0,0,1,.966.854V-6.762h1.05V2.576h-1.05v-3.6A2.66,2.66,0,0,1,109.858.168ZM120.9,0h-1.05V-.952a3.486,3.486,0,0,1-1.057.8,2.954,2.954,0,0,1-1.351.322,1.906,1.906,0,0,1-2.156-2.156V-6.762h1.05V-2.31a1.55,1.55,0,0,0,.385,1.19,1.622,1.622,0,0,0,1.127.35,2.4,2.4,0,0,0,1.141-.294,2.427,2.427,0,0,0,.861-.728v-4.97h1.05Zm5.152.168a3.317,3.317,0,0,1-2.478-.987,3.517,3.517,0,0,1-.966-2.569,3.565,3.565,0,0,1,.952-2.513,3.108,3.108,0,0,1,2.38-1.029A2.953,2.953,0,0,1,128.317-5.9a3.869,3.869,0,0,1,.875,2.6v.266h-5.474a2.558,2.558,0,0,0,.728,1.666,2.285,2.285,0,0,0,1.708.672,2.779,2.779,0,0,0,2.086-.854l.5.686A3.637,3.637,0,0,1,126.056.168Zm2.1-3.976a2.448,2.448,0,0,0-.588-1.561,2.007,2.007,0,0,0-1.638-.693,1.972,1.972,0,0,0-1.589.686,2.554,2.554,0,0,0-.623,1.568ZM133.028.168A3.581,3.581,0,0,1,130.3-.9l.546-.756a2.768,2.768,0,0,0,.959.686,3,3,0,0,0,1.267.28,1.9,1.9,0,0,0,1.176-.322,1.01,1.01,0,0,0,.42-.84.792.792,0,0,0-.434-.707,3.47,3.47,0,0,0-1.043-.392q-.609-.133-1.225-.308a2.407,2.407,0,0,1-1.05-.6,1.51,1.51,0,0,1-.434-1.127,1.729,1.729,0,0,1,.679-1.386A2.807,2.807,0,0,1,133-6.93a3.393,3.393,0,0,1,2.506.98l-.49.728A2.482,2.482,0,0,0,133-6.076a1.793,1.793,0,0,0-1.092.3.914.914,0,0,0-.406.763.7.7,0,0,0,.434.637,4.067,4.067,0,0,0,1.043.364q.609.133,1.225.315a2.342,2.342,0,0,1,1.05.637,1.643,1.643,0,0,1,.434,1.183,1.817,1.817,0,0,1-.7,1.47A3.01,3.01,0,0,1,133.028.168Zm6.076,0a1.457,1.457,0,0,1-1.12-.406,1.665,1.665,0,0,1-.378-1.176V-5.838h-1.12v-.924h1.12V-8.61h1.05v1.848h1.372v.924h-1.372v4.2a1.039,1.039,0,0,0,.175.63.6.6,0,0,0,.511.238.911.911,0,0,0,.714-.28l.308.784A1.766,1.766,0,0,1,139.1.168Zm2.926-7.9a.683.683,0,0,1-.49-.2.665.665,0,0,1-.21-.5.687.687,0,0,1,.21-.5.672.672,0,0,1,.49-.21.687.687,0,0,1,.5.21.687.687,0,0,1,.21.5.665.665,0,0,1-.21.5A.7.7,0,0,1,142.03-7.728ZM142.562,0h-1.05V-6.762h1.05Zm7.483-.854A3.105,3.105,0,0,1,147.616.168a3.105,3.105,0,0,1-2.429-1.022,3.655,3.655,0,0,1-.917-2.534,3.629,3.629,0,0,1,.917-2.527,3.115,3.115,0,0,1,2.429-1.015,3.115,3.115,0,0,1,2.429,1.015,3.629,3.629,0,0,1,.917,2.527A3.655,3.655,0,0,1,150.045-.854Zm-4.074-.679a1.994,1.994,0,0,0,1.645.763,1.975,1.975,0,0,0,1.638-.763,2.9,2.9,0,0,0,.6-1.855,2.874,2.874,0,0,0-.6-1.848,1.982,1.982,0,0,0-1.638-.756,1.994,1.994,0,0,0-1.645.763,2.859,2.859,0,0,0-.609,1.841A2.88,2.88,0,0,0,145.971-1.533ZM158.284,0h-1.05V-4.424a1.579,1.579,0,0,0-.392-1.211,1.606,1.606,0,0,0-1.12-.357,2.316,2.316,0,0,0-1.141.308,2.556,2.556,0,0,0-.861.742V0h-1.05V-6.762h1.05v.98a3.438,3.438,0,0,1,1.05-.805,2.9,2.9,0,0,1,1.358-.343,1.918,1.918,0,0,1,2.156,2.184Zm4.242.168A3.581,3.581,0,0,1,159.8-.9l.546-.756a2.768,2.768,0,0,0,.959.686,3,3,0,0,0,1.267.28,1.9,1.9,0,0,0,1.176-.322,1.01,1.01,0,0,0,.42-.84.792.792,0,0,0-.434-.707,3.47,3.47,0,0,0-1.043-.392q-.609-.133-1.225-.308a2.407,2.407,0,0,1-1.05-.6,1.51,1.51,0,0,1-.434-1.127,1.729,1.729,0,0,1,.679-1.386,2.807,2.807,0,0,1,1.841-.56A3.393,3.393,0,0,1,165-5.95l-.49.728a2.482,2.482,0,0,0-2.016-.854,1.793,1.793,0,0,0-1.092.3.914.914,0,0,0-.406.763.7.7,0,0,0,.434.637,4.067,4.067,0,0,0,1.043.364q.609.133,1.225.315a2.342,2.342,0,0,1,1.05.637,1.643,1.643,0,0,1,.434,1.183,1.817,1.817,0,0,1-.7,1.47A3.01,3.01,0,0,1,162.526.168ZM7.952,17H6.9L5.138,11.568,3.374,17H2.324L.168,10.238H1.26l1.652,5.39,1.778-5.39h.9l1.778,5.39,1.652-5.39h1.092Zm3.892-7.728a.683.683,0,0,1-.49-.2.665.665,0,0,1-.21-.5.687.687,0,0,1,.21-.5.672.672,0,0,1,.49-.21.717.717,0,0,1,.714.714.665.665,0,0,1-.21.5A.7.7,0,0,1,11.844,9.272ZM12.376,17h-1.05V10.238h1.05Zm3.808.168a1.457,1.457,0,0,1-1.12-.406,1.665,1.665,0,0,1-.378-1.176V11.162h-1.12v-.924h1.12V8.39h1.05v1.848h1.372v.924H15.736v4.2a1.039,1.039,0,0,0,.175.63.6.6,0,0,0,.511.238.911.911,0,0,0,.714-.28l.308.784A1.766,1.766,0,0,1,16.184,17.168ZM24.22,17H23.17V12.548a1.533,1.533,0,0,0-.392-1.19,1.65,1.65,0,0,0-1.134-.35,2.291,2.291,0,0,0-1.127.308,2.707,2.707,0,0,0-.875.742V17h-1.05V7.662h1.05v3.556a3.438,3.438,0,0,1,1.05-.805,2.93,2.93,0,0,1,1.372-.343,1.906,1.906,0,0,1,2.156,2.156Zm2.618-7.728a.683.683,0,0,1-.49-.2.665.665,0,0,1-.21-.5.687.687,0,0,1,.21-.5.672.672,0,0,1,.49-.21.717.717,0,0,1,.714.714.665.665,0,0,1-.21.5A.7.7,0,0,1,26.838,9.272ZM27.37,17H26.32V10.238h1.05Zm7.714,0h-1.05V12.576a1.579,1.579,0,0,0-.392-1.211,1.606,1.606,0,0,0-1.12-.357,2.316,2.316,0,0,0-1.141.308,2.556,2.556,0,0,0-.861.742V17H29.47V10.238h1.05v.98a3.438,3.438,0,0,1,1.05-.805,2.9,2.9,0,0,1,1.358-.343,1.918,1.918,0,0,1,2.156,2.184Zm3.206-.084a.777.777,0,1,1,.224-.546A.743.743,0,0,1,38.29,16.916Zm7.266.252A3.051,3.051,0,0,1,43.12,16.09l.6-.882a2.258,2.258,0,0,0,1.764.924,1.792,1.792,0,0,0,1.365-.539,1.98,1.98,0,0,0,.511-1.421V7.662h1.162v6.524a2.872,2.872,0,0,1-.826,2.219A3.032,3.032,0,0,1,45.556,17.168Zm10.493-1.022a3.4,3.4,0,0,1-4.858,0,3.655,3.655,0,0,1-.917-2.534,3.629,3.629,0,0,1,.917-2.527,3.414,3.414,0,0,1,4.858,0,3.629,3.629,0,0,1,.917,2.527A3.655,3.655,0,0,1,56.049,16.146Zm-4.074-.679a2.147,2.147,0,0,0,3.283,0,2.9,2.9,0,0,0,.6-1.855,2.874,2.874,0,0,0-.6-1.848,2.154,2.154,0,0,0-3.283.007,2.859,2.859,0,0,0-.609,1.841A2.88,2.88,0,0,0,51.975,15.467Zm7.217-6.2a.683.683,0,0,1-.49-.2.665.665,0,0,1-.21-.5.687.687,0,0,1,.21-.5.672.672,0,0,1,.49-.21.717.717,0,0,1,.714.714.665.665,0,0,1-.21.5A.7.7,0,0,1,59.192,9.272ZM59.724,17h-1.05V10.238h1.05Zm7.714,0h-1.05V12.576A1.579,1.579,0,0,0,66,11.365a1.606,1.606,0,0,0-1.12-.357,2.316,2.316,0,0,0-1.141.308,2.556,2.556,0,0,0-.861.742V17h-1.05V10.238h1.05v.98a3.438,3.438,0,0,1,1.05-.805,2.9,2.9,0,0,1,1.358-.343,1.918,1.918,0,0,1,2.156,2.184Zm3.514-.336a2.363,2.363,0,0,1-.322,1.183,2.893,2.893,0,0,1-.826.931l-.518-.434a2.168,2.168,0,0,0,.609-.595,1.6,1.6,0,0,0,.3-.707.481.481,0,0,1-.2.028.631.631,0,0,1-.483-.2.721.721,0,0,1-.189-.511.739.739,0,0,1,.217-.532.7.7,0,0,1,.525-.224.81.81,0,0,1,.623.287A1.116,1.116,0,0,1,70.952,16.664ZM83.272,17h-1.05l-1.764-5.432L78.694,17h-1.05l-2.156-6.762H76.58l1.652,5.39,1.778-5.39h.9l1.778,5.39,1.652-5.39h1.092Zm6.426.168a3.317,3.317,0,0,1-2.478-.987,3.517,3.517,0,0,1-.966-2.569,3.565,3.565,0,0,1,.952-2.513,3.108,3.108,0,0,1,2.38-1.029A2.953,2.953,0,0,1,91.959,11.1a3.869,3.869,0,0,1,.875,2.6v.266H87.36a2.558,2.558,0,0,0,.728,1.666A2.285,2.285,0,0,0,89.8,16.3a2.779,2.779,0,0,0,2.086-.854l.5.686A3.637,3.637,0,0,1,89.7,17.168Zm2.1-3.976a2.448,2.448,0,0,0-.588-1.561,2.007,2.007,0,0,0-1.638-.693,1.972,1.972,0,0,0-1.589.686,2.554,2.554,0,0,0-.623,1.568ZM103.768,17h-1.05V12.548a1.533,1.533,0,0,0-.392-1.19,1.65,1.65,0,0,0-1.134-.35,2.291,2.291,0,0,0-1.127.308,2.707,2.707,0,0,0-.875.742V17H98.14V7.662h1.05v3.556a3.438,3.438,0,0,1,1.05-.805,2.93,2.93,0,0,1,1.372-.343,1.906,1.906,0,0,1,2.156,2.156Zm7.378,0H110.1v-.77a2.886,2.886,0,0,1-2.24.938,2.487,2.487,0,0,1-1.652-.6,2.03,2.03,0,0,1-.714-1.638,2.009,2.009,0,0,1,.707-1.645,2.533,2.533,0,0,1,1.659-.581,2.8,2.8,0,0,1,2.24.924V12.408a1.266,1.266,0,0,0-.476-1.05,1.921,1.921,0,0,0-1.232-.378,2.757,2.757,0,0,0-2.072.938l-.49-.728a3.594,3.594,0,0,1,2.7-1.12,3.013,3.013,0,0,1,1.89.56,2.035,2.035,0,0,1,.728,1.722Zm-2.912-.588a2.136,2.136,0,0,0,1.862-.84V14.3a2.136,2.136,0,0,0-1.862-.84,1.745,1.745,0,0,0-1.2.413,1.36,1.36,0,0,0-.469,1.071A1.345,1.345,0,0,0,107.037,16,1.745,1.745,0,0,0,108.234,16.412ZM116.2,17h-1.148l-2.814-6.762h1.134l2.254,5.544,2.24-5.544h1.148Zm6.958.168a3.317,3.317,0,0,1-2.478-.987,3.517,3.517,0,0,1-.966-2.569,3.565,3.565,0,0,1,.952-2.513,3.108,3.108,0,0,1,2.38-1.029,2.953,2.953,0,0,1,2.373,1.029,3.869,3.869,0,0,1,.875,2.6v.266H120.82a2.558,2.558,0,0,0,.728,1.666,2.285,2.285,0,0,0,1.708.672,2.779,2.779,0,0,0,2.086-.854l.5.686A3.637,3.637,0,0,1,123.158,17.168Zm2.1-3.976a2.448,2.448,0,0,0-.588-1.561,2.007,2.007,0,0,0-1.638-.693,1.972,1.972,0,0,0-1.589.686,2.554,2.554,0,0,0-.623,1.568ZM136.878,17h-1.05v-.77a2.886,2.886,0,0,1-2.24.938,2.487,2.487,0,0,1-1.652-.6,2.03,2.03,0,0,1-.714-1.638,2.009,2.009,0,0,1,.707-1.645,2.533,2.533,0,0,1,1.659-.581,2.8,2.8,0,0,1,2.24.924V12.408a1.266,1.266,0,0,0-.476-1.05,1.921,1.921,0,0,0-1.232-.378,2.757,2.757,0,0,0-2.072.938l-.49-.728a3.594,3.594,0,0,1,2.7-1.12,3.013,3.013,0,0,1,1.89.56,2.035,2.035,0,0,1,.728,1.722Zm-2.912-.588a2.136,2.136,0,0,0,1.862-.84V14.3a2.136,2.136,0,0,0-1.862-.84,1.745,1.745,0,0,0-1.2.413,1.36,1.36,0,0,0-.469,1.071A1.345,1.345,0,0,0,132.769,16,1.745,1.745,0,0,0,133.966,16.412ZM144.592,17h-1.05V12.576a1.579,1.579,0,0,0-.392-1.211,1.606,1.606,0,0,0-1.12-.357,2.316,2.316,0,0,0-1.141.308,2.556,2.556,0,0,0-.861.742V17h-1.05V10.238h1.05v.98a3.438,3.438,0,0,1,1.05-.805,2.9,2.9,0,0,1,1.358-.343,1.918,1.918,0,0,1,2.156,2.184Zm4.242.168A3.581,3.581,0,0,1,146.1,16.1l.546-.756a2.768,2.768,0,0,0,.959.686,3,3,0,0,0,1.267.28,1.9,1.9,0,0,0,1.176-.322,1.01,1.01,0,0,0,.42-.84.792.792,0,0,0-.434-.707A3.471,3.471,0,0,0,149,14.053q-.609-.133-1.225-.308a2.407,2.407,0,0,1-1.05-.6,1.51,1.51,0,0,1-.434-1.127,1.729,1.729,0,0,1,.679-1.386,2.807,2.807,0,0,1,1.841-.56,3.393,3.393,0,0,1,2.506.98l-.49.728a2.482,2.482,0,0,0-2.016-.854,1.793,1.793,0,0,0-1.092.3.914.914,0,0,0-.406.763.7.7,0,0,0,.434.637,4.067,4.067,0,0,0,1.043.364q.609.133,1.225.315a2.342,2.342,0,0,1,1.05.637,1.643,1.643,0,0,1,.434,1.183,1.817,1.817,0,0,1-.7,1.47A3.01,3.01,0,0,1,148.834,17.168ZM160.1,17h-1.05l-1.764-5.432L155.526,17h-1.05l-2.156-6.762h1.092l1.652,5.39,1.778-5.39h.9l1.778,5.39,1.652-5.39h1.092Zm6.426.168a3.317,3.317,0,0,1-2.478-.987,3.517,3.517,0,0,1-.966-2.569,3.565,3.565,0,0,1,.952-2.513,3.108,3.108,0,0,1,2.38-1.029,2.953,2.953,0,0,1,2.373,1.029,3.869,3.869,0,0,1,.875,2.6v.266h-5.474a2.558,2.558,0,0,0,.728,1.666,2.285,2.285,0,0,0,1.708.672,2.779,2.779,0,0,0,2.086-.854l.5.686A3.637,3.637,0,0,1,166.53,17.168Zm2.1-3.976a2.448,2.448,0,0,0-.588-1.561,2.007,2.007,0,0,0-1.638-.693,1.972,1.972,0,0,0-1.589.686,2.554,2.554,0,0,0-.623,1.568ZM172.41,17h-1.05V10.238h1.05V11.33a2.765,2.765,0,0,1,2.254-1.232v1.078a2,2,0,0,0-.42-.042,2.042,2.042,0,0,0-1.036.336,2.212,2.212,0,0,0-.8.742Zm5.712.168a3.581,3.581,0,0,1-2.73-1.064l.546-.756a2.768,2.768,0,0,0,.959.686,3,3,0,0,0,1.267.28,1.9,1.9,0,0,0,1.176-.322,1.01,1.01,0,0,0,.42-.84.792.792,0,0,0-.434-.707,3.471,3.471,0,0,0-1.043-.392q-.609-.133-1.225-.308a2.407,2.407,0,0,1-1.05-.6,1.51,1.51,0,0,1-.434-1.127,1.729,1.729,0,0,1,.679-1.386,2.807,2.807,0,0,1,1.841-.56,3.393,3.393,0,0,1,2.506.98l-.49.728a2.482,2.482,0,0,0-2.016-.854,1.793,1.793,0,0,0-1.092.3.914.914,0,0,0-.406.763.7.7,0,0,0,.434.637,4.067,4.067,0,0,0,1.043.364q.609.133,1.225.315a2.342,2.342,0,0,1,1.05.637,1.643,1.643,0,0,1,.434,1.183,1.817,1.817,0,0,1-.7,1.47A3.01,3.01,0,0,1,178.122,17.168Z" transform="translate(1025 589)"/>
    <g id="telegram">
      <g class="cls-4" transform="matrix(1, 0, 0, 1, 992.98, 545)">
        <circle id="Ellipse_204-2" data-name="Ellipse 204" class="cls-2" cx="28" cy="28" r="28" transform="translate(243.02 25)"/>
      </g>
      <circle id="Ellipse_208" data-name="Ellipse 208" class="cls-3" cx="8.5" cy="8.5" r="8.5" transform="translate(1279 568)"/>
      <path id="Path_2899" data-name="Path 2899" class="cls-1" d="M3.393,0H2.314V-7.241L.923-5.772l-.65-.663L2.444-8.671h.949Z" transform="translate(1285 581)"/>
      <g id="telegram-2" data-name="telegram" transform="translate(1247.513 566.658)">
        <path id="XMLID_497_" class="cls-1" d="M.525,31.811l6.85,2.557,2.651,8.526a.806.806,0,0,0,1.281.386l3.818-3.113a1.139,1.139,0,0,1,1.389-.039l6.887,5a.807.807,0,0,0,1.265-.488L29.71,20.374a.808.808,0,0,0-1.081-.917L.517,30.3A.808.808,0,0,0,.525,31.811Zm9.074,1.2,13.387-8.245a.233.233,0,0,1,.282.369L12.219,35.4a2.29,2.29,0,0,0-.71,1.37l-.376,2.789a.346.346,0,0,1-.676.049L9.01,34.523A1.348,1.348,0,0,1,9.6,33.007Z" transform="translate(0 0)"/>
      </g>
    </g>
  </g>
</svg>
