<svg xmlns="http://www.w3.org/2000/svg" viewBox="0 0 60 58">
  <defs>
    <style>
      .cls-1 {
        fill: #00aadf;
      }

      .cls-2 {
        fill: #ec565c;
      }

      .cls-3 {
        fill: #fff;
      }
    </style>
  </defs>
  <g id="telegram" transform="translate(-1236 -568)">
    <circle id="Ellipse_204" data-name="Ellipse 204" class="cls-1" cx="28" cy="28" r="28" transform="translate(1236 570)"/>
    <circle id="Ellipse_208" data-name="Ellipse 208" class="cls-2" cx="8.5" cy="8.5" r="8.5" transform="translate(1279 568)"/>
    <path id="Path_2899" data-name="Path 2899" class="cls-3" d="M3.393,0H2.314V-7.241L.923-5.772l-.65-.663L2.444-8.671h.949Z" transform="translate(1285 581)"/>
    <g id="telegram-2" data-name="telegram" transform="translate(1247.513 566.658)">
      <path id="XMLID_497_" class="cls-3" d="M.525,31.811l6.85,2.557,2.651,8.526a.806.806,0,0,0,1.281.386l3.818-3.113a1.139,1.139,0,0,1,1.389-.039l6.887,5a.807.807,0,0,0,1.265-.488L29.71,20.374a.808.808,0,0,0-1.081-.917L.517,30.3A.808.808,0,0,0,.525,31.811Zm9.074,1.2,13.387-8.245a.233.233,0,0,1,.282.369L12.219,35.4a2.29,2.29,0,0,0-.71,1.37l-.376,2.789a.346.346,0,0,1-.676.049L9.01,34.523A1.348,1.348,0,0,1,9.6,33.007Z" transform="translate(0 0)"/>
    </g>
  </g>
</svg>
