<?xml version="1.0" encoding="utf-8"?>
<!-- Generator: Adobe Illustrator 22.0.1, SVG Export Plug-In . SVG Version: 6.00 Build 0)  -->
<svg version="1.1" id="Слой_1" xmlns="http://www.w3.org/2000/svg" xmlns:xlink="http://www.w3.org/1999/xlink" x="0px" y="0px"
	 viewBox="0 0 880.1 361.4" style="enable-background:new 0 0 880.1 361.4;" xml:space="preserve">
<style type="text/css">
	.st0{fill:#F2F3F4;}
	.st1{fill:#676768;}
	.st2{fill:#FF9D46;}
	.st3{fill:#FF5F65;}
	.st4{fill:#E8836B;}
	.st5{fill:#CA4E4B;}
	.st6{fill:#4F4145;}
	.st7{fill:none;stroke:#563D40;stroke-width:0.2;stroke-miterlimit:10;}
	.st8{fill:none;stroke:#CA4E4B;stroke-width:0.3;stroke-miterlimit:10;}
	.st9{fill:#0088D0;}
	.st10{fill:#1A1A1A;}
	.st11{fill:none;stroke:#000000;stroke-width:0.2;stroke-miterlimit:10;}
</style>
<g>
	<rect x="569.9" y="22.3" class="st0" width="301.4" height="66.7"/>
</g>
<g>
	<rect x="569.9" y="89.2" class="st0" width="301.4" height="253.9"/>
</g>
<g>
	<g>
		<path class="st1" d="M662.9,92.4c0-0.8-0.3-1.4-0.8-1.9c-0.6-0.5-1.6-0.9-3.1-1.3c-1.5-0.4-2.6-0.9-3.2-1.4
			c-1-0.7-1.5-1.6-1.5-2.7c0-1.1,0.5-2,1.4-2.7c0.9-0.7,2.1-1,3.5-1c1,0,1.8,0.2,2.6,0.6c0.8,0.4,1.3,0.9,1.7,1.5
			c0.4,0.7,0.6,1.4,0.6,2.2h-1.2c0-1-0.3-1.8-1-2.4c-0.7-0.6-1.6-0.9-2.7-0.9c-1.1,0-2,0.2-2.6,0.7c-0.6,0.5-1,1.1-1,1.9
			c0,0.7,0.3,1.3,0.9,1.8c0.6,0.5,1.5,0.9,2.8,1.2c1.3,0.4,2.3,0.7,2.9,1.1c0.7,0.4,1.2,0.8,1.5,1.4s0.5,1.1,0.5,1.9
			c0,1.1-0.5,2-1.4,2.7c-0.9,0.7-2.1,1-3.6,1c-1,0-1.9-0.2-2.8-0.5c-0.8-0.4-1.5-0.9-1.9-1.5c-0.4-0.6-0.7-1.4-0.7-2.2h1.2
			c0,1,0.4,1.8,1.1,2.4s1.8,0.9,3,0.9c1.1,0,2-0.2,2.7-0.7C662.6,93.9,662.9,93.2,662.9,92.4z"/>
		<path class="st1" d="M667.5,85.3l0,1.7c0.4-0.6,0.9-1.1,1.5-1.4c0.6-0.3,1.2-0.5,2-0.5c1.7,0,2.7,0.7,3.2,2.1
			c0.4-0.7,0.9-1.2,1.5-1.5c0.6-0.4,1.3-0.5,2.1-0.5c2.3,0,3.4,1.2,3.5,3.7v7.1h-1.2v-7c0-1-0.2-1.7-0.6-2.1c-0.4-0.5-1.1-0.7-2-0.7
			c-0.8,0-1.6,0.3-2.1,0.8s-0.9,1.2-1,2v7h-1.2v-7.1c0-0.9-0.2-1.6-0.6-2c-0.4-0.4-1.1-0.7-2-0.7c-0.7,0-1.4,0.2-1.9,0.6
			c-0.5,0.4-0.9,1.1-1.2,1.9v7.3h-1.2V85.3H667.5z"/>
		<path class="st1" d="M691,95.9c-0.1-0.3-0.2-0.8-0.2-1.5c-0.4,0.5-0.9,1-1.6,1.2c-0.6,0.3-1.3,0.4-2,0.4c-1,0-1.9-0.3-2.5-0.9
			s-0.9-1.3-0.9-2.2c0-1,0.4-1.9,1.3-2.5c0.9-0.6,2.1-0.9,3.6-0.9h2.1v-1.2c0-0.8-0.2-1.4-0.7-1.8c-0.5-0.4-1.2-0.7-2.1-0.7
			c-0.8,0-1.5,0.2-2,0.6c-0.5,0.4-0.8,0.9-0.8,1.5l-1.2,0c0-0.8,0.4-1.6,1.2-2.2c0.8-0.6,1.8-0.9,2.9-0.9c1.2,0,2.1,0.3,2.8,0.9
			c0.7,0.6,1,1.4,1.1,2.5v5c0,1,0.1,1.8,0.3,2.3v0.1H691z M687.3,95.1c0.8,0,1.5-0.2,2.1-0.6c0.6-0.4,1.1-0.9,1.4-1.5v-2.3h-2.1
			c-1.2,0-2.1,0.2-2.8,0.6c-0.7,0.4-1,1-1,1.7c0,0.6,0.2,1.1,0.7,1.5C686,94.9,686.6,95.1,687.3,95.1z"/>
		<path class="st1" d="M700,86.3c-0.3,0-0.5-0.1-0.8-0.1c-0.7,0-1.4,0.2-1.9,0.6c-0.5,0.4-0.9,1-1.1,1.8v7.3h-1.2V85.3h1.2l0,1.7
			c0.6-1.3,1.6-1.9,3-1.9c0.3,0,0.6,0,0.8,0.1L700,86.3z"/>
		<path class="st1" d="M704.2,82.6v2.7h2.2v1h-2.2v7.1c0,0.6,0.1,1,0.3,1.3c0.2,0.3,0.6,0.4,1.1,0.4c0.2,0,0.5,0,1-0.1l0,1
			c-0.3,0.1-0.7,0.2-1.3,0.2c-0.8,0-1.4-0.2-1.8-0.7c-0.4-0.5-0.6-1.2-0.6-2.1v-7.1h-2v-1h2v-2.7H704.2z"/>
		<path class="st1" d="M724.2,91.5c-0.2,1.5-0.7,2.7-1.6,3.5c-0.9,0.8-2.1,1.2-3.7,1.2c-1.1,0-2-0.3-2.8-0.8
			c-0.8-0.5-1.4-1.3-1.9-2.3s-0.7-2.1-0.7-3.3v-1.9c0-1.3,0.2-2.4,0.7-3.4s1.1-1.7,1.9-2.3c0.8-0.5,1.8-0.8,2.9-0.8
			c1.5,0,2.7,0.4,3.6,1.2c0.9,0.8,1.4,2,1.5,3.4h-1.2c-0.3-2.4-1.6-3.7-4-3.7c-1.3,0-2.3,0.5-3.1,1.5s-1.2,2.3-1.2,4v1.8
			c0,1.7,0.4,3,1.1,4c0.8,1,1.8,1.5,3,1.5c1.3,0,2.2-0.3,2.9-0.9c0.6-0.6,1-1.5,1.2-2.7H724.2z"/>
		<path class="st1" d="M726.2,90.5c0-1,0.2-1.9,0.6-2.8c0.4-0.8,1-1.5,1.7-1.9s1.5-0.7,2.5-0.7c1.4,0,2.6,0.5,3.4,1.5s1.3,2.3,1.3,4
			v0.2c0,1-0.2,2-0.6,2.8c-0.4,0.8-1,1.5-1.7,1.9c-0.7,0.4-1.5,0.7-2.5,0.7c-1.4,0-2.6-0.5-3.4-1.5c-0.9-1-1.3-2.3-1.3-4V90.5z
			 M727.4,90.8c0,1.3,0.3,2.3,1,3.1c0.7,0.8,1.5,1.2,2.6,1.2c1.1,0,1.9-0.4,2.6-1.2c0.7-0.8,1-1.9,1-3.2v-0.2c0-0.8-0.2-1.6-0.5-2.2
			c-0.3-0.7-0.7-1.2-1.3-1.6c-0.5-0.4-1.2-0.6-1.9-0.6c-1,0-1.9,0.4-2.6,1.2c-0.7,0.8-1,1.9-1,3.2V90.8z"/>
		<path class="st1" d="M739.2,85.3l0,1.8c0.4-0.7,0.9-1.2,1.5-1.5s1.3-0.5,2-0.5c1.1,0,2,0.3,2.5,1c0.6,0.6,0.8,1.6,0.8,2.9v7H745
			v-7c0-1-0.2-1.7-0.6-2.1c-0.4-0.5-1-0.7-1.9-0.7c-0.7,0-1.4,0.2-1.9,0.7c-0.6,0.5-1,1.1-1.2,1.8v7.3h-1.2V85.3H739.2z"/>
		<path class="st1" d="M751,82.6v2.7h2.2v1H751v7.1c0,0.6,0.1,1,0.3,1.3c0.2,0.3,0.6,0.4,1.1,0.4c0.2,0,0.5,0,1-0.1l0,1
			c-0.3,0.1-0.7,0.2-1.3,0.2c-0.8,0-1.4-0.2-1.8-0.7c-0.4-0.5-0.6-1.2-0.6-2.1v-7.1h-2v-1h2v-2.7H751z"/>
		<path class="st1" d="M760.6,86.3c-0.3,0-0.5-0.1-0.8-0.1c-0.7,0-1.4,0.2-1.9,0.6c-0.5,0.4-0.9,1-1.1,1.8v7.3h-1.2V85.3h1.2l0,1.7
			c0.6-1.3,1.6-1.9,3-1.9c0.3,0,0.6,0,0.8,0.1L760.6,86.3z"/>
		<path class="st1" d="M768.8,95.9c-0.1-0.3-0.2-0.8-0.2-1.5c-0.4,0.5-0.9,1-1.6,1.2c-0.6,0.3-1.3,0.4-2,0.4c-1,0-1.9-0.3-2.5-0.9
			s-0.9-1.3-0.9-2.2c0-1,0.4-1.9,1.3-2.5c0.9-0.6,2.1-0.9,3.6-0.9h2.1v-1.2c0-0.8-0.2-1.4-0.7-1.8c-0.5-0.4-1.2-0.7-2.1-0.7
			c-0.8,0-1.5,0.2-2,0.6c-0.5,0.4-0.8,0.9-0.8,1.5l-1.2,0c0-0.8,0.4-1.6,1.2-2.2c0.8-0.6,1.8-0.9,2.9-0.9c1.2,0,2.1,0.3,2.8,0.9
			c0.7,0.6,1,1.4,1.1,2.5v5c0,1,0.1,1.8,0.3,2.3v0.1H768.8z M765.1,95.1c0.8,0,1.5-0.2,2.1-0.6c0.6-0.4,1.1-0.9,1.4-1.5v-2.3h-2.1
			c-1.2,0-2.1,0.2-2.8,0.6c-0.7,0.4-1,1-1,1.7c0,0.6,0.2,1.1,0.7,1.5C763.8,94.9,764.4,95.1,765.1,95.1z"/>
		<path class="st1" d="M776.8,95.1c0.8,0,1.5-0.2,2.1-0.7s0.9-1.1,0.9-1.8h1.1c0,0.6-0.2,1.2-0.6,1.8s-0.9,1-1.5,1.3
			c-0.6,0.3-1.3,0.5-2,0.5c-1.4,0-2.5-0.5-3.3-1.5c-0.8-1-1.2-2.3-1.2-3.9v-0.4c0-1,0.2-2,0.6-2.8s0.9-1.4,1.6-1.9
			c0.7-0.4,1.5-0.7,2.4-0.7c1.2,0,2.1,0.3,2.9,1s1.2,1.6,1.2,2.7h-1.1c-0.1-0.8-0.4-1.5-0.9-2c-0.5-0.5-1.2-0.8-2.1-0.8
			c-1.1,0-1.9,0.4-2.5,1.2s-0.9,1.8-0.9,3.2v0.3c0,1.4,0.3,2.4,0.9,3.2C774.9,94.8,775.7,95.1,776.8,95.1z"/>
		<path class="st1" d="M785.1,82.6v2.7h2.2v1h-2.2v7.1c0,0.6,0.1,1,0.3,1.3c0.2,0.3,0.6,0.4,1.1,0.4c0.2,0,0.5,0,1-0.1l0,1
			c-0.3,0.1-0.7,0.2-1.3,0.2c-0.8,0-1.4-0.2-1.8-0.7c-0.4-0.5-0.6-1.2-0.6-2.1v-7.1h-2v-1h2v-2.7H785.1z"/>
	</g>
</g>
<g>
	<g>
		<path class="st1" d="M628.3,139.9v-14.3h4c1.2,0,2.2,0.3,3.2,0.8s1.7,1.3,2.2,2.3s0.8,2.1,0.8,3.4v1.3c0,1.3-0.3,2.4-0.8,3.4
			c-0.5,1-1.2,1.8-2.2,2.3c-0.9,0.5-2,0.8-3.2,0.8H628.3z M629.5,126.6v12.3h2.7c1.5,0,2.7-0.5,3.6-1.5c0.9-1,1.4-2.4,1.4-4.1v-1.3
			c0-1.6-0.4-3-1.3-4c-0.9-1-2.1-1.5-3.6-1.5H629.5z"/>
		<path class="st1" d="M641.1,126.2c0-0.2,0.1-0.4,0.2-0.6c0.1-0.2,0.3-0.2,0.6-0.2c0.2,0,0.4,0.1,0.6,0.2c0.1,0.2,0.2,0.3,0.2,0.6
			s-0.1,0.4-0.2,0.6c-0.1,0.2-0.3,0.2-0.6,0.2c-0.2,0-0.4-0.1-0.6-0.2C641.2,126.6,641.1,126.4,641.1,126.2z M642.5,139.9h-1.2
			v-10.6h1.2V139.9z"/>
		<path class="st1" d="M649.6,139.1c0.8,0,1.5-0.2,2.1-0.7s0.9-1.1,0.9-1.8h1.1c0,0.6-0.2,1.2-0.6,1.8s-0.9,1-1.5,1.3
			c-0.6,0.3-1.3,0.5-2,0.5c-1.4,0-2.5-0.5-3.3-1.5c-0.8-1-1.2-2.3-1.2-3.9v-0.4c0-1,0.2-2,0.6-2.8c0.4-0.8,0.9-1.4,1.6-1.9
			s1.5-0.7,2.4-0.7c1.2,0,2.1,0.3,2.9,1c0.8,0.7,1.2,1.6,1.2,2.7h-1.1c-0.1-0.8-0.4-1.5-0.9-2c-0.5-0.5-1.2-0.8-2.1-0.8
			c-1.1,0-1.9,0.4-2.5,1.2c-0.6,0.8-0.9,1.8-0.9,3.2v0.3c0,1.4,0.3,2.4,0.9,3.2C647.7,138.7,648.6,139.1,649.6,139.1z"/>
		<path class="st1" d="M660.2,140.1c-0.9,0-1.7-0.2-2.5-0.7c-0.7-0.4-1.3-1.1-1.7-1.9s-0.6-1.7-0.6-2.7v-0.4c0-1,0.2-1.9,0.6-2.8
			c0.4-0.8,0.9-1.5,1.7-1.9c0.7-0.5,1.5-0.7,2.3-0.7c1.3,0,2.3,0.4,3.1,1.3c0.8,0.9,1.1,2.1,1.1,3.6v0.7h-7.6v0.2c0,1.2,0.3,2.2,1,3
			c0.7,0.8,1.6,1.2,2.6,1.2c0.6,0,1.2-0.1,1.7-0.3c0.5-0.2,0.9-0.6,1.3-1.1l0.7,0.6C663.1,139.5,661.8,140.1,660.2,140.1z
			 M660,130.1c-0.9,0-1.6,0.3-2.2,1c-0.6,0.6-1,1.5-1.1,2.6h6.4v-0.1c0-1-0.3-1.9-0.9-2.5C661.6,130.4,660.9,130.1,660,130.1z"/>
		<path class="st1" d="M674.7,138.3l3.2-9h1.2l-4,10.6h-1l-4-10.6h1.2L674.7,138.3z"/>
		<path class="st1" d="M687.6,139.9c-0.1-0.3-0.2-0.8-0.2-1.5c-0.4,0.5-0.9,1-1.6,1.2c-0.6,0.3-1.3,0.4-2,0.4c-1,0-1.9-0.3-2.5-0.9
			s-0.9-1.3-0.9-2.2c0-1,0.4-1.9,1.3-2.5c0.9-0.6,2.1-0.9,3.6-0.9h2.1v-1.2c0-0.8-0.2-1.4-0.7-1.8c-0.5-0.4-1.2-0.7-2.1-0.7
			c-0.8,0-1.5,0.2-2,0.6c-0.5,0.4-0.8,0.9-0.8,1.5l-1.2,0c0-0.8,0.4-1.6,1.2-2.2c0.8-0.6,1.8-0.9,2.9-0.9c1.2,0,2.1,0.3,2.8,0.9
			c0.7,0.6,1,1.4,1.1,2.5v5c0,1,0.1,1.8,0.3,2.3v0.1H687.6z M683.9,139.1c0.8,0,1.5-0.2,2.1-0.6c0.6-0.4,1.1-0.9,1.4-1.5v-2.3h-2.1
			c-1.2,0-2.1,0.2-2.8,0.6c-0.7,0.4-1,1-1,1.7c0,0.6,0.2,1.1,0.7,1.5C682.7,138.9,683.2,139.1,683.9,139.1z"/>
		<path class="st1" d="M693,139.9h-1.2v-15.1h1.2V139.9z"/>
		<path class="st1" d="M703.1,138.6c-0.7,1-1.8,1.5-3.4,1.5c-1.1,0-2-0.3-2.6-1c-0.6-0.7-0.9-1.6-0.9-2.9v-6.9h1.2v6.8
			c0,2,0.8,3,2.5,3c1.7,0,2.8-0.7,3.2-2.1v-7.7h1.2v10.6h-1.1L703.1,138.6z"/>
		<path class="st1" d="M711.4,140.1c-0.9,0-1.7-0.2-2.5-0.7c-0.7-0.4-1.3-1.1-1.7-1.9c-0.4-0.8-0.6-1.7-0.6-2.7v-0.4
			c0-1,0.2-1.9,0.6-2.8c0.4-0.8,1-1.5,1.7-1.9c0.7-0.5,1.5-0.7,2.3-0.7c1.3,0,2.3,0.4,3.1,1.3c0.8,0.9,1.1,2.1,1.1,3.6v0.7h-7.6v0.2
			c0,1.2,0.3,2.2,1,3c0.7,0.8,1.6,1.2,2.6,1.2c0.6,0,1.2-0.1,1.7-0.3c0.5-0.2,0.9-0.6,1.3-1.1l0.7,0.6
			C714.3,139.5,713.1,140.1,711.4,140.1z M711.2,130.1c-0.9,0-1.6,0.3-2.2,1c-0.6,0.6-1,1.5-1.1,2.6h6.4v-0.1c0-1-0.3-1.9-0.9-2.5
			C712.8,130.4,712.1,130.1,711.2,130.1z"/>
		<path class="st1" d="M724.1,137.2c0-0.6-0.2-1.1-0.7-1.4c-0.5-0.4-1.2-0.6-2.1-0.8s-1.7-0.4-2.2-0.7c-0.5-0.3-0.9-0.6-1.2-0.9
			c-0.3-0.4-0.4-0.8-0.4-1.4c0-0.8,0.4-1.5,1.1-2.1c0.7-0.5,1.6-0.8,2.7-0.8c1.2,0,2.1,0.3,2.9,0.9c0.7,0.6,1.1,1.4,1.1,2.3H724
			c0-0.6-0.3-1.1-0.8-1.6s-1.2-0.6-2-0.6c-0.8,0-1.4,0.2-1.9,0.5c-0.5,0.3-0.7,0.8-0.7,1.3c0,0.5,0.2,0.9,0.6,1.2
			c0.4,0.3,1.1,0.6,2.1,0.8s1.8,0.5,2.3,0.8c0.5,0.3,0.9,0.6,1.1,1s0.4,0.9,0.4,1.4c0,0.9-0.4,1.6-1.1,2.2c-0.7,0.5-1.7,0.8-2.8,0.8
			c-1.2,0-2.2-0.3-3-0.9c-0.8-0.6-1.2-1.4-1.2-2.3h1.2c0,0.7,0.3,1.2,0.9,1.6c0.5,0.4,1.2,0.6,2.1,0.6c0.8,0,1.5-0.2,2-0.5
			C723.8,138.2,724.1,137.7,724.1,137.2z"/>
		<path class="st1" d="M733.7,139.9v-9.7h-1.8v-1h1.8V128c0-1.1,0.3-1.9,0.8-2.5c0.6-0.6,1.3-0.9,2.3-0.9c0.4,0,0.9,0.1,1.2,0.2
			l-0.1,1c-0.3-0.1-0.7-0.1-1.1-0.1c-0.6,0-1.2,0.2-1.5,0.6c-0.4,0.4-0.5,1-0.5,1.7v1.3h2.5v1h-2.5v9.7H733.7z"/>
		<path class="st1" d="M738.8,134.4c0-1,0.2-1.9,0.6-2.8c0.4-0.8,1-1.5,1.7-1.9s1.5-0.7,2.5-0.7c1.4,0,2.6,0.5,3.4,1.5
			s1.3,2.3,1.3,4v0.2c0,1-0.2,2-0.6,2.8c-0.4,0.8-1,1.5-1.7,1.9c-0.7,0.4-1.5,0.7-2.5,0.7c-1.4,0-2.6-0.5-3.4-1.5
			c-0.9-1-1.3-2.3-1.3-4V134.4z M740,134.7c0,1.3,0.3,2.3,1,3.1c0.7,0.8,1.5,1.2,2.6,1.2c1.1,0,1.9-0.4,2.6-1.2c0.7-0.8,1-1.9,1-3.2
			v-0.2c0-0.8-0.2-1.6-0.5-2.2c-0.3-0.7-0.7-1.2-1.3-1.6c-0.5-0.4-1.2-0.6-1.9-0.6c-1,0-1.9,0.4-2.6,1.2c-0.7,0.8-1,1.9-1,3.2V134.7
			z"/>
		<path class="st1" d="M755.7,130.3c-0.3,0-0.5-0.1-0.8-0.1c-0.7,0-1.4,0.2-1.9,0.6c-0.5,0.4-0.9,1-1.1,1.8v7.3h-1.2v-10.6h1.2
			l0,1.7c0.6-1.3,1.6-1.9,3-1.9c0.3,0,0.6,0,0.8,0.1L755.7,130.3z"/>
		<path class="st1" d="M758.6,129.3l0,1.7c0.4-0.6,0.9-1.1,1.5-1.4c0.6-0.3,1.2-0.5,2-0.5c1.7,0,2.7,0.7,3.2,2.1
			c0.4-0.7,0.9-1.2,1.5-1.5c0.6-0.4,1.3-0.5,2.1-0.5c2.3,0,3.4,1.2,3.5,3.7v7.1h-1.2v-7c0-1-0.2-1.7-0.6-2.1c-0.4-0.5-1.1-0.7-2-0.7
			c-0.8,0-1.6,0.3-2.1,0.8s-0.9,1.2-1,2v7h-1.2v-7.1c0-0.9-0.2-1.6-0.6-2c-0.4-0.4-1.1-0.7-2-0.7c-0.7,0-1.4,0.2-1.9,0.6
			c-0.5,0.4-0.9,1.1-1.2,1.9v7.3h-1.2v-10.6H758.6z"/>
		<path class="st1" d="M782.3,138.6c-0.7,1-1.8,1.5-3.4,1.5c-1.1,0-2-0.3-2.6-1c-0.6-0.7-0.9-1.6-0.9-2.9v-6.9h1.2v6.8
			c0,2,0.8,3,2.5,3c1.7,0,2.8-0.7,3.2-2.1v-7.7h1.2v10.6h-1.1L782.3,138.6z"/>
		<path class="st1" d="M787.8,139.9h-1.2v-15.1h1.2V139.9z"/>
		<path class="st1" d="M797.7,139.9c-0.1-0.3-0.2-0.8-0.2-1.5c-0.4,0.5-0.9,1-1.6,1.2c-0.6,0.3-1.3,0.4-2,0.4c-1,0-1.9-0.3-2.5-0.9
			s-0.9-1.3-0.9-2.2c0-1,0.4-1.9,1.3-2.5c0.9-0.6,2.1-0.9,3.6-0.9h2.1v-1.2c0-0.8-0.2-1.4-0.7-1.8c-0.5-0.4-1.2-0.7-2.1-0.7
			c-0.8,0-1.5,0.2-2,0.6c-0.5,0.4-0.8,0.9-0.8,1.5l-1.2,0c0-0.8,0.4-1.6,1.2-2.2c0.8-0.6,1.8-0.9,2.9-0.9c1.2,0,2.1,0.3,2.8,0.9
			c0.7,0.6,1,1.4,1.1,2.5v5c0,1,0.1,1.8,0.3,2.3v0.1H797.7z M794,139.1c0.8,0,1.5-0.2,2.1-0.6c0.6-0.4,1.1-0.9,1.4-1.5v-2.3h-2.1
			c-1.2,0-2.1,0.2-2.8,0.6c-0.7,0.4-1,1-1,1.7c0,0.6,0.2,1.1,0.7,1.5C792.7,138.9,793.3,139.1,794,139.1z"/>
		<path class="st1" d="M808.2,137.2c0-0.6-0.2-1.1-0.7-1.4c-0.5-0.4-1.2-0.6-2.1-0.8s-1.7-0.4-2.2-0.7c-0.5-0.3-0.9-0.6-1.2-0.9
			c-0.3-0.4-0.4-0.8-0.4-1.4c0-0.8,0.4-1.5,1.1-2.1c0.7-0.5,1.6-0.8,2.7-0.8c1.2,0,2.1,0.3,2.9,0.9c0.7,0.6,1.1,1.4,1.1,2.3h-1.2
			c0-0.6-0.3-1.1-0.8-1.6s-1.2-0.6-2-0.6c-0.8,0-1.4,0.2-1.9,0.5c-0.5,0.3-0.7,0.8-0.7,1.3c0,0.5,0.2,0.9,0.6,1.2
			c0.4,0.3,1.1,0.6,2.1,0.8s1.8,0.5,2.3,0.8c0.5,0.3,0.9,0.6,1.1,1s0.4,0.9,0.4,1.4c0,0.9-0.4,1.6-1.1,2.2c-0.7,0.5-1.7,0.8-2.8,0.8
			c-1.2,0-2.2-0.3-3-0.9c-0.8-0.6-1.2-1.4-1.2-2.3h1.2c0,0.7,0.3,1.2,0.9,1.6c0.5,0.4,1.2,0.6,2.1,0.6c0.8,0,1.5-0.2,2-0.5
			C807.9,138.2,808.2,137.7,808.2,137.2z"/>
		<path class="st1" d="M811.7,139.2c0-0.2,0.1-0.4,0.2-0.6s0.4-0.2,0.6-0.2s0.5,0.1,0.6,0.2c0.2,0.2,0.2,0.4,0.2,0.6
			c0,0.2-0.1,0.4-0.2,0.6c-0.2,0.1-0.4,0.2-0.6,0.2s-0.5-0.1-0.6-0.2S811.7,139.4,811.7,139.2z M811.7,130.1c0-0.2,0.1-0.4,0.2-0.6
			c0.1-0.2,0.4-0.2,0.6-0.2s0.5,0.1,0.6,0.2c0.2,0.2,0.2,0.4,0.2,0.6c0,0.2-0.1,0.4-0.2,0.6c-0.2,0.1-0.4,0.2-0.6,0.2
			s-0.5-0.1-0.6-0.2C811.8,130.5,811.7,130.3,811.7,130.1z"/>
		<path class="st1" d="M609.8,170.1v-14.3h4c1.2,0,2.2,0.3,3.2,0.8s1.7,1.3,2.2,2.3s0.8,2.1,0.8,3.4v1.3c0,1.3-0.3,2.4-0.8,3.4
			c-0.5,1-1.2,1.8-2.2,2.3c-0.9,0.5-2,0.8-3.2,0.8H609.8z M611,156.8v12.3h2.7c1.5,0,2.7-0.5,3.6-1.5c0.9-1,1.4-2.4,1.4-4.1v-1.3
			c0-1.6-0.4-3-1.3-4c-0.9-1-2.1-1.5-3.6-1.5H611z"/>
		<path class="st1" d="M628,170.1h-1.2v-12.9l-3.9,1.4v-1.1l4.9-1.8h0.2V170.1z"/>
		<path class="st1" d="M642,162h-8.2v-1h8.2V162z M642,166h-8.2v-1h8.2V166z"/>
		<path class="st1" d="M644.8,164.3c0-1.4,0.2-2.8,0.6-4.2c0.4-1.3,0.9-2.6,1.6-3.7c0.7-1.1,1.5-1.9,2.3-2.4l0.3,0.8
			c-0.4,0.3-0.9,0.8-1.3,1.3s-0.8,1.3-1.1,2.1c-0.3,0.8-0.6,1.7-0.8,2.7c-0.2,1-0.3,2.2-0.3,3.4c0,1.4,0.2,2.7,0.5,4
			c0.3,1.3,0.7,2.4,1.3,3.4c0.5,1,1.1,1.7,1.8,2.2l-0.3,0.8c-0.8-0.5-1.6-1.3-2.3-2.4s-1.2-2.3-1.6-3.7
			C645,167.3,644.8,165.9,644.8,164.3z"/>
		<path class="st1" d="M661.4,156.8h-4.9v13.3h-1.2v-13.3h-4.9v-1h11V156.8z"/>
		<path class="st1" d="M668.7,170.1h-1.2v-12.9l-3.9,1.4v-1.1l4.9-1.8h0.2V170.1z"/>
		<path class="st1" d="M679.3,162.8h4.4v1.1h-4.4v4.7h-1.2v-4.7h-4.3v-1.1h4.3v-4.6h1.2V162.8z"/>
		<path class="st1" d="M694,166.1h-6.5l-1.5,4h-1.3l5.4-14.3h1.2l5.4,14.3h-1.3L694,166.1z M687.9,165.1h5.7l-2.9-7.8L687.9,165.1z"
			/>
		<path class="st1" d="M703.9,170.1h-1.2v-12.9l-3.9,1.4v-1.1l4.9-1.8h0.2V170.1z"/>
		<path class="st1" d="M714.4,162.8h4.4v1.1h-4.4v4.7h-1.2v-4.7h-4.3v-1.1h4.3v-4.6h1.2V162.8z"/>
		<path class="st1" d="M731.1,156.8h-4.9v13.3H725v-13.3h-4.9v-1h11V156.8z"/>
		<path class="st1" d="M741.9,170.1h-9v-0.9l4.9-5.6c0.8-0.9,1.4-1.7,1.7-2.3c0.3-0.6,0.5-1.2,0.5-1.8c0-0.9-0.3-1.6-0.8-2.1
			c-0.5-0.5-1.3-0.8-2.2-0.8c-1,0-1.7,0.3-2.3,0.9c-0.6,0.6-0.9,1.4-0.9,2.4h-1.2c0-0.8,0.2-1.5,0.5-2.2s0.9-1.2,1.6-1.6
			c0.7-0.4,1.4-0.6,2.3-0.6c1.3,0,2.3,0.3,3.1,1c0.7,0.7,1.1,1.6,1.1,2.8c0,0.7-0.2,1.4-0.6,2.2c-0.4,0.8-1.1,1.8-2.2,3l-4,4.5h7.5
			V170.1z"/>
		<path class="st1" d="M747.8,164.5c0,1.4-0.2,2.8-0.5,4.2c-0.4,1.3-0.9,2.6-1.6,3.7c-0.7,1.1-1.5,1.9-2.3,2.4l-0.3-0.8
			c0.6-0.5,1.2-1.2,1.8-2.1c0.5-1,1-2.1,1.3-3.4c0.3-1.3,0.5-2.7,0.5-4.2c0-1.4-0.2-2.7-0.5-3.9c-0.3-1.3-0.7-2.4-1.3-3.4
			s-1.1-1.7-1.8-2.2l0.3-0.8c0.8,0.5,1.6,1.3,2.3,2.4c0.7,1.1,1.2,2.3,1.6,3.7C747.7,161.5,747.8,163,747.8,164.5z"/>
		<path class="st1" d="M756.9,159.5l0,1.7c0.4-0.6,0.9-1.1,1.5-1.4c0.6-0.3,1.2-0.5,2-0.5c1.7,0,2.7,0.7,3.2,2.1
			c0.4-0.7,0.9-1.2,1.5-1.5c0.6-0.4,1.3-0.5,2.1-0.5c2.3,0,3.4,1.2,3.5,3.7v7.1h-1.2v-7c0-1-0.2-1.7-0.6-2.1c-0.4-0.5-1.1-0.7-2-0.7
			c-0.8,0-1.6,0.3-2.1,0.8s-0.9,1.2-1,2v7h-1.2V163c0-0.9-0.2-1.6-0.6-2c-0.4-0.4-1.1-0.7-2-0.7c-0.7,0-1.4,0.2-1.9,0.6
			c-0.5,0.4-0.9,1.1-1.2,1.9v7.3h-1.2v-10.6H756.9z"/>
		<path class="st1" d="M773,164.6c0-1,0.2-1.9,0.6-2.8c0.4-0.8,1-1.5,1.7-1.9s1.5-0.7,2.5-0.7c1.4,0,2.6,0.5,3.4,1.5s1.3,2.3,1.3,4
			v0.2c0,1-0.2,2-0.6,2.8c-0.4,0.8-1,1.5-1.7,1.9c-0.7,0.4-1.5,0.7-2.5,0.7c-1.4,0-2.6-0.5-3.4-1.5c-0.9-1-1.3-2.3-1.3-4V164.6z
			 M774.2,165c0,1.3,0.3,2.3,1,3.1c0.7,0.8,1.5,1.2,2.6,1.2c1.1,0,1.9-0.4,2.6-1.2c0.7-0.8,1-1.9,1-3.2v-0.2c0-0.8-0.2-1.6-0.5-2.2
			c-0.3-0.7-0.7-1.2-1.3-1.6c-0.5-0.4-1.2-0.6-1.9-0.6c-1,0-1.9,0.4-2.6,1.2c-0.7,0.8-1,1.9-1,3.2V165z"/>
		<path class="st1" d="M784.5,164.7c0-1.7,0.4-3,1.1-4c0.7-1,1.7-1.5,3-1.5c1.4,0,2.5,0.6,3.3,1.7v-6h1.2v15.1h-1.1l0-1.4
			c-0.8,1.1-1.9,1.6-3.3,1.6c-1.2,0-2.2-0.5-3-1.5s-1.1-2.3-1.1-4V164.7z M785.6,164.9c0,1.4,0.3,2.4,0.8,3.2
			c0.5,0.8,1.3,1.2,2.3,1.2c1.5,0,2.5-0.6,3.1-1.9v-5c-0.6-1.4-1.6-2.1-3.1-2.1c-1,0-1.8,0.4-2.3,1.2
			C785.9,162.3,785.6,163.4,785.6,164.9z"/>
		<path class="st1" d="M807.8,155.7v1h-0.1c-1.7,0-3.1,0.5-4,1.5c-1,1-1.5,2.4-1.6,4.2c0.4-0.5,0.9-1,1.5-1.3c0.6-0.3,1.3-0.4,2-0.4
			c1.3,0,2.3,0.4,3,1.3c0.7,0.9,1.1,2,1.1,3.4c0,0.9-0.2,1.8-0.5,2.5c-0.3,0.7-0.8,1.3-1.5,1.7c-0.6,0.4-1.4,0.6-2.2,0.6
			c-1.4,0-2.5-0.5-3.3-1.5s-1.3-2.3-1.3-3.9v-1.2c0-2.6,0.6-4.6,1.8-6c1.2-1.4,2.8-2.1,5-2.1H807.8z M805.3,161.7
			c-0.7,0-1.4,0.2-2.1,0.7c-0.6,0.4-1.1,1-1.3,1.7v1c0,1.2,0.3,2.3,1,3s1.5,1.2,2.5,1.2c0.9,0,1.7-0.4,2.2-1.1
			c0.6-0.7,0.9-1.6,0.9-2.8c0-1.1-0.3-2-0.9-2.7C807.1,162.1,806.3,161.7,805.3,161.7z"/>
		<path class="st1" d="M816.9,162.8h4.4v1.1h-4.4v4.7h-1.2v-4.7h-4.3v-1.1h4.3v-4.6h1.2V162.8z"/>
		<path class="st1" d="M828.9,170.1h-1.2v-12.9l-3.9,1.4v-1.1l4.9-1.8h0.2V170.1z"/>
		<path class="st1" d="M609.5,200.4V186h4c1.2,0,2.2,0.3,3.2,0.8s1.7,1.3,2.2,2.3s0.8,2.1,0.8,3.4v1.3c0,1.3-0.3,2.4-0.8,3.4
			c-0.5,1-1.2,1.8-2.2,2.3s-2,0.8-3.2,0.8H609.5z M610.7,187.1v12.3h2.7c1.5,0,2.7-0.5,3.6-1.5c0.9-1,1.4-2.4,1.4-4.1v-1.3
			c0-1.6-0.4-3-1.3-4c-0.9-1-2.1-1.5-3.6-1.5H610.7z"/>
		<path class="st1" d="M631.2,200.4h-9v-0.9l4.9-5.6c0.8-0.9,1.4-1.7,1.7-2.3c0.3-0.6,0.5-1.2,0.5-1.8c0-0.9-0.3-1.6-0.8-2.2
			c-0.5-0.5-1.3-0.8-2.2-0.8c-1,0-1.7,0.3-2.3,0.9c-0.6,0.6-0.9,1.4-0.9,2.4h-1.2c0-0.8,0.2-1.5,0.5-2.2c0.4-0.7,0.9-1.2,1.6-1.6
			c0.7-0.4,1.4-0.6,2.3-0.6c1.3,0,2.3,0.3,3.1,1s1.1,1.6,1.1,2.8c0,0.7-0.2,1.4-0.6,2.2s-1.1,1.8-2.2,3l-4,4.5h7.5V200.4z"/>
		<path class="st1" d="M641.7,192.2h-8.2v-1h8.2V192.2z M641.7,196.2h-8.2v-1h8.2V196.2z"/>
		<path class="st1" d="M644.6,194.6c0-1.4,0.2-2.8,0.6-4.2c0.4-1.3,0.9-2.6,1.6-3.7c0.7-1.1,1.5-1.9,2.3-2.4l0.3,0.8
			c-0.4,0.3-0.9,0.8-1.3,1.3c-0.4,0.6-0.8,1.3-1.1,2.1c-0.3,0.8-0.6,1.7-0.8,2.7s-0.3,2.2-0.3,3.4c0,1.4,0.2,2.7,0.5,4
			c0.3,1.3,0.7,2.4,1.3,3.4s1.1,1.7,1.8,2.2L649,205c-0.8-0.5-1.6-1.3-2.3-2.4s-1.2-2.3-1.6-3.7
			C644.7,197.6,644.6,196.1,644.6,194.6z"/>
		<path class="st1" d="M661.1,187.1h-4.9v13.3H655v-13.3h-4.9v-1h11V187.1z"/>
		<path class="st1" d="M668.5,200.4h-1.2v-12.9l-3.9,1.4v-1.1l4.9-1.8h0.2V200.4z"/>
		<path class="st1" d="M679,193.1h4.4v1.1H679v4.7h-1.2v-4.7h-4.3v-1.1h4.3v-4.6h1.2V193.1z"/>
		<path class="st1" d="M693.7,196.3h-6.5l-1.5,4h-1.3l5.4-14.3h1.2l5.4,14.3h-1.3L693.7,196.3z M687.6,195.3h5.7l-2.9-7.8
			L687.6,195.3z"/>
		<path class="st1" d="M703.6,200.4h-1.2v-12.9l-3.9,1.4v-1.1l4.9-1.8h0.2V200.4z"/>
		<path class="st1" d="M714.1,193.1h4.4v1.1h-4.4v4.7h-1.2v-4.7h-4.3v-1.1h4.3v-4.6h1.2V193.1z"/>
		<path class="st1" d="M728.9,196.3h-6.5l-1.5,4h-1.3L725,186h1.2l5.4,14.3h-1.3L728.9,196.3z M722.7,195.3h5.7l-2.9-7.8
			L722.7,195.3z"/>
		<path class="st1" d="M742.2,200.4h-9v-0.9l4.9-5.6c0.8-0.9,1.4-1.7,1.7-2.3c0.3-0.6,0.5-1.2,0.5-1.8c0-0.9-0.3-1.6-0.8-2.2
			s-1.3-0.8-2.2-0.8c-1,0-1.7,0.3-2.3,0.9c-0.6,0.6-0.9,1.4-0.9,2.4h-1.2c0-0.8,0.2-1.5,0.5-2.2c0.4-0.7,0.9-1.2,1.6-1.6
			c0.7-0.4,1.4-0.6,2.3-0.6c1.3,0,2.3,0.3,3.1,1c0.7,0.7,1.1,1.6,1.1,2.8c0,0.7-0.2,1.4-0.6,2.2c-0.4,0.8-1.1,1.8-2.2,3l-4,4.5h7.5
			V200.4z"/>
		<path class="st1" d="M748.1,194.7c0,1.4-0.2,2.8-0.5,4.2s-0.9,2.6-1.6,3.7c-0.7,1.1-1.5,1.9-2.3,2.4l-0.3-0.8
			c0.6-0.5,1.2-1.2,1.8-2.1c0.5-1,1-2.1,1.3-3.4c0.3-1.3,0.5-2.7,0.5-4.2c0-1.4-0.2-2.7-0.5-3.9c-0.3-1.3-0.7-2.4-1.3-3.4
			s-1.1-1.7-1.8-2.2l0.3-0.8c0.8,0.5,1.6,1.3,2.3,2.4s1.2,2.3,1.6,3.7C747.9,191.8,748.1,193.2,748.1,194.7z"/>
		<path class="st1" d="M757.1,189.7l0,1.7c0.4-0.6,0.9-1.1,1.5-1.4c0.6-0.3,1.2-0.5,2-0.5c1.7,0,2.7,0.7,3.2,2.1
			c0.4-0.7,0.9-1.2,1.5-1.5c0.6-0.4,1.3-0.5,2.1-0.5c2.3,0,3.4,1.2,3.5,3.7v7.1h-1.2v-7c0-1-0.2-1.7-0.6-2.1c-0.4-0.5-1.1-0.7-2-0.7
			c-0.8,0-1.6,0.3-2.1,0.8c-0.6,0.5-0.9,1.2-1,2v7h-1.2v-7.1c0-0.9-0.2-1.6-0.6-2c-0.4-0.4-1.1-0.7-2-0.7c-0.7,0-1.4,0.2-1.9,0.6
			c-0.5,0.4-0.9,1.1-1.2,1.9v7.3H756v-10.6H757.1z"/>
		<path class="st1" d="M773.3,194.9c0-1,0.2-1.9,0.6-2.8c0.4-0.8,1-1.5,1.7-1.9s1.5-0.7,2.5-0.7c1.4,0,2.6,0.5,3.4,1.5
			s1.3,2.3,1.3,4v0.2c0,1-0.2,2-0.6,2.8c-0.4,0.8-1,1.5-1.7,1.9c-0.7,0.4-1.5,0.7-2.5,0.7c-1.4,0-2.6-0.5-3.4-1.5
			c-0.9-1-1.3-2.3-1.3-4V194.9z M774.5,195.2c0,1.3,0.3,2.3,1,3.1c0.7,0.8,1.5,1.2,2.6,1.2c1.1,0,1.9-0.4,2.6-1.2
			c0.7-0.8,1-1.9,1-3.2v-0.2c0-0.8-0.2-1.6-0.5-2.2s-0.7-1.2-1.3-1.6c-0.5-0.4-1.2-0.6-1.9-0.6c-1,0-1.9,0.4-2.6,1.2
			c-0.7,0.8-1,1.9-1,3.2V195.2z"/>
		<path class="st1" d="M784.7,194.9c0-1.7,0.4-3,1.1-4c0.7-1,1.7-1.5,3-1.5c1.4,0,2.5,0.6,3.3,1.7v-6h1.2v15.1h-1.1l0-1.4
			c-0.8,1.1-1.9,1.6-3.3,1.6c-1.2,0-2.2-0.5-3-1.5s-1.1-2.3-1.1-4V194.9z M785.9,195.1c0,1.4,0.3,2.4,0.8,3.2
			c0.5,0.8,1.3,1.2,2.3,1.2c1.5,0,2.5-0.6,3.1-1.9v-5c-0.6-1.4-1.6-2.1-3.1-2.1c-1,0-1.8,0.4-2.3,1.2
			C786.2,192.5,785.9,193.6,785.9,195.1z"/>
		<path class="st1" d="M808.1,185.9v1h-0.1c-1.7,0-3.1,0.5-4,1.5c-1,1-1.5,2.4-1.6,4.2c0.4-0.5,0.9-1,1.5-1.3c0.6-0.3,1.3-0.4,2-0.4
			c1.3,0,2.3,0.4,3,1.3c0.7,0.9,1.1,2,1.1,3.4c0,0.9-0.2,1.8-0.5,2.5c-0.3,0.7-0.8,1.3-1.5,1.7c-0.6,0.4-1.4,0.6-2.2,0.6
			c-1.4,0-2.5-0.5-3.3-1.5s-1.3-2.3-1.3-3.9V194c0-2.6,0.6-4.6,1.8-6c1.2-1.4,2.8-2.1,5-2.1H808.1z M805.6,192
			c-0.7,0-1.4,0.2-2.1,0.7c-0.6,0.4-1.1,1-1.3,1.7v1c0,1.2,0.3,2.3,1,3s1.5,1.2,2.5,1.2c0.9,0,1.7-0.4,2.2-1.1
			c0.6-0.7,0.9-1.6,0.9-2.8c0-1.1-0.3-2-0.9-2.7S806.6,192,805.6,192z"/>
		<path class="st1" d="M817.1,193.1h4.4v1.1h-4.4v4.7h-1.2v-4.7h-4.3v-1.1h4.3v-4.6h1.2V193.1z"/>
		<path class="st1" d="M829.1,200.4H828v-12.9l-3.9,1.4v-1.1l4.9-1.8h0.2V200.4z"/>
		<path class="st1" d="M609.8,230.6v-14.3h4c1.2,0,2.2,0.3,3.2,0.8s1.7,1.3,2.2,2.3s0.8,2.1,0.8,3.4v1.3c0,1.3-0.3,2.4-0.8,3.4
			c-0.5,1-1.2,1.8-2.2,2.3s-2,0.8-3.2,0.8H609.8z M611,217.3v12.3h2.7c1.5,0,2.7-0.5,3.6-1.5c0.9-1,1.4-2.4,1.4-4.1v-1.3
			c0-1.6-0.4-3-1.3-4c-0.9-1-2.1-1.5-3.6-1.5H611z"/>
		<path class="st1" d="M625.1,222.8h1.2c0.7,0,1.3-0.1,1.8-0.4c0.5-0.2,0.9-0.6,1.2-1c0.3-0.4,0.4-0.9,0.4-1.4
			c0-0.9-0.3-1.6-0.8-2.2s-1.3-0.8-2.2-0.8c-0.9,0-1.7,0.3-2.3,0.8c-0.6,0.5-0.9,1.3-0.9,2.1h-1.2c0-0.7,0.2-1.4,0.6-2
			s0.9-1.1,1.6-1.4c0.7-0.3,1.4-0.5,2.2-0.5c1.3,0,2.3,0.4,3.1,1.1c0.7,0.7,1.1,1.7,1.1,2.9c0,0.7-0.2,1.3-0.7,1.9
			c-0.4,0.6-1,1-1.8,1.3c0.9,0.2,1.6,0.7,2,1.3c0.5,0.6,0.7,1.3,0.7,2.2c0,1.2-0.4,2.2-1.2,3s-1.9,1.1-3.2,1.1
			c-0.9,0-1.6-0.2-2.3-0.5c-0.7-0.3-1.3-0.8-1.7-1.4c-0.4-0.6-0.6-1.3-0.6-2.1h1.2c0,0.9,0.3,1.7,1,2.2c0.6,0.6,1.5,0.9,2.4,0.9
			c1,0,1.8-0.3,2.4-0.8s0.9-1.3,0.9-2.3c0-1-0.3-1.7-0.9-2.2c-0.6-0.5-1.5-0.8-2.7-0.8h-1.2V222.8z"/>
		<path class="st1" d="M642,222.4h-8.2v-1h8.2V222.4z M642,226.5h-8.2v-1h8.2V226.5z"/>
		<path class="st1" d="M644.8,224.8c0-1.4,0.2-2.8,0.6-4.2c0.4-1.3,0.9-2.6,1.6-3.7c0.7-1.1,1.5-1.9,2.3-2.4l0.3,0.8
			c-0.4,0.3-0.9,0.8-1.3,1.3c-0.4,0.6-0.8,1.3-1.1,2.1c-0.3,0.8-0.6,1.7-0.8,2.7s-0.3,2.2-0.3,3.4c0,1.4,0.2,2.7,0.5,4
			c0.3,1.3,0.7,2.4,1.3,3.4s1.1,1.7,1.8,2.2l-0.3,0.8c-0.8-0.5-1.6-1.3-2.3-2.4s-1.2-2.3-1.6-3.7C645,227.8,644.8,226.3,644.8,224.8
			z"/>
		<path class="st1" d="M661.4,217.3h-4.9v13.3h-1.2v-13.3h-4.9v-1h11V217.3z"/>
		<path class="st1" d="M668.7,230.6h-1.2v-12.9l-3.9,1.4V218l4.9-1.8h0.2V230.6z"/>
		<path class="st1" d="M679.3,223.3h4.4v1.1h-4.4v4.7h-1.2v-4.7h-4.3v-1.1h4.3v-4.6h1.2V223.3z"/>
		<path class="st1" d="M696,217.3h-4.9v13.3h-1.2v-13.3H685v-1h11V217.3z"/>
		<path class="st1" d="M706.8,230.6h-9v-0.9l4.9-5.6c0.8-0.9,1.4-1.7,1.7-2.3c0.3-0.6,0.5-1.2,0.5-1.8c0-0.9-0.3-1.6-0.8-2.2
			s-1.3-0.8-2.2-0.8c-1,0-1.7,0.3-2.3,0.9c-0.6,0.6-0.9,1.4-0.9,2.4h-1.2c0-0.8,0.2-1.5,0.5-2.2c0.4-0.7,0.9-1.2,1.6-1.6
			c0.7-0.4,1.4-0.6,2.3-0.6c1.3,0,2.3,0.3,3.1,1c0.7,0.7,1.1,1.6,1.1,2.8c0,0.7-0.2,1.4-0.6,2.2c-0.4,0.8-1.1,1.8-2.2,3l-4,4.5h7.5
			V230.6z"/>
		<path class="st1" d="M713.9,223.3h4.4v1.1h-4.4v4.7h-1.2v-4.7h-4.3v-1.1h4.3v-4.6h1.2V223.3z"/>
		<path class="st1" d="M728.6,226.6h-6.5l-1.5,4h-1.3l5.4-14.3h1.2l5.4,14.3h-1.3L728.6,226.6z M722.4,225.5h5.7l-2.9-7.8
			L722.4,225.5z"/>
		<path class="st1" d="M741.9,230.6h-9v-0.9l4.9-5.6c0.8-0.9,1.4-1.7,1.7-2.3c0.3-0.6,0.5-1.2,0.5-1.8c0-0.9-0.3-1.6-0.8-2.2
			s-1.3-0.8-2.2-0.8c-1,0-1.7,0.3-2.3,0.9c-0.6,0.6-0.9,1.4-0.9,2.4h-1.2c0-0.8,0.2-1.5,0.5-2.2c0.4-0.7,0.9-1.2,1.6-1.6
			c0.7-0.4,1.4-0.6,2.3-0.6c1.3,0,2.3,0.3,3.1,1c0.7,0.7,1.1,1.6,1.1,2.8c0,0.7-0.2,1.4-0.6,2.2c-0.4,0.8-1.1,1.8-2.2,3l-4,4.5h7.5
			V230.6z"/>
		<path class="st1" d="M747.8,224.9c0,1.4-0.2,2.8-0.5,4.2s-0.9,2.6-1.6,3.7c-0.7,1.1-1.5,1.9-2.3,2.4l-0.3-0.8
			c0.6-0.5,1.2-1.2,1.8-2.1c0.5-1,1-2.1,1.3-3.4c0.3-1.3,0.5-2.7,0.5-4.2c0-1.4-0.2-2.7-0.5-3.9c-0.3-1.3-0.7-2.4-1.3-3.4
			s-1.1-1.7-1.8-2.2l0.3-0.8c0.8,0.5,1.6,1.3,2.3,2.4s1.2,2.3,1.6,3.7C747.7,222,747.8,223.4,747.8,224.9z"/>
		<path class="st1" d="M756.9,219.9l0,1.7c0.4-0.6,0.9-1.1,1.5-1.4c0.6-0.3,1.2-0.5,2-0.5c1.7,0,2.7,0.7,3.2,2.1
			c0.4-0.7,0.9-1.2,1.5-1.5c0.6-0.4,1.3-0.5,2.1-0.5c2.3,0,3.4,1.2,3.5,3.7v7.1h-1.2v-7c0-1-0.2-1.7-0.6-2.1c-0.4-0.5-1.1-0.7-2-0.7
			c-0.8,0-1.6,0.3-2.1,0.8c-0.6,0.5-0.9,1.2-1,2v7h-1.2v-7.1c0-0.9-0.2-1.6-0.6-2c-0.4-0.4-1.1-0.7-2-0.7c-0.7,0-1.4,0.2-1.9,0.6
			c-0.5,0.4-0.9,1.1-1.2,1.9v7.3h-1.2v-10.6H756.9z"/>
		<path class="st1" d="M773,225.1c0-1,0.2-1.9,0.6-2.8c0.4-0.8,1-1.5,1.7-1.9s1.5-0.7,2.5-0.7c1.4,0,2.6,0.5,3.4,1.5s1.3,2.3,1.3,4
			v0.2c0,1-0.2,2-0.6,2.8c-0.4,0.8-1,1.5-1.7,1.9c-0.7,0.4-1.5,0.7-2.5,0.7c-1.4,0-2.6-0.5-3.4-1.5c-0.9-1-1.3-2.3-1.3-4V225.1z
			 M774.2,225.4c0,1.3,0.3,2.3,1,3.1c0.7,0.8,1.5,1.2,2.6,1.2c1.1,0,1.9-0.4,2.6-1.2c0.7-0.8,1-1.9,1-3.2v-0.2
			c0-0.8-0.2-1.6-0.5-2.2s-0.7-1.2-1.3-1.6c-0.5-0.4-1.2-0.6-1.9-0.6c-1,0-1.9,0.4-2.6,1.2c-0.7,0.8-1,1.9-1,3.2V225.4z"/>
		<path class="st1" d="M784.5,225.2c0-1.7,0.4-3,1.1-4c0.7-1,1.7-1.5,3-1.5c1.4,0,2.5,0.6,3.3,1.7v-6h1.2v15.1h-1.1l0-1.4
			c-0.8,1.1-1.9,1.6-3.3,1.6c-1.2,0-2.2-0.5-3-1.5s-1.1-2.3-1.1-4V225.2z M785.6,225.4c0,1.4,0.3,2.4,0.8,3.2
			c0.5,0.8,1.3,1.2,2.3,1.2c1.5,0,2.5-0.6,3.1-1.9v-5c-0.6-1.4-1.6-2.1-3.1-2.1c-1,0-1.8,0.4-2.3,1.2
			C785.9,222.7,785.6,223.9,785.6,225.4z"/>
		<path class="st1" d="M807.8,216.1v1h-0.1c-1.7,0-3.1,0.5-4,1.5c-1,1-1.5,2.4-1.6,4.2c0.4-0.5,0.9-1,1.5-1.3c0.6-0.3,1.3-0.4,2-0.4
			c1.3,0,2.3,0.4,3,1.3c0.7,0.9,1.1,2,1.1,3.4c0,0.9-0.2,1.8-0.5,2.5c-0.3,0.7-0.8,1.3-1.5,1.7c-0.6,0.4-1.4,0.6-2.2,0.6
			c-1.4,0-2.5-0.5-3.3-1.5s-1.3-2.3-1.3-3.9v-1.2c0-2.6,0.6-4.6,1.8-6c1.2-1.4,2.8-2.1,5-2.1H807.8z M805.3,222.2
			c-0.7,0-1.4,0.2-2.1,0.7c-0.6,0.4-1.1,1-1.3,1.7v1c0,1.2,0.3,2.3,1,3s1.5,1.2,2.5,1.2c0.9,0,1.7-0.4,2.2-1.1
			c0.6-0.7,0.9-1.6,0.9-2.8c0-1.1-0.3-2-0.9-2.7S806.3,222.2,805.3,222.2z"/>
		<path class="st1" d="M816.9,223.3h4.4v1.1h-4.4v4.7h-1.2v-4.7h-4.3v-1.1h4.3v-4.6h1.2V223.3z"/>
		<path class="st1" d="M828.9,230.6h-1.2v-12.9l-3.9,1.4V218l4.9-1.8h0.2V230.6z"/>
		<path class="st1" d="M609.5,260.8v-14.3h4c1.2,0,2.2,0.3,3.2,0.8s1.7,1.3,2.2,2.3s0.8,2.1,0.8,3.4v1.3c0,1.3-0.3,2.4-0.8,3.4
			c-0.5,1-1.2,1.8-2.2,2.3s-2,0.8-3.2,0.8H609.5z M610.7,247.5v12.3h2.7c1.5,0,2.7-0.5,3.6-1.5c0.9-1,1.4-2.4,1.4-4.1V253
			c0-1.6-0.4-3-1.3-4c-0.9-1-2.1-1.5-3.6-1.5H610.7z"/>
		<path class="st1" d="M629.4,256.2h2.2v1h-2.2v3.6h-1.2v-3.6h-6.7v-0.7l6.6-10h1.3V256.2z M623,256.2h5.3V248l-0.5,0.9L623,256.2z"
			/>
		<path class="st1" d="M641.7,252.7h-8.2v-1h8.2V252.7z M641.7,256.7h-8.2v-1h8.2V256.7z"/>
		<path class="st1" d="M644.6,255c0-1.4,0.2-2.8,0.6-4.2c0.4-1.3,0.9-2.6,1.6-3.7c0.7-1.1,1.5-1.9,2.3-2.4l0.3,0.8
			c-0.4,0.3-0.9,0.8-1.3,1.3c-0.4,0.6-0.8,1.3-1.1,2.1c-0.3,0.8-0.6,1.7-0.8,2.7s-0.3,2.2-0.3,3.4c0,1.4,0.2,2.7,0.5,4
			c0.3,1.3,0.7,2.4,1.3,3.4s1.1,1.7,1.8,2.2l-0.3,0.8c-0.8-0.5-1.6-1.3-2.3-2.4s-1.2-2.3-1.6-3.7C644.7,258,644.6,256.6,644.6,255z"
			/>
		<path class="st1" d="M659.1,256.8h-6.5l-1.5,4h-1.3l5.4-14.3h1.2l5.4,14.3h-1.3L659.1,256.8z M653,255.8h5.7l-2.9-7.8L653,255.8z"
			/>
		<path class="st1" d="M669,260.8h-1.2v-12.9l-3.9,1.4v-1.1l4.9-1.8h0.2V260.8z"/>
		<path class="st1" d="M679.6,253.5h4.4v1.1h-4.4v4.7h-1.2v-4.7h-4.3v-1.1h4.3v-4.6h1.2V253.5z"/>
		<path class="st1" d="M696.3,247.5h-4.9v13.3h-1.2v-13.3h-4.9v-1h11V247.5z"/>
		<path class="st1" d="M707.1,260.8h-9v-0.9l4.9-5.6c0.8-0.9,1.4-1.7,1.7-2.3c0.3-0.6,0.5-1.2,0.5-1.8c0-0.9-0.3-1.6-0.8-2.2
			s-1.3-0.8-2.2-0.8c-1,0-1.7,0.3-2.3,0.9c-0.6,0.6-0.9,1.4-0.9,2.4h-1.2c0-0.8,0.2-1.5,0.5-2.2c0.4-0.7,0.9-1.2,1.6-1.6
			c0.7-0.4,1.4-0.6,2.3-0.6c1.3,0,2.3,0.3,3.1,1c0.7,0.7,1.1,1.6,1.1,2.8c0,0.7-0.2,1.4-0.6,2.2c-0.4,0.8-1.1,1.8-2.2,3l-4,4.5h7.5
			V260.8z"/>
		<path class="st1" d="M714.1,253.5h4.4v1.1h-4.4v4.7h-1.2v-4.7h-4.3v-1.1h4.3v-4.6h1.2V253.5z"/>
		<path class="st1" d="M728.9,256.8h-6.5l-1.5,4h-1.3l5.4-14.3h1.2l5.4,14.3h-1.3L728.9,256.8z M722.7,255.8h5.7l-2.9-7.8
			L722.7,255.8z"/>
		<path class="st1" d="M742.2,260.8h-9v-0.9l4.9-5.6c0.8-0.9,1.4-1.7,1.7-2.3c0.3-0.6,0.5-1.2,0.5-1.8c0-0.9-0.3-1.6-0.8-2.2
			s-1.3-0.8-2.2-0.8c-1,0-1.7,0.3-2.3,0.9c-0.6,0.6-0.9,1.4-0.9,2.4h-1.2c0-0.8,0.2-1.5,0.5-2.2c0.4-0.7,0.9-1.2,1.6-1.6
			c0.7-0.4,1.4-0.6,2.3-0.6c1.3,0,2.3,0.3,3.1,1c0.7,0.7,1.1,1.6,1.1,2.8c0,0.7-0.2,1.4-0.6,2.2c-0.4,0.8-1.1,1.8-2.2,3l-4,4.5h7.5
			V260.8z"/>
		<path class="st1" d="M748.1,255.2c0,1.4-0.2,2.8-0.5,4.2s-0.9,2.6-1.6,3.7c-0.7,1.1-1.5,1.9-2.3,2.4l-0.3-0.8
			c0.6-0.5,1.2-1.2,1.8-2.1c0.5-1,1-2.1,1.3-3.4c0.3-1.3,0.5-2.7,0.5-4.2c0-1.4-0.2-2.7-0.5-3.9c-0.3-1.3-0.7-2.4-1.3-3.4
			s-1.1-1.7-1.8-2.2l0.3-0.8c0.8,0.5,1.6,1.3,2.3,2.4s1.2,2.3,1.6,3.7C747.9,252.2,748.1,253.6,748.1,255.2z"/>
		<path class="st1" d="M757.1,250.2l0,1.7c0.4-0.6,0.9-1.1,1.5-1.4c0.6-0.3,1.2-0.5,2-0.5c1.7,0,2.7,0.7,3.2,2.1
			c0.4-0.7,0.9-1.2,1.5-1.5c0.6-0.4,1.3-0.5,2.1-0.5c2.3,0,3.4,1.2,3.5,3.7v7.1h-1.2v-7c0-1-0.2-1.7-0.6-2.1c-0.4-0.5-1.1-0.7-2-0.7
			c-0.8,0-1.6,0.3-2.1,0.8c-0.6,0.5-0.9,1.2-1,2v7h-1.2v-7.1c0-0.9-0.2-1.6-0.6-2c-0.4-0.4-1.1-0.7-2-0.7c-0.7,0-1.4,0.2-1.9,0.6
			c-0.5,0.4-0.9,1.1-1.2,1.9v7.3H756v-10.6H757.1z"/>
		<path class="st1" d="M773.3,255.3c0-1,0.2-1.9,0.6-2.8c0.4-0.8,1-1.5,1.7-1.9s1.5-0.7,2.5-0.7c1.4,0,2.6,0.5,3.4,1.5
			s1.3,2.3,1.3,4v0.2c0,1-0.2,2-0.6,2.8c-0.4,0.8-1,1.5-1.7,1.9c-0.7,0.4-1.5,0.7-2.5,0.7c-1.4,0-2.6-0.5-3.4-1.5
			c-0.9-1-1.3-2.3-1.3-4V255.3z M774.5,255.7c0,1.3,0.3,2.3,1,3.1c0.7,0.8,1.5,1.2,2.6,1.2c1.1,0,1.9-0.4,2.6-1.2
			c0.7-0.8,1-1.9,1-3.2v-0.2c0-0.8-0.2-1.6-0.5-2.2s-0.7-1.2-1.3-1.6c-0.5-0.4-1.2-0.6-1.9-0.6c-1,0-1.9,0.4-2.6,1.2
			c-0.7,0.8-1,1.9-1,3.2V255.7z"/>
		<path class="st1" d="M784.7,255.4c0-1.7,0.4-3,1.1-4c0.7-1,1.7-1.5,3-1.5c1.4,0,2.5,0.6,3.3,1.7v-6h1.2v15.1h-1.1l0-1.4
			c-0.8,1.1-1.9,1.6-3.3,1.6c-1.2,0-2.2-0.5-3-1.5s-1.1-2.3-1.1-4V255.4z M785.9,255.6c0,1.4,0.3,2.4,0.8,3.2
			c0.5,0.8,1.3,1.2,2.3,1.2c1.5,0,2.5-0.6,3.1-1.9v-5c-0.6-1.4-1.6-2.1-3.1-2.1c-1,0-1.8,0.4-2.3,1.2
			C786.2,252.9,785.9,254.1,785.9,255.6z"/>
		<path class="st1" d="M808.1,246.4v1h-0.1c-1.7,0-3.1,0.5-4,1.5c-1,1-1.5,2.4-1.6,4.2c0.4-0.5,0.9-1,1.5-1.3c0.6-0.3,1.3-0.4,2-0.4
			c1.3,0,2.3,0.4,3,1.3c0.7,0.9,1.1,2,1.1,3.4c0,0.9-0.2,1.8-0.5,2.5c-0.3,0.7-0.8,1.3-1.5,1.7c-0.6,0.4-1.4,0.6-2.2,0.6
			c-1.4,0-2.5-0.5-3.3-1.5s-1.3-2.3-1.3-3.9v-1.2c0-2.6,0.6-4.6,1.8-6c1.2-1.4,2.8-2.1,5-2.1H808.1z M805.6,252.4
			c-0.7,0-1.4,0.2-2.1,0.7c-0.6,0.4-1.1,1-1.3,1.7v1c0,1.2,0.3,2.3,1,3s1.5,1.2,2.5,1.2c0.9,0,1.7-0.4,2.2-1.1
			c0.6-0.7,0.9-1.6,0.9-2.8c0-1.1-0.3-2-0.9-2.7S806.6,252.4,805.6,252.4z"/>
		<path class="st1" d="M817.1,253.5h4.4v1.1h-4.4v4.7h-1.2v-4.7h-4.3v-1.1h4.3v-4.6h1.2V253.5z"/>
		<path class="st1" d="M829.1,260.8H828v-12.9l-3.9,1.4v-1.1l4.9-1.8h0.2V260.8z"/>
	</g>
</g>
<g>
	<path class="st1" d="M39,19.8l-0.9,5.1H37l2.2-12.5l4.1,0c1.2,0,2.1,0.4,2.7,1c0.6,0.7,0.9,1.5,0.8,2.6c-0.1,1.2-0.6,2.1-1.4,2.8
		c-0.8,0.7-1.9,1-3.3,1L39,19.8z M39.1,18.9l3.1,0c1,0,1.8-0.3,2.5-0.8c0.6-0.5,1-1.2,1.1-2.1c0.1-0.8-0.1-1.5-0.5-2
		c-0.5-0.5-1.1-0.7-2-0.8l-3.2,0L39.1,18.9z"/>
	<path class="st1" d="M48.6,24.9h-1l2.3-13.2h1L48.6,24.9z"/>
	<path class="st1" d="M57.1,24.9c0-0.2,0-0.4,0-0.7l0.1-0.6c-0.4,0.5-0.9,0.8-1.5,1.1c-0.6,0.3-1.2,0.4-1.8,0.4
		c-0.8,0-1.4-0.3-1.9-0.7c-0.5-0.5-0.7-1.1-0.7-1.8c0-0.6,0.3-1.1,0.6-1.6s0.9-0.8,1.6-1.1c0.7-0.3,1.5-0.4,2.3-0.4l1.9,0l0.2-1.1
		c0.1-0.6-0.1-1.1-0.4-1.5c-0.3-0.4-0.9-0.6-1.5-0.6c-0.7,0-1.3,0.2-1.8,0.5c-0.5,0.3-0.8,0.8-0.9,1.4h-1c0.1-0.8,0.5-1.5,1.3-2
		s1.6-0.8,2.6-0.8c1,0,1.7,0.3,2.2,0.9c0.5,0.6,0.7,1.3,0.6,2.2l-0.8,4.7l-0.1,0.7c0,0.3,0,0.6,0.1,0.9l0,0.1H57.1z M54.1,24.1
		c0.6,0,1.2-0.1,1.8-0.5c0.6-0.3,1.1-0.8,1.4-1.4l0.4-2.1l-1.6,0c-1,0-1.9,0.2-2.6,0.6c-0.7,0.4-1,0.9-1.1,1.6
		c-0.1,0.5,0.1,0.9,0.4,1.3C53.1,24,53.5,24.1,54.1,24.1z"/>
	<path class="st1" d="M63.6,23.3l4-7.8h1.1L63,26.4c-0.4,0.8-0.9,1.4-1.3,1.8s-1,0.5-1.6,0.5c-0.2,0-0.5-0.1-0.8-0.1l0.1-0.8
		l0.5,0.1c1,0,1.7-0.5,2.3-1.7l0.7-1.3l-1.8-9.2h1.1L63.6,23.3z"/>
	<path class="st1" d="M72.3,25c-0.7,0-1.4-0.2-1.9-0.6c-0.5-0.4-0.9-1-1.2-1.7s-0.3-1.5-0.3-2.3l0-0.3c0.1-0.9,0.3-1.7,0.8-2.5
		c0.4-0.8,1-1.4,1.6-1.8s1.4-0.6,2.1-0.6c0.7,0,1.3,0.2,1.8,0.6c0.5,0.4,0.8,0.9,1,1.5s0.3,1.4,0.2,2.2l-0.1,0.6h-6.4l0,0.2
		c-0.1,0.6,0,1.2,0.1,1.8c0.2,0.6,0.5,1,0.9,1.4c0.4,0.3,0.9,0.5,1.5,0.5c0.6,0,1-0.1,1.5-0.3c0.4-0.2,0.8-0.5,1.2-0.9l0.6,0.5
		c-0.4,0.5-0.9,0.9-1.5,1.2C73.6,24.9,72.9,25,72.3,25z M73.3,16.3c-0.7,0-1.4,0.2-2,0.8c-0.6,0.6-1,1.3-1.3,2.4l5.4,0l0-0.1
		c0.1-0.8,0-1.5-0.4-2.1C74.6,16.6,74.1,16.3,73.3,16.3z"/>
	<path class="st1" d="M83.2,16.4c-0.2,0-0.5-0.1-0.7-0.1c-0.7,0-1.3,0.2-1.8,0.6s-0.9,0.9-1.1,1.5l-1.1,6.4h-1l1.6-9.3h1L79.8,17
		c0.3-0.6,0.7-1,1.2-1.3c0.5-0.3,1-0.4,1.6-0.4c0.2,0,0.4,0,0.7,0.1L83.2,16.4z"/>
	<path class="st1" d="M92.1,24.9h-1l2-11.3l-3.5,1.3l0.2-1l4.4-1.6h0.2L92.1,24.9z"/>
</g>
<g>
	<g>
		<path class="st2" d="M119.3,112.1c0,3.8-0.4,7.5-1.1,11c-73.7-19.4-95.5,24.2-95.5,24.2c-8-9.5-12.8-21.8-12.8-35.2
			c0-30.2,24.5-54.7,54.7-54.7S119.3,81.8,119.3,112.1z"/>
	</g>
	<g>
		<path class="st3" d="M118.2,123.1c-5.1,25-27.2,43.7-53.6,43.7c-16.8,0-31.9-7.6-41.9-19.5C22.6,147.3,44.5,103.7,118.2,123.1z"/>
	</g>
	<g>
		<path class="st4" d="M44.7,126.2L44.7,126.2l-1.6-21.9l-0.9-1.3c0-1.3,2.6-0.6,2.9-1.8c2.5-9,13.3-13.8,24.3-10.8
			c9.9,2.7,16.4,10.9,15.7,19.1l0,0l-0.4,20.2c0.1,1.2,0.1,2.3-0.1,3.5l0,0l0,0c-0.2,1.2-0.5,2.3-0.9,3.4c-3.6,8.6-15,12-25.4,7.7
			C49.8,140.8,44.6,133.4,44.7,126.2z"/>
		<path class="st5" d="M49.4,112.9c2.7,4.4,6.5,8.2,10.9,10.9c7.3,4.4,14.6,4.7,21.8,2c0.9-0.3,1.7-0.7,2.6-1.1l0.3-15.2l0,0
			c0.7-8.2-5.9-16.4-15.7-19.1c-10.9-3-21.8,1.8-24.3,10.8c-0.3,1.3-0.5,2.5-0.5,3.8l0,0L49.4,112.9z"/>
		<ellipse transform="matrix(0.9322 -0.362 0.362 0.9322 -25.7638 29.4259)" class="st4" cx="65.6" cy="83.5" rx="29.8" ry="39.7"/>
		<path class="st6" d="M83.9,51c2.5,1.9,3.8,4.9,3.6,8.1c-0.5,5.7-2.8,14.5-12.4,17.2c-12.1,3.4-27.6,1.8-32.4,1.2
			c-1.8-0.2-3.6-0.8-5.2-1.6c-3.6-1.9-7.9-6.2-3.4-14.7C40.7,48.7,58.3,31.5,83.9,51z"/>
		<path class="st6" d="M79.6,50.7c0,0,5.2-1.4,10.9,9.5c5,9.5,3.5,13.8,3.5,13.8L79.6,50.7z"/>
		<path class="st6" d="M54.6,77.8c0,0,6.8,21,4.5,20.8c-2.3-0.1-6.2-15.3-14-13.7s-2.1,19.3-2.1,19.3s-12.6-16-10.2-27.7
			S54.6,77.8,54.6,77.8z"/>
		<path class="st4" d="M94.7,89.1c0,0,1.1,6.5,3.4,8c2.3,1.5,3.8,3.9-1.2,5c-5,1.1-7.9-5.2-7.9-5.2L94.7,89.1z"/>
		<ellipse transform="matrix(0.9937 -0.1121 0.1121 0.9937 -9.5363 9.8551)" class="st6" cx="82.9" cy="89.7" rx="1.8" ry="2.6"/>
		<ellipse class="st6" cx="96.7" cy="87" rx="1.5" ry="2.3"/>
		<path class="st7" d="M84.9,84.1c0,0-7.3-0.4-10.1,3"/>
		<path class="st7" d="M99.6,79.5c0,0-7.3-0.4-10.1,3"/>
		<ellipse transform="matrix(0.8561 -0.5168 0.5168 0.8561 -14.6951 52.2152)" class="st6" cx="86.4" cy="52.5" rx="16" ry="14.9"/>
		<path class="st8" d="M90.1,109.4c0,0-10.2,3.3-14.4-1.4"/>
	</g>
</g>
<g>
	<path class="st1" d="M39,197l-0.9,5.1h-1.1l2.2-12.5l4.1,0c1.2,0,2.1,0.4,2.7,1s0.9,1.5,0.8,2.6c-0.1,1.2-0.6,2.1-1.4,2.8
		c-0.8,0.7-1.9,1-3.3,1L39,197z M39.1,196.1l3.1,0c1,0,1.8-0.3,2.5-0.8c0.6-0.5,1-1.2,1.1-2.1c0.1-0.8-0.1-1.5-0.5-2
		c-0.5-0.5-1.1-0.7-2-0.8l-3.2,0L39.1,196.1z"/>
	<path class="st1" d="M48.6,202.1h-1l2.3-13.2h1L48.6,202.1z"/>
	<path class="st1" d="M57.1,202.1c0-0.2,0-0.4,0-0.7l0.1-0.6c-0.4,0.5-0.9,0.8-1.5,1.1c-0.6,0.3-1.2,0.4-1.8,0.4
		c-0.8,0-1.4-0.3-1.9-0.7c-0.5-0.5-0.7-1.1-0.7-1.8c0-0.6,0.3-1.1,0.6-1.6s0.9-0.8,1.6-1.1c0.7-0.2,1.5-0.4,2.3-0.4l1.9,0l0.2-1.1
		c0.1-0.6-0.1-1.1-0.4-1.5c-0.3-0.4-0.9-0.6-1.5-0.6c-0.7,0-1.3,0.2-1.8,0.5c-0.5,0.3-0.8,0.8-0.9,1.4h-1c0.1-0.8,0.5-1.5,1.3-2
		s1.6-0.8,2.6-0.8c1,0,1.7,0.3,2.2,0.9s0.7,1.3,0.6,2.2l-0.8,4.7l-0.1,0.7c0,0.3,0,0.6,0.1,0.9l0,0.1H57.1z M54.1,201.4
		c0.6,0,1.2-0.1,1.8-0.5c0.6-0.3,1.1-0.8,1.4-1.4l0.4-2.1l-1.6,0c-1,0-1.9,0.2-2.6,0.6c-0.7,0.4-1,0.9-1.1,1.6
		c-0.1,0.5,0.1,0.9,0.4,1.3C53.1,201.2,53.6,201.3,54.1,201.4z"/>
	<path class="st1" d="M63.6,200.6l4-7.8h1.1L63,203.6c-0.4,0.8-0.9,1.4-1.3,1.8c-0.5,0.3-1,0.5-1.6,0.5c-0.2,0-0.5-0.1-0.8-0.1
		l0.1-0.8l0.5,0.1c1,0,1.7-0.5,2.3-1.7l0.7-1.3l-1.8-9.2h1.1L63.6,200.6z"/>
	<path class="st1" d="M72.3,202.2c-0.7,0-1.4-0.2-1.9-0.6c-0.5-0.4-0.9-1-1.2-1.7c-0.3-0.7-0.3-1.5-0.3-2.3l0-0.3
		c0.1-0.9,0.3-1.7,0.8-2.5c0.4-0.8,1-1.4,1.6-1.8c0.7-0.4,1.4-0.6,2.1-0.6c0.7,0,1.3,0.2,1.8,0.6c0.5,0.4,0.8,0.9,1,1.5
		s0.3,1.4,0.2,2.2l-0.1,0.6h-6.4l0,0.2c-0.1,0.6,0,1.2,0.1,1.8c0.2,0.6,0.5,1,0.9,1.4c0.4,0.3,0.9,0.5,1.5,0.5c0.6,0,1-0.1,1.5-0.3
		c0.4-0.2,0.8-0.5,1.2-0.9l0.6,0.5c-0.4,0.5-0.9,0.9-1.5,1.2C73.6,202.1,73,202.3,72.3,202.2z M73.3,193.5c-0.7,0-1.4,0.2-2,0.8
		c-0.6,0.6-1,1.3-1.3,2.4l5.4,0l0-0.1c0.1-0.8,0-1.5-0.4-2.1C74.6,193.8,74.1,193.5,73.3,193.5z"/>
	<path class="st1" d="M83.2,193.6c-0.2,0-0.5-0.1-0.7-0.1c-0.7,0-1.3,0.2-1.8,0.6c-0.5,0.4-0.9,0.9-1.1,1.5l-1.1,6.4h-1l1.6-9.3h1
		l-0.3,1.5c0.3-0.6,0.7-1,1.2-1.3c0.5-0.3,1-0.4,1.6-0.4c0.2,0,0.4,0,0.7,0.1L83.2,193.6z"/>
	<path class="st1" d="M95.1,202.1h-7.6l0.1-0.8l5.4-5.4c1.1-1.2,1.8-2.2,1.9-3.1c0.1-0.7-0.1-1.3-0.4-1.8s-0.9-0.7-1.7-0.7
		c-0.8,0-1.5,0.2-2.1,0.8c-0.6,0.5-0.9,1.2-1.1,2.1l-1,0c0.1-1.1,0.6-2,1.4-2.7s1.7-1.1,2.8-1.1c1,0,1.8,0.3,2.4,1
		c0.6,0.6,0.8,1.4,0.7,2.4c-0.1,1.1-0.8,2.4-2.1,3.7l-4.9,4.9h6.4L95.1,202.1z"/>
</g>
<g>
	<g>
		<path class="st2" d="M121.3,289.3c0,3.8-0.4,7.5-1.1,11c-73.7-19.4-95.5,24.2-95.5,24.2c-8-9.5-12.8-21.8-12.8-35.2
			c0-30.2,24.5-54.7,54.7-54.7S121.3,259,121.3,289.3z"/>
	</g>
	<g>
		<path class="st9" d="M120.2,300.3c-5.1,25-27.2,43.7-53.6,43.7c-16.8,0-31.9-7.6-41.9-19.5C24.7,324.5,46.5,280.9,120.2,300.3z"/>
	</g>
	<g>
		<path class="st4" d="M46.7,303.4L46.7,303.4l-1.6-21.9l-0.9-1.3c0-1.3,2.6-0.6,2.9-1.8c2.5-9,13.3-13.8,24.3-10.8
			c9.9,2.7,16.4,10.9,15.7,19.1l0,0l-0.4,20.2c0.1,1.2,0.1,2.3-0.1,3.5l0,0l0,0c-0.2,1.2-0.5,2.3-0.9,3.4c-3.6,8.6-15,12-25.4,7.7
			C51.9,318,46.6,310.6,46.7,303.4z"/>
		<path class="st5" d="M51.5,290.2c2.7,4.4,6.5,8.2,10.9,10.9c7.3,4.4,14.6,4.7,21.8,2c0.9-0.3,1.7-0.7,2.6-1.1l0.3-15.2l0,0
			c0.7-8.2-5.9-16.4-15.7-19.1c-10.9-3-21.8,1.8-24.3,10.8c-0.3,1.3-0.5,2.5-0.5,3.8l0,0L51.5,290.2z"/>
		<ellipse transform="matrix(0.9322 -0.362 0.362 0.9322 -89.7779 42.181)" class="st4" cx="67.7" cy="260.7" rx="29.8" ry="39.7"/>
		<path class="st6" d="M85.9,228.2c2.5,1.9,3.8,4.9,3.6,8.1c-0.5,5.7-2.8,14.5-12.4,17.2c-12.1,3.4-27.6,1.8-32.4,1.2
			c-1.8-0.2-3.6-0.8-5.2-1.6c-3.6-1.9-7.9-6.2-3.4-14.7C42.7,225.9,60.3,208.7,85.9,228.2z"/>
		<path class="st6" d="M81.6,227.9c0,0,5.2-1.4,10.9,9.5c5,9.5,3.5,13.8,3.5,13.8L81.6,227.9z"/>
		<path class="st6" d="M56.6,255c0,0,6.8,21,4.5,20.8c-2.3-0.1-6.2-15.3-14-13.7s-2.1,19.3-2.1,19.3s-12.6-16-10.2-27.7
			S56.6,255,56.6,255z"/>
		<path class="st4" d="M96.7,266.3c0,0,1.1,6.5,3.4,8c2.3,1.5,3.8,3.9-1.2,5s-7.9-5.2-7.9-5.2L96.7,266.3z"/>
		
			<ellipse transform="matrix(0.9937 -0.1121 0.1121 0.9937 -29.3914 11.2002)" class="st6" cx="84.9" cy="266.9" rx="1.8" ry="2.6"/>
		<ellipse class="st6" cx="98.7" cy="264.2" rx="1.5" ry="2.3"/>
		<path class="st7" d="M86.9,261.4c0,0-7.3-0.4-10.1,3"/>
		<path class="st7" d="M101.6,256.7c0,0-7.3-0.4-10.1,3"/>
		
			<ellipse transform="matrix(0.8561 -0.5168 0.5168 0.8561 -105.9824 78.7633)" class="st6" cx="88.5" cy="229.7" rx="16" ry="14.9"/>
		<path class="st8" d="M92.1,286.6c0,0-10.2,3.3-14.4-1.4"/>
	</g>
</g>
<g>
	<g>
		<path class="st10" d="M433.7,106.8V96.1h3c0.9,0,1.7,0.2,2.4,0.6c0.7,0.4,1.2,1,1.6,1.7c0.4,0.7,0.6,1.6,0.6,2.6v1
			c0,1-0.2,1.8-0.6,2.6c-0.4,0.7-0.9,1.3-1.6,1.7s-1.5,0.6-2.4,0.6H433.7z M434.6,96.9v9.2h2c1.1,0,2-0.4,2.7-1.1c0.7-0.8,1-1.8,1-3
			V101c0-1.2-0.3-2.2-1-3c-0.7-0.7-1.6-1.1-2.7-1.1H434.6z"/>
		<path class="st10" d="M447.3,106.8h-0.9v-9.7l-2.9,1.1v-0.8l3.7-1.4h0.1V106.8z"/>
		<path class="st10" d="M451.5,108.8l-0.5-0.4c0.4-0.6,0.7-1.2,0.7-1.9v-1.1h0.9v0.9C452.6,107.4,452.2,108.2,451.5,108.8z"/>
		<path class="st10" d="M458.5,106.8V96.1h3c0.9,0,1.7,0.2,2.4,0.6c0.7,0.4,1.2,1,1.6,1.7c0.4,0.7,0.6,1.6,0.6,2.6v1
			c0,1-0.2,1.8-0.6,2.6c-0.4,0.7-0.9,1.3-1.6,1.7s-1.5,0.6-2.4,0.6H458.5z M459.4,96.9v9.2h2c1.1,0,2-0.4,2.7-1.1c0.7-0.8,1-1.8,1-3
			V101c0-1.2-0.3-2.2-1-3c-0.7-0.7-1.6-1.1-2.7-1.1H459.4z"/>
		<path class="st10" d="M474.8,106.8H468v-0.7l3.7-4.2c0.6-0.7,1-1.3,1.3-1.7c0.2-0.5,0.4-0.9,0.4-1.3c0-0.7-0.2-1.2-0.6-1.6
			s-0.9-0.6-1.6-0.6c-0.7,0-1.3,0.2-1.8,0.7s-0.7,1.1-0.7,1.8h-0.9c0-0.6,0.1-1.2,0.4-1.7s0.7-0.9,1.2-1.2c0.5-0.3,1.1-0.4,1.7-0.4
			c1,0,1.8,0.3,2.3,0.8c0.6,0.5,0.8,1.2,0.8,2.1c0,0.5-0.2,1.1-0.5,1.6s-0.9,1.3-1.6,2.2l-3,3.4h5.6V106.8z"/>
	</g>
</g>
<g>
	<g>
		<g>
			<path class="st1" d="M180.9,49.5H176l-1.1,3h-1l4.1-10.7h0.9l4.1,10.7H182L180.9,49.5z M176.3,48.7h4.3l-2.2-5.9L176.3,48.7z"/>
			<path class="st1" d="M188.3,52.5h-0.9v-9.7l-2.9,1.1v-0.8l3.7-1.4h0.1V52.5z"/>
			<path class="st1" d="M196.2,48.1c0-1.1,0.1-2.1,0.4-3.1c0.3-1,0.7-1.9,1.2-2.8s1.1-1.4,1.7-1.8l0.2,0.6c-0.3,0.2-0.6,0.6-1,1
				c-0.3,0.4-0.6,1-0.9,1.6c-0.3,0.6-0.5,1.3-0.6,2.1c-0.2,0.8-0.2,1.6-0.2,2.6c0,1,0.1,2,0.4,3c0.2,0.9,0.6,1.8,1,2.5
				c0.4,0.7,0.9,1.3,1.4,1.6l-0.2,0.6c-0.6-0.4-1.2-1-1.7-1.8c-0.5-0.8-0.9-1.8-1.2-2.8C196.4,50.4,196.2,49.3,196.2,48.1z"/>
			<path class="st1" d="M206.2,52.5c-0.1-0.3-0.1-0.6-0.2-1.1c-0.3,0.4-0.7,0.7-1.2,0.9s-1,0.3-1.5,0.3c-0.8,0-1.4-0.2-1.9-0.6
				c-0.5-0.4-0.7-1-0.7-1.6c0-0.8,0.3-1.4,1-1.8s1.5-0.7,2.7-0.7h1.6v-0.9c0-0.6-0.2-1-0.5-1.3c-0.4-0.3-0.9-0.5-1.5-0.5
				c-0.6,0-1.1,0.2-1.5,0.5s-0.6,0.7-0.6,1.1l-0.9,0c0-0.6,0.3-1.2,0.9-1.6s1.3-0.7,2.2-0.7c0.9,0,1.6,0.2,2.1,0.7s0.8,1.1,0.8,1.9
				v3.8c0,0.8,0.1,1.4,0.2,1.7v0.1H206.2z M203.5,51.8c0.6,0,1.1-0.1,1.6-0.4c0.5-0.3,0.8-0.7,1-1.1v-1.8h-1.6
				c-0.9,0-1.6,0.2-2.1,0.5c-0.5,0.3-0.7,0.7-0.7,1.3c0,0.4,0.2,0.8,0.5,1.1C202.5,51.7,202.9,51.8,203.5,51.8z"/>
			<path class="st1" d="M212.2,51.9c0.6,0,1.1-0.2,1.5-0.5c0.4-0.3,0.6-0.8,0.7-1.3h0.8c0,0.5-0.2,0.9-0.5,1.3
				c-0.3,0.4-0.7,0.7-1.1,0.9c-0.5,0.2-1,0.3-1.5,0.3c-1,0-1.9-0.4-2.5-1.1c-0.6-0.7-0.9-1.7-0.9-2.9v-0.3c0-0.8,0.1-1.5,0.4-2.1
				s0.7-1.1,1.2-1.4c0.5-0.3,1.1-0.5,1.8-0.5c0.9,0,1.6,0.3,2.2,0.8s0.9,1.2,0.9,2.1h-0.8c0-0.6-0.3-1.1-0.7-1.5
				c-0.4-0.4-0.9-0.6-1.6-0.6c-0.8,0-1.4,0.3-1.9,0.9s-0.7,1.4-0.7,2.4v0.3c0,1,0.2,1.8,0.7,2.4S211.4,51.9,212.2,51.9z"/>
			<path class="st1" d="M220,51.9c0.6,0,1.1-0.2,1.5-0.5c0.4-0.3,0.6-0.8,0.7-1.3h0.8c0,0.5-0.2,0.9-0.5,1.3
				c-0.3,0.4-0.7,0.7-1.1,0.9c-0.5,0.2-1,0.3-1.5,0.3c-1,0-1.9-0.4-2.5-1.1c-0.6-0.7-0.9-1.7-0.9-2.9v-0.3c0-0.8,0.1-1.5,0.4-2.1
				s0.7-1.1,1.2-1.4c0.5-0.3,1.1-0.5,1.8-0.5c0.9,0,1.6,0.3,2.2,0.8s0.9,1.2,0.9,2.1h-0.8c0-0.6-0.3-1.1-0.7-1.5
				c-0.4-0.4-0.9-0.6-1.6-0.6c-0.8,0-1.4,0.3-1.9,0.9s-0.7,1.4-0.7,2.4v0.3c0,1,0.2,1.8,0.7,2.4S219.2,51.9,220,51.9z"/>
			<path class="st1" d="M227.9,52.6c-0.7,0-1.3-0.2-1.8-0.5c-0.5-0.3-1-0.8-1.3-1.4c-0.3-0.6-0.5-1.3-0.5-2v-0.3
				c0-0.8,0.1-1.5,0.4-2.1c0.3-0.6,0.7-1.1,1.2-1.5c0.5-0.4,1.1-0.5,1.7-0.5c1,0,1.7,0.3,2.3,1s0.9,1.6,0.9,2.7v0.5h-5.7v0.2
				c0,0.9,0.3,1.7,0.8,2.3c0.5,0.6,1.2,0.9,2,0.9c0.5,0,0.9-0.1,1.3-0.3c0.4-0.2,0.7-0.4,1-0.8l0.6,0.4
				C230.1,52.2,229.2,52.6,227.9,52.6z M227.8,45.1c-0.7,0-1.2,0.2-1.7,0.7c-0.5,0.5-0.7,1.1-0.8,2h4.8v-0.1c0-0.8-0.2-1.4-0.7-1.9
				C229,45.3,228.5,45.1,227.8,45.1z"/>
			<path class="st1" d="M233.6,52.5h-0.9V41.1h0.9V52.5z"/>
			<path class="st1" d="M239.1,52.6c-0.7,0-1.3-0.2-1.8-0.5c-0.5-0.3-1-0.8-1.3-1.4c-0.3-0.6-0.5-1.3-0.5-2v-0.3
				c0-0.8,0.1-1.5,0.4-2.1c0.3-0.6,0.7-1.1,1.2-1.5c0.5-0.4,1.1-0.5,1.7-0.5c1,0,1.7,0.3,2.3,1s0.9,1.6,0.9,2.7v0.5h-5.7v0.2
				c0,0.9,0.3,1.7,0.8,2.3c0.5,0.6,1.2,0.9,2,0.9c0.5,0,0.9-0.1,1.3-0.3c0.4-0.2,0.7-0.4,1-0.8l0.6,0.4
				C241.3,52.2,240.4,52.6,239.1,52.6z M239,45.1c-0.7,0-1.2,0.2-1.7,0.7c-0.5,0.5-0.7,1.1-0.8,2h4.8v-0.1c0-0.8-0.2-1.4-0.7-1.9
				C240.2,45.3,239.6,45.1,239,45.1z"/>
			<path class="st1" d="M247.5,45.2c-0.2,0-0.4-0.1-0.6-0.1c-0.6,0-1,0.2-1.4,0.5c-0.4,0.3-0.7,0.8-0.8,1.3v5.5h-0.9v-8h0.9l0,1.3
				c0.5-0.9,1.2-1.4,2.3-1.4c0.2,0,0.4,0,0.6,0.1L247.5,45.2z"/>
			<path class="st1" d="M248.3,48.4c0-0.8,0.1-1.5,0.4-2.1c0.3-0.6,0.7-1.1,1.3-1.4c0.5-0.3,1.2-0.5,1.8-0.5c1.1,0,1.9,0.4,2.6,1.1
				c0.7,0.7,1,1.7,1,3v0.2c0,0.8-0.1,1.5-0.4,2.1c-0.3,0.6-0.7,1.1-1.3,1.4c-0.5,0.3-1.2,0.5-1.9,0.5c-1.1,0-1.9-0.4-2.6-1.1
				c-0.7-0.7-1-1.7-1-3V48.4z M249.2,48.6c0,1,0.2,1.7,0.7,2.4c0.5,0.6,1.1,0.9,1.9,0.9c0.8,0,1.4-0.3,1.9-0.9
				c0.5-0.6,0.7-1.4,0.7-2.4v-0.2c0-0.6-0.1-1.2-0.3-1.7c-0.2-0.5-0.5-0.9-1-1.2c-0.4-0.3-0.9-0.4-1.4-0.4c-0.8,0-1.4,0.3-1.9,0.9
				c-0.5,0.6-0.7,1.4-0.7,2.4V48.6z"/>
			<path class="st1" d="M258.1,44.5l0,1.3c0.3-0.5,0.7-0.8,1.1-1.1c0.4-0.2,0.9-0.4,1.5-0.4c1.3,0,2.1,0.5,2.4,1.5
				c0.3-0.5,0.7-0.9,1.1-1.1c0.5-0.3,1-0.4,1.6-0.4c1.7,0,2.6,0.9,2.6,2.8v5.3h-0.9v-5.3c0-0.7-0.2-1.2-0.5-1.6
				c-0.3-0.3-0.8-0.5-1.5-0.5c-0.6,0-1.2,0.2-1.6,0.6s-0.7,0.9-0.7,1.5v5.3h-0.9v-5.3c0-0.7-0.2-1.2-0.5-1.5s-0.8-0.5-1.5-0.5
				c-0.6,0-1,0.2-1.4,0.5c-0.4,0.3-0.7,0.8-0.9,1.4v5.5h-0.9v-8H258.1z"/>
			<path class="st1" d="M273.7,52.6c-0.7,0-1.3-0.2-1.8-0.5c-0.5-0.3-1-0.8-1.3-1.4c-0.3-0.6-0.5-1.3-0.5-2v-0.3
				c0-0.8,0.1-1.5,0.4-2.1c0.3-0.6,0.7-1.1,1.2-1.5c0.5-0.4,1.1-0.5,1.7-0.5c1,0,1.7,0.3,2.3,1s0.9,1.6,0.9,2.7v0.5H271v0.2
				c0,0.9,0.3,1.7,0.8,2.3c0.5,0.6,1.2,0.9,2,0.9c0.5,0,0.9-0.1,1.3-0.3c0.4-0.2,0.7-0.4,1-0.8l0.6,0.4
				C275.9,52.2,275,52.6,273.7,52.6z M273.6,45.1c-0.7,0-1.2,0.2-1.7,0.7c-0.5,0.5-0.7,1.1-0.8,2h4.8v-0.1c0-0.8-0.2-1.4-0.7-1.9
				C274.8,45.3,274.2,45.1,273.6,45.1z"/>
			<path class="st1" d="M279.8,42.4v2h1.7v0.7h-1.7v5.3c0,0.4,0.1,0.8,0.2,1c0.2,0.2,0.4,0.3,0.8,0.3c0.1,0,0.4,0,0.7-0.1l0,0.7
				c-0.2,0.1-0.5,0.1-0.9,0.1c-0.6,0-1-0.2-1.3-0.5c-0.3-0.4-0.4-0.9-0.4-1.6v-5.3h-1.5v-0.7h1.5v-2H279.8z"/>
			<path class="st1" d="M286.4,52.6c-0.7,0-1.3-0.2-1.8-0.5c-0.5-0.3-1-0.8-1.3-1.4c-0.3-0.6-0.5-1.3-0.5-2v-0.3
				c0-0.8,0.1-1.5,0.4-2.1c0.3-0.6,0.7-1.1,1.2-1.5c0.5-0.4,1.1-0.5,1.7-0.5c1,0,1.7,0.3,2.3,1s0.9,1.6,0.9,2.7v0.5h-5.7v0.2
				c0,0.9,0.3,1.7,0.8,2.3c0.5,0.6,1.2,0.9,2,0.9c0.5,0,0.9-0.1,1.3-0.3c0.4-0.2,0.7-0.4,1-0.8l0.6,0.4
				C288.6,52.2,287.6,52.6,286.4,52.6z M286.2,45.1c-0.7,0-1.2,0.2-1.7,0.7c-0.5,0.5-0.7,1.1-0.8,2h4.8v-0.1c0-0.8-0.2-1.4-0.7-1.9
				C287.5,45.3,286.9,45.1,286.2,45.1z"/>
			<path class="st1" d="M294.8,45.2c-0.2,0-0.4-0.1-0.6-0.1c-0.6,0-1,0.2-1.4,0.5c-0.4,0.3-0.7,0.8-0.8,1.3v5.5h-0.9v-8h0.9l0,1.3
				c0.5-0.9,1.2-1.4,2.3-1.4c0.2,0,0.4,0,0.6,0.1L294.8,45.2z"/>
			<path class="st1" d="M303.9,52.5H303v-9.7l-2.9,1.1v-0.8l3.7-1.4h0.1V52.5z"/>
			<path class="st1" d="M310.9,48.3c0,1.1-0.1,2.1-0.4,3.1c-0.3,1-0.7,1.9-1.2,2.7s-1.1,1.4-1.7,1.8l-0.2-0.6
				c0.5-0.3,0.9-0.9,1.3-1.6c0.4-0.7,0.7-1.6,1-2.5c0.2-1,0.4-2,0.4-3.1c0-1-0.1-2-0.4-2.9c-0.2-0.9-0.6-1.8-1-2.5
				c-0.4-0.7-0.9-1.3-1.3-1.6l0.2-0.6c0.6,0.4,1.2,1,1.7,1.8c0.5,0.8,0.9,1.8,1.2,2.8C310.8,46,310.9,47.1,310.9,48.3z"/>
			<path class="st1" d="M188.6,60.6h-3.7v10H184v-10h-3.7v-0.8h8.3V60.6z"/>
			<path class="st1" d="M194.1,70.6h-0.9v-9.7l-2.9,1.1v-0.8l3.7-1.4h0.1V70.6z"/>
			<path class="st1" d="M202,66.3c0-1.1,0.1-2.1,0.4-3.1c0.3-1,0.7-1.9,1.2-2.8s1.1-1.4,1.7-1.8l0.2,0.6c-0.3,0.2-0.6,0.6-1,1
				c-0.3,0.4-0.6,1-0.9,1.6c-0.3,0.6-0.5,1.3-0.6,2.1c-0.2,0.8-0.2,1.6-0.2,2.6c0,1,0.1,2,0.4,3c0.2,0.9,0.6,1.8,1,2.5
				c0.4,0.7,0.9,1.3,1.4,1.6l-0.2,0.6c-0.6-0.4-1.2-1-1.7-1.8c-0.5-0.8-0.9-1.8-1.2-2.8C202.1,68.5,202,67.4,202,66.3z"/>
			<path class="st1" d="M208.3,60.6v2h1.7v0.7h-1.7v5.3c0,0.4,0.1,0.8,0.2,1c0.2,0.2,0.4,0.3,0.8,0.3c0.1,0,0.4,0,0.7-0.1l0,0.7
				c-0.2,0.1-0.5,0.1-0.9,0.1c-0.6,0-1-0.2-1.3-0.5c-0.3-0.4-0.4-0.9-0.4-1.6v-5.3H206v-0.7h1.5v-2H208.3z"/>
			<path class="st1" d="M211.8,60.3c0-0.2,0.1-0.3,0.2-0.4c0.1-0.1,0.3-0.2,0.4-0.2s0.3,0.1,0.4,0.2c0.1,0.1,0.2,0.3,0.2,0.4
				c0,0.2-0.1,0.3-0.2,0.4c-0.1,0.1-0.3,0.2-0.4,0.2s-0.3-0.1-0.4-0.2C211.8,60.6,211.8,60.5,211.8,60.3z M212.8,70.6h-0.9v-8h0.9
				V70.6z"/>
			<path class="st1" d="M216,62.6l0,1.3c0.3-0.5,0.7-0.8,1.1-1.1c0.4-0.2,0.9-0.4,1.5-0.4c1.3,0,2.1,0.5,2.4,1.5
				c0.3-0.5,0.7-0.9,1.1-1.1c0.5-0.3,1-0.4,1.6-0.4c1.7,0,2.6,0.9,2.6,2.8v5.3h-0.9v-5.3c0-0.7-0.2-1.2-0.5-1.6
				c-0.3-0.3-0.8-0.5-1.5-0.5c-0.6,0-1.2,0.2-1.6,0.6s-0.7,0.9-0.7,1.5v5.3h-0.9v-5.3c0-0.7-0.2-1.2-0.5-1.5s-0.8-0.5-1.5-0.5
				c-0.6,0-1,0.2-1.4,0.5c-0.4,0.3-0.7,0.8-0.9,1.4v5.5h-0.9v-8H216z"/>
			<path class="st1" d="M231.7,70.8c-0.7,0-1.3-0.2-1.8-0.5c-0.5-0.3-1-0.8-1.3-1.4c-0.3-0.6-0.5-1.3-0.5-2v-0.3
				c0-0.8,0.1-1.5,0.4-2.1c0.3-0.6,0.7-1.1,1.2-1.5c0.5-0.4,1.1-0.5,1.7-0.5c1,0,1.7,0.3,2.3,1s0.9,1.6,0.9,2.7v0.5H229v0.2
				c0,0.9,0.3,1.7,0.8,2.3c0.5,0.6,1.2,0.9,2,0.9c0.5,0,0.9-0.1,1.3-0.3c0.4-0.2,0.7-0.4,1-0.8l0.6,0.4
				C233.9,70.3,232.9,70.8,231.7,70.8z M231.5,63.2c-0.7,0-1.2,0.2-1.7,0.7c-0.5,0.5-0.7,1.1-0.8,2h4.8v-0.1c0-0.8-0.2-1.4-0.7-1.9
				C232.7,63.5,232.2,63.2,231.5,63.2z"/>
			<path class="st1" d="M240,60.3c0-0.2,0.1-0.3,0.2-0.4c0.1-0.1,0.3-0.2,0.4-0.2s0.3,0.1,0.4,0.2c0.1,0.1,0.2,0.3,0.2,0.4
				c0,0.2-0.1,0.3-0.2,0.4c-0.1,0.1-0.3,0.2-0.4,0.2s-0.3-0.1-0.4-0.2C240.1,60.6,240,60.5,240,60.3z M241.1,70.6h-0.9v-8h0.9V70.6z
				"/>
			<path class="st1" d="M244.3,62.6l0,1.4c0.3-0.5,0.7-0.9,1.1-1.1s0.9-0.4,1.5-0.4c0.9,0,1.5,0.2,1.9,0.7c0.4,0.5,0.6,1.2,0.6,2.2
				v5.2h-0.9v-5.2c0-0.7-0.2-1.2-0.5-1.6c-0.3-0.3-0.8-0.5-1.4-0.5c-0.5,0-1,0.2-1.5,0.5c-0.4,0.3-0.7,0.8-0.9,1.4v5.5h-0.9v-8
				H244.3z"/>
			<path class="st1" d="M256.2,62.6l0,1.3c0.3-0.5,0.7-0.8,1.1-1.1c0.4-0.2,0.9-0.4,1.5-0.4c1.3,0,2.1,0.5,2.4,1.5
				c0.3-0.5,0.7-0.9,1.1-1.1c0.5-0.3,1-0.4,1.6-0.4c1.7,0,2.6,0.9,2.6,2.8v5.3h-0.9v-5.3c0-0.7-0.2-1.2-0.5-1.6
				c-0.3-0.3-0.8-0.5-1.5-0.5c-0.6,0-1.2,0.2-1.6,0.6s-0.7,0.9-0.7,1.5v5.3h-0.9v-5.3c0-0.7-0.2-1.2-0.5-1.5s-0.8-0.5-1.5-0.5
				c-0.6,0-1,0.2-1.4,0.5c-0.4,0.3-0.7,0.8-0.9,1.4v5.5h-0.9v-8H256.2z"/>
			<path class="st1" d="M268.8,60.3c0-0.2,0.1-0.3,0.2-0.4c0.1-0.1,0.3-0.2,0.4-0.2s0.3,0.1,0.4,0.2c0.1,0.1,0.2,0.3,0.2,0.4
				c0,0.2-0.1,0.3-0.2,0.4c-0.1,0.1-0.3,0.2-0.4,0.2s-0.3-0.1-0.4-0.2C268.8,60.6,268.8,60.5,268.8,60.3z M269.8,70.6h-0.9v-8h0.9
				V70.6z"/>
			<path class="st1" d="M273.2,70.6h-0.9V59.3h0.9V70.6z"/>
			<path class="st1" d="M276.6,70.6h-0.9V59.3h0.9V70.6z"/>
			<path class="st1" d="M278.9,60.3c0-0.2,0.1-0.3,0.2-0.4c0.1-0.1,0.3-0.2,0.4-0.2s0.3,0.1,0.4,0.2c0.1,0.1,0.2,0.3,0.2,0.4
				c0,0.2-0.1,0.3-0.2,0.4c-0.1,0.1-0.3,0.2-0.4,0.2s-0.3-0.1-0.4-0.2C279,60.6,278.9,60.5,278.9,60.3z M280,70.6h-0.9v-8h0.9V70.6z
				"/>
			<path class="st1" d="M287.2,68.6c0-0.4-0.2-0.8-0.5-1.1c-0.4-0.3-0.9-0.5-1.6-0.6c-0.7-0.1-1.3-0.3-1.6-0.5
				c-0.4-0.2-0.7-0.4-0.9-0.7s-0.3-0.6-0.3-1c0-0.6,0.3-1.1,0.8-1.6c0.5-0.4,1.2-0.6,2-0.6c0.9,0,1.6,0.2,2.1,0.7
				c0.5,0.4,0.8,1,0.8,1.7h-0.9c0-0.5-0.2-0.9-0.6-1.2c-0.4-0.3-0.9-0.5-1.5-0.5c-0.6,0-1,0.1-1.4,0.4c-0.4,0.3-0.5,0.6-0.5,1
				c0,0.4,0.1,0.7,0.4,0.9c0.3,0.2,0.8,0.4,1.6,0.6c0.8,0.2,1.4,0.4,1.7,0.6c0.4,0.2,0.7,0.5,0.9,0.7c0.2,0.3,0.3,0.6,0.3,1.1
				c0,0.7-0.3,1.2-0.8,1.6c-0.5,0.4-1.3,0.6-2.1,0.6c-0.9,0-1.7-0.2-2.3-0.7s-0.9-1-0.9-1.7h0.9c0,0.5,0.3,0.9,0.7,1.2
				c0.4,0.3,0.9,0.4,1.6,0.4c0.6,0,1.1-0.1,1.5-0.4C287,69.3,287.2,69,287.2,68.6z"/>
			<path class="st1" d="M297.7,70.6h-0.9v-9.7l-2.9,1.1v-0.8l3.7-1.4h0.1V70.6z"/>
			<path class="st1" d="M304.7,66.4c0,1.1-0.1,2.1-0.4,3.1c-0.3,1-0.7,1.9-1.2,2.7s-1.1,1.4-1.7,1.8l-0.2-0.6
				c0.5-0.3,0.9-0.9,1.3-1.6c0.4-0.7,0.7-1.6,1-2.5c0.2-1,0.4-2,0.4-3.1c0-1-0.1-2-0.4-2.9c-0.2-0.9-0.6-1.8-1-2.5
				c-0.4-0.7-0.9-1.3-1.3-1.6l0.2-0.6c0.6,0.4,1.2,1,1.7,1.8c0.5,0.8,0.9,1.8,1.2,2.8C304.6,64.2,304.7,65.2,304.7,66.4z"/>
		</g>
	</g>
	<polygon points="578.3,54.2 564.6,62.1 564.6,46.2 	"/>
	<circle cx="126" cy="54.2" r="2"/>
	<line class="st11" x1="126" y1="54.2" x2="170.5" y2="54.2"/>
	<line class="st11" x1="317.8" y1="54.2" x2="569.9" y2="54.2"/>
</g>
<polygon points="141.4,102.2 155.1,110.1 155.1,94.3 "/>
<circle cx="570.5" cy="102.2" r="2"/>
<line class="st11" x1="570.5" y1="102.2" x2="526" y2="102.2"/>
<line class="st11" x1="391.7" y1="102.2" x2="155.1" y2="102.2"/>
<g>
	<g>
		<path class="st10" d="M433.7,276.3v-10.7h3c0.9,0,1.7,0.2,2.4,0.6c0.7,0.4,1.2,1,1.6,1.7s0.6,1.6,0.6,2.6v1c0,1-0.2,1.8-0.6,2.6
			c-0.4,0.7-0.9,1.3-1.6,1.7s-1.5,0.6-2.4,0.6H433.7z M434.6,266.3v9.2h2c1.1,0,2-0.4,2.7-1.1s1-1.8,1-3v-0.9c0-1.2-0.3-2.2-1-3
			c-0.7-0.7-1.6-1.1-2.7-1.1H434.6z"/>
		<path class="st10" d="M445.2,270.5h0.9c0.5,0,0.9-0.1,1.3-0.3s0.7-0.4,0.9-0.7s0.3-0.7,0.3-1.1c0-0.7-0.2-1.2-0.6-1.6
			s-0.9-0.6-1.7-0.6c-0.7,0-1.3,0.2-1.7,0.6c-0.4,0.4-0.7,0.9-0.7,1.6h-0.9c0-0.6,0.1-1.1,0.4-1.5s0.7-0.8,1.2-1.1s1-0.4,1.7-0.4
			c1,0,1.7,0.3,2.3,0.8s0.8,1.3,0.8,2.2c0,0.5-0.2,1-0.5,1.4c-0.3,0.4-0.8,0.8-1.3,1c0.7,0.2,1.2,0.5,1.5,1s0.5,1,0.5,1.6
			c0,0.9-0.3,1.7-0.9,2.2c-0.6,0.6-1.4,0.8-2.4,0.8c-0.6,0-1.2-0.1-1.8-0.4c-0.5-0.3-0.9-0.6-1.2-1.1c-0.3-0.5-0.4-1-0.4-1.6h0.9
			c0,0.7,0.2,1.2,0.7,1.7c0.5,0.4,1.1,0.6,1.8,0.6c0.8,0,1.4-0.2,1.8-0.6c0.4-0.4,0.6-1,0.6-1.7c0-0.7-0.2-1.3-0.7-1.6
			s-1.1-0.6-2-0.6h-0.9V270.5z"/>
		<path class="st10" d="M451.5,278.3l-0.5-0.4c0.4-0.6,0.7-1.2,0.7-1.9v-1.1h0.9v0.9C452.6,276.9,452.2,277.7,451.5,278.3z"/>
		<path class="st10" d="M458.5,276.3v-10.7h3c0.9,0,1.7,0.2,2.4,0.6c0.7,0.4,1.2,1,1.6,1.7s0.6,1.6,0.6,2.6v1c0,1-0.2,1.8-0.6,2.6
			c-0.4,0.7-0.9,1.3-1.6,1.7s-1.5,0.6-2.4,0.6H458.5z M459.4,266.3v9.2h2c1.1,0,2-0.4,2.7-1.1s1-1.8,1-3v-0.9c0-1.2-0.3-2.2-1-3
			c-0.7-0.7-1.6-1.1-2.7-1.1H459.4z"/>
		<path class="st10" d="M473.5,272.8h1.7v0.7h-1.7v2.7h-0.9v-2.7h-5.1v-0.5l5-7.5h1V272.8z M468.6,272.8h4v-6.1l-0.4,0.7
			L468.6,272.8z"/>
	</g>
</g>
<polygon points="141.4,271.7 155.1,279.6 155.1,263.7 "/>
<circle cx="570.5" cy="271.7" r="2"/>
<line class="st11" x1="570.5" y1="271.7" x2="526" y2="271.7"/>
<line class="st11" x1="391.7" y1="271.7" x2="155.1" y2="271.7"/>
<g>
	<g>
		<g>
			<path class="st1" d="M180,308.1h-4.9l-1.1,3h-1l4.1-10.7h0.9l4.1,10.7h-0.9L180,308.1z M175.4,307.3h4.3l-2.2-5.9L175.4,307.3z"
				/>
			<path class="st1" d="M190.1,311.1h-6.7v-0.7l3.7-4.2c0.6-0.7,1-1.3,1.3-1.7c0.2-0.5,0.4-0.9,0.4-1.3c0-0.7-0.2-1.2-0.6-1.6
				c-0.4-0.4-0.9-0.6-1.6-0.6c-0.7,0-1.3,0.2-1.8,0.7c-0.4,0.5-0.7,1.1-0.7,1.8h-0.9c0-0.6,0.1-1.2,0.4-1.7c0.3-0.5,0.7-0.9,1.2-1.2
				c0.5-0.3,1.1-0.4,1.7-0.4c1,0,1.8,0.3,2.3,0.8c0.6,0.5,0.8,1.2,0.8,2.1c0,0.5-0.2,1.1-0.5,1.6c-0.3,0.6-0.9,1.3-1.6,2.2l-3,3.4
				h5.6V311.1z"/>
			<path class="st1" d="M195.4,306.7c0-1.1,0.1-2.1,0.4-3.1c0.3-1,0.7-1.9,1.2-2.8s1.1-1.4,1.7-1.8l0.2,0.6c-0.3,0.2-0.6,0.6-1,1
				c-0.3,0.4-0.6,1-0.9,1.6c-0.3,0.6-0.5,1.3-0.6,2.1c-0.2,0.8-0.2,1.6-0.2,2.6c0,1,0.1,2,0.4,3c0.2,0.9,0.6,1.8,1,2.5
				c0.4,0.7,0.9,1.3,1.4,1.6l-0.2,0.6c-0.6-0.4-1.2-1-1.7-1.8c-0.5-0.8-0.9-1.8-1.2-2.8C195.5,309,195.4,307.9,195.4,306.7z"/>
			<path class="st1" d="M205.4,311.1c-0.1-0.3-0.1-0.6-0.2-1.1c-0.3,0.4-0.7,0.7-1.2,0.9s-1,0.3-1.5,0.3c-0.8,0-1.4-0.2-1.9-0.6
				c-0.5-0.4-0.7-1-0.7-1.6c0-0.8,0.3-1.4,1-1.8c0.6-0.5,1.5-0.7,2.7-0.7h1.6v-0.9c0-0.6-0.2-1-0.5-1.3c-0.4-0.3-0.9-0.5-1.5-0.5
				c-0.6,0-1.1,0.2-1.5,0.5c-0.4,0.3-0.6,0.7-0.6,1.1l-0.9,0c0-0.6,0.3-1.2,0.9-1.6c0.6-0.5,1.3-0.7,2.2-0.7c0.9,0,1.6,0.2,2.1,0.7
				s0.8,1.1,0.8,1.9v3.8c0,0.8,0.1,1.4,0.2,1.7v0.1H205.4z M202.6,310.4c0.6,0,1.1-0.1,1.6-0.4c0.5-0.3,0.8-0.7,1-1.1v-1.8h-1.6
				c-0.9,0-1.6,0.2-2.1,0.5c-0.5,0.3-0.7,0.7-0.7,1.3c0,0.4,0.2,0.8,0.5,1.1C201.6,310.3,202.1,310.4,202.6,310.4z"/>
			<path class="st1" d="M211.4,310.5c0.6,0,1.1-0.2,1.5-0.5c0.4-0.3,0.6-0.8,0.7-1.3h0.8c0,0.5-0.2,0.9-0.5,1.3
				c-0.3,0.4-0.7,0.7-1.1,0.9c-0.5,0.2-1,0.3-1.5,0.3c-1,0-1.9-0.4-2.5-1.1c-0.6-0.7-0.9-1.7-0.9-2.9v-0.3c0-0.8,0.1-1.5,0.4-2.1
				c0.3-0.6,0.7-1.1,1.2-1.4c0.5-0.3,1.1-0.5,1.8-0.5c0.9,0,1.6,0.3,2.2,0.8c0.6,0.5,0.9,1.2,0.9,2.1h-0.8c0-0.6-0.3-1.1-0.7-1.5
				c-0.4-0.4-0.9-0.6-1.6-0.6c-0.8,0-1.4,0.3-1.9,0.9c-0.4,0.6-0.7,1.4-0.7,2.4v0.3c0,1,0.2,1.8,0.7,2.4
				C210,310.2,210.6,310.5,211.4,310.5z"/>
			<path class="st1" d="M219.2,310.5c0.6,0,1.1-0.2,1.5-0.5c0.4-0.3,0.6-0.8,0.7-1.3h0.8c0,0.5-0.2,0.9-0.5,1.3
				c-0.3,0.4-0.7,0.7-1.1,0.9c-0.5,0.2-1,0.3-1.5,0.3c-1,0-1.9-0.4-2.5-1.1c-0.6-0.7-0.9-1.7-0.9-2.9v-0.3c0-0.8,0.1-1.5,0.4-2.1
				c0.3-0.6,0.7-1.1,1.2-1.4c0.5-0.3,1.1-0.5,1.8-0.5c0.9,0,1.6,0.3,2.2,0.8c0.6,0.5,0.9,1.2,0.9,2.1h-0.8c0-0.6-0.3-1.1-0.7-1.5
				c-0.4-0.4-0.9-0.6-1.6-0.6c-0.8,0-1.4,0.3-1.9,0.9c-0.4,0.6-0.7,1.4-0.7,2.4v0.3c0,1,0.2,1.8,0.7,2.4
				C217.8,310.2,218.4,310.5,219.2,310.5z"/>
			<path class="st1" d="M227.1,311.2c-0.7,0-1.3-0.2-1.8-0.5c-0.5-0.3-1-0.8-1.3-1.4s-0.5-1.3-0.5-2V307c0-0.8,0.1-1.5,0.4-2.1
				c0.3-0.6,0.7-1.1,1.2-1.5s1.1-0.5,1.7-0.5c1,0,1.7,0.3,2.3,1c0.6,0.7,0.9,1.6,0.9,2.7v0.5h-5.7v0.2c0,0.9,0.3,1.7,0.8,2.3
				s1.2,0.9,2,0.9c0.5,0,0.9-0.1,1.3-0.3c0.4-0.2,0.7-0.4,1-0.8l0.6,0.4C229.3,310.8,228.3,311.2,227.1,311.2z M226.9,303.7
				c-0.7,0-1.2,0.2-1.7,0.7c-0.5,0.5-0.7,1.1-0.8,2h4.8v-0.1c0-0.8-0.2-1.4-0.7-1.9C228.1,303.9,227.6,303.7,226.9,303.7z"/>
			<path class="st1" d="M232.8,311.1h-0.9v-11.3h0.9V311.1z"/>
			<path class="st1" d="M238.3,311.2c-0.7,0-1.3-0.2-1.8-0.5c-0.5-0.3-1-0.8-1.3-1.4s-0.5-1.3-0.5-2V307c0-0.8,0.1-1.5,0.4-2.1
				c0.3-0.6,0.7-1.1,1.2-1.5s1.1-0.5,1.7-0.5c1,0,1.7,0.3,2.3,1c0.6,0.7,0.9,1.6,0.9,2.7v0.5h-5.7v0.2c0,0.9,0.3,1.7,0.8,2.3
				s1.2,0.9,2,0.9c0.5,0,0.9-0.1,1.3-0.3c0.4-0.2,0.7-0.4,1-0.8l0.6,0.4C240.5,310.8,239.5,311.2,238.3,311.2z M238.1,303.7
				c-0.7,0-1.2,0.2-1.7,0.7c-0.5,0.5-0.7,1.1-0.8,2h4.8v-0.1c0-0.8-0.2-1.4-0.7-1.9C239.3,303.9,238.8,303.7,238.1,303.7z"/>
			<path class="st1" d="M246.7,303.9c-0.2,0-0.4-0.1-0.6-0.1c-0.6,0-1,0.2-1.4,0.5s-0.7,0.8-0.8,1.3v5.5H243v-8h0.9l0,1.3
				c0.5-0.9,1.2-1.4,2.3-1.4c0.2,0,0.4,0,0.6,0.1L246.7,303.9z"/>
			<path class="st1" d="M247.5,307c0-0.8,0.1-1.5,0.4-2.1c0.3-0.6,0.7-1.1,1.3-1.4s1.2-0.5,1.8-0.5c1.1,0,1.9,0.4,2.6,1.1
				c0.7,0.7,1,1.7,1,3v0.2c0,0.8-0.1,1.5-0.4,2.1c-0.3,0.6-0.7,1.1-1.3,1.4c-0.5,0.3-1.2,0.5-1.9,0.5c-1.1,0-1.9-0.4-2.6-1.1
				c-0.7-0.7-1-1.7-1-3V307z M248.3,307.2c0,1,0.2,1.7,0.7,2.4c0.5,0.6,1.1,0.9,1.9,0.9c0.8,0,1.4-0.3,1.9-0.9
				c0.5-0.6,0.7-1.4,0.7-2.4V307c0-0.6-0.1-1.2-0.3-1.7c-0.2-0.5-0.5-0.9-1-1.2c-0.4-0.3-0.9-0.4-1.4-0.4c-0.8,0-1.4,0.3-1.9,0.9
				c-0.5,0.6-0.7,1.4-0.7,2.4V307.2z"/>
			<path class="st1" d="M257.2,303.1l0,1.3c0.3-0.5,0.7-0.8,1.1-1.1c0.4-0.2,0.9-0.4,1.5-0.4c1.3,0,2.1,0.5,2.4,1.5
				c0.3-0.5,0.7-0.9,1.1-1.1c0.5-0.3,1-0.4,1.6-0.4c1.7,0,2.6,0.9,2.6,2.8v5.3h-0.9v-5.3c0-0.7-0.2-1.2-0.5-1.6
				c-0.3-0.3-0.8-0.5-1.5-0.5c-0.6,0-1.2,0.2-1.6,0.6c-0.4,0.4-0.7,0.9-0.7,1.5v5.3h-0.9v-5.3c0-0.7-0.2-1.2-0.5-1.5
				s-0.8-0.5-1.5-0.5c-0.6,0-1,0.2-1.4,0.5s-0.7,0.8-0.9,1.4v5.5h-0.9v-8H257.2z"/>
			<path class="st1" d="M272.9,311.2c-0.7,0-1.3-0.2-1.8-0.5c-0.5-0.3-1-0.8-1.3-1.4s-0.5-1.3-0.5-2V307c0-0.8,0.1-1.5,0.4-2.1
				c0.3-0.6,0.7-1.1,1.2-1.5s1.1-0.5,1.7-0.5c1,0,1.7,0.3,2.3,1c0.6,0.7,0.9,1.6,0.9,2.7v0.5h-5.7v0.2c0,0.9,0.3,1.7,0.8,2.3
				s1.2,0.9,2,0.9c0.5,0,0.9-0.1,1.3-0.3c0.4-0.2,0.7-0.4,1-0.8l0.6,0.4C275.1,310.8,274.1,311.2,272.9,311.2z M272.7,303.7
				c-0.7,0-1.2,0.2-1.7,0.7c-0.5,0.5-0.7,1.1-0.8,2h4.8v-0.1c0-0.8-0.2-1.4-0.7-1.9C273.9,303.9,273.4,303.7,272.7,303.7z"/>
			<path class="st1" d="M279,301.1v2h1.7v0.7H279v5.3c0,0.4,0.1,0.8,0.2,1c0.2,0.2,0.4,0.3,0.8,0.3c0.1,0,0.4,0,0.7-0.1l0,0.7
				c-0.2,0.1-0.5,0.1-0.9,0.1c-0.6,0-1-0.2-1.3-0.5c-0.3-0.4-0.4-0.9-0.4-1.6v-5.3h-1.5v-0.7h1.5v-2H279z"/>
			<path class="st1" d="M285.6,311.2c-0.7,0-1.3-0.2-1.8-0.5c-0.5-0.3-1-0.8-1.3-1.4s-0.5-1.3-0.5-2V307c0-0.8,0.1-1.5,0.4-2.1
				c0.3-0.6,0.7-1.1,1.2-1.5s1.1-0.5,1.7-0.5c1,0,1.7,0.3,2.3,1c0.6,0.7,0.9,1.6,0.9,2.7v0.5h-5.7v0.2c0,0.9,0.3,1.7,0.8,2.3
				s1.2,0.9,2,0.9c0.5,0,0.9-0.1,1.3-0.3c0.4-0.2,0.7-0.4,1-0.8l0.6,0.4C287.7,310.8,286.8,311.2,285.6,311.2z M285.4,303.7
				c-0.7,0-1.2,0.2-1.7,0.7c-0.5,0.5-0.7,1.1-0.8,2h4.8v-0.1c0-0.8-0.2-1.4-0.7-1.9C286.6,303.9,286.1,303.7,285.4,303.7z"/>
			<path class="st1" d="M294,303.9c-0.2,0-0.4-0.1-0.6-0.1c-0.6,0-1,0.2-1.4,0.5s-0.7,0.8-0.8,1.3v5.5h-0.9v-8h0.9l0,1.3
				c0.5-0.9,1.2-1.4,2.3-1.4c0.2,0,0.4,0,0.6,0.1L294,303.9z"/>
			<path class="st1" d="M305.6,311.1h-6.7v-0.7l3.7-4.2c0.6-0.7,1-1.3,1.3-1.7c0.2-0.5,0.4-0.9,0.4-1.3c0-0.7-0.2-1.2-0.6-1.6
				c-0.4-0.4-0.9-0.6-1.6-0.6c-0.7,0-1.3,0.2-1.8,0.7c-0.4,0.5-0.7,1.1-0.7,1.8h-0.9c0-0.6,0.1-1.2,0.4-1.7c0.3-0.5,0.7-0.9,1.2-1.2
				c0.5-0.3,1.1-0.4,1.7-0.4c1,0,1.8,0.3,2.3,0.8c0.6,0.5,0.8,1.2,0.8,2.1c0,0.5-0.2,1.1-0.5,1.6c-0.3,0.6-0.9,1.3-1.6,2.2l-3,3.4
				h5.6V311.1z"/>
			<path class="st1" d="M310.1,306.9c0,1.1-0.1,2.1-0.4,3.1c-0.3,1-0.7,1.9-1.2,2.7s-1.1,1.4-1.7,1.8l-0.2-0.6
				c0.5-0.3,0.9-0.9,1.3-1.6c0.4-0.7,0.7-1.6,1-2.5c0.2-1,0.4-2,0.4-3.1c0-1-0.1-2-0.4-2.9c-0.2-0.9-0.6-1.8-1-2.5
				c-0.4-0.7-0.9-1.3-1.3-1.6l0.2-0.6c0.6,0.4,1.2,1,1.7,1.8c0.5,0.8,0.9,1.8,1.2,2.8S310.1,305.7,310.1,306.9z"/>
			<path class="st1" d="M187.7,319.2H184v10h-0.9v-10h-3.7v-0.8h8.3V319.2z"/>
			<path class="st1" d="M195.8,329.2h-6.7v-0.7l3.7-4.2c0.6-0.7,1-1.3,1.3-1.7c0.2-0.5,0.4-0.9,0.4-1.3c0-0.7-0.2-1.2-0.6-1.6
				c-0.4-0.4-0.9-0.6-1.6-0.6c-0.7,0-1.3,0.2-1.8,0.7c-0.4,0.5-0.7,1.1-0.7,1.8h-0.9c0-0.6,0.1-1.2,0.4-1.7c0.3-0.5,0.7-0.9,1.2-1.2
				c0.5-0.3,1.1-0.4,1.7-0.4c1,0,1.8,0.3,2.3,0.8c0.6,0.5,0.8,1.2,0.8,2.1c0,0.5-0.2,1.1-0.5,1.6c-0.3,0.6-0.9,1.3-1.6,2.2l-3,3.4
				h5.6V329.2z"/>
			<path class="st1" d="M201.2,324.9c0-1.1,0.1-2.1,0.4-3.1c0.3-1,0.7-1.9,1.2-2.8s1.1-1.4,1.7-1.8l0.2,0.6c-0.3,0.2-0.6,0.6-1,1
				c-0.3,0.4-0.6,1-0.9,1.6c-0.3,0.6-0.5,1.3-0.6,2.1c-0.2,0.8-0.2,1.6-0.2,2.6c0,1,0.1,2,0.4,3c0.2,0.9,0.6,1.8,1,2.5
				c0.4,0.7,0.9,1.3,1.4,1.6l-0.2,0.6c-0.6-0.4-1.2-1-1.7-1.8c-0.5-0.8-0.9-1.8-1.2-2.8C201.3,327.1,201.2,326,201.2,324.9z"/>
			<path class="st1" d="M207.5,319.2v2h1.7v0.7h-1.7v5.3c0,0.4,0.1,0.8,0.2,1c0.2,0.2,0.4,0.3,0.8,0.3c0.1,0,0.4,0,0.7-0.1l0,0.7
				c-0.2,0.1-0.5,0.1-0.9,0.1c-0.6,0-1-0.2-1.3-0.5c-0.3-0.4-0.4-0.9-0.4-1.6V322h-1.5v-0.7h1.5v-2H207.5z"/>
			<path class="st1" d="M210.9,318.9c0-0.2,0.1-0.3,0.2-0.4c0.1-0.1,0.3-0.2,0.4-0.2s0.3,0.1,0.4,0.2c0.1,0.1,0.2,0.3,0.2,0.4
				s-0.1,0.3-0.2,0.4c-0.1,0.1-0.3,0.2-0.4,0.2s-0.3-0.1-0.4-0.2C211,319.2,210.9,319.1,210.9,318.9z M212,329.2h-0.9v-8h0.9V329.2z
				"/>
			<path class="st1" d="M215.2,321.2l0,1.3c0.3-0.5,0.7-0.8,1.1-1.1c0.4-0.2,0.9-0.4,1.5-0.4c1.3,0,2.1,0.5,2.4,1.5
				c0.3-0.5,0.7-0.9,1.1-1.1c0.5-0.3,1-0.4,1.6-0.4c1.7,0,2.6,0.9,2.6,2.8v5.3h-0.9V324c0-0.7-0.2-1.2-0.5-1.6
				c-0.3-0.3-0.8-0.5-1.5-0.5c-0.6,0-1.2,0.2-1.6,0.6c-0.4,0.4-0.7,0.9-0.7,1.5v5.3h-0.9v-5.3c0-0.7-0.2-1.2-0.5-1.5
				s-0.8-0.5-1.5-0.5c-0.6,0-1,0.2-1.4,0.5s-0.7,0.8-0.9,1.4v5.5h-0.9v-8H215.2z"/>
			<path class="st1" d="M230.8,329.4c-0.7,0-1.3-0.2-1.8-0.5c-0.5-0.3-1-0.8-1.3-1.4s-0.5-1.3-0.5-2v-0.3c0-0.8,0.1-1.5,0.4-2.1
				c0.3-0.6,0.7-1.1,1.2-1.5s1.1-0.5,1.7-0.5c1,0,1.7,0.3,2.3,1c0.6,0.7,0.9,1.6,0.9,2.7v0.5h-5.7v0.2c0,0.9,0.3,1.7,0.8,2.3
				s1.2,0.9,2,0.9c0.5,0,0.9-0.1,1.3-0.3c0.4-0.2,0.7-0.4,1-0.8l0.6,0.4C233,328.9,232.1,329.4,230.8,329.4z M230.7,321.8
				c-0.7,0-1.2,0.2-1.7,0.7c-0.5,0.5-0.7,1.1-0.8,2h4.8v-0.1c0-0.8-0.2-1.4-0.7-1.9C231.9,322.1,231.3,321.8,230.7,321.8z"/>
			<path class="st1" d="M239.2,318.9c0-0.2,0.1-0.3,0.2-0.4c0.1-0.1,0.3-0.2,0.4-0.2s0.3,0.1,0.4,0.2c0.1,0.1,0.2,0.3,0.2,0.4
				s-0.1,0.3-0.2,0.4c-0.1,0.1-0.3,0.2-0.4,0.2s-0.3-0.1-0.4-0.2C239.2,319.2,239.2,319.1,239.2,318.9z M240.2,329.2h-0.9v-8h0.9
				V329.2z"/>
			<path class="st1" d="M243.5,321.2l0,1.4c0.3-0.5,0.7-0.9,1.1-1.1c0.4-0.3,0.9-0.4,1.5-0.4c0.9,0,1.5,0.2,1.9,0.7
				c0.4,0.5,0.6,1.2,0.6,2.2v5.2h-0.9V324c0-0.7-0.2-1.2-0.5-1.6c-0.3-0.3-0.8-0.5-1.4-0.5c-0.5,0-1,0.2-1.5,0.5
				c-0.4,0.3-0.7,0.8-0.9,1.4v5.5h-0.9v-8H243.5z"/>
			<path class="st1" d="M255.4,321.2l0,1.3c0.3-0.5,0.7-0.8,1.1-1.1c0.4-0.2,0.9-0.4,1.5-0.4c1.3,0,2.1,0.5,2.4,1.5
				c0.3-0.5,0.7-0.9,1.1-1.1c0.5-0.3,1-0.4,1.6-0.4c1.7,0,2.6,0.9,2.6,2.8v5.3h-0.9V324c0-0.7-0.2-1.2-0.5-1.6
				c-0.3-0.3-0.8-0.5-1.5-0.5c-0.6,0-1.2,0.2-1.6,0.6c-0.4,0.4-0.7,0.9-0.7,1.5v5.3h-0.9v-5.3c0-0.7-0.2-1.2-0.5-1.5
				s-0.8-0.5-1.5-0.5c-0.6,0-1,0.2-1.4,0.5s-0.7,0.8-0.9,1.4v5.5h-0.9v-8H255.4z"/>
			<path class="st1" d="M267.9,318.9c0-0.2,0.1-0.3,0.2-0.4c0.1-0.1,0.3-0.2,0.4-0.2s0.3,0.1,0.4,0.2c0.1,0.1,0.2,0.3,0.2,0.4
				s-0.1,0.3-0.2,0.4c-0.1,0.1-0.3,0.2-0.4,0.2s-0.3-0.1-0.4-0.2C268,319.2,267.9,319.1,267.9,318.9z M269,329.2h-0.9v-8h0.9V329.2z
				"/>
			<path class="st1" d="M272.4,329.2h-0.9v-11.3h0.9V329.2z"/>
			<path class="st1" d="M275.7,329.2h-0.9v-11.3h0.9V329.2z"/>
			<path class="st1" d="M278.1,318.9c0-0.2,0.1-0.3,0.2-0.4c0.1-0.1,0.3-0.2,0.4-0.2s0.3,0.1,0.4,0.2c0.1,0.1,0.2,0.3,0.2,0.4
				s-0.1,0.3-0.2,0.4c-0.1,0.1-0.3,0.2-0.4,0.2s-0.3-0.1-0.4-0.2C278.1,319.2,278.1,319.1,278.1,318.9z M279.1,329.2h-0.9v-8h0.9
				V329.2z"/>
			<path class="st1" d="M286.3,327.2c0-0.4-0.2-0.8-0.5-1.1c-0.4-0.3-0.9-0.5-1.6-0.6c-0.7-0.2-1.3-0.3-1.6-0.5s-0.7-0.4-0.9-0.7
				c-0.2-0.3-0.3-0.6-0.3-1c0-0.6,0.3-1.2,0.8-1.6c0.5-0.4,1.2-0.6,2-0.6c0.9,0,1.6,0.2,2.1,0.7c0.5,0.4,0.8,1,0.8,1.7h-0.9
				c0-0.5-0.2-0.9-0.6-1.2c-0.4-0.3-0.9-0.5-1.5-0.5c-0.6,0-1,0.1-1.4,0.4c-0.4,0.3-0.5,0.6-0.5,1c0,0.4,0.1,0.7,0.4,0.9
				c0.3,0.2,0.8,0.4,1.6,0.6c0.8,0.2,1.4,0.4,1.7,0.6c0.4,0.2,0.7,0.5,0.9,0.7c0.2,0.3,0.3,0.6,0.3,1.1c0,0.7-0.3,1.2-0.8,1.6
				c-0.5,0.4-1.3,0.6-2.1,0.6c-0.9,0-1.7-0.2-2.3-0.7s-0.9-1-0.9-1.7h0.9c0,0.5,0.3,0.9,0.7,1.2c0.4,0.3,0.9,0.4,1.6,0.4
				c0.6,0,1.1-0.1,1.5-0.4C286.1,327.9,286.3,327.6,286.3,327.2z"/>
			<path class="st1" d="M299.5,329.2h-6.7v-0.7l3.7-4.2c0.6-0.7,1-1.3,1.3-1.7c0.2-0.5,0.4-0.9,0.4-1.3c0-0.7-0.2-1.2-0.6-1.6
				c-0.4-0.4-0.9-0.6-1.6-0.6c-0.7,0-1.3,0.2-1.8,0.7c-0.4,0.5-0.7,1.1-0.7,1.8h-0.9c0-0.6,0.1-1.2,0.4-1.7c0.3-0.5,0.7-0.9,1.2-1.2
				c0.5-0.3,1.1-0.4,1.7-0.4c1,0,1.8,0.3,2.3,0.8c0.6,0.5,0.8,1.2,0.8,2.1c0,0.5-0.2,1.1-0.5,1.6c-0.3,0.6-0.9,1.3-1.6,2.2l-3,3.4
				h5.6V329.2z"/>
			<path class="st1" d="M303.9,325c0,1.1-0.1,2.1-0.4,3.1c-0.3,1-0.7,1.9-1.2,2.7s-1.1,1.4-1.7,1.8l-0.2-0.6
				c0.5-0.3,0.9-0.9,1.3-1.6c0.4-0.7,0.7-1.6,1-2.5c0.2-1,0.4-2,0.4-3.1c0-1-0.1-2-0.4-2.9c-0.2-0.9-0.6-1.8-1-2.5
				c-0.4-0.7-0.9-1.3-1.3-1.6l0.2-0.6c0.6,0.4,1.2,1,1.7,1.8c0.5,0.8,0.9,1.8,1.2,2.8S303.9,323.9,303.9,325z"/>
		</g>
	</g>
	<polygon points="578.3,317.2 564.6,325.1 564.6,309.2 	"/>
	<circle cx="126" cy="317.2" r="2"/>
	<line class="st11" x1="126" y1="317.2" x2="170.5" y2="317.2"/>
	<line class="st11" x1="317.8" y1="317.2" x2="569.9" y2="317.2"/>
</g>
</svg>
