<?xml version="1.0" encoding="utf-8"?>
<!-- Generator: Adobe Illustrator 22.0.1, SVG Export Plug-In . SVG Version: 6.00 Build 0)  -->
<svg version="1.1" id="Слой_1" xmlns="http://www.w3.org/2000/svg" xmlns:xlink="http://www.w3.org/1999/xlink" x="0px" y="0px"
	 viewBox="0 0 880.1 361.4" style="enable-background:new 0 0 880.1 361.4;" xml:space="preserve">
<style type="text/css">
	.st0{fill:#F2F3F4;}
	.st1{fill:#676768;}
	.st2{fill:#FF9D46;}
	.st3{fill:#FF5F65;}
	.st4{fill:#E8836B;}
	.st5{fill:#CA4E4B;}
	.st6{fill:#4F4145;}
	.st7{fill:none;stroke:#563D40;stroke-width:0.2;stroke-miterlimit:10;}
	.st8{fill:none;stroke:#CA4E4B;stroke-width:0.3;stroke-miterlimit:10;}
	.st9{fill:#0088D0;}
	.st10{fill:#1A1A1A;}
	.st11{fill:none;stroke:#000000;stroke-width:0.2;stroke-miterlimit:10;}
	.st12{fill:none;}
	.st13{font-family:'NotoSansCJKkr-Regular-KSCpc-EUC-H';}
	.st14{font-size:18px;}
	.st15{font-size:15px;}
</style>
<g>
	<rect x="569.9" y="22.3" class="st0" width="301.4" height="66.7"/>
</g>
<g>
	<rect x="569.9" y="89.2" class="st0" width="301.4" height="253.9"/>
</g>
<g>
	<g>
		<path class="st1" d="M609.8,170.1v-14.3h4c1.2,0,2.2,0.3,3.2,0.8s1.7,1.3,2.2,2.3s0.8,2.1,0.8,3.4v1.3c0,1.3-0.3,2.4-0.8,3.4
			s-1.2,1.8-2.2,2.3c-0.9,0.5-2,0.8-3.2,0.8H609.8z M611,156.8v12.3h2.7c1.5,0,2.7-0.5,3.6-1.5c0.9-1,1.4-2.4,1.4-4.1v-1.3
			c0-1.6-0.4-3-1.3-4c-0.9-1-2.1-1.5-3.6-1.5H611V156.8z"/>
		<path class="st1" d="M628,170.1h-1.2v-12.9l-3.9,1.4v-1.1l4.9-1.8h0.2V170.1z"/>
		<path class="st1" d="M642,162h-8.2v-1h8.2V162z M642,166h-8.2v-1h8.2V166z"/>
		<path class="st1" d="M644.8,164.3c0-1.4,0.2-2.8,0.6-4.2c0.4-1.3,0.9-2.6,1.6-3.7c0.7-1.1,1.5-1.9,2.3-2.4l0.3,0.8
			c-0.4,0.3-0.9,0.8-1.3,1.3s-0.8,1.3-1.1,2.1s-0.6,1.7-0.8,2.7s-0.3,2.2-0.3,3.4c0,1.4,0.2,2.7,0.5,4s0.7,2.4,1.3,3.4
			c0.5,1,1.1,1.7,1.8,2.2l-0.3,0.8c-0.8-0.5-1.6-1.3-2.3-2.4s-1.2-2.3-1.6-3.7C645,167.3,644.8,165.9,644.8,164.3z"/>
		<path class="st1" d="M661.4,156.8h-4.9v13.3h-1.2v-13.3h-4.9v-1h11L661.4,156.8L661.4,156.8z"/>
		<path class="st1" d="M668.7,170.1h-1.2v-12.9l-3.9,1.4v-1.1l4.9-1.8h0.2V170.1z"/>
		<path class="st1" d="M679.3,162.8h4.4v1.1h-4.4v4.7h-1.2v-4.7h-4.3v-1.1h4.3v-4.6h1.2V162.8z"/>
		<path class="st1" d="M694,166.1h-6.5l-1.5,4h-1.3l5.4-14.3h1.2l5.4,14.3h-1.3L694,166.1z M687.9,165.1h5.7l-2.9-7.8L687.9,165.1z"
			/>
		<path class="st1" d="M703.9,170.1h-1.2v-12.9l-3.9,1.4v-1.1l4.9-1.8h0.2V170.1z"/>
		<path class="st1" d="M714.4,162.8h4.4v1.1h-4.4v4.7h-1.2v-4.7h-4.3v-1.1h4.3v-4.6h1.2V162.8z"/>
		<path class="st1" d="M731.1,156.8h-4.9v13.3H725v-13.3h-4.9v-1h11V156.8z"/>
		<path class="st1" d="M741.9,170.1h-9v-0.9l4.9-5.6c0.8-0.9,1.4-1.7,1.7-2.3s0.5-1.2,0.5-1.8c0-0.9-0.3-1.6-0.8-2.1
			s-1.3-0.8-2.2-0.8c-1,0-1.7,0.3-2.3,0.9c-0.6,0.6-0.9,1.4-0.9,2.4h-1.2c0-0.8,0.2-1.5,0.5-2.2s0.9-1.2,1.6-1.6
			c0.7-0.4,1.4-0.6,2.3-0.6c1.3,0,2.3,0.3,3.1,1c0.7,0.7,1.1,1.6,1.1,2.8c0,0.7-0.2,1.4-0.6,2.2c-0.4,0.8-1.1,1.8-2.2,3l-4,4.5h7.5
			L741.9,170.1L741.9,170.1z"/>
		<path class="st1" d="M747.8,164.5c0,1.4-0.2,2.8-0.5,4.2c-0.4,1.3-0.9,2.6-1.6,3.7c-0.7,1.1-1.5,1.9-2.3,2.4l-0.3-0.8
			c0.6-0.5,1.2-1.2,1.8-2.1c0.5-1,1-2.1,1.3-3.4c0.3-1.3,0.5-2.7,0.5-4.2c0-1.4-0.2-2.7-0.5-3.9c-0.3-1.3-0.7-2.4-1.3-3.4
			s-1.1-1.7-1.8-2.2l0.3-0.8c0.8,0.5,1.6,1.3,2.3,2.4c0.7,1.1,1.2,2.3,1.6,3.7C747.7,161.5,747.8,163,747.8,164.5z"/>
		<path class="st1" d="M756.9,159.5v1.7c0.4-0.6,0.9-1.1,1.5-1.4c0.6-0.3,1.2-0.5,2-0.5c1.7,0,2.7,0.7,3.2,2.1
			c0.4-0.7,0.9-1.2,1.5-1.5c0.6-0.4,1.3-0.5,2.1-0.5c2.3,0,3.4,1.2,3.5,3.7v7.1h-1.2v-7c0-1-0.2-1.7-0.6-2.1c-0.4-0.5-1.1-0.7-2-0.7
			c-0.8,0-1.6,0.3-2.1,0.8s-0.9,1.2-1,2v7h-1.2V163c0-0.9-0.2-1.6-0.6-2c-0.4-0.4-1.1-0.7-2-0.7c-0.7,0-1.4,0.2-1.9,0.6
			c-0.5,0.4-0.9,1.1-1.2,1.9v7.3h-1.2v-10.6H756.9z"/>
		<path class="st1" d="M773,164.6c0-1,0.2-1.9,0.6-2.8c0.4-0.8,1-1.5,1.7-1.9s1.5-0.7,2.5-0.7c1.4,0,2.6,0.5,3.4,1.5s1.3,2.3,1.3,4
			v0.2c0,1-0.2,2-0.6,2.8c-0.4,0.8-1,1.5-1.7,1.9s-1.5,0.7-2.5,0.7c-1.4,0-2.6-0.5-3.4-1.5c-0.9-1-1.3-2.3-1.3-4V164.6z M774.2,165
			c0,1.3,0.3,2.3,1,3.1s1.5,1.2,2.6,1.2s1.9-0.4,2.6-1.2c0.7-0.8,1-1.9,1-3.2v-0.2c0-0.8-0.2-1.6-0.5-2.2c-0.3-0.7-0.7-1.2-1.3-1.6
			c-0.5-0.4-1.2-0.6-1.9-0.6c-1,0-1.9,0.4-2.6,1.2c-0.7,0.8-1,1.9-1,3.2v0.3H774.2z"/>
		<path class="st1" d="M784.5,164.7c0-1.7,0.4-3,1.1-4c0.7-1,1.7-1.5,3-1.5c1.4,0,2.5,0.6,3.3,1.7v-6h1.2V170H792v-1.4
			c-0.8,1.1-1.9,1.6-3.3,1.6c-1.2,0-2.2-0.5-3-1.5s-1.1-2.3-1.1-4v0H784.5z M785.6,164.9c0,1.4,0.3,2.4,0.8,3.2s1.3,1.2,2.3,1.2
			c1.5,0,2.5-0.6,3.1-1.9v-5c-0.6-1.4-1.6-2.1-3.1-2.1c-1,0-1.8,0.4-2.3,1.2C785.9,162.3,785.6,163.4,785.6,164.9z"/>
		<path class="st1" d="M807.8,155.7v1h-0.1c-1.7,0-3.1,0.5-4,1.5c-1,1-1.5,2.4-1.6,4.2c0.4-0.5,0.9-1,1.5-1.3s1.3-0.4,2-0.4
			c1.3,0,2.3,0.4,3,1.3c0.7,0.9,1.1,2,1.1,3.4c0,0.9-0.2,1.8-0.5,2.5s-0.8,1.3-1.5,1.7c-0.6,0.4-1.4,0.6-2.2,0.6
			c-1.4,0-2.5-0.5-3.3-1.5s-1.3-2.3-1.3-3.9v-1.2c0-2.6,0.6-4.6,1.8-6s2.8-2.1,5-2.1h0.1V155.7z M805.3,161.7
			c-0.7,0-1.4,0.2-2.1,0.7c-0.6,0.4-1.1,1-1.3,1.7v1c0,1.2,0.3,2.3,1,3s1.5,1.2,2.5,1.2c0.9,0,1.7-0.4,2.2-1.1
			c0.6-0.7,0.9-1.6,0.9-2.8c0-1.1-0.3-2-0.9-2.7C807.1,162.1,806.3,161.7,805.3,161.7z"/>
		<path class="st1" d="M816.9,162.8h4.4v1.1h-4.4v4.7h-1.2v-4.7h-4.3v-1.1h4.3v-4.6h1.2V162.8z"/>
		<path class="st1" d="M828.9,170.1h-1.2v-12.9l-3.9,1.4v-1.1l4.9-1.8h0.2V170.1z"/>
		<path class="st1" d="M609.5,200.4V186h4c1.2,0,2.2,0.3,3.2,0.8s1.7,1.3,2.2,2.3s0.8,2.1,0.8,3.4v1.3c0,1.3-0.3,2.4-0.8,3.4
			s-1.2,1.8-2.2,2.3s-2,0.8-3.2,0.8L609.5,200.4L609.5,200.4z M610.7,187.1v12.3h2.7c1.5,0,2.7-0.5,3.6-1.5c0.9-1,1.4-2.4,1.4-4.1
			v-1.3c0-1.6-0.4-3-1.3-4c-0.9-1-2.1-1.5-3.6-1.5h-2.8V187.1z"/>
		<path class="st1" d="M631.2,200.4h-9v-0.9l4.9-5.6c0.8-0.9,1.4-1.7,1.7-2.3s0.5-1.2,0.5-1.8c0-0.9-0.3-1.6-0.8-2.2
			c-0.5-0.5-1.3-0.8-2.2-0.8c-1,0-1.7,0.3-2.3,0.9c-0.6,0.6-0.9,1.4-0.9,2.4h-1.2c0-0.8,0.2-1.5,0.5-2.2c0.4-0.7,0.9-1.2,1.6-1.6
			c0.7-0.4,1.4-0.6,2.3-0.6c1.3,0,2.3,0.3,3.1,1s1.1,1.6,1.1,2.8c0,0.7-0.2,1.4-0.6,2.2s-1.1,1.8-2.2,3l-4,4.5h7.5L631.2,200.4
			L631.2,200.4z"/>
		<path class="st1" d="M641.7,192.2h-8.2v-1h8.2V192.2z M641.7,196.2h-8.2v-1h8.2V196.2z"/>
		<path class="st1" d="M644.6,194.6c0-1.4,0.2-2.8,0.6-4.2c0.4-1.3,0.9-2.6,1.6-3.7c0.7-1.1,1.5-1.9,2.3-2.4l0.3,0.8
			c-0.4,0.3-0.9,0.8-1.3,1.3c-0.4,0.6-0.8,1.3-1.1,2.1s-0.6,1.7-0.8,2.7s-0.3,2.2-0.3,3.4c0,1.4,0.2,2.7,0.5,4s0.7,2.4,1.3,3.4
			s1.1,1.7,1.8,2.2L649,205c-0.8-0.5-1.6-1.3-2.3-2.4s-1.2-2.3-1.6-3.7C644.7,197.6,644.6,196.1,644.6,194.6z"/>
		<path class="st1" d="M661.1,187.1h-4.9v13.3H655v-13.3h-4.9v-1h11V187.1z"/>
		<path class="st1" d="M668.5,200.4h-1.2v-12.9l-3.9,1.4v-1.1l4.9-1.8h0.2V200.4z"/>
		<path class="st1" d="M679,193.1h4.4v1.1H679v4.7h-1.2v-4.7h-4.3v-1.1h4.3v-4.6h1.2V193.1z"/>
		<path class="st1" d="M693.7,196.3h-6.5l-1.5,4h-1.3l5.4-14.3h1.2l5.4,14.3h-1.3L693.7,196.3z M687.6,195.3h5.7l-2.9-7.8
			L687.6,195.3z"/>
		<path class="st1" d="M703.6,200.4h-1.2v-12.9l-3.9,1.4v-1.1l4.9-1.8h0.2V200.4z"/>
		<path class="st1" d="M714.1,193.1h4.4v1.1h-4.4v4.7h-1.2v-4.7h-4.3v-1.1h4.3v-4.6h1.2V193.1z"/>
		<path class="st1" d="M728.9,196.3h-6.5l-1.5,4h-1.3L725,186h1.2l5.4,14.3h-1.3L728.9,196.3z M722.7,195.3h5.7l-2.9-7.8
			L722.7,195.3z"/>
		<path class="st1" d="M742.2,200.4h-9v-0.9l4.9-5.6c0.8-0.9,1.4-1.7,1.7-2.3s0.5-1.2,0.5-1.8c0-0.9-0.3-1.6-0.8-2.2
			s-1.3-0.8-2.2-0.8c-1,0-1.7,0.3-2.3,0.9c-0.6,0.6-0.9,1.4-0.9,2.4h-1.2c0-0.8,0.2-1.5,0.5-2.2c0.4-0.7,0.9-1.2,1.6-1.6
			c0.7-0.4,1.4-0.6,2.3-0.6c1.3,0,2.3,0.3,3.1,1c0.7,0.7,1.1,1.6,1.1,2.8c0,0.7-0.2,1.4-0.6,2.2c-0.4,0.8-1.1,1.8-2.2,3l-4,4.5h7.5
			L742.2,200.4L742.2,200.4z"/>
		<path class="st1" d="M748.1,194.7c0,1.4-0.2,2.8-0.5,4.2s-0.9,2.6-1.6,3.7c-0.7,1.1-1.5,1.9-2.3,2.4l-0.3-0.8
			c0.6-0.5,1.2-1.2,1.8-2.1c0.5-1,1-2.1,1.3-3.4c0.3-1.3,0.5-2.7,0.5-4.2c0-1.4-0.2-2.7-0.5-3.9c-0.3-1.3-0.7-2.4-1.3-3.4
			s-1.1-1.7-1.8-2.2l0.3-0.8c0.8,0.5,1.6,1.3,2.3,2.4s1.2,2.3,1.6,3.7C747.9,191.8,748.1,193.2,748.1,194.7z"/>
		<path class="st1" d="M757.1,189.7v1.7c0.4-0.6,0.9-1.1,1.5-1.4c0.6-0.3,1.2-0.5,2-0.5c1.7,0,2.7,0.7,3.2,2.1
			c0.4-0.7,0.9-1.2,1.5-1.5c0.6-0.4,1.3-0.5,2.1-0.5c2.3,0,3.4,1.2,3.5,3.7v7.1h-1.2v-7c0-1-0.2-1.7-0.6-2.1c-0.4-0.5-1.1-0.7-2-0.7
			c-0.8,0-1.6,0.3-2.1,0.8c-0.6,0.5-0.9,1.2-1,2v7h-1.2v-7.1c0-0.9-0.2-1.6-0.6-2c-0.4-0.4-1.1-0.7-2-0.7c-0.7,0-1.4,0.2-1.9,0.6
			c-0.5,0.4-0.9,1.1-1.2,1.9v7.3H756v-10.6h1.1V189.7z"/>
		<path class="st1" d="M773.3,194.9c0-1,0.2-1.9,0.6-2.8c0.4-0.8,1-1.5,1.7-1.9s1.5-0.7,2.5-0.7c1.4,0,2.6,0.5,3.4,1.5
			s1.3,2.3,1.3,4v0.2c0,1-0.2,2-0.6,2.8c-0.4,0.8-1,1.5-1.7,1.9s-1.5,0.7-2.5,0.7c-1.4,0-2.6-0.5-3.4-1.5c-0.9-1-1.3-2.3-1.3-4
			V194.9z M774.5,195.2c0,1.3,0.3,2.3,1,3.1s1.5,1.2,2.6,1.2s1.9-0.4,2.6-1.2c0.7-0.8,1-1.9,1-3.2v-0.2c0-0.8-0.2-1.6-0.5-2.2
			s-0.7-1.2-1.3-1.6c-0.5-0.4-1.2-0.6-1.9-0.6c-1,0-1.9,0.4-2.6,1.2c-0.7,0.8-1,1.9-1,3.2v0.3H774.5z"/>
		<path class="st1" d="M784.7,194.9c0-1.7,0.4-3,1.1-4c0.7-1,1.7-1.5,3-1.5c1.4,0,2.5,0.6,3.3,1.7v-6h1.2v15.1h-1.1v-1.4
			c-0.8,1.1-1.9,1.6-3.3,1.6c-1.2,0-2.2-0.5-3-1.5s-1.1-2.3-1.1-4v0H784.7z M785.9,195.1c0,1.4,0.3,2.4,0.8,3.2s1.3,1.2,2.3,1.2
			c1.5,0,2.5-0.6,3.1-1.9v-5c-0.6-1.4-1.6-2.1-3.1-2.1c-1,0-1.8,0.4-2.3,1.2S785.9,193.6,785.9,195.1z"/>
		<path class="st1" d="M808.1,185.9v1H808c-1.7,0-3.1,0.5-4,1.5c-1,1-1.5,2.4-1.6,4.2c0.4-0.5,0.9-1,1.5-1.3s1.3-0.4,2-0.4
			c1.3,0,2.3,0.4,3,1.3c0.7,0.9,1.1,2,1.1,3.4c0,0.9-0.2,1.8-0.5,2.5s-0.8,1.3-1.5,1.7c-0.6,0.4-1.4,0.6-2.2,0.6
			c-1.4,0-2.5-0.5-3.3-1.5s-1.3-2.3-1.3-3.9v-1c0-2.6,0.6-4.6,1.8-6S805.8,185.9,808.1,185.9L808.1,185.9z M805.6,192
			c-0.7,0-1.4,0.2-2.1,0.7c-0.6,0.4-1.1,1-1.3,1.7v1c0,1.2,0.3,2.3,1,3s1.5,1.2,2.5,1.2c0.9,0,1.7-0.4,2.2-1.1
			c0.6-0.7,0.9-1.6,0.9-2.8c0-1.1-0.3-2-0.9-2.7S806.6,192,805.6,192z"/>
		<path class="st1" d="M817.1,193.1h4.4v1.1h-4.4v4.7h-1.2v-4.7h-4.3v-1.1h4.3v-4.6h1.2V193.1z"/>
		<path class="st1" d="M829.1,200.4H828v-12.9l-3.9,1.4v-1.1l4.9-1.8h0.2v14.4H829.1z"/>
		<path class="st1" d="M609.8,230.6v-14.3h4c1.2,0,2.2,0.3,3.2,0.8s1.7,1.3,2.2,2.3s0.8,2.1,0.8,3.4v1.3c0,1.3-0.3,2.4-0.8,3.4
			s-1.2,1.8-2.2,2.3s-2,0.8-3.2,0.8H609.8z M611,217.3v12.3h2.7c1.5,0,2.7-0.5,3.6-1.5c0.9-1,1.4-2.4,1.4-4.1v-1.3
			c0-1.6-0.4-3-1.3-4c-0.9-1-2.1-1.5-3.6-1.5H611V217.3z"/>
		<path class="st1" d="M625.1,222.8h1.2c0.7,0,1.3-0.1,1.8-0.4c0.5-0.2,0.9-0.6,1.2-1s0.4-0.9,0.4-1.4c0-0.9-0.3-1.6-0.8-2.2
			s-1.3-0.8-2.2-0.8s-1.7,0.3-2.3,0.8s-0.9,1.3-0.9,2.1h-1.2c0-0.7,0.2-1.4,0.6-2s0.9-1.1,1.6-1.4c0.7-0.3,1.4-0.5,2.2-0.5
			c1.3,0,2.3,0.4,3.1,1.1c0.7,0.7,1.1,1.7,1.1,2.9c0,0.7-0.2,1.3-0.7,1.9c-0.4,0.6-1,1-1.8,1.3c0.9,0.2,1.6,0.7,2,1.3
			c0.5,0.6,0.7,1.3,0.7,2.2c0,1.2-0.4,2.2-1.2,3s-1.9,1.1-3.2,1.1c-0.9,0-1.6-0.2-2.3-0.5s-1.3-0.8-1.7-1.4
			c-0.4-0.6-0.6-1.3-0.6-2.1h1.2c0,0.9,0.3,1.7,1,2.2c0.6,0.6,1.5,0.9,2.4,0.9c1,0,1.8-0.3,2.4-0.8s0.9-1.3,0.9-2.3
			s-0.3-1.7-0.9-2.2c-0.6-0.5-1.5-0.8-2.7-0.8h-1.2L625.1,222.8L625.1,222.8z"/>
		<path class="st1" d="M642,222.4h-8.2v-1h8.2V222.4z M642,226.5h-8.2v-1h8.2V226.5z"/>
		<path class="st1" d="M644.8,224.8c0-1.4,0.2-2.8,0.6-4.2c0.4-1.3,0.9-2.6,1.6-3.7c0.7-1.1,1.5-1.9,2.3-2.4l0.3,0.8
			c-0.4,0.3-0.9,0.8-1.3,1.3c-0.4,0.6-0.8,1.3-1.1,2.1s-0.6,1.7-0.8,2.7s-0.3,2.2-0.3,3.4c0,1.4,0.2,2.7,0.5,4s0.7,2.4,1.3,3.4
			s1.1,1.7,1.8,2.2l-0.3,0.8c-0.8-0.5-1.6-1.3-2.3-2.4s-1.2-2.3-1.6-3.7C645,227.8,644.8,226.3,644.8,224.8z"/>
		<path class="st1" d="M661.4,217.3h-4.9v13.3h-1.2v-13.3h-4.9v-1h11L661.4,217.3L661.4,217.3z"/>
		<path class="st1" d="M668.7,230.6h-1.2v-12.9l-3.9,1.4V218l4.9-1.8h0.2V230.6z"/>
		<path class="st1" d="M679.3,223.3h4.4v1.1h-4.4v4.7h-1.2v-4.7h-4.3v-1.1h4.3v-4.6h1.2V223.3z"/>
		<path class="st1" d="M696,217.3h-4.9v13.3h-1.2v-13.3H685v-1h11V217.3z"/>
		<path class="st1" d="M706.8,230.6h-9v-0.9l4.9-5.6c0.8-0.9,1.4-1.7,1.7-2.3s0.5-1.2,0.5-1.8c0-0.9-0.3-1.6-0.8-2.2
			s-1.3-0.8-2.2-0.8c-1,0-1.7,0.3-2.3,0.9c-0.6,0.6-0.9,1.4-0.9,2.4h-1.2c0-0.8,0.2-1.5,0.5-2.2c0.4-0.7,0.9-1.2,1.6-1.6
			c0.7-0.4,1.4-0.6,2.3-0.6c1.3,0,2.3,0.3,3.1,1c0.7,0.7,1.1,1.6,1.1,2.8c0,0.7-0.2,1.4-0.6,2.2c-0.4,0.8-1.1,1.8-2.2,3l-4,4.5h7.5
			L706.8,230.6L706.8,230.6z"/>
		<path class="st1" d="M713.9,223.3h4.4v1.1h-4.4v4.7h-1.2v-4.7h-4.3v-1.1h4.3v-4.6h1.2V223.3z"/>
		<path class="st1" d="M728.6,226.6h-6.5l-1.5,4h-1.3l5.4-14.3h1.2l5.4,14.3H730L728.6,226.6z M722.4,225.5h5.7l-2.9-7.8
			L722.4,225.5z"/>
		<path class="st1" d="M741.9,230.6h-9v-0.9l4.9-5.6c0.8-0.9,1.4-1.7,1.7-2.3s0.5-1.2,0.5-1.8c0-0.9-0.3-1.6-0.8-2.2
			s-1.3-0.8-2.2-0.8c-1,0-1.7,0.3-2.3,0.9c-0.6,0.6-0.9,1.4-0.9,2.4h-1.2c0-0.8,0.2-1.5,0.5-2.2c0.4-0.7,0.9-1.2,1.6-1.6
			c0.7-0.4,1.4-0.6,2.3-0.6c1.3,0,2.3,0.3,3.1,1c0.7,0.7,1.1,1.6,1.1,2.8c0,0.7-0.2,1.4-0.6,2.2c-0.4,0.8-1.1,1.8-2.2,3l-4,4.5h7.5
			L741.9,230.6L741.9,230.6z"/>
		<path class="st1" d="M747.8,224.9c0,1.4-0.2,2.8-0.5,4.2s-0.9,2.6-1.6,3.7c-0.7,1.1-1.5,1.9-2.3,2.4l-0.3-0.8
			c0.6-0.5,1.2-1.2,1.8-2.1c0.5-1,1-2.1,1.3-3.4c0.3-1.3,0.5-2.7,0.5-4.2c0-1.4-0.2-2.7-0.5-3.9c-0.3-1.3-0.7-2.4-1.3-3.4
			s-1.1-1.7-1.8-2.2l0.3-0.8c0.8,0.5,1.6,1.3,2.3,2.4s1.2,2.3,1.6,3.7C747.7,222,747.8,223.4,747.8,224.9z"/>
		<path class="st1" d="M756.9,219.9v1.7c0.4-0.6,0.9-1.1,1.5-1.4c0.6-0.3,1.2-0.5,2-0.5c1.7,0,2.7,0.7,3.2,2.1
			c0.4-0.7,0.9-1.2,1.5-1.5c0.6-0.4,1.3-0.5,2.1-0.5c2.3,0,3.4,1.2,3.5,3.7v7.1h-1.2v-7c0-1-0.2-1.7-0.6-2.1c-0.4-0.5-1.1-0.7-2-0.7
			c-0.8,0-1.6,0.3-2.1,0.8c-0.6,0.5-0.9,1.2-1,2v7h-1.2v-7.1c0-0.9-0.2-1.6-0.6-2c-0.4-0.4-1.1-0.7-2-0.7c-0.7,0-1.4,0.2-1.9,0.6
			c-0.5,0.4-0.9,1.1-1.2,1.9v7.3h-1.2V220h1.2V219.9z"/>
		<path class="st1" d="M773,225.1c0-1,0.2-1.9,0.6-2.8c0.4-0.8,1-1.5,1.7-1.9s1.5-0.7,2.5-0.7c1.4,0,2.6,0.5,3.4,1.5s1.3,2.3,1.3,4
			v0.2c0,1-0.2,2-0.6,2.8c-0.4,0.8-1,1.5-1.7,1.9s-1.5,0.7-2.5,0.7c-1.4,0-2.6-0.5-3.4-1.5c-0.9-1-1.3-2.3-1.3-4V225.1z
			 M774.2,225.4c0,1.3,0.3,2.3,1,3.1s1.5,1.2,2.6,1.2s1.9-0.4,2.6-1.2c0.7-0.8,1-1.9,1-3.2v-0.2c0-0.8-0.2-1.6-0.5-2.2
			s-0.7-1.2-1.3-1.6c-0.5-0.4-1.2-0.6-1.9-0.6c-1,0-1.9,0.4-2.6,1.2c-0.7,0.8-1,1.9-1,3.2v0.3H774.2z"/>
		<path class="st1" d="M784.5,225.2c0-1.7,0.4-3,1.1-4c0.7-1,1.7-1.5,3-1.5c1.4,0,2.5,0.6,3.3,1.7v-6h1.2v15.1H792v-1.4
			c-0.8,1.1-1.9,1.6-3.3,1.6c-1.2,0-2.2-0.5-3-1.5s-1.1-2.3-1.1-4v0H784.5z M785.6,225.4c0,1.4,0.3,2.4,0.8,3.2s1.3,1.2,2.3,1.2
			c1.5,0,2.5-0.6,3.1-1.9v-5c-0.6-1.4-1.6-2.1-3.1-2.1c-1,0-1.8,0.4-2.3,1.2C785.9,222.7,785.6,223.9,785.6,225.4z"/>
		<path class="st1" d="M807.8,216.1v1h-0.1c-1.7,0-3.1,0.5-4,1.5c-1,1-1.5,2.4-1.6,4.2c0.4-0.5,0.9-1,1.5-1.3s1.3-0.4,2-0.4
			c1.3,0,2.3,0.4,3,1.3c0.7,0.9,1.1,2,1.1,3.4c0,0.9-0.2,1.8-0.5,2.5s-0.8,1.3-1.5,1.7c-0.6,0.4-1.4,0.6-2.2,0.6
			c-1.4,0-2.5-0.5-3.3-1.5s-1.3-2.3-1.3-3.9V224c0-2.6,0.6-4.6,1.8-6s2.8-2.1,5-2.1h0.1V216.1z M805.3,222.2c-0.7,0-1.4,0.2-2.1,0.7
			c-0.6,0.4-1.1,1-1.3,1.7v1c0,1.2,0.3,2.3,1,3s1.5,1.2,2.5,1.2c0.9,0,1.7-0.4,2.2-1.1c0.6-0.7,0.9-1.6,0.9-2.8c0-1.1-0.3-2-0.9-2.7
			S806.3,222.2,805.3,222.2z"/>
		<path class="st1" d="M816.9,223.3h4.4v1.1h-4.4v4.7h-1.2v-4.7h-4.3v-1.1h4.3v-4.6h1.2V223.3z"/>
		<path class="st1" d="M828.9,230.6h-1.2v-12.9l-3.9,1.4V218l4.9-1.8h0.2V230.6z"/>
		<path class="st1" d="M609.5,260.8v-14.3h4c1.2,0,2.2,0.3,3.2,0.8s1.7,1.3,2.2,2.3s0.8,2.1,0.8,3.4v1.3c0,1.3-0.3,2.4-0.8,3.4
			s-1.2,1.8-2.2,2.3s-2,0.8-3.2,0.8L609.5,260.8L609.5,260.8z M610.7,247.5v12.3h2.7c1.5,0,2.7-0.5,3.6-1.5c0.9-1,1.4-2.4,1.4-4.1
			V253c0-1.6-0.4-3-1.3-4c-0.9-1-2.1-1.5-3.6-1.5H610.7z"/>
		<path class="st1" d="M629.4,256.2h2.2v1h-2.2v3.6h-1.2v-3.6h-6.7v-0.7l6.6-10h1.3L629.4,256.2L629.4,256.2z M623,256.2h5.3V248
			l-0.5,0.9L623,256.2z"/>
		<path class="st1" d="M641.7,252.7h-8.2v-1h8.2V252.7z M641.7,256.7h-8.2v-1h8.2V256.7z"/>
		<path class="st1" d="M644.6,255c0-1.4,0.2-2.8,0.6-4.2c0.4-1.3,0.9-2.6,1.6-3.7c0.7-1.1,1.5-1.9,2.3-2.4l0.3,0.8
			c-0.4,0.3-0.9,0.8-1.3,1.3c-0.4,0.6-0.8,1.3-1.1,2.1s-0.6,1.7-0.8,2.7s-0.3,2.2-0.3,3.4c0,1.4,0.2,2.7,0.5,4s0.7,2.4,1.3,3.4
			s1.1,1.7,1.8,2.2l-0.3,0.8c-0.8-0.5-1.6-1.3-2.3-2.4s-1.2-2.3-1.6-3.7C644.7,258,644.6,256.6,644.6,255z"/>
		<path class="st1" d="M659.1,256.8h-6.5l-1.5,4h-1.3l5.4-14.3h1.2l5.4,14.3h-1.3L659.1,256.8z M653,255.8h5.7l-2.9-7.8L653,255.8z"
			/>
		<path class="st1" d="M669,260.8h-1.2v-12.9l-3.9,1.4v-1.1l4.9-1.8h0.2V260.8z"/>
		<path class="st1" d="M679.6,253.5h4.4v1.1h-4.4v4.7h-1.2v-4.7h-4.3v-1.1h4.3v-4.6h1.2V253.5z"/>
		<path class="st1" d="M696.3,247.5h-4.9v13.3h-1.2v-13.3h-4.9v-1h11L696.3,247.5L696.3,247.5z"/>
		<path class="st1" d="M707.1,260.8h-9v-0.9l4.9-5.6c0.8-0.9,1.4-1.7,1.7-2.3s0.5-1.2,0.5-1.8c0-0.9-0.3-1.6-0.8-2.2
			s-1.3-0.8-2.2-0.8c-1,0-1.7,0.3-2.3,0.9c-0.6,0.6-0.9,1.4-0.9,2.4h-1.2c0-0.8,0.2-1.5,0.5-2.2c0.4-0.7,0.9-1.2,1.6-1.6
			c0.7-0.4,1.4-0.6,2.3-0.6c1.3,0,2.3,0.3,3.1,1c0.7,0.7,1.1,1.6,1.1,2.8c0,0.7-0.2,1.4-0.6,2.2c-0.4,0.8-1.1,1.8-2.2,3l-4,4.5h7.5
			L707.1,260.8L707.1,260.8z"/>
		<path class="st1" d="M714.1,253.5h4.4v1.1h-4.4v4.7h-1.2v-4.7h-4.3v-1.1h4.3v-4.6h1.2V253.5z"/>
		<path class="st1" d="M728.9,256.8h-6.5l-1.5,4h-1.3l5.4-14.3h1.2l5.4,14.3h-1.3L728.9,256.8z M722.7,255.8h5.7l-2.9-7.8
			L722.7,255.8z"/>
		<path class="st1" d="M742.2,260.8h-9v-0.9l4.9-5.6c0.8-0.9,1.4-1.7,1.7-2.3s0.5-1.2,0.5-1.8c0-0.9-0.3-1.6-0.8-2.2
			s-1.3-0.8-2.2-0.8c-1,0-1.7,0.3-2.3,0.9c-0.6,0.6-0.9,1.4-0.9,2.4h-1.2c0-0.8,0.2-1.5,0.5-2.2c0.4-0.7,0.9-1.2,1.6-1.6
			c0.7-0.4,1.4-0.6,2.3-0.6c1.3,0,2.3,0.3,3.1,1c0.7,0.7,1.1,1.6,1.1,2.8c0,0.7-0.2,1.4-0.6,2.2c-0.4,0.8-1.1,1.8-2.2,3l-4,4.5h7.5
			L742.2,260.8L742.2,260.8z"/>
		<path class="st1" d="M748.1,255.2c0,1.4-0.2,2.8-0.5,4.2s-0.9,2.6-1.6,3.7c-0.7,1.1-1.5,1.9-2.3,2.4l-0.3-0.8
			c0.6-0.5,1.2-1.2,1.8-2.1c0.5-1,1-2.1,1.3-3.4s0.5-2.7,0.5-4.2c0-1.4-0.2-2.7-0.5-3.9c-0.3-1.3-0.7-2.4-1.3-3.4s-1.1-1.7-1.8-2.2
			l0.3-0.8c0.8,0.5,1.6,1.3,2.3,2.4s1.2,2.3,1.6,3.7C747.9,252.2,748.1,253.6,748.1,255.2z"/>
		<path class="st1" d="M757.1,250.2v1.7c0.4-0.6,0.9-1.1,1.5-1.4c0.6-0.3,1.2-0.5,2-0.5c1.7,0,2.7,0.7,3.2,2.1
			c0.4-0.7,0.9-1.2,1.5-1.5c0.6-0.4,1.3-0.5,2.1-0.5c2.3,0,3.4,1.2,3.5,3.7v7.1h-1.2v-7c0-1-0.2-1.7-0.6-2.1c-0.4-0.5-1.1-0.7-2-0.7
			c-0.8,0-1.6,0.3-2.1,0.8c-0.6,0.5-0.9,1.2-1,2v7h-1.2v-7.1c0-0.9-0.2-1.6-0.6-2c-0.4-0.4-1.1-0.7-2-0.7c-0.7,0-1.4,0.2-1.9,0.6
			c-0.5,0.4-0.9,1.1-1.2,1.9v7.3H756v-10.6L757.1,250.2L757.1,250.2z"/>
		<path class="st1" d="M773.3,255.3c0-1,0.2-1.9,0.6-2.8c0.4-0.8,1-1.5,1.7-1.9s1.5-0.7,2.5-0.7c1.4,0,2.6,0.5,3.4,1.5
			s1.3,2.3,1.3,4v0.2c0,1-0.2,2-0.6,2.8c-0.4,0.8-1,1.5-1.7,1.9S779,261,778,261c-1.4,0-2.6-0.5-3.4-1.5c-0.9-1-1.3-2.3-1.3-4V255.3
			z M774.5,255.7c0,1.3,0.3,2.3,1,3.1s1.5,1.2,2.6,1.2s1.9-0.4,2.6-1.2c0.7-0.8,1-1.9,1-3.2v-0.2c0-0.8-0.2-1.6-0.5-2.2
			s-0.7-1.2-1.3-1.6c-0.5-0.4-1.2-0.6-1.9-0.6c-1,0-1.9,0.4-2.6,1.2c-0.7,0.8-1,1.9-1,3.2v0.3H774.5z"/>
		<path class="st1" d="M784.7,255.4c0-1.7,0.4-3,1.1-4c0.7-1,1.7-1.5,3-1.5c1.4,0,2.5,0.6,3.3,1.7v-6h1.2v15.1h-1.1v-1.4
			c-0.8,1.1-1.9,1.6-3.3,1.6c-1.2,0-2.2-0.5-3-1.5s-1.1-2.3-1.1-4l0,0H784.7z M785.9,255.6c0,1.4,0.3,2.4,0.8,3.2
			c0.5,0.8,1.3,1.2,2.3,1.2c1.5,0,2.5-0.6,3.1-1.9v-5c-0.6-1.4-1.6-2.1-3.1-2.1c-1,0-1.8,0.4-2.3,1.2
			C786.2,252.9,785.9,254.1,785.9,255.6z"/>
		<path class="st1" d="M808.1,246.4v1H808c-1.7,0-3.1,0.5-4,1.5c-1,1-1.5,2.4-1.6,4.2c0.4-0.5,0.9-1,1.5-1.3s1.3-0.4,2-0.4
			c1.3,0,2.3,0.4,3,1.3c0.7,0.9,1.1,2,1.1,3.4c0,0.9-0.2,1.8-0.5,2.5s-0.8,1.3-1.5,1.7c-0.6,0.4-1.4,0.6-2.2,0.6
			c-1.4,0-2.5-0.5-3.3-1.5s-1.3-2.3-1.3-3.9v-1.2c0-2.6,0.6-4.6,1.8-6s2.8-2.1,5-2.1h0.1V246.4z M805.6,252.4
			c-0.7,0-1.4,0.2-2.1,0.7c-0.6,0.4-1.1,1-1.3,1.7v1c0,1.2,0.3,2.3,1,3s1.5,1.2,2.5,1.2c0.9,0,1.7-0.4,2.2-1.1
			c0.6-0.7,0.9-1.6,0.9-2.8c0-1.1-0.3-2-0.9-2.7S806.6,252.4,805.6,252.4z"/>
		<path class="st1" d="M817.1,253.5h4.4v1.1h-4.4v4.7h-1.2v-4.7h-4.3v-1.1h4.3v-4.6h1.2V253.5z"/>
		<path class="st1" d="M829.1,260.8H828v-12.9l-3.9,1.4v-1.1l4.9-1.8h0.2v14.4H829.1z"/>
	</g>
</g>
<g>
	<g>
		<path class="st2" d="M119.3,112.1c0,3.8-0.4,7.5-1.1,11c-73.7-19.4-95.5,24.2-95.5,24.2c-8-9.5-12.8-21.8-12.8-35.2
			c0-30.2,24.5-54.7,54.7-54.7S119.3,81.8,119.3,112.1z"/>
	</g>
	<g>
		<path class="st3" d="M118.2,123.1c-5.1,25-27.2,43.7-53.6,43.7c-16.8,0-31.9-7.6-41.9-19.5C22.6,147.3,44.5,103.7,118.2,123.1z"/>
	</g>
	<g>
		<path class="st4" d="M44.7,126.2L44.7,126.2l-1.6-21.9l-0.9-1.3c0-1.3,2.6-0.6,2.9-1.8c2.5-9,13.3-13.8,24.3-10.8
			c9.9,2.7,16.4,10.9,15.7,19.1l0,0l-0.4,20.2c0.1,1.2,0.1,2.3-0.1,3.5l0,0l0,0c-0.2,1.2-0.5,2.3-0.9,3.4c-3.6,8.6-15,12-25.4,7.7
			C49.8,140.8,44.6,133.4,44.7,126.2z"/>
		<path class="st5" d="M49.4,112.9c2.7,4.4,6.5,8.2,10.9,10.9c7.3,4.4,14.6,4.7,21.8,2c0.9-0.3,1.7-0.7,2.6-1.1l0.3-15.2l0,0
			c0.7-8.2-5.9-16.4-15.7-19.1c-10.9-3-21.8,1.8-24.3,10.8c-0.3,1.3-0.5,2.5-0.5,3.8l0,0L49.4,112.9z"/>
		<ellipse transform="matrix(0.9322 -0.362 0.362 0.9322 -25.7827 29.4164)" class="st4" cx="65.6" cy="83.5" rx="29.8" ry="39.7"/>
		<path class="st6" d="M83.9,51c2.5,1.9,3.8,4.9,3.6,8.1c-0.5,5.7-2.8,14.5-12.4,17.2c-12.1,3.4-27.6,1.8-32.4,1.2
			c-1.8-0.2-3.6-0.8-5.2-1.6c-3.6-1.9-7.9-6.2-3.4-14.7C40.7,48.7,58.3,31.5,83.9,51z"/>
		<path class="st6" d="M79.6,50.7c0,0,5.2-1.4,10.9,9.5C95.5,69.7,94,74,94,74L79.6,50.7z"/>
		<path class="st6" d="M54.6,77.8c0,0,6.8,21,4.5,20.8c-2.3-0.1-6.2-15.3-14-13.7S43,104.2,43,104.2s-12.6-16-10.2-27.7
			S54.6,77.8,54.6,77.8z"/>
		<path class="st4" d="M94.7,89.1c0,0,1.1,6.5,3.4,8s3.8,3.9-1.2,5S89,96.9,89,96.9L94.7,89.1z"/>
		<ellipse transform="matrix(0.9937 -0.1121 0.1121 0.9937 -9.5325 9.8581)" class="st6" cx="82.9" cy="89.7" rx="1.8" ry="2.6"/>
		<ellipse class="st6" cx="96.7" cy="87" rx="1.5" ry="2.3"/>
		<path class="st7" d="M84.9,84.1c0,0-7.3-0.4-10.1,3"/>
		<path class="st7" d="M99.6,79.5c0,0-7.3-0.4-10.1,3"/>
		<ellipse transform="matrix(0.8561 -0.5168 0.5168 0.8561 -14.7036 52.2096)" class="st6" cx="86.4" cy="52.5" rx="16" ry="14.9"/>
		<path class="st8" d="M90.1,109.4c0,0-10.2,3.3-14.4-1.4"/>
	</g>
</g>
<g>
	<g>
		<path class="st2" d="M121.3,289.3c0,3.8-0.4,7.5-1.1,11c-73.7-19.4-95.5,24.2-95.5,24.2c-8-9.5-12.8-21.8-12.8-35.2
			c0-30.2,24.5-54.7,54.7-54.7S121.3,259,121.3,289.3z"/>
	</g>
	<g>
		<path class="st9" d="M120.2,300.3c-5.1,25-27.2,43.7-53.6,43.7c-16.8,0-31.9-7.6-41.9-19.5C24.7,324.5,46.5,280.9,120.2,300.3z"/>
	</g>
	<g>
		<path class="st4" d="M46.7,303.4L46.7,303.4l-1.6-21.9l-0.9-1.3c0-1.3,2.6-0.6,2.9-1.8c2.5-9,13.3-13.8,24.3-10.8
			c9.9,2.7,16.4,10.9,15.7,19.1l0,0l-0.4,20.2c0.1,1.2,0.1,2.3-0.1,3.5l0,0l0,0c-0.2,1.2-0.5,2.3-0.9,3.4c-3.6,8.6-15,12-25.4,7.7
			C51.9,318,46.6,310.6,46.7,303.4z"/>
		<path class="st5" d="M51.5,290.2c2.7,4.4,6.5,8.2,10.9,10.9c7.3,4.4,14.6,4.7,21.8,2c0.9-0.3,1.7-0.7,2.6-1.1l0.3-15.2l0,0
			c0.7-8.2-5.9-16.4-15.7-19.1c-10.9-3-21.8,1.8-24.3,10.8c-0.3,1.3-0.5,2.5-0.5,3.8l0,0L51.5,290.2z"/>
		
			<ellipse transform="matrix(0.9322 -0.362 0.362 0.9322 -89.7791 42.1892)" class="st4" cx="67.7" cy="260.7" rx="29.8" ry="39.7"/>
		<path class="st6" d="M85.9,228.2c2.5,1.9,3.8,4.9,3.6,8.1c-0.5,5.7-2.8,14.5-12.4,17.2c-12.1,3.4-27.6,1.8-32.4,1.2
			c-1.8-0.2-3.6-0.8-5.2-1.6c-3.6-1.9-7.9-6.2-3.4-14.7C42.7,225.9,60.3,208.7,85.9,228.2z"/>
		<path class="st6" d="M81.6,227.9c0,0,5.2-1.4,10.9,9.5c5,9.5,3.5,13.8,3.5,13.8L81.6,227.9z"/>
		<path class="st6" d="M56.6,255c0,0,6.8,21,4.5,20.8c-2.3-0.1-6.2-15.3-14-13.7S45,281.4,45,281.4s-12.6-16-10.2-27.7
			S56.6,255,56.6,255z"/>
		<path class="st4" d="M96.7,266.3c0,0,1.1,6.5,3.4,8s3.8,3.9-1.2,5s-7.9-5.2-7.9-5.2L96.7,266.3z"/>
		
			<ellipse transform="matrix(0.9937 -0.1121 0.1121 0.9937 -29.3845 11.1988)" class="st6" cx="84.9" cy="266.9" rx="1.8" ry="2.6"/>
		<ellipse class="st6" cx="98.7" cy="264.2" rx="1.5" ry="2.3"/>
		<path class="st7" d="M86.9,261.4c0,0-7.3-0.4-10.1,3"/>
		<path class="st7" d="M101.6,256.7c0,0-7.3-0.4-10.1,3"/>
		
			<ellipse transform="matrix(0.8561 -0.5168 0.5168 0.8561 -105.9619 78.7815)" class="st6" cx="88.5" cy="229.7" rx="16" ry="14.9"/>
		<path class="st8" d="M92.1,286.6c0,0-10.2,3.3-14.4-1.4"/>
	</g>
</g>
<g>
	<g>
		<path class="st10" d="M433.7,106.8V96.1h3c0.9,0,1.7,0.2,2.4,0.6c0.7,0.4,1.2,1,1.6,1.7s0.6,1.6,0.6,2.6v1c0,1-0.2,1.8-0.6,2.6
			c-0.4,0.7-0.9,1.3-1.6,1.7s-1.5,0.6-2.4,0.6L433.7,106.8L433.7,106.8z M434.6,96.9v9.2h2c1.1,0,2-0.4,2.7-1.1c0.7-0.8,1-1.8,1-3
			v-1c0-1.2-0.3-2.2-1-3c-0.7-0.7-1.6-1.1-2.7-1.1H434.6z"/>
		<path class="st10" d="M447.3,106.8h-0.9v-9.7l-2.9,1.1v-0.8l3.7-1.4h0.1L447.3,106.8L447.3,106.8z"/>
		<path class="st10" d="M451.5,108.8l-0.5-0.4c0.4-0.6,0.7-1.2,0.7-1.9v-1.1h0.9v0.9C452.6,107.4,452.2,108.2,451.5,108.8z"/>
		<path class="st10" d="M458.5,106.8V96.1h3c0.9,0,1.7,0.2,2.4,0.6c0.7,0.4,1.2,1,1.6,1.7s0.6,1.6,0.6,2.6v1c0,1-0.2,1.8-0.6,2.6
			c-0.4,0.7-0.9,1.3-1.6,1.7s-1.5,0.6-2.4,0.6L458.5,106.8L458.5,106.8z M459.4,96.9v9.2h2c1.1,0,2-0.4,2.7-1.1c0.7-0.8,1-1.8,1-3
			v-1c0-1.2-0.3-2.2-1-3c-0.7-0.7-1.6-1.1-2.7-1.1H459.4z"/>
		<path class="st10" d="M474.8,106.8H468v-0.7l3.7-4.2c0.6-0.7,1-1.3,1.3-1.7c0.2-0.5,0.4-0.9,0.4-1.3c0-0.7-0.2-1.2-0.6-1.6
			s-0.9-0.6-1.6-0.6s-1.3,0.2-1.8,0.7s-0.7,1.1-0.7,1.8h-0.9c0-0.6,0.1-1.2,0.4-1.7s0.7-0.9,1.2-1.2c0.5-0.3,1.1-0.4,1.7-0.4
			c1,0,1.8,0.3,2.3,0.8c0.6,0.5,0.8,1.2,0.8,2.1c0,0.5-0.2,1.1-0.5,1.6s-0.9,1.3-1.6,2.2l-3,3.4h5.6v0.8H474.8z"/>
	</g>
</g>
<g>
	<g>
		<g>
			<path class="st1" d="M180.9,49.5H176l-1.1,3h-1l4.1-10.7h0.9l4.1,10.7h-1L180.9,49.5z M176.3,48.7h4.3l-2.2-5.9L176.3,48.7z"/>
			<path class="st1" d="M188.3,52.5h-0.9v-9.7l-2.9,1.1v-0.8l3.7-1.4h0.1L188.3,52.5L188.3,52.5z"/>
			<path class="st1" d="M196.2,48.1c0-1.1,0.1-2.1,0.4-3.1c0.3-1,0.7-1.9,1.2-2.8s1.1-1.4,1.7-1.8l0.2,0.6c-0.3,0.2-0.6,0.6-1,1
				c-0.3,0.4-0.6,1-0.9,1.6c-0.3,0.6-0.5,1.3-0.6,2.1c-0.2,0.8-0.2,1.6-0.2,2.6s0.1,2,0.4,3c0.2,0.9,0.6,1.8,1,2.5s0.9,1.3,1.4,1.6
				l-0.2,0.6c-0.6-0.4-1.2-1-1.7-1.8s-0.9-1.8-1.2-2.8C196.4,50.4,196.2,49.3,196.2,48.1z"/>
			<path class="st1" d="M310.9,48.3c0,1.1-0.1,2.1-0.4,3.1s-0.7,1.9-1.2,2.7s-1.1,1.4-1.7,1.8l-0.2-0.6c0.5-0.3,0.9-0.9,1.3-1.6
				c0.4-0.7,0.7-1.6,1-2.5c0.2-1,0.4-2,0.4-3.1c0-1-0.1-2-0.4-2.9c-0.2-0.9-0.6-1.8-1-2.5s-0.9-1.3-1.3-1.6l0.2-0.6
				c0.6,0.4,1.2,1,1.7,1.8s0.9,1.8,1.2,2.8C310.8,46,310.9,47.1,310.9,48.3z"/>
			<path class="st1" d="M188.6,60.6h-3.7v10H184v-10h-3.7v-0.8h8.3V60.6z"/>
			<path class="st1" d="M194.1,70.6h-0.9v-9.7l-2.9,1.1v-0.8l3.7-1.4h0.1L194.1,70.6L194.1,70.6z"/>
			<path class="st1" d="M202,66.3c0-1.1,0.1-2.1,0.4-3.1c0.3-1,0.7-1.9,1.2-2.8s1.1-1.4,1.7-1.8l0.2,0.6c-0.3,0.2-0.6,0.6-1,1
				c-0.3,0.4-0.6,1-0.9,1.6c-0.3,0.6-0.5,1.3-0.6,2.1c-0.2,0.8-0.2,1.6-0.2,2.6s0.1,2,0.4,3c0.2,0.9,0.6,1.8,1,2.5s0.9,1.3,1.4,1.6
				l-0.2,0.6c-0.6-0.4-1.2-1-1.7-1.8s-0.9-1.8-1.2-2.8C202.1,68.5,202,67.4,202,66.3z"/>
			<path class="st1" d="M320.7,66.4c0,1.1-0.1,2.1-0.4,3.1s-0.7,1.9-1.2,2.7s-1.1,1.4-1.7,1.8l-0.2-0.6c0.5-0.3,0.9-0.9,1.3-1.6
				s0.7-1.6,1-2.5c0.2-1,0.4-2,0.4-3.1c0-1-0.1-2-0.4-2.9c-0.2-0.9-0.6-1.8-1-2.5s-0.9-1.3-1.3-1.6l0.2-0.6c0.6,0.4,1.2,1,1.7,1.8
				s0.9,1.8,1.2,2.8C320.6,64.2,320.7,65.2,320.7,66.4z"/>
		</g>
	</g>
	<polygon points="578.3,54.2 564.6,62.1 564.6,46.2 	"/>
	<circle cx="126" cy="54.2" r="2"/>
	<line class="st11" x1="126" y1="54.2" x2="170.5" y2="54.2"/>
	<line class="st11" x1="317.8" y1="54.2" x2="569.9" y2="54.2"/>
</g>
<polygon points="141.4,102.2 155.1,110.1 155.1,94.3 "/>
<circle cx="570.5" cy="102.2" r="2"/>
<line class="st11" x1="570.5" y1="102.2" x2="526" y2="102.2"/>
<line class="st11" x1="391.7" y1="102.2" x2="155.1" y2="102.2"/>
<g>
	<g>
		<path class="st10" d="M433.7,276.3v-10.7h3c0.9,0,1.7,0.2,2.4,0.6c0.7,0.4,1.2,1,1.6,1.7s0.6,1.6,0.6,2.6v1c0,1-0.2,1.8-0.6,2.6
			c-0.4,0.7-0.9,1.3-1.6,1.7s-1.5,0.6-2.4,0.6h-3V276.3z M434.6,266.3v9.2h2c1.1,0,2-0.4,2.7-1.1s1-1.8,1-3v-0.9c0-1.2-0.3-2.2-1-3
			c-0.7-0.7-1.6-1.1-2.7-1.1h-2V266.3z"/>
		<path class="st10" d="M445.2,270.5h0.9c0.5,0,0.9-0.1,1.3-0.3s0.7-0.4,0.9-0.7s0.3-0.7,0.3-1.1c0-0.7-0.2-1.2-0.6-1.6
			s-0.9-0.6-1.7-0.6c-0.7,0-1.3,0.2-1.7,0.6c-0.4,0.4-0.7,0.9-0.7,1.6H443c0-0.6,0.1-1.1,0.4-1.5s0.7-0.8,1.2-1.1s1-0.4,1.7-0.4
			c1,0,1.7,0.3,2.3,0.8s0.8,1.3,0.8,2.2c0,0.5-0.2,1-0.5,1.4s-0.8,0.8-1.3,1c0.7,0.2,1.2,0.5,1.5,1s0.5,1,0.5,1.6
			c0,0.9-0.3,1.7-0.9,2.2c-0.6,0.6-1.4,0.8-2.4,0.8c-0.6,0-1.2-0.1-1.8-0.4c-0.5-0.3-0.9-0.6-1.2-1.1c-0.3-0.5-0.4-1-0.4-1.6h0.9
			c0,0.7,0.2,1.2,0.7,1.7c0.5,0.4,1.1,0.6,1.8,0.6c0.8,0,1.4-0.2,1.8-0.6s0.6-1,0.6-1.7s-0.2-1.3-0.7-1.6s-1.1-0.6-2-0.6h-0.9v-0.6
			H445.2z"/>
		<path class="st10" d="M451.5,278.3l-0.5-0.4c0.4-0.6,0.7-1.2,0.7-1.9v-1.1h0.9v0.9C452.6,276.9,452.2,277.7,451.5,278.3z"/>
		<path class="st10" d="M458.5,276.3v-10.7h3c0.9,0,1.7,0.2,2.4,0.6c0.7,0.4,1.2,1,1.6,1.7s0.6,1.6,0.6,2.6v1c0,1-0.2,1.8-0.6,2.6
			c-0.4,0.7-0.9,1.3-1.6,1.7s-1.5,0.6-2.4,0.6h-3V276.3z M459.4,266.3v9.2h2c1.1,0,2-0.4,2.7-1.1s1-1.8,1-3v-0.9c0-1.2-0.3-2.2-1-3
			c-0.7-0.7-1.6-1.1-2.7-1.1h-2V266.3z"/>
		<path class="st10" d="M473.5,272.8h1.7v0.7h-1.7v2.7h-0.9v-2.7h-5.1V273l5-7.5h1V272.8z M468.6,272.8h4v-6.1l-0.4,0.7L468.6,272.8
			z"/>
	</g>
</g>
<polygon points="141.4,271.7 155.1,279.6 155.1,263.7 "/>
<circle cx="570.5" cy="271.7" r="2"/>
<line class="st11" x1="570.5" y1="271.7" x2="526" y2="271.7"/>
<line class="st11" x1="391.7" y1="271.7" x2="155.1" y2="271.7"/>
<g>
	<g>
		<g>
			<path class="st1" d="M180,308.1h-4.9l-1.1,3h-1l4.1-10.7h0.9l4.1,10.7h-0.9L180,308.1z M175.4,307.3h4.3l-2.2-5.9L175.4,307.3z"
				/>
			<path class="st1" d="M190.1,311.1h-6.7v-0.7l3.7-4.2c0.6-0.7,1-1.3,1.3-1.7c0.2-0.5,0.4-0.9,0.4-1.3c0-0.7-0.2-1.2-0.6-1.6
				c-0.4-0.4-0.9-0.6-1.6-0.6c-0.7,0-1.3,0.2-1.8,0.7c-0.4,0.5-0.7,1.1-0.7,1.8h-0.9c0-0.6,0.1-1.2,0.4-1.7c0.3-0.5,0.7-0.9,1.2-1.2
				c0.5-0.3,1.1-0.4,1.7-0.4c1,0,1.8,0.3,2.3,0.8c0.6,0.5,0.8,1.2,0.8,2.1c0,0.5-0.2,1.1-0.5,1.6c-0.3,0.6-0.9,1.3-1.6,2.2l-3,3.4
				h5.6L190.1,311.1L190.1,311.1z"/>
			<path class="st1" d="M195.4,306.7c0-1.1,0.1-2.1,0.4-3.1c0.3-1,0.7-1.9,1.2-2.8s1.1-1.4,1.7-1.8l0.2,0.6c-0.3,0.2-0.6,0.6-1,1
				c-0.3,0.4-0.6,1-0.9,1.6c-0.3,0.6-0.5,1.3-0.6,2.1c-0.2,0.8-0.2,1.6-0.2,2.6s0.1,2,0.4,3c0.2,0.9,0.6,1.8,1,2.5s0.9,1.3,1.4,1.6
				l-0.2,0.6c-0.6-0.4-1.2-1-1.7-1.8s-0.9-1.8-1.2-2.8C195.5,309,195.4,307.9,195.4,306.7z"/>
			<path class="st1" d="M295.1,306.9c0,1.1-0.1,2.1-0.4,3.1s-0.7,1.9-1.2,2.7s-1.1,1.4-1.7,1.8l-0.2-0.6c0.5-0.3,0.9-0.9,1.3-1.6
				s0.7-1.6,1-2.5c0.2-1,0.4-2,0.4-3.1c0-1-0.1-2-0.4-2.9c-0.2-0.9-0.6-1.8-1-2.5s-0.9-1.3-1.3-1.6l0.2-0.6c0.6,0.4,1.2,1,1.7,1.8
				s0.9,1.8,1.2,2.8S295.1,305.7,295.1,306.9z"/>
			<path class="st1" d="M187.7,319.2H184v10h-0.9v-10h-3.7v-0.8h8.3L187.7,319.2L187.7,319.2z"/>
			<path class="st1" d="M195.8,329.2h-6.7v-0.7l3.7-4.2c0.6-0.7,1-1.3,1.3-1.7c0.2-0.5,0.4-0.9,0.4-1.3c0-0.7-0.2-1.2-0.6-1.6
				c-0.4-0.4-0.9-0.6-1.6-0.6c-0.7,0-1.3,0.2-1.8,0.7c-0.4,0.5-0.7,1.1-0.7,1.8h-0.9c0-0.6,0.1-1.2,0.4-1.7c0.3-0.5,0.7-0.9,1.2-1.2
				c0.5-0.3,1.1-0.4,1.7-0.4c1,0,1.8,0.3,2.3,0.8c0.6,0.5,0.8,1.2,0.8,2.1c0,0.5-0.2,1.1-0.5,1.6c-0.3,0.6-0.9,1.3-1.6,2.2l-3,3.4
				h5.6L195.8,329.2L195.8,329.2z"/>
			<path class="st1" d="M200.2,324.9c0-1.1,0.1-2.1,0.4-3.1c0.3-1,0.7-1.9,1.2-2.8s1.1-1.4,1.7-1.8l0.2,0.6c-0.3,0.2-0.6,0.6-1,1
				c-0.3,0.4-0.6,1-0.9,1.6c-0.3,0.6-0.5,1.3-0.6,2.1c-0.2,0.8-0.2,1.6-0.2,2.6s0.1,2,0.4,3c0.2,0.9,0.6,1.8,1,2.5s0.9,1.3,1.4,1.6
				l-0.2,0.6c-0.6-0.4-1.2-1-1.7-1.8s-0.9-1.8-1.2-2.8C200.3,327.1,200.2,326,200.2,324.9z"/>
			<path class="st1" d="M317.9,325c0,1.1-0.1,2.1-0.4,3.1s-0.7,1.9-1.2,2.7s-1.1,1.4-1.7,1.8l-0.2-0.6c0.5-0.3,0.9-0.9,1.3-1.6
				s0.7-1.6,1-2.5c0.2-1,0.4-2,0.4-3.1c0-1-0.1-2-0.4-2.9c-0.2-0.9-0.6-1.8-1-2.5s-0.9-1.3-1.3-1.6l0.2-0.6c0.6,0.4,1.2,1,1.7,1.8
				s0.9,1.8,1.2,2.8S317.9,323.9,317.9,325z"/>
		</g>
	</g>
	<polygon points="578.3,317.2 564.6,325.1 564.6,309.2 	"/>
	<circle cx="126" cy="317.2" r="2"/>
	<line class="st11" x1="126" y1="317.2" x2="170.5" y2="317.2"/>
	<line class="st11" x1="317.8" y1="317.2" x2="569.9" y2="317.2"/>
</g>
<g>
	<path class="st1" d="M44.6,197.3v1.4h-17v-1.4H44.6z M32,190.8h-2.9v-1.3H43v1.3h-2.8v3.6h2.8v1.3H29.3v-1.3H32V190.8z M31.4,206.3
		H43v1.3H29.7v-4.3h11v-1.6H29.6v-1.3h12.8v4.1H31.4V206.3z M38.4,190.8h-4.7v3.6h4.7V190.8z"/>
	<path class="st1" d="M49.2,201.7c2.1,0,4.2-0.1,6.6-0.5l0.1,1.4c-2.6,0.4-4.8,0.5-7.2,0.5h-1.2v-7h5v-3.8h-5.1V191h6.8v6.5h-5
		V201.7z M57.5,189.4h1.6v17.4h-1.6v-9.7h-2.3v-1.4h2.3V189.4z M62.9,188.9v18.8h-1.7v-18.8H62.9z"/>
	<path class="st1" d="M76.5,197c0,4-2,6.6-4.8,6.6s-4.8-2.6-4.8-6.6c0-4,2-6.6,4.8-6.6S76.5,192.9,76.5,197z M68.6,197
		c0,3.1,1.3,5,3.1,5c1.8,0,3.1-2,3.1-5c0-3-1.3-5-3.1-5C69.9,191.9,68.6,193.9,68.6,197z M81.7,188.9v18.9h-1.7v-18.9H81.7z"/>
	<path class="st1" d="M101.1,188.9v18.9h-1.7v-10.3h-4.1c-0.2,3.7-2,6-4.7,6c-2.8,0-4.7-2.6-4.7-6.6c0-4,2-6.6,4.7-6.6
		c2.5,0,4.4,2.2,4.7,5.7h4.1v-7.2H101.1z M93.7,197c0-3-1.3-5-3-5c-1.8,0-3.1,2-3.1,5c0,3.1,1.3,5,3.1,5C92.4,202,93.7,200,93.7,197
		z"/>
	<path class="st1" d="M109.4,205.1c4.8-4.2,7.1-7.3,7.1-9.9c0-1.8-0.9-3-2.8-3c-1.3,0-2.4,0.8-3.2,1.8l-1.1-1.1
		c1.3-1.4,2.6-2.3,4.5-2.3c2.8,0,4.5,1.8,4.5,4.6c0,3.1-2.4,6.2-6,9.6c0.8-0.1,1.7-0.1,2.5-0.1h4.3v1.7h-9.7V205.1z"/>
</g>
<g>
	<path class="st1" d="M41.6,18.3v1.4h-17v-1.4H41.6z M29,11.8h-2.9v-1.3H40v1.3h-2.8v3.6h2.8v1.3H26.3v-1.3H29V11.8z M28.4,27.3H40
		v1.3H26.7v-4.3h11v-1.6H26.6v-1.3h12.8v4.1H28.4V27.3z M35.4,11.8h-4.7v3.6h4.7V11.8z"/>
	<path class="st1" d="M46.2,22.7c2.1,0,4.2-0.1,6.6-0.5l0.1,1.4c-2.6,0.4-4.8,0.5-7.2,0.5h-1.2v-7h5v-3.8h-5.1V12h6.8v6.5h-5V22.7z
		 M54.5,10.4h1.6v17.4h-1.6v-9.7h-2.3v-1.4h2.3V10.4z M59.9,9.9v18.8h-1.7V9.9H59.9z"/>
	<path class="st1" d="M73.5,18c0,4-2,6.6-4.8,6.6S63.9,22,63.9,18s2-6.6,4.8-6.6S73.5,13.9,73.5,18z M65.6,18c0,3.1,1.3,5,3.1,5
		c1.8,0,3.1-2,3.1-5c0-3-1.3-5-3.1-5C66.9,12.9,65.6,14.9,65.6,18z M78.7,9.9v18.9h-1.7V9.9H78.7z"/>
	<path class="st1" d="M98.1,9.9v18.9h-1.7V18.5h-4.1c-0.2,3.7-2,6-4.7,6c-2.8,0-4.7-2.6-4.7-6.6s2-6.6,4.7-6.6
		c2.5,0,4.4,2.2,4.7,5.7h4.1V9.9H98.1z M90.7,18c0-3-1.3-5-3-5c-1.8,0-3.1,2-3.1,5c0,3.1,1.3,5,3.1,5C89.4,23,90.7,21,90.7,18z"/>
	<path class="st1" d="M107.3,25.6h3.4V14.1H108v-1.2c1.4-0.3,2.4-0.6,3.2-1.1h1.5v13.8h3.1v1.6h-8.4V25.6z"/>
</g>
<rect x="209.4" y="39.2" class="st12" width="101.5" height="21.3"/>
<text transform="matrix(1 0 0 1 209.4 53.5776)" class="st1 st13 st14">가속도계 1</text>
<g>
	<path class="st1" d="M214.7,299.6c0,4.6-2.1,8.8-7.3,11.4l-0.8-1.2c4.1-2.1,6.3-5.2,6.7-9h-5.9v-1.2H214.7z M221.4,305.6h-2.6v8.4
		h-1.5v-16.2h1.5v6.6h2.6V305.6z"/>
	<path class="st1" d="M237.6,306v1.2H223V306h6.6v-2.4h1.5v2.4H237.6z M236.1,304.4c-2.5-0.4-4.8-1.7-5.9-3.5
		c-1,1.9-3.4,3.1-5.9,3.5l-0.6-1.2c2.9-0.4,5.7-2.2,5.7-4.3v-0.7h1.5v0.7c0,2.1,2.8,3.9,5.7,4.3L236.1,304.4z M224.6,308.7h11.2v5.3
		h-1.5v-4.1h-9.7V308.7z"/>
	<path class="st1" d="M254.2,310.8v1.2h-14.7v-1.2h6.6v-4.1h-4.7v-7.5h10.9v1.2h-9.5v5.1h9.6v1.2h-4.9v4.1H254.2z"/>
	<path class="st1" d="M265.2,298.3h1.4v14.9h-1.4v-5.6h-2.9v-1.2h2.9v-2.8h-2.7c-0.8,2.7-2.5,5.1-5.6,7l-0.9-1
		c3.5-2.1,5.2-5,5.5-8.4h-4.7v-1.2h6.2c0,0.8-0.1,1.6-0.2,2.4h2.4V298.3z M269.8,297.9V314h-1.4v-16.1H269.8z"/>
	<path class="st1" d="M276.5,311.7c4.1-3.6,6-6.2,6-8.5c0-1.5-0.8-2.6-2.4-2.6c-1.1,0-2,0.7-2.7,1.5l-1-0.9c1.1-1.2,2.2-1.9,3.9-1.9
		c2.4,0,3.8,1.5,3.8,3.9c0,2.6-2.1,5.3-5.2,8.2c0.7-0.1,1.5-0.1,2.2-0.1h3.7v1.4h-8.3V311.7z"/>
</g>
<rect x="208.4" y="59.3" class="st12" width="128" height="25.5"/>
<text transform="matrix(1 0 0 1 208.375 71.2399)" class="st1 st13 st15">(시간) 1/100만 1</text>
<g>
	<path class="st1" d="M206.8,325.6c0-2.9,0.8-5.4,2.2-7.6l0.9,0.4c-1.3,2.1-1.9,4.7-1.9,7.2s0.6,5.1,1.9,7.2l-0.9,0.4
		C207.6,330.9,206.8,328.5,206.8,325.6z"/>
	<path class="st1" d="M216,321.5c0,2.5,1.6,4.9,3.6,5.8l-0.7,1c-1.5-0.8-2.8-2.3-3.5-4.3c-0.6,2-1.9,3.7-3.5,4.5l-0.8-1
		c2-0.9,3.6-3.5,3.6-6.1v-2.4h1.2V321.5z M222.2,317.9v13.5H221v-13.5H222.2z"/>
	<path class="st1" d="M231.9,318.9c0,3.5-2.4,6-6.3,7.2l-0.5-1c3.2-1,5.2-2.9,5.5-5.3h-5v-1H231.9z M228.3,330h7.7v1h-9v-4.3h1.2
		V330z M237.5,322v1h-2v4.7h-1.2v-9.8h1.2v4.1H237.5z"/>
	<path class="st1" d="M238.7,332.8c1.3-2.1,1.9-4.7,1.9-7.2s-0.6-5.1-1.9-7.2l0.8-0.4c1.4,2.2,2.2,4.7,2.2,7.6c0,3-0.8,5.4-2.2,7.6
		L238.7,332.8z"/>
	<path class="st1" d="M247.8,329.1h2.4v-8.2h-1.9V320c1-0.2,1.7-0.4,2.3-0.8h1.1v9.9h2.2v1.1h-6V329.1z"/>
	<path class="st1" d="M259.5,318.3h1l-4.5,14.6h-1L259.5,318.3z"/>
	<path class="st1" d="M262,329.1h2.4v-8.2h-1.9V320c1-0.2,1.7-0.4,2.3-0.8h1.1v9.9h2.2v1.1h-6V329.1z"/>
	<path class="st1" d="M269.7,324.7c0-3.8,1.3-5.7,3.4-5.7c2.1,0,3.4,1.9,3.4,5.7c0,3.8-1.3,5.7-3.4,5.7
		C271.1,330.4,269.7,328.5,269.7,324.7z M275.3,324.7c0-3.2-0.8-4.6-2.1-4.6c-1.3,0-2.1,1.3-2.1,4.6c0,3.2,0.8,4.6,2.1,4.6
		C274.4,329.3,275.3,327.9,275.3,324.7z"/>
	<path class="st1" d="M278.1,324.7c0-3.8,1.3-5.7,3.4-5.7c2.1,0,3.4,1.9,3.4,5.7c0,3.8-1.3,5.7-3.4,5.7
		C279.4,330.4,278.1,328.5,278.1,324.7z M283.6,324.7c0-3.2-0.8-4.6-2.1-4.6c-1.3,0-2.1,1.3-2.1,4.6c0,3.2,0.8,4.6,2.1,4.6
		C282.7,329.3,283.6,327.9,283.6,324.7z"/>
	<path class="st1" d="M293.2,325.3H287v-6.2h6.2V325.3z M292,320.1h-3.8v4.3h3.8V320.1z M289.7,330h7.7v1h-9v-4.2h1.2V330z
		 M298.9,322v1h-2v4.7h-1.2v-9.9h1.2v4.1H298.9z"/>
	<path class="st1" d="M303.5,329.4c3.4-3,5-5.2,5-7.1c0-1.3-0.7-2.2-2-2.2c-0.9,0-1.7,0.6-2.3,1.3l-0.8-0.8c0.9-1,1.8-1.6,3.2-1.6
		c2,0,3.2,1.3,3.2,3.3c0,2.2-1.7,4.4-4.3,6.9c0.6,0,1.2-0.1,1.8-0.1h3v1.2h-6.9V329.4z"/>
</g>
<g>
	<path class="st1" d="M687.2,95.7v1.6h-18.7v-1.6H687.2z M685.5,91.3c-3.1-0.7-6.3-2.9-7.7-6c-1.3,3-4.5,5.2-7.6,6l-0.9-1.6
		c3.6-0.7,7.5-3.8,7.5-7.3v-1.6h2v1.6c0,3.5,3.9,6.6,7.5,7.3L685.5,91.3z"/>
	<path class="st1" d="M690.5,81.5h9.5v13.3h-9.5V81.5z M692.4,93.2h5.8V83h-5.8V93.2z M709,89.2h-3.4V100h-1.9V79.4h1.9v8.2h3.4
		V89.2z"/>
	<path class="st1" d="M729.6,95.8v1.5h-18.7v-1.5H729.6z M727.4,92h-14.2V81.2h14v1.5h-12v3.1h11.6v1.5h-11.6v3.3h12.3V92z"/>
	<path class="st1" d="M743.6,79.9h1.8v19h-1.8v-7.1h-3.7v-1.5h3.7v-3.6h-3.4c-1,3.5-3.2,6.6-7.1,8.9l-1.1-1.3
		c4.4-2.6,6.6-6.3,7-10.7h-6V82h7.9c0,1.1-0.1,2.1-0.3,3.1h3.1V79.9z M749.6,79.4V100h-1.8V79.4H749.6z"/>
	<path class="st1" d="M759,90.4c-3.1,0-5.4-2-5.4-4.9c0-2.9,2.3-4.9,5.4-4.9c3.1,0,5.4,2,5.4,4.9C764.3,88.4,762.1,90.4,759,90.4z
		 M759,88.8c2,0,3.5-1.4,3.5-3.3c0-2-1.5-3.3-3.5-3.3c-2.1,0-3.5,1.3-3.5,3.3C755.4,87.4,756.9,88.8,759,88.8z M755.8,92.6h13.4v7.4
		h-1.9v-5.9h-11.5V92.6z M769.2,84.1v2.9h3v1.5h-3v3.2h-1.9V79.4h1.9v3.1h3v1.6H769.2z"/>
</g>
<g>
	<path class="st1" d="M631.1,136.9c3.2,0,5.5-0.1,8.1-0.6l0.2,1.4c-2.7,0.5-5.1,0.6-8.5,0.6h-1.4v-11.8h8.3v1.4h-6.7V136.9z
		 M645.5,133.2h-3v9.5h-1.6v-18h1.6v7.1h3V133.2z"/>
	<path class="st1" d="M656.9,132.4c0,3.8-1.9,6.3-4.6,6.3c-2.7,0-4.6-2.4-4.6-6.3s1.9-6.3,4.6-6.3
		C655,126.2,656.9,128.6,656.9,132.4z M649.3,132.4c0,2.9,1.2,4.8,3,4.8c1.7,0,3-1.9,3-4.8c0-2.9-1.2-4.8-3-4.8
		C650.6,127.7,649.3,129.5,649.3,132.4z M661.8,124.8v18h-1.6v-18H661.8z"/>
	<path class="st1" d="M681.8,139v1.4h-16.3V139H681.8z M680.3,135.2c-2.7-0.6-5.5-2.5-6.7-5.2c-1.1,2.6-3.9,4.5-6.6,5.2l-0.7-1.4
		c3.1-0.6,6.5-3.3,6.5-6.4v-1.4h1.7v1.4c0,3.1,3.4,5.8,6.5,6.4L680.3,135.2z"/>
	<path class="st1" d="M697.6,126.7c0,5.1-2.3,9.7-8.1,12.6l-0.9-1.3c4.6-2.3,7-5.7,7.4-10h-6.6v-1.4H697.6z M705.1,133.4h-2.9v9.3
		h-1.6v-17.9h1.6v7.3h2.9V133.4z"/>
	<path class="st1" d="M713.4,130.6c0,3,2,5.9,4.7,7.1l-0.9,1.3c-2.1-0.9-3.8-2.9-4.6-5.2c-0.8,2.5-2.5,4.5-4.6,5.5l-0.9-1.2
		c2.7-1.3,4.6-4.3,4.6-7.4v-1.4h-4.2v-1.3h4.1v-2.8h1.7v2.8h4.1v1.3h-4.1V130.6z M721.5,124.8v17.9h-1.7v-17.9H721.5z"/>
	<path class="st1" d="M739.3,135.1c-2-0.7-3.6-2.2-4.4-4.1c-0.7,2.1-2.3,3.8-4.5,4.6l-0.9-1.3c2.7-1,4.5-3.4,4.5-6.2v-2.2h1.6v2.3
		c0,2.5,1.8,4.7,4.4,5.7L739.3,135.1z M734.1,141h10.3v1.3h-11.9v-5.6h1.6V141z M746.3,130.3v1.4h-2.7v6.4H742v-13.3h1.6v5.5H746.3z
		"/>
	<path class="st1" d="M757,134v1.7h5.2v3.9h-10.5v1.7h11.1v1.2h-12.7v-4.1h10.5v-1.5H750v-1.2h5.3V134h-7.3v-1.3h16.2v1.3H757z
		 M748.9,130.7c3.3-0.2,6.1-1.3,6.3-3.1h-5.5v-1.2h5.6v-1.7h1.6v1.7h5.6v1.2h-5.5c0.3,1.8,3,2.9,6.3,3.1L763,132
		c-3-0.2-5.6-1.2-6.7-2.8c-1.1,1.7-3.8,2.6-6.8,2.8L748.9,130.7z"/>
	<path class="st1" d="M787.2,133.2v1.3H771v-1.3h6.6v-3.4h1.6v3.4H787.2z M785.3,139.4c0,2-2.4,3.3-6.3,3.3c-3.8,0-6.2-1.2-6.2-3.3
		c0-2.1,2.4-3.3,6.2-3.3C782.8,136.1,785.3,137.4,785.3,139.4z M783.5,127h-10.6v-1.3h12.2v1.5c0,1.4,0,2.9-0.5,4.7l-1.6-0.2
		c0.5-1.8,0.5-3.2,0.5-4.6V127z M783.6,139.4c0-1.3-1.8-2-4.6-2c-2.8,0-4.6,0.8-4.6,2c0,1.2,1.8,2,4.6,2
		C781.8,141.4,783.6,140.7,783.6,139.4z"/>
	<path class="st1" d="M799.4,134.5c-2.1-0.7-3.7-2.3-4.5-4.3c-0.8,2.1-2.4,3.8-4.5,4.6l-0.8-1.3c2.7-1,4.5-3.5,4.5-6.2v-1.8h1.6v1.8
		c0,2.6,1.8,4.9,4.5,5.8L799.4,134.5z M792.1,136.5h12v6.2h-1.6v-4.9h-10.4V136.5z M804.1,124.8v10.8h-1.6v-10.8H804.1z"/>
	<path class="st1" d="M808.2,132.1c0-0.8,0.6-1.4,1.3-1.4c0.7,0,1.3,0.6,1.3,1.4c0,0.8-0.6,1.4-1.3,1.4
		C808.8,133.5,808.2,132.9,808.2,132.1z M808.2,140.1c0-0.8,0.6-1.4,1.3-1.4c0.7,0,1.3,0.6,1.3,1.4c0,0.8-0.6,1.4-1.3,1.4
		C808.8,141.5,808.2,141,808.2,140.1z"/>
</g>
</svg>
