<svg xmlns="http://www.w3.org/2000/svg" viewBox="0 0 120.531 125.967">
  <defs>
    <style>
      .cls-1 {
        fill: #2c2f33;
      }

      .cls-2 {
        fill: #3c92ca;
      }
    </style>
  </defs>
  <g id="like" transform="translate(-10.542)">
    <g id="Group_2" data-name="Group 2" transform="translate(10.542 0)">
      <path id="Path_5" data-name="Path 5" class="cls-1" d="M130.34,48.494A6.476,6.476,0,0,0,127.5,39.78l-13.922-7.064a1.329,1.329,0,0,1-.722-1.005l-2.423-15.417a6.438,6.438,0,0,0-6.394-5.466,6.943,6.943,0,0,0-1.031.077L87.595,13.355a1.349,1.349,0,0,1-1.186-.387L75.4,1.908a6.473,6.473,0,0,0-9.178,0L55.188,12.942a1.409,1.409,0,0,1-.98.412A.5.5,0,0,1,54,13.329L38.585,10.88a6.943,6.943,0,0,0-1.031-.077,6.438,6.438,0,0,0-6.394,5.466L28.736,31.685a1.393,1.393,0,0,1-.722,1.005L14.092,39.755a6.386,6.386,0,0,0-3.223,3.764,6.478,6.478,0,0,0,.387,4.95l7.09,13.9a1.315,1.315,0,0,1,0,1.237l-7.09,13.9a6.476,6.476,0,0,0,2.836,8.714l13.922,7.064a1.329,1.329,0,0,1,.722,1.005L31.16,109.7a6.438,6.438,0,0,0,6.394,5.466,6.944,6.944,0,0,0,1.031-.077L54,112.638a1.349,1.349,0,0,1,1.186.387l11.034,11.034a6.473,6.473,0,0,0,9.178,0l11.034-11.034a1.349,1.349,0,0,1,1.186-.387l15.417,2.449a6.942,6.942,0,0,0,1.031.077,6.438,6.438,0,0,0,6.394-5.466l2.423-15.417a1.393,1.393,0,0,1,.722-1.005l13.922-7.064a6.386,6.386,0,0,0,3.223-3.764,6.478,6.478,0,0,0-.387-4.95l-7.09-13.9a1.315,1.315,0,0,1,0-1.237ZM118.687,65.948l7.09,13.9a1.368,1.368,0,0,1,.077,1.057,1.264,1.264,0,0,1-.7.8l-13.922,7.064a6.432,6.432,0,0,0-3.455,4.77l-2.423,15.417a1.375,1.375,0,0,1-1.573,1.134l-15.417-2.449a6.691,6.691,0,0,0-1.031-.077,6.436,6.436,0,0,0-4.589,1.908L71.791,120.5a1.4,1.4,0,0,1-1.934,0L58.823,109.467a6.545,6.545,0,0,0-4.589-1.908,6.943,6.943,0,0,0-1.031.077l-15.417,2.449a1.375,1.375,0,0,1-1.573-1.134L33.789,93.534a6.5,6.5,0,0,0-3.455-4.77L16.413,81.7a1.341,1.341,0,0,1-.7-.8,1.494,1.494,0,0,1,.077-1.057l7.09-13.9a6.448,6.448,0,0,0,0-5.9l-7.09-13.9a1.368,1.368,0,0,1-.077-1.057,1.264,1.264,0,0,1,.7-.8l13.922-7.064a6.432,6.432,0,0,0,3.455-4.77l2.423-15.417a1.375,1.375,0,0,1,1.573-1.134L53.2,18.356a6.691,6.691,0,0,0,1.031.077h0a6.436,6.436,0,0,0,4.589-1.908L69.831,5.517a1.4,1.4,0,0,1,1.934,0L82.8,16.552a6.393,6.393,0,0,0,4.589,1.908,6.942,6.942,0,0,0,1.031-.077l15.417-2.449a1.389,1.389,0,0,1,1.573,1.134l2.423,15.417a6.5,6.5,0,0,0,3.455,4.77l13.922,7.064a1.341,1.341,0,0,1,.7.8,1.369,1.369,0,0,1-.077,1.057l-7.09,13.9A6.4,6.4,0,0,0,118.687,65.948Z" transform="translate(-10.542 0)"/>
      <path id="Path_6" data-name="Path 6" class="cls-2" d="M175.709,130.968H164.34v-7.889c0-4.177-1.263-7.219-3.764-9.049-3.841-2.836-8.869-1.366-9.436-1.186a2.546,2.546,0,0,0-1.779,2.423v10.08c0,7.09-8.456,9.591-8.791,9.694a3.072,3.072,0,0,0-.516.206,5.106,5.106,0,0,0-3.016-1.005h-7.3a5.034,5.034,0,0,0-5.027,5.027v25.188a5.034,5.034,0,0,0,5.027,5.027h7.3a5.122,5.122,0,0,0,3.274-1.212,9.119,9.119,0,0,0,5.827,2.114h24.7c5.981,0,9.977-3.3,10.673-8.817l3.326-21.089a1.951,1.951,0,0,0,.026-.387A9.149,9.149,0,0,0,175.709,130.968Zm-38.723,33.464h-7.167V139.373h7.167Zm39.5-3.558v.077c-.155,1.186-.541,4.383-5.62,4.383h-24.7a4.082,4.082,0,0,1-4.073-4.073V139.94c1.444-.438,12.375-4.073,12.375-14.566v-7.941a4.814,4.814,0,0,1,3.094.722c1.109.825,1.65,2.475,1.65,4.924V133.52a2.542,2.542,0,0,0,2.552,2.552h13.922a4.041,4.041,0,0,1,4.048,3.893Z" transform="translate(-95.279 -83.35)"/>
    </g>
  </g>
</svg>
