<?xml version="1.0" encoding="utf-8"?>
<!-- Generator: Adobe Illustrator 22.0.1, SVG Export Plug-In . SVG Version: 6.00 Build 0)  -->
<svg version="1.1" id="Слой_1" xmlns="http://www.w3.org/2000/svg" xmlns:xlink="http://www.w3.org/1999/xlink" x="0px" y="0px"
	 viewBox="0 0 880.1 361.4" style="enable-background:new 0 0 880.1 361.4;" xml:space="preserve">
<style type="text/css">
	.st0{fill:#F2F3F4;}
	.st1{fill:#676768;}
	.st2{fill:#636363;}
	.st3{fill:#FF9D46;}
	.st4{fill:#FF5F65;}
	.st5{fill:#E8836B;}
	.st6{fill:#CA4E4B;}
	.st7{fill:#4F4145;}
	.st8{fill:none;stroke:#563D40;stroke-width:0.2;stroke-miterlimit:10;}
	.st9{fill:none;stroke:#CA4E4B;stroke-width:0.3;stroke-miterlimit:10;}
	.st10{fill:#0088D0;}
	.st11{fill:#1A1A1A;}
	.st12{fill:none;stroke:#000000;stroke-width:0.2;stroke-miterlimit:10;}
</style>
<g>
	<rect x="569.9" y="22.3" class="st0" width="301.4" height="66.7"/>
</g>
<g>
	<rect x="569.9" y="89.2" class="st0" width="301.4" height="253.9"/>
</g>
<g>
	<g>
		<path class="st1" d="M609.8,170.1v-14.3h4c1.2,0,2.2,0.3,3.2,0.8s1.7,1.3,2.2,2.3s0.8,2.1,0.8,3.4v1.3c0,1.3-0.3,2.4-0.8,3.4
			s-1.2,1.8-2.2,2.3c-0.9,0.5-2,0.8-3.2,0.8H609.8z M611,156.8v12.3h2.7c1.5,0,2.7-0.5,3.6-1.5c0.9-1,1.4-2.4,1.4-4.1v-1.3
			c0-1.6-0.4-3-1.3-4c-0.9-1-2.1-1.5-3.6-1.5H611V156.8z"/>
		<path class="st1" d="M628,170.1h-1.2v-12.9l-3.9,1.4v-1.1l4.9-1.8h0.2V170.1z"/>
		<path class="st1" d="M642,162h-8.2v-1h8.2V162z M642,166h-8.2v-1h8.2V166z"/>
		<path class="st1" d="M644.8,164.3c0-1.4,0.2-2.8,0.6-4.2c0.4-1.3,0.9-2.6,1.6-3.7c0.7-1.1,1.5-1.9,2.3-2.4l0.3,0.8
			c-0.4,0.3-0.9,0.8-1.3,1.3s-0.8,1.3-1.1,2.1s-0.6,1.7-0.8,2.7s-0.3,2.2-0.3,3.4c0,1.4,0.2,2.7,0.5,4s0.7,2.4,1.3,3.4
			c0.5,1,1.1,1.7,1.8,2.2l-0.3,0.8c-0.8-0.5-1.6-1.3-2.3-2.4s-1.2-2.3-1.6-3.7C645,167.3,644.8,165.9,644.8,164.3z"/>
		<path class="st1" d="M661.4,156.8h-4.9v13.3h-1.2v-13.3h-4.9v-1h11L661.4,156.8L661.4,156.8z"/>
		<path class="st1" d="M668.7,170.1h-1.2v-12.9l-3.9,1.4v-1.1l4.9-1.8h0.2V170.1z"/>
		<path class="st1" d="M679.3,162.8h4.4v1.1h-4.4v4.7h-1.2v-4.7h-4.3v-1.1h4.3v-4.6h1.2V162.8z"/>
		<path class="st1" d="M694,166.1h-6.5l-1.5,4h-1.3l5.4-14.3h1.2l5.4,14.3h-1.3L694,166.1z M687.9,165.1h5.7l-2.9-7.8L687.9,165.1z"
			/>
		<path class="st1" d="M703.9,170.1h-1.2v-12.9l-3.9,1.4v-1.1l4.9-1.8h0.2V170.1z"/>
		<path class="st1" d="M714.4,162.8h4.4v1.1h-4.4v4.7h-1.2v-4.7h-4.3v-1.1h4.3v-4.6h1.2V162.8z"/>
		<path class="st1" d="M731.1,156.8h-4.9v13.3H725v-13.3h-4.9v-1h11V156.8z"/>
		<path class="st1" d="M741.9,170.1h-9v-0.9l4.9-5.6c0.8-0.9,1.4-1.7,1.7-2.3s0.5-1.2,0.5-1.8c0-0.9-0.3-1.6-0.8-2.1
			s-1.3-0.8-2.2-0.8c-1,0-1.7,0.3-2.3,0.9c-0.6,0.6-0.9,1.4-0.9,2.4h-1.2c0-0.8,0.2-1.5,0.5-2.2s0.9-1.2,1.6-1.6
			c0.7-0.4,1.4-0.6,2.3-0.6c1.3,0,2.3,0.3,3.1,1c0.7,0.7,1.1,1.6,1.1,2.8c0,0.7-0.2,1.4-0.6,2.2c-0.4,0.8-1.1,1.8-2.2,3l-4,4.5h7.5
			L741.9,170.1L741.9,170.1z"/>
		<path class="st1" d="M747.8,164.5c0,1.4-0.2,2.8-0.5,4.2c-0.4,1.3-0.9,2.6-1.6,3.7c-0.7,1.1-1.5,1.9-2.3,2.4l-0.3-0.8
			c0.6-0.5,1.2-1.2,1.8-2.1c0.5-1,1-2.1,1.3-3.4c0.3-1.3,0.5-2.7,0.5-4.2c0-1.4-0.2-2.7-0.5-3.9c-0.3-1.3-0.7-2.4-1.3-3.4
			s-1.1-1.7-1.8-2.2l0.3-0.8c0.8,0.5,1.6,1.3,2.3,2.4c0.7,1.1,1.2,2.3,1.6,3.7C747.7,161.5,747.8,163,747.8,164.5z"/>
		<path class="st1" d="M756.9,159.5v1.7c0.4-0.6,0.9-1.1,1.5-1.4c0.6-0.3,1.2-0.5,2-0.5c1.7,0,2.7,0.7,3.2,2.1
			c0.4-0.7,0.9-1.2,1.5-1.5c0.6-0.4,1.3-0.5,2.1-0.5c2.3,0,3.4,1.2,3.5,3.7v7.1h-1.2v-7c0-1-0.2-1.7-0.6-2.1c-0.4-0.5-1.1-0.7-2-0.7
			c-0.8,0-1.6,0.3-2.1,0.8s-0.9,1.2-1,2v7h-1.2V163c0-0.9-0.2-1.6-0.6-2c-0.4-0.4-1.1-0.7-2-0.7c-0.7,0-1.4,0.2-1.9,0.6
			c-0.5,0.4-0.9,1.1-1.2,1.9v7.3h-1.2v-10.6H756.9z"/>
		<path class="st1" d="M773,164.6c0-1,0.2-1.9,0.6-2.8c0.4-0.8,1-1.5,1.7-1.9s1.5-0.7,2.5-0.7c1.4,0,2.6,0.5,3.4,1.5s1.3,2.3,1.3,4
			v0.2c0,1-0.2,2-0.6,2.8c-0.4,0.8-1,1.5-1.7,1.9s-1.5,0.7-2.5,0.7c-1.4,0-2.6-0.5-3.4-1.5c-0.9-1-1.3-2.3-1.3-4V164.6z M774.2,165
			c0,1.3,0.3,2.3,1,3.1s1.5,1.2,2.6,1.2s1.9-0.4,2.6-1.2c0.7-0.8,1-1.9,1-3.2v-0.2c0-0.8-0.2-1.6-0.5-2.2c-0.3-0.7-0.7-1.2-1.3-1.6
			c-0.5-0.4-1.2-0.6-1.9-0.6c-1,0-1.9,0.4-2.6,1.2c-0.7,0.8-1,1.9-1,3.2v0.3H774.2z"/>
		<path class="st1" d="M784.5,164.7c0-1.7,0.4-3,1.1-4c0.7-1,1.7-1.5,3-1.5c1.4,0,2.5,0.6,3.3,1.7v-6h1.2V170H792v-1.4
			c-0.8,1.1-1.9,1.6-3.3,1.6c-1.2,0-2.2-0.5-3-1.5s-1.1-2.3-1.1-4l0,0L784.5,164.7L784.5,164.7z M785.6,164.9c0,1.4,0.3,2.4,0.8,3.2
			s1.3,1.2,2.3,1.2c1.5,0,2.5-0.6,3.1-1.9v-5c-0.6-1.4-1.6-2.1-3.1-2.1c-1,0-1.8,0.4-2.3,1.2C785.9,162.3,785.6,163.4,785.6,164.9z"
			/>
		<path class="st1" d="M807.8,155.7v1h-0.1c-1.7,0-3.1,0.5-4,1.5c-1,1-1.5,2.4-1.6,4.2c0.4-0.5,0.9-1,1.5-1.3s1.3-0.4,2-0.4
			c1.3,0,2.3,0.4,3,1.3c0.7,0.9,1.1,2,1.1,3.4c0,0.9-0.2,1.8-0.5,2.5s-0.8,1.3-1.5,1.7c-0.6,0.4-1.4,0.6-2.2,0.6
			c-1.4,0-2.5-0.5-3.3-1.5s-1.3-2.3-1.3-3.9v-1.2c0-2.6,0.6-4.6,1.8-6s2.8-2.1,5-2.1h0.1V155.7z M805.3,161.7
			c-0.7,0-1.4,0.2-2.1,0.7c-0.6,0.4-1.1,1-1.3,1.7v1c0,1.2,0.3,2.3,1,3s1.5,1.2,2.5,1.2c0.9,0,1.7-0.4,2.2-1.1
			c0.6-0.7,0.9-1.6,0.9-2.8c0-1.1-0.3-2-0.9-2.7C807.1,162.1,806.3,161.7,805.3,161.7z"/>
		<path class="st1" d="M816.9,162.8h4.4v1.1h-4.4v4.7h-1.2v-4.7h-4.3v-1.1h4.3v-4.6h1.2V162.8z"/>
		<path class="st1" d="M828.9,170.1h-1.2v-12.9l-3.9,1.4v-1.1l4.9-1.8h0.2V170.1z"/>
		<path class="st1" d="M609.5,200.4V186h4c1.2,0,2.2,0.3,3.2,0.8s1.7,1.3,2.2,2.3s0.8,2.1,0.8,3.4v1.3c0,1.3-0.3,2.4-0.8,3.4
			s-1.2,1.8-2.2,2.3s-2,0.8-3.2,0.8L609.5,200.4L609.5,200.4z M610.7,187.1v12.3h2.7c1.5,0,2.7-0.5,3.6-1.5c0.9-1,1.4-2.4,1.4-4.1
			v-1.3c0-1.6-0.4-3-1.3-4c-0.9-1-2.1-1.5-3.6-1.5h-2.8L610.7,187.1L610.7,187.1z"/>
		<path class="st1" d="M631.2,200.4h-9v-0.9l4.9-5.6c0.8-0.9,1.4-1.7,1.7-2.3s0.5-1.2,0.5-1.8c0-0.9-0.3-1.6-0.8-2.2
			c-0.5-0.5-1.3-0.8-2.2-0.8c-1,0-1.7,0.3-2.3,0.9c-0.6,0.6-0.9,1.4-0.9,2.4h-1.2c0-0.8,0.2-1.5,0.5-2.2c0.4-0.7,0.9-1.2,1.6-1.6
			c0.7-0.4,1.4-0.6,2.3-0.6c1.3,0,2.3,0.3,3.1,1s1.1,1.6,1.1,2.8c0,0.7-0.2,1.4-0.6,2.2s-1.1,1.8-2.2,3l-4,4.5h7.5L631.2,200.4
			L631.2,200.4z"/>
		<path class="st1" d="M641.7,192.2h-8.2v-1h8.2V192.2z M641.7,196.2h-8.2v-1h8.2V196.2z"/>
		<path class="st1" d="M644.6,194.6c0-1.4,0.2-2.8,0.6-4.2c0.4-1.3,0.9-2.6,1.6-3.7c0.7-1.1,1.5-1.9,2.3-2.4l0.3,0.8
			c-0.4,0.3-0.9,0.8-1.3,1.3c-0.4,0.6-0.8,1.3-1.1,2.1s-0.6,1.7-0.8,2.7s-0.3,2.2-0.3,3.4c0,1.4,0.2,2.7,0.5,4s0.7,2.4,1.3,3.4
			s1.1,1.7,1.8,2.2L649,205c-0.8-0.5-1.6-1.3-2.3-2.4s-1.2-2.3-1.6-3.7C644.7,197.6,644.6,196.1,644.6,194.6z"/>
		<path class="st1" d="M661.1,187.1h-4.9v13.3H655v-13.3h-4.9v-1h11V187.1z"/>
		<path class="st1" d="M668.5,200.4h-1.2v-12.9l-3.9,1.4v-1.1l4.9-1.8h0.2V200.4z"/>
		<path class="st1" d="M679,193.1h4.4v1.1H679v4.7h-1.2v-4.7h-4.3v-1.1h4.3v-4.6h1.2V193.1z"/>
		<path class="st1" d="M693.7,196.3h-6.5l-1.5,4h-1.3l5.4-14.3h1.2l5.4,14.3h-1.3L693.7,196.3z M687.6,195.3h5.7l-2.9-7.8
			L687.6,195.3z"/>
		<path class="st1" d="M703.6,200.4h-1.2v-12.9l-3.9,1.4v-1.1l4.9-1.8h0.2V200.4z"/>
		<path class="st1" d="M714.1,193.1h4.4v1.1h-4.4v4.7h-1.2v-4.7h-4.3v-1.1h4.3v-4.6h1.2V193.1z"/>
		<path class="st1" d="M728.9,196.3h-6.5l-1.5,4h-1.3L725,186h1.2l5.4,14.3h-1.3L728.9,196.3z M722.7,195.3h5.7l-2.9-7.8
			L722.7,195.3z"/>
		<path class="st1" d="M742.2,200.4h-9v-0.9l4.9-5.6c0.8-0.9,1.4-1.7,1.7-2.3s0.5-1.2,0.5-1.8c0-0.9-0.3-1.6-0.8-2.2
			s-1.3-0.8-2.2-0.8c-1,0-1.7,0.3-2.3,0.9c-0.6,0.6-0.9,1.4-0.9,2.4h-1.2c0-0.8,0.2-1.5,0.5-2.2c0.4-0.7,0.9-1.2,1.6-1.6
			c0.7-0.4,1.4-0.6,2.3-0.6c1.3,0,2.3,0.3,3.1,1c0.7,0.7,1.1,1.6,1.1,2.8c0,0.7-0.2,1.4-0.6,2.2c-0.4,0.8-1.1,1.8-2.2,3l-4,4.5h7.5
			L742.2,200.4L742.2,200.4z"/>
		<path class="st1" d="M748.1,194.7c0,1.4-0.2,2.8-0.5,4.2s-0.9,2.6-1.6,3.7c-0.7,1.1-1.5,1.9-2.3,2.4l-0.3-0.8
			c0.6-0.5,1.2-1.2,1.8-2.1c0.5-1,1-2.1,1.3-3.4c0.3-1.3,0.5-2.7,0.5-4.2c0-1.4-0.2-2.7-0.5-3.9c-0.3-1.3-0.7-2.4-1.3-3.4
			s-1.1-1.7-1.8-2.2l0.3-0.8c0.8,0.5,1.6,1.3,2.3,2.4s1.2,2.3,1.6,3.7C747.9,191.8,748.1,193.2,748.1,194.7z"/>
		<path class="st1" d="M757.1,189.7v1.7c0.4-0.6,0.9-1.1,1.5-1.4c0.6-0.3,1.2-0.5,2-0.5c1.7,0,2.7,0.7,3.2,2.1
			c0.4-0.7,0.9-1.2,1.5-1.5c0.6-0.4,1.3-0.5,2.1-0.5c2.3,0,3.4,1.2,3.5,3.7v7.1h-1.2v-7c0-1-0.2-1.7-0.6-2.1c-0.4-0.5-1.1-0.7-2-0.7
			c-0.8,0-1.6,0.3-2.1,0.8c-0.6,0.5-0.9,1.2-1,2v7h-1.2v-7.1c0-0.9-0.2-1.6-0.6-2c-0.4-0.4-1.1-0.7-2-0.7c-0.7,0-1.4,0.2-1.9,0.6
			c-0.5,0.4-0.9,1.1-1.2,1.9v7.3H756v-10.6h1.1V189.7z"/>
		<path class="st1" d="M773.3,194.9c0-1,0.2-1.9,0.6-2.8c0.4-0.8,1-1.5,1.7-1.9s1.5-0.7,2.5-0.7c1.4,0,2.6,0.5,3.4,1.5
			s1.3,2.3,1.3,4v0.2c0,1-0.2,2-0.6,2.8c-0.4,0.8-1,1.5-1.7,1.9s-1.5,0.7-2.5,0.7c-1.4,0-2.6-0.5-3.4-1.5c-0.9-1-1.3-2.3-1.3-4
			V194.9z M774.5,195.2c0,1.3,0.3,2.3,1,3.1s1.5,1.2,2.6,1.2s1.9-0.4,2.6-1.2c0.7-0.8,1-1.9,1-3.2v-0.2c0-0.8-0.2-1.6-0.5-2.2
			s-0.7-1.2-1.3-1.6c-0.5-0.4-1.2-0.6-1.9-0.6c-1,0-1.9,0.4-2.6,1.2c-0.7,0.8-1,1.9-1,3.2v0.3H774.5z"/>
		<path class="st1" d="M784.7,194.9c0-1.7,0.4-3,1.1-4c0.7-1,1.7-1.5,3-1.5c1.4,0,2.5,0.6,3.3,1.7v-6h1.2v15.1h-1.1v-1.4
			c-0.8,1.1-1.9,1.6-3.3,1.6c-1.2,0-2.2-0.5-3-1.5s-1.1-2.3-1.1-4l0,0L784.7,194.9L784.7,194.9z M785.9,195.1c0,1.4,0.3,2.4,0.8,3.2
			s1.3,1.2,2.3,1.2c1.5,0,2.5-0.6,3.1-1.9v-5c-0.6-1.4-1.6-2.1-3.1-2.1c-1,0-1.8,0.4-2.3,1.2S785.9,193.6,785.9,195.1z"/>
		<path class="st1" d="M808.1,185.9v1H808c-1.7,0-3.1,0.5-4,1.5c-1,1-1.5,2.4-1.6,4.2c0.4-0.5,0.9-1,1.5-1.3s1.3-0.4,2-0.4
			c1.3,0,2.3,0.4,3,1.3c0.7,0.9,1.1,2,1.1,3.4c0,0.9-0.2,1.8-0.5,2.5s-0.8,1.3-1.5,1.7c-0.6,0.4-1.4,0.6-2.2,0.6
			c-1.4,0-2.5-0.5-3.3-1.5s-1.3-2.3-1.3-3.9v-1c0-2.6,0.6-4.6,1.8-6S805.8,185.9,808.1,185.9L808.1,185.9z M805.6,192
			c-0.7,0-1.4,0.2-2.1,0.7c-0.6,0.4-1.1,1-1.3,1.7v1c0,1.2,0.3,2.3,1,3s1.5,1.2,2.5,1.2c0.9,0,1.7-0.4,2.2-1.1
			c0.6-0.7,0.9-1.6,0.9-2.8c0-1.1-0.3-2-0.9-2.7S806.6,192,805.6,192z"/>
		<path class="st1" d="M817.1,193.1h4.4v1.1h-4.4v4.7h-1.2v-4.7h-4.3v-1.1h4.3v-4.6h1.2V193.1z"/>
		<path class="st1" d="M829.1,200.4H828v-12.9l-3.9,1.4v-1.1l4.9-1.8h0.2v14.4L829.1,200.4L829.1,200.4z"/>
		<path class="st1" d="M609.8,230.6v-14.3h4c1.2,0,2.2,0.3,3.2,0.8s1.7,1.3,2.2,2.3s0.8,2.1,0.8,3.4v1.3c0,1.3-0.3,2.4-0.8,3.4
			s-1.2,1.8-2.2,2.3s-2,0.8-3.2,0.8H609.8z M611,217.3v12.3h2.7c1.5,0,2.7-0.5,3.6-1.5c0.9-1,1.4-2.4,1.4-4.1v-1.3
			c0-1.6-0.4-3-1.3-4c-0.9-1-2.1-1.5-3.6-1.5H611V217.3z"/>
		<path class="st1" d="M625.1,222.8h1.2c0.7,0,1.3-0.1,1.8-0.4c0.5-0.2,0.9-0.6,1.2-1s0.4-0.9,0.4-1.4c0-0.9-0.3-1.6-0.8-2.2
			s-1.3-0.8-2.2-0.8s-1.7,0.3-2.3,0.8s-0.9,1.3-0.9,2.1h-1.2c0-0.7,0.2-1.4,0.6-2s0.9-1.1,1.6-1.4c0.7-0.3,1.4-0.5,2.2-0.5
			c1.3,0,2.3,0.4,3.1,1.1c0.7,0.7,1.1,1.7,1.1,2.9c0,0.7-0.2,1.3-0.7,1.9c-0.4,0.6-1,1-1.8,1.3c0.9,0.2,1.6,0.7,2,1.3
			c0.5,0.6,0.7,1.3,0.7,2.2c0,1.2-0.4,2.2-1.2,3s-1.9,1.1-3.2,1.1c-0.9,0-1.6-0.2-2.3-0.5s-1.3-0.8-1.7-1.4
			c-0.4-0.6-0.6-1.3-0.6-2.1h1.2c0,0.9,0.3,1.7,1,2.2c0.6,0.6,1.5,0.9,2.4,0.9c1,0,1.8-0.3,2.4-0.8s0.9-1.3,0.9-2.3
			s-0.3-1.7-0.9-2.2c-0.6-0.5-1.5-0.8-2.7-0.8h-1.2L625.1,222.8L625.1,222.8z"/>
		<path class="st1" d="M642,222.4h-8.2v-1h8.2V222.4z M642,226.5h-8.2v-1h8.2V226.5z"/>
		<path class="st1" d="M644.8,224.8c0-1.4,0.2-2.8,0.6-4.2c0.4-1.3,0.9-2.6,1.6-3.7c0.7-1.1,1.5-1.9,2.3-2.4l0.3,0.8
			c-0.4,0.3-0.9,0.8-1.3,1.3c-0.4,0.6-0.8,1.3-1.1,2.1s-0.6,1.7-0.8,2.7s-0.3,2.2-0.3,3.4c0,1.4,0.2,2.7,0.5,4s0.7,2.4,1.3,3.4
			s1.1,1.7,1.8,2.2l-0.3,0.8c-0.8-0.5-1.6-1.3-2.3-2.4s-1.2-2.3-1.6-3.7C645,227.8,644.8,226.3,644.8,224.8z"/>
		<path class="st1" d="M661.4,217.3h-4.9v13.3h-1.2v-13.3h-4.9v-1h11L661.4,217.3L661.4,217.3z"/>
		<path class="st1" d="M668.7,230.6h-1.2v-12.9l-3.9,1.4V218l4.9-1.8h0.2V230.6z"/>
		<path class="st1" d="M679.3,223.3h4.4v1.1h-4.4v4.7h-1.2v-4.7h-4.3v-1.1h4.3v-4.6h1.2V223.3z"/>
		<path class="st1" d="M696,217.3h-4.9v13.3h-1.2v-13.3H685v-1h11V217.3z"/>
		<path class="st1" d="M706.8,230.6h-9v-0.9l4.9-5.6c0.8-0.9,1.4-1.7,1.7-2.3s0.5-1.2,0.5-1.8c0-0.9-0.3-1.6-0.8-2.2
			s-1.3-0.8-2.2-0.8c-1,0-1.7,0.3-2.3,0.9c-0.6,0.6-0.9,1.4-0.9,2.4h-1.2c0-0.8,0.2-1.5,0.5-2.2c0.4-0.7,0.9-1.2,1.6-1.6
			c0.7-0.4,1.4-0.6,2.3-0.6c1.3,0,2.3,0.3,3.1,1c0.7,0.7,1.1,1.6,1.1,2.8c0,0.7-0.2,1.4-0.6,2.2c-0.4,0.8-1.1,1.8-2.2,3l-4,4.5h7.5
			L706.8,230.6L706.8,230.6z"/>
		<path class="st1" d="M713.9,223.3h4.4v1.1h-4.4v4.7h-1.2v-4.7h-4.3v-1.1h4.3v-4.6h1.2V223.3z"/>
		<path class="st1" d="M728.6,226.6h-6.5l-1.5,4h-1.3l5.4-14.3h1.2l5.4,14.3H730L728.6,226.6z M722.4,225.5h5.7l-2.9-7.8
			L722.4,225.5z"/>
		<path class="st1" d="M741.9,230.6h-9v-0.9l4.9-5.6c0.8-0.9,1.4-1.7,1.7-2.3s0.5-1.2,0.5-1.8c0-0.9-0.3-1.6-0.8-2.2
			s-1.3-0.8-2.2-0.8c-1,0-1.7,0.3-2.3,0.9c-0.6,0.6-0.9,1.4-0.9,2.4h-1.2c0-0.8,0.2-1.5,0.5-2.2c0.4-0.7,0.9-1.2,1.6-1.6
			c0.7-0.4,1.4-0.6,2.3-0.6c1.3,0,2.3,0.3,3.1,1c0.7,0.7,1.1,1.6,1.1,2.8c0,0.7-0.2,1.4-0.6,2.2c-0.4,0.8-1.1,1.8-2.2,3l-4,4.5h7.5
			L741.9,230.6L741.9,230.6z"/>
		<path class="st1" d="M747.8,224.9c0,1.4-0.2,2.8-0.5,4.2s-0.9,2.6-1.6,3.7c-0.7,1.1-1.5,1.9-2.3,2.4l-0.3-0.8
			c0.6-0.5,1.2-1.2,1.8-2.1c0.5-1,1-2.1,1.3-3.4c0.3-1.3,0.5-2.7,0.5-4.2c0-1.4-0.2-2.7-0.5-3.9c-0.3-1.3-0.7-2.4-1.3-3.4
			s-1.1-1.7-1.8-2.2l0.3-0.8c0.8,0.5,1.6,1.3,2.3,2.4s1.2,2.3,1.6,3.7C747.7,222,747.8,223.4,747.8,224.9z"/>
		<path class="st1" d="M756.9,219.9v1.7c0.4-0.6,0.9-1.1,1.5-1.4c0.6-0.3,1.2-0.5,2-0.5c1.7,0,2.7,0.7,3.2,2.1
			c0.4-0.7,0.9-1.2,1.5-1.5c0.6-0.4,1.3-0.5,2.1-0.5c2.3,0,3.4,1.2,3.5,3.7v7.1h-1.2v-7c0-1-0.2-1.7-0.6-2.1c-0.4-0.5-1.1-0.7-2-0.7
			c-0.8,0-1.6,0.3-2.1,0.8c-0.6,0.5-0.9,1.2-1,2v7h-1.2v-7.1c0-0.9-0.2-1.6-0.6-2c-0.4-0.4-1.1-0.7-2-0.7c-0.7,0-1.4,0.2-1.9,0.6
			c-0.5,0.4-0.9,1.1-1.2,1.9v7.3h-1.2V220h1.2V219.9z"/>
		<path class="st1" d="M773,225.1c0-1,0.2-1.9,0.6-2.8c0.4-0.8,1-1.5,1.7-1.9s1.5-0.7,2.5-0.7c1.4,0,2.6,0.5,3.4,1.5s1.3,2.3,1.3,4
			v0.2c0,1-0.2,2-0.6,2.8c-0.4,0.8-1,1.5-1.7,1.9s-1.5,0.7-2.5,0.7c-1.4,0-2.6-0.5-3.4-1.5c-0.9-1-1.3-2.3-1.3-4V225.1z
			 M774.2,225.4c0,1.3,0.3,2.3,1,3.1s1.5,1.2,2.6,1.2s1.9-0.4,2.6-1.2c0.7-0.8,1-1.9,1-3.2v-0.2c0-0.8-0.2-1.6-0.5-2.2
			s-0.7-1.2-1.3-1.6c-0.5-0.4-1.2-0.6-1.9-0.6c-1,0-1.9,0.4-2.6,1.2c-0.7,0.8-1,1.9-1,3.2v0.3H774.2z"/>
		<path class="st1" d="M784.5,225.2c0-1.7,0.4-3,1.1-4c0.7-1,1.7-1.5,3-1.5c1.4,0,2.5,0.6,3.3,1.7v-6h1.2v15.1H792v-1.4
			c-0.8,1.1-1.9,1.6-3.3,1.6c-1.2,0-2.2-0.5-3-1.5s-1.1-2.3-1.1-4l0,0L784.5,225.2L784.5,225.2z M785.6,225.4c0,1.4,0.3,2.4,0.8,3.2
			s1.3,1.2,2.3,1.2c1.5,0,2.5-0.6,3.1-1.9v-5c-0.6-1.4-1.6-2.1-3.1-2.1c-1,0-1.8,0.4-2.3,1.2C785.9,222.7,785.6,223.9,785.6,225.4z"
			/>
		<path class="st1" d="M807.8,216.1v1h-0.1c-1.7,0-3.1,0.5-4,1.5c-1,1-1.5,2.4-1.6,4.2c0.4-0.5,0.9-1,1.5-1.3s1.3-0.4,2-0.4
			c1.3,0,2.3,0.4,3,1.3c0.7,0.9,1.1,2,1.1,3.4c0,0.9-0.2,1.8-0.5,2.5s-0.8,1.3-1.5,1.7c-0.6,0.4-1.4,0.6-2.2,0.6
			c-1.4,0-2.5-0.5-3.3-1.5s-1.3-2.3-1.3-3.9V224c0-2.6,0.6-4.6,1.8-6s2.8-2.1,5-2.1h0.1V216.1z M805.3,222.2c-0.7,0-1.4,0.2-2.1,0.7
			c-0.6,0.4-1.1,1-1.3,1.7v1c0,1.2,0.3,2.3,1,3s1.5,1.2,2.5,1.2c0.9,0,1.7-0.4,2.2-1.1c0.6-0.7,0.9-1.6,0.9-2.8c0-1.1-0.3-2-0.9-2.7
			S806.3,222.2,805.3,222.2z"/>
		<path class="st1" d="M816.9,223.3h4.4v1.1h-4.4v4.7h-1.2v-4.7h-4.3v-1.1h4.3v-4.6h1.2V223.3z"/>
		<path class="st1" d="M828.9,230.6h-1.2v-12.9l-3.9,1.4V218l4.9-1.8h0.2V230.6z"/>
		<path class="st1" d="M609.5,260.8v-14.3h4c1.2,0,2.2,0.3,3.2,0.8s1.7,1.3,2.2,2.3s0.8,2.1,0.8,3.4v1.3c0,1.3-0.3,2.4-0.8,3.4
			s-1.2,1.8-2.2,2.3s-2,0.8-3.2,0.8L609.5,260.8L609.5,260.8z M610.7,247.5v12.3h2.7c1.5,0,2.7-0.5,3.6-1.5c0.9-1,1.4-2.4,1.4-4.1
			V253c0-1.6-0.4-3-1.3-4c-0.9-1-2.1-1.5-3.6-1.5H610.7z"/>
		<path class="st1" d="M629.4,256.2h2.2v1h-2.2v3.6h-1.2v-3.6h-6.7v-0.7l6.6-10h1.3L629.4,256.2L629.4,256.2z M623,256.2h5.3V248
			l-0.5,0.9L623,256.2z"/>
		<path class="st1" d="M641.7,252.7h-8.2v-1h8.2V252.7z M641.7,256.7h-8.2v-1h8.2V256.7z"/>
		<path class="st1" d="M644.6,255c0-1.4,0.2-2.8,0.6-4.2c0.4-1.3,0.9-2.6,1.6-3.7c0.7-1.1,1.5-1.9,2.3-2.4l0.3,0.8
			c-0.4,0.3-0.9,0.8-1.3,1.3c-0.4,0.6-0.8,1.3-1.1,2.1s-0.6,1.7-0.8,2.7s-0.3,2.2-0.3,3.4c0,1.4,0.2,2.7,0.5,4s0.7,2.4,1.3,3.4
			s1.1,1.7,1.8,2.2l-0.3,0.8c-0.8-0.5-1.6-1.3-2.3-2.4s-1.2-2.3-1.6-3.7C644.7,258,644.6,256.6,644.6,255z"/>
		<path class="st1" d="M659.1,256.8h-6.5l-1.5,4h-1.3l5.4-14.3h1.2l5.4,14.3h-1.3L659.1,256.8z M653,255.8h5.7l-2.9-7.8L653,255.8z"
			/>
		<path class="st1" d="M669,260.8h-1.2v-12.9l-3.9,1.4v-1.1l4.9-1.8h0.2V260.8z"/>
		<path class="st1" d="M679.6,253.5h4.4v1.1h-4.4v4.7h-1.2v-4.7h-4.3v-1.1h4.3v-4.6h1.2V253.5z"/>
		<path class="st1" d="M696.3,247.5h-4.9v13.3h-1.2v-13.3h-4.9v-1h11L696.3,247.5L696.3,247.5z"/>
		<path class="st1" d="M707.1,260.8h-9v-0.9l4.9-5.6c0.8-0.9,1.4-1.7,1.7-2.3s0.5-1.2,0.5-1.8c0-0.9-0.3-1.6-0.8-2.2
			s-1.3-0.8-2.2-0.8c-1,0-1.7,0.3-2.3,0.9c-0.6,0.6-0.9,1.4-0.9,2.4h-1.2c0-0.8,0.2-1.5,0.5-2.2c0.4-0.7,0.9-1.2,1.6-1.6
			c0.7-0.4,1.4-0.6,2.3-0.6c1.3,0,2.3,0.3,3.1,1c0.7,0.7,1.1,1.6,1.1,2.8c0,0.7-0.2,1.4-0.6,2.2c-0.4,0.8-1.1,1.8-2.2,3l-4,4.5h7.5
			L707.1,260.8L707.1,260.8z"/>
		<path class="st1" d="M714.1,253.5h4.4v1.1h-4.4v4.7h-1.2v-4.7h-4.3v-1.1h4.3v-4.6h1.2V253.5z"/>
		<path class="st1" d="M728.9,256.8h-6.5l-1.5,4h-1.3l5.4-14.3h1.2l5.4,14.3h-1.3L728.9,256.8z M722.7,255.8h5.7l-2.9-7.8
			L722.7,255.8z"/>
		<path class="st1" d="M742.2,260.8h-9v-0.9l4.9-5.6c0.8-0.9,1.4-1.7,1.7-2.3s0.5-1.2,0.5-1.8c0-0.9-0.3-1.6-0.8-2.2
			s-1.3-0.8-2.2-0.8c-1,0-1.7,0.3-2.3,0.9c-0.6,0.6-0.9,1.4-0.9,2.4h-1.2c0-0.8,0.2-1.5,0.5-2.2c0.4-0.7,0.9-1.2,1.6-1.6
			c0.7-0.4,1.4-0.6,2.3-0.6c1.3,0,2.3,0.3,3.1,1c0.7,0.7,1.1,1.6,1.1,2.8c0,0.7-0.2,1.4-0.6,2.2c-0.4,0.8-1.1,1.8-2.2,3l-4,4.5h7.5
			L742.2,260.8L742.2,260.8z"/>
		<path class="st1" d="M748.1,255.2c0,1.4-0.2,2.8-0.5,4.2s-0.9,2.6-1.6,3.7c-0.7,1.1-1.5,1.9-2.3,2.4l-0.3-0.8
			c0.6-0.5,1.2-1.2,1.8-2.1c0.5-1,1-2.1,1.3-3.4s0.5-2.7,0.5-4.2c0-1.4-0.2-2.7-0.5-3.9c-0.3-1.3-0.7-2.4-1.3-3.4s-1.1-1.7-1.8-2.2
			l0.3-0.8c0.8,0.5,1.6,1.3,2.3,2.4s1.2,2.3,1.6,3.7C747.9,252.2,748.1,253.6,748.1,255.2z"/>
		<path class="st1" d="M757.1,250.2v1.7c0.4-0.6,0.9-1.1,1.5-1.4c0.6-0.3,1.2-0.5,2-0.5c1.7,0,2.7,0.7,3.2,2.1
			c0.4-0.7,0.9-1.2,1.5-1.5c0.6-0.4,1.3-0.5,2.1-0.5c2.3,0,3.4,1.2,3.5,3.7v7.1h-1.2v-7c0-1-0.2-1.7-0.6-2.1c-0.4-0.5-1.1-0.7-2-0.7
			c-0.8,0-1.6,0.3-2.1,0.8c-0.6,0.5-0.9,1.2-1,2v7h-1.2v-7.1c0-0.9-0.2-1.6-0.6-2c-0.4-0.4-1.1-0.7-2-0.7c-0.7,0-1.4,0.2-1.9,0.6
			c-0.5,0.4-0.9,1.1-1.2,1.9v7.3H756v-10.6L757.1,250.2L757.1,250.2z"/>
		<path class="st1" d="M773.3,255.3c0-1,0.2-1.9,0.6-2.8c0.4-0.8,1-1.5,1.7-1.9s1.5-0.7,2.5-0.7c1.4,0,2.6,0.5,3.4,1.5
			s1.3,2.3,1.3,4v0.2c0,1-0.2,2-0.6,2.8c-0.4,0.8-1,1.5-1.7,1.9S779,261,778,261c-1.4,0-2.6-0.5-3.4-1.5c-0.9-1-1.3-2.3-1.3-4V255.3
			z M774.5,255.7c0,1.3,0.3,2.3,1,3.1s1.5,1.2,2.6,1.2s1.9-0.4,2.6-1.2c0.7-0.8,1-1.9,1-3.2v-0.2c0-0.8-0.2-1.6-0.5-2.2
			s-0.7-1.2-1.3-1.6c-0.5-0.4-1.2-0.6-1.9-0.6c-1,0-1.9,0.4-2.6,1.2c-0.7,0.8-1,1.9-1,3.2v0.3L774.5,255.7L774.5,255.7z"/>
		<path class="st1" d="M784.7,255.4c0-1.7,0.4-3,1.1-4c0.7-1,1.7-1.5,3-1.5c1.4,0,2.5,0.6,3.3,1.7v-6h1.2v15.1h-1.1v-1.4
			c-0.8,1.1-1.9,1.6-3.3,1.6c-1.2,0-2.2-0.5-3-1.5s-1.1-2.3-1.1-4l0,0H784.7z M785.9,255.6c0,1.4,0.3,2.4,0.8,3.2
			c0.5,0.8,1.3,1.2,2.3,1.2c1.5,0,2.5-0.6,3.1-1.9v-5c-0.6-1.4-1.6-2.1-3.1-2.1c-1,0-1.8,0.4-2.3,1.2
			C786.2,252.9,785.9,254.1,785.9,255.6z"/>
		<path class="st1" d="M808.1,246.4v1H808c-1.7,0-3.1,0.5-4,1.5c-1,1-1.5,2.4-1.6,4.2c0.4-0.5,0.9-1,1.5-1.3s1.3-0.4,2-0.4
			c1.3,0,2.3,0.4,3,1.3c0.7,0.9,1.1,2,1.1,3.4c0,0.9-0.2,1.8-0.5,2.5s-0.8,1.3-1.5,1.7c-0.6,0.4-1.4,0.6-2.2,0.6
			c-1.4,0-2.5-0.5-3.3-1.5s-1.3-2.3-1.3-3.9v-1.2c0-2.6,0.6-4.6,1.8-6s2.8-2.1,5-2.1h0.1V246.4z M805.6,252.4
			c-0.7,0-1.4,0.2-2.1,0.7c-0.6,0.4-1.1,1-1.3,1.7v1c0,1.2,0.3,2.3,1,3s1.5,1.2,2.5,1.2c0.9,0,1.7-0.4,2.2-1.1
			c0.6-0.7,0.9-1.6,0.9-2.8c0-1.1-0.3-2-0.9-2.7S806.6,252.4,805.6,252.4z"/>
		<path class="st1" d="M817.1,253.5h4.4v1.1h-4.4v4.7h-1.2v-4.7h-4.3v-1.1h4.3v-4.6h1.2V253.5z"/>
		<path class="st1" d="M829.1,260.8H828v-12.9l-3.9,1.4v-1.1l4.9-1.8h0.2v14.4H829.1z"/>
		<g>
			<path class="st2" d="M635.1,118.5c0-0.5-1.5-1.1-2.6-1.6c-0.3-0.1-0.5-0.2-0.5-0.4c0-0.2,0.3-0.3,1.1-0.3
				c1.2,0.2,2.2,0.5,3.1,0.7c0.6,0.2,0.7,0.4,0.7,0.7c0,0.2-0.1,0.5-0.1,0.9v9.8h1.3c1.3-0.2,0.8-0.7,2.6-0.7c0.5,0,1.6,0,1.6,0.8
				c0,0.4-0.3,0.7-0.9,0.7h-4.7v7.8c0,1.8-0.2,2.9-0.7,4c-0.2,0.3-0.4,0.5-0.6,0.5c-0.2,0-0.4-0.4-0.4-1.2v-10.4
				c-3.3,1.8-10,4-13.2,4.1c-0.5,0-1.3-1-1.3-2.1l-0.1-8.7c-0.2-0.6-0.9-0.9-2.3-1.4c-0.2,0-0.3-0.1-0.3-0.2s0.2-0.3,0.8-0.4
				c1.5,0,3.1,0.3,3.9,0.5c1.5,0,3.2-0.1,4.1-0.2c1.3-0.1,1-0.8,2.9-0.8c0.7,0,1.9,0,1.9,0.7c0,0.3-0.3,0.6-0.8,0.6
				c-2.6,0.1-5.5,0.3-7.8,0.3c-0.4,0.1-0.6-0.1-0.6,0.4c0,1.3-0.1,5.3-0.1,7.5c0,2.1,0,2.2,0.8,2.2s8-1.2,12.1-3.2L635.1,118.5
				L635.1,118.5z"/>
			<path class="st2" d="M657.5,127.6c-0.3,2.6-2.2,4.6-5.7,4.6c-4,0-6.2-2.5-6.2-5.2c0-2.3,1.7-4.6,5.1-5c0.5-0.1,1-0.2,1-0.7
				c0-0.2-0.1-0.4-0.2-0.5c-0.2-0.2-0.3-0.3-0.3-0.4s0.1-0.2,0.3-0.2c0.8,0,1.7,0.8,1.7,1s-0.3,0.4-0.5,0.8c3.3,0.7,4.8,2.5,4.9,4.9
				L657.5,127.6z M647.3,127.1c0,2,1.5,4,4.5,4c2.8,0,4.2-2,4.2-4s-1.4-4-4.2-4C648.7,123,647.3,125.1,647.3,127.1z M663.3,118.8
				c-0.1-0.5-0.9-1.2-2.4-1.8c-0.4-0.1-0.6-0.3-0.6-0.4c0-0.2,0.3-0.3,0.9-0.4c1.7,0.3,2.6,0.6,3.3,0.9c0.4,0.2,0.5,0.4,0.5,0.6
				s-0.1,0.4-0.1,0.7v15.9c0,5-0.2,5.6-0.6,6.7c-0.2,0.3-0.4,0.5-0.5,0.5c-0.2,0-0.4-0.3-0.4-1.2v-21.5H663.3z"/>
			<path class="st2" d="M690.3,136.7c1.1-0.1,1-0.6,2.4-0.6c0.6,0,2.8,0.1,2.8,0.9c0,0.4-0.4,0.6-0.9,0.6h-0.1
				c-2.2-0.2-5.1-0.2-7.6-0.2c-3.5,0-6.9,0.1-10.4,0.4c-0.9,0.2-1.1,0.6-1.5,0.6c-0.5,0-3.6-1.2-3.6-1.8c0-0.1,0.1-0.1,0.3-0.1
				s0.4,0,0.6,0.1c1.1,0.3,3,0.4,5.3,0.4c3.2,0,7.4-0.2,11.6-0.2L690.3,136.7z M681.3,119.2c-0.2-0.1-0.4-0.3-0.4-0.4s0.2-0.2,1-0.2
				c1.1,0.3,2,0.6,3.5,1.5c0.2,0.2,0.2,0.4,0.2,0.5c0,0.5-1.8,2.8-2.1,3.3c1.1,0.7,2.9,1.5,4,2c1.9,0.8,1.2-0.6,5.5,2.2
				c0.6,0.4,0.8,0.8,0.8,1.2c0,0.3-0.2,0.5-0.6,0.5c-0.3,0-0.6-0.1-1-0.3c-2-1-6.5-3.2-9.3-4.9c-4.2,4.6-9.7,6.5-10.3,6.5
				c-0.1,0-0.2,0-0.2-0.1s0.2-0.3,0.7-0.5c3.9-1.7,8.5-6,10-9.3C683.1,120.4,682.3,119.8,681.3,119.2z"/>
			<path class="st2" d="M709.7,122.4c-0.8,0.1-0.9,0.4-1.3,0.4c-0.5,0-2.9-1-2.9-1.5c0-0.1,0.1-0.1,0.3-0.1c0.1,0,0.4,0.1,0.7,0.1
				c1.1,0.2,2.1,0.2,3.1,0.2c1.5,0,3-0.1,5.1-0.2c0.9-0.1,0.7-0.3,1.5-0.3c0.4,0,1.6,0.1,1.6,0.5c0,0.2-0.4,0.5-0.6,0.9
				c-2.5,5.9-5.8,9.7-11.8,13.8c-0.4,0.3-0.7,0.4-0.8,0.4s-0.1,0-0.1-0.1s0.2-0.4,0.7-0.8c3.8-3,8.8-9,10.1-13.8
				C714.4,122.1,710.6,122.3,709.7,122.4z M721.8,118.5c0-0.5-1.5-1.1-2.6-1.6c-0.3-0.1-0.5-0.2-0.5-0.4c0-0.2,0.3-0.3,1.1-0.3
				c1.2,0.2,2.2,0.5,3.1,0.7c0.6,0.2,0.7,0.4,0.7,0.7c0,0.2-0.1,0.5-0.1,0.9v9.8h1.3c1.3-0.2,0.8-0.7,2.6-0.7c0.5,0,1.6,0,1.6,0.8
				c0,0.4-0.3,0.7-0.9,0.7h-4.7v7.8c0,1.8-0.2,2.9-0.7,4c-0.2,0.3-0.4,0.5-0.6,0.5c-0.2,0-0.4-0.4-0.4-1.2v-21.7H721.8z"/>
			<path class="st2" d="M742.4,123.9c-1.2,0.1-3,0.1-5.3,0.4c-0.7,0.1-0.8,0.4-1.2,0.4s-2.5-0.9-2.5-1.2c0-0.1,0.1-0.1,0.4-0.1
				c0.1,0,0.3,0,0.5,0.1c0.4,0.1,1.2,0.1,2.1,0.1c1.9,0,4.6-0.1,6-0.2c0.7-0.1,0.4-0.2,1.7-0.2h0.4c1.1,0,1.5,0.1,1.5,0.4
				s-0.4,0.5-0.8,0.8c-0.9,1.2-2.3,3-3.4,4c1.5,2,3.1,1.3,4.7,4.3c0.2,0.4,0.4,0.8,0.4,1.1c0,0.5-0.2,0.7-0.5,0.7
				c-0.2,0-0.4-0.1-0.5-0.3c-0.9-0.9-2.9-3.5-4.6-5.3c-1.8,1.6-5,4.2-9.2,5.9c-0.3,0.1-0.6,0.2-0.7,0.2c-0.1,0-0.1,0-0.1-0.1
				s0.2-0.3,0.6-0.5c4.2-2.2,8.7-6,11.2-10.3L742.4,123.9z M739.3,120.6c-0.8-0.1-2.6-1.2-2.6-1.8c0-0.1,0.1-0.1,0.1-0.1
				c0.1,0,0.3,0.1,0.5,0.1c1.4,0.4,3.4,0.7,5.6,0.7c0.6,0,0.8,0.2,0.8,0.4s-0.3,0.5-0.5,0.6c-0.6,0.1-1.4,0.1-2.3,0.1
				C740.1,120.6,740.1,120.6,739.3,120.6z M750,118.8c-0.1-0.5-0.9-1.2-2.4-1.8c-0.4-0.1-0.6-0.3-0.6-0.4c0-0.2,0.3-0.3,0.9-0.4
				c1.7,0.3,2.6,0.6,3.3,0.9c0.4,0.2,0.5,0.4,0.5,0.6s-0.1,0.4-0.1,0.7v15.9c0,5-0.2,5.6-0.6,6.7c-0.2,0.3-0.4,0.5-0.5,0.5
				c-0.2,0-0.4-0.3-0.4-1.2v-21.5H750z"/>
			<path class="st2" d="M764.1,129.9c5-3.3,7.7-8.2,7.7-8.6s-0.4-0.9-1.5-1.7c-0.4-0.2-0.6-0.4-0.6-0.5s0.2-0.2,0.5-0.2
				c0.2,0,0.3,0,0.5,0.1c0.6,0.2,3.3,1.3,3.3,2c0,0.4-0.6,1.1-1.6,2.9c0.8,0.9,1.3,1.3,2.1,2.1c1.5,1.1,1.4,0,3.3,2.7
				c0.2,0.3,0.2,0.6,0.2,0.8c0,0.4-0.2,0.6-0.6,0.6c-0.2,0-0.4-0.1-0.6-0.2c-1.4-1.4-3.8-4-5-5.3c-2.4,2.7-4.6,4.3-7.6,5.9
				c-0.3,0.2-0.5,0.2-0.7,0.2c-0.1,0-0.2,0-0.2-0.1C763.5,130.3,763.7,130.1,764.1,129.9z M772.4,134.7c0-0.5-0.6-0.8-2-1.2
				c-0.3-0.1-0.5-0.2-0.5-0.3s0.2-0.3,0.9-0.4c1.2,0,2.3,0.1,2.9,0.2c0.5,0.1,0.6,0.3,0.6,0.5s-0.1,0.4-0.1,0.7c0,1.2,0,2.8,0,3.7
				c0,0.6,0.4,0.9,1.3,0.9l4.9-0.1c2-0.2,1.1-0.8,3.5-0.8c0.9,0,2,0.1,2,0.9c0,0.3-0.3,0.6-0.7,0.6h-9.7c-1.8,0-2.8-0.5-2.9-1.8
				L772.4,134.7z M781.6,118.7c0-0.3-0.7-0.8-2.3-1.5c-0.4-0.1-0.6-0.3-0.6-0.4c0-0.2,0.3-0.3,1-0.3c0.1,0,3.8,0.5,3.8,1.3
				c0,0.2-0.1,0.4-0.1,0.7v8.5c0.4,0,0.8,0,1.2-0.1c1.2-0.2,0.7-0.8,2.8-0.8c0.5,0,1.5,0,1.5,0.7c0,0.4-0.3,0.7-0.8,0.7l-4.8,0.1
				c0,4.9-0.2,6.1-0.5,6.9c-0.2,0.5-0.5,0.9-0.8,0.9s-0.4-0.3-0.4-1.2L781.6,118.7L781.6,118.7z"/>
			<path class="st2" d="M797.4,136.9c0-0.3-0.6-0.5-1.5-0.7c-0.2-0.1-0.5-0.1-0.5-0.2c0-0.1,0.5-0.4,1-0.4c1.2,0,2.5,0.2,2.8,0.4
				c2.5,0,3.9-0.1,6.4-0.2c0.7-0.1,0.8-0.1,1.5-0.2c0.1-0.6,0.1-1.6,0.2-3c-1.8,0.1-5.3,0.1-7.9,0.3c-0.8,0.2-0.9,0.4-1.4,0.4
				s-2.6-0.9-2.6-1.2c0-0.1,0.1-0.1,0.4-0.1c0.1,0,0.2,0,0.4,0c0.9,0.1,2.2,0.2,3.6,0.2c0.8,0,1.6,0,2.5-0.1c0-0.2-0.1-0.4-0.1-0.6
				v-2.9c-1.8,0.1-4.3,0.2-5.9,0.3c-1.2,0.1-1.2,0.6-1.8,0.6s-3.6-1.1-3.6-1.6c0-0.1,0.1-0.2,0.3-0.2c0.1,0,0.3,0,0.4,0.1
				c1.1,0.2,3,0.3,5.3,0.3c0.7,0,11.1-0.2,13.4-0.5c1.1-0.2,0.8-0.5,2.1-0.5c0.9,0,2.4,0,2.4,0.9c0,0.3-0.3,0.6-0.8,0.6h0
				c-1.2-0.1-3-0.1-4.9-0.1c-2.1,0-4.1,0-5.2,0.1c0,1-0.1,3.1-0.6,3.5c1.2,0,2.4-0.1,3.5-0.2c0.4-0.1,0.5-0.2,0.9-0.2
				c1.7,0,1.7,0.3,1.7,0.4c0,0.2-0.2,0.5-0.4,0.8c-0.3,0.8-0.7,2.1-0.9,2.6c0.7,0.1,1.1,0.4,1.1,0.6c0,0.2-0.3,0.4-0.9,0.4
				c-2.1,0.1-6,0.2-8.8,0.2c-0.3,0.1-0.5,0.1-0.5,0.4v2.3c0,0.5,0.3,0.6,0.7,0.6c0.5,0,1.3,0,2.3,0c1.3,0,2.9,0,4.5-0.1
				c1.6-0.2,1.1-0.7,2.8-0.7c0.8,0,2.1,0,2.1,0.8c0,0.3-0.4,0.6-0.9,0.6h-10.7c-2,0-2.4-0.7-2.4-1.5L797.4,136.9L797.4,136.9z
				 M805,120.6c-2.2,0-4.9,0.1-6.9,0.3c-0.5,0.1-0.6,0.4-0.9,0.4c-0.4,0-3-1-3-1.4c0-0.1,0.1-0.1,0.3-0.1s0.4,0,0.8,0.1
				c1.5,0.2,3,0.3,4.6,0.3c1.8,0,3.8-0.1,6.2-0.2c0.8-0.1,0.6-0.3,1.4-0.3c0.1,0,2.2,0,2.2,0.4c0,0.2-0.4,0.5-1.2,0.8
				c-1,0.6-2.8,1.8-4.7,2.7c0.2,0.3,1.9,0.5,2.9,0.5c0.3,0,1.8-0.1,2.1-0.1c0.5,0,1.2,0.1,3.2,0.7c0.5,0.2,0.6,0.4,0.6,0.6
				c0,0.3-0.3,0.5-0.8,0.5c-0.1,0-0.3,0-0.5-0.1c-2.4-0.5-6.6-1.1-8.5-1.7c-2.5,1-5.2,1.9-10.1,2.6c-0.1,0-0.2,0-0.3,0
				c-0.2,0-0.4-0.1-0.4-0.1c0-0.1,0.2-0.2,0.6-0.3c5.2-1.1,10.4-3,13.4-5.7L805,120.6z M800.9,117.9c-0.5-0.1-2.3-1.2-2.3-1.5
				c0-0.1,0.1-0.1,0.2-0.1s0.3,0,0.5,0.1c1.4,0.4,3.7,0.4,5.2,0.4c0.7,0,1.1,0.3,1.1,0.5s-0.4,0.6-0.9,0.6c-0.1,0.1-0.4,0.1-0.9,0.1
				c-0.6,0-1.4,0-1.8-0.1H800.9z"/>
		</g>
	</g>
</g>
<g>
	<g>
		<path class="st3" d="M119.3,112.1c0,3.8-0.4,7.5-1.1,11c-73.7-19.4-95.5,24.2-95.5,24.2c-8-9.5-12.8-21.8-12.8-35.2
			c0-30.2,24.5-54.7,54.7-54.7S119.3,81.8,119.3,112.1z"/>
	</g>
	<g>
		<path class="st4" d="M118.2,123.1c-5.1,25-27.2,43.7-53.6,43.7c-16.8,0-31.9-7.6-41.9-19.5C22.6,147.3,44.5,103.7,118.2,123.1z"/>
	</g>
	<g>
		<path class="st5" d="M44.7,126.2L44.7,126.2l-1.6-21.9l-0.9-1.3c0-1.3,2.6-0.6,2.9-1.8c2.5-9,13.3-13.8,24.3-10.8
			c9.9,2.7,16.4,10.9,15.7,19.1l0,0l-0.4,20.2c0.1,1.2,0.1,2.3-0.1,3.5l0,0l0,0c-0.2,1.2-0.5,2.3-0.9,3.4c-3.6,8.6-15,12-25.4,7.7
			C49.8,140.8,44.6,133.4,44.7,126.2z"/>
		<path class="st6" d="M49.4,112.9c2.7,4.4,6.5,8.2,10.9,10.9c7.3,4.4,14.6,4.7,21.8,2c0.9-0.3,1.7-0.7,2.6-1.1l0.3-15.2l0,0
			c0.7-8.2-5.9-16.4-15.7-19.1c-10.9-3-21.8,1.8-24.3,10.8c-0.3,1.3-0.5,2.5-0.5,3.8l0,0L49.4,112.9z"/>
		<ellipse transform="matrix(0.9322 -0.362 0.362 0.9322 -25.7805 29.4089)" class="st5" cx="65.6" cy="83.5" rx="29.8" ry="39.7"/>
		<path class="st7" d="M83.9,51c2.5,1.9,3.8,4.9,3.6,8.1c-0.5,5.7-2.8,14.5-12.4,17.2c-12.1,3.4-27.6,1.8-32.4,1.2
			c-1.8-0.2-3.6-0.8-5.2-1.6c-3.6-1.9-7.9-6.2-3.4-14.7C40.7,48.7,58.3,31.5,83.9,51z"/>
		<path class="st7" d="M79.6,50.7c0,0,5.2-1.4,10.9,9.5C95.5,69.7,94,74,94,74L79.6,50.7z"/>
		<path class="st7" d="M54.6,77.8c0,0,6.8,21,4.5,20.8c-2.3-0.1-6.2-15.3-14-13.7S43,104.2,43,104.2s-12.6-16-10.2-27.7
			S54.6,77.8,54.6,77.8z"/>
		<path class="st5" d="M94.7,89.1c0,0,1.1,6.5,3.4,8s3.8,3.9-1.2,5S89,96.9,89,96.9L94.7,89.1z"/>
		<ellipse transform="matrix(0.9937 -0.1121 0.1121 0.9937 -9.5328 9.8585)" class="st7" cx="82.9" cy="89.7" rx="1.8" ry="2.6"/>
		<ellipse class="st7" cx="96.7" cy="87" rx="1.5" ry="2.3"/>
		<path class="st8" d="M84.9,84.1c0,0-7.3-0.4-10.1,3"/>
		<path class="st8" d="M99.6,79.5c0,0-7.3-0.4-10.1,3"/>
		<ellipse transform="matrix(0.8561 -0.5168 0.5168 0.8561 -14.702 52.2044)" class="st7" cx="86.4" cy="52.5" rx="16" ry="14.9"/>
		<path class="st9" d="M90.1,109.4c0,0-10.2,3.3-14.4-1.4"/>
	</g>
</g>
<g>
	<g>
		<path class="st3" d="M121.3,289.3c0,3.8-0.4,7.5-1.1,11c-73.7-19.4-95.5,24.2-95.5,24.2c-8-9.5-12.8-21.8-12.8-35.2
			c0-30.2,24.5-54.7,54.7-54.7S121.3,259,121.3,289.3z"/>
	</g>
	<g>
		<path class="st10" d="M120.2,300.3c-5.1,25-27.2,43.7-53.6,43.7c-16.8,0-31.9-7.6-41.9-19.5C24.7,324.5,46.5,280.9,120.2,300.3z"
			/>
	</g>
	<g>
		<path class="st5" d="M46.7,303.4L46.7,303.4l-1.6-21.9l-0.9-1.3c0-1.3,2.6-0.6,2.9-1.8c2.5-9,13.3-13.8,24.3-10.8
			c9.9,2.7,16.4,10.9,15.7,19.1l0,0l-0.4,20.2c0.1,1.2,0.1,2.3-0.1,3.5l0,0l0,0c-0.2,1.2-0.5,2.3-0.9,3.4c-3.6,8.6-15,12-25.4,7.7
			C51.9,318,46.6,310.6,46.7,303.4z"/>
		<path class="st6" d="M51.5,290.2c2.7,4.4,6.5,8.2,10.9,10.9c7.3,4.4,14.6,4.7,21.8,2c0.9-0.3,1.7-0.7,2.6-1.1l0.3-15.2l0,0
			c0.7-8.2-5.9-16.4-15.7-19.1c-10.9-3-21.8,1.8-24.3,10.8c-0.3,1.3-0.5,2.5-0.5,3.8l0,0L51.5,290.2z"/>
		
			<ellipse transform="matrix(0.9322 -0.362 0.362 0.9322 -89.7822 42.1893)" class="st5" cx="67.7" cy="260.7" rx="29.8" ry="39.7"/>
		<path class="st7" d="M85.9,228.2c2.5,1.9,3.8,4.9,3.6,8.1c-0.5,5.7-2.8,14.5-12.4,17.2c-12.1,3.4-27.6,1.8-32.4,1.2
			c-1.8-0.2-3.6-0.8-5.2-1.6c-3.6-1.9-7.9-6.2-3.4-14.7C42.7,225.9,60.3,208.7,85.9,228.2z"/>
		<path class="st7" d="M81.6,227.9c0,0,5.2-1.4,10.9,9.5c5,9.5,3.5,13.8,3.5,13.8L81.6,227.9z"/>
		<path class="st7" d="M56.6,255c0,0,6.8,21,4.5,20.8c-2.3-0.1-6.2-15.3-14-13.7S45,281.4,45,281.4s-12.6-16-10.2-27.7
			S56.6,255,56.6,255z"/>
		<path class="st5" d="M96.7,266.3c0,0,1.1,6.5,3.4,8s3.8,3.9-1.2,5s-7.9-5.2-7.9-5.2L96.7,266.3z"/>
		
			<ellipse transform="matrix(0.9937 -0.1121 0.1121 0.9937 -29.3843 11.1996)" class="st7" cx="84.9" cy="266.9" rx="1.8" ry="2.6"/>
		<ellipse class="st7" cx="98.7" cy="264.2" rx="1.5" ry="2.3"/>
		<path class="st8" d="M86.9,261.4c0,0-7.3-0.4-10.1,3"/>
		<path class="st8" d="M101.6,256.7c0,0-7.3-0.4-10.1,3"/>
		
			<ellipse transform="matrix(0.8561 -0.5168 0.5168 0.8561 -105.9684 78.7947)" class="st7" cx="88.5" cy="229.7" rx="16" ry="14.9"/>
		<path class="st9" d="M92.1,286.6c0,0-10.2,3.3-14.4-1.4"/>
	</g>
</g>
<g>
	<g>
		<path class="st11" d="M433.7,106.8V96.1h3c0.9,0,1.7,0.2,2.4,0.6c0.7,0.4,1.2,1,1.6,1.7s0.6,1.6,0.6,2.6v1c0,1-0.2,1.8-0.6,2.6
			c-0.4,0.7-0.9,1.3-1.6,1.7s-1.5,0.6-2.4,0.6L433.7,106.8L433.7,106.8z M434.6,96.9v9.2h2c1.1,0,2-0.4,2.7-1.1c0.7-0.8,1-1.8,1-3
			v-1c0-1.2-0.3-2.2-1-3c-0.7-0.7-1.6-1.1-2.7-1.1H434.6z"/>
		<path class="st11" d="M447.3,106.8h-0.9v-9.7l-2.9,1.1v-0.8l3.7-1.4h0.1L447.3,106.8L447.3,106.8z"/>
		<path class="st11" d="M451.5,108.8l-0.5-0.4c0.4-0.6,0.7-1.2,0.7-1.9v-1.1h0.9v0.9C452.6,107.4,452.2,108.2,451.5,108.8z"/>
		<path class="st11" d="M458.5,106.8V96.1h3c0.9,0,1.7,0.2,2.4,0.6c0.7,0.4,1.2,1,1.6,1.7s0.6,1.6,0.6,2.6v1c0,1-0.2,1.8-0.6,2.6
			c-0.4,0.7-0.9,1.3-1.6,1.7s-1.5,0.6-2.4,0.6L458.5,106.8L458.5,106.8z M459.4,96.9v9.2h2c1.1,0,2-0.4,2.7-1.1c0.7-0.8,1-1.8,1-3
			v-1c0-1.2-0.3-2.2-1-3c-0.7-0.7-1.6-1.1-2.7-1.1H459.4z"/>
		<path class="st11" d="M474.8,106.8H468v-0.7l3.7-4.2c0.6-0.7,1-1.3,1.3-1.7c0.2-0.5,0.4-0.9,0.4-1.3c0-0.7-0.2-1.2-0.6-1.6
			s-0.9-0.6-1.6-0.6s-1.3,0.2-1.8,0.7s-0.7,1.1-0.7,1.8h-0.9c0-0.6,0.1-1.2,0.4-1.7s0.7-0.9,1.2-1.2c0.5-0.3,1.1-0.4,1.7-0.4
			c1,0,1.8,0.3,2.3,0.8c0.6,0.5,0.8,1.2,0.8,2.1c0,0.5-0.2,1.1-0.5,1.6s-0.9,1.3-1.6,2.2l-3,3.4h5.6v0.8L474.8,106.8L474.8,106.8z"
			/>
	</g>
</g>
<g>
	<g>
		<g>
			<path class="st1" d="M180.9,49.5H176l-1.1,3h-1l4.1-10.7h0.9l4.1,10.7h-1L180.9,49.5z M176.3,48.7h4.3l-2.2-5.9L176.3,48.7z"/>
			<path class="st1" d="M188.3,52.5h-0.9v-9.7l-2.9,1.1v-0.8l3.7-1.4h0.1L188.3,52.5L188.3,52.5z"/>
			<path class="st1" d="M209.2,48.1c0-1.1,0.1-2.1,0.4-3.1c0.3-1,0.7-1.9,1.2-2.8s1.1-1.4,1.7-1.8l0.2,0.6c-0.3,0.2-0.6,0.6-1,1
				c-0.3,0.4-0.6,1-0.9,1.6c-0.3,0.6-0.5,1.3-0.6,2.1c-0.2,0.8-0.2,1.6-0.2,2.6s0.1,2,0.4,3c0.2,0.9,0.6,1.8,1,2.5s0.9,1.3,1.4,1.6
				l-0.2,0.6c-0.6-0.4-1.2-1-1.7-1.8s-0.9-1.8-1.2-2.8C209.4,50.4,209.2,49.3,209.2,48.1z"/>
			<path class="st1" d="M292.9,48.3c0,1.1-0.1,2.1-0.4,3.1s-0.7,1.9-1.2,2.7s-1.1,1.4-1.7,1.8l-0.2-0.6c0.5-0.3,0.9-0.9,1.3-1.6
				c0.4-0.7,0.7-1.6,1-2.5c0.2-1,0.4-2,0.4-3.1c0-1-0.1-2-0.4-2.9c-0.2-0.9-0.6-1.8-1-2.5s-0.9-1.3-1.3-1.6l0.2-0.6
				c0.6,0.4,1.2,1,1.7,1.8s0.9,1.8,1.2,2.8C292.8,46,292.9,47.1,292.9,48.3z"/>
			<path class="st1" d="M188.6,60.6h-3.7v10H184v-10h-3.7v-0.8h8.3V60.6z"/>
			<path class="st1" d="M194.1,70.6h-0.9v-9.7l-2.9,1.1v-0.8l3.7-1.4h0.1L194.1,70.6L194.1,70.6z"/>
			<path class="st1" d="M202,66.3c0-1.1,0.1-2.1,0.4-3.1c0.3-1,0.7-1.9,1.2-2.8s1.1-1.4,1.7-1.8l0.2,0.6c-0.3,0.2-0.6,0.6-1,1
				c-0.3,0.4-0.6,1-0.9,1.6c-0.3,0.6-0.5,1.3-0.6,2.1c-0.2,0.8-0.2,1.6-0.2,2.6s0.1,2,0.4,3c0.2,0.9,0.6,1.8,1,2.5s0.9,1.3,1.4,1.6
				l-0.2,0.6c-0.6-0.4-1.2-1-1.7-1.8s-0.9-1.8-1.2-2.8C202.1,68.5,202,67.4,202,66.3z"/>
			<path class="st1" d="M304.7,66.4c0,1.1-0.1,2.1-0.4,3.1s-0.7,1.9-1.2,2.7s-1.1,1.4-1.7,1.8l-0.2-0.6c0.5-0.3,0.9-0.9,1.3-1.6
				s0.7-1.6,1-2.5c0.2-1,0.4-2,0.4-3.1c0-1-0.1-2-0.4-2.9c-0.2-0.9-0.6-1.8-1-2.5s-0.9-1.3-1.3-1.6l0.2-0.6c0.6,0.4,1.2,1,1.7,1.8
				s0.9,1.8,1.2,2.8C304.6,64.2,304.7,65.2,304.7,66.4z"/>
		</g>
	</g>
	<polygon points="578.3,54.2 564.6,62.1 564.6,46.2 	"/>
	<circle cx="126" cy="54.2" r="2"/>
	<line class="st12" x1="126" y1="54.2" x2="170.5" y2="54.2"/>
	<line class="st12" x1="317.8" y1="54.2" x2="569.9" y2="54.2"/>
</g>
<polygon points="141.4,102.2 155.1,110.1 155.1,94.3 "/>
<circle cx="570.5" cy="102.2" r="2"/>
<line class="st12" x1="570.5" y1="102.2" x2="526" y2="102.2"/>
<line class="st12" x1="391.7" y1="102.2" x2="155.1" y2="102.2"/>
<g>
	<g>
		<path class="st11" d="M433.7,276.3v-10.7h3c0.9,0,1.7,0.2,2.4,0.6c0.7,0.4,1.2,1,1.6,1.7s0.6,1.6,0.6,2.6v1c0,1-0.2,1.8-0.6,2.6
			c-0.4,0.7-0.9,1.3-1.6,1.7s-1.5,0.6-2.4,0.6h-3V276.3z M434.6,266.3v9.2h2c1.1,0,2-0.4,2.7-1.1s1-1.8,1-3v-0.9c0-1.2-0.3-2.2-1-3
			c-0.7-0.7-1.6-1.1-2.7-1.1h-2V266.3z"/>
		<path class="st11" d="M445.2,270.5h0.9c0.5,0,0.9-0.1,1.3-0.3s0.7-0.4,0.9-0.7s0.3-0.7,0.3-1.1c0-0.7-0.2-1.2-0.6-1.6
			s-0.9-0.6-1.7-0.6c-0.7,0-1.3,0.2-1.7,0.6c-0.4,0.4-0.7,0.9-0.7,1.6H443c0-0.6,0.1-1.1,0.4-1.5s0.7-0.8,1.2-1.1s1-0.4,1.7-0.4
			c1,0,1.7,0.3,2.3,0.8s0.8,1.3,0.8,2.2c0,0.5-0.2,1-0.5,1.4s-0.8,0.8-1.3,1c0.7,0.2,1.2,0.5,1.5,1s0.5,1,0.5,1.6
			c0,0.9-0.3,1.7-0.9,2.2c-0.6,0.6-1.4,0.8-2.4,0.8c-0.6,0-1.2-0.1-1.8-0.4c-0.5-0.3-0.9-0.6-1.2-1.1c-0.3-0.5-0.4-1-0.4-1.6h0.9
			c0,0.7,0.2,1.2,0.7,1.7c0.5,0.4,1.1,0.6,1.8,0.6c0.8,0,1.4-0.2,1.8-0.6s0.6-1,0.6-1.7s-0.2-1.3-0.7-1.6s-1.1-0.6-2-0.6h-0.9v-0.6
			L445.2,270.5L445.2,270.5z"/>
		<path class="st11" d="M451.5,278.3l-0.5-0.4c0.4-0.6,0.7-1.2,0.7-1.9v-1.1h0.9v0.9C452.6,276.9,452.2,277.7,451.5,278.3z"/>
		<path class="st11" d="M458.5,276.3v-10.7h3c0.9,0,1.7,0.2,2.4,0.6c0.7,0.4,1.2,1,1.6,1.7s0.6,1.6,0.6,2.6v1c0,1-0.2,1.8-0.6,2.6
			c-0.4,0.7-0.9,1.3-1.6,1.7s-1.5,0.6-2.4,0.6h-3V276.3z M459.4,266.3v9.2h2c1.1,0,2-0.4,2.7-1.1s1-1.8,1-3v-0.9c0-1.2-0.3-2.2-1-3
			c-0.7-0.7-1.6-1.1-2.7-1.1h-2V266.3z"/>
		<path class="st11" d="M473.5,272.8h1.7v0.7h-1.7v2.7h-0.9v-2.7h-5.1V273l5-7.5h1V272.8z M468.6,272.8h4v-6.1l-0.4,0.7L468.6,272.8
			z"/>
	</g>
</g>
<polygon points="141.4,271.7 155.1,279.6 155.1,263.7 "/>
<circle cx="570.5" cy="271.7" r="2"/>
<line class="st12" x1="570.5" y1="271.7" x2="526" y2="271.7"/>
<line class="st12" x1="391.7" y1="271.7" x2="155.1" y2="271.7"/>
<g>
	<g>
		<g>
			<path class="st1" d="M180,308.1h-4.9l-1.1,3h-1l4.1-10.7h0.9l4.1,10.7h-0.9L180,308.1z M175.4,307.3h4.3l-2.2-5.9L175.4,307.3z"
				/>
			<path class="st1" d="M190.1,311.1h-6.7v-0.7l3.7-4.2c0.6-0.7,1-1.3,1.3-1.7c0.2-0.5,0.4-0.9,0.4-1.3c0-0.7-0.2-1.2-0.6-1.6
				c-0.4-0.4-0.9-0.6-1.6-0.6c-0.7,0-1.3,0.2-1.8,0.7c-0.4,0.5-0.7,1.1-0.7,1.8h-0.9c0-0.6,0.1-1.2,0.4-1.7c0.3-0.5,0.7-0.9,1.2-1.2
				c0.5-0.3,1.1-0.4,1.7-0.4c1,0,1.8,0.3,2.3,0.8c0.6,0.5,0.8,1.2,0.8,2.1c0,0.5-0.2,1.1-0.5,1.6c-0.3,0.6-0.9,1.3-1.6,2.2l-3,3.4
				h5.6L190.1,311.1L190.1,311.1z"/>
			<path class="st1" d="M210.4,306.7c0-1.1,0.1-2.1,0.4-3.1c0.3-1,0.7-1.9,1.2-2.8s1.1-1.4,1.7-1.8l0.2,0.6c-0.3,0.2-0.6,0.6-1,1
				c-0.3,0.4-0.6,1-0.9,1.6c-0.3,0.6-0.5,1.3-0.6,2.1c-0.2,0.8-0.2,1.6-0.2,2.6s0.1,2,0.4,3c0.2,0.9,0.6,1.8,1,2.5s0.9,1.3,1.4,1.6
				l-0.2,0.6c-0.6-0.4-1.2-1-1.7-1.8s-0.9-1.8-1.2-2.8C210.5,309,210.4,307.9,210.4,306.7z"/>
			<path class="st1" d="M298.1,306.9c0,1.1-0.1,2.1-0.4,3.1s-0.7,1.9-1.2,2.7s-1.1,1.4-1.7,1.8l-0.2-0.6c0.5-0.3,0.9-0.9,1.3-1.6
				s0.7-1.6,1-2.5c0.2-1,0.4-2,0.4-3.1c0-1-0.1-2-0.4-2.9c-0.2-0.9-0.6-1.8-1-2.5s-0.9-1.3-1.3-1.6l0.2-0.6c0.6,0.4,1.2,1,1.7,1.8
				s0.9,1.8,1.2,2.8S298.1,305.7,298.1,306.9z"/>
			<path class="st1" d="M187.7,319.2H184v10h-0.9v-10h-3.7v-0.8h8.3L187.7,319.2L187.7,319.2z"/>
			<path class="st1" d="M195.8,329.2h-6.7v-0.7l3.7-4.2c0.6-0.7,1-1.3,1.3-1.7c0.2-0.5,0.4-0.9,0.4-1.3c0-0.7-0.2-1.2-0.6-1.6
				c-0.4-0.4-0.9-0.6-1.6-0.6c-0.7,0-1.3,0.2-1.8,0.7c-0.4,0.5-0.7,1.1-0.7,1.8h-0.9c0-0.6,0.1-1.2,0.4-1.7c0.3-0.5,0.7-0.9,1.2-1.2
				c0.5-0.3,1.1-0.4,1.7-0.4c1,0,1.8,0.3,2.3,0.8c0.6,0.5,0.8,1.2,0.8,2.1c0,0.5-0.2,1.1-0.5,1.6c-0.3,0.6-0.9,1.3-1.6,2.2l-3,3.4
				h5.6L195.8,329.2L195.8,329.2z"/>
			<path class="st1" d="M201.2,324.9c0-1.1,0.1-2.1,0.4-3.1c0.3-1,0.7-1.9,1.2-2.8s1.1-1.4,1.7-1.8l0.2,0.6c-0.3,0.2-0.6,0.6-1,1
				c-0.3,0.4-0.6,1-0.9,1.6c-0.3,0.6-0.5,1.3-0.6,2.1c-0.2,0.8-0.2,1.6-0.2,2.6s0.1,2,0.4,3c0.2,0.9,0.6,1.8,1,2.5s0.9,1.3,1.4,1.6
				l-0.2,0.6c-0.6-0.4-1.2-1-1.7-1.8s-0.9-1.8-1.2-2.8C201.3,327.1,201.2,326,201.2,324.9z"/>
			<path class="st1" d="M303.9,325c0,1.1-0.1,2.1-0.4,3.1s-0.7,1.9-1.2,2.7s-1.1,1.4-1.7,1.8l-0.2-0.6c0.5-0.3,0.9-0.9,1.3-1.6
				s0.7-1.6,1-2.5c0.2-1,0.4-2,0.4-3.1c0-1-0.1-2-0.4-2.9c-0.2-0.9-0.6-1.8-1-2.5s-0.9-1.3-1.3-1.6l0.2-0.6c0.6,0.4,1.2,1,1.7,1.8
				s0.9,1.8,1.2,2.8S303.9,323.9,303.9,325z"/>
		</g>
	</g>
	<polygon points="578.3,317.2 564.6,325.1 564.6,309.2 	"/>
	<circle cx="126" cy="317.2" r="2"/>
	<line class="st12" x1="126" y1="317.2" x2="170.5" y2="317.2"/>
	<line class="st12" x1="317.8" y1="317.2" x2="569.9" y2="317.2"/>
</g>
<g>
	<path d="M43.5,21.2c-0.9-0.1-2-0.1-3.1-0.1c-1.3,0-2.6,0-3.4,0.1c-1.1,0.1-4.1,0.2-4.9,0.3c-0.5,0-0.5,0.3-0.8,0.3
		c-0.4,0-2.1-0.8-2.1-1c0-0.1,0.1-0.1,0.2-0.1s0.2,0,0.3,0.1c0.5,0.1,1.6,0.2,3,0.2c2.3,0,5.5-0.1,8.2-0.3c0.9,0,0.7-0.3,1.6-0.3
		c0.8,0,1.6,0.1,1.6,0.6C44.1,21,43.9,21.2,43.5,21.2L43.5,21.2z M38.3,13.8c0.9-0.1,0.6-0.5,1.8-0.5c0.2,0,1.4,0,1.4,0.6
		c0,0,0,0.4-0.7,0.4c-2.3,0-5.9,0.1-7.2,0.2c-0.5,0.1-0.5,0.2-0.7,0.2s-1.8-0.6-1.8-0.9c0-0.1,0.1-0.1,0.2-0.1s0.2,0,0.4,0.1
		c0.9,0.2,1.8,0.2,2.7,0.2C34.8,14,37.8,13.9,38.3,13.8z M36.1,18.8c-0.6,0-1.7,0.1-2.3,0.1c-0.5,0.1-0.5,0.3-0.7,0.3
		c-0.3,0-1.7-0.7-1.7-0.9c0,0,0.1-0.1,0.2-0.1s0.1,0,0.2,0c0.8,0.1,1.6,0.2,2.6,0.2s2-0.1,2.9-0.1c0.4-1.2,0.8-2.5,0.8-2.5
		c0-0.2-0.2-0.4-0.5-0.6c-0.2-0.1-0.2-0.2-0.2-0.2c0-0.1,0.2-0.2,0.5-0.2c0.1,0,1.6,0.4,1.6,0.8c0,0.1-0.1,0.2-0.2,0.4
		c-0.5,0.7-1,1.6-1.4,2.3c0.3,0,0.6,0,0.9-0.1c0.7-0.1,0.3-0.4,1.5-0.4c0.4,0,1.3,0,1.3,0.5c0,0.3-0.3,0.4-0.6,0.4
		c-1.2,0-2.6,0-3.6,0.1H36.1z M33.2,26c0-0.2-0.4-0.3-0.9-0.5c-0.2,0-0.3-0.1-0.3-0.2s0.3-0.2,0.6-0.2c0.7,0,1.5,0.1,1.8,0.2
		c1.6,0,2.4,0,4-0.1c0.4,0,0.5-0.1,0.9-0.2c0.1-0.4,0.1-1,0.1-1.8c-1.1,0-3.3,0.1-4.9,0.2c-0.5,0.1-0.6,0.3-0.9,0.3
		c-0.3,0-1.6-0.5-1.6-0.7c0-0.1,0.1-0.1,0.2-0.1s0.2,0,0.3,0c0.6,0.1,1.4,0.1,2.3,0.1c1.3,0,2.9-0.1,4.2-0.2
		c0.3-0.1,0.3-0.1,0.6-0.1c1.1,0,1.1,0.2,1.1,0.3c0,0.1-0.2,0.3-0.2,0.5C40.3,24,40,24.8,40,25.1c0.5,0.1,0.7,0.3,0.7,0.4
		s-0.2,0.2-0.6,0.2c-1.3,0-3.7,0.1-5.4,0.2c-0.2,0.1-0.3,0.1-0.3,0.2v1.5c0,0.3,0.2,0.4,0.4,0.4c0.3,0,0.8,0,1.4,0
		c0.8,0,1.8,0,2.8,0c1-0.1,0.7-0.4,1.7-0.4c0.5,0,1.3,0,1.3,0.5c0,0.2-0.2,0.4-0.6,0.4h-6.6c-1.2,0-1.5-0.4-1.5-0.9L33.2,26L33.2,26
		z M35.2,17.5c-0.1,0.5-0.3,0.7-0.6,0.7c-0.2,0-0.3-0.1-0.4-0.3c-0.1-0.6-0.4-1.5-0.7-2.1c-0.1-0.2-0.2-0.4-0.2-0.5
		c0,0,0-0.1,0.1-0.1c0.4,0,1.7,1.3,1.8,2C35.2,17.2,35.2,17.5,35.2,17.5z"/>
	<path d="M48.4,21.1c0-0.3-0.5-0.5-1-0.7c-0.2,0-0.4-0.1-0.4-0.2s0.3-0.2,0.6-0.2c0.7,0,1.6,0.1,1.9,0.2c0.5,0,1-0.1,1.4-0.1
		c0.2-0.1,0.4-0.1,0.6-0.2c0.1-0.7,0.1-2,0.1-2.8c-0.9,0.1-1.4,0.1-2.2,0.2c-0.5,0.1-0.5,0.3-0.8,0.3c-0.2,0-1.5-0.5-1.5-0.7
		c0-0.1,0.1-0.1,0.2-0.1c0.1,0,0.1,0,0.2,0c0.3,0,0.7,0,1,0c1,0,2.1-0.1,2.6-0.2c0.5,0,0.3-0.2,1-0.2c0.5,0,0.9,0.1,0.9,0.3
		c0,0.2-0.3,0.4-0.4,0.6c-0.2,0.8-0.5,2.1-0.6,2.5c0.3,0.1,0.4,0.2,0.4,0.3c0,0.1-0.2,0.3-0.6,0.3c-0.7,0.1-1.6,0.1-2.2,0.2
		c-0.2,0.1-0.3,0-0.3,0.3c0,0.4,0,1.5,0,2.3c0,1.1,0,1.2,0.3,1.2c0.8,0,2.6-0.7,4.1-1.5c0.2-0.1,0.3-0.1,0.4-0.1c0,0,0.1,0,0.1,0.1
		c0,0.5-4.1,2.6-5,2.6c-0.6,0-0.8-0.6-0.8-1.2V21.1z M55.3,15.8c-0.1-0.4-0.8-0.7-1.2-0.9c-0.3-0.1-0.4-0.2-0.4-0.3s0.1-0.2,0.5-0.2
		c1.8,0.3,2.1,0.5,2.1,0.8c0,0.1,0,0.3,0,0.4v9.6c0,1.9-0.5,2.3-0.7,2.3s-0.2-0.2-0.2-0.9v-5.9c-0.4,0-0.8,0.1-1,0.1
		C54,20.9,53.9,21,53.8,21c-0.2,0-1-0.4-1-0.6c0,0,0.1-0.1,0.2-0.1c0.1,0,0.2,0,0.3,0c0.6,0,1.3,0,2.1-0.1L55.3,15.8L55.3,15.8z
		 M58,14.8c0-0.4-0.7-0.8-1.2-1.1c-0.2-0.1-0.4-0.2-0.4-0.3s0.2-0.2,0.7-0.2c1.7,0.4,2,0.7,2,1c0,0.1-0.1,0.3-0.1,0.5v11.8
		c0,1.8-0.4,2.4-0.7,2.4c-0.2,0-0.3-0.2-0.3-1V14.8z"/>
	<path d="M70.7,20.3c-0.2,1.6-1.4,2.8-3.5,2.8c-2.5,0-3.9-1.5-3.9-3.2c0-1.4,1-2.8,3.2-3.1c0.3-0.1,0.6-0.2,0.6-0.5
		c0-0.1-0.1-0.2-0.1-0.3c-0.1-0.1-0.2-0.2-0.2-0.3c0,0,0.1-0.1,0.2-0.1c0.5,0,1.1,0.5,1.1,0.6s-0.2,0.3-0.3,0.5c2,0.5,2.9,1.6,3,3
		L70.7,20.3z M64.3,20c0,1.3,0.9,2.5,2.8,2.5c1.7,0,2.6-1.3,2.6-2.5c0-1.3-0.9-2.5-2.6-2.5C65.2,17.5,64.3,18.7,64.3,20z M74.2,14.9
		c0-0.3-0.5-0.7-1.5-1.1c-0.2-0.1-0.4-0.2-0.4-0.3s0.2-0.2,0.6-0.2c1.1,0.2,1.6,0.4,2,0.5c0.2,0.1,0.3,0.2,0.3,0.4
		c0,0.1-0.1,0.3-0.1,0.5v9.8c0,3.1-0.1,3.5-0.4,4.1c-0.1,0.2-0.2,0.3-0.3,0.3c-0.1,0-0.2-0.2-0.2-0.7V14.9z"/>
	<path d="M90.9,20.2c-0.9,0-1.6,0.1-2,0.1c-0.4,0.1-0.4,0.2-0.7,0.2c-0.2,0-0.4-0.1-0.9-0.3c-0.2,1.6-1.4,2.8-3.5,2.8
		c-2.5,0-3.9-1.5-3.9-3.2c0-1.4,1-2.8,3.2-3.1c0.3-0.1,0.6-0.2,0.6-0.5c0-0.1-0.1-0.2-0.1-0.3c-0.1-0.1-0.2-0.2-0.2-0.3
		c0,0,0.1-0.1,0.2-0.1c0.5,0,1.1,0.5,1.1,0.6s-0.2,0.3-0.3,0.5c2,0.5,2.9,1.6,3,3l0,0c0.2,0,0.6,0,0.9,0c0.8,0,1.9-0.1,2.6-0.1v-4.9
		c0-0.4-0.8-0.9-1.5-1.2c-0.2-0.1-0.4-0.2-0.4-0.3s0.2-0.2,0.6-0.2c0.8,0.2,1.7,0.4,2,0.6c0.3,0.2,0.4,0.2,0.4,0.4
		c0,0.1,0,0.2,0,0.4V24c0,3.1-0.1,3.9-0.5,4.5c-0.1,0.2-0.2,0.3-0.3,0.3c-0.2,0-0.3-0.3-0.3-1.2L90.9,20.2L90.9,20.2z M81,20
		c0,1.3,0.9,2.5,2.8,2.5c1.7,0,2.6-1.3,2.6-2.5c0-1.3-0.9-2.5-2.6-2.5C81.9,17.5,81,18.7,81,20z"/>
	<path d="M102.6,17.9L102.6,17.9l-1.9,1l-0.3-1.1l2.4-1.3h1.3v10.8h-1.4L102.6,17.9L102.6,17.9z"/>
</g>
<g>
	<path d="M43.9,200.5c-0.8-0.1-1.9-0.1-2.9-0.1c-1.2,0-2.4,0-3.2,0.1c-1,0-3.9,0.2-4.5,0.3c-0.5,0-0.5,0.3-0.8,0.3
		c-0.4,0-2-0.7-2-0.9c0,0,0.1-0.1,0.2-0.1s0.2,0,0.3,0c0.4,0.1,1.5,0.2,2.8,0.2c2.2,0,5.2-0.1,7.7-0.3c0.8,0,0.7-0.3,1.5-0.3
		s1.5,0.1,1.5,0.5C44.4,200.3,44.2,200.5,43.9,200.5L43.9,200.5z M39,193.6c0.9-0.1,0.6-0.4,1.7-0.4c0.2,0,1.3,0,1.3,0.5
		c0,0,0,0.4-0.7,0.4c-2.2,0-5.6,0.1-6.7,0.2c-0.4,0.1-0.5,0.2-0.7,0.2s-1.7-0.6-1.7-0.9c0,0,0-0.1,0.2-0.1c0.1,0,0.2,0,0.4,0
		c0.8,0.1,1.7,0.2,2.6,0.2C35.7,193.8,38.5,193.7,39,193.6z M37,198.3c-0.6,0-1.5,0.1-2.1,0.1c-0.4,0.1-0.5,0.3-0.7,0.3
		c-0.3,0-1.5-0.6-1.5-0.8c0,0,0.1-0.1,0.2-0.1c0.1,0,0.1,0,0.2,0c0.7,0.1,1.5,0.1,2.4,0.1s1.9,0,2.7-0.1c0.4-1.1,0.7-2.3,0.7-2.4
		c0-0.2-0.2-0.4-0.5-0.6c-0.1-0.1-0.2-0.1-0.2-0.2c0-0.1,0.1-0.1,0.5-0.1c0.1,0,1.5,0.4,1.5,0.7c0,0.1-0.1,0.2-0.2,0.4
		c-0.4,0.7-0.9,1.5-1.3,2.1c0.3,0,0.6,0,0.8-0.1c0.6-0.1,0.3-0.4,1.4-0.4c0.4,0,1.2,0,1.2,0.5c0,0.3-0.3,0.4-0.6,0.4
		c-1.1,0-2.5,0-3.4,0.1L37,198.3z M34.2,205c0-0.2-0.3-0.3-0.8-0.4c-0.1,0-0.3-0.1-0.3-0.1c0-0.1,0.3-0.2,0.6-0.2
		c0.7,0,1.4,0.1,1.6,0.2c1.5,0,2.2,0,3.7-0.1c0.4,0,0.5-0.1,0.9-0.1c0-0.3,0.1-0.9,0.1-1.7c-1,0-3.1,0.1-4.6,0.2
		c-0.5,0.1-0.5,0.3-0.8,0.3s-1.5-0.5-1.5-0.7c0,0,0.1-0.1,0.2-0.1c0.1,0,0.1,0,0.2,0c0.5,0.1,1.3,0.1,2.2,0.1c1.2,0,2.7,0,3.9-0.1
		c0.3-0.1,0.3-0.1,0.5-0.1c1,0,1,0.2,1,0.2c0,0.1-0.1,0.3-0.2,0.5c-0.2,0.5-0.4,1.2-0.5,1.5c0.4,0.1,0.6,0.2,0.6,0.4
		c0,0.1-0.2,0.2-0.5,0.2c-1.2,0-3.5,0.1-5.1,0.1c-0.2,0.1-0.3,0.1-0.3,0.2v1.4c0,0.3,0.2,0.4,0.4,0.4c0.3,0,0.8,0,1.3,0
		c0.8,0,1.7,0,2.6,0c0.9-0.1,0.6-0.4,1.6-0.4c0.4,0,1.2,0,1.2,0.5c0,0.2-0.2,0.4-0.5,0.4h-6.2c-1.1,0-1.4-0.4-1.4-0.9L34.2,205
		L34.2,205z M36.1,197c-0.1,0.4-0.3,0.6-0.5,0.6c-0.1,0-0.3-0.1-0.3-0.3c-0.1-0.5-0.4-1.4-0.7-2c-0.1-0.2-0.2-0.4-0.2-0.4v-0.1
		c0.4,0,1.5,1.2,1.7,1.8V197z"/>
	<path d="M48.4,200.4c0-0.3-0.4-0.5-0.9-0.6c-0.2,0-0.4-0.1-0.4-0.2c0-0.1,0.3-0.2,0.6-0.2c0.6,0,1.5,0.1,1.8,0.1
		c0.5,0,0.9,0,1.3-0.1c0.2,0,0.3-0.1,0.5-0.2c0.1-0.7,0.1-1.9,0.1-2.6c-0.8,0-1.3,0.1-2.1,0.2c-0.4,0.1-0.5,0.3-0.7,0.3
		s-1.4-0.4-1.4-0.7c0-0.1,0.1-0.1,0.2-0.1c0.1,0,0.1,0,0.2,0c0.3,0,0.6,0,1,0c0.9,0,1.9-0.1,2.4-0.2c0.5,0,0.3-0.2,0.9-0.2
		c0.5,0,0.8,0.1,0.8,0.3s-0.2,0.4-0.3,0.6c-0.2,0.7-0.5,2-0.5,2.4c0.3,0.1,0.4,0.2,0.4,0.3s-0.2,0.3-0.5,0.3c-0.6,0-1.5,0.1-2.1,0.2
		c-0.1,0.1-0.2,0-0.2,0.3c0,0.4,0,1.4,0,2.2c0,1,0,1.1,0.3,1.1c0.7,0,2.5-0.7,3.8-1.4c0.2-0.1,0.3-0.1,0.4-0.1h0.1
		c0,0.4-3.8,2.4-4.7,2.4c-0.5,0-0.7-0.5-0.8-1.1L48.4,200.4z M55,195.4c0-0.3-0.7-0.7-1.1-0.8c-0.2-0.1-0.4-0.2-0.4-0.3
		s0.1-0.1,0.4-0.2c1.7,0.3,2,0.5,2,0.8c0,0,0,0.3,0,0.4v9c0,1.8-0.5,2.2-0.7,2.2c-0.1,0-0.2-0.2-0.2-0.8v-5.5c-0.4,0-0.8,0.1-1,0.1
		c-0.3,0.1-0.4,0.2-0.5,0.2c-0.2,0-0.9-0.3-0.9-0.5c0,0,0-0.1,0.2-0.1c0.1,0,0.1,0,0.2,0c0.5,0,1.3,0,2-0.1V195.4z M57.5,194.5
		c0-0.3-0.6-0.7-1.2-1c-0.2-0.1-0.4-0.2-0.4-0.3s0.2-0.2,0.6-0.2c1.6,0.4,1.9,0.6,1.9,0.9c0,0.1-0.1,0.3-0.1,0.4v11.1
		c0,1.7-0.4,2.3-0.6,2.3c-0.2,0-0.3-0.2-0.3-0.9L57.5,194.5L57.5,194.5z"/>
	<path d="M69.3,199.7c-0.2,1.5-1.3,2.6-3.3,2.6c-2.3,0-3.6-1.4-3.6-3c0-1.3,1-2.6,3-2.9c0.3-0.1,0.6-0.1,0.6-0.4
		c0-0.1,0-0.2-0.1-0.3s-0.2-0.2-0.2-0.3c0,0,0-0.1,0.2-0.1c0.4,0,1,0.4,1,0.6c0,0.1-0.2,0.2-0.3,0.4c1.9,0.4,2.8,1.5,2.8,2.8
		L69.3,199.7z M63.4,199.4c0,1.2,0.9,2.3,2.6,2.3c1.6,0,2.5-1.2,2.5-2.3c0-1.2-0.8-2.3-2.5-2.3C64.2,197,63.4,198.2,63.4,199.4z
		 M72.7,194.6c0-0.3-0.5-0.7-1.4-1.1c-0.2-0.1-0.3-0.2-0.3-0.3s0.2-0.2,0.5-0.2c1,0.2,1.5,0.4,1.9,0.5c0.2,0.1,0.3,0.2,0.3,0.3
		s0,0.3,0,0.4v9.2c0,2.9-0.1,3.3-0.4,3.9c-0.1,0.2-0.2,0.3-0.3,0.3c-0.1,0-0.2-0.2-0.2-0.7L72.7,194.6L72.7,194.6z"/>
	<path d="M88.3,199.6c-0.8,0-1.5,0.1-1.9,0.1c-0.3,0-0.4,0.2-0.6,0.2c-0.1,0-0.4-0.1-0.8-0.3c-0.2,1.5-1.3,2.6-3.3,2.6
		c-2.3,0-3.6-1.4-3.6-3c0-1.3,1-2.6,3-2.9c0.3-0.1,0.6-0.1,0.6-0.4c0-0.1,0-0.2-0.1-0.3s-0.2-0.2-0.2-0.3c0,0,0-0.1,0.2-0.1
		c0.4,0,1,0.4,1,0.6c0,0.1-0.2,0.2-0.3,0.4c1.9,0.4,2.8,1.5,2.8,2.8l0,0c0.2,0,0.5,0,0.9,0c0.8,0,1.8-0.1,2.4-0.1v-4.6
		c0-0.3-0.8-0.8-1.4-1.1c-0.2-0.1-0.4-0.2-0.4-0.3s0.2-0.2,0.6-0.2c0.8,0.2,1.6,0.4,1.9,0.5s0.4,0.2,0.4,0.3s0,0.2,0,0.4v9.1
		c0,2.9-0.1,3.7-0.4,4.2c-0.1,0.2-0.2,0.3-0.3,0.3c-0.2,0-0.3-0.3-0.3-1.1v-6.8H88.3z M79,199.4c0,1.2,0.9,2.3,2.6,2.3
		c1.6,0,2.5-1.2,2.5-2.3c0-1.2-0.8-2.3-2.5-2.3C79.9,197,79,198.2,79,199.4z"/>
	<path d="M96.2,206.3v-0.8l1.1-1c2.6-2.5,3.8-3.8,3.8-5.3c0-1-0.5-2-2-2c-0.9,0-1.7,0.5-2.2,0.9l-0.4-1c0.7-0.6,1.7-1,2.9-1
		c2.2,0,3.1,1.5,3.1,3c0,1.9-1.4,3.4-3.5,5.5l-0.8,0.8l0,0h4.6v1.1h-6.6V206.3z"/>
</g>
<g>
	<path class="st2" d="M665.9,94.5c1.2-0.1,1.1-0.6,2.6-0.6c0.7,0,3,0.1,3,1c0,0.4-0.4,0.7-1,0.7h-0.1c-2.4-0.2-5.5-0.2-8.1-0.2
		c-3.7,0-7.5,0.1-11.2,0.4c-1,0.2-1.1,0.6-1.7,0.6c-0.6,0-3.9-1.3-3.9-1.9c0-0.1,0.1-0.1,0.3-0.1s0.4,0,0.6,0.1
		c1.2,0.3,3.2,0.4,5.7,0.4c3.5,0,7.9-0.2,12.5-0.3L665.9,94.5z M656.2,75.6c-0.2-0.1-0.5-0.3-0.5-0.5s0.3-0.3,1-0.3
		c1.2,0.3,2.2,0.7,3.7,1.6c0.2,0.2,0.3,0.4,0.3,0.6c0,0.5-1.9,3-2.2,3.5c1.2,0.8,3.1,1.6,4.4,2.1c2,0.8,1.3-0.7,5.9,2.3
		c0.6,0.5,0.9,0.9,0.9,1.2c0,0.3-0.2,0.5-0.6,0.5c-0.3,0-0.6-0.1-1-0.3c-2.1-1.1-7-3.4-10-5.3c-4.6,4.9-10.4,7-11.1,7
		c-0.1,0-0.2,0-0.2-0.1s0.2-0.3,0.7-0.6c4.2-1.8,9.1-6.5,10.8-10C658.2,77,657.4,76.4,656.2,75.6z"/>
	<path class="st2" d="M677.9,90.1c-0.2-2.4-0.5-6-0.6-8.7c-0.1-0.6-0.1-0.9-1.9-1.6c-0.3-0.1-0.6-0.2-0.6-0.3s0.3-0.3,0.9-0.4
		c1.2,0,2.2,0.1,3.3,0.3c1.4,0,3.7-0.1,6.4-0.2c0.9-0.1,0.5-0.3,1.6-0.3c1.6,0,1.8,0.2,1.8,0.4c0,0.3-0.4,0.6-0.6,1
		c-0.4,2.7-0.9,5.9-1.1,7.5c0.8,0.1,1.1,0.4,1.1,0.6c0,0.1-0.1,0.5-0.7,0.5c-2.5,0.1-6.6,0.2-8.1,0.3c-0.2,1.4-0.6,2-0.9,2
		C678.2,91.2,678,90.8,677.9,90.1z M679.3,88.3c1.3,0,3.2-0.1,5.2-0.1c1.1-0.1,1-0.2,1.6-0.3c0.1-2.7,0.2-6.2,0.2-7.8
		c-1.8,0.1-5.2,0.2-6.7,0.2c-0.3,0.2-0.6,0-0.6,0.4L679.3,88.3z M693.6,74.9c0-0.5-1.6-1.2-2.8-1.7c-0.3-0.1-0.5-0.3-0.5-0.4
		c0-0.2,0.3-0.3,1.2-0.3c1.2,0.2,2.4,0.5,3.3,0.8c0.6,0.2,0.8,0.4,0.8,0.7c0,0.2-0.1,0.5-0.1,0.9v10.6h1.5c1.4-0.2,0.9-0.8,2.8-0.8
		c0.6,0,1.8,0,1.8,0.9c0,0.4-0.3,0.8-1,0.8h-5v8.4c0,1.9-0.2,3.1-0.7,4.3c-0.2,0.3-0.5,0.5-0.7,0.5c-0.3,0-0.4-0.4-0.4-1.3V74.9
		H693.6z"/>
	<path class="st2" d="M723.8,94.4c1.1-0.1,1-0.6,2.6-0.6c0.8,0,3.2,0.1,3.2,1.1c0,0.3-0.4,0.7-1,0.7h-0.1c-1.5-0.1-3.2-0.1-4.9-0.1
		c-0.9,0-5.4,0-6.4,0c-2.6,0-6,0.3-7.7,0.3c-1.1,0.2-1.2,0.6-1.8,0.6c-0.7,0-3.9-1.4-3.9-1.9c0-0.1,0.1-0.1,0.3-0.1
		c0.1,0,0.3,0,0.6,0.1c1.4,0.3,3.9,0.5,7,0.5c3.2,0,7.1-0.1,11-0.3L723.8,94.4z M709,78.1c0-0.6-0.9-1-2.1-1.4
		c-0.3-0.1-0.7-0.2-0.7-0.4c0-0.3,0.8-0.4,1.1-0.4c1.2,0,3,0.3,3.8,0.6c2.3,0,5.7-0.1,9.3-0.2c1.5-0.3,1-0.9,3.2-0.9
		c2,0,2.2,0.7,2.2,0.9c0,0.3-0.4,0.6-1,0.6c-4.8,0.2-11,0.3-13.5,0.4c-0.3,0.2-0.4,0-0.4,0.5v4c2.4-0.1,5.5-0.1,9.6-0.2
		c1.2-0.2,0.3-0.7,3-0.7c0.9,0,1.3,0.3,1.3,0.7s-0.4,0.7-1,0.7c-2,0.1-9.2,0.2-12.9,0.3v3.7c0,1,0.3,1,2.4,1c2.2,0,4.4-0.1,7.3-0.2
		c1.8-0.1,0.8-0.8,3.5-0.8c0.6,0,1.8,0,1.8,0.7c0,0.4-0.5,0.8-1.2,0.8c-3.4,0.1-6.6,0.2-13,0.3c-1.8,0-2.7-0.7-2.7-2L709,78.1z"/>
	<path class="st2" d="M748.7,82.9c-0.8,0.1-1.9,0.2-2.7,0.3c-0.5,0.1-0.6,0.3-0.9,0.3c-0.2,0-0.6-0.1-1.3-0.5c-2,4.6-5,8.2-9.1,11.3
		c-0.3,0.2-0.6,0.3-0.7,0.3c-0.1,0-0.1,0-0.1-0.1s0.1-0.3,0.5-0.7c4.2-3.8,7.6-9.4,8.6-14.2c-0.8,0-2.9,0.1-4.4,0.2
		c-0.7,0.1-0.8,0.4-1.1,0.4s-2.7-0.8-2.7-1.2c0-0.1,0.1-0.2,0.4-0.2c0.1,0,0.2,0,0.4,0c1.1,0.1,2.1,0.2,3.2,0.2c1,0,2,0,3.4-0.1
		c0.3,0,1.7-0.2,2-0.2c1.1,0,1.5,0.2,1.5,0.5s-0.5,0.7-0.8,1c-0.2,0.8-0.5,1.5-0.8,2.2c0.3,0,0.6,0.1,1,0.1c1.3,0,2.8-0.2,3.7-0.3
		v-5.7c0-0.6-1.3-1.2-2.1-1.5c-0.3-0.1-0.6-0.2-0.6-0.3c0-0.1,0.2-0.3,0.9-0.4c3.1,0.6,3.6,0.9,3.6,1.4c0,0.2-0.1,0.4-0.1,0.6
		L750.4,94c-0.1,1.9-0.4,3.5-1,3.8h-0.1c-0.3,0-0.3-0.8-0.4-2.1V89c-0.5,0.1-2.3,0.2-3.3,0.3c-0.6,0.1-0.7,0.3-1,0.3
		c-0.5,0-2-0.8-2-1c0-0.1,0.1-0.1,0.4-0.1c0.4,0,1,0.1,1.3,0.1c1.5,0,3.2-0.1,4.6-0.3v-5.4H748.7z M753.9,75.2
		c-0.1-0.6-1.4-1.3-2.5-1.9c-0.3-0.1-0.5-0.3-0.5-0.5c0-0.1,0.2-0.2,0.9-0.2c0.4,0,4.1,0.8,4.1,1.7c0,0.2-0.1,0.4-0.1,0.6l-0.2,19.7
		c-0.1,3.2-0.5,4.2-0.9,4.8c-0.1,0.2-0.2,0.3-0.3,0.3c-0.2,0-0.4-0.6-0.4-1.5L753.9,75.2L753.9,75.2z"/>
	<path class="st2" d="M768.3,76.8c0.8-0.1,0.8-0.6,0.8-0.7s-0.1-0.3-0.2-0.5c-0.2-0.2-0.3-0.4-0.3-0.5s0.1-0.2,0.3-0.2
		c0.8,0,1.8,0.5,1.8,0.9c0,0.3-0.4,0.6-0.5,1c3.4,0.7,4.8,2.8,4.8,4.8c0,2.3-2.1,5-5.9,5c-3.7,0-6-2.2-6-4.9
		C763.1,79.5,764.7,77.3,768.3,76.8z M764.8,81.7c0,1.9,1.4,3.7,4.2,3.7s4.3-1.9,4.3-3.7c0-1.9-1.4-3.8-4.3-3.8
		S764.8,79.8,764.8,81.7z M780.5,90.5c-1.8,0.1-6.4,0.3-10.1,0.4c-1.1,0.1-1.2,0.5-1.9,0.5c-0.8,0-3-1.1-3-1.4
		c0-0.1,0.1-0.1,0.4-0.1c0.1,0,0.2,0,0.4,0c1.1,0.2,2.7,0.2,4.4,0.2c2.8,0,6.1-0.1,8.5-0.3c0.7,0,0.7-0.3,1.5-0.3c0.1,0,0.3,0,0.4,0
		c1.1,0.1,1.4,0.2,1.4,0.4c0,0.2-0.3,0.6-0.3,0.9c0,4,0,5.7-0.5,7.5c-0.2,0.8-0.6,1.3-0.9,1.3c-0.3,0-0.5-0.3-0.5-1v-8.1H780.5z
		 M780.6,75.2c-0.1-0.6-1.4-1.3-2.6-1.9c-0.5-0.1-0.7-0.3-0.7-0.5s0.3-0.3,1-0.3c0.9,0.2,2.1,0.5,3.2,0.8c0.8,0.3,0.9,0.4,0.9,0.7
		c0,0.2-0.1,0.5-0.1,1v5.3l1.7-0.1c1.1-0.1,0.7-0.7,2.4-0.7c0.6,0,1.9,0,1.9,0.8c0,0.3-0.3,0.6-0.9,0.6l-5.1,0.1v4.4
		c0.3,0,0.9,0,1.7-0.1c1-0.2,0.6-0.6,2.5-0.6c0.6,0,1.8,0,1.8,0.8c0,0.3-0.3,0.7-0.9,0.7l-5.2,0.1c-0.2,0.6-0.6,1.9-1.1,1.9
		c-0.3,0-0.6-0.4-0.6-1.6L780.6,75.2L780.6,75.2z"/>
</g>
<g>
	<path class="st1" d="M220.9,44.3c-0.5,0.1-0.5,0.2-0.8,0.2c-0.3,0-1.6-0.6-1.6-0.8c0,0,0-0.1,0.1-0.1c0.1,0,0.2,0,0.4,0.1
		c0.6,0.1,1.1,0.1,1.7,0.1c0.8,0,1.7-0.1,2.8-0.1c0.5,0,0.4-0.2,0.8-0.2c0.2,0,0.9,0,0.9,0.3c0,0.1-0.2,0.3-0.3,0.5
		c-1.4,3.3-3.2,5.4-6.6,7.7c-0.2,0.2-0.4,0.2-0.5,0.2c0,0-0.1,0-0.1,0c0-0.1,0.1-0.2,0.4-0.4c2.1-1.7,4.9-5,5.6-7.6
		C223.4,44.1,221.3,44.2,220.9,44.3z M227.6,42.1c0-0.3-0.8-0.6-1.5-0.9c-0.2-0.1-0.3-0.1-0.3-0.2c0-0.1,0.2-0.2,0.6-0.2
		c0.6,0.1,1.2,0.3,1.7,0.4c0.3,0.1,0.4,0.2,0.4,0.4c0,0.1,0,0.3,0,0.5v5.5h0.8c0.7-0.1,0.5-0.4,1.4-0.4c0.3,0,0.9,0,0.9,0.5
		c0,0.2-0.2,0.4-0.5,0.4h-2.6l0,4.4c0,1-0.1,1.6-0.4,2.2c-0.1,0.2-0.2,0.3-0.3,0.3c-0.1,0-0.2-0.2-0.2-0.7V42.1z"/>
	<path class="st1" d="M239.2,46.5c0-0.2-0.1-0.3-0.8-0.6c-0.2-0.1-0.3-0.1-0.3-0.2c0-0.1,0.1-0.2,0.5-0.2c1.4,0.1,1.6,0.2,1.6,0.4
		c0,0.1,0,0.2-0.1,0.3l0,1.5c0.5,0,2.6-0.1,3.4-0.1c0.6-0.1,0.5-0.3,1.1-0.3c0.2,0,1.6,0,1.6,0.5c0,0.2-0.2,0.3-0.5,0.3
		c-0.5,0-2.8,0-3.4,0c-2,0-5.8,0.1-7,0.3c-0.4,0.1-0.4,0.3-0.7,0.3c-0.4,0-1.9-0.7-1.9-0.9c0,0,0.1-0.1,0.2-0.1c0.1,0,0.2,0,0.3,0
		c0.6,0.1,1.5,0.1,2.5,0.1c1,0,2.2,0,3.3,0V46.5z M234,46c2.9-1.2,5-3.4,5.2-4c0-0.2-0.5-0.5-0.9-0.7c-0.4-0.2-0.4-0.3,0.1-0.3
		c0.2,0,2.2,0.5,2.2,0.9c0,0.1,0,0.2-0.1,0.3c-0.2,0.3-0.6,0.8-0.9,1.1c0.5,0.2,1.3,0.5,2.1,0.7c1.3,0.3,1.1-0.2,2.9,0.7
		c0.3,0.2,0.5,0.4,0.5,0.6c0,0.1-0.1,0.3-0.4,0.3c-0.1,0-0.3,0-0.6-0.1c-1.7-0.6-3.7-1.3-4.8-1.9c-2,1.7-4.9,2.8-5.4,2.8
		c-0.1,0-0.1,0-0.1,0C233.7,46.2,233.8,46.1,234,46z M242.3,50.3c-0.9,0-3.3,0.1-5,0.2c-0.6,0-0.6,0.2-1,0.2c-0.4,0-1.5-0.6-1.5-0.7
		c0,0,0.1-0.1,0.2-0.1c0,0,0.1,0,0.2,0c0.6,0.1,1.3,0.1,2.2,0.1c1.4,0,3-0.1,4.2-0.1c0.4,0,0.3-0.2,0.8-0.2h0.2
		c0.6,0,0.7,0.1,0.7,0.2c0,0.1-0.1,0.3-0.1,0.5c0,2,0,2.8-0.2,3.8c-0.1,0.4-0.3,0.7-0.5,0.7c-0.1,0-0.2-0.2-0.2-0.5V50.3z"/>
	<path class="st1" d="M254.2,50.1c0-0.3-0.3-0.4-0.7-0.6c-0.2,0-0.2-0.1-0.2-0.2c0-0.1,0.1-0.1,0.4-0.1c1.3,0.1,1.5,0.2,1.5,0.4
		c0,0.1,0,0.2,0,0.3l0,2.5c0.7,0,1.4,0,3-0.1c1-0.1,0.9-0.3,1.5-0.3c0.7,0,1.8,0.2,1.8,0.6c0,0.2-0.2,0.3-0.6,0.3h-0.2
		c-1.3-0.1-2.8-0.2-4.4-0.2c-1.8,0-3.6,0.1-5.2,0.2c-0.6,0.1-0.7,0.3-1,0.3c-0.3,0-2-0.7-2-1c0-0.1,0.1-0.1,0.2-0.1
		c0.1,0,0.1,0,0.2,0c1.2,0.2,2.3,0.3,3.9,0.3c0.6,0,1.3,0,2.1,0V50.1z M250.7,43.8c0-0.3-0.6-0.5-1.2-0.8c-0.2,0-0.3-0.1-0.3-0.2
		c0-0.1,0.1-0.2,0.5-0.2c0.9,0.1,1.6,0.2,2,0.4l4.1,0c1.7-0.1,0.7-0.5,2.4-0.5h0.1c0.4,0,0.7,0.2,0.7,0.4c0,0.2-0.2,0.4-0.7,0.4
		c-2.4,0.1-5.1,0.1-6.5,0.1c-0.2,0.1-0.3,0-0.3,0.3v3.3c0,0.6,0,0.6,2.1,0.6c0.9,0,1.9,0,2.8,0c1,0,0.7-0.4,2-0.4
		c0.7,0,0.9,0.3,0.9,0.4c0,0.2-0.2,0.4-0.6,0.4c-0.7,0-3.2,0.1-5,0.1c-0.9,0-1.7,0-1.9,0c-0.5,0-1.2-0.3-1.2-1.1L250.7,43.8z"/>
	<path class="st1" d="M271,46.3c-0.4,0-1,0.1-1.4,0.1c-0.2,0-0.3,0.2-0.5,0.2c-0.1,0-0.3-0.1-0.7-0.3c-1,2.4-2.6,4.3-4.7,5.8
		c-0.2,0.1-0.3,0.2-0.4,0.2c0,0,0,0,0,0c0-0.1,0.1-0.2,0.3-0.4c2.2-2,3.9-4.8,4.4-7.3c-0.4,0-1.5,0.1-2.3,0.1
		c-0.4,0.1-0.4,0.2-0.6,0.2c-0.2,0-1.4-0.4-1.4-0.6c0-0.1,0.1-0.1,0.2-0.1c0.1,0,0.1,0,0.2,0c0.6,0.1,1.1,0.1,1.6,0.1
		c0.5,0,1,0,1.8-0.1c0.1,0,0.9-0.1,1.1-0.1c0.6,0,0.8,0.1,0.8,0.3c0,0.1-0.3,0.4-0.4,0.5c-0.1,0.4-0.3,0.8-0.4,1.2
		c0.1,0,0.3,0,0.5,0c0.7,0,1.5-0.1,1.9-0.2v-3c0-0.3-0.7-0.6-1.1-0.8c-0.2,0-0.3-0.1-0.3-0.2s0.1-0.1,0.5-0.2
		c1.6,0.3,1.8,0.5,1.8,0.7c0,0.1,0,0.2,0,0.3l-0.1,9.1c0,1-0.2,1.8-0.5,2c0,0,0,0-0.1,0c-0.1,0-0.2-0.4-0.2-1.1v-3.4
		c-0.3,0-1.2,0.1-1.7,0.1c-0.3,0-0.3,0.2-0.5,0.2c-0.2,0-1-0.4-1-0.5c0,0,0.1-0.1,0.2-0.1c0.2,0,0.5,0,0.7,0c0.8,0,1.7-0.1,2.4-0.1
		V46.3z M273.7,42.3c0-0.3-0.7-0.7-1.3-1c-0.1-0.1-0.3-0.1-0.3-0.2c0-0.1,0.1-0.1,0.5-0.1c0.2,0,2.1,0.4,2.1,0.9
		c0,0.1-0.1,0.2-0.1,0.3l-0.1,10.2c0,1.7-0.2,2.2-0.4,2.5c-0.1,0.1-0.1,0.1-0.2,0.1c-0.1,0-0.2-0.3-0.2-0.8V42.3z"/>
	<path class="st1" d="M283.7,45.1L283.7,45.1L282,46l-0.3-1l2.1-1.1h1.1v9.7h-1.3V45.1z"/>
</g>
<g>
	<path class="st1" d="M211.1,61.5c-1.1,1.5-1.9,3.4-1.9,6.1c0,2.7,0.8,4.6,1.9,6.1h-1c-0.9-1.2-2-3.2-2-6.1c0-3,1-4.9,2-6.1H211.1z"
		/>
	<path class="st1" d="M212.7,68.5c3-2.4,4.3-5.5,4.3-5.9c0-0.2-0.6-0.7-1.1-0.9c-0.1-0.1-0.2-0.1-0.2-0.2c0-0.1,0.1-0.1,0.4-0.1
		c0.4,0,1.5,0.5,1.9,0.8c0.1,0.1,0.2,0.1,0.2,0.3c0,0.3-0.8,1.6-0.9,2c0.5,0.6,1,1.1,1.5,1.5c0.5,0.4,1,0.2,1.5,1.5
		c0.1,0.2,0.2,0.4,0.2,0.6c0,0.2-0.1,0.4-0.3,0.4c-0.2,0-0.5-0.2-0.7-0.5c-0.3-0.4-1.7-2.2-2.5-3c-1.5,2.1-4.1,4.1-4.5,4.1
		c0,0,0,0,0,0C212.4,68.8,212.5,68.6,212.7,68.5z M222.7,60.6c0-0.3-0.5-0.6-1.3-1c-0.2-0.1-0.3-0.2-0.3-0.2c0-0.1,0.1-0.2,0.5-0.2
		c0.9,0.1,1.5,0.4,1.8,0.5c0.2,0.1,0.3,0.2,0.3,0.3c0,0.1,0,0.2,0,0.4l0,8.8c0,2.8-0.1,3.1-0.4,3.7c-0.1,0.2-0.2,0.3-0.3,0.3
		c-0.1,0-0.2-0.2-0.2-0.6V60.6z"/>
	<path class="st1" d="M230.5,62.1c-0.5,0.1-0.6,0.3-0.8,0.3c-0.3,0-1.5-0.6-1.5-0.8c0,0,0-0.1,0.1-0.1s0.2,0,0.4,0
		c0.5,0.1,1.1,0.1,1.6,0.1c0.9,0,1.8,0,2.7-0.1c0.4,0,0.3-0.1,0.8-0.1c0.4,0,1,0.1,1,0.3c0,0.1-0.2,0.3-0.3,0.4
		c-1.4,2.6-3.5,4.7-6.5,6.5c-0.2,0.1-0.3,0.2-0.4,0.2c0,0,0,0,0,0c0-0.1,0.1-0.2,0.4-0.4c2.3-1.5,4.8-4.3,5.6-6.4L230.5,62.1z
		 M231.3,69.3c0-0.3-0.4-0.4-1.1-0.6c-0.2,0-0.5-0.1-0.5-0.2c0-0.2,0.6-0.3,0.8-0.3c0.3,0,0.7,0,1.2,0.1c0.5,0.1,0.6,0.1,0.6,0.3
		c0,0.1,0,0.2,0,0.4l0,2.4c0,0.5,0.2,0.6,0.5,0.6l3.8,0c1.1-0.1,0.5-0.4,1.9-0.4c0.7,0,0.9,0.2,0.9,0.5c0,0.2-0.2,0.3-0.4,0.3h-6.3
		c-1.1,0-1.4-0.6-1.4-1.1V69.3z M237,60.6c0-0.2-0.4-0.4-1.3-0.8c-0.2-0.1-0.3-0.2-0.3-0.2c0-0.1,0.2-0.1,0.5-0.2
		c0.1,0,2.1,0.3,2.1,0.8c0,0.1-0.1,0.2-0.1,0.4l0,4.7c0.2,0,0.5,0,0.7,0c0.7-0.1,0.4-0.4,1.5-0.4c0.3,0,0.9,0,0.9,0.4
		c0,0.2-0.2,0.4-0.4,0.4l-2.6,0.1c0,2.7-0.1,3.4-0.3,3.8c-0.1,0.3-0.3,0.5-0.4,0.5c-0.1,0-0.2-0.2-0.2-0.7V60.6z"/>
	<path class="st1" d="M241.7,73.7c1.1-1.5,1.9-3.4,1.9-6.1c0-2.7-0.8-4.6-1.9-6.1h1c1,1.2,2,3.1,2,6.1c0,2.9-1,4.8-2,6.1H241.7z"/>
	<path class="st1" d="M252.4,63.4L252.4,63.4l-1.7,0.9l-0.3-1l2.1-1.1h1.1v9.7h-1.3V63.4z"/>
	<path class="st1" d="M256.5,72.5l4.2-10.9h1l-4.2,10.9H256.5z"/>
	<path class="st1" d="M265.2,63.4L265.2,63.4l-1.7,0.9l-0.3-1l2.1-1.1h1.1v9.7h-1.3V63.4z"/>
	<path class="st1" d="M276.6,66.9c0,3.3-1.2,5.1-3.4,5.1c-1.9,0-3.2-1.8-3.2-5c0-3.3,1.4-5.1,3.4-5.1
		C275.4,62,276.6,63.8,276.6,66.9z M271.3,67.1c0,2.5,0.8,4,2,4c1.4,0,2-1.6,2-4.1c0-2.4-0.6-4-2-4C272.1,63,271.3,64.4,271.3,67.1z
		"/>
	<path class="st1" d="M284.3,66.9c0,3.3-1.2,5.1-3.4,5.1c-1.9,0-3.2-1.8-3.2-5c0-3.3,1.4-5.1,3.4-5.1
		C283.1,62,284.3,63.8,284.3,66.9z M279,67.1c0,2.5,0.8,4,2,4c1.4,0,2-1.6,2-4.1c0-2.4-0.6-4-2-4C279.8,63,279,64.4,279,67.1z"/>
	<path class="st1" d="M287.3,62.6c-0.1-0.3-0.4-0.5-1-0.6c-0.1,0-0.2-0.1-0.2-0.2c0-0.1,0.1-0.1,0.5-0.2c0.5,0,1.2,0.1,1.6,0.2
		c1.2,0,1.7,0,3.4-0.1c0.4,0,0.1-0.1,1-0.1c0.5,0,0.6,0.1,0.6,0.2c0,0.1-0.3,0.4-0.3,0.6c-0.2,1-0.5,2.8-0.6,3.4
		c0.4,0.1,0.7,0.3,0.7,0.4c0,0.2-0.5,0.2-0.9,0.2c-0.9,0-3,0-3.7,0.1c0,0.3-0.2,0.8-0.4,0.8c-0.2,0-0.3-0.4-0.3-1.2L287.3,62.6z
		 M288.5,62.2c-0.1,0.1-0.3,0-0.3,0.3l0.1,3.5c0.4,0,1.4,0,2.6-0.1c0.4,0,0.6-0.1,0.8-0.1c0.1-0.7,0.1-2.4,0.1-3.7L288.5,62.2z
		 M290.3,69.5c0-0.3-0.4-0.4-1.1-0.6c-0.2,0-0.3-0.1-0.3-0.2c0-0.1,0.1-0.1,0.5-0.2c0.7,0,1.3,0.1,1.6,0.1c0.3,0.1,0.3,0.1,0.3,0.3
		c0,0.1,0,0.2,0,0.4c0,0.7,0,1.5,0,2.1c0,0.3,0.2,0.5,0.7,0.5l2.7,0c1.1-0.1,0.6-0.4,1.9-0.4c0.5,0,1.1,0.1,1.1,0.5
		c0,0.2-0.1,0.3-0.4,0.3h-5.4c-1,0-1.6-0.3-1.6-1L290.3,69.5z M295.4,60.6c0-0.2-0.4-0.4-1.3-0.8c-0.2-0.1-0.3-0.2-0.3-0.2
		c0-0.1,0.2-0.1,0.5-0.2c0.1,0,2.1,0.3,2.1,0.8c0,0.1-0.1,0.2-0.1,0.4l0,4.7c0.2,0,0.5,0,0.7,0c0.7-0.1,0.4-0.4,1.5-0.4
		c0.3,0,0.9,0,0.9,0.4c0,0.2-0.2,0.4-0.4,0.4l-2.6,0.1c0,2.7-0.1,3.4-0.3,3.8c-0.1,0.3-0.3,0.5-0.4,0.5c-0.1,0-0.2-0.2-0.2-0.7V60.6
		z"/>
</g>
<g>
	<path class="st1" d="M222.8,302.1c-0.5,0.1-0.5,0.2-0.8,0.2c-0.3,0-1.6-0.6-1.6-0.8c0,0,0-0.1,0.1-0.1c0.1,0,0.2,0,0.4,0.1
		c0.6,0.1,1.1,0.1,1.7,0.1c0.8,0,1.7-0.1,2.8-0.1c0.5,0,0.4-0.2,0.8-0.2c0.2,0,0.9,0,0.9,0.3c0,0.1-0.2,0.3-0.3,0.5
		c-1.4,3.3-3.2,5.4-6.6,7.7c-0.2,0.2-0.4,0.2-0.5,0.2c0,0-0.1,0-0.1,0c0-0.1,0.1-0.2,0.4-0.4c2.1-1.7,4.9-5,5.6-7.6
		C225.3,301.9,223.2,302,222.8,302.1z M229.5,299.9c0-0.3-0.8-0.6-1.5-0.9c-0.2-0.1-0.3-0.1-0.3-0.2c0-0.1,0.2-0.2,0.6-0.2
		c0.6,0.1,1.2,0.3,1.7,0.4c0.3,0.1,0.4,0.2,0.4,0.4c0,0.1,0,0.3,0,0.5v5.5h0.8c0.7-0.1,0.5-0.4,1.4-0.4c0.3,0,0.9,0,0.9,0.5
		c0,0.2-0.2,0.4-0.5,0.4h-2.6l0,4.3c0,1-0.1,1.6-0.4,2.2c-0.1,0.2-0.2,0.3-0.3,0.3c-0.1,0-0.2-0.2-0.2-0.7V299.9z"/>
	<path class="st1" d="M241.1,304.2c0-0.2-0.1-0.3-0.8-0.6c-0.2-0.1-0.3-0.2-0.3-0.2s0.1-0.1,0.5-0.2c1.4,0.1,1.6,0.2,1.6,0.4
		c0,0.1,0,0.2-0.1,0.3l0,1.5c0.5,0,2.6-0.1,3.4-0.1c0.6-0.1,0.5-0.3,1.1-0.3c0.2,0,1.6,0,1.6,0.5c0,0.2-0.2,0.3-0.5,0.3
		c-0.5,0-2.8,0-3.4,0c-2,0-5.8,0.1-7,0.3c-0.4,0.1-0.4,0.3-0.7,0.3c-0.4,0-1.9-0.7-1.9-0.9c0,0,0.1-0.1,0.2-0.1c0.1,0,0.2,0,0.3,0
		c0.6,0.1,1.5,0.1,2.5,0.1c1,0,2.2,0,3.3,0V304.2z M235.9,303.8c2.9-1.2,5-3.4,5.2-4c0-0.2-0.5-0.5-0.9-0.7
		c-0.4-0.2-0.4-0.3,0.1-0.3c0.2,0,2.2,0.5,2.2,0.9c0,0.1,0,0.2-0.1,0.3c-0.2,0.3-0.6,0.8-0.9,1.1c0.5,0.2,1.3,0.5,2.1,0.7
		c1.3,0.3,1.1-0.2,2.9,0.7c0.3,0.2,0.5,0.4,0.5,0.6c0,0.2-0.1,0.3-0.4,0.3c-0.1,0-0.3,0-0.6-0.1c-1.7-0.6-3.7-1.3-4.8-1.9
		c-2,1.7-4.9,2.8-5.4,2.8c-0.1,0-0.1,0-0.1,0C235.6,304,235.7,303.9,235.9,303.8z M244.2,308.1c-0.9,0-3.3,0.1-5,0.2
		c-0.6,0-0.6,0.2-1,0.2c-0.4,0-1.5-0.6-1.5-0.7c0,0,0.1-0.1,0.2-0.1c0,0,0.1,0,0.2,0c0.6,0.1,1.3,0.1,2.2,0.1c1.4,0,3-0.1,4.2-0.1
		c0.4,0,0.3-0.2,0.8-0.2h0.2c0.6,0,0.7,0.1,0.7,0.2s-0.1,0.3-0.1,0.5c0,1.9,0,2.8-0.2,3.8c-0.1,0.4-0.3,0.7-0.5,0.7
		c-0.1,0-0.2-0.2-0.2-0.5V308.1z"/>
	<path class="st1" d="M256.1,307.8c0-0.3-0.3-0.4-0.7-0.6c-0.2,0-0.2-0.1-0.2-0.2c0-0.1,0.1-0.1,0.4-0.2c1.3,0.1,1.5,0.2,1.5,0.4
		c0,0.1,0,0.2,0,0.3l0,2.5c0.7,0,1.4,0,3-0.1c1-0.1,0.9-0.3,1.5-0.3c0.7,0,1.8,0.2,1.8,0.6c0,0.2-0.2,0.3-0.6,0.3h-0.1
		c-1.3-0.1-2.8-0.2-4.4-0.2c-1.8,0-3.6,0.1-5.2,0.2c-0.6,0.2-0.7,0.3-1,0.3c-0.3,0-2-0.7-2-1c0-0.1,0.1-0.1,0.2-0.1
		c0.1,0,0.1,0,0.2,0c1.2,0.2,2.3,0.3,3.9,0.3c0.6,0,1.3,0,2.1,0V307.8z M252.6,301.5c0-0.3-0.6-0.5-1.2-0.8c-0.2,0-0.3-0.1-0.3-0.2
		c0-0.1,0.1-0.2,0.5-0.2c0.9,0.1,1.6,0.2,2,0.4l4.1,0c1.7-0.1,0.7-0.5,2.4-0.5h0.1c0.4,0,0.7,0.2,0.7,0.4c0,0.2-0.2,0.4-0.7,0.4
		c-2.4,0.1-5.1,0.1-6.5,0.1c-0.2,0.1-0.3,0-0.3,0.3v3.3c0,0.6,0,0.6,2.1,0.6c0.9,0,1.9,0,2.8,0c1,0,0.7-0.4,2-0.4
		c0.7,0,0.9,0.3,0.9,0.4c0,0.2-0.2,0.4-0.6,0.4c-0.7,0-3.2,0.1-5,0.1c-0.9,0-1.7,0-1.9,0c-0.5,0-1.2-0.3-1.2-1.1L252.6,301.5z"/>
	<path class="st1" d="M272.9,304c-0.4,0-1,0.1-1.4,0.1c-0.2,0-0.3,0.2-0.5,0.2c-0.1,0-0.3-0.1-0.7-0.3c-1,2.4-2.6,4.3-4.7,5.8
		c-0.2,0.1-0.3,0.2-0.4,0.2c0,0,0,0,0,0c0-0.1,0.1-0.2,0.3-0.4c2.2-1.9,3.9-4.8,4.4-7.3c-0.4,0-1.5,0.1-2.3,0.1
		c-0.4,0.1-0.4,0.2-0.6,0.2c-0.2,0-1.4-0.4-1.4-0.6c0-0.1,0.1-0.1,0.2-0.1c0.1,0,0.1,0,0.2,0c0.6,0.1,1.1,0.1,1.6,0.1
		c0.5,0,1,0,1.8-0.1c0.1,0,0.9-0.1,1.1-0.1c0.6,0,0.8,0.1,0.8,0.3c0,0.1-0.3,0.4-0.4,0.5c-0.1,0.4-0.3,0.8-0.4,1.2
		c0.1,0,0.3,0,0.5,0c0.7,0,1.5-0.1,1.9-0.2v-3c0-0.3-0.7-0.6-1.1-0.8c-0.2,0-0.3-0.1-0.3-0.2c0-0.1,0.1-0.1,0.5-0.2
		c1.6,0.3,1.8,0.5,1.8,0.7c0,0.1,0,0.2,0,0.3l-0.1,9.1c0,1-0.2,1.8-0.5,2c0,0,0,0-0.1,0c-0.1,0-0.2-0.4-0.2-1.1v-3.4
		c-0.3,0-1.2,0.1-1.7,0.1c-0.3,0-0.3,0.2-0.5,0.2c-0.2,0-1-0.4-1-0.5c0,0,0.1-0.1,0.2-0.1c0.2,0,0.5,0,0.7,0c0.8,0,1.7-0.1,2.4-0.2
		V304z M275.6,300c0-0.3-0.7-0.7-1.3-1c-0.1-0.1-0.3-0.2-0.3-0.2c0-0.1,0.1-0.1,0.5-0.1c0.2,0,2.1,0.4,2.1,0.9
		c0,0.1-0.1,0.2-0.1,0.3l-0.1,10.2c0,1.7-0.2,2.2-0.4,2.5c-0.1,0.1-0.1,0.1-0.2,0.1c-0.1,0-0.2-0.3-0.2-0.8V300z"/>
	<path class="st1" d="M282.8,311.3v-0.8l1-1c2.5-2.4,3.6-3.6,3.6-5.1c0-1-0.5-1.9-1.9-1.9c-0.9,0-1.6,0.4-2.1,0.8l-0.4-0.9
		c0.7-0.6,1.6-1,2.8-1c2.1,0,3,1.4,3,2.8c0,1.8-1.3,3.3-3.4,5.2l-0.8,0.7v0h4.4v1.1H282.8z"/>
</g>
<g>
	<path class="st1" d="M217,319.2c-1.1,1.5-1.9,3.4-1.9,6.1c0,2.7,0.8,4.6,1.9,6.1h-1c-0.9-1.2-2-3.2-2-6.1c0-3,1-4.9,2-6.1H217z"/>
	<path class="st1" d="M218.6,326.2c3-2.4,4.3-5.5,4.3-5.9c0-0.2-0.6-0.7-1.1-0.9c-0.1-0.1-0.2-0.2-0.2-0.2s0.1-0.1,0.4-0.1
		c0.4,0,1.5,0.5,1.9,0.8c0.1,0.1,0.2,0.2,0.2,0.3c0,0.3-0.8,1.7-0.9,2c0.5,0.6,1,1.1,1.5,1.5c0.5,0.4,1,0.2,1.5,1.5
		c0.1,0.2,0.2,0.4,0.2,0.6c0,0.2-0.1,0.4-0.3,0.4c-0.2,0-0.5-0.2-0.7-0.5c-0.3-0.4-1.7-2.2-2.5-3c-1.5,2.1-4.1,4.1-4.5,4.1
		c0,0,0,0,0,0C218.3,326.5,218.4,326.4,218.6,326.2z M228.5,318.4c0-0.3-0.5-0.6-1.3-1c-0.2-0.1-0.3-0.2-0.3-0.2
		c0-0.1,0.1-0.2,0.5-0.2c0.9,0.1,1.5,0.4,1.8,0.5c0.2,0.1,0.3,0.2,0.3,0.3c0,0.1,0,0.2,0,0.4l0,8.8c0,2.8-0.1,3.1-0.4,3.7
		c-0.1,0.2-0.2,0.3-0.3,0.3c-0.1,0-0.2-0.2-0.2-0.6V318.4z"/>
	<path class="st1" d="M236.3,319.8c-0.5,0.1-0.6,0.3-0.8,0.3c-0.3,0-1.5-0.6-1.5-0.8c0,0,0-0.1,0.1-0.1s0.2,0,0.4,0
		c0.5,0.1,1.1,0.1,1.6,0.1c0.9,0,1.8,0,2.7-0.1c0.4,0,0.3-0.2,0.8-0.2c0.4,0,1,0.1,1,0.3c0,0.1-0.2,0.3-0.3,0.4
		c-1.4,2.6-3.5,4.7-6.5,6.5c-0.2,0.1-0.3,0.2-0.4,0.2c0,0,0,0,0,0c0-0.1,0.1-0.2,0.4-0.4c2.3-1.5,4.8-4.3,5.6-6.4L236.3,319.8z
		 M237.2,327.1c0-0.3-0.4-0.4-1.1-0.6c-0.2,0-0.5-0.1-0.5-0.2c0-0.2,0.6-0.3,0.8-0.3c0.3,0,0.7,0,1.2,0.1c0.5,0.1,0.6,0.1,0.6,0.3
		c0,0.1,0,0.2,0,0.4l0,2.4c0,0.5,0.2,0.6,0.5,0.6l3.8,0c1.1-0.1,0.5-0.4,1.9-0.4c0.7,0,0.9,0.2,0.9,0.4c0,0.2-0.2,0.3-0.4,0.3h-6.3
		c-1.1,0-1.4-0.6-1.4-1.1V327.1z M242.9,318.3c0-0.2-0.4-0.4-1.3-0.8c-0.2-0.1-0.3-0.2-0.3-0.2c0-0.1,0.2-0.2,0.5-0.2
		c0.1,0,2.1,0.3,2.1,0.8c0,0.1-0.1,0.2-0.1,0.4l0,4.7c0.2,0,0.5,0,0.7,0c0.7-0.1,0.4-0.4,1.5-0.4c0.3,0,0.9,0,0.9,0.4
		c0,0.2-0.2,0.4-0.4,0.4l-2.6,0.1c0,2.7-0.1,3.4-0.3,3.8c-0.1,0.3-0.3,0.5-0.4,0.5c-0.1,0-0.2-0.2-0.2-0.7V318.3z"/>
	<path class="st1" d="M247.6,331.5c1.1-1.5,1.9-3.4,1.9-6.1c0-2.7-0.8-4.6-1.9-6.1h1c1,1.2,2,3.1,2,6.1c0,2.9-1,4.8-2,6.1H247.6z"/>
	<path class="st1" d="M258.3,321.1L258.3,321.1l-1.7,0.9l-0.3-1l2.1-1.1h1.1v9.8h-1.3V321.1z"/>
	<path class="st1" d="M262.4,330.3l4.2-10.9h1l-4.2,10.9H262.4z"/>
	<path class="st1" d="M271.1,321.1L271.1,321.1l-1.7,0.9l-0.3-1l2.1-1.1h1.1v9.8h-1.3V321.1z"/>
	<path class="st1" d="M282.4,324.7c0,3.3-1.2,5.1-3.4,5.1c-1.9,0-3.2-1.8-3.2-5c0-3.3,1.4-5.1,3.4-5.1
		C281.3,319.7,282.4,321.6,282.4,324.7z M277.1,324.8c0,2.5,0.8,4,2,4c1.4,0,2-1.6,2-4.1c0-2.4-0.6-4-2-4
		C278,320.8,277.1,322.2,277.1,324.8z"/>
	<path class="st1" d="M290.1,324.7c0,3.3-1.2,5.1-3.4,5.1c-1.9,0-3.2-1.8-3.2-5c0-3.3,1.4-5.1,3.4-5.1
		C289,319.7,290.1,321.6,290.1,324.7z M284.8,324.8c0,2.5,0.8,4,2,4c1.4,0,2-1.6,2-4.1c0-2.4-0.6-4-2-4
		C285.7,320.8,284.8,322.2,284.8,324.8z"/>
</g>
</svg>
