<svg xmlns="http://www.w3.org/2000/svg" xmlns:xlink="http://www.w3.org/1999/xlink" viewBox="2956 -1571.679 1066 362.883">
  <defs>
    <style>
      .cls-1 {
        fill: none;
      }

      .cls-2 {
        opacity: 0.4;
        clip-path: url(#clip-path);
      }

      .cls-3 {
        fill: #d6d6d6;
      }

      .cls-4 {
        fill: #f89638;
      }

      .cls-5 {
        fill: #f24a5d;
      }

      .cls-6 {
        fill: #fff;
      }

      .cls-7 {
        fill: #dc4076;
      }

      .cls-8 {
        fill: #172143;
      }
    </style>
    <clipPath id="clip-path">
      <rect class="cls-1" width="1066" height="293"/>
    </clipPath>
  </defs>
  <g id="Group_1308" data-name="Group 1308" transform="translate(2828 -8251)">
    <g id="Repeat_Grid_14" data-name="Repeat Grid 14" class="cls-2" transform="translate(128 6711)">
      <g transform="translate(-128 -7236)">
        <rect id="Rectangle_459" data-name="Rectangle 459" class="cls-3" width="924" height="1" transform="translate(207 7236)"/>
      </g>
      <g transform="translate(-128 -7184)">
        <rect id="Rectangle_459-2" data-name="Rectangle 459" class="cls-3" width="924" height="1" transform="translate(207 7236)"/>
      </g>
      <g transform="translate(-128 -7132)">
        <rect id="Rectangle_459-3" data-name="Rectangle 459" class="cls-3" width="924" height="1" transform="translate(207 7236)"/>
      </g>
      <g transform="translate(-128 -7080)">
        <rect id="Rectangle_459-4" data-name="Rectangle 459" class="cls-3" width="924" height="1" transform="translate(207 7236)"/>
      </g>
      <g transform="translate(-128 -7028)">
        <rect id="Rectangle_459-5" data-name="Rectangle 459" class="cls-3" width="924" height="1" transform="translate(207 7236)"/>
      </g>
      <g transform="translate(-128 -6976)">
        <rect id="Rectangle_459-6" data-name="Rectangle 459" class="cls-3" width="924" height="1" transform="translate(207 7236)"/>
      </g>
    </g>
    <rect id="Rectangle_457" data-name="Rectangle 457" class="cls-4" width="100" height="94" transform="translate(339 7010) rotate(180)"/>
    <path id="Rectangle_457-2" data-name="Rectangle 457" class="cls-5" d="M5,0H95a5,5,0,0,1,5,5V130a0,0,0,0,1,0,0H0a0,0,0,0,1,0,0V5A5,5,0,0,1,5,0Z" transform="translate(531 7010) rotate(180)"/>
    <rect id="Rectangle_470" data-name="Rectangle 470" class="cls-6" width="100" height="1" transform="translate(531 6916) rotate(180)"/>
    <path id="Path_2293" data-name="Path 2293" class="cls-5" d="M2,0H98a1.884,1.884,0,0,1,2,1.741V147.106H0V1.741A1.884,1.884,0,0,1,2,0Z" transform="translate(723 6988.106) rotate(180)"/>
    <path id="Rectangle_457-3" data-name="Rectangle 457" class="cls-5" d="M5,0H95a5,5,0,0,1,5,5V194a0,0,0,0,1,0,0H0a0,0,0,0,1,0,0V5A5,5,0,0,1,5,0Z" transform="translate(915 7010) rotate(180)"/>
    <rect id="Rectangle_456" data-name="Rectangle 456" class="cls-5" width="100" height="280" transform="translate(1007 6711)"/>
    <path id="Rectangle_458" data-name="Rectangle 458" class="cls-4" d="M2,0H158a2,2,0,0,1,2,2V3a0,0,0,0,1,0,0H0A0,0,0,0,1,0,3V2A2,2,0,0,1,2,0Z" transform="translate(207.606 7014)"/>
    <path id="Rectangle_464" data-name="Rectangle 464" class="cls-7" d="M2,0H735a2,2,0,0,1,2,2V3a0,0,0,0,1,0,0H0A0,0,0,0,1,0,3V2A2,2,0,0,1,2,0Z" transform="translate(393.222 7014)"/>
    <rect id="Rectangle_460" data-name="Rectangle 460" class="cls-4" width="100" height="94" transform="translate(531 7010) rotate(180)"/>
    <rect id="Rectangle_461" data-name="Rectangle 461" class="cls-4" width="100" height="94" transform="translate(723 7010) rotate(180)"/>
    <rect id="Rectangle_462" data-name="Rectangle 462" class="cls-4" width="100" height="94" transform="translate(915 7010) rotate(180)"/>
    <rect id="Rectangle_463" data-name="Rectangle 463" class="cls-4" width="100" height="94" transform="translate(1107 7010) rotate(180)"/>
    <path id="Path_2312" data-name="Path 2312" class="cls-8" d="M9.061,0H.85V-1.564A50.2,50.2,0,0,0,5.687-5.551,3.665,3.665,0,0,0,6.97-8.007a1.506,1.506,0,0,0-.6-1.284,2.361,2.361,0,0,0-1.453-.45,3.881,3.881,0,0,0-3.06,1.36L.7-9.69a4.721,4.721,0,0,1,1.845-1.351,5.978,5.978,0,0,1,2.338-.468,4.587,4.587,0,0,1,2.924.935,3.086,3.086,0,0,1,1.19,2.567A4.5,4.5,0,0,1,7.769-5.1a23.917,23.917,0,0,1-3.74,3.349H9.061Zm8.33-.306a4.068,4.068,0,0,1-2.04.51,4.068,4.068,0,0,1-2.04-.51,3.92,3.92,0,0,1-1.428-1.36,6.9,6.9,0,0,1-.8-1.87,8.212,8.212,0,0,1-.272-2.125,8.212,8.212,0,0,1,.272-2.125,6.77,6.77,0,0,1,.8-1.862A3.944,3.944,0,0,1,13.311-11a4.068,4.068,0,0,1,2.04-.51,4.068,4.068,0,0,1,2.04.51,3.944,3.944,0,0,1,1.428,1.351,6.77,6.77,0,0,1,.8,1.862,8.212,8.212,0,0,1,.272,2.125,8.212,8.212,0,0,1-.272,2.125,6.9,6.9,0,0,1-.8,1.87A3.92,3.92,0,0,1,17.391-.306ZM13.447-2.72a2.017,2.017,0,0,0,1.9,1.156,2.017,2.017,0,0,0,1.9-1.156,6.254,6.254,0,0,0,.612-2.941,8.079,8.079,0,0,0-.229-2.023,3.153,3.153,0,0,0-.816-1.47,2,2,0,0,0-1.47-.587,2,2,0,0,0-1.471.587,3.153,3.153,0,0,0-.816,1.47,8.079,8.079,0,0,0-.229,2.023A6.254,6.254,0,0,0,13.447-2.72ZM25.84,0H23.851V-8.755L22-6.834,20.842-8.041l3.264-3.3H25.84ZM35.2-.621A5.483,5.483,0,0,1,32.113.2a5.525,5.525,0,0,1-3.094-.825,2.592,2.592,0,0,1-1.258-2.287,2.538,2.538,0,0,1,.722-1.8,4.4,4.4,0,0,1,1.827-1.139,4.134,4.134,0,0,1-1.708-1,2.3,2.3,0,0,1-.655-1.683,2.514,2.514,0,0,1,.366-1.343,2.643,2.643,0,0,1,.969-.935,5.254,5.254,0,0,1,1.326-.519,6.25,6.25,0,0,1,1.5-.179,6.147,6.147,0,0,1,1.5.179,5.427,5.427,0,0,1,1.326.519,2.624,2.624,0,0,1,.977.935,2.514,2.514,0,0,1,.366,1.343q0,1.921-2.38,2.686a4.4,4.4,0,0,1,1.827,1.139,2.538,2.538,0,0,1,.723,1.8A2.6,2.6,0,0,1,35.2-.621ZM32.113-6.63A6.314,6.314,0,0,0,33-6.86a2.52,2.52,0,0,0,.841-.51,1.11,1.11,0,0,0,.417-.859,1.27,1.27,0,0,0-.6-1.1,2.691,2.691,0,0,0-1.539-.408,2.724,2.724,0,0,0-1.556.408,1.27,1.27,0,0,0-.6,1.1,1.1,1.1,0,0,0,.425.859,2.608,2.608,0,0,0,.85.51A6.314,6.314,0,0,0,32.113-6.63Zm0,5.066a2.961,2.961,0,0,0,1.649-.442,1.331,1.331,0,0,0,.68-1.156,1.4,1.4,0,0,0-.79-1.233,3.9,3.9,0,0,0-1.539-.552,4.157,4.157,0,0,0-.935.229,2.889,2.889,0,0,0-.952.6,1.265,1.265,0,0,0-.459.96,1.334,1.334,0,0,0,.672,1.156A2.983,2.983,0,0,0,32.113-1.564Z" transform="translate(271 7042)"/>
    <path id="Path_2313" data-name="Path 2313" class="cls-8" d="M9.061,0H.85V-1.564A50.2,50.2,0,0,0,5.687-5.551,3.665,3.665,0,0,0,6.97-8.007a1.506,1.506,0,0,0-.6-1.284,2.361,2.361,0,0,0-1.453-.45,3.881,3.881,0,0,0-3.06,1.36L.7-9.69a4.721,4.721,0,0,1,1.845-1.351,5.978,5.978,0,0,1,2.338-.468,4.587,4.587,0,0,1,2.924.935,3.086,3.086,0,0,1,1.19,2.567A4.5,4.5,0,0,1,7.769-5.1a23.917,23.917,0,0,1-3.74,3.349H9.061Zm8.33-.306a4.068,4.068,0,0,1-2.04.51,4.068,4.068,0,0,1-2.04-.51,3.92,3.92,0,0,1-1.428-1.36,6.9,6.9,0,0,1-.8-1.87,8.212,8.212,0,0,1-.272-2.125,8.212,8.212,0,0,1,.272-2.125,6.77,6.77,0,0,1,.8-1.862A3.944,3.944,0,0,1,13.311-11a4.068,4.068,0,0,1,2.04-.51,4.068,4.068,0,0,1,2.04.51,3.944,3.944,0,0,1,1.428,1.351,6.77,6.77,0,0,1,.8,1.862,8.212,8.212,0,0,1,.272,2.125,8.212,8.212,0,0,1-.272,2.125,6.9,6.9,0,0,1-.8,1.87A3.92,3.92,0,0,1,17.391-.306ZM13.447-2.72a2.017,2.017,0,0,0,1.9,1.156,2.017,2.017,0,0,0,1.9-1.156,6.254,6.254,0,0,0,.612-2.941,8.079,8.079,0,0,0-.229-2.023,3.153,3.153,0,0,0-.816-1.47,2,2,0,0,0-1.47-.587,2,2,0,0,0-1.471.587,3.153,3.153,0,0,0-.816,1.47,8.079,8.079,0,0,0-.229,2.023A6.254,6.254,0,0,0,13.447-2.72ZM25.84,0H23.851V-8.755L22-6.834,20.842-8.041l3.264-3.3H25.84Zm5.712.187a4.394,4.394,0,0,1-3.247-1.258l.918-1.5a3.113,3.113,0,0,0,2.329.986,2.55,2.55,0,0,0,2.219-1.1A4.439,4.439,0,0,0,34.544-5.3v-.34a3.947,3.947,0,0,1-1.275,1.113,3.461,3.461,0,0,1-1.768.485,3.947,3.947,0,0,1-2.712-.969,3.419,3.419,0,0,1-1.1-2.7,3.575,3.575,0,0,1,1.164-2.712,4.223,4.223,0,0,1,3.018-1.1,4.282,4.282,0,0,1,2.677.825,4.509,4.509,0,0,1,1.539,2.108,8.681,8.681,0,0,1,.459,2.932,6.545,6.545,0,0,1-1.309,4.2A4.44,4.44,0,0,1,31.552.187Zm.476-5.95a2.9,2.9,0,0,0,1.394-.357,3.087,3.087,0,0,0,1.088-.969,3.419,3.419,0,0,0-.705-1.87,2.172,2.172,0,0,0-1.828-.8,2.228,2.228,0,0,0-1.649.612,1.885,1.885,0,0,0-.612,1.36,1.8,1.8,0,0,0,.663,1.5A2.6,2.6,0,0,0,32.028-5.763Z" transform="translate(463 7042)"/>
    <path id="Path_2314" data-name="Path 2314" class="cls-8" d="M9.061,0H.85V-1.564A50.2,50.2,0,0,0,5.687-5.551,3.665,3.665,0,0,0,6.97-8.007a1.506,1.506,0,0,0-.6-1.284,2.361,2.361,0,0,0-1.453-.45,3.881,3.881,0,0,0-3.06,1.36L.7-9.69a4.721,4.721,0,0,1,1.845-1.351,5.978,5.978,0,0,1,2.338-.468,4.587,4.587,0,0,1,2.924.935,3.086,3.086,0,0,1,1.19,2.567A4.5,4.5,0,0,1,7.769-5.1a23.917,23.917,0,0,1-3.74,3.349H9.061Zm8.33-.306a4.068,4.068,0,0,1-2.04.51,4.068,4.068,0,0,1-2.04-.51,3.92,3.92,0,0,1-1.428-1.36,6.9,6.9,0,0,1-.8-1.87,8.212,8.212,0,0,1-.272-2.125,8.212,8.212,0,0,1,.272-2.125,6.77,6.77,0,0,1,.8-1.862A3.944,3.944,0,0,1,13.311-11a4.068,4.068,0,0,1,2.04-.51,4.068,4.068,0,0,1,2.04.51,3.944,3.944,0,0,1,1.428,1.351,6.77,6.77,0,0,1,.8,1.862,8.212,8.212,0,0,1,.272,2.125,8.212,8.212,0,0,1-.272,2.125,6.9,6.9,0,0,1-.8,1.87A3.92,3.92,0,0,1,17.391-.306ZM13.447-2.72a2.017,2.017,0,0,0,1.9,1.156,2.017,2.017,0,0,0,1.9-1.156,6.254,6.254,0,0,0,.612-2.941,8.079,8.079,0,0,0-.229-2.023,3.153,3.153,0,0,0-.816-1.47,2,2,0,0,0-1.47-.587,2,2,0,0,0-1.471.587,3.153,3.153,0,0,0-.816,1.47,8.079,8.079,0,0,0-.229,2.023A6.254,6.254,0,0,0,13.447-2.72ZM29.648,0H21.437V-1.564a50.2,50.2,0,0,0,4.837-3.987,3.665,3.665,0,0,0,1.284-2.456,1.506,1.506,0,0,0-.6-1.284,2.361,2.361,0,0,0-1.454-.45,3.881,3.881,0,0,0-3.06,1.36L21.284-9.69a4.721,4.721,0,0,1,1.844-1.351,5.978,5.978,0,0,1,2.337-.468,4.587,4.587,0,0,1,2.924.935,3.086,3.086,0,0,1,1.19,2.567A4.5,4.5,0,0,1,28.356-5.1a23.917,23.917,0,0,1-3.74,3.349h5.032Zm8.33-.306a4.068,4.068,0,0,1-2.04.51,4.068,4.068,0,0,1-2.04-.51,3.92,3.92,0,0,1-1.428-1.36,6.9,6.9,0,0,1-.8-1.87A8.212,8.212,0,0,1,31.4-5.661a8.212,8.212,0,0,1,.272-2.125,6.77,6.77,0,0,1,.8-1.862A3.944,3.944,0,0,1,33.9-11a4.068,4.068,0,0,1,2.04-.51,4.068,4.068,0,0,1,2.04.51,3.944,3.944,0,0,1,1.428,1.351,6.77,6.77,0,0,1,.8,1.862,8.212,8.212,0,0,1,.272,2.125,8.212,8.212,0,0,1-.272,2.125,6.9,6.9,0,0,1-.8,1.87A3.92,3.92,0,0,1,37.978-.306ZM34.034-2.72a2.017,2.017,0,0,0,1.9,1.156,2.017,2.017,0,0,0,1.9-1.156,6.254,6.254,0,0,0,.612-2.941,8.079,8.079,0,0,0-.229-2.023,3.153,3.153,0,0,0-.816-1.47,2,2,0,0,0-1.471-.587,2,2,0,0,0-1.471.587,3.153,3.153,0,0,0-.816,1.47,8.079,8.079,0,0,0-.229,2.023A6.254,6.254,0,0,0,34.034-2.72Z" transform="translate(653 7042)"/>
    <path id="Path_2315" data-name="Path 2315" class="cls-8" d="M9.061,0H.85V-1.564A50.2,50.2,0,0,0,5.687-5.551,3.665,3.665,0,0,0,6.97-8.007a1.506,1.506,0,0,0-.6-1.284,2.361,2.361,0,0,0-1.453-.45,3.881,3.881,0,0,0-3.06,1.36L.7-9.69a4.721,4.721,0,0,1,1.845-1.351,5.978,5.978,0,0,1,2.338-.468,4.587,4.587,0,0,1,2.924.935,3.086,3.086,0,0,1,1.19,2.567A4.5,4.5,0,0,1,7.769-5.1a23.917,23.917,0,0,1-3.74,3.349H9.061Zm8.33-.306a4.068,4.068,0,0,1-2.04.51,4.068,4.068,0,0,1-2.04-.51,3.92,3.92,0,0,1-1.428-1.36,6.9,6.9,0,0,1-.8-1.87,8.212,8.212,0,0,1-.272-2.125,8.212,8.212,0,0,1,.272-2.125,6.77,6.77,0,0,1,.8-1.862A3.944,3.944,0,0,1,13.311-11a4.068,4.068,0,0,1,2.04-.51,4.068,4.068,0,0,1,2.04.51,3.944,3.944,0,0,1,1.428,1.351,6.77,6.77,0,0,1,.8,1.862,8.212,8.212,0,0,1,.272,2.125,8.212,8.212,0,0,1-.272,2.125,6.9,6.9,0,0,1-.8,1.87A3.92,3.92,0,0,1,17.391-.306ZM13.447-2.72a2.017,2.017,0,0,0,1.9,1.156,2.017,2.017,0,0,0,1.9-1.156,6.254,6.254,0,0,0,.612-2.941,8.079,8.079,0,0,0-.229-2.023,3.153,3.153,0,0,0-.816-1.47,2,2,0,0,0-1.47-.587,2,2,0,0,0-1.471.587,3.153,3.153,0,0,0-.816,1.47,8.079,8.079,0,0,0-.229,2.023A6.254,6.254,0,0,0,13.447-2.72ZM29.648,0H21.437V-1.564a50.2,50.2,0,0,0,4.837-3.987,3.665,3.665,0,0,0,1.284-2.456,1.506,1.506,0,0,0-.6-1.284,2.361,2.361,0,0,0-1.454-.45,3.881,3.881,0,0,0-3.06,1.36L21.284-9.69a4.721,4.721,0,0,1,1.844-1.351,5.978,5.978,0,0,1,2.337-.468,4.587,4.587,0,0,1,2.924.935,3.086,3.086,0,0,1,1.19,2.567A4.5,4.5,0,0,1,28.356-5.1a23.917,23.917,0,0,1-3.74,3.349h5.032Zm6.307,0H33.966V-8.755L32.113-6.834,30.957-8.041l3.264-3.3h1.734Z" transform="translate(847 7042)"/>
    <path id="Path_2316" data-name="Path 2316" class="cls-8" d="M9.061,0H.85V-1.564A50.2,50.2,0,0,0,5.687-5.551,3.665,3.665,0,0,0,6.97-8.007a1.506,1.506,0,0,0-.6-1.284,2.361,2.361,0,0,0-1.453-.45,3.881,3.881,0,0,0-3.06,1.36L.7-9.69a4.721,4.721,0,0,1,1.845-1.351,5.978,5.978,0,0,1,2.338-.468,4.587,4.587,0,0,1,2.924.935,3.086,3.086,0,0,1,1.19,2.567A4.5,4.5,0,0,1,7.769-5.1a23.917,23.917,0,0,1-3.74,3.349H9.061Zm8.33-.306a4.068,4.068,0,0,1-2.04.51,4.068,4.068,0,0,1-2.04-.51,3.92,3.92,0,0,1-1.428-1.36,6.9,6.9,0,0,1-.8-1.87,8.212,8.212,0,0,1-.272-2.125,8.212,8.212,0,0,1,.272-2.125,6.77,6.77,0,0,1,.8-1.862A3.944,3.944,0,0,1,13.311-11a4.068,4.068,0,0,1,2.04-.51,4.068,4.068,0,0,1,2.04.51,3.944,3.944,0,0,1,1.428,1.351,6.77,6.77,0,0,1,.8,1.862,8.212,8.212,0,0,1,.272,2.125,8.212,8.212,0,0,1-.272,2.125,6.9,6.9,0,0,1-.8,1.87A3.92,3.92,0,0,1,17.391-.306ZM13.447-2.72a2.017,2.017,0,0,0,1.9,1.156,2.017,2.017,0,0,0,1.9-1.156,6.254,6.254,0,0,0,.612-2.941,8.079,8.079,0,0,0-.229-2.023,3.153,3.153,0,0,0-.816-1.47,2,2,0,0,0-1.47-.587,2,2,0,0,0-1.471.587,3.153,3.153,0,0,0-.816,1.47,8.079,8.079,0,0,0-.229,2.023A6.254,6.254,0,0,0,13.447-2.72ZM29.648,0H21.437V-1.564a50.2,50.2,0,0,0,4.837-3.987,3.665,3.665,0,0,0,1.284-2.456,1.506,1.506,0,0,0-.6-1.284,2.361,2.361,0,0,0-1.454-.45,3.881,3.881,0,0,0-3.06,1.36L21.284-9.69a4.721,4.721,0,0,1,1.844-1.351,5.978,5.978,0,0,1,2.337-.468,4.587,4.587,0,0,1,2.924.935,3.086,3.086,0,0,1,1.19,2.567A4.5,4.5,0,0,1,28.356-5.1a23.917,23.917,0,0,1-3.74,3.349h5.032ZM39.763,0H31.552V-1.564a50.2,50.2,0,0,0,4.837-3.987,3.665,3.665,0,0,0,1.284-2.456,1.506,1.506,0,0,0-.6-1.284,2.361,2.361,0,0,0-1.453-.45,3.881,3.881,0,0,0-3.06,1.36L31.4-9.69a4.721,4.721,0,0,1,1.844-1.351,5.978,5.978,0,0,1,2.338-.468,4.587,4.587,0,0,1,2.924.935A3.086,3.086,0,0,1,39.7-8.007,4.5,4.5,0,0,1,38.471-5.1a23.917,23.917,0,0,1-3.74,3.349h5.032Z" transform="translate(1037 7042)"/>
    <path id="Path_2317" data-name="Path 2317" class="cls-6" d="M4.556,1.7V.17A5.661,5.661,0,0,1,.6-1.6L1.7-3.128A4.783,4.783,0,0,0,4.556-1.615V-4.9A13.522,13.522,0,0,1,3.23-5.3a5.977,5.977,0,0,1-1.105-.561,2.393,2.393,0,0,1-.875-.952,3.027,3.027,0,0,1-.3-1.385,2.931,2.931,0,0,1,.986-2.227,4.229,4.229,0,0,1,2.618-1.054v-1.581h1.36v1.6a5.641,5.641,0,0,1,3.417,1.53L8.194-8.449a4.432,4.432,0,0,0-2.278-1.19v2.924q.629.17,1.071.323a7.249,7.249,0,0,1,.977.433,3.376,3.376,0,0,1,.859.612,2.723,2.723,0,0,1,.544.859A3.051,3.051,0,0,1,9.588-3.3,3.263,3.263,0,0,1,8.662-.944,4.156,4.156,0,0,1,5.916.17V1.7Zm2.6-3.859a1.343,1.343,0,0,0,.408-.952A1.04,1.04,0,0,0,7.14-3.97a3.742,3.742,0,0,0-1.224-.57V-1.6A2.151,2.151,0,0,0,7.157-2.159ZM2.992-8.33q0,.816,1.564,1.258V-9.724a1.906,1.906,0,0,0-1.148.451A1.23,1.23,0,0,0,2.992-8.33ZM15.538,0H13.549V-8.755L11.7-6.834,10.54-8.041l3.264-3.3h1.734Zm4.573-.646A3.274,3.274,0,0,1,19.678.978a3.829,3.829,0,0,1-1.165,1.283l-.8-.663A2.873,2.873,0,0,0,18.5.884,2.158,2.158,0,0,0,18.938,0a.915.915,0,0,1-.289.051.976.976,0,0,1-.731-.3,1.063,1.063,0,0,1-.289-.773,1.141,1.141,0,0,1,.34-.825,1.1,1.1,0,0,1,.816-.349,1.238,1.238,0,0,1,.935.416A1.585,1.585,0,0,1,20.111-.646ZM29.971,0H21.76V-1.564A50.2,50.2,0,0,0,26.6-5.551,3.665,3.665,0,0,0,27.88-8.007a1.506,1.506,0,0,0-.6-1.284,2.361,2.361,0,0,0-1.453-.45,3.881,3.881,0,0,0-3.06,1.36L21.607-9.69a4.721,4.721,0,0,1,1.844-1.351,5.978,5.978,0,0,1,2.337-.468,4.587,4.587,0,0,1,2.924.935A3.086,3.086,0,0,1,29.9-8.007,4.5,4.5,0,0,1,28.679-5.1a23.917,23.917,0,0,1-3.74,3.349h5.032ZM44.03,0H42.245V-5.355q0-1.479-1.343-1.479a2.056,2.056,0,0,0-1.088.323A2.533,2.533,0,0,0,39-5.746V0H37.213V-5.355q0-1.479-1.36-1.479a1.986,1.986,0,0,0-1.062.323,2.665,2.665,0,0,0-.824.782V0H32.181V-8.211h1.785v1.122a3.109,3.109,0,0,1,1.063-.893,3.181,3.181,0,0,1,1.606-.434A2.081,2.081,0,0,1,38.879-6.9a3.351,3.351,0,0,1,1.156-1.062,3.164,3.164,0,0,1,1.632-.451q2.363,0,2.363,2.482Zm2.482.34H45.186l4.029-12.019h1.326ZM59.6,0H51.391V-1.564a50.2,50.2,0,0,0,4.837-3.987,3.665,3.665,0,0,0,1.284-2.456,1.506,1.506,0,0,0-.6-1.284,2.361,2.361,0,0,0-1.454-.45,3.881,3.881,0,0,0-3.06,1.36L51.238-9.69a4.721,4.721,0,0,1,1.845-1.351,5.978,5.978,0,0,1,2.338-.468,4.587,4.587,0,0,1,2.924.935,3.086,3.086,0,0,1,1.19,2.567A4.5,4.5,0,0,1,58.31-5.1a23.917,23.917,0,0,1-3.74,3.349H59.6Zm8.925,0H66.538V-2.567H61.132v-1.6l4.658-7.174h2.737v7.021H70.04v1.751H68.527ZM66.538-4.318V-9.554L63.087-4.318ZM79.016,0H77.231V-5.168A1.639,1.639,0,0,0,76.8-6.452a1.8,1.8,0,0,0-1.232-.382,2.348,2.348,0,0,0-1.19.323,3.111,3.111,0,0,0-.918.782V0H71.672V-11.339h1.785v4.25a3.865,3.865,0,0,1,1.232-.935,3.659,3.659,0,0,1,1.674-.391,2.322,2.322,0,0,1,2.652,2.6Z" transform="translate(246 6966)"/>
    <path id="Path_2318" data-name="Path 2318" class="cls-6" d="M4.556,1.7V.17A5.661,5.661,0,0,1,.6-1.6L1.7-3.128A4.783,4.783,0,0,0,4.556-1.615V-4.9A13.522,13.522,0,0,1,3.23-5.3a5.977,5.977,0,0,1-1.105-.561,2.393,2.393,0,0,1-.875-.952,3.027,3.027,0,0,1-.3-1.385,2.931,2.931,0,0,1,.986-2.227,4.229,4.229,0,0,1,2.618-1.054v-1.581h1.36v1.6a5.641,5.641,0,0,1,3.417,1.53L8.194-8.449a4.432,4.432,0,0,0-2.278-1.19v2.924q.629.17,1.071.323a7.249,7.249,0,0,1,.977.433,3.376,3.376,0,0,1,.859.612,2.723,2.723,0,0,1,.544.859A3.051,3.051,0,0,1,9.588-3.3,3.263,3.263,0,0,1,8.662-.944,4.156,4.156,0,0,1,5.916.17V1.7Zm2.6-3.859a1.343,1.343,0,0,0,.408-.952A1.04,1.04,0,0,0,7.14-3.97a3.742,3.742,0,0,0-1.224-.57V-1.6A2.151,2.151,0,0,0,7.157-2.159ZM2.992-8.33q0,.816,1.564,1.258V-9.724a1.906,1.906,0,0,0-1.148.451A1.23,1.23,0,0,0,2.992-8.33ZM15.538,0H13.549V-8.755L11.7-6.834,10.54-8.041l3.264-3.3h1.734Zm4.573-.646A3.274,3.274,0,0,1,19.678.978a3.829,3.829,0,0,1-1.165,1.283l-.8-.663A2.873,2.873,0,0,0,18.5.884,2.158,2.158,0,0,0,18.938,0a.915.915,0,0,1-.289.051.976.976,0,0,1-.731-.3,1.063,1.063,0,0,1-.289-.773,1.141,1.141,0,0,1,.34-.825,1.1,1.1,0,0,1,.816-.349,1.238,1.238,0,0,1,.935.416A1.585,1.585,0,0,1,20.111-.646ZM28.781,0H26.792V-2.567H21.386v-1.6l4.658-7.174h2.737v7.021h1.513v1.751H28.781ZM26.792-4.318V-9.554L23.341-4.318ZM43.775,0H41.99V-5.355q0-1.479-1.343-1.479a2.056,2.056,0,0,0-1.088.323,2.533,2.533,0,0,0-.816.765V0H36.958V-5.355q0-1.479-1.36-1.479a1.986,1.986,0,0,0-1.062.323,2.665,2.665,0,0,0-.825.782V0H31.926V-8.211h1.785v1.122a3.109,3.109,0,0,1,1.063-.893,3.181,3.181,0,0,1,1.606-.434A2.081,2.081,0,0,1,38.624-6.9,3.351,3.351,0,0,1,39.78-7.965a3.164,3.164,0,0,1,1.632-.451q2.363,0,2.363,2.482Zm2.482.34H44.931L48.96-11.679h1.326ZM59.347,0H51.136V-1.564a50.2,50.2,0,0,0,4.837-3.987,3.665,3.665,0,0,0,1.284-2.456,1.506,1.506,0,0,0-.6-1.284,2.361,2.361,0,0,0-1.453-.45,3.881,3.881,0,0,0-3.06,1.36L50.983-9.69a4.721,4.721,0,0,1,1.845-1.351,5.978,5.978,0,0,1,2.338-.468,4.587,4.587,0,0,1,2.924.935,3.086,3.086,0,0,1,1.19,2.567A4.5,4.5,0,0,1,58.055-5.1a23.917,23.917,0,0,1-3.74,3.349h5.032Zm8.925,0H66.283V-2.567H60.877v-1.6l4.658-7.174h2.737v7.021h1.513v1.751H68.272ZM66.283-4.318V-9.554L62.832-4.318ZM78.761,0H76.976V-5.168a1.639,1.639,0,0,0-.433-1.284,1.8,1.8,0,0,0-1.232-.382,2.348,2.348,0,0,0-1.19.323,3.111,3.111,0,0,0-.918.782V0H71.417V-11.339H73.2v4.25a3.865,3.865,0,0,1,1.232-.935,3.659,3.659,0,0,1,1.674-.391,2.322,2.322,0,0,1,2.652,2.6Z" transform="translate(441 6904)"/>
    <path id="Path_2319" data-name="Path 2319" class="cls-6" d="M4.556,1.7V.17A5.661,5.661,0,0,1,.6-1.6L1.7-3.128A4.783,4.783,0,0,0,4.556-1.615V-4.9A13.522,13.522,0,0,1,3.23-5.3a5.977,5.977,0,0,1-1.105-.561,2.393,2.393,0,0,1-.875-.952,3.027,3.027,0,0,1-.3-1.385,2.931,2.931,0,0,1,.986-2.227,4.229,4.229,0,0,1,2.618-1.054v-1.581h1.36v1.6a5.641,5.641,0,0,1,3.417,1.53L8.194-8.449a4.432,4.432,0,0,0-2.278-1.19v2.924q.629.17,1.071.323a7.249,7.249,0,0,1,.977.433,3.376,3.376,0,0,1,.859.612,2.723,2.723,0,0,1,.544.859A3.051,3.051,0,0,1,9.588-3.3,3.263,3.263,0,0,1,8.662-.944,4.156,4.156,0,0,1,5.916.17V1.7Zm2.6-3.859a1.343,1.343,0,0,0,.408-.952A1.04,1.04,0,0,0,7.14-3.97a3.742,3.742,0,0,0-1.224-.57V-1.6A2.151,2.151,0,0,0,7.157-2.159ZM2.992-8.33q0,.816,1.564,1.258V-9.724a1.906,1.906,0,0,0-1.148.451A1.23,1.23,0,0,0,2.992-8.33ZM15.538,0H13.549V-8.755L11.7-6.834,10.54-8.041l3.264-3.3h1.734Zm4.573-.646A3.274,3.274,0,0,1,19.678.978a3.829,3.829,0,0,1-1.165,1.283l-.8-.663A2.873,2.873,0,0,0,18.5.884,2.158,2.158,0,0,0,18.938,0a.915.915,0,0,1-.289.051.976.976,0,0,1-.731-.3,1.063,1.063,0,0,1-.289-.773,1.141,1.141,0,0,1,.34-.825,1.1,1.1,0,0,1,.816-.349,1.238,1.238,0,0,1,.935.416A1.585,1.585,0,0,1,20.111-.646ZM25.857.2a4.621,4.621,0,0,1-2.125-.468A3.784,3.784,0,0,1,22.27-1.547a6.116,6.116,0,0,1-.816-1.845,8.8,8.8,0,0,1-.272-2.252A6.573,6.573,0,0,1,22.491-9.86a4.44,4.44,0,0,1,3.689-1.649,4.488,4.488,0,0,1,3.264,1.258l-.935,1.513a3.088,3.088,0,0,0-2.329-1A2.585,2.585,0,0,0,24-8.653,4.294,4.294,0,0,0,23.188-6a2.18,2.18,0,0,0,.017.323,3.683,3.683,0,0,1,1.258-1.105,3.54,3.54,0,0,1,1.785-.476,3.936,3.936,0,0,1,2.7.96A3.405,3.405,0,0,1,30.039-3.6,3.588,3.588,0,0,1,28.883-.893,4.216,4.216,0,0,1,25.857.2Zm-.1-1.768a2.269,2.269,0,0,0,1.666-.6,1.875,1.875,0,0,0,.612-1.368,1.8,1.8,0,0,0-.663-1.5A2.622,2.622,0,0,0,25.7-5.559a2.815,2.815,0,0,0-1.377.366,3.329,3.329,0,0,0-1.105.977,3.492,3.492,0,0,0,.714,1.87A2.168,2.168,0,0,0,25.755-1.564ZM43.707,0H41.922V-5.355q0-1.479-1.343-1.479a2.056,2.056,0,0,0-1.088.323,2.533,2.533,0,0,0-.816.765V0H36.89V-5.355q0-1.479-1.36-1.479a1.986,1.986,0,0,0-1.062.323,2.665,2.665,0,0,0-.825.782V0H31.858V-8.211h1.785v1.122a3.109,3.109,0,0,1,1.063-.893,3.181,3.181,0,0,1,1.606-.434A2.081,2.081,0,0,1,38.556-6.9a3.351,3.351,0,0,1,1.156-1.062,3.164,3.164,0,0,1,1.632-.451q2.363,0,2.363,2.482Zm2.482.34H44.863l4.029-12.019h1.326ZM59.279,0H51.068V-1.564A50.2,50.2,0,0,0,55.9-5.551a3.665,3.665,0,0,0,1.284-2.456,1.506,1.506,0,0,0-.6-1.284,2.361,2.361,0,0,0-1.453-.45,3.881,3.881,0,0,0-3.06,1.36L50.915-9.69a4.721,4.721,0,0,1,1.845-1.351,5.978,5.978,0,0,1,2.338-.468,4.587,4.587,0,0,1,2.924.935,3.086,3.086,0,0,1,1.19,2.567A4.5,4.5,0,0,1,57.987-5.1a23.917,23.917,0,0,1-3.74,3.349h5.032ZM68.2,0H66.215V-2.567H60.809v-1.6l4.658-7.174H68.2v7.021h1.513v1.751H68.2ZM66.215-4.318V-9.554L62.764-4.318ZM78.693,0H76.908V-5.168a1.639,1.639,0,0,0-.433-1.284,1.8,1.8,0,0,0-1.232-.382,2.348,2.348,0,0,0-1.19.323,3.111,3.111,0,0,0-.918.782V0H71.349V-11.339h1.785v4.25a3.865,3.865,0,0,1,1.232-.935,3.659,3.659,0,0,1,1.674-.391,2.322,2.322,0,0,1,2.652,2.6Z" transform="translate(633 6885)"/>
    <path id="Path_2320" data-name="Path 2320" class="cls-6" d="M4.556,1.7V.17A5.661,5.661,0,0,1,.6-1.6L1.7-3.128A4.783,4.783,0,0,0,4.556-1.615V-4.9A13.522,13.522,0,0,1,3.23-5.3a5.977,5.977,0,0,1-1.105-.561,2.393,2.393,0,0,1-.875-.952,3.027,3.027,0,0,1-.3-1.385,2.931,2.931,0,0,1,.986-2.227,4.229,4.229,0,0,1,2.618-1.054v-1.581h1.36v1.6a5.641,5.641,0,0,1,3.417,1.53L8.194-8.449a4.432,4.432,0,0,0-2.278-1.19v2.924q.629.17,1.071.323a7.249,7.249,0,0,1,.977.433,3.376,3.376,0,0,1,.859.612,2.723,2.723,0,0,1,.544.859A3.051,3.051,0,0,1,9.588-3.3,3.263,3.263,0,0,1,8.662-.944,4.156,4.156,0,0,1,5.916.17V1.7Zm2.6-3.859a1.343,1.343,0,0,0,.408-.952A1.04,1.04,0,0,0,7.14-3.97a3.742,3.742,0,0,0-1.224-.57V-1.6A2.151,2.151,0,0,0,7.157-2.159ZM2.992-8.33q0,.816,1.564,1.258V-9.724a1.906,1.906,0,0,0-1.148.451A1.23,1.23,0,0,0,2.992-8.33ZM15.538,0H13.549V-8.755L11.7-6.834,10.54-8.041l3.264-3.3h1.734Zm4.573-.646A3.274,3.274,0,0,1,19.678.978a3.829,3.829,0,0,1-1.165,1.283l-.8-.663A2.873,2.873,0,0,0,18.5.884,2.158,2.158,0,0,0,18.938,0a.915.915,0,0,1-.289.051.976.976,0,0,1-.731-.3,1.063,1.063,0,0,1-.289-.773,1.141,1.141,0,0,1,.34-.825,1.1,1.1,0,0,1,.816-.349,1.238,1.238,0,0,1,.935.416A1.585,1.585,0,0,1,20.111-.646Zm8.951.025A5.483,5.483,0,0,1,25.976.2a5.525,5.525,0,0,1-3.094-.825,2.592,2.592,0,0,1-1.258-2.287,2.538,2.538,0,0,1,.722-1.8,4.4,4.4,0,0,1,1.827-1.139,4.134,4.134,0,0,1-1.708-1,2.3,2.3,0,0,1-.655-1.683,2.514,2.514,0,0,1,.366-1.343,2.643,2.643,0,0,1,.969-.935,5.254,5.254,0,0,1,1.326-.519,6.25,6.25,0,0,1,1.5-.179,6.147,6.147,0,0,1,1.5.179,5.427,5.427,0,0,1,1.326.519,2.624,2.624,0,0,1,.977.935,2.514,2.514,0,0,1,.366,1.343q0,1.921-2.38,2.686a4.4,4.4,0,0,1,1.827,1.139,2.538,2.538,0,0,1,.723,1.8A2.6,2.6,0,0,1,29.062-.621ZM25.976-6.63a6.314,6.314,0,0,0,.884-.23,2.52,2.52,0,0,0,.841-.51,1.11,1.11,0,0,0,.417-.859,1.27,1.27,0,0,0-.6-1.1,2.691,2.691,0,0,0-1.538-.408,2.724,2.724,0,0,0-1.556.408,1.27,1.27,0,0,0-.6,1.1,1.1,1.1,0,0,0,.425.859,2.608,2.608,0,0,0,.85.51A6.314,6.314,0,0,0,25.976-6.63Zm0,5.066a2.961,2.961,0,0,0,1.649-.442,1.331,1.331,0,0,0,.68-1.156,1.4,1.4,0,0,0-.791-1.233,3.9,3.9,0,0,0-1.538-.552,4.157,4.157,0,0,0-.935.229,2.889,2.889,0,0,0-.952.6,1.265,1.265,0,0,0-.459.96A1.334,1.334,0,0,0,24.3-2.006,2.983,2.983,0,0,0,25.976-1.564ZM44.03,0H42.245V-5.355q0-1.479-1.343-1.479a2.056,2.056,0,0,0-1.088.323A2.533,2.533,0,0,0,39-5.746V0H37.213V-5.355q0-1.479-1.36-1.479a1.986,1.986,0,0,0-1.062.323,2.665,2.665,0,0,0-.824.782V0H32.181V-8.211h1.785v1.122a3.109,3.109,0,0,1,1.063-.893,3.181,3.181,0,0,1,1.606-.434A2.081,2.081,0,0,1,38.879-6.9a3.351,3.351,0,0,1,1.156-1.062,3.164,3.164,0,0,1,1.632-.451q2.363,0,2.363,2.482Zm2.482.34H45.186l4.029-12.019h1.326ZM59.6,0H51.391V-1.564a50.2,50.2,0,0,0,4.837-3.987,3.665,3.665,0,0,0,1.284-2.456,1.506,1.506,0,0,0-.6-1.284,2.361,2.361,0,0,0-1.454-.45,3.881,3.881,0,0,0-3.06,1.36L51.238-9.69a4.721,4.721,0,0,1,1.845-1.351,5.978,5.978,0,0,1,2.338-.468,4.587,4.587,0,0,1,2.924.935,3.086,3.086,0,0,1,1.19,2.567A4.5,4.5,0,0,1,58.31-5.1a23.917,23.917,0,0,1-3.74,3.349H59.6Zm8.925,0H66.538V-2.567H61.132v-1.6l4.658-7.174h2.737v7.021H70.04v1.751H68.527ZM66.538-4.318V-9.554L63.087-4.318ZM79.016,0H77.231V-5.168A1.639,1.639,0,0,0,76.8-6.452a1.8,1.8,0,0,0-1.232-.382,2.348,2.348,0,0,0-1.19.323,3.111,3.111,0,0,0-.918.782V0H71.672V-11.339h1.785v4.25a3.865,3.865,0,0,1,1.232-.935,3.659,3.659,0,0,1,1.674-.391,2.322,2.322,0,0,1,2.652,2.6Z" transform="translate(825 6876)"/>
    <path id="Path_2321" data-name="Path 2321" class="cls-6" d="M4.556,1.7V.17A5.661,5.661,0,0,1,.6-1.6L1.7-3.128A4.783,4.783,0,0,0,4.556-1.615V-4.9A13.522,13.522,0,0,1,3.23-5.3a5.977,5.977,0,0,1-1.105-.561,2.393,2.393,0,0,1-.875-.952,3.027,3.027,0,0,1-.3-1.385,2.931,2.931,0,0,1,.986-2.227,4.229,4.229,0,0,1,2.618-1.054v-1.581h1.36v1.6a5.641,5.641,0,0,1,3.417,1.53L8.194-8.449a4.432,4.432,0,0,0-2.278-1.19v2.924q.629.17,1.071.323a7.249,7.249,0,0,1,.977.433,3.376,3.376,0,0,1,.859.612,2.723,2.723,0,0,1,.544.859A3.051,3.051,0,0,1,9.588-3.3,3.263,3.263,0,0,1,8.662-.944,4.156,4.156,0,0,1,5.916.17V1.7Zm2.6-3.859a1.343,1.343,0,0,0,.408-.952A1.04,1.04,0,0,0,7.14-3.97a3.742,3.742,0,0,0-1.224-.57V-1.6A2.151,2.151,0,0,0,7.157-2.159ZM2.992-8.33q0,.816,1.564,1.258V-9.724a1.906,1.906,0,0,0-1.148.451A1.23,1.23,0,0,0,2.992-8.33ZM19.346,0H11.135V-1.564a50.2,50.2,0,0,0,4.836-3.987,3.665,3.665,0,0,0,1.284-2.456,1.506,1.506,0,0,0-.6-1.284,2.361,2.361,0,0,0-1.453-.45,3.881,3.881,0,0,0-3.06,1.36L10.982-9.69a4.721,4.721,0,0,1,1.845-1.351,5.978,5.978,0,0,1,2.338-.468,4.587,4.587,0,0,1,2.924.935,3.086,3.086,0,0,1,1.19,2.567A4.5,4.5,0,0,1,18.054-5.1a23.917,23.917,0,0,1-3.74,3.349h5.032ZM33.405,0H31.62V-5.355q0-1.479-1.343-1.479a2.055,2.055,0,0,0-1.088.323,2.533,2.533,0,0,0-.816.765V0H26.588V-5.355q0-1.479-1.36-1.479a1.986,1.986,0,0,0-1.062.323,2.665,2.665,0,0,0-.824.782V0H21.556V-8.211h1.785v1.122A3.109,3.109,0,0,1,24.4-7.982a3.181,3.181,0,0,1,1.607-.434A2.081,2.081,0,0,1,28.254-6.9,3.351,3.351,0,0,1,29.41-7.965a3.164,3.164,0,0,1,1.632-.451q2.363,0,2.363,2.482Zm2.482.34H34.561L38.59-11.679h1.326ZM48.977,0H40.766V-1.564A50.2,50.2,0,0,0,45.6-5.551a3.665,3.665,0,0,0,1.284-2.456,1.506,1.506,0,0,0-.6-1.284,2.361,2.361,0,0,0-1.454-.45,3.881,3.881,0,0,0-3.06,1.36L40.613-9.69a4.721,4.721,0,0,1,1.845-1.351,5.978,5.978,0,0,1,2.338-.468,4.587,4.587,0,0,1,2.924.935,3.086,3.086,0,0,1,1.19,2.567A4.5,4.5,0,0,1,47.685-5.1a23.917,23.917,0,0,1-3.74,3.349h5.032ZM57.9,0H55.913V-2.567H50.507v-1.6l4.658-7.174H57.9v7.021h1.513v1.751H57.9ZM55.913-4.318V-9.554L52.462-4.318ZM68.391,0H66.606V-5.168a1.639,1.639,0,0,0-.433-1.284,1.8,1.8,0,0,0-1.232-.382,2.348,2.348,0,0,0-1.19.323,3.111,3.111,0,0,0-.918.782V0H61.047V-11.339h1.785v4.25a3.865,3.865,0,0,1,1.232-.935,3.659,3.659,0,0,1,1.674-.391,2.322,2.322,0,0,1,2.652,2.6Z" transform="translate(1020 6827)"/>
    <path id="Path_2322" data-name="Path 2322" class="cls-8" d="M-38.59,0h-4.216V-11.339h4.216a5.933,5.933,0,0,1,4.284,1.581,5.422,5.422,0,0,1,1.649,4.1A5.415,5.415,0,0,1-34.3-1.581,5.926,5.926,0,0,1-38.59,0Zm0-1.751a3.709,3.709,0,0,0,2.839-1.122A3.915,3.915,0,0,0-34.7-5.661a3.978,3.978,0,0,0-1.029-2.822A3.721,3.721,0,0,0-38.59-9.588h-2.227v7.837ZM-27.081.2a3.971,3.971,0,0,1-3.06-1.25A4.351,4.351,0,0,1-31.3-4.114a4.32,4.32,0,0,1,1.156-3.06,3.984,3.984,0,0,1,3.06-1.241A4,4,0,0,1-24-7.174a4.32,4.32,0,0,1,1.156,3.06A4.343,4.343,0,0,1-24-1.037,4,4,0,0,1-27.081.2Zm0-1.581a2.118,2.118,0,0,0,1.743-.791A3,3,0,0,0-24.7-4.114a2.976,2.976,0,0,0-.638-1.93,2.118,2.118,0,0,0-1.743-.79,2.1,2.1,0,0,0-1.726.79,2.976,2.976,0,0,0-.637,1.93,3,3,0,0,0,.637,1.947A2.1,2.1,0,0,0-27.081-1.377ZM-19.261,0h-1.785V-11.339h1.785Zm4.1,0h-1.785V-11.339h1.785Zm9.112,0H-7.837V-.884A3.338,3.338,0,0,1-10.489.2a3.018,3.018,0,0,1-1.989-.723,2.459,2.459,0,0,1-.867-2,2.385,2.385,0,0,1,.858-1.989,3.124,3.124,0,0,1,2-.68A3.3,3.3,0,0,1-7.837-4.131V-5.355a1.341,1.341,0,0,0-.527-1.122,2.216,2.216,0,0,0-1.394-.408,3.366,3.366,0,0,0-2.431,1.037l-.731-1.241A4.814,4.814,0,0,1-9.469-8.415,4,4,0,0,1-7-7.7,2.642,2.642,0,0,1-6.052-5.44Zm-3.74-1.02a2.244,2.244,0,0,0,1.955-.85V-3.111a2.244,2.244,0,0,0-1.955-.85,1.907,1.907,0,0,0-1.258.408,1.323,1.323,0,0,0-.493,1.071A1.3,1.3,0,0,0-11.05-1.42,1.934,1.934,0,0,0-9.792-1.02ZM-1.955,0H-3.74V-8.211h1.785V-7a3.8,3.8,0,0,1,1.19-1A3.04,3.04,0,0,1,.714-8.4V-6.63a2.707,2.707,0,0,0-.561-.051,2.612,2.612,0,0,0-1.2.332,2.308,2.308,0,0,0-.909.756ZM4.964.2A4.827,4.827,0,0,1,1.445-1.071l.816-1.292A3.809,3.809,0,0,0,3.5-1.547a3.858,3.858,0,0,0,1.547.34,2,2,0,0,0,1.2-.306.947.947,0,0,0,.417-.8A.759.759,0,0,0,6.154-3a5.167,5.167,0,0,0-1.241-.391q-.731-.144-1.462-.357A2.7,2.7,0,0,1,2.21-4.505,1.98,1.98,0,0,1,1.7-5.916a2.228,2.228,0,0,1,.867-1.776A3.579,3.579,0,0,1,4.93-8.415a4.658,4.658,0,0,1,3.2,1.156L7.378-6a2.815,2.815,0,0,0-1.037-.714,3.555,3.555,0,0,0-1.394-.272,1.964,1.964,0,0,0-1.114.281.842.842,0,0,0-.417.722.629.629,0,0,0,.366.553,2.857,2.857,0,0,0,.918.314q.552.1,1.2.281a9.267,9.267,0,0,1,1.2.416,2.113,2.113,0,0,1,.918.774,2.252,2.252,0,0,1,.365,1.3A2.239,2.239,0,0,1,7.48-.51,3.956,3.956,0,0,1,4.964.2ZM10.353.34H9.027l4.029-12.019h1.326ZM23.443,0H15.232V-1.564a50.2,50.2,0,0,0,4.837-3.987,3.665,3.665,0,0,0,1.284-2.456,1.506,1.506,0,0,0-.6-1.284,2.361,2.361,0,0,0-1.454-.45,3.881,3.881,0,0,0-3.06,1.36L15.079-9.69a4.721,4.721,0,0,1,1.844-1.351,5.978,5.978,0,0,1,2.337-.468,4.587,4.587,0,0,1,2.924.935,3.086,3.086,0,0,1,1.19,2.567A4.5,4.5,0,0,1,22.151-5.1a23.917,23.917,0,0,1-3.74,3.349h5.032Zm8.925,0H30.379V-2.567H24.973v-1.6l4.658-7.174h2.737v7.021h1.513v1.751H32.368ZM30.379-4.318V-9.554L26.928-4.318ZM42.857,0H41.072V-5.168a1.639,1.639,0,0,0-.433-1.284,1.8,1.8,0,0,0-1.233-.382,2.348,2.348,0,0,0-1.19.323,3.111,3.111,0,0,0-.918.782V0H35.513V-11.339H37.3v4.25a3.865,3.865,0,0,1,1.232-.935,3.659,3.659,0,0,1,1.674-.391,2.322,2.322,0,0,1,2.652,2.6Z" transform="translate(1063 6691)"/>
    <rect id="Rectangle_471" data-name="Rectangle 471" class="cls-6" width="100" height="1" transform="translate(723 6916) rotate(180)"/>
    <rect id="Rectangle_472" data-name="Rectangle 472" class="cls-6" width="100" height="1" transform="translate(915 6916) rotate(180)"/>
    <rect id="Rectangle_473" data-name="Rectangle 473" class="cls-6" width="100" height="1" transform="translate(1107 6916) rotate(180)"/>
  </g>
</svg>
