<svg xmlns="http://www.w3.org/2000/svg" viewBox="-3830 434 58 59.02">
  <defs>
    <style>
      .cls-1 {
        fill: #ff4500;
      }

      .cls-2 {
        fill: #fff;
      }
    </style>
  </defs>
  <g id="Reddit" transform="translate(-5044.829 376.139)">
    <ellipse id="Ellipse_219" data-name="Ellipse 219" class="cls-1" cx="29" cy="29.51" rx="29" ry="29.51" transform="translate(1214.829 57.861)"/>
    <g id="Reddit-2" data-name="Reddit" transform="translate(1213.828 28.021)">
      <path id="reddit-3" data-name="reddit" class="cls-2" d="M25.74,52.18a1.986,1.986,0,0,1,.135.727,2.315,2.315,0,0,1-.454,1.356,2.157,2.157,0,0,1-1.149.814h0l-.01,0-.007,0a2.061,2.061,0,0,1-.668.11,2.371,2.371,0,0,1-1.448-.51,2.178,2.178,0,0,1-.813-1.326h0a.017.017,0,0,0,0-.006.008.008,0,0,0,0-.005h0a1.985,1.985,0,0,1-.046-.42,2.264,2.264,0,0,1,.427-1.3,2.235,2.235,0,0,1,1.075-.821h0s0,0,0,0a2.216,2.216,0,0,1,.766-.137,2.393,2.393,0,0,1,1.324.4,2.147,2.147,0,0,1,.856,1.1s0,.006,0,.009a.012.012,0,0,0,0,.007h0Zm-1.439,5.8a1.145,1.145,0,0,0-.623-.192.976.976,0,0,0-.539.164h0a10.478,10.478,0,0,1-5.319,1.47,9.139,9.139,0,0,1-4.034-.911l-.006,0-.006,0a4.385,4.385,0,0,1-.64-.4,2.333,2.333,0,0,0-.383-.211,1.151,1.151,0,0,0-.451-.1,1,1,0,0,0-.415.093l-.021.008h0a1,1,0,0,0-.5.418,1.21,1.21,0,0,0-.03,1.188,1.018,1.018,0,0,0,.413.413,10.7,10.7,0,0,0,6.026,1.756,13.142,13.142,0,0,0,5.547-1.248l.009-.005.009,0c.226-.134.526-.254.809-.428a1.784,1.784,0,0,0,.394-.326,1.231,1.231,0,0,0,.264-.492h0a1,1,0,0,0,.033-.253,1.031,1.031,0,0,0-.1-.445A1.2,1.2,0,0,0,24.3,57.979ZM11.708,55.07l.011,0a2.034,2.034,0,0,0,.7.125A2.376,2.376,0,0,0,14,54.57,2.13,2.13,0,0,0,14.717,53c0-.016,0-.033,0-.052s0-.059,0-.091A2.147,2.147,0,0,0,14,51.285a2.349,2.349,0,0,0-1.576-.632,2.08,2.08,0,0,0-.471.055h-.009a2.29,2.29,0,0,0-1.7,1.527h0a.008.008,0,0,1,0,0,2.09,2.09,0,0,0-.106.661,2.334,2.334,0,0,0,.436,1.345,2.161,2.161,0,0,0,1.126.822ZM35.994,49.42v0c.006.079.007.157.007.235a4.445,4.445,0,0,1-.748,2.429,4.885,4.885,0,0,1-1.733,1.605,8.273,8.273,0,0,1,.07,1.048,8.678,8.678,0,0,1-1.78,5.217h0a15.2,15.2,0,0,1-8.54,5.247h0l0,0a22.464,22.464,0,0,1-5.292.634,20.93,20.93,0,0,1-7.785-1.472v0h0a13.46,13.46,0,0,1-6.513-5.2,8.481,8.481,0,0,1-1.25-4.407,7.853,7.853,0,0,1,.071-1.049A5.03,5.03,0,0,1,.8,52.141,4.606,4.606,0,0,1,0,49.782v-.013a4.625,4.625,0,0,1,1.332-3.175,4.362,4.362,0,0,1,3.1-1.386h.049c.124-.008.25-.013.376-.013a4.906,4.906,0,0,1,1.761.314l0,0h0a5.881,5.881,0,0,1,1.395.791,4.194,4.194,0,0,1,.461-.22,18.859,18.859,0,0,1,8.567-2.3,9.478,9.478,0,0,1,.916-4.323,4.5,4.5,0,0,1,2.846-2.275l.005,0h.007a7.389,7.389,0,0,1,1.4-.132,9.823,9.823,0,0,1,3.625.755,4.5,4.5,0,0,1,2.09-1.705l.008,0,.008,0a5.27,5.27,0,0,1,1.561-.247,4.039,4.039,0,0,1,1.654.339v0s0,0,0,0a.044.044,0,0,0,.01,0,4.007,4.007,0,0,1,1.855,1.5,4.149,4.149,0,0,1,.723,2.31,3.956,3.956,0,0,1-.027.459l0,0a.026.026,0,0,1,0,.008,4.023,4.023,0,0,1-1.4,2.684,4.312,4.312,0,0,1-2.8,1.08,3.758,3.758,0,0,1-.5-.031,4.165,4.165,0,0,1-2.669-1.305,4.03,4.03,0,0,1-1.152-2.769c0-.051,0-.1.006-.154a7.509,7.509,0,0,0-2.984-.779,4.343,4.343,0,0,0-.438.023h0A2.285,2.285,0,0,0,20,40.449h0v0a7.524,7.524,0,0,0-.636,3.353,19.271,19.271,0,0,1,8.373,2.355h0l.037.022c.048.029.138.078.22.121a4.867,4.867,0,0,1,.574-.416,4.719,4.719,0,0,1,2.613-.773,4.888,4.888,0,0,1,1.212.154h0l.016,0,.015,0h0a4.842,4.842,0,0,1,2.42,1.5,4.608,4.608,0,0,1,1.149,2.642v0h0Zm-8.54-9.488c0,.039,0,.08,0,.121v.007a1.946,1.946,0,0,0,.618,1.319,1.977,1.977,0,0,0,1.334.563h.013c.035,0,.071,0,.105,0a2.006,2.006,0,0,0,1.352-.557,1.943,1.943,0,0,0,.631-1.327v-.005c0-.039,0-.076,0-.115a1.959,1.959,0,0,0-.627-1.39,2.056,2.056,0,0,0-1.4-.6,1.623,1.623,0,0,0-.484.071H29l0,0a2.134,2.134,0,0,0-1.089.707A1.888,1.888,0,0,0,27.454,39.932ZM6.053,47.7A2.829,2.829,0,0,0,4.869,47.4a1.862,1.862,0,0,0-.2.011H4.65a2.471,2.471,0,0,0-1.574.661,2.189,2.189,0,0,0-.738,1.521v.01c0,.048-.005.1-.005.141a2.035,2.035,0,0,0,.3,1.035,2.8,2.8,0,0,0,.531.645A11.077,11.077,0,0,1,6.053,47.7ZM31.31,54.822a6.346,6.346,0,0,0-1.226-3.65,12.094,12.094,0,0,0-6.293-4.238l-.017-.006q-.7-.215-1.417-.379a19.726,19.726,0,0,0-10.141.383,12.117,12.117,0,0,0-6.3,4.244v0a6.326,6.326,0,0,0-1.212,3.663,5.431,5.431,0,0,0,.187,1.425h0A7.08,7.08,0,0,0,6.4,59.061,10.787,10.787,0,0,0,8.843,61.14c.2.123.4.24.6.355a17.594,17.594,0,0,0,8.574,2.089c.5,0,1.009-.018,1.509-.054a16.356,16.356,0,0,0,8.437-2.939v0a9.483,9.483,0,0,0,2.059-2.053A6.648,6.648,0,0,0,31.2,55.91v0h0A5.214,5.214,0,0,0,31.31,54.822Zm2.365-5.163a1.932,1.932,0,0,0-.23-.921l0,0,0,0a2.252,2.252,0,0,0-.941-.986,2.783,2.783,0,0,0-2.555-.057,11.285,11.285,0,0,1,2.908,3.736,2.435,2.435,0,0,0,.541-.677A2.324,2.324,0,0,0,33.674,49.659Z" transform="translate(12 9)"/>
    </g>
  </g>
</svg>
