<svg xmlns="http://www.w3.org/2000/svg" viewBox="0 0 775.24 278.882">
  <defs>
    <style>
      .cls-1 {
        fill: #2a2e3d;
      }

      .cls-2 {
        fill: #352c6d;
      }

      .cls-3 {
        fill: #cccbdb;
      }
    </style>
  </defs>
  <g id="Calculations_Paying_Users:" data-name="Calculations Paying Users:" transform="translate(-407 -4449.524)">
    <path id="Path_4001" data-name="Path 4001" class="cls-1" d="M10.24,0H1.08V-1.32Q3.16-2.96,4.31-3.93T6.53-5.99A8.566,8.566,0,0,0,8.04-7.93a3.651,3.651,0,0,0,.44-1.69,2.14,2.14,0,0,0-.82-1.82,3.156,3.156,0,0,0-1.96-.62,4.353,4.353,0,0,0-3.62,1.68L1.06-11.44a5.02,5.02,0,0,1,1.99-1.55,6.417,6.417,0,0,1,2.65-.55,5.026,5.026,0,0,1,3.15,1.02,3.439,3.439,0,0,1,1.33,2.9,5.694,5.694,0,0,1-1.6,3.71A36.332,36.332,0,0,1,3.7-1.48h6.54ZM20.4,0H18.74V-3.38H12.4V-4.76l5.72-8.58H20.4v8.5h1.88v1.46H20.4ZM18.74-4.84V-11.8L14.06-4.84ZM34.2.24a4.418,4.418,0,0,1-2.33-.61A4.518,4.518,0,0,1,30.27-2a8.348,8.348,0,0,1-.88-2.2,10.272,10.272,0,0,1-.29-2.46,10.272,10.272,0,0,1,.29-2.46,8.192,8.192,0,0,1,.88-2.19,4.543,4.543,0,0,1,1.6-1.62,4.418,4.418,0,0,1,2.33-.61,4.432,4.432,0,0,1,2.32.61,4.517,4.517,0,0,1,1.61,1.62,8.192,8.192,0,0,1,.88,2.19,10.272,10.272,0,0,1,.29,2.46,10.272,10.272,0,0,1-.29,2.46A8.348,8.348,0,0,1,38.13-2,4.492,4.492,0,0,1,36.52-.37,4.432,4.432,0,0,1,34.2.24Zm-2-2.31a2.663,2.663,0,0,0,2,.83,2.663,2.663,0,0,0,2-.83,4.4,4.4,0,0,0,1.1-1.99,10.394,10.394,0,0,0,.3-2.6,10.394,10.394,0,0,0-.3-2.6,4.334,4.334,0,0,0-1.1-1.98,2.679,2.679,0,0,0-2-.82,2.679,2.679,0,0,0-2,.82,4.334,4.334,0,0,0-1.1,1.98,10.394,10.394,0,0,0-.3,2.6,10.394,10.394,0,0,0,.3,2.6A4.4,4.4,0,0,0,32.2-2.07ZM45.64.24A6.267,6.267,0,0,1,42.8-.38a4.9,4.9,0,0,1-1.9-1.58L41.88-3a4.3,4.3,0,0,0,1.58,1.28,4.8,4.8,0,0,0,2.14.48,3.549,3.549,0,0,0,2.29-.67,2.225,2.225,0,0,0,.83-1.83,1.977,1.977,0,0,0-.89-1.78A4.412,4.412,0,0,0,45.4-6.1q-1.18,0-1.38.02V-7.6q.22.02,1.38.02a4.109,4.109,0,0,0,2.23-.55,1.823,1.823,0,0,0,.87-1.65,1.946,1.946,0,0,0-.85-1.67,3.56,3.56,0,0,0-2.13-.61A4.653,4.653,0,0,0,42-10.44l-.92-1.04a5.608,5.608,0,0,1,4.56-2.06,5.28,5.28,0,0,1,3.25.95,3.081,3.081,0,0,1,1.27,2.61,2.7,2.7,0,0,1-.88,2.11,4,4,0,0,1-2,.99,3.675,3.675,0,0,1,2.09.96,2.916,2.916,0,0,1,.99,2.32A3.443,3.443,0,0,1,49.08-.83,5.193,5.193,0,0,1,45.64.24Zm11.84,0a5.535,5.535,0,0,1-4.7-2.14L53.8-3a4.44,4.44,0,0,0,3.68,1.76,3.085,3.085,0,0,0,2.22-.82,2.7,2.7,0,0,0,.86-2.04,2.718,2.718,0,0,0-.85-2.09,3.117,3.117,0,0,0-2.21-.79,4.233,4.233,0,0,0-3.08,1.26L53.2-6.14v-7.2h8.16v1.48h-6.5v4.64a4.221,4.221,0,0,1,3.12-1.2,4.253,4.253,0,0,1,3,1.15,4.035,4.035,0,0,1,1.24,3.11,4.085,4.085,0,0,1-1.34,3.2A4.905,4.905,0,0,1,57.48.24Z" transform="translate(407 4560)"/>
    <path id="Path_4002" data-name="Path 4002" class="cls-1" d="M6.02.24A5.535,5.535,0,0,1,1.32-1.9L2.34-3A4.44,4.44,0,0,0,6.02-1.24a3.085,3.085,0,0,0,2.22-.82A2.7,2.7,0,0,0,9.1-4.1a2.718,2.718,0,0,0-.85-2.09,3.117,3.117,0,0,0-2.21-.79A4.233,4.233,0,0,0,2.96-5.72L1.74-6.14v-7.2H9.9v1.48H3.4v4.64a4.221,4.221,0,0,1,3.12-1.2,4.253,4.253,0,0,1,3,1.15,4.035,4.035,0,0,1,1.24,3.11A4.085,4.085,0,0,1,9.42-.96,4.905,4.905,0,0,1,6.02.24ZM16.06,0H14.22L19.6-11.86H12.42v-1.48h9.1v1.14ZM33.28.24a5.535,5.535,0,0,1-4.7-2.14L29.6-3a4.44,4.44,0,0,0,3.68,1.76,3.085,3.085,0,0,0,2.22-.82,2.7,2.7,0,0,0,.86-2.04,2.718,2.718,0,0,0-.85-2.09,3.117,3.117,0,0,0-2.21-.79,4.233,4.233,0,0,0-3.08,1.26L29-6.14v-7.2h8.16v1.48h-6.5v4.64a4.221,4.221,0,0,1,3.12-1.2,4.253,4.253,0,0,1,3,1.15,4.035,4.035,0,0,1,1.24,3.11,4.085,4.085,0,0,1-1.34,3.2A4.905,4.905,0,0,1,33.28.24ZM43.32,0H41.48l5.38-11.86H39.68v-1.48h9.1v1.14ZM55.48.24a4.418,4.418,0,0,1-2.33-.61A4.518,4.518,0,0,1,51.55-2a8.348,8.348,0,0,1-.88-2.2,10.272,10.272,0,0,1-.29-2.46,10.272,10.272,0,0,1,.29-2.46,8.192,8.192,0,0,1,.88-2.19,4.542,4.542,0,0,1,1.6-1.62,4.418,4.418,0,0,1,2.33-.61,4.432,4.432,0,0,1,2.32.61,4.517,4.517,0,0,1,1.61,1.62,8.192,8.192,0,0,1,.88,2.19,10.272,10.272,0,0,1,.29,2.46,10.272,10.272,0,0,1-.29,2.46A8.348,8.348,0,0,1,59.41-2,4.492,4.492,0,0,1,57.8-.37,4.432,4.432,0,0,1,55.48.24Zm-2-2.31a2.663,2.663,0,0,0,2,.83,2.663,2.663,0,0,0,2-.83,4.4,4.4,0,0,0,1.1-1.99,10.394,10.394,0,0,0,.3-2.6,10.394,10.394,0,0,0-.3-2.6,4.334,4.334,0,0,0-1.1-1.98,2.679,2.679,0,0,0-2-.82,2.679,2.679,0,0,0-2,.82,4.334,4.334,0,0,0-1.1,1.98,10.394,10.394,0,0,0-.3,2.6,10.394,10.394,0,0,0,.3,2.6A4.4,4.4,0,0,0,53.48-2.07Z" transform="translate(688 4560)"/>
    <path id="Path_4005" data-name="Path 4005" class="cls-1" d="M5.22,0H3.56V-11.14L1.42-8.88.42-9.9l3.34-3.44H5.22ZM12.1.24A6.267,6.267,0,0,1,9.26-.38a4.9,4.9,0,0,1-1.9-1.58L8.34-3A4.3,4.3,0,0,0,9.92-1.72a4.8,4.8,0,0,0,2.14.48,3.549,3.549,0,0,0,2.29-.67,2.225,2.225,0,0,0,.83-1.83,1.977,1.977,0,0,0-.89-1.78,4.412,4.412,0,0,0-2.43-.58q-1.18,0-1.38.02V-7.6q.22.02,1.38.02a4.109,4.109,0,0,0,2.23-.55,1.823,1.823,0,0,0,.87-1.65,1.946,1.946,0,0,0-.85-1.67,3.56,3.56,0,0,0-2.13-.61,4.653,4.653,0,0,0-3.52,1.62l-.92-1.04a5.608,5.608,0,0,1,4.56-2.06,5.28,5.28,0,0,1,3.25.95,3.081,3.081,0,0,1,1.27,2.61,2.7,2.7,0,0,1-.88,2.11,4,4,0,0,1-2,.99,3.675,3.675,0,0,1,2.09.96,2.916,2.916,0,0,1,.99,2.32A3.443,3.443,0,0,1,15.54-.83,5.193,5.193,0,0,1,12.1.24ZM28.16,0H19V-1.32q2.08-1.64,3.23-2.61t2.22-2.06a8.566,8.566,0,0,0,1.51-1.94,3.651,3.651,0,0,0,.44-1.69,2.14,2.14,0,0,0-.82-1.82,3.156,3.156,0,0,0-1.96-.62A4.353,4.353,0,0,0,20-10.38l-1.02-1.06a5.02,5.02,0,0,1,1.99-1.55,6.417,6.417,0,0,1,2.65-.55,5.026,5.026,0,0,1,3.15,1.02,3.439,3.439,0,0,1,1.33,2.9,5.694,5.694,0,0,1-1.6,3.71,36.332,36.332,0,0,1-4.88,4.43h6.54ZM41,.24a4.825,4.825,0,0,1-2.36-.56,4.23,4.23,0,0,1-1.61-1.53,7.551,7.551,0,0,1-.88-2.18,11.18,11.18,0,0,1-.29-2.61,9.778,9.778,0,0,1,.56-3.4,5.614,5.614,0,0,1,1.81-2.51,4.76,4.76,0,0,1,3.05-.99,4.676,4.676,0,0,1,3.7,1.6l-.84,1.24a3.616,3.616,0,0,0-2.86-1.36,3.049,3.049,0,0,0-2.11.78,4.471,4.471,0,0,0-1.26,1.93,7.836,7.836,0,0,0-.39,2.53,5.063,5.063,0,0,0,.02.52,4.593,4.593,0,0,1,1.55-1.44,4.215,4.215,0,0,1,2.23-.64,4.494,4.494,0,0,1,3.13,1.11,4.025,4.025,0,0,1,1.23,3.15A4.189,4.189,0,0,1,44.4-1.03,4.616,4.616,0,0,1,41,.24Zm-.06-1.48a2.923,2.923,0,0,0,2.25-.87A2.792,2.792,0,0,0,44-4.06a2.669,2.669,0,0,0-.86-2.14,3.283,3.283,0,0,0-2.22-.74,3.553,3.553,0,0,0-1.88.55,4.4,4.4,0,0,0-1.46,1.45,5.073,5.073,0,0,0,.96,2.59A2.8,2.8,0,0,0,40.94-1.24ZM51.88,0H50.22V-11.14L48.08-8.88l-1-1.02,3.34-3.44h1.46Zm11.8,0H54.52V-1.32q2.08-1.64,3.23-2.61t2.22-2.06a8.567,8.567,0,0,0,1.51-1.94,3.651,3.651,0,0,0,.44-1.69,2.14,2.14,0,0,0-.82-1.82,3.156,3.156,0,0,0-1.96-.62,4.353,4.353,0,0,0-3.62,1.68L54.5-11.44a5.02,5.02,0,0,1,1.99-1.55,6.417,6.417,0,0,1,2.65-.55,5.026,5.026,0,0,1,3.15,1.02,3.439,3.439,0,0,1,1.33,2.9,5.694,5.694,0,0,1-1.6,3.71,36.332,36.332,0,0,1-4.88,4.43h6.54Z" transform="translate(969 4560)"/>
    <path id="Path_4010" data-name="Path 4010" class="cls-1" d="M5.32.24A6.267,6.267,0,0,1,2.48-.38,4.9,4.9,0,0,1,.58-1.96L1.56-3A4.3,4.3,0,0,0,3.14-1.72a4.8,4.8,0,0,0,2.14.48,3.549,3.549,0,0,0,2.29-.67A2.225,2.225,0,0,0,8.4-3.74a1.977,1.977,0,0,0-.89-1.78A4.412,4.412,0,0,0,5.08-6.1q-1.18,0-1.38.02V-7.6q.22.02,1.38.02a4.109,4.109,0,0,0,2.23-.55,1.823,1.823,0,0,0,.87-1.65,1.946,1.946,0,0,0-.85-1.67,3.56,3.56,0,0,0-2.13-.61,4.653,4.653,0,0,0-3.52,1.62L.76-11.48a5.608,5.608,0,0,1,4.56-2.06,5.28,5.28,0,0,1,3.25.95A3.081,3.081,0,0,1,9.84-9.98a2.7,2.7,0,0,1-.88,2.11,4,4,0,0,1-2,.99,3.675,3.675,0,0,1,2.09.96,2.916,2.916,0,0,1,.99,2.32A3.443,3.443,0,0,1,8.76-.83,5.193,5.193,0,0,1,5.32.24Zm11.14,0a6.267,6.267,0,0,1-2.84-.62,4.9,4.9,0,0,1-1.9-1.58L12.7-3a4.3,4.3,0,0,0,1.58,1.28,4.8,4.8,0,0,0,2.14.48,3.549,3.549,0,0,0,2.29-.67,2.225,2.225,0,0,0,.83-1.83,1.977,1.977,0,0,0-.89-1.78,4.412,4.412,0,0,0-2.43-.58q-1.18,0-1.38.02V-7.6q.22.02,1.38.02a4.109,4.109,0,0,0,2.23-.55,1.823,1.823,0,0,0,.87-1.65,1.946,1.946,0,0,0-.85-1.67,3.56,3.56,0,0,0-2.13-.61,4.653,4.653,0,0,0-3.52,1.62l-.92-1.04a5.608,5.608,0,0,1,4.56-2.06,5.28,5.28,0,0,1,3.25.95,3.081,3.081,0,0,1,1.27,2.61,2.7,2.7,0,0,1-.88,2.11,4,4,0,0,1-2,.99,3.675,3.675,0,0,1,2.09.96,2.916,2.916,0,0,1,.99,2.32A3.443,3.443,0,0,1,19.9-.83,5.193,5.193,0,0,1,16.46.24ZM27.5,0H25.84V-11.14L23.7-8.88l-1-1.02,3.34-3.44H27.5ZM40.34.24a4.418,4.418,0,0,1-2.33-.61A4.518,4.518,0,0,1,36.41-2a8.348,8.348,0,0,1-.88-2.2,10.272,10.272,0,0,1-.29-2.46,10.272,10.272,0,0,1,.29-2.46,8.192,8.192,0,0,1,.88-2.19,4.542,4.542,0,0,1,1.6-1.62,4.418,4.418,0,0,1,2.33-.61,4.432,4.432,0,0,1,2.32.61,4.517,4.517,0,0,1,1.61,1.62,8.192,8.192,0,0,1,.88,2.19,10.272,10.272,0,0,1,.29,2.46,10.272,10.272,0,0,1-.29,2.46A8.348,8.348,0,0,1,44.27-2,4.492,4.492,0,0,1,42.66-.37,4.432,4.432,0,0,1,40.34.24Zm-2-2.31a2.663,2.663,0,0,0,2,.83,2.663,2.663,0,0,0,2-.83,4.4,4.4,0,0,0,1.1-1.99,10.394,10.394,0,0,0,.3-2.6,10.394,10.394,0,0,0-.3-2.6,4.334,4.334,0,0,0-1.1-1.98,2.679,2.679,0,0,0-2-.82,2.679,2.679,0,0,0-2,.82,4.334,4.334,0,0,0-1.1,1.98,10.394,10.394,0,0,0-.3,2.6,10.394,10.394,0,0,0,.3,2.6A4.4,4.4,0,0,0,38.34-2.07ZM55.1,0H53.44V-3.38H47.1V-4.76l5.72-8.58H55.1v8.5h1.88v1.46H55.1ZM53.44-4.84V-11.8L48.76-4.84ZM63.74.24a4.418,4.418,0,0,1-2.33-.61A4.518,4.518,0,0,1,59.81-2a8.348,8.348,0,0,1-.88-2.2,10.272,10.272,0,0,1-.29-2.46,10.272,10.272,0,0,1,.29-2.46,8.192,8.192,0,0,1,.88-2.19,4.542,4.542,0,0,1,1.6-1.62,4.418,4.418,0,0,1,2.33-.61,4.432,4.432,0,0,1,2.32.61,4.517,4.517,0,0,1,1.61,1.62,8.192,8.192,0,0,1,.88,2.19,10.272,10.272,0,0,1,.29,2.46,10.272,10.272,0,0,1-.29,2.46A8.348,8.348,0,0,1,67.67-2,4.492,4.492,0,0,1,66.06-.37,4.432,4.432,0,0,1,63.74.24Zm-2-2.31a2.663,2.663,0,0,0,2,.83,2.663,2.663,0,0,0,2-.83,4.4,4.4,0,0,0,1.1-1.99,10.394,10.394,0,0,0,.3-2.6,10.394,10.394,0,0,0-.3-2.6,4.334,4.334,0,0,0-1.1-1.98,2.679,2.679,0,0,0-2-.82,2.679,2.679,0,0,0-2,.82,4.334,4.334,0,0,0-1.1,1.98,10.394,10.394,0,0,0-.3,2.6,10.394,10.394,0,0,0,.3,2.6A4.4,4.4,0,0,0,61.74-2.07Z" transform="translate(407 4727)"/>
    <path id="Path_4011" data-name="Path 4011" class="cls-1" d="M4.26,0H2.42L7.8-11.86H.62v-1.48h9.1v1.14Zm12.2.24A4.825,4.825,0,0,1,14.1-.32a4.23,4.23,0,0,1-1.61-1.53,7.551,7.551,0,0,1-.88-2.18,11.18,11.18,0,0,1-.29-2.61,9.778,9.778,0,0,1,.56-3.4,5.614,5.614,0,0,1,1.81-2.51,4.76,4.76,0,0,1,3.05-.99,4.676,4.676,0,0,1,3.7,1.6L19.6-10.7a3.616,3.616,0,0,0-2.86-1.36,3.049,3.049,0,0,0-2.11.78,4.471,4.471,0,0,0-1.26,1.93,7.836,7.836,0,0,0-.39,2.53A5.063,5.063,0,0,0,13-6.3a4.593,4.593,0,0,1,1.55-1.44,4.215,4.215,0,0,1,2.23-.64,4.494,4.494,0,0,1,3.13,1.11,4.025,4.025,0,0,1,1.23,3.15,4.189,4.189,0,0,1-1.28,3.09A4.616,4.616,0,0,1,16.46.24ZM16.4-1.24a2.923,2.923,0,0,0,2.25-.87,2.792,2.792,0,0,0,.81-1.95A2.669,2.669,0,0,0,18.6-6.2a3.283,3.283,0,0,0-2.22-.74,3.553,3.553,0,0,0-1.88.55,4.4,4.4,0,0,0-1.46,1.45A5.073,5.073,0,0,0,14-2.35,2.8,2.8,0,0,0,16.4-1.24ZM28.14.24a5.535,5.535,0,0,1-4.7-2.14L24.46-3a4.44,4.44,0,0,0,3.68,1.76,3.085,3.085,0,0,0,2.22-.82,2.7,2.7,0,0,0,.86-2.04,2.718,2.718,0,0,0-.85-2.09,3.117,3.117,0,0,0-2.21-.79,4.233,4.233,0,0,0-3.08,1.26l-1.22-.42v-7.2h8.16v1.48h-6.5v4.64a4.221,4.221,0,0,1,3.12-1.2,4.253,4.253,0,0,1,3,1.15,4.035,4.035,0,0,1,1.24,3.11,4.085,4.085,0,0,1-1.34,3.2A4.905,4.905,0,0,1,28.14.24Zm17.1,0a4.825,4.825,0,0,1-2.36-.56,4.23,4.23,0,0,1-1.61-1.53,7.551,7.551,0,0,1-.88-2.18,11.18,11.18,0,0,1-.29-2.61,9.778,9.778,0,0,1,.56-3.4,5.614,5.614,0,0,1,1.81-2.51,4.76,4.76,0,0,1,3.05-.99,4.676,4.676,0,0,1,3.7,1.6l-.84,1.24a3.616,3.616,0,0,0-2.86-1.36,3.049,3.049,0,0,0-2.11.78,4.471,4.471,0,0,0-1.26,1.93,7.836,7.836,0,0,0-.39,2.53,5.063,5.063,0,0,0,.02.52,4.593,4.593,0,0,1,1.55-1.44,4.215,4.215,0,0,1,2.23-.64,4.494,4.494,0,0,1,3.13,1.11,4.025,4.025,0,0,1,1.23,3.15,4.189,4.189,0,0,1-1.28,3.09A4.616,4.616,0,0,1,45.24.24Zm-.06-1.48a2.923,2.923,0,0,0,2.25-.87,2.792,2.792,0,0,0,.81-1.95,2.669,2.669,0,0,0-.86-2.14,3.283,3.283,0,0,0-2.22-.74,3.553,3.553,0,0,0-1.88.55,4.4,4.4,0,0,0-1.46,1.45,5.073,5.073,0,0,0,.96,2.59A2.8,2.8,0,0,0,45.18-1.24ZM56.28.22a4.676,4.676,0,0,1-3.7-1.6l.84-1.24a3.616,3.616,0,0,0,2.86,1.36,3.094,3.094,0,0,0,2.16-.8A4.344,4.344,0,0,0,59.68-4a8.2,8.2,0,0,0,.36-2.48,5.332,5.332,0,0,0-.02-.54,4.617,4.617,0,0,1-1.54,1.44,4.164,4.164,0,0,1-2.22.64,4.531,4.531,0,0,1-3.14-1.11A4.008,4.008,0,0,1,51.88-9.2a4.2,4.2,0,0,1,1.28-3.08,4.569,4.569,0,0,1,3.38-1.28,4.868,4.868,0,0,1,2.38.56,4.206,4.206,0,0,1,1.61,1.54,7.707,7.707,0,0,1,.88,2.18,11.145,11.145,0,0,1,.29,2.62,9.694,9.694,0,0,1-.56,3.39,5.622,5.622,0,0,1-1.81,2.5A4.76,4.76,0,0,1,56.28.22Zm.36-6.6a3.654,3.654,0,0,0,1.89-.54,3.949,3.949,0,0,0,1.43-1.44,4.991,4.991,0,0,0-.94-2.6,2.788,2.788,0,0,0-2.4-1.12,2.912,2.912,0,0,0-2.24.88,2.787,2.787,0,0,0-.82,1.94,2.669,2.669,0,0,0,.86,2.14A3.283,3.283,0,0,0,56.64-6.38ZM72.96,0H63.8V-1.32q2.08-1.64,3.23-2.61t2.22-2.06a8.566,8.566,0,0,0,1.51-1.94,3.651,3.651,0,0,0,.44-1.69,2.14,2.14,0,0,0-.82-1.82,3.156,3.156,0,0,0-1.96-.62,4.353,4.353,0,0,0-3.62,1.68l-1.02-1.06a5.02,5.02,0,0,1,1.99-1.55,6.417,6.417,0,0,1,2.65-.55,5.026,5.026,0,0,1,3.15,1.02,3.439,3.439,0,0,1,1.33,2.9,5.694,5.694,0,0,1-1.6,3.71,36.332,36.332,0,0,1-4.88,4.43h6.54Z" transform="translate(688 4727)"/>
    <path id="Path_4003" data-name="Path 4003" class="cls-1" d="M8-6.961a6.308,6.308,0,0,1-3.578-.867A2.719,2.719,0,0,1,3.148-10.2a2.748,2.748,0,0,1,1.289-2.367A6.193,6.193,0,0,1,8-13.453a6.249,6.249,0,0,1,3.6.891A2.752,2.752,0,0,1,12.883-10.2,2.721,2.721,0,0,1,11.6-7.836,6.336,6.336,0,0,1,8-6.961Zm0-5.484a5,5,0,0,0-2.676.605A1.861,1.861,0,0,0,4.367-10.2a1.858,1.858,0,0,0,.957,1.633A4.971,4.971,0,0,0,8-7.953a4.971,4.971,0,0,0,2.676-.609,1.858,1.858,0,0,0,.957-1.633,1.861,1.861,0,0,0-.957-1.645A5,5,0,0,0,8-12.445ZM4.781,1.391V-4.18H1.008V-5.234H14.992V-4.18H11.219v5.57H10.047V-4.18H5.953v5.57ZM19.086-9.2H27.68v-2.141H19.117v-1.039h9.75V-8.2H20.273v2.3h8.945v1.039H26.945v2.93h4.047V-.883H17.008V-1.922h4.047v-2.93H19.086Zm3.141,7.281h3.547v-2.93H22.227ZM48.862-6.5V1.406H47.7v-15.07h1.164v6.125h2.609V-6.5ZM45.487-2.414A12.387,12.387,0,0,1,43.128-4.84a8.631,8.631,0,0,1-1.414-2.535,9.21,9.21,0,0,1-1.406,2.668,12.054,12.054,0,0,1-2.336,2.48l-.9-.781A9.424,9.424,0,0,0,40.019-6.2a7.932,7.932,0,0,0,1.1-3.957v-2.469h1.164v2.414a7.478,7.478,0,0,0,1.09,3.828,9.06,9.06,0,0,0,2.934,3.055ZM56.878-8.445a2.387,2.387,0,0,1-1.531-2.227,2.282,2.282,0,0,1,1.242-2.066,7.045,7.045,0,0,1,3.539-.73,7.045,7.045,0,0,1,3.539.73,2.282,2.282,0,0,1,1.242,2.066,2.357,2.357,0,0,1-1.547,2.227V-6.3H67.12v1.039H53.136V-6.3h3.742Zm3.25-4.031q-3.57,0-3.57,1.8a1.463,1.463,0,0,0,.887,1.328,5.862,5.862,0,0,0,2.684.477,5.862,5.862,0,0,0,2.684-.477,1.463,1.463,0,0,0,.887-1.328Q63.7-12.477,60.128-12.477ZM58.05-6.3H62.19V-8.062a9.88,9.88,0,0,1-2.062.188,10.118,10.118,0,0,1-2.078-.2Zm2.078,7.633a7.063,7.063,0,0,1-3.59-.742A2.28,2.28,0,0,1,55.3-1.453a2.3,2.3,0,0,1,1.246-2.059,7.04,7.04,0,0,1,3.582-.746,7.039,7.039,0,0,1,3.582.746,2.3,2.3,0,0,1,1.246,2.059A2.28,2.28,0,0,1,63.718.586,7.063,7.063,0,0,1,60.128,1.328Zm0-4.594a5.938,5.938,0,0,0-2.7.484,1.473,1.473,0,0,0-.914,1.328,1.45,1.45,0,0,0,.91,1.316,6.062,6.062,0,0,0,2.707.473,6.066,6.066,0,0,0,2.7-.473,1.45,1.45,0,0,0,.914-1.316,1.47,1.47,0,0,0-.918-1.332A5.984,5.984,0,0,0,60.128-3.266ZM80.862-6.5V1.406H79.7v-15.07h1.164v6.125h2.609V-6.5ZM77.315-2.273a11.356,11.356,0,0,1-2.168-2.258,8.819,8.819,0,0,1-1.4-2.523,8.832,8.832,0,0,1-1.336,2.531,11.933,11.933,0,0,1-2.281,2.461l-.9-.773A8.776,8.776,0,0,0,72.007-5.91a7.74,7.74,0,0,0,1.129-3.816v-1.586H69.792v-1.039h7.773v1.039H74.284V-9.8a7.18,7.18,0,0,0,1.133,3.719,9.086,9.086,0,0,0,2.711,2.938Z" transform="translate(484 4560)"/>
    <path id="Path_4004" data-name="Path 4004" class="cls-1" d="M8-6.961a6.308,6.308,0,0,1-3.578-.867A2.719,2.719,0,0,1,3.148-10.2a2.748,2.748,0,0,1,1.289-2.367A6.193,6.193,0,0,1,8-13.453a6.249,6.249,0,0,1,3.6.891A2.752,2.752,0,0,1,12.883-10.2,2.721,2.721,0,0,1,11.6-7.836,6.336,6.336,0,0,1,8-6.961Zm0-5.484a5,5,0,0,0-2.676.605A1.861,1.861,0,0,0,4.367-10.2a1.858,1.858,0,0,0,.957,1.633A4.971,4.971,0,0,0,8-7.953a4.971,4.971,0,0,0,2.676-.609,1.858,1.858,0,0,0,.957-1.633,1.861,1.861,0,0,0-.957-1.645A5,5,0,0,0,8-12.445ZM4.781,1.391V-4.18H1.008V-5.234H14.992V-4.18H11.219v5.57H10.047V-4.18H5.953v5.57ZM19.086-9.2H27.68v-2.141H19.117v-1.039h9.75V-8.2H20.273v2.3h8.945v1.039H26.945v2.93h4.047V-.883H17.008V-1.922h4.047v-2.93H19.086Zm3.141,7.281h3.547v-2.93H22.227ZM48.862-6.5V1.406H47.7v-15.07h1.164v6.125h2.609V-6.5ZM45.487-2.414A12.387,12.387,0,0,1,43.128-4.84a8.631,8.631,0,0,1-1.414-2.535,9.21,9.21,0,0,1-1.406,2.668,12.054,12.054,0,0,1-2.336,2.48l-.9-.781A9.424,9.424,0,0,0,40.019-6.2a7.932,7.932,0,0,0,1.1-3.957v-2.469h1.164v2.414a7.478,7.478,0,0,0,1.09,3.828,9.06,9.06,0,0,0,2.934,3.055ZM56.878-8.445a2.387,2.387,0,0,1-1.531-2.227,2.282,2.282,0,0,1,1.242-2.066,7.045,7.045,0,0,1,3.539-.73,7.045,7.045,0,0,1,3.539.73,2.282,2.282,0,0,1,1.242,2.066,2.357,2.357,0,0,1-1.547,2.227V-6.3H67.12v1.039H53.136V-6.3h3.742Zm3.25-4.031q-3.57,0-3.57,1.8a1.463,1.463,0,0,0,.887,1.328,5.862,5.862,0,0,0,2.684.477,5.862,5.862,0,0,0,2.684-.477,1.463,1.463,0,0,0,.887-1.328Q63.7-12.477,60.128-12.477ZM58.05-6.3H62.19V-8.062a9.88,9.88,0,0,1-2.062.188,10.118,10.118,0,0,1-2.078-.2Zm2.078,7.633a7.063,7.063,0,0,1-3.59-.742A2.28,2.28,0,0,1,55.3-1.453a2.3,2.3,0,0,1,1.246-2.059,7.04,7.04,0,0,1,3.582-.746,7.039,7.039,0,0,1,3.582.746,2.3,2.3,0,0,1,1.246,2.059A2.28,2.28,0,0,1,63.718.586,7.063,7.063,0,0,1,60.128,1.328Zm0-4.594a5.938,5.938,0,0,0-2.7.484,1.473,1.473,0,0,0-.914,1.328,1.45,1.45,0,0,0,.91,1.316,6.062,6.062,0,0,0,2.707.473,6.066,6.066,0,0,0,2.7-.473,1.45,1.45,0,0,0,.914-1.316,1.47,1.47,0,0,0-.918-1.332A5.984,5.984,0,0,0,60.128-3.266ZM80.862-6.5V1.406H79.7v-15.07h1.164v6.125h2.609V-6.5ZM77.315-2.273a11.356,11.356,0,0,1-2.168-2.258,8.819,8.819,0,0,1-1.4-2.523,8.832,8.832,0,0,1-1.336,2.531,11.933,11.933,0,0,1-2.281,2.461l-.9-.773A8.776,8.776,0,0,0,72.007-5.91a7.74,7.74,0,0,0,1.129-3.816v-1.586H69.792v-1.039h7.773v1.039H74.284V-9.8a7.18,7.18,0,0,0,1.133,3.719,9.086,9.086,0,0,0,2.711,2.938Z" transform="translate(765 4560)"/>
    <path id="Path_4009" data-name="Path 4009" class="cls-1" d="M8-6.961a6.308,6.308,0,0,1-3.578-.867A2.719,2.719,0,0,1,3.148-10.2a2.748,2.748,0,0,1,1.289-2.367A6.193,6.193,0,0,1,8-13.453a6.249,6.249,0,0,1,3.6.891A2.752,2.752,0,0,1,12.883-10.2,2.721,2.721,0,0,1,11.6-7.836,6.336,6.336,0,0,1,8-6.961Zm0-5.484a5,5,0,0,0-2.676.605A1.861,1.861,0,0,0,4.367-10.2a1.858,1.858,0,0,0,.957,1.633A4.971,4.971,0,0,0,8-7.953a4.971,4.971,0,0,0,2.676-.609,1.858,1.858,0,0,0,.957-1.633,1.861,1.861,0,0,0-.957-1.645A5,5,0,0,0,8-12.445ZM4.781,1.391V-4.18H1.008V-5.234H14.992V-4.18H11.219v5.57H10.047V-4.18H5.953v5.57ZM19.086-9.2H27.68v-2.141H19.117v-1.039h9.75V-8.2H20.273v2.3h8.945v1.039H26.945v2.93h4.047V-.883H17.008V-1.922h4.047v-2.93H19.086Zm3.141,7.281h3.547v-2.93H22.227ZM48.862-6.5V1.406H47.7v-15.07h1.164v6.125h2.609V-6.5ZM45.487-2.414A12.387,12.387,0,0,1,43.128-4.84a8.631,8.631,0,0,1-1.414-2.535,9.21,9.21,0,0,1-1.406,2.668,12.054,12.054,0,0,1-2.336,2.48l-.9-.781A9.424,9.424,0,0,0,40.019-6.2a7.932,7.932,0,0,0,1.1-3.957v-2.469h1.164v2.414a7.478,7.478,0,0,0,1.09,3.828,9.06,9.06,0,0,0,2.934,3.055ZM56.878-8.445a2.387,2.387,0,0,1-1.531-2.227,2.282,2.282,0,0,1,1.242-2.066,7.045,7.045,0,0,1,3.539-.73,7.045,7.045,0,0,1,3.539.73,2.282,2.282,0,0,1,1.242,2.066,2.357,2.357,0,0,1-1.547,2.227V-6.3H67.12v1.039H53.136V-6.3h3.742Zm3.25-4.031q-3.57,0-3.57,1.8a1.463,1.463,0,0,0,.887,1.328,5.862,5.862,0,0,0,2.684.477,5.862,5.862,0,0,0,2.684-.477,1.463,1.463,0,0,0,.887-1.328Q63.7-12.477,60.128-12.477ZM58.05-6.3H62.19V-8.062a9.88,9.88,0,0,1-2.062.188,10.118,10.118,0,0,1-2.078-.2Zm2.078,7.633a7.063,7.063,0,0,1-3.59-.742A2.28,2.28,0,0,1,55.3-1.453a2.3,2.3,0,0,1,1.246-2.059,7.04,7.04,0,0,1,3.582-.746,7.039,7.039,0,0,1,3.582.746,2.3,2.3,0,0,1,1.246,2.059A2.28,2.28,0,0,1,63.718.586,7.063,7.063,0,0,1,60.128,1.328Zm0-4.594a5.938,5.938,0,0,0-2.7.484,1.473,1.473,0,0,0-.914,1.328,1.45,1.45,0,0,0,.91,1.316,6.062,6.062,0,0,0,2.707.473,6.066,6.066,0,0,0,2.7-.473,1.45,1.45,0,0,0,.914-1.316,1.47,1.47,0,0,0-.918-1.332A5.984,5.984,0,0,0,60.128-3.266ZM80.862-6.5V1.406H79.7v-15.07h1.164v6.125h2.609V-6.5ZM77.315-2.273a11.356,11.356,0,0,1-2.168-2.258,8.819,8.819,0,0,1-1.4-2.523,8.832,8.832,0,0,1-1.336,2.531,11.933,11.933,0,0,1-2.281,2.461l-.9-.773A8.776,8.776,0,0,0,72.007-5.91a7.74,7.74,0,0,0,1.129-3.816v-1.586H69.792v-1.039h7.773v1.039H74.284V-9.8a7.18,7.18,0,0,0,1.133,3.719,9.086,9.086,0,0,0,2.711,2.938Z" transform="translate(1046 4560)"/>
    <path id="Path_4012" data-name="Path 4012" class="cls-1" d="M8-6.961a6.308,6.308,0,0,1-3.578-.867A2.719,2.719,0,0,1,3.148-10.2a2.748,2.748,0,0,1,1.289-2.367A6.193,6.193,0,0,1,8-13.453a6.249,6.249,0,0,1,3.6.891A2.752,2.752,0,0,1,12.883-10.2,2.721,2.721,0,0,1,11.6-7.836,6.336,6.336,0,0,1,8-6.961Zm0-5.484a5,5,0,0,0-2.676.605A1.861,1.861,0,0,0,4.367-10.2a1.858,1.858,0,0,0,.957,1.633A4.971,4.971,0,0,0,8-7.953a4.971,4.971,0,0,0,2.676-.609,1.858,1.858,0,0,0,.957-1.633,1.861,1.861,0,0,0-.957-1.645A5,5,0,0,0,8-12.445ZM4.781,1.391V-4.18H1.008V-5.234H14.992V-4.18H11.219v5.57H10.047V-4.18H5.953v5.57ZM19.086-9.2H27.68v-2.141H19.117v-1.039h9.75V-8.2H20.273v2.3h8.945v1.039H26.945v2.93h4.047V-.883H17.008V-1.922h4.047v-2.93H19.086Zm3.141,7.281h3.547v-2.93H22.227ZM48.862-6.5V1.406H47.7v-15.07h1.164v6.125h2.609V-6.5ZM45.487-2.414A12.387,12.387,0,0,1,43.128-4.84a8.631,8.631,0,0,1-1.414-2.535,9.21,9.21,0,0,1-1.406,2.668,12.054,12.054,0,0,1-2.336,2.48l-.9-.781A9.424,9.424,0,0,0,40.019-6.2a7.932,7.932,0,0,0,1.1-3.957v-2.469h1.164v2.414a7.478,7.478,0,0,0,1.09,3.828,9.06,9.06,0,0,0,2.934,3.055ZM56.878-8.445a2.387,2.387,0,0,1-1.531-2.227,2.282,2.282,0,0,1,1.242-2.066,7.045,7.045,0,0,1,3.539-.73,7.045,7.045,0,0,1,3.539.73,2.282,2.282,0,0,1,1.242,2.066,2.357,2.357,0,0,1-1.547,2.227V-6.3H67.12v1.039H53.136V-6.3h3.742Zm3.25-4.031q-3.57,0-3.57,1.8a1.463,1.463,0,0,0,.887,1.328,5.862,5.862,0,0,0,2.684.477,5.862,5.862,0,0,0,2.684-.477,1.463,1.463,0,0,0,.887-1.328Q63.7-12.477,60.128-12.477ZM58.05-6.3H62.19V-8.062a9.88,9.88,0,0,1-2.062.188,10.118,10.118,0,0,1-2.078-.2Zm2.078,7.633a7.063,7.063,0,0,1-3.59-.742A2.28,2.28,0,0,1,55.3-1.453a2.3,2.3,0,0,1,1.246-2.059,7.04,7.04,0,0,1,3.582-.746,7.039,7.039,0,0,1,3.582.746,2.3,2.3,0,0,1,1.246,2.059A2.28,2.28,0,0,1,63.718.586,7.063,7.063,0,0,1,60.128,1.328Zm0-4.594a5.938,5.938,0,0,0-2.7.484,1.473,1.473,0,0,0-.914,1.328,1.45,1.45,0,0,0,.91,1.316,6.062,6.062,0,0,0,2.707.473,6.066,6.066,0,0,0,2.7-.473,1.45,1.45,0,0,0,.914-1.316,1.47,1.47,0,0,0-.918-1.332A5.984,5.984,0,0,0,60.128-3.266ZM80.862-6.5V1.406H79.7v-15.07h1.164v6.125h2.609V-6.5ZM77.315-2.273a11.356,11.356,0,0,1-2.168-2.258,8.819,8.819,0,0,1-1.4-2.523,8.832,8.832,0,0,1-1.336,2.531,11.933,11.933,0,0,1-2.281,2.461l-.9-.773A8.776,8.776,0,0,0,72.007-5.91a7.74,7.74,0,0,0,1.129-3.816v-1.586H69.792v-1.039h7.773v1.039H74.284V-9.8a7.18,7.18,0,0,0,1.133,3.719,9.086,9.086,0,0,0,2.711,2.938Z" transform="translate(484 4727)"/>
    <path id="Path_4013" data-name="Path 4013" class="cls-1" d="M8-6.961a6.308,6.308,0,0,1-3.578-.867A2.719,2.719,0,0,1,3.148-10.2a2.748,2.748,0,0,1,1.289-2.367A6.193,6.193,0,0,1,8-13.453a6.249,6.249,0,0,1,3.6.891A2.752,2.752,0,0,1,12.883-10.2,2.721,2.721,0,0,1,11.6-7.836,6.336,6.336,0,0,1,8-6.961Zm0-5.484a5,5,0,0,0-2.676.605A1.861,1.861,0,0,0,4.367-10.2a1.858,1.858,0,0,0,.957,1.633A4.971,4.971,0,0,0,8-7.953a4.971,4.971,0,0,0,2.676-.609,1.858,1.858,0,0,0,.957-1.633,1.861,1.861,0,0,0-.957-1.645A5,5,0,0,0,8-12.445ZM4.781,1.391V-4.18H1.008V-5.234H14.992V-4.18H11.219v5.57H10.047V-4.18H5.953v5.57ZM19.086-9.2H27.68v-2.141H19.117v-1.039h9.75V-8.2H20.273v2.3h8.945v1.039H26.945v2.93h4.047V-.883H17.008V-1.922h4.047v-2.93H19.086Zm3.141,7.281h3.547v-2.93H22.227ZM48.862-6.5V1.406H47.7v-15.07h1.164v6.125h2.609V-6.5ZM45.487-2.414A12.387,12.387,0,0,1,43.128-4.84a8.631,8.631,0,0,1-1.414-2.535,9.21,9.21,0,0,1-1.406,2.668,12.054,12.054,0,0,1-2.336,2.48l-.9-.781A9.424,9.424,0,0,0,40.019-6.2a7.932,7.932,0,0,0,1.1-3.957v-2.469h1.164v2.414a7.478,7.478,0,0,0,1.09,3.828,9.06,9.06,0,0,0,2.934,3.055ZM56.878-8.445a2.387,2.387,0,0,1-1.531-2.227,2.282,2.282,0,0,1,1.242-2.066,7.045,7.045,0,0,1,3.539-.73,7.045,7.045,0,0,1,3.539.73,2.282,2.282,0,0,1,1.242,2.066,2.357,2.357,0,0,1-1.547,2.227V-6.3H67.12v1.039H53.136V-6.3h3.742Zm3.25-4.031q-3.57,0-3.57,1.8a1.463,1.463,0,0,0,.887,1.328,5.862,5.862,0,0,0,2.684.477,5.862,5.862,0,0,0,2.684-.477,1.463,1.463,0,0,0,.887-1.328Q63.7-12.477,60.128-12.477ZM58.05-6.3H62.19V-8.062a9.88,9.88,0,0,1-2.062.188,10.118,10.118,0,0,1-2.078-.2Zm2.078,7.633a7.063,7.063,0,0,1-3.59-.742A2.28,2.28,0,0,1,55.3-1.453a2.3,2.3,0,0,1,1.246-2.059,7.04,7.04,0,0,1,3.582-.746,7.039,7.039,0,0,1,3.582.746,2.3,2.3,0,0,1,1.246,2.059A2.28,2.28,0,0,1,63.718.586,7.063,7.063,0,0,1,60.128,1.328Zm0-4.594a5.938,5.938,0,0,0-2.7.484,1.473,1.473,0,0,0-.914,1.328,1.45,1.45,0,0,0,.91,1.316,6.062,6.062,0,0,0,2.707.473,6.066,6.066,0,0,0,2.7-.473,1.45,1.45,0,0,0,.914-1.316,1.47,1.47,0,0,0-.918-1.332A5.984,5.984,0,0,0,60.128-3.266ZM80.862-6.5V1.406H79.7v-15.07h1.164v6.125h2.609V-6.5ZM77.315-2.273a11.356,11.356,0,0,1-2.168-2.258,8.819,8.819,0,0,1-1.4-2.523,8.832,8.832,0,0,1-1.336,2.531,11.933,11.933,0,0,1-2.281,2.461l-.9-.773A8.776,8.776,0,0,0,72.007-5.91a7.74,7.74,0,0,0,1.129-3.816v-1.586H69.792v-1.039h7.773v1.039H74.284V-9.8a7.18,7.18,0,0,0,1.133,3.719,9.086,9.086,0,0,0,2.711,2.938Z" transform="translate(765 4727)"/>
    <path id="Path_3999" data-name="Path 3999" class="cls-1" d="M20.16,0H2.478V-1.176q3.36-2.772,5.208-4.389t4.305-3.969a35.714,35.714,0,0,0,3.7-3.99,19.483,19.483,0,0,0,2.142-3.591,8.865,8.865,0,0,0,.9-3.717,5.611,5.611,0,0,0-2.079-4.746,7.8,7.8,0,0,0-4.893-1.6,10.022,10.022,0,0,0-4.62,1.029,7.749,7.749,0,0,0-3.108,2.751l-1.092-.8A8.9,8.9,0,0,1,6.573-27.3,11.8,11.8,0,0,1,11.8-28.434a9.325,9.325,0,0,1,5.712,1.911,6.648,6.648,0,0,1,2.562,5.691A8.935,8.935,0,0,1,19.593-18,18.6,18.6,0,0,1,18.48-15.33a15.949,15.949,0,0,1-1.974,2.814q-1.344,1.6-2.373,2.667t-3,2.856Q9.156-5.208,7.98-4.221L4.452-1.26H20.16ZM41.6-.819A8.2,8.2,0,0,1,36.96.5,8.3,8.3,0,0,1,32.3-.819a9.013,9.013,0,0,1-3.129-3.507A19.485,19.485,0,0,1,27.51-8.967a23.066,23.066,0,0,1-.546-5.019,22.976,22.976,0,0,1,.546-5.04,19.17,19.17,0,0,1,1.659-4.6A9.052,9.052,0,0,1,32.3-27.111a8.3,8.3,0,0,1,4.662-1.323A8.2,8.2,0,0,1,41.6-27.111a9.111,9.111,0,0,1,3.108,3.486,19.17,19.17,0,0,1,1.659,4.6,22.976,22.976,0,0,1,.546,5.04,23.067,23.067,0,0,1-.546,5.019,19.485,19.485,0,0,1-1.659,4.641A9.072,9.072,0,0,1,41.6-.819ZM32.928-1.953a6.887,6.887,0,0,0,4.032,1.2,6.8,6.8,0,0,0,4.032-1.218,7.942,7.942,0,0,0,2.646-3.213A18.666,18.666,0,0,0,45-9.387a23.4,23.4,0,0,0,.441-4.6,23.4,23.4,0,0,0-.441-4.6,18.666,18.666,0,0,0-1.365-4.2,7.789,7.789,0,0,0-2.646-3.192,6.887,6.887,0,0,0-4.032-1.2,6.887,6.887,0,0,0-4.032,1.2,7.945,7.945,0,0,0-2.667,3.192,18.032,18.032,0,0,0-1.386,4.2,23.4,23.4,0,0,0-.441,4.6,23.4,23.4,0,0,0,.441,4.6,18.417,18.417,0,0,0,1.386,4.221A7.916,7.916,0,0,0,32.928-1.953ZM57.582,0H56.238V-26.082l-4.41,4.83-.924-.966,5.418-5.8h1.26Zm15.2.462a8.476,8.476,0,0,1-7.35-3.78L66.444-4.2A7.336,7.336,0,0,0,72.786-.8,7.153,7.153,0,0,0,76.9-2a7.768,7.768,0,0,0,2.709-3.234A18.6,18.6,0,0,0,81-9.555a25.616,25.616,0,0,0,.441-4.851q0-1.008-.042-1.512a11.237,11.237,0,0,1-3.423,3.381,8.892,8.892,0,0,1-5.1,1.617,9.12,9.12,0,0,1-6.4-2.247q-2.457-2.247-2.457-6.573a8.7,8.7,0,0,1,2.436-6.111,8.558,8.558,0,0,1,6.594-2.625,8.545,8.545,0,0,1,4.557,1.2,8.243,8.243,0,0,1,3.045,3.3,17.886,17.886,0,0,1,1.617,4.6,26.242,26.242,0,0,1,.525,5.4,24.478,24.478,0,0,1-.525,5.166,18.191,18.191,0,0,1-1.638,4.578A8.777,8.777,0,0,1,77.49-.819,8.582,8.582,0,0,1,72.786.462Zm.126-12.642a8.349,8.349,0,0,0,4.746-1.533,11.046,11.046,0,0,0,3.57-3.927,16.2,16.2,0,0,0-.672-3.276,13.234,13.234,0,0,0-1.428-3.066,6.843,6.843,0,0,0-2.5-2.352,7.223,7.223,0,0,0-3.591-.882,7.094,7.094,0,0,0-5.67,2.331,7.688,7.688,0,0,0-2.016,5.145,7.349,7.349,0,0,0,2.058,5.628A7.713,7.713,0,0,0,72.912-12.18Z" transform="translate(407 4478)"/>
    <path id="Path_4000" data-name="Path 4000" class="cls-1" d="M20.16,0H2.478V-1.176q3.36-2.772,5.208-4.389t4.305-3.969a35.714,35.714,0,0,0,3.7-3.99,19.483,19.483,0,0,0,2.142-3.591,8.865,8.865,0,0,0,.9-3.717,5.611,5.611,0,0,0-2.079-4.746,7.8,7.8,0,0,0-4.893-1.6,10.022,10.022,0,0,0-4.62,1.029,7.749,7.749,0,0,0-3.108,2.751l-1.092-.8A8.9,8.9,0,0,1,6.573-27.3,11.8,11.8,0,0,1,11.8-28.434a9.325,9.325,0,0,1,5.712,1.911,6.648,6.648,0,0,1,2.562,5.691A8.935,8.935,0,0,1,19.593-18,18.6,18.6,0,0,1,18.48-15.33a15.949,15.949,0,0,1-1.974,2.814q-1.344,1.6-2.373,2.667t-3,2.856Q9.156-5.208,7.98-4.221L4.452-1.26H20.16ZM41.6-.819A8.2,8.2,0,0,1,36.96.5,8.3,8.3,0,0,1,32.3-.819a9.013,9.013,0,0,1-3.129-3.507A19.485,19.485,0,0,1,27.51-8.967a23.066,23.066,0,0,1-.546-5.019,22.976,22.976,0,0,1,.546-5.04,19.17,19.17,0,0,1,1.659-4.6A9.052,9.052,0,0,1,32.3-27.111a8.3,8.3,0,0,1,4.662-1.323A8.2,8.2,0,0,1,41.6-27.111a9.111,9.111,0,0,1,3.108,3.486,19.17,19.17,0,0,1,1.659,4.6,22.976,22.976,0,0,1,.546,5.04,23.067,23.067,0,0,1-.546,5.019,19.485,19.485,0,0,1-1.659,4.641A9.072,9.072,0,0,1,41.6-.819ZM32.928-1.953a6.887,6.887,0,0,0,4.032,1.2,6.8,6.8,0,0,0,4.032-1.218,7.942,7.942,0,0,0,2.646-3.213A18.666,18.666,0,0,0,45-9.387a23.4,23.4,0,0,0,.441-4.6,23.4,23.4,0,0,0-.441-4.6,18.666,18.666,0,0,0-1.365-4.2,7.789,7.789,0,0,0-2.646-3.192,6.887,6.887,0,0,0-4.032-1.2,6.887,6.887,0,0,0-4.032,1.2,7.945,7.945,0,0,0-2.667,3.192,18.032,18.032,0,0,0-1.386,4.2,23.4,23.4,0,0,0-.441,4.6,23.4,23.4,0,0,0,.441,4.6,18.417,18.417,0,0,0,1.386,4.221A7.916,7.916,0,0,0,32.928-1.953ZM69.8,0H52.122V-1.176q3.36-2.772,5.208-4.389t4.305-3.969a35.715,35.715,0,0,0,3.7-3.99,19.483,19.483,0,0,0,2.142-3.591,8.865,8.865,0,0,0,.9-3.717A5.611,5.611,0,0,0,66.3-25.578a7.8,7.8,0,0,0-4.893-1.6,10.022,10.022,0,0,0-4.62,1.029,7.749,7.749,0,0,0-3.108,2.751l-1.092-.8A8.9,8.9,0,0,1,56.217-27.3a11.8,11.8,0,0,1,5.229-1.134,9.325,9.325,0,0,1,5.712,1.911,6.648,6.648,0,0,1,2.562,5.691A8.935,8.935,0,0,1,69.237-18a18.6,18.6,0,0,1-1.113,2.667,15.949,15.949,0,0,1-1.974,2.814q-1.344,1.6-2.373,2.667t-3,2.856Q58.8-5.208,57.624-4.221L54.1-1.26H69.8ZM91.245-.819A8.2,8.2,0,0,1,86.6.5,8.3,8.3,0,0,1,81.942-.819a9.013,9.013,0,0,1-3.129-3.507,19.485,19.485,0,0,1-1.659-4.641,23.067,23.067,0,0,1-.546-5.019,22.976,22.976,0,0,1,.546-5.04,19.17,19.17,0,0,1,1.659-4.6,9.052,9.052,0,0,1,3.129-3.486A8.3,8.3,0,0,1,86.6-28.434a8.2,8.2,0,0,1,4.641,1.323,9.111,9.111,0,0,1,3.108,3.486,19.17,19.17,0,0,1,1.659,4.6,22.976,22.976,0,0,1,.546,5.04,23.067,23.067,0,0,1-.546,5.019,19.486,19.486,0,0,1-1.659,4.641A9.072,9.072,0,0,1,91.245-.819ZM82.572-1.953A6.887,6.887,0,0,0,86.6-.756a6.8,6.8,0,0,0,4.032-1.218,7.942,7.942,0,0,0,2.646-3.213,18.665,18.665,0,0,0,1.365-4.2,23.4,23.4,0,0,0,.441-4.6,23.4,23.4,0,0,0-.441-4.6,18.665,18.665,0,0,0-1.365-4.2,7.789,7.789,0,0,0-2.646-3.192,6.887,6.887,0,0,0-4.032-1.2,6.887,6.887,0,0,0-4.032,1.2A7.945,7.945,0,0,0,79.9-22.785a18.033,18.033,0,0,0-1.386,4.2,23.4,23.4,0,0,0-.441,4.6,23.4,23.4,0,0,0,.441,4.6A18.417,18.417,0,0,0,79.9-5.166,7.916,7.916,0,0,0,82.572-1.953Z" transform="translate(688 4478)"/>
    <path id="Path_4006" data-name="Path 4006" class="cls-1" d="M20.16,0H2.478V-1.176q3.36-2.772,5.208-4.389t4.305-3.969a35.714,35.714,0,0,0,3.7-3.99,19.483,19.483,0,0,0,2.142-3.591,8.865,8.865,0,0,0,.9-3.717,5.611,5.611,0,0,0-2.079-4.746,7.8,7.8,0,0,0-4.893-1.6,10.022,10.022,0,0,0-4.62,1.029,7.749,7.749,0,0,0-3.108,2.751l-1.092-.8A8.9,8.9,0,0,1,6.573-27.3,11.8,11.8,0,0,1,11.8-28.434a9.325,9.325,0,0,1,5.712,1.911,6.648,6.648,0,0,1,2.562,5.691A8.935,8.935,0,0,1,19.593-18,18.6,18.6,0,0,1,18.48-15.33a15.949,15.949,0,0,1-1.974,2.814q-1.344,1.6-2.373,2.667t-3,2.856Q9.156-5.208,7.98-4.221L4.452-1.26H20.16ZM41.6-.819A8.2,8.2,0,0,1,36.96.5,8.3,8.3,0,0,1,32.3-.819a9.013,9.013,0,0,1-3.129-3.507A19.485,19.485,0,0,1,27.51-8.967a23.066,23.066,0,0,1-.546-5.019,22.976,22.976,0,0,1,.546-5.04,19.17,19.17,0,0,1,1.659-4.6A9.052,9.052,0,0,1,32.3-27.111a8.3,8.3,0,0,1,4.662-1.323A8.2,8.2,0,0,1,41.6-27.111a9.111,9.111,0,0,1,3.108,3.486,19.17,19.17,0,0,1,1.659,4.6,22.976,22.976,0,0,1,.546,5.04,23.067,23.067,0,0,1-.546,5.019,19.485,19.485,0,0,1-1.659,4.641A9.072,9.072,0,0,1,41.6-.819ZM32.928-1.953a6.887,6.887,0,0,0,4.032,1.2,6.8,6.8,0,0,0,4.032-1.218,7.942,7.942,0,0,0,2.646-3.213A18.666,18.666,0,0,0,45-9.387a23.4,23.4,0,0,0,.441-4.6,23.4,23.4,0,0,0-.441-4.6,18.666,18.666,0,0,0-1.365-4.2,7.789,7.789,0,0,0-2.646-3.192,6.887,6.887,0,0,0-4.032-1.2,6.887,6.887,0,0,0-4.032,1.2,7.945,7.945,0,0,0-2.667,3.192,18.032,18.032,0,0,0-1.386,4.2,23.4,23.4,0,0,0-.441,4.6,23.4,23.4,0,0,0,.441,4.6,18.417,18.417,0,0,0,1.386,4.221A7.916,7.916,0,0,0,32.928-1.953ZM69.8,0H52.122V-1.176q3.36-2.772,5.208-4.389t4.305-3.969a35.715,35.715,0,0,0,3.7-3.99,19.483,19.483,0,0,0,2.142-3.591,8.865,8.865,0,0,0,.9-3.717A5.611,5.611,0,0,0,66.3-25.578a7.8,7.8,0,0,0-4.893-1.6,10.022,10.022,0,0,0-4.62,1.029,7.749,7.749,0,0,0-3.108,2.751l-1.092-.8A8.9,8.9,0,0,1,56.217-27.3a11.8,11.8,0,0,1,5.229-1.134,9.325,9.325,0,0,1,5.712,1.911,6.648,6.648,0,0,1,2.562,5.691A8.935,8.935,0,0,1,69.237-18a18.6,18.6,0,0,1-1.113,2.667,15.949,15.949,0,0,1-1.974,2.814q-1.344,1.6-2.373,2.667t-3,2.856Q58.8-5.208,57.624-4.221L54.1-1.26H69.8ZM81.816,0H80.472V-26.082l-4.41,4.83-.924-.966,5.418-5.8h1.26Z" transform="translate(969 4478)"/>
    <path id="Path_4007" data-name="Path 4007" class="cls-1" d="M20.16,0H2.478V-1.176q3.36-2.772,5.208-4.389t4.305-3.969a35.714,35.714,0,0,0,3.7-3.99,19.483,19.483,0,0,0,2.142-3.591,8.865,8.865,0,0,0,.9-3.717,5.611,5.611,0,0,0-2.079-4.746,7.8,7.8,0,0,0-4.893-1.6,10.022,10.022,0,0,0-4.62,1.029,7.749,7.749,0,0,0-3.108,2.751l-1.092-.8A8.9,8.9,0,0,1,6.573-27.3,11.8,11.8,0,0,1,11.8-28.434a9.325,9.325,0,0,1,5.712,1.911,6.648,6.648,0,0,1,2.562,5.691A8.935,8.935,0,0,1,19.593-18,18.6,18.6,0,0,1,18.48-15.33a15.949,15.949,0,0,1-1.974,2.814q-1.344,1.6-2.373,2.667t-3,2.856Q9.156-5.208,7.98-4.221L4.452-1.26H20.16ZM41.6-.819A8.2,8.2,0,0,1,36.96.5,8.3,8.3,0,0,1,32.3-.819a9.013,9.013,0,0,1-3.129-3.507A19.485,19.485,0,0,1,27.51-8.967a23.066,23.066,0,0,1-.546-5.019,22.976,22.976,0,0,1,.546-5.04,19.17,19.17,0,0,1,1.659-4.6A9.052,9.052,0,0,1,32.3-27.111a8.3,8.3,0,0,1,4.662-1.323A8.2,8.2,0,0,1,41.6-27.111a9.111,9.111,0,0,1,3.108,3.486,19.17,19.17,0,0,1,1.659,4.6,22.976,22.976,0,0,1,.546,5.04,23.067,23.067,0,0,1-.546,5.019,19.485,19.485,0,0,1-1.659,4.641A9.072,9.072,0,0,1,41.6-.819ZM32.928-1.953a6.887,6.887,0,0,0,4.032,1.2,6.8,6.8,0,0,0,4.032-1.218,7.942,7.942,0,0,0,2.646-3.213A18.666,18.666,0,0,0,45-9.387a23.4,23.4,0,0,0,.441-4.6,23.4,23.4,0,0,0-.441-4.6,18.666,18.666,0,0,0-1.365-4.2,7.789,7.789,0,0,0-2.646-3.192,6.887,6.887,0,0,0-4.032-1.2,6.887,6.887,0,0,0-4.032,1.2,7.945,7.945,0,0,0-2.667,3.192,18.032,18.032,0,0,0-1.386,4.2,23.4,23.4,0,0,0-.441,4.6,23.4,23.4,0,0,0,.441,4.6,18.417,18.417,0,0,0,1.386,4.221A7.916,7.916,0,0,0,32.928-1.953ZM69.8,0H52.122V-1.176q3.36-2.772,5.208-4.389t4.305-3.969a35.715,35.715,0,0,0,3.7-3.99,19.483,19.483,0,0,0,2.142-3.591,8.865,8.865,0,0,0,.9-3.717A5.611,5.611,0,0,0,66.3-25.578a7.8,7.8,0,0,0-4.893-1.6,10.022,10.022,0,0,0-4.62,1.029,7.749,7.749,0,0,0-3.108,2.751l-1.092-.8A8.9,8.9,0,0,1,56.217-27.3a11.8,11.8,0,0,1,5.229-1.134,9.325,9.325,0,0,1,5.712,1.911,6.648,6.648,0,0,1,2.562,5.691A8.935,8.935,0,0,1,69.237-18a18.6,18.6,0,0,1-1.113,2.667,15.949,15.949,0,0,1-1.974,2.814q-1.344,1.6-2.373,2.667t-3,2.856Q58.8-5.208,57.624-4.221L54.1-1.26H69.8ZM94.038,0H76.356V-1.176q3.36-2.772,5.208-4.389t4.305-3.969a35.715,35.715,0,0,0,3.7-3.99,19.483,19.483,0,0,0,2.142-3.591,8.865,8.865,0,0,0,.9-3.717,5.611,5.611,0,0,0-2.079-4.746,7.8,7.8,0,0,0-4.893-1.6,10.022,10.022,0,0,0-4.62,1.029,7.749,7.749,0,0,0-3.108,2.751l-1.092-.8A8.9,8.9,0,0,1,80.451-27.3a11.8,11.8,0,0,1,5.229-1.134,9.325,9.325,0,0,1,5.712,1.911,6.648,6.648,0,0,1,2.562,5.691A8.935,8.935,0,0,1,93.471-18a18.6,18.6,0,0,1-1.113,2.667,15.949,15.949,0,0,1-1.974,2.814q-1.344,1.6-2.373,2.667t-3,2.856q-1.974,1.785-3.15,2.772L78.33-1.26H94.038Z" transform="translate(407 4645)"/>
    <path id="Path_4008" data-name="Path 4008" class="cls-1" d="M20.16,0H2.478V-1.176q3.36-2.772,5.208-4.389t4.305-3.969a35.714,35.714,0,0,0,3.7-3.99,19.483,19.483,0,0,0,2.142-3.591,8.865,8.865,0,0,0,.9-3.717,5.611,5.611,0,0,0-2.079-4.746,7.8,7.8,0,0,0-4.893-1.6,10.022,10.022,0,0,0-4.62,1.029,7.749,7.749,0,0,0-3.108,2.751l-1.092-.8A8.9,8.9,0,0,1,6.573-27.3,11.8,11.8,0,0,1,11.8-28.434a9.325,9.325,0,0,1,5.712,1.911,6.648,6.648,0,0,1,2.562,5.691A8.935,8.935,0,0,1,19.593-18,18.6,18.6,0,0,1,18.48-15.33a15.949,15.949,0,0,1-1.974,2.814q-1.344,1.6-2.373,2.667t-3,2.856Q9.156-5.208,7.98-4.221L4.452-1.26H20.16ZM41.6-.819A8.2,8.2,0,0,1,36.96.5,8.3,8.3,0,0,1,32.3-.819a9.013,9.013,0,0,1-3.129-3.507A19.485,19.485,0,0,1,27.51-8.967a23.066,23.066,0,0,1-.546-5.019,22.976,22.976,0,0,1,.546-5.04,19.17,19.17,0,0,1,1.659-4.6A9.052,9.052,0,0,1,32.3-27.111a8.3,8.3,0,0,1,4.662-1.323A8.2,8.2,0,0,1,41.6-27.111a9.111,9.111,0,0,1,3.108,3.486,19.17,19.17,0,0,1,1.659,4.6,22.976,22.976,0,0,1,.546,5.04,23.067,23.067,0,0,1-.546,5.019,19.485,19.485,0,0,1-1.659,4.641A9.072,9.072,0,0,1,41.6-.819ZM32.928-1.953a6.887,6.887,0,0,0,4.032,1.2,6.8,6.8,0,0,0,4.032-1.218,7.942,7.942,0,0,0,2.646-3.213A18.666,18.666,0,0,0,45-9.387a23.4,23.4,0,0,0,.441-4.6,23.4,23.4,0,0,0-.441-4.6,18.666,18.666,0,0,0-1.365-4.2,7.789,7.789,0,0,0-2.646-3.192,6.887,6.887,0,0,0-4.032-1.2,6.887,6.887,0,0,0-4.032,1.2,7.945,7.945,0,0,0-2.667,3.192,18.032,18.032,0,0,0-1.386,4.2,23.4,23.4,0,0,0-.441,4.6,23.4,23.4,0,0,0,.441,4.6,18.417,18.417,0,0,0,1.386,4.221A7.916,7.916,0,0,0,32.928-1.953ZM69.8,0H52.122V-1.176q3.36-2.772,5.208-4.389t4.305-3.969a35.715,35.715,0,0,0,3.7-3.99,19.483,19.483,0,0,0,2.142-3.591,8.865,8.865,0,0,0,.9-3.717A5.611,5.611,0,0,0,66.3-25.578a7.8,7.8,0,0,0-4.893-1.6,10.022,10.022,0,0,0-4.62,1.029,7.749,7.749,0,0,0-3.108,2.751l-1.092-.8A8.9,8.9,0,0,1,56.217-27.3a11.8,11.8,0,0,1,5.229-1.134,9.325,9.325,0,0,1,5.712,1.911,6.648,6.648,0,0,1,2.562,5.691A8.935,8.935,0,0,1,69.237-18a18.6,18.6,0,0,1-1.113,2.667,15.949,15.949,0,0,1-1.974,2.814q-1.344,1.6-2.373,2.667t-3,2.856Q58.8-5.208,57.624-4.221L54.1-1.26H69.8ZM84.462.5A11.016,11.016,0,0,1,78.939-.84,9.258,9.258,0,0,1,75.39-4.2l1.176-.672a8.649,8.649,0,0,0,7.9,4.116,8.169,8.169,0,0,0,5.544-1.785,6.139,6.139,0,0,0,2.058-4.893,5.476,5.476,0,0,0-2.31-4.83,9.962,9.962,0,0,0-5.8-1.6q-1.932,0-2.352.042v-1.344q.42.042,2.352.042a9.491,9.491,0,0,0,5.46-1.512,5.077,5.077,0,0,0,2.226-4.494,5.322,5.322,0,0,0-2.079-4.41,7.991,7.991,0,0,0-5.1-1.638,9.068,9.068,0,0,0-4.221.924,11.514,11.514,0,0,0-3.423,2.856l-1.05-.84a10.551,10.551,0,0,1,8.694-4.2,9.514,9.514,0,0,1,6.006,1.953,6.405,6.405,0,0,1,2.52,5.355,5.772,5.772,0,0,1-1.89,4.641,8.431,8.431,0,0,1-4.074,1.995,7.674,7.674,0,0,1,2.688.819,7,7,0,0,1,2.541,2.352,6.628,6.628,0,0,1,1.155,3.885,7.483,7.483,0,0,1-2.373,5.712A9.229,9.229,0,0,1,84.462.5Z" transform="translate(688 4645)"/>
    <g id="Group_1427" data-name="Group 1427" transform="translate(407 4495.566)">
      <path id="Path_2765" data-name="Path 2765" class="cls-2" d="M5.388,29.175a4.588,4.588,0,1,0,0-9.175A4.529,4.529,0,0,0,.8,24.588,4.716,4.716,0,0,0,5.388,29.175Z" transform="translate(1.494 -20)"/>
      <path id="Path_2766" data-name="Path 2766" class="cls-2" d="M14.05,27.414A3.92,3.92,0,0,0,10.036,23.4H4.014A3.92,3.92,0,0,0,0,27.414V42.037H2.581V60.1H6.308V42.037h1.72V60.1h3.441V42.037H14.05Z" transform="translate(0 -13.651)"/>
    </g>
    <g id="Group_1437" data-name="Group 1437" transform="translate(688 4495.566)">
      <path id="Path_2765-2" data-name="Path 2765" class="cls-2" d="M5.388,29.175a4.588,4.588,0,1,0,0-9.175A4.529,4.529,0,0,0,.8,24.588,4.716,4.716,0,0,0,5.388,29.175Z" transform="translate(1.494 -20)"/>
      <path id="Path_2766-2" data-name="Path 2766" class="cls-2" d="M14.05,27.414A3.92,3.92,0,0,0,10.036,23.4H4.014A3.92,3.92,0,0,0,0,27.414V42.037H2.581V60.1H6.308V42.037h1.72V60.1h3.441V42.037H14.05Z" transform="translate(0 -13.651)"/>
    </g>
    <g id="Group_1447" data-name="Group 1447" transform="translate(969 4495.566)">
      <path id="Path_2765-3" data-name="Path 2765" class="cls-2" d="M5.388,29.175a4.588,4.588,0,1,0,0-9.175A4.529,4.529,0,0,0,.8,24.588,4.716,4.716,0,0,0,5.388,29.175Z" transform="translate(1.494 -20)"/>
      <path id="Path_2766-3" data-name="Path 2766" class="cls-2" d="M14.05,27.414A3.92,3.92,0,0,0,10.036,23.4H4.014A3.92,3.92,0,0,0,0,27.414V42.037H2.581V60.1H6.308V42.037h1.72V60.1h3.441V42.037H14.05Z" transform="translate(0 -13.651)"/>
    </g>
    <g id="Group_1457" data-name="Group 1457" transform="translate(407 4662.566)">
      <path id="Path_2765-4" data-name="Path 2765" class="cls-2" d="M5.388,29.175a4.588,4.588,0,1,0,0-9.175A4.529,4.529,0,0,0,.8,24.588,4.716,4.716,0,0,0,5.388,29.175Z" transform="translate(1.494 -20)"/>
      <path id="Path_2766-4" data-name="Path 2766" class="cls-2" d="M14.05,27.414A3.92,3.92,0,0,0,10.036,23.4H4.014A3.92,3.92,0,0,0,0,27.414V42.037H2.581V60.1H6.308V42.037h1.72V60.1h3.441V42.037H14.05Z" transform="translate(0 -13.651)"/>
    </g>
    <g id="Group_1477" data-name="Group 1477" transform="translate(688 4662.566)">
      <path id="Path_2765-5" data-name="Path 2765" class="cls-2" d="M5.388,29.175a4.588,4.588,0,1,0,0-9.175A4.529,4.529,0,0,0,.8,24.588,4.716,4.716,0,0,0,5.388,29.175Z" transform="translate(1.494 -20)"/>
      <path id="Path_2766-5" data-name="Path 2766" class="cls-2" d="M14.05,27.414A3.92,3.92,0,0,0,10.036,23.4H4.014A3.92,3.92,0,0,0,0,27.414V42.037H2.581V60.1H6.308V42.037h1.72V60.1h3.441V42.037H14.05Z" transform="translate(0 -13.651)"/>
    </g>
    <g id="Group_1428" data-name="Group 1428" transform="translate(429.365 4495.566)">
      <path id="Path_2767" data-name="Path 2767" class="cls-2" d="M13.188,29.175A4.588,4.588,0,1,0,8.6,24.588,4.716,4.716,0,0,0,13.188,29.175Z" transform="translate(-6.306 -20)"/>
      <path id="Path_2768" data-name="Path 2768" class="cls-2" d="M21.85,27.414A3.92,3.92,0,0,0,17.836,23.4H11.814A3.92,3.92,0,0,0,7.8,27.414V42.037h2.581V60.1h3.727V42.037h1.72V60.1h3.727V42.037h2.581V27.414Z" transform="translate(-7.8 -13.651)"/>
    </g>
    <g id="Group_1438" data-name="Group 1438" transform="translate(710.365 4495.566)">
      <path id="Path_2767-2" data-name="Path 2767" class="cls-2" d="M13.188,29.175A4.588,4.588,0,1,0,8.6,24.588,4.716,4.716,0,0,0,13.188,29.175Z" transform="translate(-6.306 -20)"/>
      <path id="Path_2768-2" data-name="Path 2768" class="cls-2" d="M21.85,27.414A3.92,3.92,0,0,0,17.836,23.4H11.814A3.92,3.92,0,0,0,7.8,27.414V42.037h2.581V60.1h3.727V42.037h1.72V60.1h3.727V42.037h2.581V27.414Z" transform="translate(-7.8 -13.651)"/>
    </g>
    <g id="Group_1448" data-name="Group 1448" transform="translate(991.365 4495.566)">
      <path id="Path_2767-3" data-name="Path 2767" class="cls-2" d="M13.188,29.175A4.588,4.588,0,1,0,8.6,24.588,4.716,4.716,0,0,0,13.188,29.175Z" transform="translate(-6.306 -20)"/>
      <path id="Path_2768-3" data-name="Path 2768" class="cls-2" d="M21.85,27.414A3.92,3.92,0,0,0,17.836,23.4H11.814A3.92,3.92,0,0,0,7.8,27.414V42.037h2.581V60.1h3.727V42.037h1.72V60.1h3.727V42.037h2.581V27.414Z" transform="translate(-7.8 -13.651)"/>
    </g>
    <g id="Group_1458" data-name="Group 1458" transform="translate(429.365 4662.566)">
      <path id="Path_2767-4" data-name="Path 2767" class="cls-2" d="M13.188,29.175A4.588,4.588,0,1,0,8.6,24.588,4.716,4.716,0,0,0,13.188,29.175Z" transform="translate(-6.306 -20)"/>
      <path id="Path_2768-4" data-name="Path 2768" class="cls-2" d="M21.85,27.414A3.92,3.92,0,0,0,17.836,23.4H11.814A3.92,3.92,0,0,0,7.8,27.414V42.037h2.581V60.1h3.727V42.037h1.72V60.1h3.727V42.037h2.581V27.414Z" transform="translate(-7.8 -13.651)"/>
    </g>
    <g id="Group_1478" data-name="Group 1478" transform="translate(710.365 4662.566)">
      <path id="Path_2767-5" data-name="Path 2767" class="cls-2" d="M13.188,29.175A4.588,4.588,0,1,0,8.6,24.588,4.716,4.716,0,0,0,13.188,29.175Z" transform="translate(-6.306 -20)"/>
      <path id="Path_2768-5" data-name="Path 2768" class="cls-2" d="M21.85,27.414A3.92,3.92,0,0,0,17.836,23.4H11.814A3.92,3.92,0,0,0,7.8,27.414V42.037h2.581V60.1h3.727V42.037h1.72V60.1h3.727V42.037h2.581V27.414Z" transform="translate(-7.8 -13.651)"/>
    </g>
    <g id="Group_1429" data-name="Group 1429" transform="translate(451.729 4495.566)">
      <path id="Path_2769" data-name="Path 2769" class="cls-3" d="M20.988,29.175A4.588,4.588,0,1,0,16.4,24.588,4.529,4.529,0,0,0,20.988,29.175Z" transform="translate(-14.106 -20)"/>
      <path id="Path_2770" data-name="Path 2770" class="cls-3" d="M29.65,27.414A3.92,3.92,0,0,0,25.636,23.4H19.614A3.92,3.92,0,0,0,15.6,27.414V42.037h2.581V60.1h3.727V42.037h1.72V60.1h3.727V42.037h2.581V27.414Z" transform="translate(-15.6 -13.651)"/>
    </g>
    <g id="Group_1439" data-name="Group 1439" transform="translate(732.729 4495.566)">
      <path id="Path_2769-2" data-name="Path 2769" class="cls-2" d="M20.988,29.175A4.588,4.588,0,1,0,16.4,24.588,4.529,4.529,0,0,0,20.988,29.175Z" transform="translate(-14.106 -20)"/>
      <path id="Path_2770-2" data-name="Path 2770" class="cls-2" d="M29.65,27.414A3.92,3.92,0,0,0,25.636,23.4H19.614A3.92,3.92,0,0,0,15.6,27.414V42.037h2.581V60.1h3.727V42.037h1.72V60.1h3.727V42.037h2.581V27.414Z" transform="translate(-15.6 -13.651)"/>
    </g>
    <g id="Group_1449" data-name="Group 1449" transform="translate(1013.729 4495.566)">
      <path id="Path_2769-3" data-name="Path 2769" class="cls-2" d="M20.988,29.175A4.588,4.588,0,1,0,16.4,24.588,4.529,4.529,0,0,0,20.988,29.175Z" transform="translate(-14.106 -20)"/>
      <path id="Path_2770-3" data-name="Path 2770" class="cls-2" d="M29.65,27.414A3.92,3.92,0,0,0,25.636,23.4H19.614A3.92,3.92,0,0,0,15.6,27.414V42.037h2.581V60.1h3.727V42.037h1.72V60.1h3.727V42.037h2.581V27.414Z" transform="translate(-15.6 -13.651)"/>
    </g>
    <g id="Group_1459" data-name="Group 1459" transform="translate(451.729 4662.566)">
      <path id="Path_2769-4" data-name="Path 2769" class="cls-2" d="M20.988,29.175A4.588,4.588,0,1,0,16.4,24.588,4.529,4.529,0,0,0,20.988,29.175Z" transform="translate(-14.106 -20)"/>
      <path id="Path_2770-4" data-name="Path 2770" class="cls-2" d="M29.65,27.414A3.92,3.92,0,0,0,25.636,23.4H19.614A3.92,3.92,0,0,0,15.6,27.414V42.037h2.581V60.1h3.727V42.037h1.72V60.1h3.727V42.037h2.581V27.414Z" transform="translate(-15.6 -13.651)"/>
    </g>
    <g id="Group_1479" data-name="Group 1479" transform="translate(732.729 4662.566)">
      <path id="Path_2769-5" data-name="Path 2769" class="cls-2" d="M20.988,29.175A4.588,4.588,0,1,0,16.4,24.588,4.529,4.529,0,0,0,20.988,29.175Z" transform="translate(-14.106 -20)"/>
      <path id="Path_2770-5" data-name="Path 2770" class="cls-2" d="M29.65,27.414A3.92,3.92,0,0,0,25.636,23.4H19.614A3.92,3.92,0,0,0,15.6,27.414V42.037h2.581V60.1h3.727V42.037h1.72V60.1h3.727V42.037h2.581V27.414Z" transform="translate(-15.6 -13.651)"/>
    </g>
    <g id="Group_1430" data-name="Group 1430" transform="translate(473.808 4495.566)">
      <path id="Path_2771" data-name="Path 2771" class="cls-3" d="M28.788,29.175A4.588,4.588,0,1,0,24.2,24.588,4.529,4.529,0,0,0,28.788,29.175Z" transform="translate(-21.619 -20)"/>
      <path id="Path_2772" data-name="Path 2772" class="cls-3" d="M37.35,27.414A3.92,3.92,0,0,0,33.336,23.4H27.314A3.92,3.92,0,0,0,23.3,27.414V42.037h2.581V60.1h3.727V42.037h1.72V60.1h3.727V42.037h2.581V27.414Z" transform="translate(-23.3 -13.651)"/>
    </g>
    <g id="Group_1440" data-name="Group 1440" transform="translate(754.808 4495.566)">
      <path id="Path_2771-2" data-name="Path 2771" class="cls-3" d="M28.788,29.175A4.588,4.588,0,1,0,24.2,24.588,4.529,4.529,0,0,0,28.788,29.175Z" transform="translate(-21.619 -20)"/>
      <path id="Path_2772-2" data-name="Path 2772" class="cls-3" d="M37.35,27.414A3.92,3.92,0,0,0,33.336,23.4H27.314A3.92,3.92,0,0,0,23.3,27.414V42.037h2.581V60.1h3.727V42.037h1.72V60.1h3.727V42.037h2.581V27.414Z" transform="translate(-23.3 -13.651)"/>
    </g>
    <g id="Group_1450" data-name="Group 1450" transform="translate(1035.808 4495.566)">
      <path id="Path_2771-3" data-name="Path 2771" class="cls-2" d="M28.788,29.175A4.588,4.588,0,1,0,24.2,24.588,4.529,4.529,0,0,0,28.788,29.175Z" transform="translate(-21.619 -20)"/>
      <path id="Path_2772-3" data-name="Path 2772" class="cls-2" d="M37.35,27.414A3.92,3.92,0,0,0,33.336,23.4H27.314A3.92,3.92,0,0,0,23.3,27.414V42.037h2.581V60.1h3.727V42.037h1.72V60.1h3.727V42.037h2.581V27.414Z" transform="translate(-23.3 -13.651)"/>
    </g>
    <g id="Group_1460" data-name="Group 1460" transform="translate(473.808 4662.566)">
      <path id="Path_2771-4" data-name="Path 2771" class="cls-2" d="M28.788,29.175A4.588,4.588,0,1,0,24.2,24.588,4.529,4.529,0,0,0,28.788,29.175Z" transform="translate(-21.619 -20)"/>
      <path id="Path_2772-4" data-name="Path 2772" class="cls-2" d="M37.35,27.414A3.92,3.92,0,0,0,33.336,23.4H27.314A3.92,3.92,0,0,0,23.3,27.414V42.037h2.581V60.1h3.727V42.037h1.72V60.1h3.727V42.037h2.581V27.414Z" transform="translate(-23.3 -13.651)"/>
    </g>
    <g id="Group_1480" data-name="Group 1480" transform="translate(754.808 4662.566)">
      <path id="Path_2771-5" data-name="Path 2771" class="cls-2" d="M28.788,29.175A4.588,4.588,0,1,0,24.2,24.588,4.529,4.529,0,0,0,28.788,29.175Z" transform="translate(-21.619 -20)"/>
      <path id="Path_2772-5" data-name="Path 2772" class="cls-2" d="M37.35,27.414A3.92,3.92,0,0,0,33.336,23.4H27.314A3.92,3.92,0,0,0,23.3,27.414V42.037h2.581V60.1h3.727V42.037h1.72V60.1h3.727V42.037h2.581V27.414Z" transform="translate(-23.3 -13.651)"/>
    </g>
    <g id="Group_1431" data-name="Group 1431" transform="translate(496.173 4495.566)">
      <path id="Path_2773" data-name="Path 2773" class="cls-3" d="M36.588,29.175a4.588,4.588,0,1,0,0-9.175A4.716,4.716,0,0,0,32,24.588,4.716,4.716,0,0,0,36.588,29.175Z" transform="translate(-29.419 -20)"/>
      <path id="Path_2774" data-name="Path 2774" class="cls-3" d="M45.15,27.414A3.92,3.92,0,0,0,41.136,23.4H35.114A3.92,3.92,0,0,0,31.1,27.414V42.037h2.581V60.1h3.727V42.037h1.72V60.1h3.727V42.037H45.15Z" transform="translate(-31.1 -13.651)"/>
    </g>
    <g id="Group_1441" data-name="Group 1441" transform="translate(777.174 4495.566)">
      <path id="Path_2773-2" data-name="Path 2773" class="cls-3" d="M36.588,29.175a4.588,4.588,0,1,0,0-9.175A4.716,4.716,0,0,0,32,24.588,4.716,4.716,0,0,0,36.588,29.175Z" transform="translate(-29.419 -20)"/>
      <path id="Path_2774-2" data-name="Path 2774" class="cls-3" d="M45.15,27.414A3.92,3.92,0,0,0,41.136,23.4H35.114A3.92,3.92,0,0,0,31.1,27.414V42.037h2.581V60.1h3.727V42.037h1.72V60.1h3.727V42.037H45.15Z" transform="translate(-31.1 -13.651)"/>
    </g>
    <g id="Group_1451" data-name="Group 1451" transform="translate(1058.174 4495.566)">
      <path id="Path_2773-3" data-name="Path 2773" class="cls-2" d="M36.588,29.175a4.588,4.588,0,1,0,0-9.175A4.716,4.716,0,0,0,32,24.588,4.716,4.716,0,0,0,36.588,29.175Z" transform="translate(-29.419 -20)"/>
      <path id="Path_2774-3" data-name="Path 2774" class="cls-2" d="M45.15,27.414A3.92,3.92,0,0,0,41.136,23.4H35.114A3.92,3.92,0,0,0,31.1,27.414V42.037h2.581V60.1h3.727V42.037h1.72V60.1h3.727V42.037H45.15Z" transform="translate(-31.1 -13.651)"/>
    </g>
    <g id="Group_1461" data-name="Group 1461" transform="translate(496.174 4662.566)">
      <path id="Path_2773-4" data-name="Path 2773" class="cls-2" d="M36.588,29.175a4.588,4.588,0,1,0,0-9.175A4.716,4.716,0,0,0,32,24.588,4.716,4.716,0,0,0,36.588,29.175Z" transform="translate(-29.419 -20)"/>
      <path id="Path_2774-4" data-name="Path 2774" class="cls-2" d="M45.15,27.414A3.92,3.92,0,0,0,41.136,23.4H35.114A3.92,3.92,0,0,0,31.1,27.414V42.037h2.581V60.1h3.727V42.037h1.72V60.1h3.727V42.037H45.15Z" transform="translate(-31.1 -13.651)"/>
    </g>
    <g id="Group_1481" data-name="Group 1481" transform="translate(777.174 4662.566)">
      <path id="Path_2773-5" data-name="Path 2773" class="cls-2" d="M36.588,29.175a4.588,4.588,0,1,0,0-9.175A4.716,4.716,0,0,0,32,24.588,4.716,4.716,0,0,0,36.588,29.175Z" transform="translate(-29.419 -20)"/>
      <path id="Path_2774-5" data-name="Path 2774" class="cls-2" d="M45.15,27.414A3.92,3.92,0,0,0,41.136,23.4H35.114A3.92,3.92,0,0,0,31.1,27.414V42.037h2.581V60.1h3.727V42.037h1.72V60.1h3.727V42.037H45.15Z" transform="translate(-31.1 -13.651)"/>
    </g>
    <g id="Group_1432" data-name="Group 1432" transform="translate(518.538 4495.566)">
      <path id="Path_2775" data-name="Path 2775" class="cls-3" d="M44.388,29.175A4.588,4.588,0,1,0,39.8,24.588,4.529,4.529,0,0,0,44.388,29.175Z" transform="translate(-37.219 -20)"/>
      <path id="Path_2776" data-name="Path 2776" class="cls-3" d="M52.95,27.414A3.92,3.92,0,0,0,48.936,23.4H42.914A3.92,3.92,0,0,0,38.9,27.414V42.037h2.581V60.1h3.727V42.037h1.72V60.1h3.727V42.037h2.581V27.414Z" transform="translate(-38.9 -13.651)"/>
    </g>
    <g id="Group_1442" data-name="Group 1442" transform="translate(799.538 4495.566)">
      <path id="Path_2775-2" data-name="Path 2775" class="cls-3" d="M44.388,29.175A4.588,4.588,0,1,0,39.8,24.588,4.529,4.529,0,0,0,44.388,29.175Z" transform="translate(-37.219 -20)"/>
      <path id="Path_2776-2" data-name="Path 2776" class="cls-3" d="M52.95,27.414A3.92,3.92,0,0,0,48.936,23.4H42.914A3.92,3.92,0,0,0,38.9,27.414V42.037h2.581V60.1h3.727V42.037h1.72V60.1h3.727V42.037h2.581V27.414Z" transform="translate(-38.9 -13.651)"/>
    </g>
    <g id="Group_1452" data-name="Group 1452" transform="translate(1080.538 4495.566)">
      <path id="Path_2775-3" data-name="Path 2775" class="cls-2" d="M44.388,29.175A4.588,4.588,0,1,0,39.8,24.588,4.529,4.529,0,0,0,44.388,29.175Z" transform="translate(-37.219 -20)"/>
      <path id="Path_2776-3" data-name="Path 2776" class="cls-2" d="M52.95,27.414A3.92,3.92,0,0,0,48.936,23.4H42.914A3.92,3.92,0,0,0,38.9,27.414V42.037h2.581V60.1h3.727V42.037h1.72V60.1h3.727V42.037h2.581V27.414Z" transform="translate(-38.9 -13.651)"/>
    </g>
    <g id="Group_1462" data-name="Group 1462" transform="translate(518.538 4662.566)">
      <path id="Path_2775-4" data-name="Path 2775" class="cls-2" d="M44.388,29.175A4.588,4.588,0,1,0,39.8,24.588,4.529,4.529,0,0,0,44.388,29.175Z" transform="translate(-37.219 -20)"/>
      <path id="Path_2776-4" data-name="Path 2776" class="cls-2" d="M52.95,27.414A3.92,3.92,0,0,0,48.936,23.4H42.914A3.92,3.92,0,0,0,38.9,27.414V42.037h2.581V60.1h3.727V42.037h1.72V60.1h3.727V42.037h2.581V27.414Z" transform="translate(-38.9 -13.651)"/>
    </g>
    <g id="Group_1482" data-name="Group 1482" transform="translate(799.538 4662.566)">
      <path id="Path_2775-5" data-name="Path 2775" class="cls-2" d="M44.388,29.175A4.588,4.588,0,1,0,39.8,24.588,4.529,4.529,0,0,0,44.388,29.175Z" transform="translate(-37.219 -20)"/>
      <path id="Path_2776-5" data-name="Path 2776" class="cls-2" d="M52.95,27.414A3.92,3.92,0,0,0,48.936,23.4H42.914A3.92,3.92,0,0,0,38.9,27.414V42.037h2.581V60.1h3.727V42.037h1.72V60.1h3.727V42.037h2.581V27.414Z" transform="translate(-38.9 -13.651)"/>
    </g>
    <g id="Group_1433" data-name="Group 1433" transform="translate(540.903 4495.566)">
      <path id="Path_2777" data-name="Path 2777" class="cls-3" d="M52.188,29.175A4.588,4.588,0,1,0,47.6,24.588,4.529,4.529,0,0,0,52.188,29.175Z" transform="translate(-45.019 -20)"/>
      <path id="Path_2778" data-name="Path 2778" class="cls-3" d="M60.75,27.414A3.92,3.92,0,0,0,56.736,23.4H50.714A3.92,3.92,0,0,0,46.7,27.414V42.037h2.581V60.1h3.727V42.037h1.72V60.1h3.727V42.037h2.581V27.414Z" transform="translate(-46.7 -13.651)"/>
    </g>
    <g id="Group_1443" data-name="Group 1443" transform="translate(821.903 4495.566)">
      <path id="Path_2777-2" data-name="Path 2777" class="cls-3" d="M52.188,29.175A4.588,4.588,0,1,0,47.6,24.588,4.529,4.529,0,0,0,52.188,29.175Z" transform="translate(-45.019 -20)"/>
      <path id="Path_2778-2" data-name="Path 2778" class="cls-3" d="M60.75,27.414A3.92,3.92,0,0,0,56.736,23.4H50.714A3.92,3.92,0,0,0,46.7,27.414V42.037h2.581V60.1h3.727V42.037h1.72V60.1h3.727V42.037h2.581V27.414Z" transform="translate(-46.7 -13.651)"/>
    </g>
    <g id="Group_1453" data-name="Group 1453" transform="translate(1102.903 4495.566)">
      <path id="Path_2777-3" data-name="Path 2777" class="cls-3" d="M52.188,29.175A4.588,4.588,0,1,0,47.6,24.588,4.529,4.529,0,0,0,52.188,29.175Z" transform="translate(-45.019 -20)"/>
      <path id="Path_2778-3" data-name="Path 2778" class="cls-3" d="M60.75,27.414A3.92,3.92,0,0,0,56.736,23.4H50.714A3.92,3.92,0,0,0,46.7,27.414V42.037h2.581V60.1h3.727V42.037h1.72V60.1h3.727V42.037h2.581V27.414Z" transform="translate(-46.7 -13.651)"/>
    </g>
    <g id="Group_1463" data-name="Group 1463" transform="translate(540.903 4662.566)">
      <path id="Path_2777-4" data-name="Path 2777" class="cls-2" d="M52.188,29.175A4.588,4.588,0,1,0,47.6,24.588,4.529,4.529,0,0,0,52.188,29.175Z" transform="translate(-45.019 -20)"/>
      <path id="Path_2778-4" data-name="Path 2778" class="cls-2" d="M60.75,27.414A3.92,3.92,0,0,0,56.736,23.4H50.714A3.92,3.92,0,0,0,46.7,27.414V42.037h2.581V60.1h3.727V42.037h1.72V60.1h3.727V42.037h2.581V27.414Z" transform="translate(-46.7 -13.651)"/>
    </g>
    <g id="Group_1483" data-name="Group 1483" transform="translate(821.903 4662.566)">
      <path id="Path_2777-5" data-name="Path 2777" class="cls-2" d="M52.188,29.175A4.588,4.588,0,1,0,47.6,24.588,4.529,4.529,0,0,0,52.188,29.175Z" transform="translate(-45.019 -20)"/>
      <path id="Path_2778-5" data-name="Path 2778" class="cls-2" d="M60.75,27.414A3.92,3.92,0,0,0,56.736,23.4H50.714A3.92,3.92,0,0,0,46.7,27.414V42.037h2.581V60.1h3.727V42.037h1.72V60.1h3.727V42.037h2.581V27.414Z" transform="translate(-46.7 -13.651)"/>
    </g>
    <g id="Group_1434" data-name="Group 1434" transform="translate(561.903 4495.566)">
      <path id="Path_2777-6" data-name="Path 2777" class="cls-3" d="M52.188,29.175A4.588,4.588,0,1,0,47.6,24.588,4.529,4.529,0,0,0,52.188,29.175Z" transform="translate(-45.019 -20)"/>
      <path id="Path_2778-6" data-name="Path 2778" class="cls-3" d="M60.75,27.414A3.92,3.92,0,0,0,56.736,23.4H50.714A3.92,3.92,0,0,0,46.7,27.414V42.037h2.581V60.1h3.727V42.037h1.72V60.1h3.727V42.037h2.581V27.414Z" transform="translate(-46.7 -13.651)"/>
    </g>
    <g id="Group_1444" data-name="Group 1444" transform="translate(842.903 4495.566)">
      <path id="Path_2777-7" data-name="Path 2777" class="cls-3" d="M52.188,29.175A4.588,4.588,0,1,0,47.6,24.588,4.529,4.529,0,0,0,52.188,29.175Z" transform="translate(-45.019 -20)"/>
      <path id="Path_2778-7" data-name="Path 2778" class="cls-3" d="M60.75,27.414A3.92,3.92,0,0,0,56.736,23.4H50.714A3.92,3.92,0,0,0,46.7,27.414V42.037h2.581V60.1h3.727V42.037h1.72V60.1h3.727V42.037h2.581V27.414Z" transform="translate(-46.7 -13.651)"/>
    </g>
    <g id="Group_1454" data-name="Group 1454" transform="translate(1123.903 4495.566)">
      <path id="Path_2777-8" data-name="Path 2777" class="cls-3" d="M52.188,29.175A4.588,4.588,0,1,0,47.6,24.588,4.529,4.529,0,0,0,52.188,29.175Z" transform="translate(-45.019 -20)"/>
      <path id="Path_2778-8" data-name="Path 2778" class="cls-3" d="M60.75,27.414A3.92,3.92,0,0,0,56.736,23.4H50.714A3.92,3.92,0,0,0,46.7,27.414V42.037h2.581V60.1h3.727V42.037h1.72V60.1h3.727V42.037h2.581V27.414Z" transform="translate(-46.7 -13.651)"/>
    </g>
    <g id="Group_1464" data-name="Group 1464" transform="translate(561.903 4662.566)">
      <path id="Path_2777-9" data-name="Path 2777" class="cls-3" d="M52.188,29.175A4.588,4.588,0,1,0,47.6,24.588,4.529,4.529,0,0,0,52.188,29.175Z" transform="translate(-45.019 -20)"/>
      <path id="Path_2778-9" data-name="Path 2778" class="cls-3" d="M60.75,27.414A3.92,3.92,0,0,0,56.736,23.4H50.714A3.92,3.92,0,0,0,46.7,27.414V42.037h2.581V60.1h3.727V42.037h1.72V60.1h3.727V42.037h2.581V27.414Z" transform="translate(-46.7 -13.651)"/>
    </g>
    <g id="Group_1484" data-name="Group 1484" transform="translate(842.903 4662.566)">
      <path id="Path_2777-10" data-name="Path 2777" class="cls-2" d="M52.188,29.175A4.588,4.588,0,1,0,47.6,24.588,4.529,4.529,0,0,0,52.188,29.175Z" transform="translate(-45.019 -20)"/>
      <path id="Path_2778-10" data-name="Path 2778" class="cls-2" d="M60.75,27.414A3.92,3.92,0,0,0,56.736,23.4H50.714A3.92,3.92,0,0,0,46.7,27.414V42.037h2.581V60.1h3.727V42.037h1.72V60.1h3.727V42.037h2.581V27.414Z" transform="translate(-46.7 -13.651)"/>
    </g>
    <g id="Group_1435" data-name="Group 1435" transform="translate(584.903 4495.566)">
      <path id="Path_2777-11" data-name="Path 2777" class="cls-3" d="M52.188,29.175A4.588,4.588,0,1,0,47.6,24.588,4.529,4.529,0,0,0,52.188,29.175Z" transform="translate(-45.019 -20)"/>
      <path id="Path_2778-11" data-name="Path 2778" class="cls-3" d="M60.75,27.414A3.92,3.92,0,0,0,56.736,23.4H50.714A3.92,3.92,0,0,0,46.7,27.414V42.037h2.581V60.1h3.727V42.037h1.72V60.1h3.727V42.037h2.581V27.414Z" transform="translate(-46.7 -13.651)"/>
    </g>
    <g id="Group_1445" data-name="Group 1445" transform="translate(865.903 4495.566)">
      <path id="Path_2777-12" data-name="Path 2777" class="cls-3" d="M52.188,29.175A4.588,4.588,0,1,0,47.6,24.588,4.529,4.529,0,0,0,52.188,29.175Z" transform="translate(-45.019 -20)"/>
      <path id="Path_2778-12" data-name="Path 2778" class="cls-3" d="M60.75,27.414A3.92,3.92,0,0,0,56.736,23.4H50.714A3.92,3.92,0,0,0,46.7,27.414V42.037h2.581V60.1h3.727V42.037h1.72V60.1h3.727V42.037h2.581V27.414Z" transform="translate(-46.7 -13.651)"/>
    </g>
    <g id="Group_1455" data-name="Group 1455" transform="translate(1146.903 4495.566)">
      <path id="Path_2777-13" data-name="Path 2777" class="cls-3" d="M52.188,29.175A4.588,4.588,0,1,0,47.6,24.588,4.529,4.529,0,0,0,52.188,29.175Z" transform="translate(-45.019 -20)"/>
      <path id="Path_2778-13" data-name="Path 2778" class="cls-3" d="M60.75,27.414A3.92,3.92,0,0,0,56.736,23.4H50.714A3.92,3.92,0,0,0,46.7,27.414V42.037h2.581V60.1h3.727V42.037h1.72V60.1h3.727V42.037h2.581V27.414Z" transform="translate(-46.7 -13.651)"/>
    </g>
    <g id="Group_1473" data-name="Group 1473" transform="translate(581.903 4662.566)">
      <path id="Path_2777-14" data-name="Path 2777" class="cls-3" d="M52.188,29.175A4.588,4.588,0,1,0,47.6,24.588,4.529,4.529,0,0,0,52.188,29.175Z" transform="translate(-45.019 -20)"/>
      <path id="Path_2778-14" data-name="Path 2778" class="cls-3" d="M60.75,27.414A3.92,3.92,0,0,0,56.736,23.4H50.714A3.92,3.92,0,0,0,46.7,27.414V42.037h2.581V60.1h3.727V42.037h1.72V60.1h3.727V42.037h2.581V27.414Z" transform="translate(-46.7 -13.651)"/>
    </g>
    <g id="Group_1485" data-name="Group 1485" transform="translate(863.903 4662.566)">
      <path id="Path_2777-15" data-name="Path 2777" class="cls-2" d="M52.188,29.175A4.588,4.588,0,1,0,47.6,24.588,4.529,4.529,0,0,0,52.188,29.175Z" transform="translate(-45.019 -20)"/>
      <path id="Path_2778-15" data-name="Path 2778" class="cls-2" d="M60.75,27.414A3.92,3.92,0,0,0,56.736,23.4H50.714A3.92,3.92,0,0,0,46.7,27.414V42.037h2.581V60.1h3.727V42.037h1.72V60.1h3.727V42.037h2.581V27.414Z" transform="translate(-46.7 -13.651)"/>
    </g>
    <g id="Group_1436" data-name="Group 1436" transform="translate(605.903 4495.566)">
      <path id="Path_2777-16" data-name="Path 2777" class="cls-3" d="M52.188,29.175A4.588,4.588,0,1,0,47.6,24.588,4.529,4.529,0,0,0,52.188,29.175Z" transform="translate(-45.019 -20)"/>
      <path id="Path_2778-16" data-name="Path 2778" class="cls-3" d="M60.75,27.414A3.92,3.92,0,0,0,56.736,23.4H50.714A3.92,3.92,0,0,0,46.7,27.414V42.037h2.581V60.1h3.727V42.037h1.72V60.1h3.727V42.037h2.581V27.414Z" transform="translate(-46.7 -13.651)"/>
    </g>
    <g id="Group_1446" data-name="Group 1446" transform="translate(886.903 4495.566)">
      <path id="Path_2777-17" data-name="Path 2777" class="cls-3" d="M52.188,29.175A4.588,4.588,0,1,0,47.6,24.588,4.529,4.529,0,0,0,52.188,29.175Z" transform="translate(-45.019 -20)"/>
      <path id="Path_2778-17" data-name="Path 2778" class="cls-3" d="M60.75,27.414A3.92,3.92,0,0,0,56.736,23.4H50.714A3.92,3.92,0,0,0,46.7,27.414V42.037h2.581V60.1h3.727V42.037h1.72V60.1h3.727V42.037h2.581V27.414Z" transform="translate(-46.7 -13.651)"/>
    </g>
    <g id="Group_1456" data-name="Group 1456" transform="translate(1167.903 4495.566)">
      <path id="Path_2777-18" data-name="Path 2777" class="cls-3" d="M52.188,29.175A4.588,4.588,0,1,0,47.6,24.588,4.529,4.529,0,0,0,52.188,29.175Z" transform="translate(-45.019 -20)"/>
      <path id="Path_2778-18" data-name="Path 2778" class="cls-3" d="M60.75,27.414A3.92,3.92,0,0,0,56.736,23.4H50.714A3.92,3.92,0,0,0,46.7,27.414V42.037h2.581V60.1h3.727V42.037h1.72V60.1h3.727V42.037h2.581V27.414Z" transform="translate(-46.7 -13.651)"/>
    </g>
    <g id="Group_1474" data-name="Group 1474" transform="translate(602.903 4662.566)">
      <path id="Path_2777-19" data-name="Path 2777" class="cls-3" d="M52.188,29.175A4.588,4.588,0,1,0,47.6,24.588,4.529,4.529,0,0,0,52.188,29.175Z" transform="translate(-45.019 -20)"/>
      <path id="Path_2778-19" data-name="Path 2778" class="cls-3" d="M60.75,27.414A3.92,3.92,0,0,0,56.736,23.4H50.714A3.92,3.92,0,0,0,46.7,27.414V42.037h2.581V60.1h3.727V42.037h1.72V60.1h3.727V42.037h2.581V27.414Z" transform="translate(-46.7 -13.651)"/>
    </g>
    <g id="Group_1486" data-name="Group 1486" transform="translate(884.903 4662.566)">
      <path id="Path_2777-20" data-name="Path 2777" class="cls-2" d="M52.188,29.175A4.588,4.588,0,1,0,47.6,24.588,4.529,4.529,0,0,0,52.188,29.175Z" transform="translate(-45.019 -20)"/>
      <path id="Path_2778-20" data-name="Path 2778" class="cls-2" d="M60.75,27.414A3.92,3.92,0,0,0,56.736,23.4H50.714A3.92,3.92,0,0,0,46.7,27.414V42.037h2.581V60.1h3.727V42.037h1.72V60.1h3.727V42.037h2.581V27.414Z" transform="translate(-46.7 -13.651)"/>
    </g>
  </g>
</svg>
