<svg xmlns="http://www.w3.org/2000/svg" viewBox="1967 301.566 213.24 113.57">
  <defs>
    <style>
      .cls-1 {
        fill: #2a2e3d;
      }

      .cls-2 {
        fill: #352c6d;
      }

      .cls-3 {
        fill: #cccbdb;
      }
    </style>
  </defs>
  <g id="CALCULATIONS_BASED_ON_THE_SOFT_CAP_2021" data-name="CALCULATIONS BASED ON THE SOFT CAP 2021" transform="translate(998 -4148)">
    <path id="Path_3094" data-name="Path 3094" class="cls-1" d="M5.22,0H3.56V-11.14L1.42-8.88.42-9.9l3.34-3.44H5.22ZM12.1.24A6.267,6.267,0,0,1,9.26-.38a4.9,4.9,0,0,1-1.9-1.58L8.34-3A4.3,4.3,0,0,0,9.92-1.72a4.8,4.8,0,0,0,2.14.48,3.549,3.549,0,0,0,2.29-.67,2.225,2.225,0,0,0,.83-1.83,1.977,1.977,0,0,0-.89-1.78,4.412,4.412,0,0,0-2.43-.58q-1.18,0-1.38.02V-7.6q.22.02,1.38.02a4.109,4.109,0,0,0,2.23-.55,1.823,1.823,0,0,0,.87-1.65,1.946,1.946,0,0,0-.85-1.67,3.56,3.56,0,0,0-2.13-.61,4.653,4.653,0,0,0-3.52,1.62l-.92-1.04a5.608,5.608,0,0,1,4.56-2.06,5.28,5.28,0,0,1,3.25.95,3.081,3.081,0,0,1,1.27,2.61,2.7,2.7,0,0,1-.88,2.11,4,4,0,0,1-2,.99,3.675,3.675,0,0,1,2.09.96,2.916,2.916,0,0,1,.99,2.32A3.443,3.443,0,0,1,15.54-.83,5.193,5.193,0,0,1,12.1.24ZM28.16,0H19V-1.32q2.08-1.64,3.23-2.61t2.22-2.06a8.566,8.566,0,0,0,1.51-1.94,3.651,3.651,0,0,0,.44-1.69,2.14,2.14,0,0,0-.82-1.82,3.156,3.156,0,0,0-1.96-.62A4.353,4.353,0,0,0,20-10.38l-1.02-1.06a5.02,5.02,0,0,1,1.99-1.55,6.417,6.417,0,0,1,2.65-.55,5.026,5.026,0,0,1,3.15,1.02,3.439,3.439,0,0,1,1.33,2.9,5.694,5.694,0,0,1-1.6,3.71,36.332,36.332,0,0,1-4.88,4.43h6.54ZM41,.24a4.825,4.825,0,0,1-2.36-.56,4.23,4.23,0,0,1-1.61-1.53,7.551,7.551,0,0,1-.88-2.18,11.18,11.18,0,0,1-.29-2.61,9.778,9.778,0,0,1,.56-3.4,5.614,5.614,0,0,1,1.81-2.51,4.76,4.76,0,0,1,3.05-.99,4.676,4.676,0,0,1,3.7,1.6l-.84,1.24a3.616,3.616,0,0,0-2.86-1.36,3.049,3.049,0,0,0-2.11.78,4.471,4.471,0,0,0-1.26,1.93,7.836,7.836,0,0,0-.39,2.53,5.063,5.063,0,0,0,.02.52,4.593,4.593,0,0,1,1.55-1.44,4.215,4.215,0,0,1,2.23-.64,4.494,4.494,0,0,1,3.13,1.11,4.025,4.025,0,0,1,1.23,3.15A4.189,4.189,0,0,1,44.4-1.03,4.616,4.616,0,0,1,41,.24Zm-.06-1.48a2.923,2.923,0,0,0,2.25-.87A2.792,2.792,0,0,0,44-4.06a2.669,2.669,0,0,0-.86-2.14,3.283,3.283,0,0,0-2.22-.74,3.553,3.553,0,0,0-1.88.55,4.4,4.4,0,0,0-1.46,1.45,5.073,5.073,0,0,0,.96,2.59A2.8,2.8,0,0,0,40.94-1.24ZM51.88,0H50.22V-11.14L48.08-8.88l-1-1.02,3.34-3.44h1.46Zm11.8,0H54.52V-1.32q2.08-1.64,3.23-2.61t2.22-2.06a8.567,8.567,0,0,0,1.51-1.94,3.651,3.651,0,0,0,.44-1.69,2.14,2.14,0,0,0-.82-1.82,3.156,3.156,0,0,0-1.96-.62,4.353,4.353,0,0,0-3.62,1.68L54.5-11.44a5.02,5.02,0,0,1,1.99-1.55,6.417,6.417,0,0,1,2.65-.55,5.026,5.026,0,0,1,3.15,1.02,3.439,3.439,0,0,1,1.33,2.9,5.694,5.694,0,0,1-1.6,3.71,36.332,36.332,0,0,1-4.88,4.43h6.54Z" transform="translate(969 4560)"/>
    <path id="Path_3096" data-name="Path 3096" class="cls-1" d="M2.576,0H1.248V-10.672H5.536a3.244,3.244,0,0,1,2.448.928,3.167,3.167,0,0,1,.9,2.288,3.152,3.152,0,0,1-.9,2.288,3.25,3.25,0,0,1-2.44.928H2.576Zm2.8-5.424a2.127,2.127,0,0,0,1.536-.568A1.939,1.939,0,0,0,7.5-7.456,1.939,1.939,0,0,0,6.912-8.92a2.127,2.127,0,0,0-1.536-.568h-2.8v4.064ZM16.3,0H15.1V-.88A3.3,3.3,0,0,1,12.544.192,2.842,2.842,0,0,1,10.656-.5,2.32,2.32,0,0,1,9.84-2.368a2.3,2.3,0,0,1,.808-1.88,2.9,2.9,0,0,1,1.9-.664A3.2,3.2,0,0,1,15.1-3.856V-5.248a1.447,1.447,0,0,0-.544-1.2,2.2,2.2,0,0,0-1.408-.432,3.15,3.15,0,0,0-2.368,1.072l-.56-.832a4.108,4.108,0,0,1,3.088-1.28,3.444,3.444,0,0,1,2.16.64A2.326,2.326,0,0,1,16.3-5.312ZM12.976-.672a2.441,2.441,0,0,0,2.128-.96V-3.088a2.441,2.441,0,0,0-2.128-.96,1.994,1.994,0,0,0-1.368.472,1.555,1.555,0,0,0-.536,1.224,1.537,1.537,0,0,0,.536,1.208A1.994,1.994,0,0,0,12.976-.672Zm5.3,3.7.192-1.088a1.6,1.6,0,0,0,.656.128,1.243,1.243,0,0,0,.688-.176,1.348,1.348,0,0,0,.464-.64L20.784.08,17.552-7.728h1.3l2.576,6.336,2.56-6.336H25.3l-3.872,9.3a2.34,2.34,0,0,1-2.272,1.568A3.257,3.257,0,0,1,18.272,3.024ZM27.136-8.832a.781.781,0,0,1-.56-.232.76.76,0,0,1-.24-.568.786.786,0,0,1,.24-.576.768.768,0,0,1,.56-.24.786.786,0,0,1,.576.24.786.786,0,0,1,.24.576.76.76,0,0,1-.24.568A.8.8,0,0,1,27.136-8.832ZM27.744,0h-1.2V-7.728h1.2ZM36.56,0h-1.2V-5.056a1.8,1.8,0,0,0-.448-1.384,1.835,1.835,0,0,0-1.28-.408,2.647,2.647,0,0,0-1.3.352,2.921,2.921,0,0,0-.984.848V0h-1.2V-7.728h1.2v1.12a3.929,3.929,0,0,1,1.2-.92A3.318,3.318,0,0,1,34.1-7.92a2.192,2.192,0,0,1,2.464,2.5Zm5.5,3.136a5.387,5.387,0,0,1-1.744-.248,3.641,3.641,0,0,1-1.376-.9l.608-.9a3.086,3.086,0,0,0,2.512,1.056,2.738,2.738,0,0,0,1.776-.568,2.117,2.117,0,0,0,.7-1.752v-1.1a3.359,3.359,0,0,1-1.12.992A2.973,2.973,0,0,1,41.952.1a3.159,3.159,0,0,1-2.488-1.08,4.259,4.259,0,0,1-.952-2.92,4.29,4.29,0,0,1,.952-2.928A3.148,3.148,0,0,1,41.952-7.92a3.093,3.093,0,0,1,2.592,1.36V-7.728h1.2v7.5A3.023,3.023,0,0,1,44.7,2.344,4.234,4.234,0,0,1,42.064,3.136Zm.176-4.1a2.672,2.672,0,0,0,1.336-.368,2.593,2.593,0,0,0,.968-.9V-5.6a2.548,2.548,0,0,0-.96-.888,2.7,2.7,0,0,0-1.344-.36,2.215,2.215,0,0,0-1.816.816A3.265,3.265,0,0,0,39.76-3.9a3.246,3.246,0,0,0,.672,2.12A2.212,2.212,0,0,0,42.24-.96ZM59.912-.968a4.282,4.282,0,0,1-3.24,1.16,4.282,4.282,0,0,1-3.24-1.16A4.4,4.4,0,0,1,52.32-4.144v-6.528h1.328v6.5a3.309,3.309,0,0,0,.784,2.336,2.9,2.9,0,0,0,2.24.848,2.9,2.9,0,0,0,2.24-.848A3.309,3.309,0,0,0,59.7-4.176v-6.5h1.328V-4.16A4.422,4.422,0,0,1,59.912-.968ZM65.92.192A4.093,4.093,0,0,1,62.8-1.024l.624-.864a3.164,3.164,0,0,0,1.1.784,3.429,3.429,0,0,0,1.448.32,2.165,2.165,0,0,0,1.344-.368,1.154,1.154,0,0,0,.48-.96.9.9,0,0,0-.5-.808A3.966,3.966,0,0,0,66.1-3.368q-.7-.152-1.4-.352a2.751,2.751,0,0,1-1.2-.688,1.726,1.726,0,0,1-.5-1.288,1.976,1.976,0,0,1,.776-1.584,3.207,3.207,0,0,1,2.1-.64A3.878,3.878,0,0,1,68.752-6.8l-.56.832a2.836,2.836,0,0,0-2.3-.976A2.05,2.05,0,0,0,64.64-6.6a1.045,1.045,0,0,0-.464.872.805.805,0,0,0,.5.728,4.648,4.648,0,0,0,1.192.416q.7.152,1.4.36a2.676,2.676,0,0,1,1.2.728,1.878,1.878,0,0,1,.5,1.352,2.076,2.076,0,0,1-.8,1.68A3.44,3.44,0,0,1,65.92.192Zm8.48,0A3.791,3.791,0,0,1,71.568-.936a4.019,4.019,0,0,1-1.1-2.936,4.074,4.074,0,0,1,1.088-2.872,3.551,3.551,0,0,1,2.72-1.176,3.375,3.375,0,0,1,2.712,1.176,4.422,4.422,0,0,1,1,2.968v.3H71.728a2.923,2.923,0,0,0,.832,1.9A2.611,2.611,0,0,0,74.512-.8,3.176,3.176,0,0,0,76.9-1.776l.576.784A4.156,4.156,0,0,1,74.4.192Zm2.4-4.544a2.8,2.8,0,0,0-.672-1.784,2.293,2.293,0,0,0-1.872-.792,2.254,2.254,0,0,0-1.816.784,2.919,2.919,0,0,0-.712,1.792ZM81.12,0h-1.2V-7.728h1.2V-6.48A3.16,3.16,0,0,1,83.7-7.888v1.232a2.288,2.288,0,0,0-.48-.048,2.334,2.334,0,0,0-1.184.384,2.529,2.529,0,0,0-.912.848Zm6.528.192a4.093,4.093,0,0,1-3.12-1.216l.624-.864a3.164,3.164,0,0,0,1.1.784,3.428,3.428,0,0,0,1.448.32,2.165,2.165,0,0,0,1.344-.368,1.154,1.154,0,0,0,.48-.96.9.9,0,0,0-.5-.808,3.967,3.967,0,0,0-1.192-.448q-.7-.152-1.4-.352a2.751,2.751,0,0,1-1.2-.688,1.726,1.726,0,0,1-.5-1.288,1.976,1.976,0,0,1,.776-1.584,3.207,3.207,0,0,1,2.1-.64A3.878,3.878,0,0,1,90.48-6.8l-.56.832a2.836,2.836,0,0,0-2.3-.976,2.05,2.05,0,0,0-1.248.344,1.045,1.045,0,0,0-.464.872A.805.805,0,0,0,86.4-5a4.648,4.648,0,0,0,1.192.416q.7.152,1.4.36a2.676,2.676,0,0,1,1.2.728,1.878,1.878,0,0,1,.5,1.352,2.076,2.076,0,0,1-.8,1.68A3.44,3.44,0,0,1,87.648.192Z" transform="translate(1046 4560)"/>
    <path id="Path_3098" data-name="Path 3098" class="cls-1" d="M20.16,0H2.478V-1.176q3.36-2.772,5.208-4.389t4.305-3.969a35.714,35.714,0,0,0,3.7-3.99,19.483,19.483,0,0,0,2.142-3.591,8.865,8.865,0,0,0,.9-3.717,5.611,5.611,0,0,0-2.079-4.746,7.8,7.8,0,0,0-4.893-1.6,10.022,10.022,0,0,0-4.62,1.029,7.749,7.749,0,0,0-3.108,2.751l-1.092-.8A8.9,8.9,0,0,1,6.573-27.3,11.8,11.8,0,0,1,11.8-28.434a9.325,9.325,0,0,1,5.712,1.911,6.648,6.648,0,0,1,2.562,5.691A8.935,8.935,0,0,1,19.593-18,18.6,18.6,0,0,1,18.48-15.33a15.949,15.949,0,0,1-1.974,2.814q-1.344,1.6-2.373,2.667t-3,2.856Q9.156-5.208,7.98-4.221L4.452-1.26H20.16ZM41.6-.819A8.2,8.2,0,0,1,36.96.5,8.3,8.3,0,0,1,32.3-.819a9.013,9.013,0,0,1-3.129-3.507A19.485,19.485,0,0,1,27.51-8.967a23.066,23.066,0,0,1-.546-5.019,22.976,22.976,0,0,1,.546-5.04,19.17,19.17,0,0,1,1.659-4.6A9.052,9.052,0,0,1,32.3-27.111a8.3,8.3,0,0,1,4.662-1.323A8.2,8.2,0,0,1,41.6-27.111a9.111,9.111,0,0,1,3.108,3.486,19.17,19.17,0,0,1,1.659,4.6,22.976,22.976,0,0,1,.546,5.04,23.067,23.067,0,0,1-.546,5.019,19.485,19.485,0,0,1-1.659,4.641A9.072,9.072,0,0,1,41.6-.819ZM32.928-1.953a6.887,6.887,0,0,0,4.032,1.2,6.8,6.8,0,0,0,4.032-1.218,7.942,7.942,0,0,0,2.646-3.213A18.666,18.666,0,0,0,45-9.387a23.4,23.4,0,0,0,.441-4.6,23.4,23.4,0,0,0-.441-4.6,18.666,18.666,0,0,0-1.365-4.2,7.789,7.789,0,0,0-2.646-3.192,6.887,6.887,0,0,0-4.032-1.2,6.887,6.887,0,0,0-4.032,1.2,7.945,7.945,0,0,0-2.667,3.192,18.032,18.032,0,0,0-1.386,4.2,23.4,23.4,0,0,0-.441,4.6,23.4,23.4,0,0,0,.441,4.6,18.417,18.417,0,0,0,1.386,4.221A7.916,7.916,0,0,0,32.928-1.953ZM69.8,0H52.122V-1.176q3.36-2.772,5.208-4.389t4.305-3.969a35.715,35.715,0,0,0,3.7-3.99,19.483,19.483,0,0,0,2.142-3.591,8.865,8.865,0,0,0,.9-3.717A5.611,5.611,0,0,0,66.3-25.578a7.8,7.8,0,0,0-4.893-1.6,10.022,10.022,0,0,0-4.62,1.029,7.749,7.749,0,0,0-3.108,2.751l-1.092-.8A8.9,8.9,0,0,1,56.217-27.3a11.8,11.8,0,0,1,5.229-1.134,9.325,9.325,0,0,1,5.712,1.911,6.648,6.648,0,0,1,2.562,5.691A8.935,8.935,0,0,1,69.237-18a18.6,18.6,0,0,1-1.113,2.667,15.949,15.949,0,0,1-1.974,2.814q-1.344,1.6-2.373,2.667t-3,2.856Q58.8-5.208,57.624-4.221L54.1-1.26H69.8ZM81.816,0H80.472V-26.082l-4.41,4.83-.924-.966,5.418-5.8h1.26Z" transform="translate(969 4478)"/>
    <g id="Group_1447" data-name="Group 1447" transform="translate(969 4495.566)">
      <path id="Path_2765" data-name="Path 2765" class="cls-2" d="M5.388,29.175a4.588,4.588,0,1,0,0-9.175A4.529,4.529,0,0,0,.8,24.588,4.716,4.716,0,0,0,5.388,29.175Z" transform="translate(1.494 -20)"/>
      <path id="Path_2766" data-name="Path 2766" class="cls-2" d="M14.05,27.414A3.92,3.92,0,0,0,10.036,23.4H4.014A3.92,3.92,0,0,0,0,27.414V42.037H2.581V60.1H6.308V42.037h1.72V60.1h3.441V42.037H14.05Z" transform="translate(0 -13.651)"/>
    </g>
    <g id="Group_1448" data-name="Group 1448" transform="translate(991.365 4495.566)">
      <path id="Path_2767" data-name="Path 2767" class="cls-2" d="M13.188,29.175A4.588,4.588,0,1,0,8.6,24.588,4.716,4.716,0,0,0,13.188,29.175Z" transform="translate(-6.306 -20)"/>
      <path id="Path_2768" data-name="Path 2768" class="cls-2" d="M21.85,27.414A3.92,3.92,0,0,0,17.836,23.4H11.814A3.92,3.92,0,0,0,7.8,27.414V42.037h2.581V60.1h3.727V42.037h1.72V60.1h3.727V42.037h2.581V27.414Z" transform="translate(-7.8 -13.651)"/>
    </g>
    <g id="Group_1449" data-name="Group 1449" transform="translate(1013.729 4495.566)">
      <path id="Path_2769" data-name="Path 2769" class="cls-2" d="M20.988,29.175A4.588,4.588,0,1,0,16.4,24.588,4.529,4.529,0,0,0,20.988,29.175Z" transform="translate(-14.106 -20)"/>
      <path id="Path_2770" data-name="Path 2770" class="cls-2" d="M29.65,27.414A3.92,3.92,0,0,0,25.636,23.4H19.614A3.92,3.92,0,0,0,15.6,27.414V42.037h2.581V60.1h3.727V42.037h1.72V60.1h3.727V42.037h2.581V27.414Z" transform="translate(-15.6 -13.651)"/>
    </g>
    <g id="Group_1450" data-name="Group 1450" transform="translate(1035.808 4495.566)">
      <path id="Path_2771" data-name="Path 2771" class="cls-2" d="M28.788,29.175A4.588,4.588,0,1,0,24.2,24.588,4.529,4.529,0,0,0,28.788,29.175Z" transform="translate(-21.619 -20)"/>
      <path id="Path_2772" data-name="Path 2772" class="cls-2" d="M37.35,27.414A3.92,3.92,0,0,0,33.336,23.4H27.314A3.92,3.92,0,0,0,23.3,27.414V42.037h2.581V60.1h3.727V42.037h1.72V60.1h3.727V42.037h2.581V27.414Z" transform="translate(-23.3 -13.651)"/>
    </g>
    <g id="Group_1451" data-name="Group 1451" transform="translate(1058.174 4495.566)">
      <path id="Path_2773" data-name="Path 2773" class="cls-2" d="M36.588,29.175a4.588,4.588,0,1,0,0-9.175A4.716,4.716,0,0,0,32,24.588,4.716,4.716,0,0,0,36.588,29.175Z" transform="translate(-29.419 -20)"/>
      <path id="Path_2774" data-name="Path 2774" class="cls-2" d="M45.15,27.414A3.92,3.92,0,0,0,41.136,23.4H35.114A3.92,3.92,0,0,0,31.1,27.414V42.037h2.581V60.1h3.727V42.037h1.72V60.1h3.727V42.037H45.15Z" transform="translate(-31.1 -13.651)"/>
    </g>
    <g id="Group_1452" data-name="Group 1452" transform="translate(1080.538 4495.566)">
      <path id="Path_2775" data-name="Path 2775" class="cls-2" d="M44.388,29.175A4.588,4.588,0,1,0,39.8,24.588,4.529,4.529,0,0,0,44.388,29.175Z" transform="translate(-37.219 -20)"/>
      <path id="Path_2776" data-name="Path 2776" class="cls-2" d="M52.95,27.414A3.92,3.92,0,0,0,48.936,23.4H42.914A3.92,3.92,0,0,0,38.9,27.414V42.037h2.581V60.1h3.727V42.037h1.72V60.1h3.727V42.037h2.581V27.414Z" transform="translate(-38.9 -13.651)"/>
    </g>
    <g id="Group_1453" data-name="Group 1453" transform="translate(1102.903 4495.566)">
      <path id="Path_2777" data-name="Path 2777" class="cls-3" d="M52.188,29.175A4.588,4.588,0,1,0,47.6,24.588,4.529,4.529,0,0,0,52.188,29.175Z" transform="translate(-45.019 -20)"/>
      <path id="Path_2778" data-name="Path 2778" class="cls-3" d="M60.75,27.414A3.92,3.92,0,0,0,56.736,23.4H50.714A3.92,3.92,0,0,0,46.7,27.414V42.037h2.581V60.1h3.727V42.037h1.72V60.1h3.727V42.037h2.581V27.414Z" transform="translate(-46.7 -13.651)"/>
    </g>
    <g id="Group_1454" data-name="Group 1454" transform="translate(1123.903 4495.566)">
      <path id="Path_2777-2" data-name="Path 2777" class="cls-3" d="M52.188,29.175A4.588,4.588,0,1,0,47.6,24.588,4.529,4.529,0,0,0,52.188,29.175Z" transform="translate(-45.019 -20)"/>
      <path id="Path_2778-2" data-name="Path 2778" class="cls-3" d="M60.75,27.414A3.92,3.92,0,0,0,56.736,23.4H50.714A3.92,3.92,0,0,0,46.7,27.414V42.037h2.581V60.1h3.727V42.037h1.72V60.1h3.727V42.037h2.581V27.414Z" transform="translate(-46.7 -13.651)"/>
    </g>
    <g id="Group_1455" data-name="Group 1455" transform="translate(1146.903 4495.566)">
      <path id="Path_2777-3" data-name="Path 2777" class="cls-3" d="M52.188,29.175A4.588,4.588,0,1,0,47.6,24.588,4.529,4.529,0,0,0,52.188,29.175Z" transform="translate(-45.019 -20)"/>
      <path id="Path_2778-3" data-name="Path 2778" class="cls-3" d="M60.75,27.414A3.92,3.92,0,0,0,56.736,23.4H50.714A3.92,3.92,0,0,0,46.7,27.414V42.037h2.581V60.1h3.727V42.037h1.72V60.1h3.727V42.037h2.581V27.414Z" transform="translate(-46.7 -13.651)"/>
    </g>
    <g id="Group_1456" data-name="Group 1456" transform="translate(1167.903 4495.566)">
      <path id="Path_2777-4" data-name="Path 2777" class="cls-3" d="M52.188,29.175A4.588,4.588,0,1,0,47.6,24.588,4.529,4.529,0,0,0,52.188,29.175Z" transform="translate(-45.019 -20)"/>
      <path id="Path_2778-4" data-name="Path 2778" class="cls-3" d="M60.75,27.414A3.92,3.92,0,0,0,56.736,23.4H50.714A3.92,3.92,0,0,0,46.7,27.414V42.037h2.581V60.1h3.727V42.037h1.72V60.1h3.727V42.037h2.581V27.414Z" transform="translate(-46.7 -13.651)"/>
    </g>
  </g>
</svg>
