<svg xmlns="http://www.w3.org/2000/svg" viewBox="0 0 749 267">
  <defs>
    <style>
      .cls-1 {
        fill: #352c6d;
      }

      .cls-2 {
        fill: #fff;
      }

      .cls-3 {
        fill: #fafafa;
      }

      .cls-4 {
        fill: #e8e8ec;
      }

      .cls-5 {
        fill: #172143;
      }
    </style>
  </defs>
  <g id="INITIAL_COIN_OFFERING" data-name="INITIAL COIN OFFERING" transform="translate(-333 -434)">
    <rect id="Rectangle_511" data-name="Rectangle 511" class="cls-1" width="194" height="267" transform="translate(333 434)"/>
    <path id="Path_3958" data-name="Path 3958" class="cls-2" d="M1.008-.609V-2.242h6V-4.7H3.07v-7.633h9.922v1.617H5.039v1.359h7.523v1.617H5.039V-6.32h8.2V-4.7H8.977v2.461h6.016V-.609Zm16-4.336V-6.594h9.844l.078-1.969L18.8-8.211l-.43-1.609,8.594-.242q.031-.844.031-1.344H19.1v-1.633h9.844q0,3.7-.211,6.445h2.258v1.648ZM19.07.766v-4.8h1.969V-.883h8.109V.766ZM44.112-6.516a6.064,6.064,0,0,1-3.652-1,3.007,3.007,0,0,1-1.371-2.516,2.9,2.9,0,0,1,1.363-2.461,6.18,6.18,0,0,1,3.629-.961,6.259,6.259,0,0,1,3.66.957A2.9,2.9,0,0,1,49.1-10.031a3.016,3.016,0,0,1-1.387,2.5A5.937,5.937,0,0,1,44.112-6.516Zm-.031-5.344a4,4,0,0,0-2.207.516,1.528,1.528,0,0,0-.785,1.313,1.519,1.519,0,0,0,.8,1.3,4.015,4.015,0,0,0,2.2.516,4.015,4.015,0,0,0,2.2-.516,1.519,1.519,0,0,0,.8-1.3,1.517,1.517,0,0,0-.8-1.32A4.068,4.068,0,0,0,44.081-11.859ZM40.659,1.391V-3.6H37.12V-5.25H51.1V-3.6H47.565V1.391H45.62V-3.6H42.6V1.391Zm12.57-12.156v-1.57h3.633v-1.539h1.969v1.539h3.633v1.57ZM61.839-5.68V-7.266H64V-8.414H61.839V-10H64v-3.664h1.953v9.281H64v-1.3Zm-4.125.9a4.527,4.527,0,0,1-2.773-.742,2.36,2.36,0,0,1-.984-1.984,2.349,2.349,0,0,1,.992-1.973,4.545,4.545,0,0,1,2.781-.746,4.545,4.545,0,0,1,2.781.746A2.349,2.349,0,0,1,61.5-7.508,2.339,2.339,0,0,1,60.495-5.52,4.624,4.624,0,0,1,57.714-4.781Zm.016-3.875q-1.891,0-1.891,1.148,0,1.172,1.891,1.172,1.906,0,1.906-1.172Q59.635-8.656,57.729-8.656ZM61.057,1.391a7.462,7.462,0,0,1-3.773-.8,2.4,2.4,0,0,1-1.352-2.133A2.411,2.411,0,0,1,57.3-3.672a7.417,7.417,0,0,1,3.758-.8,7.3,7.3,0,0,1,3.738.813,2.418,2.418,0,0,1,1.363,2.125A2.41,2.41,0,0,1,64.815.586,7.339,7.339,0,0,1,61.057,1.391Zm0-4.258a5.753,5.753,0,0,0-2.34.367q-.785.367-.785.961,0,.617.8.973a5.942,5.942,0,0,0,2.324.355,5.914,5.914,0,0,0,2.309-.352q.793-.352.793-.977,0-.6-.781-.965A5.729,5.729,0,0,0,61.057-2.867Z" transform="translate(352 466)"/>
    <path id="Path_3959" data-name="Path 3959" class="cls-2" d="M13.406-6.047V1.406H11.438v-15.07h1.969V-7.7h2.32v1.648ZM.656-.945.43-2.594q2.336,0,4.211-.047V-5.25A4.026,4.026,0,0,1,2.3-6.523,3.511,3.511,0,0,1,1.422-8.93a3.454,3.454,0,0,1,1.227-2.75A4.487,4.487,0,0,1,5.68-12.734,4.245,4.245,0,0,1,8.637-11.68,3.532,3.532,0,0,1,9.8-8.93a3.527,3.527,0,0,1-.855,2.383,4.056,4.056,0,0,1-2.34,1.3v2.563q2.25-.039,4.172-.164L10.9-1.219Q6.039-.945.656-.945ZM5.617-11.086a2.139,2.139,0,0,0-1.594.609,2.11,2.11,0,0,0-.6,1.547A2.05,2.05,0,0,0,4.039-7.4,2.159,2.159,0,0,0,5.617-6.8,2.143,2.143,0,0,0,7.2-7.4,2.064,2.064,0,0,0,7.8-8.93a2.075,2.075,0,0,0-.621-1.547A2.145,2.145,0,0,0,5.617-11.086ZM28,1.406v-15.07h1.938V1.406ZM21.82-5.148A4.349,4.349,0,0,1,18.848-6.2a3.46,3.46,0,0,1-1.2-2.73,3.454,3.454,0,0,1,1.227-2.75,4.487,4.487,0,0,1,3.031-1.055,4.245,4.245,0,0,1,2.957,1.055,3.532,3.532,0,0,1,1.168,2.75A3.448,3.448,0,0,1,24.82-6.2,4.405,4.405,0,0,1,21.82-5.148Zm.023-5.937a2.139,2.139,0,0,0-1.594.609,2.11,2.11,0,0,0-.6,1.547A2.05,2.05,0,0,0,20.266-7.4a2.159,2.159,0,0,0,1.578.605,2.125,2.125,0,0,0,1.582-.613,2.077,2.077,0,0,0,.605-1.52,2.1,2.1,0,0,0-.613-1.535A2.117,2.117,0,0,0,21.844-11.086Zm-5.047,10-.2-1.648q7.156,0,10.719-.227l.109,1.617Q22.461-1.086,16.8-1.086ZM49.3-8.977a47.027,47.027,0,0,1-.3,4.961L47.089-4.18a42.736,42.736,0,0,0,.242-4.812v-1.742H38.846v-1.617H49.3ZM37.12-.672V-2.3h3.148v-5.1h1.953v5.1h1.766v-5.1h1.945v5.1H51.1V-.672ZM53.534-10.914v-1.5h3.633v-1.375h1.969v1.375H62.69v1.5ZM65.424-6.836v4.422H63.456v-11.25h1.969v5.188H67.6v1.641Zm-2.445,3.2q-4.969.3-9.734.3L53.057-4.9q1.719,0,4.094-.031v-.992a4.289,4.289,0,0,1-2.187-.758,1.831,1.831,0,0,1-.773-1.5,1.909,1.909,0,0,1,1.07-1.711,5.705,5.705,0,0,1,2.883-.625,5.544,5.544,0,0,1,2.852.645A1.921,1.921,0,0,1,62.081-8.18a1.823,1.823,0,0,1-.762,1.5,4.474,4.474,0,0,1-2.2.77v.93q1.969-.031,3.742-.141ZM58.143-9.055q-2,0-2,.875t2,.883a3.555,3.555,0,0,0,1.465-.242q.52-.242.52-.641Q60.128-9.055,58.143-9.055ZM55.471,1.219V-2.8H57.44V-.414h8.2V1.219Zm28.464.188v-15.07h1.922V1.406ZM74.083-2.672v-9.906H76v3.406h3.477v-3.406h1.953v9.906Zm5.391-4.852H76v3.2h3.477ZM96.224-8.5a8.218,8.218,0,0,1-3.746-.687,2.1,2.1,0,0,1-1.309-1.9,2.092,2.092,0,0,1,1.293-1.922,8.367,8.367,0,0,1,3.762-.672q5.055,0,5.055,2.594A2.088,2.088,0,0,1,100-9.172,8.351,8.351,0,0,1,96.224-8.5Zm0-3.711q-3.055,0-3.055,1.125t3.055,1.117q3.055,0,3.055-1.117T96.224-12.211ZM91.279,1.148V-2.734H99.2v-.82H91.279V-5.148h1.727V-6.211H89.232V-7.859h13.984v1.648H99.443v1.063h1.711v3.883H93.232v.82h8.289V1.148Zm6.258-6.3V-6.211H94.911v1.063Z" transform="translate(352 522)"/>
    <path id="Path_3967" data-name="Path 3967" class="cls-2" d="M1.008-.609V-2.242h6V-4.7H3.07v-7.633h9.922v1.617H5.039v1.359h7.523v1.617H5.039V-6.32h8.2V-4.7H8.977v2.461h6.016V-.609Zm16-4.336V-6.594h9.844l.078-1.969L18.8-8.211l-.43-1.609,8.594-.242q.031-.844.031-1.344H19.1v-1.633h9.844q0,3.7-.211,6.445h2.258v1.648ZM19.07.766v-4.8h1.969V-.883h8.109V.766Zm28.768.641v-15.07h1.938V1.406ZM41.62-2.258a3.455,3.455,0,0,1-2.883-1.414,6.106,6.106,0,0,1-1.086-3.812,6.088,6.088,0,0,1,1.082-3.828A3.473,3.473,0,0,1,41.62-12.7a3.434,3.434,0,0,1,2.871,1.4,6.129,6.129,0,0,1,1.074,3.816,6.16,6.16,0,0,1-1.07,3.824A3.431,3.431,0,0,1,41.62-2.258Zm0-8.781a1.7,1.7,0,0,0-1.477.961,5.047,5.047,0,0,0-.578,2.609,4.929,4.929,0,0,0,.594,2.594,1.712,1.712,0,0,0,1.461.969,1.709,1.709,0,0,0,1.453-.957,4.917,4.917,0,0,0,.594-2.605,5.075,5.075,0,0,0-.574-2.609A1.69,1.69,0,0,0,41.62-11.039ZM55.331-7.2v-3.914H62.94v-.773H55.331v-1.594h9.563v3.82H57.284V-8.8h7.945V-7.2ZM53.12-4.672V-6.3H67.1v1.633Zm2.063,5.789V-3.773h9.875V1.117ZM63.1-2.141H57.135V-.516H63.1Z" transform="translate(352 577)"/>
    <path id="Path_3968" data-name="Path 3968" class="cls-2" d="M1.008-.609V-2.242h6V-4.7H3.07v-7.633h9.922v1.617H5.039v1.359h7.523v1.617H5.039V-6.32h8.2V-4.7H8.977v2.461h6.016V-.609Zm16-4.336V-6.594h9.844l.078-1.969L18.8-8.211l-.43-1.609,8.594-.242q.031-.844.031-1.344H19.1v-1.633h9.844q0,3.7-.211,6.445h2.258v1.648ZM19.07.766v-4.8h1.969V-.883h8.109V.766ZM49.284-6.078V1.406H47.315v-15.07h1.969v5.938H51.62v1.648ZM38.557-1.891,37.089-3.266q5.055-2.773,6.109-7.453H37.956v-1.648h7.469Q44.807-5.742,38.557-1.891Zm25.281,3.3v-15.07h1.953V1.406Zm-2.2-3.648a11.248,11.248,0,0,1-3.586-3.648A9.977,9.977,0,0,1,56.51-3.656,9.174,9.174,0,0,1,54.6-1.922L53.2-3.219a8.141,8.141,0,0,0,2.77-2.6,5.761,5.761,0,0,0,1.105-3.191v-1.039H53.635V-11.7h3.422v-1.969h1.969V-11.7h3.453v1.648H59.026v1.1a5.036,5.036,0,0,0,1.082,2.961,6.794,6.794,0,0,0,2.738,2.242Z" transform="translate(352 632)"/>
    <path id="Path_3975" data-name="Path 3975" class="cls-2" d="M11.984,1.406v-15.07h1.969V1.406ZM9.906-5.359A7.905,7.905,0,0,1,5.984-7.891,8.5,8.5,0,0,1,2.031-4.977L.766-6.352A7.047,7.047,0,0,0,3.637-7.863a3.575,3.575,0,0,0,1.324-2.168H1.523v-1.617H4.977v-1.68H6.945v1.68h3.313v1.617H6.945A3.234,3.234,0,0,0,8.277-7.984a5.737,5.737,0,0,0,2.809,1.2Zm1.6,4.141q-1.2.086-4.918.172T.8-.961L.578-2.609q2.469,0,4.508-.047V-5.711H7.055v3.023q2.531-.031,4.352-.148ZM29.391-5.437a11.577,11.577,0,0,1-3.117-1.477,8.484,8.484,0,0,1-2.289-2.109,8.243,8.243,0,0,1-2.262,2.156,10.251,10.251,0,0,1-3.145,1.445L17.438-6.945A8.451,8.451,0,0,0,21.566-8.91a3.846,3.846,0,0,0,1.441-2.66v-1.117h1.984v1.117a3.9,3.9,0,0,0,1.441,2.652,8.209,8.209,0,0,0,4.1,1.973ZM17.008-.672V-2.289h6V-5.727h1.969v3.438h6.016V-.672ZM48.995-13.328a50.259,50.259,0,0,1-.227,5.375l-1.875-.094q.1-.984.148-3.633H39.214v-1.648ZM37.12-5.539V-7.187h5.234v-2.906h1.984v2.906H51.1v1.648ZM44.143,1.3A7.476,7.476,0,0,1,40.319.484,2.446,2.446,0,0,1,38.964-1.68a2.435,2.435,0,0,1,1.355-2.18,7.6,7.6,0,0,1,3.824-.8,7.662,7.662,0,0,1,3.828.785A2.429,2.429,0,0,1,49.315-1.68,2.431,2.431,0,0,1,47.956.5,7.614,7.614,0,0,1,44.143,1.3Zm0-4.383a5.593,5.593,0,0,0-2.352.391q-.813.391-.812,1.016t.813,1.016a5.593,5.593,0,0,0,2.352.391A5.562,5.562,0,0,0,46.479-.66q.8-.387.8-1.02t-.8-1.02A5.562,5.562,0,0,0,44.143-3.086ZM53.12-.672V-2.3h6V-5.3H55.3v-7.055h9.609V-5.3h-3.82V-2.3H67.1V-.672Zm9.82-10.062H57.26v3.82h5.68ZM80.253-4.977v-3.2H79.135v3.2H77.214v-8.383h1.922V-9.82h1.117v-3.844H82.19v8.688ZM72.768-5.6a3.573,3.573,0,0,1-2.547-1.016,3.621,3.621,0,0,1-1.07-2.758,3.621,3.621,0,0,1,1.07-2.758,3.573,3.573,0,0,1,2.547-1.016,3.573,3.573,0,0,1,2.547,1.016,3.621,3.621,0,0,1,1.07,2.758,3.621,3.621,0,0,1-1.07,2.758A3.573,3.573,0,0,1,72.768-5.6Zm0-5.937a1.571,1.571,0,0,0-1.23.566,2.347,2.347,0,0,0-.5,1.6,2.332,2.332,0,0,0,.5,1.594,1.575,1.575,0,0,0,1.23.563,1.568,1.568,0,0,0,1.215-.555,2.327,2.327,0,0,0,.5-1.6,2.339,2.339,0,0,0-.5-1.609A1.568,1.568,0,0,0,72.768-11.539ZM80.237,1.406V-2.672H72.19V-4.336h10V1.406Z" transform="translate(352 687)"/>
    <rect id="Rectangle_512" data-name="Rectangle 512" class="cls-3" width="182" height="51" transform="translate(530 434)"/>
    <rect id="Rectangle_513" data-name="Rectangle 513" class="cls-3" width="367" height="51" transform="translate(715 434)"/>
    <rect id="Rectangle_512-2" data-name="Rectangle 512" class="cls-4" width="182" height="51" transform="translate(530 488)"/>
    <rect id="Rectangle_512-3" data-name="Rectangle 512" class="cls-4" width="182" height="51" transform="translate(715 488)"/>
    <rect id="Rectangle_512-4" data-name="Rectangle 512" class="cls-4" width="182" height="51" transform="translate(900 488)"/>
    <rect id="Rectangle_512-5" data-name="Rectangle 512" class="cls-4" width="182" height="51" transform="translate(530 542)"/>
    <rect id="Rectangle_512-6" data-name="Rectangle 512" class="cls-4" width="182" height="51" transform="translate(715 542)"/>
    <rect id="Rectangle_512-7" data-name="Rectangle 512" class="cls-4" width="182" height="51" transform="translate(900 542)"/>
    <rect id="Rectangle_512-8" data-name="Rectangle 512" class="cls-3" width="182" height="51" transform="translate(530 596)"/>
    <rect id="Rectangle_512-9" data-name="Rectangle 512" class="cls-3" width="182" height="51" transform="translate(715 596)"/>
    <rect id="Rectangle_512-10" data-name="Rectangle 512" class="cls-3" width="182" height="51" transform="translate(900 596)"/>
    <rect id="Rectangle_512-11" data-name="Rectangle 512" class="cls-3" width="182" height="51" transform="translate(530 650)"/>
    <rect id="Rectangle_512-12" data-name="Rectangle 512" class="cls-3" width="182" height="51" transform="translate(715 650)"/>
    <rect id="Rectangle_512-13" data-name="Rectangle 512" class="cls-3" width="182" height="51" transform="translate(900 650)"/>
    <path id="Path_3960" data-name="Path 3960" class="cls-5" d="M8.24,0H1.248V-10.672H8.24v1.184H2.576v3.44H8.128v1.184H2.576v3.68H8.24ZM18.1,0H16.528l-2.72-4.24H11.68V0H10.352V-10.672H14.64a3.367,3.367,0,0,1,2.416.88,3.069,3.069,0,0,1,.928,2.336,3,3,0,0,1-.8,2.192,3.012,3.012,0,0,1-1.968.912ZM14.48-5.408a2.11,2.11,0,0,0,1.536-.576,1.965,1.965,0,0,0,.592-1.472,1.939,1.939,0,0,0-.592-1.464,2.127,2.127,0,0,0-1.536-.568h-2.8v4.08ZM25.136.192a5.369,5.369,0,0,1-3.912-1.544,5.323,5.323,0,0,1-1.576-3.976A5.323,5.323,0,0,1,21.224-9.3a5.369,5.369,0,0,1,3.912-1.544,4.7,4.7,0,0,1,4.048,2.112l-1.12.624a3.527,3.527,0,0,0-1.248-1.12,3.427,3.427,0,0,0-1.68-.432A3.9,3.9,0,0,0,22.2-8.44a4.309,4.309,0,0,0-1.176,3.112A4.309,4.309,0,0,0,22.2-2.216,3.9,3.9,0,0,0,25.136-.992a3.478,3.478,0,0,0,1.68-.424,3.4,3.4,0,0,0,1.248-1.128L29.2-1.92A4.816,4.816,0,0,1,25.136.192Zm9.408,0A3.534,3.534,0,0,1,32.68-.3,3.614,3.614,0,0,1,31.4-1.6a6.678,6.678,0,0,1-.7-1.76,8.217,8.217,0,0,1-.232-1.968A8.217,8.217,0,0,1,30.7-7.3a6.554,6.554,0,0,1,.7-1.752,3.634,3.634,0,0,1,1.28-1.3,3.534,3.534,0,0,1,1.864-.488,3.546,3.546,0,0,1,1.856.488,3.614,3.614,0,0,1,1.288,1.3,6.554,6.554,0,0,1,.7,1.752,8.217,8.217,0,0,1,.232,1.968,8.217,8.217,0,0,1-.232,1.968,6.678,6.678,0,0,1-.7,1.76A3.594,3.594,0,0,1,36.4-.3,3.546,3.546,0,0,1,34.544.192Zm-1.6-1.848a2.131,2.131,0,0,0,1.6.664,2.131,2.131,0,0,0,1.6-.664,3.522,3.522,0,0,0,.88-1.592,8.315,8.315,0,0,0,.24-2.08,8.315,8.315,0,0,0-.24-2.08,3.468,3.468,0,0,0-.88-1.584,2.143,2.143,0,0,0-1.6-.656,2.143,2.143,0,0,0-1.6.656,3.468,3.468,0,0,0-.88,1.584,8.315,8.315,0,0,0-.24,2.08,8.315,8.315,0,0,0,.24,2.08A3.522,3.522,0,0,0,32.944-1.656ZM47.632,0H40.3V-1.056q1.664-1.312,2.584-2.088t1.776-1.648a6.853,6.853,0,0,0,1.208-1.552A2.921,2.921,0,0,0,46.224-7.7a1.712,1.712,0,0,0-.656-1.456A2.525,2.525,0,0,0,44-9.648,3.482,3.482,0,0,0,41.1-8.3l-.816-.848a4.016,4.016,0,0,1,1.592-1.24,5.134,5.134,0,0,1,2.12-.44,4.021,4.021,0,0,1,2.52.816A2.751,2.751,0,0,1,47.584-7.7,4.555,4.555,0,0,1,46.3-4.728a29.066,29.066,0,0,1-3.9,3.544h5.232Zm6.112.192A3.534,3.534,0,0,1,51.88-.3,3.614,3.614,0,0,1,50.6-1.6a6.678,6.678,0,0,1-.7-1.76,8.217,8.217,0,0,1-.232-1.968A8.217,8.217,0,0,1,49.9-7.3a6.554,6.554,0,0,1,.7-1.752,3.634,3.634,0,0,1,1.28-1.3,3.534,3.534,0,0,1,1.864-.488,3.546,3.546,0,0,1,1.856.488,3.614,3.614,0,0,1,1.288,1.3,6.554,6.554,0,0,1,.7,1.752,8.217,8.217,0,0,1,.232,1.968,8.217,8.217,0,0,1-.232,1.968,6.678,6.678,0,0,1-.7,1.76A3.594,3.594,0,0,1,55.6-.3,3.546,3.546,0,0,1,53.744.192Zm-1.6-1.848a2.131,2.131,0,0,0,1.6.664,2.131,2.131,0,0,0,1.6-.664,3.522,3.522,0,0,0,.88-1.592,8.315,8.315,0,0,0,.24-2.08,8.315,8.315,0,0,0-.24-2.08,3.468,3.468,0,0,0-.88-1.584,2.143,2.143,0,0,0-1.6-.656,2.143,2.143,0,0,0-1.6.656,3.468,3.468,0,0,0-.88,1.584,8.315,8.315,0,0,0-.24,2.08,8.315,8.315,0,0,0,.24,2.08A3.522,3.522,0,0,0,52.144-1.656Z" transform="translate(592 465)"/>
    <path id="Path_3961" data-name="Path 3961" class="cls-5" d="M-12.576,0h-3.648V-10.672h3.648a5.34,5.34,0,0,1,3.96,1.52A5.2,5.2,0,0,1-7.1-5.328,5.166,5.166,0,0,1-8.616-1.5,5.371,5.371,0,0,1-12.576,0Zm0-1.184A3.893,3.893,0,0,0-9.584-2.368a4.173,4.173,0,0,0,1.1-2.96A4.23,4.23,0,0,0-9.568-8.3a3.881,3.881,0,0,0-3.008-1.184H-14.9v8.3ZM-3.7,0H-5.024V-10.672H-3.7ZM3.856.192A5.369,5.369,0,0,1-.056-1.352,5.323,5.323,0,0,1-1.632-5.328,5.323,5.323,0,0,1-.056-9.3a5.369,5.369,0,0,1,3.912-1.544A4.7,4.7,0,0,1,7.9-8.736l-1.12.624a3.527,3.527,0,0,0-1.248-1.12,3.427,3.427,0,0,0-1.68-.432A3.9,3.9,0,0,0,.92-8.44,4.309,4.309,0,0,0-.256-5.328,4.309,4.309,0,0,0,.92-2.216,3.9,3.9,0,0,0,3.856-.992a3.478,3.478,0,0,0,1.68-.424A3.4,3.4,0,0,0,6.784-2.544L7.92-1.92A4.816,4.816,0,0,1,3.856.192ZM16.608,0H9.616V-10.672h6.992v1.184H10.944v3.44H16.5v1.184H10.944v3.68h5.664Z" transform="translate(621 519)"/>
    <path id="Path_3966" data-name="Path 3966" class="cls-5" d="M1.464,0H.136V-8.912L-1.576-7.1l-.8-.816L.3-10.672H1.464Z" transform="translate(621 572)"/>
    <path id="Path_3965" data-name="Path 3965" class="cls-5" d="M-18.744.192A3.534,3.534,0,0,1-20.608-.3a3.614,3.614,0,0,1-1.28-1.3,6.678,6.678,0,0,1-.7-1.76,8.217,8.217,0,0,1-.232-1.968A8.217,8.217,0,0,1-22.592-7.3a6.554,6.554,0,0,1,.7-1.752,3.634,3.634,0,0,1,1.28-1.3,3.534,3.534,0,0,1,1.864-.488,3.546,3.546,0,0,1,1.856.488,3.614,3.614,0,0,1,1.288,1.3A6.554,6.554,0,0,1-14.9-7.3a8.217,8.217,0,0,1,.232,1.968A8.217,8.217,0,0,1-14.9-3.36a6.678,6.678,0,0,1-.7,1.76A3.594,3.594,0,0,1-16.888-.3,3.546,3.546,0,0,1-18.744.192Zm-1.6-1.848a2.131,2.131,0,0,0,1.6.664,2.131,2.131,0,0,0,1.6-.664,3.522,3.522,0,0,0,.88-1.592,8.315,8.315,0,0,0,.24-2.08,8.315,8.315,0,0,0-.24-2.08,3.468,3.468,0,0,0-.88-1.584,2.143,2.143,0,0,0-1.6-.656,2.143,2.143,0,0,0-1.6.656,3.468,3.468,0,0,0-.88,1.584,8.315,8.315,0,0,0-.24,2.08,8.315,8.315,0,0,0,.24,2.08A3.522,3.522,0,0,0-20.344-1.656ZM-11.88-.1A.849.849,0,0,1-12.5.16.849.849,0,0,1-13.128-.1a.849.849,0,0,1-.256-.624.849.849,0,0,1,.256-.624A.849.849,0,0,1-12.5-1.6a.849.849,0,0,1,.624.256.849.849,0,0,1,.256.624A.849.849,0,0,1-11.88-.1Zm5.616.288A3.534,3.534,0,0,1-8.128-.3a3.614,3.614,0,0,1-1.28-1.3,6.678,6.678,0,0,1-.7-1.76,8.217,8.217,0,0,1-.232-1.968A8.217,8.217,0,0,1-10.112-7.3a6.553,6.553,0,0,1,.7-1.752,3.634,3.634,0,0,1,1.28-1.3,3.534,3.534,0,0,1,1.864-.488,3.546,3.546,0,0,1,1.856.488,3.614,3.614,0,0,1,1.288,1.3,6.554,6.554,0,0,1,.7,1.752,8.217,8.217,0,0,1,.232,1.968A8.217,8.217,0,0,1-2.416-3.36a6.678,6.678,0,0,1-.7,1.76A3.594,3.594,0,0,1-4.408-.3,3.546,3.546,0,0,1-6.264.192Zm-1.6-1.848a2.131,2.131,0,0,0,1.6.664,2.131,2.131,0,0,0,1.6-.664,3.522,3.522,0,0,0,.88-1.592,8.315,8.315,0,0,0,.24-2.08,8.315,8.315,0,0,0-.24-2.08,3.468,3.468,0,0,0-.88-1.584,2.143,2.143,0,0,0-1.6-.656,2.143,2.143,0,0,0-1.6.656,3.468,3.468,0,0,0-.88,1.584,8.315,8.315,0,0,0-.24,2.08,8.315,8.315,0,0,0,.24,2.08A3.522,3.522,0,0,0-7.864-1.656ZM3.528.192A3.534,3.534,0,0,1,1.664-.3,3.614,3.614,0,0,1,.384-1.6a6.678,6.678,0,0,1-.7-1.76A8.217,8.217,0,0,1-.552-5.328,8.217,8.217,0,0,1-.32-7.3a6.554,6.554,0,0,1,.7-1.752,3.634,3.634,0,0,1,1.28-1.3,3.534,3.534,0,0,1,1.864-.488,3.546,3.546,0,0,1,1.856.488,3.614,3.614,0,0,1,1.288,1.3,6.554,6.554,0,0,1,.7,1.752,8.217,8.217,0,0,1,.232,1.968A8.217,8.217,0,0,1,7.376-3.36a6.678,6.678,0,0,1-.7,1.76A3.594,3.594,0,0,1,5.384-.3,3.546,3.546,0,0,1,3.528.192Zm-1.6-1.848a2.131,2.131,0,0,0,1.6.664,2.131,2.131,0,0,0,1.6-.664,3.522,3.522,0,0,0,.88-1.592,8.315,8.315,0,0,0,.24-2.08,8.315,8.315,0,0,0-.24-2.08,3.468,3.468,0,0,0-.88-1.584,2.143,2.143,0,0,0-1.6-.656,2.143,2.143,0,0,0-1.6.656,3.468,3.468,0,0,0-.88,1.584,8.315,8.315,0,0,0-.24,2.08,8.315,8.315,0,0,0,.24,2.08A3.522,3.522,0,0,0,1.928-1.656ZM13.32.192A3.534,3.534,0,0,1,11.456-.3a3.614,3.614,0,0,1-1.28-1.3,6.678,6.678,0,0,1-.7-1.76A8.217,8.217,0,0,1,9.24-5.328,8.217,8.217,0,0,1,9.472-7.3a6.553,6.553,0,0,1,.7-1.752,3.634,3.634,0,0,1,1.28-1.3,3.534,3.534,0,0,1,1.864-.488,3.546,3.546,0,0,1,1.856.488,3.614,3.614,0,0,1,1.288,1.3,6.554,6.554,0,0,1,.7,1.752A8.217,8.217,0,0,1,17.4-5.328a8.217,8.217,0,0,1-.232,1.968,6.678,6.678,0,0,1-.7,1.76A3.594,3.594,0,0,1,15.176-.3,3.546,3.546,0,0,1,13.32.192Zm-1.6-1.848a2.131,2.131,0,0,0,1.6.664,2.131,2.131,0,0,0,1.6-.664,3.522,3.522,0,0,0,.88-1.592,8.315,8.315,0,0,0,.24-2.08,8.315,8.315,0,0,0-.24-2.08,3.468,3.468,0,0,0-.88-1.584,2.143,2.143,0,0,0-1.6-.656,2.143,2.143,0,0,0-1.6.656,3.468,3.468,0,0,0-.88,1.584,8.315,8.315,0,0,0-.24,2.08,8.315,8.315,0,0,0,.24,2.08A3.522,3.522,0,0,0,11.72-1.656ZM22.392,0H21.064V-8.912L19.352-7.1l-.8-.816,2.672-2.752h1.168Z" transform="translate(806 572)"/>
    <path id="Path_3969" data-name="Path 3969" class="cls-5" d="M-37.624,0h-7.328V-1.056q1.664-1.312,2.584-2.088t1.776-1.648a6.853,6.853,0,0,0,1.208-1.552A2.921,2.921,0,0,0-39.032-7.7a1.712,1.712,0,0,0-.656-1.456,2.525,2.525,0,0,0-1.568-.5,3.482,3.482,0,0,0-2.9,1.344l-.816-.848a4.016,4.016,0,0,1,1.592-1.24,5.134,5.134,0,0,1,2.12-.44,4.021,4.021,0,0,1,2.52.816A2.751,2.751,0,0,1-37.672-7.7a4.555,4.555,0,0,1-1.28,2.968,29.066,29.066,0,0,1-3.9,3.544h5.232Zm5.392,0H-33.56V-8.912L-35.272-7.1l-.8-.816,2.672-2.752h1.168Zm6.144.192A3.534,3.534,0,0,1-27.952-.3a3.614,3.614,0,0,1-1.28-1.3,6.678,6.678,0,0,1-.7-1.76,8.217,8.217,0,0,1-.232-1.968A8.217,8.217,0,0,1-29.936-7.3a6.554,6.554,0,0,1,.7-1.752,3.634,3.634,0,0,1,1.28-1.3,3.534,3.534,0,0,1,1.864-.488,3.546,3.546,0,0,1,1.856.488,3.614,3.614,0,0,1,1.288,1.3,6.553,6.553,0,0,1,.7,1.752,8.217,8.217,0,0,1,.232,1.968A8.217,8.217,0,0,1-22.24-3.36a6.678,6.678,0,0,1-.7,1.76A3.594,3.594,0,0,1-24.232-.3,3.546,3.546,0,0,1-26.088.192Zm-1.6-1.848a2.131,2.131,0,0,0,1.6.664,2.131,2.131,0,0,0,1.6-.664,3.522,3.522,0,0,0,.88-1.592,8.315,8.315,0,0,0,.24-2.08,8.315,8.315,0,0,0-.24-2.08,3.468,3.468,0,0,0-.88-1.584,2.143,2.143,0,0,0-1.6-.656,2.143,2.143,0,0,0-1.6.656,3.468,3.468,0,0,0-.88,1.584,8.315,8.315,0,0,0-.24,2.08,8.315,8.315,0,0,0,.24,2.08A3.522,3.522,0,0,0-27.688-1.656ZM-12.168.192A3.534,3.534,0,0,1-14.032-.3a3.614,3.614,0,0,1-1.28-1.3,6.678,6.678,0,0,1-.7-1.76,8.217,8.217,0,0,1-.232-1.968A8.217,8.217,0,0,1-16.016-7.3a6.553,6.553,0,0,1,.7-1.752,3.634,3.634,0,0,1,1.28-1.3,3.534,3.534,0,0,1,1.864-.488,3.546,3.546,0,0,1,1.856.488,3.614,3.614,0,0,1,1.288,1.3A6.554,6.554,0,0,1-8.32-7.3a8.217,8.217,0,0,1,.232,1.968A8.217,8.217,0,0,1-8.32-3.36a6.678,6.678,0,0,1-.7,1.76A3.594,3.594,0,0,1-10.312-.3,3.546,3.546,0,0,1-12.168.192Zm-1.6-1.848a2.131,2.131,0,0,0,1.6.664,2.131,2.131,0,0,0,1.6-.664,3.522,3.522,0,0,0,.88-1.592,8.315,8.315,0,0,0,.24-2.08,8.315,8.315,0,0,0-.24-2.08,3.468,3.468,0,0,0-.88-1.584,2.143,2.143,0,0,0-1.6-.656,2.143,2.143,0,0,0-1.6.656,3.468,3.468,0,0,0-.88,1.584,8.315,8.315,0,0,0-.24,2.08,8.315,8.315,0,0,0,.24,2.08A3.522,3.522,0,0,0-13.768-1.656ZM-2.376.192A3.534,3.534,0,0,1-4.24-.3,3.614,3.614,0,0,1-5.52-1.6a6.678,6.678,0,0,1-.7-1.76,8.217,8.217,0,0,1-.232-1.968A8.217,8.217,0,0,1-6.224-7.3a6.554,6.554,0,0,1,.7-1.752,3.634,3.634,0,0,1,1.28-1.3,3.534,3.534,0,0,1,1.864-.488,3.546,3.546,0,0,1,1.856.488,3.614,3.614,0,0,1,1.288,1.3,6.554,6.554,0,0,1,.7,1.752A8.217,8.217,0,0,1,1.7-5.328,8.217,8.217,0,0,1,1.472-3.36a6.678,6.678,0,0,1-.7,1.76A3.594,3.594,0,0,1-.52-.3,3.546,3.546,0,0,1-2.376.192Zm-1.6-1.848a2.131,2.131,0,0,0,1.6.664,2.131,2.131,0,0,0,1.6-.664A3.522,3.522,0,0,0,.1-3.248a8.315,8.315,0,0,0,.24-2.08A8.315,8.315,0,0,0,.1-7.408a3.468,3.468,0,0,0-.88-1.584,2.143,2.143,0,0,0-1.6-.656,2.143,2.143,0,0,0-1.6.656,3.468,3.468,0,0,0-.88,1.584,8.315,8.315,0,0,0-.24,2.08,8.315,8.315,0,0,0,.24,2.08A3.522,3.522,0,0,0-3.976-1.656ZM7.416.192A3.534,3.534,0,0,1,5.552-.3a3.614,3.614,0,0,1-1.28-1.3,6.678,6.678,0,0,1-.7-1.76,8.217,8.217,0,0,1-.232-1.968A8.217,8.217,0,0,1,3.568-7.3a6.554,6.554,0,0,1,.7-1.752,3.634,3.634,0,0,1,1.28-1.3,3.534,3.534,0,0,1,1.864-.488,3.546,3.546,0,0,1,1.856.488,3.614,3.614,0,0,1,1.288,1.3,6.554,6.554,0,0,1,.7,1.752A8.217,8.217,0,0,1,11.5-5.328a8.217,8.217,0,0,1-.232,1.968,6.678,6.678,0,0,1-.7,1.76A3.594,3.594,0,0,1,9.272-.3,3.546,3.546,0,0,1,7.416.192Zm-1.6-1.848a2.131,2.131,0,0,0,1.6.664,2.131,2.131,0,0,0,1.6-.664A3.522,3.522,0,0,0,9.9-3.248a8.315,8.315,0,0,0,.24-2.08,8.315,8.315,0,0,0-.24-2.08,3.468,3.468,0,0,0-.88-1.584,2.143,2.143,0,0,0-1.6-.656,2.143,2.143,0,0,0-1.6.656,3.468,3.468,0,0,0-.88,1.584,8.315,8.315,0,0,0-.24,2.08,8.315,8.315,0,0,0,.24,2.08A3.522,3.522,0,0,0,5.816-1.656ZM21.336.192A3.534,3.534,0,0,1,19.472-.3a3.614,3.614,0,0,1-1.28-1.3,6.678,6.678,0,0,1-.7-1.76,8.217,8.217,0,0,1-.232-1.968A8.217,8.217,0,0,1,17.488-7.3a6.554,6.554,0,0,1,.7-1.752,3.634,3.634,0,0,1,1.28-1.3,3.534,3.534,0,0,1,1.864-.488,3.546,3.546,0,0,1,1.856.488,3.614,3.614,0,0,1,1.288,1.3,6.553,6.553,0,0,1,.7,1.752,8.217,8.217,0,0,1,.232,1.968,8.217,8.217,0,0,1-.232,1.968,6.678,6.678,0,0,1-.7,1.76A3.594,3.594,0,0,1,23.192-.3,3.546,3.546,0,0,1,21.336.192Zm-1.6-1.848a2.131,2.131,0,0,0,1.6.664,2.131,2.131,0,0,0,1.6-.664,3.522,3.522,0,0,0,.88-1.592,8.315,8.315,0,0,0,.24-2.08,8.315,8.315,0,0,0-.24-2.08,3.468,3.468,0,0,0-.88-1.584,2.143,2.143,0,0,0-1.6-.656,2.143,2.143,0,0,0-1.6.656,3.468,3.468,0,0,0-.88,1.584,8.315,8.315,0,0,0-.24,2.08,8.315,8.315,0,0,0,.24,2.08A3.522,3.522,0,0,0,19.736-1.656ZM31.128.192A3.534,3.534,0,0,1,29.264-.3a3.614,3.614,0,0,1-1.28-1.3,6.678,6.678,0,0,1-.7-1.76,8.217,8.217,0,0,1-.232-1.968A8.217,8.217,0,0,1,27.28-7.3a6.554,6.554,0,0,1,.7-1.752,3.634,3.634,0,0,1,1.28-1.3,3.534,3.534,0,0,1,1.864-.488,3.546,3.546,0,0,1,1.856.488,3.614,3.614,0,0,1,1.288,1.3,6.554,6.554,0,0,1,.7,1.752,8.217,8.217,0,0,1,.232,1.968,8.217,8.217,0,0,1-.232,1.968,6.678,6.678,0,0,1-.7,1.76A3.594,3.594,0,0,1,32.984-.3,3.546,3.546,0,0,1,31.128.192Zm-1.6-1.848a2.131,2.131,0,0,0,1.6.664,2.131,2.131,0,0,0,1.6-.664,3.522,3.522,0,0,0,.88-1.592,8.315,8.315,0,0,0,.24-2.08,8.315,8.315,0,0,0-.24-2.08,3.468,3.468,0,0,0-.88-1.584,2.143,2.143,0,0,0-1.6-.656,2.143,2.143,0,0,0-1.6.656,3.468,3.468,0,0,0-.88,1.584,8.315,8.315,0,0,0-.24,2.08,8.315,8.315,0,0,0,.24,2.08A3.522,3.522,0,0,0,29.528-1.656ZM40.92.192A3.534,3.534,0,0,1,39.056-.3a3.614,3.614,0,0,1-1.28-1.3,6.678,6.678,0,0,1-.7-1.76,8.217,8.217,0,0,1-.232-1.968A8.217,8.217,0,0,1,37.072-7.3a6.554,6.554,0,0,1,.7-1.752,3.634,3.634,0,0,1,1.28-1.3,3.534,3.534,0,0,1,1.864-.488,3.546,3.546,0,0,1,1.856.488,3.614,3.614,0,0,1,1.288,1.3,6.554,6.554,0,0,1,.7,1.752A8.217,8.217,0,0,1,45-5.328a8.217,8.217,0,0,1-.232,1.968,6.678,6.678,0,0,1-.7,1.76A3.594,3.594,0,0,1,42.776-.3,3.546,3.546,0,0,1,40.92.192Zm-1.6-1.848a2.131,2.131,0,0,0,1.6.664,2.131,2.131,0,0,0,1.6-.664,3.522,3.522,0,0,0,.88-1.592,8.315,8.315,0,0,0,.24-2.08,8.315,8.315,0,0,0-.24-2.08,3.468,3.468,0,0,0-.88-1.584,2.143,2.143,0,0,0-1.6-.656,2.143,2.143,0,0,0-1.6.656,3.468,3.468,0,0,0-.88,1.584,8.315,8.315,0,0,0-.24,2.08,8.315,8.315,0,0,0,.24,2.08A3.522,3.522,0,0,0,39.32-1.656Z" transform="translate(621 627)"/>
    <path id="Path_3974" data-name="Path 3974" class="cls-5" d="M-35.76,0h-1.328V-2.7H-42.16v-1.1l4.576-6.864h1.824v6.8h1.5V-2.7h-1.5Zm-1.328-3.872V-9.44l-3.744,5.568ZM-25.552,0H-32.88V-1.056q1.664-1.312,2.584-2.088t1.776-1.648a6.853,6.853,0,0,0,1.208-1.552A2.921,2.921,0,0,0-26.96-7.7a1.712,1.712,0,0,0-.656-1.456,2.525,2.525,0,0,0-1.568-.5A3.482,3.482,0,0,0-32.08-8.3l-.816-.848a4.016,4.016,0,0,1,1.592-1.24,5.134,5.134,0,0,1,2.12-.44,4.021,4.021,0,0,1,2.52.816A2.751,2.751,0,0,1-25.6-7.7a4.555,4.555,0,0,1-1.28,2.968,29.066,29.066,0,0,1-3.9,3.544h5.232Zm10.24.192A3.534,3.534,0,0,1-17.176-.3a3.614,3.614,0,0,1-1.28-1.3,6.678,6.678,0,0,1-.7-1.76,8.217,8.217,0,0,1-.232-1.968A8.217,8.217,0,0,1-19.16-7.3a6.554,6.554,0,0,1,.7-1.752,3.634,3.634,0,0,1,1.28-1.3,3.534,3.534,0,0,1,1.864-.488,3.546,3.546,0,0,1,1.856.488,3.614,3.614,0,0,1,1.288,1.3,6.554,6.554,0,0,1,.7,1.752,8.217,8.217,0,0,1,.232,1.968,8.217,8.217,0,0,1-.232,1.968,6.678,6.678,0,0,1-.7,1.76A3.594,3.594,0,0,1-13.456-.3,3.546,3.546,0,0,1-15.312.192Zm-1.6-1.848a2.131,2.131,0,0,0,1.6.664,2.131,2.131,0,0,0,1.6-.664,3.522,3.522,0,0,0,.88-1.592,8.315,8.315,0,0,0,.24-2.08,8.315,8.315,0,0,0-.24-2.08,3.468,3.468,0,0,0-.88-1.584,2.143,2.143,0,0,0-1.6-.656,2.143,2.143,0,0,0-1.6.656,3.468,3.468,0,0,0-.88,1.584,8.315,8.315,0,0,0-.24,2.08,8.315,8.315,0,0,0,.24,2.08A3.522,3.522,0,0,0-16.912-1.656ZM-5.52.192A3.534,3.534,0,0,1-7.384-.3a3.614,3.614,0,0,1-1.28-1.3,6.678,6.678,0,0,1-.7-1.76A8.217,8.217,0,0,1-9.6-5.328,8.217,8.217,0,0,1-9.368-7.3a6.553,6.553,0,0,1,.7-1.752,3.634,3.634,0,0,1,1.28-1.3,3.534,3.534,0,0,1,1.864-.488,3.546,3.546,0,0,1,1.856.488,3.614,3.614,0,0,1,1.288,1.3,6.554,6.554,0,0,1,.7,1.752A8.217,8.217,0,0,1-1.44-5.328,8.217,8.217,0,0,1-1.672-3.36a6.678,6.678,0,0,1-.7,1.76A3.594,3.594,0,0,1-3.664-.3,3.546,3.546,0,0,1-5.52.192Zm-1.6-1.848a2.131,2.131,0,0,0,1.6.664,2.131,2.131,0,0,0,1.6-.664,3.522,3.522,0,0,0,.88-1.592,8.315,8.315,0,0,0,.24-2.08,8.315,8.315,0,0,0-.24-2.08,3.468,3.468,0,0,0-.88-1.584,2.143,2.143,0,0,0-1.6-.656,2.143,2.143,0,0,0-1.6.656A3.468,3.468,0,0,0-8-7.408a8.315,8.315,0,0,0-.24,2.08A8.315,8.315,0,0,0-8-3.248,3.522,3.522,0,0,0-7.12-1.656ZM4.272.192A3.534,3.534,0,0,1,2.408-.3a3.614,3.614,0,0,1-1.28-1.3,6.678,6.678,0,0,1-.7-1.76A8.217,8.217,0,0,1,.192-5.328,8.217,8.217,0,0,1,.424-7.3a6.554,6.554,0,0,1,.7-1.752,3.634,3.634,0,0,1,1.28-1.3,3.534,3.534,0,0,1,1.864-.488,3.546,3.546,0,0,1,1.856.488,3.614,3.614,0,0,1,1.288,1.3A6.554,6.554,0,0,1,8.12-7.3a8.217,8.217,0,0,1,.232,1.968A8.217,8.217,0,0,1,8.12-3.36a6.678,6.678,0,0,1-.7,1.76A3.594,3.594,0,0,1,6.128-.3,3.546,3.546,0,0,1,4.272.192Zm-1.6-1.848a2.131,2.131,0,0,0,1.6.664,2.131,2.131,0,0,0,1.6-.664,3.522,3.522,0,0,0,.88-1.592,8.315,8.315,0,0,0,.24-2.08,8.315,8.315,0,0,0-.24-2.08,3.468,3.468,0,0,0-.88-1.584,2.143,2.143,0,0,0-1.6-.656,2.143,2.143,0,0,0-1.6.656,3.468,3.468,0,0,0-.88,1.584,8.315,8.315,0,0,0-.24,2.08,8.315,8.315,0,0,0,.24,2.08A3.522,3.522,0,0,0,2.672-1.656ZM18.192.192A3.534,3.534,0,0,1,16.328-.3a3.614,3.614,0,0,1-1.28-1.3,6.678,6.678,0,0,1-.7-1.76,8.217,8.217,0,0,1-.232-1.968A8.217,8.217,0,0,1,14.344-7.3a6.553,6.553,0,0,1,.7-1.752,3.634,3.634,0,0,1,1.28-1.3,3.534,3.534,0,0,1,1.864-.488,3.546,3.546,0,0,1,1.856.488,3.614,3.614,0,0,1,1.288,1.3,6.553,6.553,0,0,1,.7,1.752,8.217,8.217,0,0,1,.232,1.968A8.217,8.217,0,0,1,22.04-3.36a6.678,6.678,0,0,1-.7,1.76A3.594,3.594,0,0,1,20.048-.3,3.546,3.546,0,0,1,18.192.192Zm-1.6-1.848a2.131,2.131,0,0,0,1.6.664,2.131,2.131,0,0,0,1.6-.664,3.522,3.522,0,0,0,.88-1.592,8.315,8.315,0,0,0,.24-2.08,8.315,8.315,0,0,0-.24-2.08,3.468,3.468,0,0,0-.88-1.584,2.143,2.143,0,0,0-1.6-.656,2.143,2.143,0,0,0-1.6.656,3.468,3.468,0,0,0-.88,1.584,8.315,8.315,0,0,0-.24,2.08,8.315,8.315,0,0,0,.24,2.08A3.522,3.522,0,0,0,16.592-1.656ZM27.984.192A3.534,3.534,0,0,1,26.12-.3a3.614,3.614,0,0,1-1.28-1.3,6.678,6.678,0,0,1-.7-1.76A8.217,8.217,0,0,1,23.9-5.328,8.217,8.217,0,0,1,24.136-7.3a6.554,6.554,0,0,1,.7-1.752,3.634,3.634,0,0,1,1.28-1.3,3.534,3.534,0,0,1,1.864-.488,3.546,3.546,0,0,1,1.856.488,3.614,3.614,0,0,1,1.288,1.3,6.553,6.553,0,0,1,.7,1.752,8.217,8.217,0,0,1,.232,1.968,8.217,8.217,0,0,1-.232,1.968,6.678,6.678,0,0,1-.7,1.76A3.594,3.594,0,0,1,29.84-.3,3.546,3.546,0,0,1,27.984.192Zm-1.6-1.848a2.131,2.131,0,0,0,1.6.664,2.131,2.131,0,0,0,1.6-.664,3.522,3.522,0,0,0,.88-1.592,8.315,8.315,0,0,0,.24-2.08,8.315,8.315,0,0,0-.24-2.08,3.468,3.468,0,0,0-.88-1.584,2.143,2.143,0,0,0-1.6-.656,2.143,2.143,0,0,0-1.6.656,3.468,3.468,0,0,0-.88,1.584,8.315,8.315,0,0,0-.24,2.08,8.315,8.315,0,0,0,.24,2.08A3.522,3.522,0,0,0,26.384-1.656ZM37.776.192A3.534,3.534,0,0,1,35.912-.3a3.614,3.614,0,0,1-1.28-1.3,6.678,6.678,0,0,1-.7-1.76A8.217,8.217,0,0,1,33.7-5.328,8.217,8.217,0,0,1,33.928-7.3a6.554,6.554,0,0,1,.7-1.752,3.634,3.634,0,0,1,1.28-1.3,3.534,3.534,0,0,1,1.864-.488,3.546,3.546,0,0,1,1.856.488,3.614,3.614,0,0,1,1.288,1.3,6.554,6.554,0,0,1,.7,1.752,8.217,8.217,0,0,1,.232,1.968,8.217,8.217,0,0,1-.232,1.968,6.678,6.678,0,0,1-.7,1.76A3.594,3.594,0,0,1,39.632-.3,3.546,3.546,0,0,1,37.776.192Zm-1.6-1.848a2.131,2.131,0,0,0,1.6.664,2.131,2.131,0,0,0,1.6-.664,3.522,3.522,0,0,0,.88-1.592,8.315,8.315,0,0,0,.24-2.08,8.315,8.315,0,0,0-.24-2.08,3.468,3.468,0,0,0-.88-1.584,2.143,2.143,0,0,0-1.6-.656,2.143,2.143,0,0,0-1.6.656,3.468,3.468,0,0,0-.88,1.584,8.315,8.315,0,0,0-.24,2.08,8.315,8.315,0,0,0,.24,2.08A3.522,3.522,0,0,0,36.176-1.656Z" transform="translate(621 681)"/>
    <path id="Path_3973" data-name="Path 3973" class="cls-5" d="M-14.112,0H-15.44V-2.7h-5.072v-1.1l4.576-6.864h1.824v6.8h1.5V-2.7h-1.5ZM-15.44-3.872V-9.44l-3.744,5.568ZM.224,0H-7.1V-1.056Q-5.44-2.368-4.52-3.144t1.776-1.648A6.853,6.853,0,0,0-1.536-6.344,2.921,2.921,0,0,0-1.184-7.7,1.712,1.712,0,0,0-1.84-9.152a2.525,2.525,0,0,0-1.568-.5A3.482,3.482,0,0,0-6.3-8.3l-.816-.848a4.016,4.016,0,0,1,1.592-1.24,5.134,5.134,0,0,1,2.12-.44,4.021,4.021,0,0,1,2.52.816A2.751,2.751,0,0,1,.176-7.7,4.555,4.555,0,0,1-1.1-4.728a29.066,29.066,0,0,1-3.9,3.544H.224ZM6.336.192A3.534,3.534,0,0,1,4.472-.3a3.614,3.614,0,0,1-1.28-1.3,6.678,6.678,0,0,1-.7-1.76,8.217,8.217,0,0,1-.232-1.968A8.217,8.217,0,0,1,2.488-7.3a6.554,6.554,0,0,1,.7-1.752,3.634,3.634,0,0,1,1.28-1.3,3.534,3.534,0,0,1,1.864-.488,3.546,3.546,0,0,1,1.856.488,3.614,3.614,0,0,1,1.288,1.3,6.554,6.554,0,0,1,.7,1.752,8.217,8.217,0,0,1,.232,1.968,8.217,8.217,0,0,1-.232,1.968,6.678,6.678,0,0,1-.7,1.76A3.594,3.594,0,0,1,8.192-.3,3.546,3.546,0,0,1,6.336.192Zm-1.6-1.848a2.131,2.131,0,0,0,1.6.664,2.131,2.131,0,0,0,1.6-.664,3.522,3.522,0,0,0,.88-1.592,8.315,8.315,0,0,0,.24-2.08,8.315,8.315,0,0,0-.24-2.08,3.468,3.468,0,0,0-.88-1.584,2.143,2.143,0,0,0-1.6-.656,2.143,2.143,0,0,0-1.6.656,3.468,3.468,0,0,0-.88,1.584,8.315,8.315,0,0,0-.24,2.08,8.315,8.315,0,0,0,.24,2.08A3.522,3.522,0,0,0,4.736-1.656ZM16.128.192A3.534,3.534,0,0,1,14.264-.3a3.614,3.614,0,0,1-1.28-1.3,6.678,6.678,0,0,1-.7-1.76,8.217,8.217,0,0,1-.232-1.968A8.217,8.217,0,0,1,12.28-7.3a6.553,6.553,0,0,1,.7-1.752,3.634,3.634,0,0,1,1.28-1.3,3.534,3.534,0,0,1,1.864-.488,3.546,3.546,0,0,1,1.856.488,3.614,3.614,0,0,1,1.288,1.3,6.554,6.554,0,0,1,.7,1.752,8.217,8.217,0,0,1,.232,1.968,8.217,8.217,0,0,1-.232,1.968,6.678,6.678,0,0,1-.7,1.76A3.594,3.594,0,0,1,17.984-.3,3.546,3.546,0,0,1,16.128.192Zm-1.6-1.848a2.131,2.131,0,0,0,1.6.664,2.131,2.131,0,0,0,1.6-.664,3.522,3.522,0,0,0,.88-1.592,8.315,8.315,0,0,0,.24-2.08,8.315,8.315,0,0,0-.24-2.08,3.468,3.468,0,0,0-.88-1.584,2.143,2.143,0,0,0-1.6-.656,2.143,2.143,0,0,0-1.6.656,3.468,3.468,0,0,0-.88,1.584,8.315,8.315,0,0,0-.24,2.08,8.315,8.315,0,0,0,.24,2.08A3.522,3.522,0,0,0,14.528-1.656Z" transform="translate(806 681)"/>
    <path id="Path_3972" data-name="Path 3972" class="cls-5" d="M-27.832,0H-35.16V-1.056q1.664-1.312,2.584-2.088T-30.8-4.792a6.853,6.853,0,0,0,1.208-1.552A2.921,2.921,0,0,0-29.24-7.7,1.712,1.712,0,0,0-29.9-9.152a2.525,2.525,0,0,0-1.568-.5A3.482,3.482,0,0,0-34.36-8.3l-.816-.848a4.016,4.016,0,0,1,1.592-1.24,5.134,5.134,0,0,1,2.12-.44,4.021,4.021,0,0,1,2.52.816A2.751,2.751,0,0,1-27.88-7.7a4.555,4.555,0,0,1-1.28,2.968,29.066,29.066,0,0,1-3.9,3.544h5.232Zm9.52,0H-19.64V-8.912L-21.352-7.1l-.8-.816,2.672-2.752h1.168Zm6.144.192A3.534,3.534,0,0,1-14.032-.3a3.614,3.614,0,0,1-1.28-1.3,6.678,6.678,0,0,1-.7-1.76,8.217,8.217,0,0,1-.232-1.968A8.217,8.217,0,0,1-16.016-7.3a6.553,6.553,0,0,1,.7-1.752,3.634,3.634,0,0,1,1.28-1.3,3.534,3.534,0,0,1,1.864-.488,3.546,3.546,0,0,1,1.856.488,3.614,3.614,0,0,1,1.288,1.3A6.554,6.554,0,0,1-8.32-7.3a8.217,8.217,0,0,1,.232,1.968A8.217,8.217,0,0,1-8.32-3.36a6.678,6.678,0,0,1-.7,1.76A3.594,3.594,0,0,1-10.312-.3,3.546,3.546,0,0,1-12.168.192Zm-1.6-1.848a2.131,2.131,0,0,0,1.6.664,2.131,2.131,0,0,0,1.6-.664,3.522,3.522,0,0,0,.88-1.592,8.315,8.315,0,0,0,.24-2.08,8.315,8.315,0,0,0-.24-2.08,3.468,3.468,0,0,0-.88-1.584,2.143,2.143,0,0,0-1.6-.656,2.143,2.143,0,0,0-1.6.656,3.468,3.468,0,0,0-.88,1.584,8.315,8.315,0,0,0-.24,2.08,8.315,8.315,0,0,0,.24,2.08A3.522,3.522,0,0,0-13.768-1.656ZM-2.376.192A3.534,3.534,0,0,1-4.24-.3,3.614,3.614,0,0,1-5.52-1.6a6.678,6.678,0,0,1-.7-1.76,8.217,8.217,0,0,1-.232-1.968A8.217,8.217,0,0,1-6.224-7.3a6.554,6.554,0,0,1,.7-1.752,3.634,3.634,0,0,1,1.28-1.3,3.534,3.534,0,0,1,1.864-.488,3.546,3.546,0,0,1,1.856.488,3.614,3.614,0,0,1,1.288,1.3,6.554,6.554,0,0,1,.7,1.752A8.217,8.217,0,0,1,1.7-5.328,8.217,8.217,0,0,1,1.472-3.36a6.678,6.678,0,0,1-.7,1.76A3.594,3.594,0,0,1-.52-.3,3.546,3.546,0,0,1-2.376.192Zm-1.6-1.848a2.131,2.131,0,0,0,1.6.664,2.131,2.131,0,0,0,1.6-.664A3.522,3.522,0,0,0,.1-3.248a8.315,8.315,0,0,0,.24-2.08A8.315,8.315,0,0,0,.1-7.408a3.468,3.468,0,0,0-.88-1.584,2.143,2.143,0,0,0-1.6-.656,2.143,2.143,0,0,0-1.6.656,3.468,3.468,0,0,0-.88,1.584,8.315,8.315,0,0,0-.24,2.08,8.315,8.315,0,0,0,.24,2.08A3.522,3.522,0,0,0-3.976-1.656ZM11.544.192A3.534,3.534,0,0,1,9.68-.3,3.614,3.614,0,0,1,8.4-1.6a6.678,6.678,0,0,1-.7-1.76,8.217,8.217,0,0,1-.232-1.968A8.217,8.217,0,0,1,7.7-7.3a6.553,6.553,0,0,1,.7-1.752,3.634,3.634,0,0,1,1.28-1.3,3.534,3.534,0,0,1,1.864-.488,3.546,3.546,0,0,1,1.856.488,3.614,3.614,0,0,1,1.288,1.3,6.554,6.554,0,0,1,.7,1.752,8.217,8.217,0,0,1,.232,1.968,8.217,8.217,0,0,1-.232,1.968,6.678,6.678,0,0,1-.7,1.76A3.594,3.594,0,0,1,13.4-.3,3.546,3.546,0,0,1,11.544.192Zm-1.6-1.848a2.131,2.131,0,0,0,1.6.664,2.131,2.131,0,0,0,1.6-.664,3.522,3.522,0,0,0,.88-1.592,8.315,8.315,0,0,0,.24-2.08,8.315,8.315,0,0,0-.24-2.08,3.468,3.468,0,0,0-.88-1.584,2.143,2.143,0,0,0-1.6-.656,2.143,2.143,0,0,0-1.6.656,3.468,3.468,0,0,0-.88,1.584,8.315,8.315,0,0,0-.24,2.08,8.315,8.315,0,0,0,.24,2.08A3.522,3.522,0,0,0,9.944-1.656ZM21.336.192A3.534,3.534,0,0,1,19.472-.3a3.614,3.614,0,0,1-1.28-1.3,6.678,6.678,0,0,1-.7-1.76,8.217,8.217,0,0,1-.232-1.968A8.217,8.217,0,0,1,17.488-7.3a6.554,6.554,0,0,1,.7-1.752,3.634,3.634,0,0,1,1.28-1.3,3.534,3.534,0,0,1,1.864-.488,3.546,3.546,0,0,1,1.856.488,3.614,3.614,0,0,1,1.288,1.3,6.553,6.553,0,0,1,.7,1.752,8.217,8.217,0,0,1,.232,1.968,8.217,8.217,0,0,1-.232,1.968,6.678,6.678,0,0,1-.7,1.76A3.594,3.594,0,0,1,23.192-.3,3.546,3.546,0,0,1,21.336.192Zm-1.6-1.848a2.131,2.131,0,0,0,1.6.664,2.131,2.131,0,0,0,1.6-.664,3.522,3.522,0,0,0,.88-1.592,8.315,8.315,0,0,0,.24-2.08,8.315,8.315,0,0,0-.24-2.08,3.468,3.468,0,0,0-.88-1.584,2.143,2.143,0,0,0-1.6-.656,2.143,2.143,0,0,0-1.6.656,3.468,3.468,0,0,0-.88,1.584,8.315,8.315,0,0,0-.24,2.08,8.315,8.315,0,0,0,.24,2.08A3.522,3.522,0,0,0,19.736-1.656ZM31.128.192A3.534,3.534,0,0,1,29.264-.3a3.614,3.614,0,0,1-1.28-1.3,6.678,6.678,0,0,1-.7-1.76,8.217,8.217,0,0,1-.232-1.968A8.217,8.217,0,0,1,27.28-7.3a6.554,6.554,0,0,1,.7-1.752,3.634,3.634,0,0,1,1.28-1.3,3.534,3.534,0,0,1,1.864-.488,3.546,3.546,0,0,1,1.856.488,3.614,3.614,0,0,1,1.288,1.3,6.554,6.554,0,0,1,.7,1.752,8.217,8.217,0,0,1,.232,1.968,8.217,8.217,0,0,1-.232,1.968,6.678,6.678,0,0,1-.7,1.76A3.594,3.594,0,0,1,32.984-.3,3.546,3.546,0,0,1,31.128.192Zm-1.6-1.848a2.131,2.131,0,0,0,1.6.664,2.131,2.131,0,0,0,1.6-.664,3.522,3.522,0,0,0,.88-1.592,8.315,8.315,0,0,0,.24-2.08,8.315,8.315,0,0,0-.24-2.08,3.468,3.468,0,0,0-.88-1.584,2.143,2.143,0,0,0-1.6-.656,2.143,2.143,0,0,0-1.6.656,3.468,3.468,0,0,0-.88,1.584,8.315,8.315,0,0,0-.24,2.08,8.315,8.315,0,0,0,.24,2.08A3.522,3.522,0,0,0,29.528-1.656Z" transform="translate(991 681)"/>
    <path id="Path_3970" data-name="Path 3970" class="cls-5" d="M-15.976,0H-23.3V-1.056q1.664-1.312,2.584-2.088t1.776-1.648a6.853,6.853,0,0,0,1.208-1.552A2.921,2.921,0,0,0-17.384-7.7a1.712,1.712,0,0,0-.656-1.456,2.525,2.525,0,0,0-1.568-.5A3.482,3.482,0,0,0-22.5-8.3l-.816-.848a4.016,4.016,0,0,1,1.592-1.24,5.134,5.134,0,0,1,2.12-.44,4.021,4.021,0,0,1,2.52.816A2.751,2.751,0,0,1-16.024-7.7,4.555,4.555,0,0,1-17.3-4.728a29.066,29.066,0,0,1-3.9,3.544h5.232Zm5.392,0h-1.328V-8.912L-13.624-7.1l-.8-.816,2.672-2.752h1.168ZM-.312.192A3.534,3.534,0,0,1-2.176-.3a3.614,3.614,0,0,1-1.28-1.3,6.678,6.678,0,0,1-.7-1.76,8.217,8.217,0,0,1-.232-1.968A8.217,8.217,0,0,1-4.16-7.3a6.553,6.553,0,0,1,.7-1.752,3.634,3.634,0,0,1,1.28-1.3,3.534,3.534,0,0,1,1.864-.488,3.546,3.546,0,0,1,1.856.488,3.614,3.614,0,0,1,1.288,1.3,6.554,6.554,0,0,1,.7,1.752,8.217,8.217,0,0,1,.232,1.968A8.217,8.217,0,0,1,3.536-3.36a6.678,6.678,0,0,1-.7,1.76A3.594,3.594,0,0,1,1.544-.3,3.546,3.546,0,0,1-.312.192Zm-1.6-1.848a2.131,2.131,0,0,0,1.6.664,2.131,2.131,0,0,0,1.6-.664,3.522,3.522,0,0,0,.88-1.592,8.315,8.315,0,0,0,.24-2.08,8.315,8.315,0,0,0-.24-2.08,3.468,3.468,0,0,0-.88-1.584,2.143,2.143,0,0,0-1.6-.656,2.143,2.143,0,0,0-1.6.656,3.468,3.468,0,0,0-.88,1.584,8.315,8.315,0,0,0-.24,2.08,8.315,8.315,0,0,0,.24,2.08A3.522,3.522,0,0,0-1.912-1.656ZM9.48.192A3.534,3.534,0,0,1,7.616-.3a3.614,3.614,0,0,1-1.28-1.3,6.678,6.678,0,0,1-.7-1.76A8.217,8.217,0,0,1,5.4-5.328,8.217,8.217,0,0,1,5.632-7.3a6.554,6.554,0,0,1,.7-1.752,3.634,3.634,0,0,1,1.28-1.3,3.534,3.534,0,0,1,1.864-.488,3.546,3.546,0,0,1,1.856.488,3.614,3.614,0,0,1,1.288,1.3,6.554,6.554,0,0,1,.7,1.752,8.217,8.217,0,0,1,.232,1.968,8.217,8.217,0,0,1-.232,1.968,6.678,6.678,0,0,1-.7,1.76A3.594,3.594,0,0,1,11.336-.3,3.546,3.546,0,0,1,9.48.192ZM7.88-1.656a2.131,2.131,0,0,0,1.6.664,2.131,2.131,0,0,0,1.6-.664,3.522,3.522,0,0,0,.88-1.592,8.315,8.315,0,0,0,.24-2.08,8.315,8.315,0,0,0-.24-2.08,3.468,3.468,0,0,0-.88-1.584,2.143,2.143,0,0,0-1.6-.656,2.143,2.143,0,0,0-1.6.656A3.468,3.468,0,0,0,7-7.408a8.315,8.315,0,0,0-.24,2.08A8.315,8.315,0,0,0,7-3.248,3.522,3.522,0,0,0,7.88-1.656ZM19.272.192A3.534,3.534,0,0,1,17.408-.3a3.614,3.614,0,0,1-1.28-1.3,6.678,6.678,0,0,1-.7-1.76,8.217,8.217,0,0,1-.232-1.968A8.217,8.217,0,0,1,15.424-7.3a6.553,6.553,0,0,1,.7-1.752,3.634,3.634,0,0,1,1.28-1.3,3.534,3.534,0,0,1,1.864-.488,3.546,3.546,0,0,1,1.856.488,3.614,3.614,0,0,1,1.288,1.3,6.554,6.554,0,0,1,.7,1.752,8.217,8.217,0,0,1,.232,1.968A8.217,8.217,0,0,1,23.12-3.36a6.678,6.678,0,0,1-.7,1.76A3.594,3.594,0,0,1,21.128-.3,3.546,3.546,0,0,1,19.272.192Zm-1.6-1.848a2.131,2.131,0,0,0,1.6.664,2.131,2.131,0,0,0,1.6-.664,3.522,3.522,0,0,0,.88-1.592,8.315,8.315,0,0,0,.24-2.08,8.315,8.315,0,0,0-.24-2.08,3.468,3.468,0,0,0-.88-1.584,2.143,2.143,0,0,0-1.6-.656,2.143,2.143,0,0,0-1.6.656,3.468,3.468,0,0,0-.88,1.584,8.315,8.315,0,0,0-.24,2.08,8.315,8.315,0,0,0,.24,2.08A3.522,3.522,0,0,0,17.672-1.656Z" transform="translate(806 627)"/>
    <path id="Path_3971" data-name="Path 3971" class="cls-5" d="M-36.76,0h-1.328V-8.912L-39.8-7.1l-.8-.816,2.672-2.752h1.168Zm6.144.192A3.534,3.534,0,0,1-32.48-.3a3.614,3.614,0,0,1-1.28-1.3,6.678,6.678,0,0,1-.7-1.76A8.217,8.217,0,0,1-34.7-5.328,8.217,8.217,0,0,1-34.464-7.3a6.554,6.554,0,0,1,.7-1.752,3.634,3.634,0,0,1,1.28-1.3,3.534,3.534,0,0,1,1.864-.488,3.546,3.546,0,0,1,1.856.488,3.614,3.614,0,0,1,1.288,1.3,6.553,6.553,0,0,1,.7,1.752,8.217,8.217,0,0,1,.232,1.968,8.217,8.217,0,0,1-.232,1.968,6.678,6.678,0,0,1-.7,1.76A3.594,3.594,0,0,1-28.76-.3,3.546,3.546,0,0,1-30.616.192Zm-1.6-1.848a2.131,2.131,0,0,0,1.6.664,2.131,2.131,0,0,0,1.6-.664,3.522,3.522,0,0,0,.88-1.592,8.315,8.315,0,0,0,.24-2.08,8.315,8.315,0,0,0-.24-2.08,3.468,3.468,0,0,0-.88-1.584,2.143,2.143,0,0,0-1.6-.656,2.143,2.143,0,0,0-1.6.656,3.468,3.468,0,0,0-.88,1.584,8.315,8.315,0,0,0-.24,2.08,8.315,8.315,0,0,0,.24,2.08A3.522,3.522,0,0,0-32.216-1.656ZM-16.776.192a4.428,4.428,0,0,1-3.76-1.712l.816-.88A3.552,3.552,0,0,0-16.776-.992,2.468,2.468,0,0,0-15-1.648a2.163,2.163,0,0,0,.688-1.632,2.175,2.175,0,0,0-.68-1.672,2.493,2.493,0,0,0-1.768-.632,3.386,3.386,0,0,0-2.464,1.008l-.976-.336v-5.76h6.528v1.184h-5.2v3.712a3.377,3.377,0,0,1,2.5-.96,3.4,3.4,0,0,1,2.4.92,3.228,3.228,0,0,1,.992,2.488,3.268,3.268,0,0,1-1.072,2.56A3.924,3.924,0,0,1-16.776.192Zm9.52,0A3.534,3.534,0,0,1-9.12-.3,3.614,3.614,0,0,1-10.4-1.6a6.678,6.678,0,0,1-.7-1.76,8.217,8.217,0,0,1-.232-1.968A8.217,8.217,0,0,1-11.1-7.3a6.553,6.553,0,0,1,.7-1.752,3.634,3.634,0,0,1,1.28-1.3,3.534,3.534,0,0,1,1.864-.488,3.546,3.546,0,0,1,1.856.488,3.614,3.614,0,0,1,1.288,1.3,6.554,6.554,0,0,1,.7,1.752,8.217,8.217,0,0,1,.232,1.968A8.217,8.217,0,0,1-3.408-3.36a6.678,6.678,0,0,1-.7,1.76A3.594,3.594,0,0,1-5.4-.3,3.546,3.546,0,0,1-7.256.192Zm-1.6-1.848a2.131,2.131,0,0,0,1.6.664,2.131,2.131,0,0,0,1.6-.664,3.522,3.522,0,0,0,.88-1.592,8.315,8.315,0,0,0,.24-2.08,8.315,8.315,0,0,0-.24-2.08,3.468,3.468,0,0,0-.88-1.584,2.143,2.143,0,0,0-1.6-.656,2.143,2.143,0,0,0-1.6.656,3.468,3.468,0,0,0-.88,1.584,8.315,8.315,0,0,0-.24,2.08,8.315,8.315,0,0,0,.24,2.08A3.522,3.522,0,0,0-8.856-1.656ZM2.536.192A3.534,3.534,0,0,1,.672-.3,3.614,3.614,0,0,1-.608-1.6a6.678,6.678,0,0,1-.7-1.76,8.217,8.217,0,0,1-.232-1.968A8.217,8.217,0,0,1-1.312-7.3a6.554,6.554,0,0,1,.7-1.752,3.634,3.634,0,0,1,1.28-1.3,3.534,3.534,0,0,1,1.864-.488,3.546,3.546,0,0,1,1.856.488,3.614,3.614,0,0,1,1.288,1.3,6.554,6.554,0,0,1,.7,1.752,8.217,8.217,0,0,1,.232,1.968A8.217,8.217,0,0,1,6.384-3.36a6.678,6.678,0,0,1-.7,1.76A3.594,3.594,0,0,1,4.392-.3,3.546,3.546,0,0,1,2.536.192ZM.936-1.656a2.131,2.131,0,0,0,1.6.664,2.131,2.131,0,0,0,1.6-.664,3.522,3.522,0,0,0,.88-1.592,8.315,8.315,0,0,0,.24-2.08,8.315,8.315,0,0,0-.24-2.08,3.468,3.468,0,0,0-.88-1.584,2.143,2.143,0,0,0-1.6-.656,2.143,2.143,0,0,0-1.6.656,3.468,3.468,0,0,0-.88,1.584,8.315,8.315,0,0,0-.24,2.08,8.315,8.315,0,0,0,.24,2.08A3.522,3.522,0,0,0,.936-1.656ZM16.456.192A3.534,3.534,0,0,1,14.592-.3a3.614,3.614,0,0,1-1.28-1.3,6.678,6.678,0,0,1-.7-1.76,8.217,8.217,0,0,1-.232-1.968A8.217,8.217,0,0,1,12.608-7.3a6.553,6.553,0,0,1,.7-1.752,3.634,3.634,0,0,1,1.28-1.3,3.534,3.534,0,0,1,1.864-.488,3.546,3.546,0,0,1,1.856.488,3.614,3.614,0,0,1,1.288,1.3A6.553,6.553,0,0,1,20.3-7.3a8.217,8.217,0,0,1,.232,1.968A8.217,8.217,0,0,1,20.3-3.36a6.678,6.678,0,0,1-.7,1.76A3.594,3.594,0,0,1,18.312-.3,3.546,3.546,0,0,1,16.456.192Zm-1.6-1.848a2.131,2.131,0,0,0,1.6.664,2.131,2.131,0,0,0,1.6-.664,3.522,3.522,0,0,0,.88-1.592,8.315,8.315,0,0,0,.24-2.08,8.315,8.315,0,0,0-.24-2.08,3.468,3.468,0,0,0-.88-1.584,2.143,2.143,0,0,0-1.6-.656,2.143,2.143,0,0,0-1.6.656,3.468,3.468,0,0,0-.88,1.584,8.315,8.315,0,0,0-.24,2.08,8.315,8.315,0,0,0,.24,2.08A3.522,3.522,0,0,0,14.856-1.656ZM26.248.192A3.534,3.534,0,0,1,24.384-.3,3.614,3.614,0,0,1,23.1-1.6a6.678,6.678,0,0,1-.7-1.76,8.217,8.217,0,0,1-.232-1.968A8.217,8.217,0,0,1,22.4-7.3a6.554,6.554,0,0,1,.7-1.752,3.634,3.634,0,0,1,1.28-1.3,3.534,3.534,0,0,1,1.864-.488,3.546,3.546,0,0,1,1.856.488,3.614,3.614,0,0,1,1.288,1.3A6.553,6.553,0,0,1,30.1-7.3a8.217,8.217,0,0,1,.232,1.968A8.217,8.217,0,0,1,30.1-3.36a6.678,6.678,0,0,1-.7,1.76A3.594,3.594,0,0,1,28.1-.3,3.546,3.546,0,0,1,26.248.192Zm-1.6-1.848a2.131,2.131,0,0,0,1.6.664,2.131,2.131,0,0,0,1.6-.664,3.522,3.522,0,0,0,.88-1.592,8.315,8.315,0,0,0,.24-2.08,8.315,8.315,0,0,0-.24-2.08,3.468,3.468,0,0,0-.88-1.584,2.143,2.143,0,0,0-1.6-.656,2.143,2.143,0,0,0-1.6.656,3.468,3.468,0,0,0-.88,1.584,8.315,8.315,0,0,0-.24,2.08,8.315,8.315,0,0,0,.24,2.08A3.522,3.522,0,0,0,24.648-1.656ZM36.04.192A3.534,3.534,0,0,1,34.176-.3,3.614,3.614,0,0,1,32.9-1.6a6.678,6.678,0,0,1-.7-1.76,8.217,8.217,0,0,1-.232-1.968A8.217,8.217,0,0,1,32.192-7.3a6.554,6.554,0,0,1,.7-1.752,3.634,3.634,0,0,1,1.28-1.3,3.534,3.534,0,0,1,1.864-.488,3.546,3.546,0,0,1,1.856.488,3.614,3.614,0,0,1,1.288,1.3,6.554,6.554,0,0,1,.7,1.752,8.217,8.217,0,0,1,.232,1.968,8.217,8.217,0,0,1-.232,1.968,6.678,6.678,0,0,1-.7,1.76A3.594,3.594,0,0,1,37.9-.3,3.546,3.546,0,0,1,36.04.192Zm-1.6-1.848a2.131,2.131,0,0,0,1.6.664,2.131,2.131,0,0,0,1.6-.664,3.522,3.522,0,0,0,.88-1.592,8.315,8.315,0,0,0,.24-2.08,8.315,8.315,0,0,0-.24-2.08,3.468,3.468,0,0,0-.88-1.584,2.143,2.143,0,0,0-1.6-.656,2.143,2.143,0,0,0-1.6.656,3.468,3.468,0,0,0-.88,1.584,8.315,8.315,0,0,0-.24,2.08,8.315,8.315,0,0,0,.24,2.08A3.522,3.522,0,0,0,34.44-1.656Z" transform="translate(991 627)"/>
    <path id="Path_3964" data-name="Path 3964" class="cls-5" d="M-10.96.192A3.534,3.534,0,0,1-12.824-.3,3.614,3.614,0,0,1-14.1-1.6a6.678,6.678,0,0,1-.7-1.76,8.217,8.217,0,0,1-.232-1.968A8.217,8.217,0,0,1-14.808-7.3a6.553,6.553,0,0,1,.7-1.752,3.634,3.634,0,0,1,1.28-1.3,3.534,3.534,0,0,1,1.864-.488,3.546,3.546,0,0,1,1.856.488,3.614,3.614,0,0,1,1.288,1.3,6.554,6.554,0,0,1,.7,1.752A8.217,8.217,0,0,1-6.88-5.328,8.217,8.217,0,0,1-7.112-3.36a6.678,6.678,0,0,1-.7,1.76A3.594,3.594,0,0,1-9.1-.3,3.546,3.546,0,0,1-10.96.192Zm-1.6-1.848a2.131,2.131,0,0,0,1.6.664,2.131,2.131,0,0,0,1.6-.664,3.522,3.522,0,0,0,.88-1.592,8.315,8.315,0,0,0,.24-2.08,8.315,8.315,0,0,0-.24-2.08,3.468,3.468,0,0,0-.88-1.584,2.143,2.143,0,0,0-1.6-.656,2.143,2.143,0,0,0-1.6.656,3.468,3.468,0,0,0-.88,1.584,8.315,8.315,0,0,0-.24,2.08,8.315,8.315,0,0,0,.24,2.08A3.522,3.522,0,0,0-12.56-1.656ZM-4.1-.1A.849.849,0,0,1-4.72.16.849.849,0,0,1-5.344-.1.849.849,0,0,1-5.6-.72a.849.849,0,0,1,.256-.624A.849.849,0,0,1-4.72-1.6a.849.849,0,0,1,.624.256A.849.849,0,0,1-3.84-.72.849.849,0,0,1-4.1-.1ZM1.52.192A3.534,3.534,0,0,1-.344-.3a3.614,3.614,0,0,1-1.28-1.3,6.678,6.678,0,0,1-.7-1.76A8.217,8.217,0,0,1-2.56-5.328,8.217,8.217,0,0,1-2.328-7.3a6.554,6.554,0,0,1,.7-1.752,3.634,3.634,0,0,1,1.28-1.3,3.534,3.534,0,0,1,1.864-.488,3.546,3.546,0,0,1,1.856.488,3.614,3.614,0,0,1,1.288,1.3,6.554,6.554,0,0,1,.7,1.752A8.217,8.217,0,0,1,5.6-5.328,8.217,8.217,0,0,1,5.368-3.36a6.678,6.678,0,0,1-.7,1.76A3.594,3.594,0,0,1,3.376-.3,3.546,3.546,0,0,1,1.52.192ZM-.08-1.656a2.131,2.131,0,0,0,1.6.664,2.131,2.131,0,0,0,1.6-.664A3.522,3.522,0,0,0,4-3.248a8.315,8.315,0,0,0,.24-2.08A8.315,8.315,0,0,0,4-7.408a3.468,3.468,0,0,0-.88-1.584,2.143,2.143,0,0,0-1.6-.656,2.143,2.143,0,0,0-1.6.656A3.468,3.468,0,0,0-.96-7.408a8.315,8.315,0,0,0-.24,2.08,8.315,8.315,0,0,0,.24,2.08A3.522,3.522,0,0,0-.08-1.656ZM11.232.192A4.428,4.428,0,0,1,7.472-1.52l.816-.88A3.552,3.552,0,0,0,11.232-.992a2.468,2.468,0,0,0,1.776-.656A2.163,2.163,0,0,0,13.7-3.28a2.175,2.175,0,0,0-.68-1.672,2.493,2.493,0,0,0-1.768-.632A3.386,3.386,0,0,0,8.784-4.576l-.976-.336v-5.76h6.528v1.184h-5.2v3.712a3.377,3.377,0,0,1,2.5-.96,3.4,3.4,0,0,1,2.4.92,3.228,3.228,0,0,1,.992,2.488,3.268,3.268,0,0,1-1.072,2.56A3.924,3.924,0,0,1,11.232.192Z" transform="translate(991 573)"/>
    <path id="Path_3962" data-name="Path 3962" class="cls-5" d="M-6.568,0H-13.56V-10.672h6.992v1.184h-5.664v3.44H-6.68v1.184h-5.552v3.68h5.664Zm6.08,0H-1.816V-9.488H-5.192v-1.184H2.9v1.184H-.488ZM13.56,0H12.232V-4.9H5.992V0H4.664V-10.672H5.992V-6.08h6.24v-4.592H13.56Z" transform="translate(806 519)"/>
    <path id="Path_3963" data-name="Path 3963" class="cls-5" d="M-7.048-.968a4.282,4.282,0,0,1-3.24,1.16,4.282,4.282,0,0,1-3.24-1.16A4.4,4.4,0,0,1-14.64-4.144v-6.528h1.328v6.5a3.309,3.309,0,0,0,.784,2.336,2.9,2.9,0,0,0,2.24.848,2.9,2.9,0,0,0,2.24-.848,3.309,3.309,0,0,0,.784-2.336v-6.5h1.328V-4.16A4.422,4.422,0,0,1-7.048-.968ZM.016.192a5.2,5.2,0,0,1-4.1-1.7L-3.3-2.512A4.33,4.33,0,0,0,.064-.992a2.771,2.771,0,0,0,1.9-.552,1.691,1.691,0,0,0,.608-1.288,1.345,1.345,0,0,0-.352-.944,2.378,2.378,0,0,0-.9-.6A10.854,10.854,0,0,0,.088-4.768q-.68-.176-1.352-.392a6.923,6.923,0,0,1-1.224-.52,2.459,2.459,0,0,1-.9-.864,2.444,2.444,0,0,1-.352-1.328A2.6,2.6,0,0,1-2.7-10.008,4.094,4.094,0,0,1-.08-10.832,4.973,4.973,0,0,1,3.712-9.344l-.8.976A3.98,3.98,0,0,0-.176-9.648a2.517,2.517,0,0,0-1.576.472,1.473,1.473,0,0,0-.616,1.224,1.13,1.13,0,0,0,.472.928A3.117,3.117,0,0,0-.728-6.48q.7.176,1.52.44t1.52.56a2.751,2.751,0,0,1,1.168.952,2.64,2.64,0,0,1,.472,1.584A2.94,2.94,0,0,1,2.984-.72,4.2,4.2,0,0,1,.016.192ZM9.584,0H5.936V-10.672H9.584a5.34,5.34,0,0,1,3.96,1.52,5.2,5.2,0,0,1,1.512,3.824A5.166,5.166,0,0,1,13.544-1.5,5.371,5.371,0,0,1,9.584,0Zm0-1.184a3.893,3.893,0,0,0,2.992-1.184,4.173,4.173,0,0,0,1.1-2.96A4.23,4.23,0,0,0,12.592-8.3,3.881,3.881,0,0,0,9.584-9.488H7.264v8.3Z" transform="translate(991 519)"/>
  </g>
</svg>
