<svg xmlns="http://www.w3.org/2000/svg" viewBox="1353 -3769 749 322">
  <defs>
    <style>
      .cls-1 {
        fill: #352c6d;
      }

      .cls-2 {
        fill: #fff;
      }

      .cls-3 {
        fill: #fafafa;
      }

      .cls-4 {
        fill: #e8e8ec;
      }

      .cls-5 {
        fill: #172143;
      }
    </style>
  </defs>
  <g id="INITIAL_COIN_OFFERING" data-name="INITIAL COIN OFFERING" transform="translate(998 -4148)">
    <g id="Group_1548" data-name="Group 1548" transform="translate(22)">
      <rect id="Rectangle_511" data-name="Rectangle 511" class="cls-1" width="194" height="322" transform="translate(333 379)"/>
      <path id="Path_3093" data-name="Path 3093" class="cls-2" d="M5.552,0H3.68V-9.024H.448v-1.648H8.784v1.648H5.552Zm6.576.192A3.737,3.737,0,0,1,9.248-.984,4.1,4.1,0,0,1,8.16-3.872a4.066,4.066,0,0,1,1.088-2.88,3.75,3.75,0,0,1,2.88-1.168,3.769,3.769,0,0,1,2.9,1.168,4.066,4.066,0,0,1,1.088,2.88,4.087,4.087,0,0,1-1.088,2.9A3.769,3.769,0,0,1,12.128.192Zm0-1.488a1.993,1.993,0,0,0,1.64-.744,2.825,2.825,0,0,0,.6-1.832,2.8,2.8,0,0,0-.6-1.816,1.993,1.993,0,0,0-1.64-.744,1.976,1.976,0,0,0-1.624.744,2.8,2.8,0,0,0-.6,1.816,2.825,2.825,0,0,0,.6,1.832A1.976,1.976,0,0,0,12.128-1.3ZM25.04,0H22.928L20.56-3.184l-1.072,1.1V0h-1.68V-10.672h1.68V-4L22.9-7.728h2.08l-3.216,3.5Zm4.672.192a3.964,3.964,0,0,1-2.9-1.128,3.941,3.941,0,0,1-1.144-2.936,4.025,4.025,0,0,1,1.112-2.872A3.7,3.7,0,0,1,29.584-7.92a3.508,3.508,0,0,1,2.76,1.184,4.393,4.393,0,0,1,1.048,3.024v.4H27.424a2.338,2.338,0,0,0,.752,1.52,2.418,2.418,0,0,0,1.712.608,3.39,3.39,0,0,0,1.192-.224,2.751,2.751,0,0,0,1-.624l.768,1.1A4.341,4.341,0,0,1,29.712.192ZM31.76-4.5a2.23,2.23,0,0,0-.584-1.424,2.013,2.013,0,0,0-1.592-.624,1.991,1.991,0,0,0-1.552.616A2.349,2.349,0,0,0,27.408-4.5ZM41.952,0h-1.68V-4.832a1.393,1.393,0,0,0-1.552-1.6,2.239,2.239,0,0,0-1.136.3,2.732,2.732,0,0,0-.848.736V0h-1.68V-7.728h1.68v1.056a3.66,3.66,0,0,1,1.152-.88,3.4,3.4,0,0,1,1.568-.368,2.509,2.509,0,0,1,1.864.64,2.509,2.509,0,0,1,.632,1.84ZM52.7,0H50.832V-9.024H47.6v-1.648h8.336v1.648H52.7ZM56.5,3.024l.256-1.5a1.559,1.559,0,0,0,.64.128A1.089,1.089,0,0,0,58.5.976L58.88.1,55.712-7.728H57.5L59.76-1.936l2.256-5.792h1.808L60.1,1.392A2.658,2.658,0,0,1,57.44,3.136,3.638,3.638,0,0,1,56.5,3.024ZM69.04.192a2.951,2.951,0,0,1-2.48-1.264V2.944H64.88V-7.728h1.68v1.056A2.937,2.937,0,0,1,69.04-7.92a3.131,3.131,0,0,1,2.472,1.088,4.339,4.339,0,0,1,.952,2.96A4.37,4.37,0,0,1,71.512-.9,3.121,3.121,0,0,1,69.04.192Zm-.5-1.488a1.946,1.946,0,0,0,1.584-.72,2.827,2.827,0,0,0,.592-1.856,2.8,2.8,0,0,0-.592-1.848,1.955,1.955,0,0,0-1.584-.712,2.358,2.358,0,0,0-1.136.3,2.321,2.321,0,0,0-.848.736v3.056a2.321,2.321,0,0,0,.848.736A2.357,2.357,0,0,0,68.544-1.3ZM77.7.192a3.964,3.964,0,0,1-2.9-1.128,3.941,3.941,0,0,1-1.144-2.936A4.025,4.025,0,0,1,74.76-6.744,3.7,3.7,0,0,1,77.568-7.92a3.508,3.508,0,0,1,2.76,1.184,4.393,4.393,0,0,1,1.048,3.024v.4H75.408a2.338,2.338,0,0,0,.752,1.52,2.418,2.418,0,0,0,1.712.608,3.39,3.39,0,0,0,1.192-.224,2.751,2.751,0,0,0,1-.624l.768,1.1A4.341,4.341,0,0,1,77.7.192ZM79.744-4.5A2.23,2.23,0,0,0,79.16-5.92a2.013,2.013,0,0,0-1.592-.624,1.991,1.991,0,0,0-1.552.616A2.349,2.349,0,0,0,75.392-4.5Z" transform="translate(352 412)"/>
      <path id="Path_3092" data-name="Path 3092" class="cls-2" d="M9.392,0H7.232L4.864-3.984H3.008V0H1.136V-10.672H5.824a3.484,3.484,0,0,1,2.528.928,3.21,3.21,0,0,1,.96,2.416,3.072,3.072,0,0,1-.736,2.152,3.04,3.04,0,0,1-1.792.984ZM5.568-5.632A1.879,1.879,0,0,0,6.88-6.1a1.582,1.582,0,0,0,.512-1.232A1.582,1.582,0,0,0,6.88-8.56a1.879,1.879,0,0,0-1.312-.464H3.008v3.392ZM17.216,0h-1.68V-.832A3.142,3.142,0,0,1,13.04.192a2.841,2.841,0,0,1-1.872-.68,2.315,2.315,0,0,1-.816-1.88A2.245,2.245,0,0,1,11.16-4.24a2.94,2.94,0,0,1,1.88-.64,3.1,3.1,0,0,1,2.5.992V-5.04a1.262,1.262,0,0,0-.5-1.056,2.085,2.085,0,0,0-1.312-.384A3.168,3.168,0,0,0,11.44-5.5l-.688-1.168A4.531,4.531,0,0,1,14-7.92a3.765,3.765,0,0,1,2.32.672,2.486,2.486,0,0,1,.9,2.128ZM13.7-.96a2.112,2.112,0,0,0,1.84-.8V-2.928a2.112,2.112,0,0,0-1.84-.8,1.8,1.8,0,0,0-1.184.384,1.245,1.245,0,0,0-.464,1.008,1.222,1.222,0,0,0,.464,1A1.82,1.82,0,0,0,13.7-.96ZM21.712.192a1.987,1.987,0,0,1-1.48-.512,2.011,2.011,0,0,1-.5-1.472V-6.256h-1.28V-7.728h1.28V-9.84h1.68v2.112h1.568v1.472H21.408v4.048a1.057,1.057,0,0,0,.192.664.648.648,0,0,0,.544.248.953.953,0,0,0,.752-.272L23.3-.3A2.238,2.238,0,0,1,21.712.192Zm6.352,0a3.964,3.964,0,0,1-2.9-1.128,3.941,3.941,0,0,1-1.144-2.936,4.025,4.025,0,0,1,1.112-2.872A3.7,3.7,0,0,1,27.936-7.92,3.508,3.508,0,0,1,30.7-6.736a4.393,4.393,0,0,1,1.048,3.024v.4H25.776a2.338,2.338,0,0,0,.752,1.52,2.418,2.418,0,0,0,1.712.608,3.39,3.39,0,0,0,1.192-.224,2.751,2.751,0,0,0,1-.624l.768,1.1A4.341,4.341,0,0,1,28.064.192ZM30.112-4.5a2.23,2.23,0,0,0-.584-1.424,2.013,2.013,0,0,0-1.592-.624,1.991,1.991,0,0,0-1.552.616A2.349,2.349,0,0,0,25.76-4.5ZM41.008.192a3.737,3.737,0,0,1-2.88-1.176A4.1,4.1,0,0,1,37.04-3.872a4.066,4.066,0,0,1,1.088-2.88,3.75,3.75,0,0,1,2.88-1.168,3.769,3.769,0,0,1,2.9,1.168,4.066,4.066,0,0,1,1.088,2.88A4.087,4.087,0,0,1,43.9-.976,3.769,3.769,0,0,1,41.008.192Zm0-1.488a1.993,1.993,0,0,0,1.64-.744,2.825,2.825,0,0,0,.6-1.832,2.8,2.8,0,0,0-.6-1.816,1.993,1.993,0,0,0-1.64-.744,1.976,1.976,0,0,0-1.624.744,2.8,2.8,0,0,0-.6,1.816,2.825,2.825,0,0,0,.6,1.832A1.976,1.976,0,0,0,41.008-1.3ZM48.768,0h-1.68V-6.256h-1.28V-7.728h1.28V-8.16a2.761,2.761,0,0,1,.664-1.96,2.322,2.322,0,0,1,1.784-.712,2.475,2.475,0,0,1,1.856.672l-.656,1.04a1.281,1.281,0,0,0-.9-.336.99.99,0,0,0-.784.328,1.428,1.428,0,0,0-.288.968v.432h1.568v1.472H48.768ZM59.3.192a3.964,3.964,0,0,1-2.9-1.128,3.941,3.941,0,0,1-1.144-2.936A4.025,4.025,0,0,1,56.36-6.744,3.7,3.7,0,0,1,59.168-7.92a3.508,3.508,0,0,1,2.76,1.184,4.393,4.393,0,0,1,1.048,3.024v.4H57.008a2.338,2.338,0,0,0,.752,1.52,2.418,2.418,0,0,0,1.712.608,3.39,3.39,0,0,0,1.192-.224,2.751,2.751,0,0,0,1-.624l.768,1.1A4.341,4.341,0,0,1,59.3.192ZM61.344-4.5A2.23,2.23,0,0,0,60.76-5.92a2.013,2.013,0,0,0-1.592-.624,1.991,1.991,0,0,0-1.552.616A2.349,2.349,0,0,0,56.992-4.5ZM71.408,0H69.52l-2-2.848L65.5,0H63.632l2.832-3.968-2.672-3.76H65.68L67.52-5.1l1.824-2.624h1.888L68.56-3.968Zm4.128.192a3.855,3.855,0,0,1-2.88-1.144,4,4,0,0,1-1.12-2.92,3.98,3.98,0,0,1,1.12-2.9,3.855,3.855,0,0,1,2.88-1.144A3.464,3.464,0,0,1,78.5-6.544l-1.1,1.024a2.05,2.05,0,0,0-1.776-.912,2.17,2.17,0,0,0-1.7.712,2.659,2.659,0,0,0-.64,1.848,2.689,2.689,0,0,0,.64,1.856,2.158,2.158,0,0,0,1.7.72,2.1,2.1,0,0,0,1.776-.912l1.1,1.024A3.464,3.464,0,0,1,75.536.192ZM86.88,0H85.2V-4.864a1.543,1.543,0,0,0-.408-1.208,1.7,1.7,0,0,0-1.16-.36,2.21,2.21,0,0,0-1.12.3,2.928,2.928,0,0,0-.864.736V0h-1.68V-10.672h1.68v4a3.638,3.638,0,0,1,1.16-.88,3.444,3.444,0,0,1,1.576-.368,2.185,2.185,0,0,1,2.5,2.448Zm8.576,0h-1.68V-.832A3.142,3.142,0,0,1,91.28.192a2.841,2.841,0,0,1-1.872-.68,2.315,2.315,0,0,1-.816-1.88A2.245,2.245,0,0,1,89.4-4.24a2.94,2.94,0,0,1,1.88-.64,3.1,3.1,0,0,1,2.5.992V-5.04a1.262,1.262,0,0,0-.5-1.056,2.085,2.085,0,0,0-1.312-.384A3.168,3.168,0,0,0,89.68-5.5l-.688-1.168A4.531,4.531,0,0,1,92.24-7.92a3.765,3.765,0,0,1,2.32.672,2.486,2.486,0,0,1,.9,2.128Zm-3.52-.96a2.112,2.112,0,0,0,1.84-.8V-2.928a2.112,2.112,0,0,0-1.84-.8,1.8,1.8,0,0,0-1.184.384,1.245,1.245,0,0,0-.464,1.008,1.222,1.222,0,0,0,.464,1A1.82,1.82,0,0,0,91.936-.96ZM104.528,0h-1.68V-4.832a1.393,1.393,0,0,0-1.552-1.6,2.239,2.239,0,0,0-1.136.3,2.732,2.732,0,0,0-.848.736V0h-1.68V-7.728h1.68v1.056a3.66,3.66,0,0,1,1.152-.88,3.4,3.4,0,0,1,1.568-.368,2.508,2.508,0,0,1,1.864.64,2.509,2.509,0,0,1,.632,1.84Zm5.312,3.136a4.613,4.613,0,0,1-3.232-1.152l.784-1.216a3.072,3.072,0,0,0,2.448.992,2.608,2.608,0,0,0,1.624-.5,1.87,1.87,0,0,0,.664-1.592v-.928a3.022,3.022,0,0,1-2.48,1.28,3.174,3.174,0,0,1-2.472-1.056,4.191,4.191,0,0,1-.952-2.912,4.2,4.2,0,0,1,.952-2.9,3.162,3.162,0,0,1,2.472-1.064,2.978,2.978,0,0,1,2.48,1.264V-7.728h1.68V-.4a3.991,3.991,0,0,1-.344,1.72,2.562,2.562,0,0,1-.936,1.1,4.3,4.3,0,0,1-1.256.544A5.825,5.825,0,0,1,109.84,3.136Zm.3-4.608a2.357,2.357,0,0,0,1.136-.3,2.321,2.321,0,0,0,.848-.736v-2.88a2.321,2.321,0,0,0-.848-.736,2.358,2.358,0,0,0-1.136-.3,2,2,0,0,0-1.584.68,2.644,2.644,0,0,0-.592,1.8,2.644,2.644,0,0,0,.592,1.8A2,2,0,0,0,110.144-1.472ZM119.552.192a3.964,3.964,0,0,1-2.9-1.128A3.941,3.941,0,0,1,115.5-3.872a4.025,4.025,0,0,1,1.112-2.872,3.7,3.7,0,0,1,2.808-1.176,3.508,3.508,0,0,1,2.76,1.184,4.393,4.393,0,0,1,1.048,3.024v.4h-5.968a2.338,2.338,0,0,0,.752,1.52,2.418,2.418,0,0,0,1.712.608,3.39,3.39,0,0,0,1.192-.224,2.751,2.751,0,0,0,1-.624l.768,1.1A4.341,4.341,0,0,1,119.552.192ZM121.6-4.5a2.23,2.23,0,0,0-.584-1.424,2.013,2.013,0,0,0-1.592-.624,1.991,1.991,0,0,0-1.552.616,2.349,2.349,0,0,0-.624,1.432ZM131.088,0h-1.68V-6.256h-1.28V-7.728h1.28V-8.16a2.761,2.761,0,0,1,.664-1.96,2.322,2.322,0,0,1,1.784-.712,2.475,2.475,0,0,1,1.856.672l-.656,1.04a1.281,1.281,0,0,0-.9-.336.99.99,0,0,0-.784.328,1.428,1.428,0,0,0-.288.968v.432h1.568v1.472h-1.568Zm6.336.192a3.737,3.737,0,0,1-2.88-1.176,4.1,4.1,0,0,1-1.088-2.888,4.066,4.066,0,0,1,1.088-2.88,3.75,3.75,0,0,1,2.88-1.168,3.769,3.769,0,0,1,2.9,1.168,4.066,4.066,0,0,1,1.088,2.88,4.087,4.087,0,0,1-1.088,2.9A3.769,3.769,0,0,1,137.424.192Zm0-1.488a1.993,1.993,0,0,0,1.64-.744,2.825,2.825,0,0,0,.6-1.832,2.8,2.8,0,0,0-.6-1.816,1.993,1.993,0,0,0-1.64-.744,1.976,1.976,0,0,0-1.624.744,2.8,2.8,0,0,0-.6,1.816,2.825,2.825,0,0,0,.6,1.832A1.976,1.976,0,0,0,137.424-1.3Zm7.36,1.3H143.1V-7.728h1.68v1.136a3.573,3.573,0,0,1,1.12-.944A2.862,2.862,0,0,1,147.3-7.9V-6.24a2.547,2.547,0,0,0-.528-.048,2.458,2.458,0,0,0-1.128.312,2.173,2.173,0,0,0-.856.712ZM8.448,16H1.136V5.328H8.448V6.976H3.008V9.744H8.336v1.648H3.008v2.96h5.44Zm6.336,0H12.912V6.976H9.68V5.328h8.336V6.976H14.784ZM28.9,16H27.024V11.344H21.472V16H19.6V5.328h1.872V9.7h5.552V5.328H28.9Zm2.384.32H30.032L33.824,5.008h1.248Zm9.552-.128a4.654,4.654,0,0,1-3.448-1.184,4.362,4.362,0,0,1-1.176-3.216V5.328H38.1v6.4a2.857,2.857,0,0,0,.712,2.048,2.654,2.654,0,0,0,2.024.752,2.627,2.627,0,0,0,2.016-.752,2.877,2.877,0,0,0,.7-2.048v-6.4H45.44v6.448a4.384,4.384,0,0,1-1.176,3.232A4.631,4.631,0,0,1,40.832,16.192Zm10.528,0a5.644,5.644,0,0,1-4.336-1.7l1.04-1.44a4.442,4.442,0,0,0,3.376,1.472,2.526,2.526,0,0,0,1.608-.432,1.283,1.283,0,0,0,.536-1.024,1.084,1.084,0,0,0-.64-.968,5.789,5.789,0,0,0-1.552-.568q-.912-.208-1.832-.5A3.533,3.533,0,0,1,48,10.064a2.5,2.5,0,0,1-.64-1.776,2.772,2.772,0,0,1,1.08-2.232,4.278,4.278,0,0,1,2.808-.888,5.507,5.507,0,0,1,4,1.488L54.176,8.048a4.184,4.184,0,0,0-3.088-1.216,2.177,2.177,0,0,0-1.32.36,1.142,1.142,0,0,0-.488.968.827.827,0,0,0,.344.672,2.709,2.709,0,0,0,.888.44q.544.168,1.208.328t1.328.392a6.152,6.152,0,0,1,1.208.568,2.605,2.605,0,0,1,.888.928,2.755,2.755,0,0,1,.344,1.408,3.032,3.032,0,0,1-1.04,2.368A4.509,4.509,0,0,1,51.36,16.192ZM61.184,16H57.216V5.328h3.968a5.584,5.584,0,0,1,4.032,1.488,5.1,5.1,0,0,1,1.552,3.856,5.1,5.1,0,0,1-1.544,3.84A5.578,5.578,0,0,1,61.184,16Zm0-1.648A3.491,3.491,0,0,0,63.856,13.3a3.685,3.685,0,0,0,.992-2.624,3.744,3.744,0,0,0-.968-2.656,3.5,3.5,0,0,0-2.7-1.04h-2.1v7.376Z" transform="translate(352 458)"/>
      <path id="Path_3091" data-name="Path 3091" class="cls-2" d="M5.552,0H3.68V-9.024H.448v-1.648H8.784v1.648H5.552Zm6.576.192A3.737,3.737,0,0,1,9.248-.984,4.1,4.1,0,0,1,8.16-3.872a4.066,4.066,0,0,1,1.088-2.88,3.75,3.75,0,0,1,2.88-1.168,3.769,3.769,0,0,1,2.9,1.168,4.066,4.066,0,0,1,1.088,2.88,4.087,4.087,0,0,1-1.088,2.9A3.769,3.769,0,0,1,12.128.192Zm0-1.488a1.993,1.993,0,0,0,1.64-.744,2.825,2.825,0,0,0,.6-1.832,2.8,2.8,0,0,0-.6-1.816,1.993,1.993,0,0,0-1.64-.744,1.976,1.976,0,0,0-1.624.744,2.8,2.8,0,0,0-.6,1.816,2.825,2.825,0,0,0,.6,1.832A1.976,1.976,0,0,0,12.128-1.3ZM25.04,0H22.928L20.56-3.184l-1.072,1.1V0h-1.68V-10.672h1.68V-4L22.9-7.728h2.08l-3.216,3.5Zm4.672.192a3.964,3.964,0,0,1-2.9-1.128,3.941,3.941,0,0,1-1.144-2.936,4.025,4.025,0,0,1,1.112-2.872A3.7,3.7,0,0,1,29.584-7.92a3.508,3.508,0,0,1,2.76,1.184,4.393,4.393,0,0,1,1.048,3.024v.4H27.424a2.338,2.338,0,0,0,.752,1.52,2.418,2.418,0,0,0,1.712.608,3.39,3.39,0,0,0,1.192-.224,2.751,2.751,0,0,0,1-.624l.768,1.1A4.341,4.341,0,0,1,29.712.192ZM31.76-4.5a2.23,2.23,0,0,0-.584-1.424,2.013,2.013,0,0,0-1.592-.624,1.991,1.991,0,0,0-1.552.616A2.349,2.349,0,0,0,27.408-4.5ZM41.952,0h-1.68V-4.832a1.393,1.393,0,0,0-1.552-1.6,2.239,2.239,0,0,0-1.136.3,2.732,2.732,0,0,0-.848.736V0h-1.68V-7.728h1.68v1.056a3.66,3.66,0,0,1,1.152-.88,3.4,3.4,0,0,1,1.568-.368,2.509,2.509,0,0,1,1.864.64,2.509,2.509,0,0,1,.632,1.84ZM57.536,0H55.728L50.16-7.616V0H48.288V-10.672h1.92l5.456,7.408v-7.408h1.872ZM66.16,0H64.48V-.832a3.142,3.142,0,0,1-2.5,1.024,2.841,2.841,0,0,1-1.872-.68,2.315,2.315,0,0,1-.816-1.88A2.245,2.245,0,0,1,60.1-4.24a2.94,2.94,0,0,1,1.88-.64,3.1,3.1,0,0,1,2.5.992V-5.04a1.262,1.262,0,0,0-.5-1.056,2.085,2.085,0,0,0-1.312-.384,3.168,3.168,0,0,0-2.288.976L59.7-6.672A4.531,4.531,0,0,1,62.944-7.92a3.765,3.765,0,0,1,2.32.672,2.486,2.486,0,0,1,.9,2.128ZM62.64-.96a2.112,2.112,0,0,0,1.84-.8V-2.928a2.112,2.112,0,0,0-1.84-.8,1.8,1.8,0,0,0-1.184.384,1.245,1.245,0,0,0-.464,1.008,1.222,1.222,0,0,0,.464,1A1.82,1.82,0,0,0,62.64-.96ZM79.488,0h-1.68V-5.04q0-1.392-1.264-1.392a1.935,1.935,0,0,0-1.024.3,2.384,2.384,0,0,0-.768.72V0h-1.68V-5.04q0-1.392-1.28-1.392a1.869,1.869,0,0,0-1,.3,2.508,2.508,0,0,0-.776.736V0h-1.68V-7.728h1.68v1.056a2.926,2.926,0,0,1,1-.84,2.994,2.994,0,0,1,1.512-.408A1.959,1.959,0,0,1,74.64-6.5a3.154,3.154,0,0,1,1.088-1,2.978,2.978,0,0,1,1.536-.424q2.224,0,2.224,2.336Zm5.744.192a3.964,3.964,0,0,1-2.9-1.128,3.941,3.941,0,0,1-1.144-2.936A4.025,4.025,0,0,1,82.3-6.744,3.7,3.7,0,0,1,85.1-7.92a3.508,3.508,0,0,1,2.76,1.184,4.393,4.393,0,0,1,1.048,3.024v.4H82.944a2.338,2.338,0,0,0,.752,1.52,2.418,2.418,0,0,0,1.712.608A3.39,3.39,0,0,0,86.6-1.408a2.751,2.751,0,0,0,1-.624l.768,1.1A4.341,4.341,0,0,1,85.232.192ZM87.28-4.5A2.23,2.23,0,0,0,86.7-5.92,2.013,2.013,0,0,0,85.1-6.544a1.991,1.991,0,0,0-1.552.616A2.349,2.349,0,0,0,82.928-4.5Z" transform="translate(352 522)"/>
      <path id="Path_3094" data-name="Path 3094" class="cls-2" d="M5.552,0H3.68V-9.024H.448v-1.648H8.784v1.648H5.552Zm6.576.192A3.737,3.737,0,0,1,9.248-.984,4.1,4.1,0,0,1,8.16-3.872a4.066,4.066,0,0,1,1.088-2.88,3.75,3.75,0,0,1,2.88-1.168,3.769,3.769,0,0,1,2.9,1.168,4.066,4.066,0,0,1,1.088,2.88,4.087,4.087,0,0,1-1.088,2.9A3.769,3.769,0,0,1,12.128.192Zm0-1.488a1.993,1.993,0,0,0,1.64-.744,2.825,2.825,0,0,0,.6-1.832,2.8,2.8,0,0,0-.6-1.816,1.993,1.993,0,0,0-1.64-.744,1.976,1.976,0,0,0-1.624.744,2.8,2.8,0,0,0-.6,1.816,2.825,2.825,0,0,0,.6,1.832A1.976,1.976,0,0,0,12.128-1.3ZM25.04,0H22.928L20.56-3.184l-1.072,1.1V0h-1.68V-10.672h1.68V-4L22.9-7.728h2.08l-3.216,3.5Zm4.672.192a3.964,3.964,0,0,1-2.9-1.128,3.941,3.941,0,0,1-1.144-2.936,4.025,4.025,0,0,1,1.112-2.872A3.7,3.7,0,0,1,29.584-7.92a3.508,3.508,0,0,1,2.76,1.184,4.393,4.393,0,0,1,1.048,3.024v.4H27.424a2.338,2.338,0,0,0,.752,1.52,2.418,2.418,0,0,0,1.712.608,3.39,3.39,0,0,0,1.192-.224,2.751,2.751,0,0,0,1-.624l.768,1.1A4.341,4.341,0,0,1,29.712.192ZM31.76-4.5a2.23,2.23,0,0,0-.584-1.424,2.013,2.013,0,0,0-1.592-.624,1.991,1.991,0,0,0-1.552.616A2.349,2.349,0,0,0,27.408-4.5ZM41.952,0h-1.68V-4.832a1.393,1.393,0,0,0-1.552-1.6,2.239,2.239,0,0,0-1.136.3,2.732,2.732,0,0,0-.848.736V0h-1.68V-7.728h1.68v1.056a3.66,3.66,0,0,1,1.152-.88,3.4,3.4,0,0,1,1.568-.368,2.509,2.509,0,0,1,1.864.64,2.509,2.509,0,0,1,.632,1.84ZM53.7,0H51.36L47.168-10.672H49.3l3.232,8.64,3.232-8.64h2.128ZM64.368,0h-1.68V-.832a3.142,3.142,0,0,1-2.5,1.024,2.841,2.841,0,0,1-1.872-.68,2.315,2.315,0,0,1-.816-1.88,2.245,2.245,0,0,1,.808-1.872,2.94,2.94,0,0,1,1.88-.64,3.1,3.1,0,0,1,2.5.992V-5.04a1.262,1.262,0,0,0-.5-1.056A2.085,2.085,0,0,0,60.88-6.48a3.168,3.168,0,0,0-2.288.976L57.9-6.672A4.531,4.531,0,0,1,61.152-7.92a3.765,3.765,0,0,1,2.32.672,2.486,2.486,0,0,1,.9,2.128Zm-3.52-.96a2.112,2.112,0,0,0,1.84-.8V-2.928a2.112,2.112,0,0,0-1.84-.8,1.8,1.8,0,0,0-1.184.384A1.245,1.245,0,0,0,59.2-2.336a1.222,1.222,0,0,0,.464,1A1.82,1.82,0,0,0,60.848-.96ZM68.224,0h-1.68V-10.672h1.68ZM77.3,0h-1.68V-1.024A3.516,3.516,0,0,1,72.88.192,2.178,2.178,0,0,1,70.4-2.256V-7.728h1.68v4.864a1.561,1.561,0,0,0,.4,1.208,1.666,1.666,0,0,0,1.152.36,2.335,2.335,0,0,0,1.136-.288,2.56,2.56,0,0,0,.848-.72V-7.728H77.3ZM83.04.192a3.964,3.964,0,0,1-2.9-1.128,3.941,3.941,0,0,1-1.144-2.936A4.025,4.025,0,0,1,80.1-6.744,3.7,3.7,0,0,1,82.912-7.92a3.508,3.508,0,0,1,2.76,1.184A4.393,4.393,0,0,1,86.72-3.712v.4H80.752a2.338,2.338,0,0,0,.752,1.52,2.418,2.418,0,0,0,1.712.608,3.39,3.39,0,0,0,1.192-.224,2.751,2.751,0,0,0,1-.624l.768,1.1A4.341,4.341,0,0,1,83.04.192ZM85.088-4.5A2.23,2.23,0,0,0,84.5-5.92a2.013,2.013,0,0,0-1.592-.624,1.991,1.991,0,0,0-1.552.616A2.349,2.349,0,0,0,80.736-4.5Z" transform="translate(352 577)"/>
      <path id="Path_3095" data-name="Path 3095" class="cls-2" d="M10.432,0H8.56V-4.656H3.008V0H1.136V-10.672H3.008V-6.3H8.56v-4.368h1.872Zm8.624,0h-1.68V-.832A3.142,3.142,0,0,1,14.88.192a2.841,2.841,0,0,1-1.872-.68,2.315,2.315,0,0,1-.816-1.88A2.245,2.245,0,0,1,13-4.24a2.94,2.94,0,0,1,1.88-.64,3.1,3.1,0,0,1,2.5.992V-5.04a1.262,1.262,0,0,0-.5-1.056,2.085,2.085,0,0,0-1.312-.384A3.168,3.168,0,0,0,13.28-5.5l-.688-1.168A4.531,4.531,0,0,1,15.84-7.92a3.765,3.765,0,0,1,2.32.672,2.486,2.486,0,0,1,.9,2.128Zm-3.52-.96a2.112,2.112,0,0,0,1.84-.8V-2.928a2.112,2.112,0,0,0-1.84-.8,1.8,1.8,0,0,0-1.184.384,1.245,1.245,0,0,0-.464,1.008,1.222,1.222,0,0,0,.464,1A1.82,1.82,0,0,0,15.536-.96ZM22.912,0h-1.68V-7.728h1.68v1.136a3.573,3.573,0,0,1,1.12-.944A2.862,2.862,0,0,1,25.424-7.9V-6.24a2.547,2.547,0,0,0-.528-.048,2.458,2.458,0,0,0-1.128.312,2.173,2.173,0,0,0-.856.712ZM33.9,0h-1.68V-1.056A2.991,2.991,0,0,1,29.744.192,3.155,3.155,0,0,1,27.264-.9a4.316,4.316,0,0,1-.96-2.96,4.353,4.353,0,0,1,.96-2.96,3.134,3.134,0,0,1,2.48-1.1,2.978,2.978,0,0,1,2.48,1.264v-4.016H33.9Zm-3.68-1.3a2.49,2.49,0,0,0,1.152-.288,2.141,2.141,0,0,0,.848-.736V-5.392a2.2,2.2,0,0,0-.848-.744,2.437,2.437,0,0,0-1.152-.3,1.946,1.946,0,0,0-1.584.72,2.827,2.827,0,0,0-.592,1.856,2.8,2.8,0,0,0,.592,1.848A1.955,1.955,0,0,0,30.224-1.3ZM45.36.192a5.532,5.532,0,0,1-4-1.544,5.282,5.282,0,0,1-1.6-3.976A5.282,5.282,0,0,1,41.36-9.3a5.532,5.532,0,0,1,4-1.544,4.78,4.78,0,0,1,4.288,2.4l-1.6.816a3.112,3.112,0,0,0-1.128-1.12,3.006,3.006,0,0,0-1.56-.432A3.5,3.5,0,0,0,42.728-8.1,3.827,3.827,0,0,0,41.68-5.328,3.827,3.827,0,0,0,42.728-2.56,3.5,3.5,0,0,0,45.36-1.472,2.992,2.992,0,0,0,46.928-1.9a3.13,3.13,0,0,0,1.12-1.12l1.6.816A4.827,4.827,0,0,1,45.36.192ZM57.5,0h-1.68V-.832a3.142,3.142,0,0,1-2.5,1.024,2.841,2.841,0,0,1-1.872-.68,2.315,2.315,0,0,1-.816-1.88,2.245,2.245,0,0,1,.808-1.872,2.94,2.94,0,0,1,1.88-.64,3.1,3.1,0,0,1,2.5.992V-5.04a1.262,1.262,0,0,0-.5-1.056,2.085,2.085,0,0,0-1.312-.384,3.168,3.168,0,0,0-2.288.976L51.04-6.672A4.531,4.531,0,0,1,54.288-7.92a3.765,3.765,0,0,1,2.32.672,2.486,2.486,0,0,1,.9,2.128Zm-3.52-.96a2.112,2.112,0,0,0,1.84-.8V-2.928a2.112,2.112,0,0,0-1.84-.8,1.8,1.8,0,0,0-1.184.384,1.245,1.245,0,0,0-.464,1.008,1.222,1.222,0,0,0,.464,1A1.82,1.82,0,0,0,53.984-.96ZM63.84.192a2.951,2.951,0,0,1-2.48-1.264V2.944H59.68V-7.728h1.68v1.056A2.936,2.936,0,0,1,63.84-7.92a3.131,3.131,0,0,1,2.472,1.088,4.339,4.339,0,0,1,.952,2.96A4.37,4.37,0,0,1,66.312-.9,3.121,3.121,0,0,1,63.84.192Zm-.5-1.488a1.946,1.946,0,0,0,1.584-.72,2.827,2.827,0,0,0,.592-1.856,2.8,2.8,0,0,0-.592-1.848,1.955,1.955,0,0,0-1.584-.712,2.357,2.357,0,0,0-1.136.3,2.321,2.321,0,0,0-.848.736v3.056a2.321,2.321,0,0,0,.848.736A2.357,2.357,0,0,0,63.344-1.3Z" transform="translate(352 632)"/>
      <path id="Path_3096" data-name="Path 3096" class="cls-2" d="M4.784.192A5.644,5.644,0,0,1,.448-1.5l1.04-1.44A4.442,4.442,0,0,0,4.864-1.472,2.526,2.526,0,0,0,6.472-1.9a1.283,1.283,0,0,0,.536-1.024,1.084,1.084,0,0,0-.64-.968,5.789,5.789,0,0,0-1.552-.568q-.912-.208-1.832-.5a3.533,3.533,0,0,1-1.56-.976,2.5,2.5,0,0,1-.64-1.776,2.772,2.772,0,0,1,1.08-2.232,4.278,4.278,0,0,1,2.808-.888,5.507,5.507,0,0,1,4,1.488L7.6-7.952A4.184,4.184,0,0,0,4.512-9.168a2.177,2.177,0,0,0-1.32.36A1.142,1.142,0,0,0,2.7-7.84a.827.827,0,0,0,.344.672,2.709,2.709,0,0,0,.888.44q.544.168,1.208.328t1.328.392A6.152,6.152,0,0,1,7.68-5.44a2.605,2.605,0,0,1,.888.928A2.755,2.755,0,0,1,8.912-3.1,3.032,3.032,0,0,1,7.872-.736,4.509,4.509,0,0,1,4.784.192Zm9.3,0A3.737,3.737,0,0,1,11.2-.984a4.1,4.1,0,0,1-1.088-2.888A4.066,4.066,0,0,1,11.2-6.752,3.75,3.75,0,0,1,14.08-7.92a3.769,3.769,0,0,1,2.9,1.168,4.066,4.066,0,0,1,1.088,2.88,4.087,4.087,0,0,1-1.088,2.9A3.769,3.769,0,0,1,14.08.192Zm0-1.488a1.993,1.993,0,0,0,1.64-.744,2.825,2.825,0,0,0,.6-1.832,2.8,2.8,0,0,0-.6-1.816,1.993,1.993,0,0,0-1.64-.744,1.976,1.976,0,0,0-1.624.744,2.8,2.8,0,0,0-.6,1.816,2.825,2.825,0,0,0,.6,1.832A1.976,1.976,0,0,0,14.08-1.3ZM21.84,0H20.16V-6.256H18.88V-7.728h1.28V-8.16a2.761,2.761,0,0,1,.664-1.96,2.322,2.322,0,0,1,1.784-.712,2.475,2.475,0,0,1,1.856.672l-.656,1.04a1.281,1.281,0,0,0-.9-.336.99.99,0,0,0-.784.328,1.428,1.428,0,0,0-.288.968v.432h1.568v1.472H21.84Zm5.168.192a1.987,1.987,0,0,1-1.48-.512,2.011,2.011,0,0,1-.5-1.472V-6.256h-1.28V-7.728h1.28V-9.84H26.7v2.112h1.568v1.472H26.7v4.048a1.057,1.057,0,0,0,.192.664.648.648,0,0,0,.544.248.953.953,0,0,0,.752-.272l.4,1.264A2.238,2.238,0,0,1,27.008.192Zm12.064,0a5.532,5.532,0,0,1-4-1.544,5.282,5.282,0,0,1-1.6-3.976,5.282,5.282,0,0,1,1.6-3.976,5.532,5.532,0,0,1,4-1.544,4.78,4.78,0,0,1,4.288,2.4l-1.6.816a3.112,3.112,0,0,0-1.128-1.12,3.006,3.006,0,0,0-1.56-.432A3.5,3.5,0,0,0,36.44-8.1a3.827,3.827,0,0,0-1.048,2.768A3.827,3.827,0,0,0,36.44-2.56a3.5,3.5,0,0,0,2.632,1.088A2.992,2.992,0,0,0,40.64-1.9a3.13,3.13,0,0,0,1.12-1.12l1.6.816A4.827,4.827,0,0,1,39.072.192ZM51.216,0h-1.68V-.832A3.142,3.142,0,0,1,47.04.192a2.841,2.841,0,0,1-1.872-.68,2.315,2.315,0,0,1-.816-1.88A2.245,2.245,0,0,1,45.16-4.24a2.94,2.94,0,0,1,1.88-.64,3.1,3.1,0,0,1,2.5.992V-5.04a1.262,1.262,0,0,0-.5-1.056,2.085,2.085,0,0,0-1.312-.384A3.168,3.168,0,0,0,45.44-5.5l-.688-1.168A4.531,4.531,0,0,1,48-7.92a3.765,3.765,0,0,1,2.32.672,2.486,2.486,0,0,1,.9,2.128ZM47.7-.96a2.112,2.112,0,0,0,1.84-.8V-2.928a2.112,2.112,0,0,0-1.84-.8,1.8,1.8,0,0,0-1.184.384,1.245,1.245,0,0,0-.464,1.008,1.222,1.222,0,0,0,.464,1A1.82,1.82,0,0,0,47.7-.96ZM57.552.192a2.951,2.951,0,0,1-2.48-1.264V2.944h-1.68V-7.728h1.68v1.056a2.936,2.936,0,0,1,2.48-1.248,3.131,3.131,0,0,1,2.472,1.088,4.339,4.339,0,0,1,.952,2.96A4.37,4.37,0,0,1,60.024-.9,3.121,3.121,0,0,1,57.552.192Zm-.5-1.488a1.946,1.946,0,0,0,1.584-.72,2.827,2.827,0,0,0,.592-1.856A2.8,2.8,0,0,0,58.64-5.72a1.955,1.955,0,0,0-1.584-.712,2.357,2.357,0,0,0-1.136.3,2.321,2.321,0,0,0-.848.736v3.056a2.321,2.321,0,0,0,.848.736A2.357,2.357,0,0,0,57.056-1.3Z" transform="translate(352 687)"/>
      <rect id="Rectangle_512" data-name="Rectangle 512" class="cls-3" width="182" height="51" transform="translate(530 380)"/>
      <rect id="Rectangle_513" data-name="Rectangle 513" class="cls-3" width="367" height="51" transform="translate(715 380)"/>
      <rect id="Rectangle_514" data-name="Rectangle 514" class="cls-3" width="367" height="51" transform="translate(714 434)"/>
      <rect id="Rectangle_512-2" data-name="Rectangle 512" class="cls-3" width="182" height="51" transform="translate(530 434)"/>
      <rect id="Rectangle_512-3" data-name="Rectangle 512" class="cls-4" width="182" height="51" transform="translate(530 488)"/>
      <rect id="Rectangle_512-4" data-name="Rectangle 512" class="cls-4" width="182" height="51" transform="translate(715 488)"/>
      <rect id="Rectangle_512-5" data-name="Rectangle 512" class="cls-4" width="182" height="51" transform="translate(900 488)"/>
      <rect id="Rectangle_512-6" data-name="Rectangle 512" class="cls-4" width="182" height="51" transform="translate(530 542)"/>
      <rect id="Rectangle_512-7" data-name="Rectangle 512" class="cls-4" width="182" height="51" transform="translate(715 542)"/>
      <rect id="Rectangle_512-8" data-name="Rectangle 512" class="cls-4" width="182" height="51" transform="translate(900 542)"/>
      <rect id="Rectangle_512-9" data-name="Rectangle 512" class="cls-3" width="182" height="51" transform="translate(530 596)"/>
      <rect id="Rectangle_512-10" data-name="Rectangle 512" class="cls-3" width="182" height="51" transform="translate(715 596)"/>
      <rect id="Rectangle_512-11" data-name="Rectangle 512" class="cls-3" width="182" height="51" transform="translate(900 596)"/>
      <rect id="Rectangle_512-12" data-name="Rectangle 512" class="cls-3" width="182" height="51" transform="translate(530 650)"/>
      <rect id="Rectangle_512-13" data-name="Rectangle 512" class="cls-3" width="182" height="51" transform="translate(715 650)"/>
      <rect id="Rectangle_512-14" data-name="Rectangle 512" class="cls-3" width="182" height="51" transform="translate(900 650)"/>
      <path id="Path_3102" data-name="Path 3102" class="cls-5" d="M8.24,0H1.248V-10.672H8.24v1.184H2.576v3.44H8.128v1.184H2.576v3.68H8.24ZM18.1,0H16.528l-2.72-4.24H11.68V0H10.352V-10.672H14.64a3.367,3.367,0,0,1,2.416.88,3.069,3.069,0,0,1,.928,2.336,3,3,0,0,1-.8,2.192,3.012,3.012,0,0,1-1.968.912ZM14.48-5.408a2.11,2.11,0,0,0,1.536-.576,1.965,1.965,0,0,0,.592-1.472,1.939,1.939,0,0,0-.592-1.464,2.127,2.127,0,0,0-1.536-.568h-2.8v4.08ZM25.136.192a5.369,5.369,0,0,1-3.912-1.544,5.323,5.323,0,0,1-1.576-3.976A5.323,5.323,0,0,1,21.224-9.3a5.369,5.369,0,0,1,3.912-1.544,4.7,4.7,0,0,1,4.048,2.112l-1.12.624a3.527,3.527,0,0,0-1.248-1.12,3.427,3.427,0,0,0-1.68-.432A3.9,3.9,0,0,0,22.2-8.44a4.309,4.309,0,0,0-1.176,3.112A4.309,4.309,0,0,0,22.2-2.216,3.9,3.9,0,0,0,25.136-.992a3.478,3.478,0,0,0,1.68-.424,3.4,3.4,0,0,0,1.248-1.128L29.2-1.92A4.816,4.816,0,0,1,25.136.192Zm9.408,0A3.534,3.534,0,0,1,32.68-.3,3.614,3.614,0,0,1,31.4-1.6a6.678,6.678,0,0,1-.7-1.76,8.217,8.217,0,0,1-.232-1.968A8.217,8.217,0,0,1,30.7-7.3a6.554,6.554,0,0,1,.7-1.752,3.634,3.634,0,0,1,1.28-1.3,3.534,3.534,0,0,1,1.864-.488,3.546,3.546,0,0,1,1.856.488,3.614,3.614,0,0,1,1.288,1.3,6.554,6.554,0,0,1,.7,1.752,8.217,8.217,0,0,1,.232,1.968,8.217,8.217,0,0,1-.232,1.968,6.678,6.678,0,0,1-.7,1.76A3.594,3.594,0,0,1,36.4-.3,3.546,3.546,0,0,1,34.544.192Zm-1.6-1.848a2.131,2.131,0,0,0,1.6.664,2.131,2.131,0,0,0,1.6-.664,3.522,3.522,0,0,0,.88-1.592,8.315,8.315,0,0,0,.24-2.08,8.315,8.315,0,0,0-.24-2.08,3.468,3.468,0,0,0-.88-1.584,2.143,2.143,0,0,0-1.6-.656,2.143,2.143,0,0,0-1.6.656,3.468,3.468,0,0,0-.88,1.584,8.315,8.315,0,0,0-.24,2.08,8.315,8.315,0,0,0,.24,2.08A3.522,3.522,0,0,0,32.944-1.656ZM47.632,0H40.3V-1.056q1.664-1.312,2.584-2.088t1.776-1.648a6.853,6.853,0,0,0,1.208-1.552A2.921,2.921,0,0,0,46.224-7.7a1.712,1.712,0,0,0-.656-1.456A2.525,2.525,0,0,0,44-9.648,3.482,3.482,0,0,0,41.1-8.3l-.816-.848a4.016,4.016,0,0,1,1.592-1.24,5.134,5.134,0,0,1,2.12-.44,4.021,4.021,0,0,1,2.52.816A2.751,2.751,0,0,1,47.584-7.7,4.555,4.555,0,0,1,46.3-4.728a29.066,29.066,0,0,1-3.9,3.544h5.232Zm6.112.192A3.534,3.534,0,0,1,51.88-.3,3.614,3.614,0,0,1,50.6-1.6a6.678,6.678,0,0,1-.7-1.76,8.217,8.217,0,0,1-.232-1.968A8.217,8.217,0,0,1,49.9-7.3a6.554,6.554,0,0,1,.7-1.752,3.634,3.634,0,0,1,1.28-1.3,3.534,3.534,0,0,1,1.864-.488,3.546,3.546,0,0,1,1.856.488,3.614,3.614,0,0,1,1.288,1.3,6.554,6.554,0,0,1,.7,1.752,8.217,8.217,0,0,1,.232,1.968,8.217,8.217,0,0,1-.232,1.968,6.678,6.678,0,0,1-.7,1.76A3.594,3.594,0,0,1,55.6-.3,3.546,3.546,0,0,1,53.744.192Zm-1.6-1.848a2.131,2.131,0,0,0,1.6.664,2.131,2.131,0,0,0,1.6-.664,3.522,3.522,0,0,0,.88-1.592,8.315,8.315,0,0,0,.24-2.08,8.315,8.315,0,0,0-.24-2.08,3.468,3.468,0,0,0-.88-1.584,2.143,2.143,0,0,0-1.6-.656,2.143,2.143,0,0,0-1.6.656,3.468,3.468,0,0,0-.88,1.584,8.315,8.315,0,0,0-.24,2.08,8.315,8.315,0,0,0,.24,2.08A3.522,3.522,0,0,0,52.144-1.656Z" transform="translate(592 411)"/>
      <path id="Path_3101" data-name="Path 3101" class="cls-5" d="M-9.7.192a4.428,4.428,0,0,1-3.76-1.712l.816-.88A3.552,3.552,0,0,0-9.7-.992,2.468,2.468,0,0,0-7.92-1.648,2.163,2.163,0,0,0-7.232-3.28a2.175,2.175,0,0,0-.68-1.672A2.493,2.493,0,0,0-9.68-5.584a3.386,3.386,0,0,0-2.464,1.008l-.976-.336v-5.76h6.528v1.184h-5.2v3.712a3.377,3.377,0,0,1,2.5-.96,3.4,3.4,0,0,1,2.4.92A3.228,3.228,0,0,1-5.9-3.328,3.268,3.268,0,0,1-6.976-.768,3.924,3.924,0,0,1-9.7.192Zm9.52,0A3.534,3.534,0,0,1-2.04-.3,3.614,3.614,0,0,1-3.32-1.6a6.678,6.678,0,0,1-.7-1.76,8.217,8.217,0,0,1-.232-1.968A8.217,8.217,0,0,1-4.024-7.3a6.554,6.554,0,0,1,.7-1.752,3.634,3.634,0,0,1,1.28-1.3,3.534,3.534,0,0,1,1.864-.488,3.546,3.546,0,0,1,1.856.488,3.614,3.614,0,0,1,1.288,1.3,6.554,6.554,0,0,1,.7,1.752A8.217,8.217,0,0,1,3.9-5.328,8.217,8.217,0,0,1,3.672-3.36a6.678,6.678,0,0,1-.7,1.76A3.594,3.594,0,0,1,1.68-.3,3.546,3.546,0,0,1-.176.192Zm-1.6-1.848a2.131,2.131,0,0,0,1.6.664,2.131,2.131,0,0,0,1.6-.664A3.522,3.522,0,0,0,2.3-3.248a8.315,8.315,0,0,0,.24-2.08,8.315,8.315,0,0,0-.24-2.08,3.468,3.468,0,0,0-.88-1.584,2.143,2.143,0,0,0-1.6-.656,2.143,2.143,0,0,0-1.6.656,3.468,3.468,0,0,0-.88,1.584,8.315,8.315,0,0,0-.24,2.08,8.315,8.315,0,0,0,.24,2.08A3.522,3.522,0,0,0-1.776-1.656ZM9.616.192A3.534,3.534,0,0,1,7.752-.3a3.614,3.614,0,0,1-1.28-1.3,6.678,6.678,0,0,1-.7-1.76,8.217,8.217,0,0,1-.232-1.968A8.217,8.217,0,0,1,5.768-7.3a6.554,6.554,0,0,1,.7-1.752,3.634,3.634,0,0,1,1.28-1.3,3.534,3.534,0,0,1,1.864-.488,3.546,3.546,0,0,1,1.856.488,3.614,3.614,0,0,1,1.288,1.3,6.554,6.554,0,0,1,.7,1.752A8.217,8.217,0,0,1,13.7-5.328a8.217,8.217,0,0,1-.232,1.968,6.678,6.678,0,0,1-.7,1.76A3.594,3.594,0,0,1,11.472-.3,3.546,3.546,0,0,1,9.616.192Zm-1.6-1.848a2.131,2.131,0,0,0,1.6.664,2.131,2.131,0,0,0,1.6-.664,3.522,3.522,0,0,0,.88-1.592,8.315,8.315,0,0,0,.24-2.08,8.315,8.315,0,0,0-.24-2.08,3.468,3.468,0,0,0-.88-1.584,2.143,2.143,0,0,0-1.6-.656,2.143,2.143,0,0,0-1.6.656,3.468,3.468,0,0,0-.88,1.584,8.315,8.315,0,0,0-.24,2.08,8.315,8.315,0,0,0,.24,2.08A3.522,3.522,0,0,0,8.016-1.656Z" transform="translate(621 465)"/>
      <path id="Path_3100" data-name="Path 3100" class="cls-5" d="M-12.576,0h-3.648V-10.672h3.648a5.34,5.34,0,0,1,3.96,1.52A5.2,5.2,0,0,1-7.1-5.328,5.166,5.166,0,0,1-8.616-1.5,5.371,5.371,0,0,1-12.576,0Zm0-1.184A3.893,3.893,0,0,0-9.584-2.368a4.173,4.173,0,0,0,1.1-2.96A4.23,4.23,0,0,0-9.568-8.3a3.881,3.881,0,0,0-3.008-1.184H-14.9v8.3ZM-3.7,0H-5.024V-10.672H-3.7ZM3.856.192A5.369,5.369,0,0,1-.056-1.352,5.323,5.323,0,0,1-1.632-5.328,5.323,5.323,0,0,1-.056-9.3a5.369,5.369,0,0,1,3.912-1.544A4.7,4.7,0,0,1,7.9-8.736l-1.12.624a3.527,3.527,0,0,0-1.248-1.12,3.427,3.427,0,0,0-1.68-.432A3.9,3.9,0,0,0,.92-8.44,4.309,4.309,0,0,0-.256-5.328,4.309,4.309,0,0,0,.92-2.216,3.9,3.9,0,0,0,3.856-.992a3.478,3.478,0,0,0,1.68-.424A3.4,3.4,0,0,0,6.784-2.544L7.92-1.92A4.816,4.816,0,0,1,3.856.192ZM16.608,0H9.616V-10.672h6.992v1.184H10.944v3.44H16.5v1.184H10.944v3.68h5.664Z" transform="translate(621 519)"/>
      <path id="Path_3099" data-name="Path 3099" class="cls-5" d="M1.464,0H.136V-8.912L-1.576-7.1l-.8-.816L.3-10.672H1.464Z" transform="translate(621 572)"/>
      <path id="Path_3104" data-name="Path 3104" class="cls-5" d="M-18.744.192A3.534,3.534,0,0,1-20.608-.3a3.614,3.614,0,0,1-1.28-1.3,6.678,6.678,0,0,1-.7-1.76,8.217,8.217,0,0,1-.232-1.968A8.217,8.217,0,0,1-22.592-7.3a6.554,6.554,0,0,1,.7-1.752,3.634,3.634,0,0,1,1.28-1.3,3.534,3.534,0,0,1,1.864-.488,3.546,3.546,0,0,1,1.856.488,3.614,3.614,0,0,1,1.288,1.3A6.554,6.554,0,0,1-14.9-7.3a8.217,8.217,0,0,1,.232,1.968A8.217,8.217,0,0,1-14.9-3.36a6.678,6.678,0,0,1-.7,1.76A3.594,3.594,0,0,1-16.888-.3,3.546,3.546,0,0,1-18.744.192Zm-1.6-1.848a2.131,2.131,0,0,0,1.6.664,2.131,2.131,0,0,0,1.6-.664,3.522,3.522,0,0,0,.88-1.592,8.315,8.315,0,0,0,.24-2.08,8.315,8.315,0,0,0-.24-2.08,3.468,3.468,0,0,0-.88-1.584,2.143,2.143,0,0,0-1.6-.656,2.143,2.143,0,0,0-1.6.656,3.468,3.468,0,0,0-.88,1.584,8.315,8.315,0,0,0-.24,2.08,8.315,8.315,0,0,0,.24,2.08A3.522,3.522,0,0,0-20.344-1.656ZM-11.88-.1A.849.849,0,0,1-12.5.16.849.849,0,0,1-13.128-.1a.849.849,0,0,1-.256-.624.849.849,0,0,1,.256-.624A.849.849,0,0,1-12.5-1.6a.849.849,0,0,1,.624.256.849.849,0,0,1,.256.624A.849.849,0,0,1-11.88-.1Zm5.616.288A3.534,3.534,0,0,1-8.128-.3a3.614,3.614,0,0,1-1.28-1.3,6.678,6.678,0,0,1-.7-1.76,8.217,8.217,0,0,1-.232-1.968A8.217,8.217,0,0,1-10.112-7.3a6.553,6.553,0,0,1,.7-1.752,3.634,3.634,0,0,1,1.28-1.3,3.534,3.534,0,0,1,1.864-.488,3.546,3.546,0,0,1,1.856.488,3.614,3.614,0,0,1,1.288,1.3,6.554,6.554,0,0,1,.7,1.752,8.217,8.217,0,0,1,.232,1.968A8.217,8.217,0,0,1-2.416-3.36a6.678,6.678,0,0,1-.7,1.76A3.594,3.594,0,0,1-4.408-.3,3.546,3.546,0,0,1-6.264.192Zm-1.6-1.848a2.131,2.131,0,0,0,1.6.664,2.131,2.131,0,0,0,1.6-.664,3.522,3.522,0,0,0,.88-1.592,8.315,8.315,0,0,0,.24-2.08,8.315,8.315,0,0,0-.24-2.08,3.468,3.468,0,0,0-.88-1.584,2.143,2.143,0,0,0-1.6-.656,2.143,2.143,0,0,0-1.6.656,3.468,3.468,0,0,0-.88,1.584,8.315,8.315,0,0,0-.24,2.08,8.315,8.315,0,0,0,.24,2.08A3.522,3.522,0,0,0-7.864-1.656ZM3.528.192A3.534,3.534,0,0,1,1.664-.3,3.614,3.614,0,0,1,.384-1.6a6.678,6.678,0,0,1-.7-1.76A8.217,8.217,0,0,1-.552-5.328,8.217,8.217,0,0,1-.32-7.3a6.554,6.554,0,0,1,.7-1.752,3.634,3.634,0,0,1,1.28-1.3,3.534,3.534,0,0,1,1.864-.488,3.546,3.546,0,0,1,1.856.488,3.614,3.614,0,0,1,1.288,1.3,6.554,6.554,0,0,1,.7,1.752,8.217,8.217,0,0,1,.232,1.968A8.217,8.217,0,0,1,7.376-3.36a6.678,6.678,0,0,1-.7,1.76A3.594,3.594,0,0,1,5.384-.3,3.546,3.546,0,0,1,3.528.192Zm-1.6-1.848a2.131,2.131,0,0,0,1.6.664,2.131,2.131,0,0,0,1.6-.664,3.522,3.522,0,0,0,.88-1.592,8.315,8.315,0,0,0,.24-2.08,8.315,8.315,0,0,0-.24-2.08,3.468,3.468,0,0,0-.88-1.584,2.143,2.143,0,0,0-1.6-.656,2.143,2.143,0,0,0-1.6.656,3.468,3.468,0,0,0-.88,1.584,8.315,8.315,0,0,0-.24,2.08,8.315,8.315,0,0,0,.24,2.08A3.522,3.522,0,0,0,1.928-1.656ZM13.32.192A3.534,3.534,0,0,1,11.456-.3a3.614,3.614,0,0,1-1.28-1.3,6.678,6.678,0,0,1-.7-1.76A8.217,8.217,0,0,1,9.24-5.328,8.217,8.217,0,0,1,9.472-7.3a6.553,6.553,0,0,1,.7-1.752,3.634,3.634,0,0,1,1.28-1.3,3.534,3.534,0,0,1,1.864-.488,3.546,3.546,0,0,1,1.856.488,3.614,3.614,0,0,1,1.288,1.3,6.554,6.554,0,0,1,.7,1.752A8.217,8.217,0,0,1,17.4-5.328a8.217,8.217,0,0,1-.232,1.968,6.678,6.678,0,0,1-.7,1.76A3.594,3.594,0,0,1,15.176-.3,3.546,3.546,0,0,1,13.32.192Zm-1.6-1.848a2.131,2.131,0,0,0,1.6.664,2.131,2.131,0,0,0,1.6-.664,3.522,3.522,0,0,0,.88-1.592,8.315,8.315,0,0,0,.24-2.08,8.315,8.315,0,0,0-.24-2.08,3.468,3.468,0,0,0-.88-1.584,2.143,2.143,0,0,0-1.6-.656,2.143,2.143,0,0,0-1.6.656,3.468,3.468,0,0,0-.88,1.584,8.315,8.315,0,0,0-.24,2.08,8.315,8.315,0,0,0,.24,2.08A3.522,3.522,0,0,0,11.72-1.656ZM22.392,0H21.064V-8.912L19.352-7.1l-.8-.816,2.672-2.752h1.168Z" transform="translate(806 572)"/>
      <path id="Path_3098" data-name="Path 3098" class="cls-5" d="M-37.624,0h-7.328V-1.056q1.664-1.312,2.584-2.088t1.776-1.648a6.853,6.853,0,0,0,1.208-1.552A2.921,2.921,0,0,0-39.032-7.7a1.712,1.712,0,0,0-.656-1.456,2.525,2.525,0,0,0-1.568-.5,3.482,3.482,0,0,0-2.9,1.344l-.816-.848a4.016,4.016,0,0,1,1.592-1.24,5.134,5.134,0,0,1,2.12-.44,4.021,4.021,0,0,1,2.52.816A2.751,2.751,0,0,1-37.672-7.7a4.555,4.555,0,0,1-1.28,2.968,29.066,29.066,0,0,1-3.9,3.544h5.232Zm5.392,0H-33.56V-8.912L-35.272-7.1l-.8-.816,2.672-2.752h1.168Zm6.144.192A3.534,3.534,0,0,1-27.952-.3a3.614,3.614,0,0,1-1.28-1.3,6.678,6.678,0,0,1-.7-1.76,8.217,8.217,0,0,1-.232-1.968A8.217,8.217,0,0,1-29.936-7.3a6.554,6.554,0,0,1,.7-1.752,3.634,3.634,0,0,1,1.28-1.3,3.534,3.534,0,0,1,1.864-.488,3.546,3.546,0,0,1,1.856.488,3.614,3.614,0,0,1,1.288,1.3,6.553,6.553,0,0,1,.7,1.752,8.217,8.217,0,0,1,.232,1.968A8.217,8.217,0,0,1-22.24-3.36a6.678,6.678,0,0,1-.7,1.76A3.594,3.594,0,0,1-24.232-.3,3.546,3.546,0,0,1-26.088.192Zm-1.6-1.848a2.131,2.131,0,0,0,1.6.664,2.131,2.131,0,0,0,1.6-.664,3.522,3.522,0,0,0,.88-1.592,8.315,8.315,0,0,0,.24-2.08,8.315,8.315,0,0,0-.24-2.08,3.468,3.468,0,0,0-.88-1.584,2.143,2.143,0,0,0-1.6-.656,2.143,2.143,0,0,0-1.6.656,3.468,3.468,0,0,0-.88,1.584,8.315,8.315,0,0,0-.24,2.08,8.315,8.315,0,0,0,.24,2.08A3.522,3.522,0,0,0-27.688-1.656ZM-12.168.192A3.534,3.534,0,0,1-14.032-.3a3.614,3.614,0,0,1-1.28-1.3,6.678,6.678,0,0,1-.7-1.76,8.217,8.217,0,0,1-.232-1.968A8.217,8.217,0,0,1-16.016-7.3a6.553,6.553,0,0,1,.7-1.752,3.634,3.634,0,0,1,1.28-1.3,3.534,3.534,0,0,1,1.864-.488,3.546,3.546,0,0,1,1.856.488,3.614,3.614,0,0,1,1.288,1.3A6.554,6.554,0,0,1-8.32-7.3a8.217,8.217,0,0,1,.232,1.968A8.217,8.217,0,0,1-8.32-3.36a6.678,6.678,0,0,1-.7,1.76A3.594,3.594,0,0,1-10.312-.3,3.546,3.546,0,0,1-12.168.192Zm-1.6-1.848a2.131,2.131,0,0,0,1.6.664,2.131,2.131,0,0,0,1.6-.664,3.522,3.522,0,0,0,.88-1.592,8.315,8.315,0,0,0,.24-2.08,8.315,8.315,0,0,0-.24-2.08,3.468,3.468,0,0,0-.88-1.584,2.143,2.143,0,0,0-1.6-.656,2.143,2.143,0,0,0-1.6.656,3.468,3.468,0,0,0-.88,1.584,8.315,8.315,0,0,0-.24,2.08,8.315,8.315,0,0,0,.24,2.08A3.522,3.522,0,0,0-13.768-1.656ZM-2.376.192A3.534,3.534,0,0,1-4.24-.3,3.614,3.614,0,0,1-5.52-1.6a6.678,6.678,0,0,1-.7-1.76,8.217,8.217,0,0,1-.232-1.968A8.217,8.217,0,0,1-6.224-7.3a6.554,6.554,0,0,1,.7-1.752,3.634,3.634,0,0,1,1.28-1.3,3.534,3.534,0,0,1,1.864-.488,3.546,3.546,0,0,1,1.856.488,3.614,3.614,0,0,1,1.288,1.3,6.554,6.554,0,0,1,.7,1.752A8.217,8.217,0,0,1,1.7-5.328,8.217,8.217,0,0,1,1.472-3.36a6.678,6.678,0,0,1-.7,1.76A3.594,3.594,0,0,1-.52-.3,3.546,3.546,0,0,1-2.376.192Zm-1.6-1.848a2.131,2.131,0,0,0,1.6.664,2.131,2.131,0,0,0,1.6-.664A3.522,3.522,0,0,0,.1-3.248a8.315,8.315,0,0,0,.24-2.08A8.315,8.315,0,0,0,.1-7.408a3.468,3.468,0,0,0-.88-1.584,2.143,2.143,0,0,0-1.6-.656,2.143,2.143,0,0,0-1.6.656,3.468,3.468,0,0,0-.88,1.584,8.315,8.315,0,0,0-.24,2.08,8.315,8.315,0,0,0,.24,2.08A3.522,3.522,0,0,0-3.976-1.656ZM7.416.192A3.534,3.534,0,0,1,5.552-.3a3.614,3.614,0,0,1-1.28-1.3,6.678,6.678,0,0,1-.7-1.76,8.217,8.217,0,0,1-.232-1.968A8.217,8.217,0,0,1,3.568-7.3a6.554,6.554,0,0,1,.7-1.752,3.634,3.634,0,0,1,1.28-1.3,3.534,3.534,0,0,1,1.864-.488,3.546,3.546,0,0,1,1.856.488,3.614,3.614,0,0,1,1.288,1.3,6.554,6.554,0,0,1,.7,1.752A8.217,8.217,0,0,1,11.5-5.328a8.217,8.217,0,0,1-.232,1.968,6.678,6.678,0,0,1-.7,1.76A3.594,3.594,0,0,1,9.272-.3,3.546,3.546,0,0,1,7.416.192Zm-1.6-1.848a2.131,2.131,0,0,0,1.6.664,2.131,2.131,0,0,0,1.6-.664A3.522,3.522,0,0,0,9.9-3.248a8.315,8.315,0,0,0,.24-2.08,8.315,8.315,0,0,0-.24-2.08,3.468,3.468,0,0,0-.88-1.584,2.143,2.143,0,0,0-1.6-.656,2.143,2.143,0,0,0-1.6.656,3.468,3.468,0,0,0-.88,1.584,8.315,8.315,0,0,0-.24,2.08,8.315,8.315,0,0,0,.24,2.08A3.522,3.522,0,0,0,5.816-1.656ZM21.336.192A3.534,3.534,0,0,1,19.472-.3a3.614,3.614,0,0,1-1.28-1.3,6.678,6.678,0,0,1-.7-1.76,8.217,8.217,0,0,1-.232-1.968A8.217,8.217,0,0,1,17.488-7.3a6.554,6.554,0,0,1,.7-1.752,3.634,3.634,0,0,1,1.28-1.3,3.534,3.534,0,0,1,1.864-.488,3.546,3.546,0,0,1,1.856.488,3.614,3.614,0,0,1,1.288,1.3,6.553,6.553,0,0,1,.7,1.752,8.217,8.217,0,0,1,.232,1.968,8.217,8.217,0,0,1-.232,1.968,6.678,6.678,0,0,1-.7,1.76A3.594,3.594,0,0,1,23.192-.3,3.546,3.546,0,0,1,21.336.192Zm-1.6-1.848a2.131,2.131,0,0,0,1.6.664,2.131,2.131,0,0,0,1.6-.664,3.522,3.522,0,0,0,.88-1.592,8.315,8.315,0,0,0,.24-2.08,8.315,8.315,0,0,0-.24-2.08,3.468,3.468,0,0,0-.88-1.584,2.143,2.143,0,0,0-1.6-.656,2.143,2.143,0,0,0-1.6.656,3.468,3.468,0,0,0-.88,1.584,8.315,8.315,0,0,0-.24,2.08,8.315,8.315,0,0,0,.24,2.08A3.522,3.522,0,0,0,19.736-1.656ZM31.128.192A3.534,3.534,0,0,1,29.264-.3a3.614,3.614,0,0,1-1.28-1.3,6.678,6.678,0,0,1-.7-1.76,8.217,8.217,0,0,1-.232-1.968A8.217,8.217,0,0,1,27.28-7.3a6.554,6.554,0,0,1,.7-1.752,3.634,3.634,0,0,1,1.28-1.3,3.534,3.534,0,0,1,1.864-.488,3.546,3.546,0,0,1,1.856.488,3.614,3.614,0,0,1,1.288,1.3,6.554,6.554,0,0,1,.7,1.752,8.217,8.217,0,0,1,.232,1.968,8.217,8.217,0,0,1-.232,1.968,6.678,6.678,0,0,1-.7,1.76A3.594,3.594,0,0,1,32.984-.3,3.546,3.546,0,0,1,31.128.192Zm-1.6-1.848a2.131,2.131,0,0,0,1.6.664,2.131,2.131,0,0,0,1.6-.664,3.522,3.522,0,0,0,.88-1.592,8.315,8.315,0,0,0,.24-2.08,8.315,8.315,0,0,0-.24-2.08,3.468,3.468,0,0,0-.88-1.584,2.143,2.143,0,0,0-1.6-.656,2.143,2.143,0,0,0-1.6.656,3.468,3.468,0,0,0-.88,1.584,8.315,8.315,0,0,0-.24,2.08,8.315,8.315,0,0,0,.24,2.08A3.522,3.522,0,0,0,29.528-1.656ZM40.92.192A3.534,3.534,0,0,1,39.056-.3a3.614,3.614,0,0,1-1.28-1.3,6.678,6.678,0,0,1-.7-1.76,8.217,8.217,0,0,1-.232-1.968A8.217,8.217,0,0,1,37.072-7.3a6.554,6.554,0,0,1,.7-1.752,3.634,3.634,0,0,1,1.28-1.3,3.534,3.534,0,0,1,1.864-.488,3.546,3.546,0,0,1,1.856.488,3.614,3.614,0,0,1,1.288,1.3,6.554,6.554,0,0,1,.7,1.752A8.217,8.217,0,0,1,45-5.328a8.217,8.217,0,0,1-.232,1.968,6.678,6.678,0,0,1-.7,1.76A3.594,3.594,0,0,1,42.776-.3,3.546,3.546,0,0,1,40.92.192Zm-1.6-1.848a2.131,2.131,0,0,0,1.6.664,2.131,2.131,0,0,0,1.6-.664,3.522,3.522,0,0,0,.88-1.592,8.315,8.315,0,0,0,.24-2.08,8.315,8.315,0,0,0-.24-2.08,3.468,3.468,0,0,0-.88-1.584,2.143,2.143,0,0,0-1.6-.656,2.143,2.143,0,0,0-1.6.656,3.468,3.468,0,0,0-.88,1.584,8.315,8.315,0,0,0-.24,2.08,8.315,8.315,0,0,0,.24,2.08A3.522,3.522,0,0,0,39.32-1.656Z" transform="translate(621 627)"/>
      <path id="Path_3097" data-name="Path 3097" class="cls-5" d="M-35.76,0h-1.328V-2.7H-42.16v-1.1l4.576-6.864h1.824v6.8h1.5V-2.7h-1.5Zm-1.328-3.872V-9.44l-3.744,5.568ZM-25.552,0H-32.88V-1.056q1.664-1.312,2.584-2.088t1.776-1.648a6.853,6.853,0,0,0,1.208-1.552A2.921,2.921,0,0,0-26.96-7.7a1.712,1.712,0,0,0-.656-1.456,2.525,2.525,0,0,0-1.568-.5A3.482,3.482,0,0,0-32.08-8.3l-.816-.848a4.016,4.016,0,0,1,1.592-1.24,5.134,5.134,0,0,1,2.12-.44,4.021,4.021,0,0,1,2.52.816A2.751,2.751,0,0,1-25.6-7.7a4.555,4.555,0,0,1-1.28,2.968,29.066,29.066,0,0,1-3.9,3.544h5.232Zm10.24.192A3.534,3.534,0,0,1-17.176-.3a3.614,3.614,0,0,1-1.28-1.3,6.678,6.678,0,0,1-.7-1.76,8.217,8.217,0,0,1-.232-1.968A8.217,8.217,0,0,1-19.16-7.3a6.554,6.554,0,0,1,.7-1.752,3.634,3.634,0,0,1,1.28-1.3,3.534,3.534,0,0,1,1.864-.488,3.546,3.546,0,0,1,1.856.488,3.614,3.614,0,0,1,1.288,1.3,6.554,6.554,0,0,1,.7,1.752,8.217,8.217,0,0,1,.232,1.968,8.217,8.217,0,0,1-.232,1.968,6.678,6.678,0,0,1-.7,1.76A3.594,3.594,0,0,1-13.456-.3,3.546,3.546,0,0,1-15.312.192Zm-1.6-1.848a2.131,2.131,0,0,0,1.6.664,2.131,2.131,0,0,0,1.6-.664,3.522,3.522,0,0,0,.88-1.592,8.315,8.315,0,0,0,.24-2.08,8.315,8.315,0,0,0-.24-2.08,3.468,3.468,0,0,0-.88-1.584,2.143,2.143,0,0,0-1.6-.656,2.143,2.143,0,0,0-1.6.656,3.468,3.468,0,0,0-.88,1.584,8.315,8.315,0,0,0-.24,2.08,8.315,8.315,0,0,0,.24,2.08A3.522,3.522,0,0,0-16.912-1.656ZM-5.52.192A3.534,3.534,0,0,1-7.384-.3a3.614,3.614,0,0,1-1.28-1.3,6.678,6.678,0,0,1-.7-1.76A8.217,8.217,0,0,1-9.6-5.328,8.217,8.217,0,0,1-9.368-7.3a6.553,6.553,0,0,1,.7-1.752,3.634,3.634,0,0,1,1.28-1.3,3.534,3.534,0,0,1,1.864-.488,3.546,3.546,0,0,1,1.856.488,3.614,3.614,0,0,1,1.288,1.3,6.554,6.554,0,0,1,.7,1.752A8.217,8.217,0,0,1-1.44-5.328,8.217,8.217,0,0,1-1.672-3.36a6.678,6.678,0,0,1-.7,1.76A3.594,3.594,0,0,1-3.664-.3,3.546,3.546,0,0,1-5.52.192Zm-1.6-1.848a2.131,2.131,0,0,0,1.6.664,2.131,2.131,0,0,0,1.6-.664,3.522,3.522,0,0,0,.88-1.592,8.315,8.315,0,0,0,.24-2.08,8.315,8.315,0,0,0-.24-2.08,3.468,3.468,0,0,0-.88-1.584,2.143,2.143,0,0,0-1.6-.656,2.143,2.143,0,0,0-1.6.656A3.468,3.468,0,0,0-8-7.408a8.315,8.315,0,0,0-.24,2.08A8.315,8.315,0,0,0-8-3.248,3.522,3.522,0,0,0-7.12-1.656ZM4.272.192A3.534,3.534,0,0,1,2.408-.3a3.614,3.614,0,0,1-1.28-1.3,6.678,6.678,0,0,1-.7-1.76A8.217,8.217,0,0,1,.192-5.328,8.217,8.217,0,0,1,.424-7.3a6.554,6.554,0,0,1,.7-1.752,3.634,3.634,0,0,1,1.28-1.3,3.534,3.534,0,0,1,1.864-.488,3.546,3.546,0,0,1,1.856.488,3.614,3.614,0,0,1,1.288,1.3A6.554,6.554,0,0,1,8.12-7.3a8.217,8.217,0,0,1,.232,1.968A8.217,8.217,0,0,1,8.12-3.36a6.678,6.678,0,0,1-.7,1.76A3.594,3.594,0,0,1,6.128-.3,3.546,3.546,0,0,1,4.272.192Zm-1.6-1.848a2.131,2.131,0,0,0,1.6.664,2.131,2.131,0,0,0,1.6-.664,3.522,3.522,0,0,0,.88-1.592,8.315,8.315,0,0,0,.24-2.08,8.315,8.315,0,0,0-.24-2.08,3.468,3.468,0,0,0-.88-1.584,2.143,2.143,0,0,0-1.6-.656,2.143,2.143,0,0,0-1.6.656,3.468,3.468,0,0,0-.88,1.584,8.315,8.315,0,0,0-.24,2.08,8.315,8.315,0,0,0,.24,2.08A3.522,3.522,0,0,0,2.672-1.656ZM18.192.192A3.534,3.534,0,0,1,16.328-.3a3.614,3.614,0,0,1-1.28-1.3,6.678,6.678,0,0,1-.7-1.76,8.217,8.217,0,0,1-.232-1.968A8.217,8.217,0,0,1,14.344-7.3a6.553,6.553,0,0,1,.7-1.752,3.634,3.634,0,0,1,1.28-1.3,3.534,3.534,0,0,1,1.864-.488,3.546,3.546,0,0,1,1.856.488,3.614,3.614,0,0,1,1.288,1.3,6.553,6.553,0,0,1,.7,1.752,8.217,8.217,0,0,1,.232,1.968A8.217,8.217,0,0,1,22.04-3.36a6.678,6.678,0,0,1-.7,1.76A3.594,3.594,0,0,1,20.048-.3,3.546,3.546,0,0,1,18.192.192Zm-1.6-1.848a2.131,2.131,0,0,0,1.6.664,2.131,2.131,0,0,0,1.6-.664,3.522,3.522,0,0,0,.88-1.592,8.315,8.315,0,0,0,.24-2.08,8.315,8.315,0,0,0-.24-2.08,3.468,3.468,0,0,0-.88-1.584,2.143,2.143,0,0,0-1.6-.656,2.143,2.143,0,0,0-1.6.656,3.468,3.468,0,0,0-.88,1.584,8.315,8.315,0,0,0-.24,2.08,8.315,8.315,0,0,0,.24,2.08A3.522,3.522,0,0,0,16.592-1.656ZM27.984.192A3.534,3.534,0,0,1,26.12-.3a3.614,3.614,0,0,1-1.28-1.3,6.678,6.678,0,0,1-.7-1.76A8.217,8.217,0,0,1,23.9-5.328,8.217,8.217,0,0,1,24.136-7.3a6.554,6.554,0,0,1,.7-1.752,3.634,3.634,0,0,1,1.28-1.3,3.534,3.534,0,0,1,1.864-.488,3.546,3.546,0,0,1,1.856.488,3.614,3.614,0,0,1,1.288,1.3,6.553,6.553,0,0,1,.7,1.752,8.217,8.217,0,0,1,.232,1.968,8.217,8.217,0,0,1-.232,1.968,6.678,6.678,0,0,1-.7,1.76A3.594,3.594,0,0,1,29.84-.3,3.546,3.546,0,0,1,27.984.192Zm-1.6-1.848a2.131,2.131,0,0,0,1.6.664,2.131,2.131,0,0,0,1.6-.664,3.522,3.522,0,0,0,.88-1.592,8.315,8.315,0,0,0,.24-2.08,8.315,8.315,0,0,0-.24-2.08,3.468,3.468,0,0,0-.88-1.584,2.143,2.143,0,0,0-1.6-.656,2.143,2.143,0,0,0-1.6.656,3.468,3.468,0,0,0-.88,1.584,8.315,8.315,0,0,0-.24,2.08,8.315,8.315,0,0,0,.24,2.08A3.522,3.522,0,0,0,26.384-1.656ZM37.776.192A3.534,3.534,0,0,1,35.912-.3a3.614,3.614,0,0,1-1.28-1.3,6.678,6.678,0,0,1-.7-1.76A8.217,8.217,0,0,1,33.7-5.328,8.217,8.217,0,0,1,33.928-7.3a6.554,6.554,0,0,1,.7-1.752,3.634,3.634,0,0,1,1.28-1.3,3.534,3.534,0,0,1,1.864-.488,3.546,3.546,0,0,1,1.856.488,3.614,3.614,0,0,1,1.288,1.3,6.554,6.554,0,0,1,.7,1.752,8.217,8.217,0,0,1,.232,1.968,8.217,8.217,0,0,1-.232,1.968,6.678,6.678,0,0,1-.7,1.76A3.594,3.594,0,0,1,39.632-.3,3.546,3.546,0,0,1,37.776.192Zm-1.6-1.848a2.131,2.131,0,0,0,1.6.664,2.131,2.131,0,0,0,1.6-.664,3.522,3.522,0,0,0,.88-1.592,8.315,8.315,0,0,0,.24-2.08,8.315,8.315,0,0,0-.24-2.08,3.468,3.468,0,0,0-.88-1.584,2.143,2.143,0,0,0-1.6-.656,2.143,2.143,0,0,0-1.6.656,3.468,3.468,0,0,0-.88,1.584,8.315,8.315,0,0,0-.24,2.08,8.315,8.315,0,0,0,.24,2.08A3.522,3.522,0,0,0,36.176-1.656Z" transform="translate(621 681)"/>
      <path id="Path_3106" data-name="Path 3106" class="cls-5" d="M-14.112,0H-15.44V-2.7h-5.072v-1.1l4.576-6.864h1.824v6.8h1.5V-2.7h-1.5ZM-15.44-3.872V-9.44l-3.744,5.568ZM.224,0H-7.1V-1.056Q-5.44-2.368-4.52-3.144t1.776-1.648A6.853,6.853,0,0,0-1.536-6.344,2.921,2.921,0,0,0-1.184-7.7,1.712,1.712,0,0,0-1.84-9.152a2.525,2.525,0,0,0-1.568-.5A3.482,3.482,0,0,0-6.3-8.3l-.816-.848a4.016,4.016,0,0,1,1.592-1.24,5.134,5.134,0,0,1,2.12-.44,4.021,4.021,0,0,1,2.52.816A2.751,2.751,0,0,1,.176-7.7,4.555,4.555,0,0,1-1.1-4.728a29.066,29.066,0,0,1-3.9,3.544H.224ZM6.336.192A3.534,3.534,0,0,1,4.472-.3a3.614,3.614,0,0,1-1.28-1.3,6.678,6.678,0,0,1-.7-1.76,8.217,8.217,0,0,1-.232-1.968A8.217,8.217,0,0,1,2.488-7.3a6.554,6.554,0,0,1,.7-1.752,3.634,3.634,0,0,1,1.28-1.3,3.534,3.534,0,0,1,1.864-.488,3.546,3.546,0,0,1,1.856.488,3.614,3.614,0,0,1,1.288,1.3,6.554,6.554,0,0,1,.7,1.752,8.217,8.217,0,0,1,.232,1.968,8.217,8.217,0,0,1-.232,1.968,6.678,6.678,0,0,1-.7,1.76A3.594,3.594,0,0,1,8.192-.3,3.546,3.546,0,0,1,6.336.192Zm-1.6-1.848a2.131,2.131,0,0,0,1.6.664,2.131,2.131,0,0,0,1.6-.664,3.522,3.522,0,0,0,.88-1.592,8.315,8.315,0,0,0,.24-2.08,8.315,8.315,0,0,0-.24-2.08,3.468,3.468,0,0,0-.88-1.584,2.143,2.143,0,0,0-1.6-.656,2.143,2.143,0,0,0-1.6.656,3.468,3.468,0,0,0-.88,1.584,8.315,8.315,0,0,0-.24,2.08,8.315,8.315,0,0,0,.24,2.08A3.522,3.522,0,0,0,4.736-1.656ZM16.128.192A3.534,3.534,0,0,1,14.264-.3a3.614,3.614,0,0,1-1.28-1.3,6.678,6.678,0,0,1-.7-1.76,8.217,8.217,0,0,1-.232-1.968A8.217,8.217,0,0,1,12.28-7.3a6.553,6.553,0,0,1,.7-1.752,3.634,3.634,0,0,1,1.28-1.3,3.534,3.534,0,0,1,1.864-.488,3.546,3.546,0,0,1,1.856.488,3.614,3.614,0,0,1,1.288,1.3,6.554,6.554,0,0,1,.7,1.752,8.217,8.217,0,0,1,.232,1.968,8.217,8.217,0,0,1-.232,1.968,6.678,6.678,0,0,1-.7,1.76A3.594,3.594,0,0,1,17.984-.3,3.546,3.546,0,0,1,16.128.192Zm-1.6-1.848a2.131,2.131,0,0,0,1.6.664,2.131,2.131,0,0,0,1.6-.664,3.522,3.522,0,0,0,.88-1.592,8.315,8.315,0,0,0,.24-2.08,8.315,8.315,0,0,0-.24-2.08,3.468,3.468,0,0,0-.88-1.584,2.143,2.143,0,0,0-1.6-.656,2.143,2.143,0,0,0-1.6.656,3.468,3.468,0,0,0-.88,1.584,8.315,8.315,0,0,0-.24,2.08,8.315,8.315,0,0,0,.24,2.08A3.522,3.522,0,0,0,14.528-1.656Z" transform="translate(806 681)"/>
      <path id="Path_3107" data-name="Path 3107" class="cls-5" d="M-27.832,0H-35.16V-1.056q1.664-1.312,2.584-2.088T-30.8-4.792a6.853,6.853,0,0,0,1.208-1.552A2.921,2.921,0,0,0-29.24-7.7,1.712,1.712,0,0,0-29.9-9.152a2.525,2.525,0,0,0-1.568-.5A3.482,3.482,0,0,0-34.36-8.3l-.816-.848a4.016,4.016,0,0,1,1.592-1.24,5.134,5.134,0,0,1,2.12-.44,4.021,4.021,0,0,1,2.52.816A2.751,2.751,0,0,1-27.88-7.7a4.555,4.555,0,0,1-1.28,2.968,29.066,29.066,0,0,1-3.9,3.544h5.232Zm9.52,0H-19.64V-8.912L-21.352-7.1l-.8-.816,2.672-2.752h1.168Zm6.144.192A3.534,3.534,0,0,1-14.032-.3a3.614,3.614,0,0,1-1.28-1.3,6.678,6.678,0,0,1-.7-1.76,8.217,8.217,0,0,1-.232-1.968A8.217,8.217,0,0,1-16.016-7.3a6.553,6.553,0,0,1,.7-1.752,3.634,3.634,0,0,1,1.28-1.3,3.534,3.534,0,0,1,1.864-.488,3.546,3.546,0,0,1,1.856.488,3.614,3.614,0,0,1,1.288,1.3A6.554,6.554,0,0,1-8.32-7.3a8.217,8.217,0,0,1,.232,1.968A8.217,8.217,0,0,1-8.32-3.36a6.678,6.678,0,0,1-.7,1.76A3.594,3.594,0,0,1-10.312-.3,3.546,3.546,0,0,1-12.168.192Zm-1.6-1.848a2.131,2.131,0,0,0,1.6.664,2.131,2.131,0,0,0,1.6-.664,3.522,3.522,0,0,0,.88-1.592,8.315,8.315,0,0,0,.24-2.08,8.315,8.315,0,0,0-.24-2.08,3.468,3.468,0,0,0-.88-1.584,2.143,2.143,0,0,0-1.6-.656,2.143,2.143,0,0,0-1.6.656,3.468,3.468,0,0,0-.88,1.584,8.315,8.315,0,0,0-.24,2.08,8.315,8.315,0,0,0,.24,2.08A3.522,3.522,0,0,0-13.768-1.656ZM-2.376.192A3.534,3.534,0,0,1-4.24-.3,3.614,3.614,0,0,1-5.52-1.6a6.678,6.678,0,0,1-.7-1.76,8.217,8.217,0,0,1-.232-1.968A8.217,8.217,0,0,1-6.224-7.3a6.554,6.554,0,0,1,.7-1.752,3.634,3.634,0,0,1,1.28-1.3,3.534,3.534,0,0,1,1.864-.488,3.546,3.546,0,0,1,1.856.488,3.614,3.614,0,0,1,1.288,1.3,6.554,6.554,0,0,1,.7,1.752A8.217,8.217,0,0,1,1.7-5.328,8.217,8.217,0,0,1,1.472-3.36a6.678,6.678,0,0,1-.7,1.76A3.594,3.594,0,0,1-.52-.3,3.546,3.546,0,0,1-2.376.192Zm-1.6-1.848a2.131,2.131,0,0,0,1.6.664,2.131,2.131,0,0,0,1.6-.664A3.522,3.522,0,0,0,.1-3.248a8.315,8.315,0,0,0,.24-2.08A8.315,8.315,0,0,0,.1-7.408a3.468,3.468,0,0,0-.88-1.584,2.143,2.143,0,0,0-1.6-.656,2.143,2.143,0,0,0-1.6.656,3.468,3.468,0,0,0-.88,1.584,8.315,8.315,0,0,0-.24,2.08,8.315,8.315,0,0,0,.24,2.08A3.522,3.522,0,0,0-3.976-1.656ZM11.544.192A3.534,3.534,0,0,1,9.68-.3,3.614,3.614,0,0,1,8.4-1.6a6.678,6.678,0,0,1-.7-1.76,8.217,8.217,0,0,1-.232-1.968A8.217,8.217,0,0,1,7.7-7.3a6.553,6.553,0,0,1,.7-1.752,3.634,3.634,0,0,1,1.28-1.3,3.534,3.534,0,0,1,1.864-.488,3.546,3.546,0,0,1,1.856.488,3.614,3.614,0,0,1,1.288,1.3,6.554,6.554,0,0,1,.7,1.752,8.217,8.217,0,0,1,.232,1.968,8.217,8.217,0,0,1-.232,1.968,6.678,6.678,0,0,1-.7,1.76A3.594,3.594,0,0,1,13.4-.3,3.546,3.546,0,0,1,11.544.192Zm-1.6-1.848a2.131,2.131,0,0,0,1.6.664,2.131,2.131,0,0,0,1.6-.664,3.522,3.522,0,0,0,.88-1.592,8.315,8.315,0,0,0,.24-2.08,8.315,8.315,0,0,0-.24-2.08,3.468,3.468,0,0,0-.88-1.584,2.143,2.143,0,0,0-1.6-.656,2.143,2.143,0,0,0-1.6.656,3.468,3.468,0,0,0-.88,1.584,8.315,8.315,0,0,0-.24,2.08,8.315,8.315,0,0,0,.24,2.08A3.522,3.522,0,0,0,9.944-1.656ZM21.336.192A3.534,3.534,0,0,1,19.472-.3a3.614,3.614,0,0,1-1.28-1.3,6.678,6.678,0,0,1-.7-1.76,8.217,8.217,0,0,1-.232-1.968A8.217,8.217,0,0,1,17.488-7.3a6.554,6.554,0,0,1,.7-1.752,3.634,3.634,0,0,1,1.28-1.3,3.534,3.534,0,0,1,1.864-.488,3.546,3.546,0,0,1,1.856.488,3.614,3.614,0,0,1,1.288,1.3,6.553,6.553,0,0,1,.7,1.752,8.217,8.217,0,0,1,.232,1.968,8.217,8.217,0,0,1-.232,1.968,6.678,6.678,0,0,1-.7,1.76A3.594,3.594,0,0,1,23.192-.3,3.546,3.546,0,0,1,21.336.192Zm-1.6-1.848a2.131,2.131,0,0,0,1.6.664,2.131,2.131,0,0,0,1.6-.664,3.522,3.522,0,0,0,.88-1.592,8.315,8.315,0,0,0,.24-2.08,8.315,8.315,0,0,0-.24-2.08,3.468,3.468,0,0,0-.88-1.584,2.143,2.143,0,0,0-1.6-.656,2.143,2.143,0,0,0-1.6.656,3.468,3.468,0,0,0-.88,1.584,8.315,8.315,0,0,0-.24,2.08,8.315,8.315,0,0,0,.24,2.08A3.522,3.522,0,0,0,19.736-1.656ZM31.128.192A3.534,3.534,0,0,1,29.264-.3a3.614,3.614,0,0,1-1.28-1.3,6.678,6.678,0,0,1-.7-1.76,8.217,8.217,0,0,1-.232-1.968A8.217,8.217,0,0,1,27.28-7.3a6.554,6.554,0,0,1,.7-1.752,3.634,3.634,0,0,1,1.28-1.3,3.534,3.534,0,0,1,1.864-.488,3.546,3.546,0,0,1,1.856.488,3.614,3.614,0,0,1,1.288,1.3,6.554,6.554,0,0,1,.7,1.752,8.217,8.217,0,0,1,.232,1.968,8.217,8.217,0,0,1-.232,1.968,6.678,6.678,0,0,1-.7,1.76A3.594,3.594,0,0,1,32.984-.3,3.546,3.546,0,0,1,31.128.192Zm-1.6-1.848a2.131,2.131,0,0,0,1.6.664,2.131,2.131,0,0,0,1.6-.664,3.522,3.522,0,0,0,.88-1.592,8.315,8.315,0,0,0,.24-2.08,8.315,8.315,0,0,0-.24-2.08,3.468,3.468,0,0,0-.88-1.584,2.143,2.143,0,0,0-1.6-.656,2.143,2.143,0,0,0-1.6.656,3.468,3.468,0,0,0-.88,1.584,8.315,8.315,0,0,0-.24,2.08,8.315,8.315,0,0,0,.24,2.08A3.522,3.522,0,0,0,29.528-1.656Z" transform="translate(991 681)"/>
      <path id="Path_3105" data-name="Path 3105" class="cls-5" d="M-15.976,0H-23.3V-1.056q1.664-1.312,2.584-2.088t1.776-1.648a6.853,6.853,0,0,0,1.208-1.552A2.921,2.921,0,0,0-17.384-7.7a1.712,1.712,0,0,0-.656-1.456,2.525,2.525,0,0,0-1.568-.5A3.482,3.482,0,0,0-22.5-8.3l-.816-.848a4.016,4.016,0,0,1,1.592-1.24,5.134,5.134,0,0,1,2.12-.44,4.021,4.021,0,0,1,2.52.816A2.751,2.751,0,0,1-16.024-7.7,4.555,4.555,0,0,1-17.3-4.728a29.066,29.066,0,0,1-3.9,3.544h5.232Zm5.392,0h-1.328V-8.912L-13.624-7.1l-.8-.816,2.672-2.752h1.168ZM-.312.192A3.534,3.534,0,0,1-2.176-.3a3.614,3.614,0,0,1-1.28-1.3,6.678,6.678,0,0,1-.7-1.76,8.217,8.217,0,0,1-.232-1.968A8.217,8.217,0,0,1-4.16-7.3a6.553,6.553,0,0,1,.7-1.752,3.634,3.634,0,0,1,1.28-1.3,3.534,3.534,0,0,1,1.864-.488,3.546,3.546,0,0,1,1.856.488,3.614,3.614,0,0,1,1.288,1.3,6.554,6.554,0,0,1,.7,1.752,8.217,8.217,0,0,1,.232,1.968A8.217,8.217,0,0,1,3.536-3.36a6.678,6.678,0,0,1-.7,1.76A3.594,3.594,0,0,1,1.544-.3,3.546,3.546,0,0,1-.312.192Zm-1.6-1.848a2.131,2.131,0,0,0,1.6.664,2.131,2.131,0,0,0,1.6-.664,3.522,3.522,0,0,0,.88-1.592,8.315,8.315,0,0,0,.24-2.08,8.315,8.315,0,0,0-.24-2.08,3.468,3.468,0,0,0-.88-1.584,2.143,2.143,0,0,0-1.6-.656,2.143,2.143,0,0,0-1.6.656,3.468,3.468,0,0,0-.88,1.584,8.315,8.315,0,0,0-.24,2.08,8.315,8.315,0,0,0,.24,2.08A3.522,3.522,0,0,0-1.912-1.656ZM9.48.192A3.534,3.534,0,0,1,7.616-.3a3.614,3.614,0,0,1-1.28-1.3,6.678,6.678,0,0,1-.7-1.76A8.217,8.217,0,0,1,5.4-5.328,8.217,8.217,0,0,1,5.632-7.3a6.554,6.554,0,0,1,.7-1.752,3.634,3.634,0,0,1,1.28-1.3,3.534,3.534,0,0,1,1.864-.488,3.546,3.546,0,0,1,1.856.488,3.614,3.614,0,0,1,1.288,1.3,6.554,6.554,0,0,1,.7,1.752,8.217,8.217,0,0,1,.232,1.968,8.217,8.217,0,0,1-.232,1.968,6.678,6.678,0,0,1-.7,1.76A3.594,3.594,0,0,1,11.336-.3,3.546,3.546,0,0,1,9.48.192ZM7.88-1.656a2.131,2.131,0,0,0,1.6.664,2.131,2.131,0,0,0,1.6-.664,3.522,3.522,0,0,0,.88-1.592,8.315,8.315,0,0,0,.24-2.08,8.315,8.315,0,0,0-.24-2.08,3.468,3.468,0,0,0-.88-1.584,2.143,2.143,0,0,0-1.6-.656,2.143,2.143,0,0,0-1.6.656A3.468,3.468,0,0,0,7-7.408a8.315,8.315,0,0,0-.24,2.08A8.315,8.315,0,0,0,7-3.248,3.522,3.522,0,0,0,7.88-1.656ZM19.272.192A3.534,3.534,0,0,1,17.408-.3a3.614,3.614,0,0,1-1.28-1.3,6.678,6.678,0,0,1-.7-1.76,8.217,8.217,0,0,1-.232-1.968A8.217,8.217,0,0,1,15.424-7.3a6.553,6.553,0,0,1,.7-1.752,3.634,3.634,0,0,1,1.28-1.3,3.534,3.534,0,0,1,1.864-.488,3.546,3.546,0,0,1,1.856.488,3.614,3.614,0,0,1,1.288,1.3,6.554,6.554,0,0,1,.7,1.752,8.217,8.217,0,0,1,.232,1.968A8.217,8.217,0,0,1,23.12-3.36a6.678,6.678,0,0,1-.7,1.76A3.594,3.594,0,0,1,21.128-.3,3.546,3.546,0,0,1,19.272.192Zm-1.6-1.848a2.131,2.131,0,0,0,1.6.664,2.131,2.131,0,0,0,1.6-.664,3.522,3.522,0,0,0,.88-1.592,8.315,8.315,0,0,0,.24-2.08,8.315,8.315,0,0,0-.24-2.08,3.468,3.468,0,0,0-.88-1.584,2.143,2.143,0,0,0-1.6-.656,2.143,2.143,0,0,0-1.6.656,3.468,3.468,0,0,0-.88,1.584,8.315,8.315,0,0,0-.24,2.08,8.315,8.315,0,0,0,.24,2.08A3.522,3.522,0,0,0,17.672-1.656Z" transform="translate(806 627)"/>
      <path id="Path_3108" data-name="Path 3108" class="cls-5" d="M-36.76,0h-1.328V-8.912L-39.8-7.1l-.8-.816,2.672-2.752h1.168Zm6.144.192A3.534,3.534,0,0,1-32.48-.3a3.614,3.614,0,0,1-1.28-1.3,6.678,6.678,0,0,1-.7-1.76A8.217,8.217,0,0,1-34.7-5.328,8.217,8.217,0,0,1-34.464-7.3a6.554,6.554,0,0,1,.7-1.752,3.634,3.634,0,0,1,1.28-1.3,3.534,3.534,0,0,1,1.864-.488,3.546,3.546,0,0,1,1.856.488,3.614,3.614,0,0,1,1.288,1.3,6.553,6.553,0,0,1,.7,1.752,8.217,8.217,0,0,1,.232,1.968,8.217,8.217,0,0,1-.232,1.968,6.678,6.678,0,0,1-.7,1.76A3.594,3.594,0,0,1-28.76-.3,3.546,3.546,0,0,1-30.616.192Zm-1.6-1.848a2.131,2.131,0,0,0,1.6.664,2.131,2.131,0,0,0,1.6-.664,3.522,3.522,0,0,0,.88-1.592,8.315,8.315,0,0,0,.24-2.08,8.315,8.315,0,0,0-.24-2.08,3.468,3.468,0,0,0-.88-1.584,2.143,2.143,0,0,0-1.6-.656,2.143,2.143,0,0,0-1.6.656,3.468,3.468,0,0,0-.88,1.584,8.315,8.315,0,0,0-.24,2.08,8.315,8.315,0,0,0,.24,2.08A3.522,3.522,0,0,0-32.216-1.656ZM-16.776.192a4.428,4.428,0,0,1-3.76-1.712l.816-.88A3.552,3.552,0,0,0-16.776-.992,2.468,2.468,0,0,0-15-1.648a2.163,2.163,0,0,0,.688-1.632,2.175,2.175,0,0,0-.68-1.672,2.493,2.493,0,0,0-1.768-.632,3.386,3.386,0,0,0-2.464,1.008l-.976-.336v-5.76h6.528v1.184h-5.2v3.712a3.377,3.377,0,0,1,2.5-.96,3.4,3.4,0,0,1,2.4.92,3.228,3.228,0,0,1,.992,2.488,3.268,3.268,0,0,1-1.072,2.56A3.924,3.924,0,0,1-16.776.192Zm9.52,0A3.534,3.534,0,0,1-9.12-.3,3.614,3.614,0,0,1-10.4-1.6a6.678,6.678,0,0,1-.7-1.76,8.217,8.217,0,0,1-.232-1.968A8.217,8.217,0,0,1-11.1-7.3a6.553,6.553,0,0,1,.7-1.752,3.634,3.634,0,0,1,1.28-1.3,3.534,3.534,0,0,1,1.864-.488,3.546,3.546,0,0,1,1.856.488,3.614,3.614,0,0,1,1.288,1.3,6.554,6.554,0,0,1,.7,1.752,8.217,8.217,0,0,1,.232,1.968A8.217,8.217,0,0,1-3.408-3.36a6.678,6.678,0,0,1-.7,1.76A3.594,3.594,0,0,1-5.4-.3,3.546,3.546,0,0,1-7.256.192Zm-1.6-1.848a2.131,2.131,0,0,0,1.6.664,2.131,2.131,0,0,0,1.6-.664,3.522,3.522,0,0,0,.88-1.592,8.315,8.315,0,0,0,.24-2.08,8.315,8.315,0,0,0-.24-2.08,3.468,3.468,0,0,0-.88-1.584,2.143,2.143,0,0,0-1.6-.656,2.143,2.143,0,0,0-1.6.656,3.468,3.468,0,0,0-.88,1.584,8.315,8.315,0,0,0-.24,2.08,8.315,8.315,0,0,0,.24,2.08A3.522,3.522,0,0,0-8.856-1.656ZM2.536.192A3.534,3.534,0,0,1,.672-.3,3.614,3.614,0,0,1-.608-1.6a6.678,6.678,0,0,1-.7-1.76,8.217,8.217,0,0,1-.232-1.968A8.217,8.217,0,0,1-1.312-7.3a6.554,6.554,0,0,1,.7-1.752,3.634,3.634,0,0,1,1.28-1.3,3.534,3.534,0,0,1,1.864-.488,3.546,3.546,0,0,1,1.856.488,3.614,3.614,0,0,1,1.288,1.3,6.554,6.554,0,0,1,.7,1.752,8.217,8.217,0,0,1,.232,1.968A8.217,8.217,0,0,1,6.384-3.36a6.678,6.678,0,0,1-.7,1.76A3.594,3.594,0,0,1,4.392-.3,3.546,3.546,0,0,1,2.536.192ZM.936-1.656a2.131,2.131,0,0,0,1.6.664,2.131,2.131,0,0,0,1.6-.664,3.522,3.522,0,0,0,.88-1.592,8.315,8.315,0,0,0,.24-2.08,8.315,8.315,0,0,0-.24-2.08,3.468,3.468,0,0,0-.88-1.584,2.143,2.143,0,0,0-1.6-.656,2.143,2.143,0,0,0-1.6.656,3.468,3.468,0,0,0-.88,1.584,8.315,8.315,0,0,0-.24,2.08,8.315,8.315,0,0,0,.24,2.08A3.522,3.522,0,0,0,.936-1.656ZM16.456.192A3.534,3.534,0,0,1,14.592-.3a3.614,3.614,0,0,1-1.28-1.3,6.678,6.678,0,0,1-.7-1.76,8.217,8.217,0,0,1-.232-1.968A8.217,8.217,0,0,1,12.608-7.3a6.553,6.553,0,0,1,.7-1.752,3.634,3.634,0,0,1,1.28-1.3,3.534,3.534,0,0,1,1.864-.488,3.546,3.546,0,0,1,1.856.488,3.614,3.614,0,0,1,1.288,1.3A6.553,6.553,0,0,1,20.3-7.3a8.217,8.217,0,0,1,.232,1.968A8.217,8.217,0,0,1,20.3-3.36a6.678,6.678,0,0,1-.7,1.76A3.594,3.594,0,0,1,18.312-.3,3.546,3.546,0,0,1,16.456.192Zm-1.6-1.848a2.131,2.131,0,0,0,1.6.664,2.131,2.131,0,0,0,1.6-.664,3.522,3.522,0,0,0,.88-1.592,8.315,8.315,0,0,0,.24-2.08,8.315,8.315,0,0,0-.24-2.08,3.468,3.468,0,0,0-.88-1.584,2.143,2.143,0,0,0-1.6-.656,2.143,2.143,0,0,0-1.6.656,3.468,3.468,0,0,0-.88,1.584,8.315,8.315,0,0,0-.24,2.08,8.315,8.315,0,0,0,.24,2.08A3.522,3.522,0,0,0,14.856-1.656ZM26.248.192A3.534,3.534,0,0,1,24.384-.3,3.614,3.614,0,0,1,23.1-1.6a6.678,6.678,0,0,1-.7-1.76,8.217,8.217,0,0,1-.232-1.968A8.217,8.217,0,0,1,22.4-7.3a6.554,6.554,0,0,1,.7-1.752,3.634,3.634,0,0,1,1.28-1.3,3.534,3.534,0,0,1,1.864-.488,3.546,3.546,0,0,1,1.856.488,3.614,3.614,0,0,1,1.288,1.3A6.553,6.553,0,0,1,30.1-7.3a8.217,8.217,0,0,1,.232,1.968A8.217,8.217,0,0,1,30.1-3.36a6.678,6.678,0,0,1-.7,1.76A3.594,3.594,0,0,1,28.1-.3,3.546,3.546,0,0,1,26.248.192Zm-1.6-1.848a2.131,2.131,0,0,0,1.6.664,2.131,2.131,0,0,0,1.6-.664,3.522,3.522,0,0,0,.88-1.592,8.315,8.315,0,0,0,.24-2.08,8.315,8.315,0,0,0-.24-2.08,3.468,3.468,0,0,0-.88-1.584,2.143,2.143,0,0,0-1.6-.656,2.143,2.143,0,0,0-1.6.656,3.468,3.468,0,0,0-.88,1.584,8.315,8.315,0,0,0-.24,2.08,8.315,8.315,0,0,0,.24,2.08A3.522,3.522,0,0,0,24.648-1.656ZM36.04.192A3.534,3.534,0,0,1,34.176-.3,3.614,3.614,0,0,1,32.9-1.6a6.678,6.678,0,0,1-.7-1.76,8.217,8.217,0,0,1-.232-1.968A8.217,8.217,0,0,1,32.192-7.3a6.554,6.554,0,0,1,.7-1.752,3.634,3.634,0,0,1,1.28-1.3,3.534,3.534,0,0,1,1.864-.488,3.546,3.546,0,0,1,1.856.488,3.614,3.614,0,0,1,1.288,1.3,6.554,6.554,0,0,1,.7,1.752,8.217,8.217,0,0,1,.232,1.968,8.217,8.217,0,0,1-.232,1.968,6.678,6.678,0,0,1-.7,1.76A3.594,3.594,0,0,1,37.9-.3,3.546,3.546,0,0,1,36.04.192Zm-1.6-1.848a2.131,2.131,0,0,0,1.6.664,2.131,2.131,0,0,0,1.6-.664,3.522,3.522,0,0,0,.88-1.592,8.315,8.315,0,0,0,.24-2.08,8.315,8.315,0,0,0-.24-2.08,3.468,3.468,0,0,0-.88-1.584,2.143,2.143,0,0,0-1.6-.656,2.143,2.143,0,0,0-1.6.656,3.468,3.468,0,0,0-.88,1.584,8.315,8.315,0,0,0-.24,2.08,8.315,8.315,0,0,0,.24,2.08A3.522,3.522,0,0,0,34.44-1.656Z" transform="translate(991 627)"/>
      <path id="Path_3109" data-name="Path 3109" class="cls-5" d="M-10.96.192A3.534,3.534,0,0,1-12.824-.3,3.614,3.614,0,0,1-14.1-1.6a6.678,6.678,0,0,1-.7-1.76,8.217,8.217,0,0,1-.232-1.968A8.217,8.217,0,0,1-14.808-7.3a6.553,6.553,0,0,1,.7-1.752,3.634,3.634,0,0,1,1.28-1.3,3.534,3.534,0,0,1,1.864-.488,3.546,3.546,0,0,1,1.856.488,3.614,3.614,0,0,1,1.288,1.3,6.554,6.554,0,0,1,.7,1.752A8.217,8.217,0,0,1-6.88-5.328,8.217,8.217,0,0,1-7.112-3.36a6.678,6.678,0,0,1-.7,1.76A3.594,3.594,0,0,1-9.1-.3,3.546,3.546,0,0,1-10.96.192Zm-1.6-1.848a2.131,2.131,0,0,0,1.6.664,2.131,2.131,0,0,0,1.6-.664,3.522,3.522,0,0,0,.88-1.592,8.315,8.315,0,0,0,.24-2.08,8.315,8.315,0,0,0-.24-2.08,3.468,3.468,0,0,0-.88-1.584,2.143,2.143,0,0,0-1.6-.656,2.143,2.143,0,0,0-1.6.656,3.468,3.468,0,0,0-.88,1.584,8.315,8.315,0,0,0-.24,2.08,8.315,8.315,0,0,0,.24,2.08A3.522,3.522,0,0,0-12.56-1.656ZM-4.1-.1A.849.849,0,0,1-4.72.16.849.849,0,0,1-5.344-.1.849.849,0,0,1-5.6-.72a.849.849,0,0,1,.256-.624A.849.849,0,0,1-4.72-1.6a.849.849,0,0,1,.624.256A.849.849,0,0,1-3.84-.72.849.849,0,0,1-4.1-.1ZM1.52.192A3.534,3.534,0,0,1-.344-.3a3.614,3.614,0,0,1-1.28-1.3,6.678,6.678,0,0,1-.7-1.76A8.217,8.217,0,0,1-2.56-5.328,8.217,8.217,0,0,1-2.328-7.3a6.554,6.554,0,0,1,.7-1.752,3.634,3.634,0,0,1,1.28-1.3,3.534,3.534,0,0,1,1.864-.488,3.546,3.546,0,0,1,1.856.488,3.614,3.614,0,0,1,1.288,1.3,6.554,6.554,0,0,1,.7,1.752A8.217,8.217,0,0,1,5.6-5.328,8.217,8.217,0,0,1,5.368-3.36a6.678,6.678,0,0,1-.7,1.76A3.594,3.594,0,0,1,3.376-.3,3.546,3.546,0,0,1,1.52.192ZM-.08-1.656a2.131,2.131,0,0,0,1.6.664,2.131,2.131,0,0,0,1.6-.664A3.522,3.522,0,0,0,4-3.248a8.315,8.315,0,0,0,.24-2.08A8.315,8.315,0,0,0,4-7.408a3.468,3.468,0,0,0-.88-1.584,2.143,2.143,0,0,0-1.6-.656,2.143,2.143,0,0,0-1.6.656A3.468,3.468,0,0,0-.96-7.408a8.315,8.315,0,0,0-.24,2.08,8.315,8.315,0,0,0,.24,2.08A3.522,3.522,0,0,0-.08-1.656ZM11.232.192A4.428,4.428,0,0,1,7.472-1.52l.816-.88A3.552,3.552,0,0,0,11.232-.992a2.468,2.468,0,0,0,1.776-.656A2.163,2.163,0,0,0,13.7-3.28a2.175,2.175,0,0,0-.68-1.672,2.493,2.493,0,0,0-1.768-.632A3.386,3.386,0,0,0,8.784-4.576l-.976-.336v-5.76h6.528v1.184h-5.2v3.712a3.377,3.377,0,0,1,2.5-.96,3.4,3.4,0,0,1,2.4.92,3.228,3.228,0,0,1,.992,2.488,3.268,3.268,0,0,1-1.072,2.56A3.924,3.924,0,0,1,11.232.192Z" transform="translate(991 573)"/>
      <path id="Path_3103" data-name="Path 3103" class="cls-5" d="M-6.568,0H-13.56V-10.672h6.992v1.184h-5.664v3.44H-6.68v1.184h-5.552v3.68h5.664Zm6.08,0H-1.816V-9.488H-5.192v-1.184H2.9v1.184H-.488ZM13.56,0H12.232V-4.9H5.992V0H4.664V-10.672H5.992V-6.08h6.24v-4.592H13.56Z" transform="translate(806 519)"/>
      <path id="Path_3110" data-name="Path 3110" class="cls-5" d="M-7.048-.968a4.282,4.282,0,0,1-3.24,1.16,4.282,4.282,0,0,1-3.24-1.16A4.4,4.4,0,0,1-14.64-4.144v-6.528h1.328v6.5a3.309,3.309,0,0,0,.784,2.336,2.9,2.9,0,0,0,2.24.848,2.9,2.9,0,0,0,2.24-.848,3.309,3.309,0,0,0,.784-2.336v-6.5h1.328V-4.16A4.422,4.422,0,0,1-7.048-.968ZM.016.192a5.2,5.2,0,0,1-4.1-1.7L-3.3-2.512A4.33,4.33,0,0,0,.064-.992a2.771,2.771,0,0,0,1.9-.552,1.691,1.691,0,0,0,.608-1.288,1.345,1.345,0,0,0-.352-.944,2.378,2.378,0,0,0-.9-.6A10.854,10.854,0,0,0,.088-4.768q-.68-.176-1.352-.392a6.923,6.923,0,0,1-1.224-.52,2.459,2.459,0,0,1-.9-.864,2.444,2.444,0,0,1-.352-1.328A2.6,2.6,0,0,1-2.7-10.008,4.094,4.094,0,0,1-.08-10.832,4.973,4.973,0,0,1,3.712-9.344l-.8.976A3.98,3.98,0,0,0-.176-9.648a2.517,2.517,0,0,0-1.576.472,1.473,1.473,0,0,0-.616,1.224,1.13,1.13,0,0,0,.472.928A3.117,3.117,0,0,0-.728-6.48q.7.176,1.52.44t1.52.56a2.751,2.751,0,0,1,1.168.952,2.64,2.64,0,0,1,.472,1.584A2.94,2.94,0,0,1,2.984-.72,4.2,4.2,0,0,1,.016.192ZM9.584,0H5.936V-10.672H9.584a5.34,5.34,0,0,1,3.96,1.52,5.2,5.2,0,0,1,1.512,3.824A5.166,5.166,0,0,1,13.544-1.5,5.371,5.371,0,0,1,9.584,0Zm0-1.184a3.893,3.893,0,0,0,2.992-1.184,4.173,4.173,0,0,0,1.1-2.96A4.23,4.23,0,0,0,12.592-8.3,3.881,3.881,0,0,0,9.584-9.488H7.264v8.3Z" transform="translate(991 519)"/>
    </g>
  </g>
</svg>
