<svg xmlns="http://www.w3.org/2000/svg" viewBox="0 0 832.992 316.685">
  <defs>
    <style>
      .cls-1 {
        fill: none;
      }

      .cls-2 {
        fill: #352c6d;
      }

      .cls-3 {
        fill: #ffcb73;
      }

      .cls-4 {
        fill: #8de1fe;
      }

      .cls-5 {
        fill: #fe7275;
      }

      .cls-6 {
        fill: #172143;
      }

      .cls-7 {
        fill: #fff;
      }

      .cls-8 {
        fill: #343150;
      }
    </style>
  </defs>
  <g id="DISTRIBUTION_OF_THE_RAISED_FUND" data-name="DISTRIBUTION OF THE RAISED FUND" transform="translate(-352.449 -3582.721)">
    <g id="Group_1416" data-name="Group 1416" transform="translate(352.449 3594.898)">
      <path id="Path_2853" data-name="Path 2853" class="cls-1" d="M82.7,0a136.054,136.054,0,0,1,91.751,235.434" transform="translate(54.512 0)"/>
      <path id="Path_2854" data-name="Path 2854" class="cls-2" d="M174.451,235.434A136.054,136.054,0,0,0,82.7,0V136.051C83.2,135.553,127,183.337,174.451,235.434Z" transform="translate(54.512 0)"/>
      <path id="Path_2855" data-name="Path 2855" class="cls-1" d="M199.793,142.2A136.11,136.11,0,0,1,43.5,162.442" transform="translate(28.673 93.732)"/>
      <path id="Path_2856" data-name="Path 2856" class="cls-3" d="M43.5,202.123a136.11,136.11,0,0,0,156.293-20.242L108.539,82Z" transform="translate(28.673 54.051)"/>
      <path id="Path_2857" data-name="Path 2857" class="cls-1" d="M138.2,141.9l-.5.5" transform="translate(90.766 93.534)"/>
      <path id="Path_2858" data-name="Path 2858" class="cls-2" d="M82.7,82l91.254,99.881.5-.5C127,129.287,83.2,81.5,82.7,82Z" transform="translate(54.512 54.049)"/>
      <path id="Path_2859" data-name="Path 2859" class="cls-1" d="M72.173,247.011A136.073,136.073,0,0,1,60.227,13.9" transform="translate(0 9.162)"/>
      <path id="Path_2860" data-name="Path 2860" class="cls-4" d="M60.227,13.9A136.073,136.073,0,0,0,72.173,247.011l65.039-120.123Z" transform="translate(0 9.162)"/>
      <path id="Path_2861" data-name="Path 2861" class="cls-1" d="M36.6,22.73A136.149,136.149,0,0,1,111.926,0h1.161" transform="translate(24.125 0)"/>
      <path id="Path_2862" data-name="Path 2862" class="cls-5" d="M36.6,22.73c35.672,51.932,77.151,112.657,76.487,113.32V0h-1.161A136.149,136.149,0,0,0,36.6,22.73Z" transform="translate(24.125 0)"/>
      <path id="Path_2863" data-name="Path 2863" class="cls-1" d="M36.3,14.032c.166-.166.332-.166.5-.332" transform="translate(23.927 9.03)"/>
      <path id="Path_2864" data-name="Path 2864" class="cls-5" d="M36.8,13.7c-.166.166-.332.166-.5.332L113.285,127.02C113.949,126.357,72.47,65.632,36.8,13.7Z" transform="translate(23.927 9.03)"/>
    </g>
    <circle id="Ellipse_513" data-name="Ellipse 513" class="cls-2" cx="9" cy="9" r="9" transform="translate(679 3584)"/>
    <circle id="Ellipse_517" data-name="Ellipse 517" class="cls-3" cx="9" cy="9" r="9" transform="translate(1010 3584)"/>
    <circle id="Ellipse_523" data-name="Ellipse 523" class="cls-4" cx="9" cy="9" r="9" transform="translate(679 3764)"/>
    <circle id="Ellipse_524" data-name="Ellipse 524" class="cls-5" cx="9" cy="9" r="9" transform="translate(1010 3768)"/>
    <circle id="Ellipse_514" data-name="Ellipse 514" class="cls-2" cx="2" cy="2" r="2" transform="translate(711 3641)"/>
    <circle id="Ellipse_518" data-name="Ellipse 518" class="cls-3" cx="2" cy="2" r="2" transform="translate(1042 3641)"/>
    <circle id="Ellipse_525" data-name="Ellipse 525" class="cls-4" cx="2" cy="2" r="2" transform="translate(711 3821)"/>
    <circle id="Ellipse_550" data-name="Ellipse 550" class="cls-4" cx="2" cy="2" r="2" transform="translate(711 3843)"/>
    <circle id="Ellipse_551" data-name="Ellipse 551" class="cls-4" cx="2" cy="2" r="2" transform="translate(711 3865)"/>
    <circle id="Ellipse_526" data-name="Ellipse 526" class="cls-5" cx="2" cy="2" r="2" transform="translate(1042 3825)"/>
    <circle id="Ellipse_515" data-name="Ellipse 515" class="cls-2" cx="2" cy="2" r="2" transform="translate(711 3663)"/>
    <circle id="Ellipse_527" data-name="Ellipse 527" class="cls-5" cx="2" cy="2" r="2" transform="translate(1042 3847)"/>
    <circle id="Ellipse_516" data-name="Ellipse 516" class="cls-2" cx="2" cy="2" r="2" transform="translate(711 3685)"/>
    <circle id="Ellipse_520" data-name="Ellipse 520" class="cls-3" cx="2" cy="2" r="2" transform="translate(1042 3664)"/>
    <circle id="Ellipse_528" data-name="Ellipse 528" class="cls-5" cx="2" cy="2" r="2" transform="translate(1042 3869)"/>
    <circle id="Ellipse_549" data-name="Ellipse 549" class="cls-5" cx="2" cy="2" r="2" transform="translate(1042 3891)"/>
    <circle id="Ellipse_521" data-name="Ellipse 521" class="cls-3" cx="2" cy="2" r="2" transform="translate(1042 3686)"/>
    <circle id="Ellipse_522" data-name="Ellipse 522" class="cls-3" cx="2" cy="2" r="2" transform="translate(1042 3708)"/>
    <path id="Path_3977" data-name="Path 3977" class="cls-2" d="M11.664,0H9.423V-4.563H.864V-6.426L8.586-18.009h3.078V-6.534H14.2v1.971H11.664ZM9.423-6.534v-9.4l-6.318,9.4ZM23.328.324A5.964,5.964,0,0,1,20.182-.5a6.1,6.1,0,0,1-2.16-2.2,11.27,11.27,0,0,1-1.188-2.97,13.867,13.867,0,0,1-.391-3.321,13.867,13.867,0,0,1,.391-3.321,11.059,11.059,0,0,1,1.188-2.956,6.132,6.132,0,0,1,2.16-2.187,5.964,5.964,0,0,1,3.146-.823,5.983,5.983,0,0,1,3.132.823,6.1,6.1,0,0,1,2.173,2.187,11.059,11.059,0,0,1,1.188,2.956,13.867,13.867,0,0,1,.392,3.321,13.867,13.867,0,0,1-.392,3.321A11.27,11.27,0,0,1,28.633-2.7,6.065,6.065,0,0,1,26.46-.5,5.983,5.983,0,0,1,23.328.324Zm-2.7-3.119a3.6,3.6,0,0,0,2.7,1.121,3.6,3.6,0,0,0,2.7-1.121,5.943,5.943,0,0,0,1.485-2.687,14.032,14.032,0,0,0,.4-3.51,14.032,14.032,0,0,0-.4-3.51,5.851,5.851,0,0,0-1.485-2.673,3.617,3.617,0,0,0-2.7-1.107,3.617,3.617,0,0,0-2.7,1.107A5.851,5.851,0,0,0,19.143-12.5a14.032,14.032,0,0,0-.4,3.51,14.032,14.032,0,0,0,.4,3.51A5.943,5.943,0,0,0,20.628-2.795Zm19.265-7.857A4.21,4.21,0,0,1,36.747-9.4a4.122,4.122,0,0,1-3.118-1.255,4.369,4.369,0,0,1-1.2-3.146A4.471,4.471,0,0,1,33.642-17a4.089,4.089,0,0,1,3.105-1.283A4.165,4.165,0,0,1,39.893-17a4.443,4.443,0,0,1,1.229,3.2A4.316,4.316,0,0,1,39.893-10.652ZM36.5,0H35.046l11.5-18.009h1.485ZM49.275-.932A4.166,4.166,0,0,1,46.143.324,4.122,4.122,0,0,1,43.025-.932a4.369,4.369,0,0,1-1.2-3.146,4.471,4.471,0,0,1,1.215-3.2,4.089,4.089,0,0,1,3.1-1.282,4.121,4.121,0,0,1,3.132,1.282,4.471,4.471,0,0,1,1.215,3.2A4.342,4.342,0,0,1,49.275-.932ZM34.8-11.624a2.449,2.449,0,0,0,1.944.877,2.529,2.529,0,0,0,1.971-.877A3.145,3.145,0,0,0,39.5-13.8a3.255,3.255,0,0,0-.77-2.227,2.518,2.518,0,0,0-1.984-.878,2.449,2.449,0,0,0-1.944.878,3.291,3.291,0,0,0-.756,2.227A3.213,3.213,0,0,0,34.8-11.624ZM44.186-1.9a2.489,2.489,0,0,0,1.958.878A2.529,2.529,0,0,0,48.114-1.9,3.145,3.145,0,0,0,48.9-4.077a3.255,3.255,0,0,0-.77-2.227,2.518,2.518,0,0,0-1.985-.878,2.478,2.478,0,0,0-1.971.878,3.291,3.291,0,0,0-.756,2.227A3.178,3.178,0,0,0,44.186-1.9Z" transform="translate(707 3601)"/>
    <path id="Path_3987" data-name="Path 3987" class="cls-2" d="M7.047,0H4.806V-15.039L1.917-11.988.567-13.365l4.509-4.644H7.047Zm9.288.324A8.461,8.461,0,0,1,12.5-.513,6.612,6.612,0,0,1,9.936-2.646l1.323-1.4a5.8,5.8,0,0,0,2.133,1.728,6.478,6.478,0,0,0,2.889.648,4.791,4.791,0,0,0,3.092-.9,3,3,0,0,0,1.12-2.47,2.669,2.669,0,0,0-1.2-2.4,5.956,5.956,0,0,0-3.281-.783q-1.593,0-1.863.027V-10.26q.3.027,1.863.027a5.548,5.548,0,0,0,3.01-.743A2.461,2.461,0,0,0,20.2-13.2a2.627,2.627,0,0,0-1.147-2.255,4.807,4.807,0,0,0-2.875-.824,6.282,6.282,0,0,0-4.752,2.187l-1.242-1.4a7.571,7.571,0,0,1,6.156-2.781A7.128,7.128,0,0,1,20.722-17a4.159,4.159,0,0,1,1.715,3.523,3.64,3.64,0,0,1-1.188,2.848,5.4,5.4,0,0,1-2.7,1.337,4.962,4.962,0,0,1,2.822,1.3A3.937,3.937,0,0,1,22.707-4.86a4.647,4.647,0,0,1-1.728,3.74A7.011,7.011,0,0,1,16.335.324Zm16.16-10.976A4.21,4.21,0,0,1,29.349-9.4a4.122,4.122,0,0,1-3.119-1.255,4.369,4.369,0,0,1-1.2-3.146A4.471,4.471,0,0,1,26.244-17a4.089,4.089,0,0,1,3.105-1.283A4.165,4.165,0,0,1,32.494-17a4.443,4.443,0,0,1,1.229,3.2A4.316,4.316,0,0,1,32.494-10.652ZM29.106,0H27.648l11.5-18.009h1.485ZM41.877-.932A4.166,4.166,0,0,1,38.745.324,4.122,4.122,0,0,1,35.627-.932a4.369,4.369,0,0,1-1.2-3.146,4.471,4.471,0,0,1,1.215-3.2,4.089,4.089,0,0,1,3.1-1.282,4.121,4.121,0,0,1,3.132,1.282,4.471,4.471,0,0,1,1.215,3.2A4.342,4.342,0,0,1,41.877-.932ZM27.405-11.624a2.449,2.449,0,0,0,1.944.877,2.529,2.529,0,0,0,1.971-.877A3.145,3.145,0,0,0,32.1-13.8a3.255,3.255,0,0,0-.769-2.227,2.518,2.518,0,0,0-1.984-.878,2.449,2.449,0,0,0-1.944.878,3.291,3.291,0,0,0-.756,2.227A3.213,3.213,0,0,0,27.405-11.624ZM36.788-1.9a2.489,2.489,0,0,0,1.958.878A2.529,2.529,0,0,0,40.716-1.9,3.145,3.145,0,0,0,41.5-4.077a3.255,3.255,0,0,0-.77-2.227,2.518,2.518,0,0,0-1.984-.878,2.478,2.478,0,0,0-1.971.878,3.291,3.291,0,0,0-.756,2.227A3.178,3.178,0,0,0,36.788-1.9Z" transform="translate(1038 3601)"/>
    <path id="Path_3982" data-name="Path 3982" class="cls-2" d="M11.664,0H9.423V-4.563H.864V-6.426L8.586-18.009h3.078V-6.534H14.2v1.971H11.664ZM9.423-6.534v-9.4l-6.318,9.4ZM23.328.324A5.964,5.964,0,0,1,20.182-.5a6.1,6.1,0,0,1-2.16-2.2,11.27,11.27,0,0,1-1.188-2.97,13.867,13.867,0,0,1-.391-3.321,13.867,13.867,0,0,1,.391-3.321,11.059,11.059,0,0,1,1.188-2.956,6.132,6.132,0,0,1,2.16-2.187,5.964,5.964,0,0,1,3.146-.823,5.983,5.983,0,0,1,3.132.823,6.1,6.1,0,0,1,2.173,2.187,11.059,11.059,0,0,1,1.188,2.956,13.867,13.867,0,0,1,.392,3.321,13.867,13.867,0,0,1-.392,3.321A11.27,11.27,0,0,1,28.633-2.7,6.065,6.065,0,0,1,26.46-.5,5.983,5.983,0,0,1,23.328.324Zm-2.7-3.119a3.6,3.6,0,0,0,2.7,1.121,3.6,3.6,0,0,0,2.7-1.121,5.943,5.943,0,0,0,1.485-2.687,14.032,14.032,0,0,0,.4-3.51,14.032,14.032,0,0,0-.4-3.51,5.851,5.851,0,0,0-1.485-2.673,3.617,3.617,0,0,0-2.7-1.107,3.617,3.617,0,0,0-2.7,1.107A5.851,5.851,0,0,0,19.143-12.5a14.032,14.032,0,0,0-.4,3.51,14.032,14.032,0,0,0,.4,3.51A5.943,5.943,0,0,0,20.628-2.795Zm19.265-7.857A4.21,4.21,0,0,1,36.747-9.4a4.122,4.122,0,0,1-3.118-1.255,4.369,4.369,0,0,1-1.2-3.146A4.471,4.471,0,0,1,33.642-17a4.089,4.089,0,0,1,3.105-1.283A4.165,4.165,0,0,1,39.893-17a4.443,4.443,0,0,1,1.229,3.2A4.316,4.316,0,0,1,39.893-10.652ZM36.5,0H35.046l11.5-18.009h1.485ZM49.275-.932A4.166,4.166,0,0,1,46.143.324,4.122,4.122,0,0,1,43.025-.932a4.369,4.369,0,0,1-1.2-3.146,4.471,4.471,0,0,1,1.215-3.2,4.089,4.089,0,0,1,3.1-1.282,4.121,4.121,0,0,1,3.132,1.282,4.471,4.471,0,0,1,1.215,3.2A4.342,4.342,0,0,1,49.275-.932ZM34.8-11.624a2.449,2.449,0,0,0,1.944.877,2.529,2.529,0,0,0,1.971-.877A3.145,3.145,0,0,0,39.5-13.8a3.255,3.255,0,0,0-.77-2.227,2.518,2.518,0,0,0-1.984-.878,2.449,2.449,0,0,0-1.944.878,3.291,3.291,0,0,0-.756,2.227A3.213,3.213,0,0,0,34.8-11.624ZM44.186-1.9a2.489,2.489,0,0,0,1.958.878A2.529,2.529,0,0,0,48.114-1.9,3.145,3.145,0,0,0,48.9-4.077a3.255,3.255,0,0,0-.77-2.227,2.518,2.518,0,0,0-1.985-.878,2.478,2.478,0,0,0-1.971.878,3.291,3.291,0,0,0-.756,2.227A3.178,3.178,0,0,0,44.186-1.9Z" transform="translate(707 3781)"/>
    <path id="Path_3993" data-name="Path 3993" class="cls-2" d="M5.751,0H3.267L10.53-16.011H.837v-2H13.122v1.539ZM22.208-10.652A4.21,4.21,0,0,1,19.062-9.4a4.122,4.122,0,0,1-3.118-1.255,4.369,4.369,0,0,1-1.2-3.146A4.471,4.471,0,0,1,15.957-17a4.089,4.089,0,0,1,3.1-1.283A4.165,4.165,0,0,1,22.208-17a4.443,4.443,0,0,1,1.229,3.2A4.316,4.316,0,0,1,22.208-10.652ZM18.819,0H17.361l11.5-18.009h1.485ZM31.59-.932A4.166,4.166,0,0,1,28.458.324,4.122,4.122,0,0,1,25.34-.932a4.369,4.369,0,0,1-1.2-3.146,4.471,4.471,0,0,1,1.215-3.2,4.089,4.089,0,0,1,3.105-1.282A4.121,4.121,0,0,1,31.59-7.277a4.471,4.471,0,0,1,1.215,3.2A4.342,4.342,0,0,1,31.59-.932ZM17.118-11.624a2.449,2.449,0,0,0,1.944.877,2.529,2.529,0,0,0,1.971-.877,3.145,3.145,0,0,0,.783-2.174,3.255,3.255,0,0,0-.77-2.227,2.518,2.518,0,0,0-1.985-.878,2.449,2.449,0,0,0-1.944.878,3.291,3.291,0,0,0-.756,2.227A3.213,3.213,0,0,0,17.118-11.624ZM26.5-1.9a2.489,2.489,0,0,0,1.958.878A2.529,2.529,0,0,0,30.429-1.9a3.145,3.145,0,0,0,.783-2.174,3.255,3.255,0,0,0-.77-2.227,2.518,2.518,0,0,0-1.984-.878,2.478,2.478,0,0,0-1.971.878,3.291,3.291,0,0,0-.756,2.227A3.178,3.178,0,0,0,26.5-1.9Z" transform="translate(1038 3785)"/>
    <path id="Path_3978" data-name="Path 3978" class="cls-6" d="M12.734-6.578V1.406H11.57v-15.07h1.164v6.047h2.609v1.039ZM2-3.023v-9.312H9.117v9.313Zm5.969-8.289h-4.8v7.266h4.8ZM28.609,1.406v-15.07h1.164V1.406Zm-2.766-.5V-6.75H23.008V-7.789h2.836v-5.57h1.148V.906ZM23.7-12.352A12.531,12.531,0,0,1,18.031-2.18l-.93-.812a9.733,9.733,0,0,0,2.758-2.289,10.864,10.864,0,0,0,1.773-2.8L17.8-7.586l-.414-1.1,4.625-.352a8.419,8.419,0,0,0,.445-2.289H18v-1.023ZM44.336-4.43v-9.234h1.172V-4.43Zm-8.43-4.531v1.969h1.031q3.7,0,5.555-.141l.07.992q-2.812.188-7.828.188v-6.93h7.234v1.039H35.906v1.875h5.3v1.008ZM40.8,1.2a7.162,7.162,0,0,1-3.648-.77A2.306,2.306,0,0,1,35.859-1.6a2.3,2.3,0,0,1,1.289-2.031A7.192,7.192,0,0,1,40.8-4.4a7.284,7.284,0,0,1,3.668.762A2.294,2.294,0,0,1,45.758-1.6,2.3,2.3,0,0,1,44.469.441,7.28,7.28,0,0,1,40.8,1.2Zm0-4.609a6.157,6.157,0,0,0-2.742.488A1.472,1.472,0,0,0,37.1-1.6a1.483,1.483,0,0,0,.945,1.316,6.064,6.064,0,0,0,2.75.5,6.182,6.182,0,0,0,2.781-.5A1.483,1.483,0,0,0,44.531-1.6a1.473,1.473,0,0,0-.961-1.316A6.277,6.277,0,0,0,40.8-3.406Zm23.7-1.43V-6.719H61.331V-7.773H64.5V-9.906H61.487v-1.055H64.5v-2.7h1.172v8.828Zm-3.344-8.031a7.738,7.738,0,0,1-2.168,4.977A12.506,12.506,0,0,1,54.308-4.7l-.82-.93a10.674,10.674,0,0,0,4.094-2.41,6.94,6.94,0,0,0,2.211-3.777H54.48v-1.047ZM60.831,1.2A6.666,6.666,0,0,1,57.179.359a2.5,2.5,0,0,1-1.293-2.148,2.463,2.463,0,0,1,1.293-2.133,6.767,6.767,0,0,1,3.652-.828,6.805,6.805,0,0,1,3.664.828,2.462,2.462,0,0,1,1.3,2.133A2.5,2.5,0,0,1,64.5.359,6.7,6.7,0,0,1,60.831,1.2Zm0-4.945a5.578,5.578,0,0,0-2.738.555,1.615,1.615,0,0,0-.973,1.4,1.645,1.645,0,0,0,.961,1.418A5.47,5.47,0,0,0,60.831.2a5.505,5.505,0,0,0,2.746-.562,1.641,1.641,0,0,0,.965-1.422,1.611,1.611,0,0,0-.977-1.4A5.615,5.615,0,0,0,60.831-3.742ZM80.339,1.406v-15.07H81.5V1.406ZM70.19-2.7v-9.828h1.172v3.859h4.875v-3.859h1.172V-2.7Zm6.047-4.93H71.362v3.891h4.875Zm10.355,1.3a.849.849,0,0,1-.624.256.849.849,0,0,1-.624-.256.849.849,0,0,1-.256-.624.849.849,0,0,1,.256-.624.849.849,0,0,1,.624-.256.849.849,0,0,1,.624.256.849.849,0,0,1,.256.624A.849.849,0,0,1,86.592-6.336Zm0,6.24a.849.849,0,0,1-.624.256A.849.849,0,0,1,85.344-.1a.849.849,0,0,1-.256-.624.849.849,0,0,1,.256-.624.849.849,0,0,1,.624-.256.849.849,0,0,1,.624.256.849.849,0,0,1,.256.624A.849.849,0,0,1,86.592-.1Z" transform="translate(707 3624)"/>
    <path id="Path_3988" data-name="Path 3988" class="cls-6" d="M2.594-6.445v-6.727H3.742v2.422H8.383v-2.422H9.555v2.9h2.828v-3.391h1.172v7.789H12.383V-9.219H9.555v2.773ZM8.383-9.727H3.742v2.242H8.383ZM4.273.992V-5.039H5.422v2.078h6.961V-5.039h1.156V.992Zm8.109-2.93H5.422V-.031h6.961Zm6.977-5.937v-3.242h8.125v-1.266H19.359v-1.023h9.281v3.3H20.516V-8.9h8.461v1.023Zm-.047,8.992V-2.141h8.211V-3.281H19.313V-4.3h1.7V-5.648h-4V-6.656H30.992v1.008h-4V-4.3h1.68v3.172H20.461V.094h8.547V1.117ZM25.844-4.3V-5.648H22.156V-4.3Zm22.667-.977v-8.383h1.172v8.383ZM38.722-6.734v-6.383H45.7v6.383Zm5.82-5.344H39.87v4.32h4.672ZM50.253,1.07a8.007,8.007,0,0,1-3.082-1.18A6.566,6.566,0,0,1,45-2.078,6.979,6.979,0,0,1,42.78-.121,9.166,9.166,0,0,1,39.792,1.07L39.058.125a8.175,8.175,0,0,0,3.406-1.262,4.05,4.05,0,0,0,1.82-2.145H39.808V-4.3H44.4V-5.922h1.164V-4.3h4.594v1.023H45.683A4.017,4.017,0,0,0,47.5-1.121,7.073,7.073,0,0,0,50.925.125Zm18.4-5.211-1.133-.1A42.347,42.347,0,0,0,67.8-8.836v-2.352H59.3v-1.055h9.664v3.43A36.941,36.941,0,0,1,68.654-4.141ZM57.264-1.281V-2.336h5.555V-7.25h1.164v4.914h7.266v1.055ZM75.615-7.742v-5.375H84.9v5.375Zm8.125-4.336H76.772v3.313H83.74ZM79.779-1.859v-3.1H73.264V-6H87.248v1.039h-6.32v3.1ZM75.475.93V-3.586h1.164V-.109h8.625V.93Zm29.12.477v-15.07h1.164V1.406ZM94.446-2.7v-9.828h1.172v3.859h4.875v-3.859h1.172V-2.7Zm6.047-4.93H95.618v3.891h4.875Zm12.641-.812a2.387,2.387,0,0,1-1.531-2.227,2.282,2.282,0,0,1,1.242-2.066,7.045,7.045,0,0,1,3.539-.73,7.045,7.045,0,0,1,3.539.73,2.282,2.282,0,0,1,1.242,2.066,2.357,2.357,0,0,1-1.547,2.227V-6.3h3.758v1.039H109.392V-6.3h3.742Zm3.25-4.031q-3.57,0-3.57,1.8a1.463,1.463,0,0,0,.887,1.328,5.862,5.862,0,0,0,2.684.477,5.862,5.862,0,0,0,2.684-.477,1.463,1.463,0,0,0,.887-1.328Q119.954-12.477,116.384-12.477ZM114.306-6.3h4.141V-8.062a9.88,9.88,0,0,1-2.062.188,10.118,10.118,0,0,1-2.078-.2Zm2.078,7.633a7.063,7.063,0,0,1-3.59-.742,2.28,2.28,0,0,1-1.238-2.039A2.3,2.3,0,0,1,112.8-3.512a8.972,8.972,0,0,1,7.164,0,2.3,2.3,0,0,1,1.246,2.059A2.28,2.28,0,0,1,119.974.586,7.063,7.063,0,0,1,116.384,1.328Zm0-4.594a5.938,5.938,0,0,0-2.7.484,1.473,1.473,0,0,0-.914,1.328,1.45,1.45,0,0,0,.91,1.316,6.062,6.062,0,0,0,2.707.473,6.066,6.066,0,0,0,2.7-.473A1.45,1.45,0,0,0,120-1.453a1.47,1.47,0,0,0-.918-1.332A5.984,5.984,0,0,0,116.384-3.266Zm10.464-3.07a.849.849,0,0,1-.624.256.849.849,0,0,1-.624-.256.849.849,0,0,1-.256-.624.849.849,0,0,1,.256-.624.849.849,0,0,1,.624-.256.849.849,0,0,1,.624.256.849.849,0,0,1,.256.624A.849.849,0,0,1,126.848-6.336Zm0,6.24a.849.849,0,0,1-.624.256A.849.849,0,0,1,125.6-.1a.849.849,0,0,1-.256-.624.849.849,0,0,1,.256-.624.849.849,0,0,1,.624-.256.849.849,0,0,1,.624.256.849.849,0,0,1,.256.624A.849.849,0,0,1,126.848-.1Z" transform="translate(1038 3624)"/>
    <path id="Path_3983" data-name="Path 3983" class="cls-6" d="M12.594,1.406V-6.078H10.719V.945H9.57v-14.3h1.148v6.242h1.875v-6.547h1.164V1.406ZM7.7-12.352A12.42,12.42,0,0,1,2.031-2.2l-.93-.8A10.171,10.171,0,0,0,4.727-6.437a9.865,9.865,0,0,0,1.734-4.891H2v-1.023ZM28.813-8.961V-6H27.664v-7.664h1.148V-10h2.273v1.039ZM17.891-6.812v-6.336h1.148V-10.8h4.609v-2.352H24.8v6.336Zm5.758-2.977H19.039V-7.82h4.609ZM19.617,1.219v-3.7h8.047V-4.141H19.617V-5.172h9.2v3.664H20.766V.2h8.469V1.219ZM34.464-6.336a.849.849,0,0,1-.624.256.849.849,0,0,1-.624-.256.849.849,0,0,1-.256-.624.849.849,0,0,1,.256-.624.849.849,0,0,1,.624-.256.849.849,0,0,1,.624.256.849.849,0,0,1,.256.624A.849.849,0,0,1,34.464-6.336Zm0,6.24A.849.849,0,0,1,33.84.16.849.849,0,0,1,33.216-.1.849.849,0,0,1,32.96-.72a.849.849,0,0,1,.256-.624A.849.849,0,0,1,33.84-1.6a.849.849,0,0,1,.624.256.849.849,0,0,1,.256.624A.849.849,0,0,1,34.464-.1Z" transform="translate(707 3804)"/>
    <path id="Path_3994" data-name="Path 3994" class="cls-6" d="M12.211,1.406v-15.07h1.164V1.406ZM9.188-12.273a10.485,10.485,0,0,1-1.8,5.746A14.02,14.02,0,0,1,2.4-2.109l-.891-.945A11.164,11.164,0,0,0,5.734-6.2a9.409,9.409,0,0,0,2.2-5.039H2.125v-1.039ZM28.734-6.719V1.406H27.57v-15.07h1.164v5.891h2.547v1.055ZM19.266-7.07v3.406h.711a52.578,52.578,0,0,0,6.055-.211l.094,1.008q-1.266.148-2.742.188t-5.289.039v-9.7h7.039V-11.3H19.266v3.2h5.469V-7.07ZM48.339,1.406v-15.07H49.5V1.406ZM38.19-2.7v-9.828h1.172v3.859h4.875v-3.859h1.172V-2.7Zm6.047-4.93H39.362v3.891h4.875Zm12.641-.812a2.387,2.387,0,0,1-1.531-2.227,2.282,2.282,0,0,1,1.242-2.066,7.045,7.045,0,0,1,3.539-.73,7.045,7.045,0,0,1,3.539.73,2.282,2.282,0,0,1,1.242,2.066,2.357,2.357,0,0,1-1.547,2.227V-6.3H67.12v1.039H53.136V-6.3h3.742Zm3.25-4.031q-3.57,0-3.57,1.8a1.463,1.463,0,0,0,.887,1.328,5.862,5.862,0,0,0,2.684.477,5.862,5.862,0,0,0,2.684-.477,1.463,1.463,0,0,0,.887-1.328Q63.7-12.477,60.128-12.477ZM58.05-6.3H62.19V-8.062a9.88,9.88,0,0,1-2.062.188,10.118,10.118,0,0,1-2.078-.2Zm2.078,7.633a7.063,7.063,0,0,1-3.59-.742A2.28,2.28,0,0,1,55.3-1.453a2.3,2.3,0,0,1,1.246-2.059,7.04,7.04,0,0,1,3.582-.746,7.039,7.039,0,0,1,3.582.746,2.3,2.3,0,0,1,1.246,2.059A2.28,2.28,0,0,1,63.718.586,7.063,7.063,0,0,1,60.128,1.328Zm0-4.594a5.938,5.938,0,0,0-2.7.484,1.473,1.473,0,0,0-.914,1.328,1.45,1.45,0,0,0,.91,1.316,6.062,6.062,0,0,0,2.707.473,6.066,6.066,0,0,0,2.7-.473,1.45,1.45,0,0,0,.914-1.316,1.47,1.47,0,0,0-.918-1.332A5.984,5.984,0,0,0,60.128-3.266Zm10.464-3.07a.849.849,0,0,1-.624.256.849.849,0,0,1-.624-.256.849.849,0,0,1-.256-.624.849.849,0,0,1,.256-.624.849.849,0,0,1,.624-.256.849.849,0,0,1,.624.256.849.849,0,0,1,.256.624A.849.849,0,0,1,70.592-6.336Zm0,6.24a.849.849,0,0,1-.624.256A.849.849,0,0,1,69.344-.1a.849.849,0,0,1-.256-.624.849.849,0,0,1,.256-.624.849.849,0,0,1,.624-.256.849.849,0,0,1,.624.256.849.849,0,0,1,.256.624A.849.849,0,0,1,70.592-.1Z" transform="translate(1038 3808)"/>
    <path id="Path_3979" data-name="Path 3979" class="cls-6" d="M4.391.977V-4.3h9.391V.977Zm8.5-4.508H5.281V.211h7.609Zm-.016-1.547V-8.734H10.82v3.656h-.9v-8.273h.9v3.82h2.055v-4.133h.906v8.586ZM7.922-12.812a8.513,8.513,0,0,1-.5,2.555,8.054,8.054,0,0,1-1.18,2.129A9.326,9.326,0,0,1,4.461-6.387a14.385,14.385,0,0,1-2.3,1.4l-.656-.672a12.052,12.052,0,0,0,1.4-.7A10.04,10.04,0,0,0,4.16-7.211,8.822,8.822,0,0,0,5.23-8.23a7.312,7.312,0,0,0,.855-1.184l-4.258.4-.32-.773,4.945-.344a7.7,7.7,0,0,0,.32-.922,6.689,6.689,0,0,0,.2-.992H2.039v-.766Zm21,14.219v-15.07h.906V1.406ZM24-7.859h2.2v-5.492h.9V.852h-.9v-7.93H24ZM17.32-11.5v-.789h7.008v.789Zm7.6,8.68a9.207,9.207,0,0,1-1.016.113q-.57.035-1.281.035h-5.75v-.789h1.9l-.187-6.68h.891l.172,6.68h2.359l.148-6.68h.9l-.211,6.68q.711,0,1.191-.031a6.769,6.769,0,0,0,.809-.094ZM36.023.891V-3.875h.906V.1h8.9V.891Zm8.484-14.555h.906V-2.742h-.906Zm-6.562,1.477a3.264,3.264,0,0,0-1.215.219,2.8,2.8,0,0,0-.949.613,2.786,2.786,0,0,0-.621.941,3.162,3.162,0,0,0-.223,1.2,3.286,3.286,0,0,0,.219,1.223,2.69,2.69,0,0,0,.617.941,2.774,2.774,0,0,0,.953.605,3.347,3.347,0,0,0,1.219.215,3.347,3.347,0,0,0,1.219-.215,2.774,2.774,0,0,0,.953-.605,2.69,2.69,0,0,0,.617-.941,3.286,3.286,0,0,0,.219-1.223,3.162,3.162,0,0,0-.223-1.2,2.786,2.786,0,0,0-.621-.941,2.8,2.8,0,0,0-.949-.613A3.264,3.264,0,0,0,37.945-12.187Zm0,6.727a4.125,4.125,0,0,1-1.531-.281,3.733,3.733,0,0,1-1.23-.781,3.62,3.62,0,0,1-.816-1.187,3.743,3.743,0,0,1-.3-1.5,3.868,3.868,0,0,1,.293-1.531,3.472,3.472,0,0,1,.809-1.176,3.585,3.585,0,0,1,1.227-.754,4.386,4.386,0,0,1,1.547-.266,4.3,4.3,0,0,1,1.543.27,3.643,3.643,0,0,1,1.223.758,3.426,3.426,0,0,1,.8,1.176A3.893,3.893,0,0,1,41.8-9.211a3.758,3.758,0,0,1-.293,1.5A3.654,3.654,0,0,1,40.7-6.527a3.666,3.666,0,0,1-1.223.785A4.116,4.116,0,0,1,37.945-5.461Z" transform="translate(725 3648)"/>
    <path id="Path_3989" data-name="Path 3989" class="cls-6" d="M9.227-7.539h3.164v-2.672H9.227ZM4.141.961V-3.758h.906V.172h8.734V.961Zm4.2-10.289H3.25v3.344H8.336ZM2.359-5.219v-7.727H3.25v2.852H8.336v-2.852h.891v1.977h3.164v-2.7H13.3V-2.687h-.906V-6.781H9.227v1.563ZM17.047-.945v-.773h6.5v-2.4a8.146,8.146,0,0,1-2.051-.3,4.511,4.511,0,0,1-1.371-.652,2.48,2.48,0,0,1-.77-.875,2.154,2.154,0,0,1-.238-.965,2.214,2.214,0,0,1,.262-1.023,2.512,2.512,0,0,1,.844-.906,4.888,4.888,0,0,1,1.512-.645A8.975,8.975,0,0,1,24-9.734a8.928,8.928,0,0,1,2.262.246,4.89,4.89,0,0,1,1.508.645,2.477,2.477,0,0,1,.84.906,2.241,2.241,0,0,1,.258,1.023,2.154,2.154,0,0,1-.238.965,2.473,2.473,0,0,1-.762.871,4.518,4.518,0,0,1-1.367.652,8.038,8.038,0,0,1-2.047.309v2.4h6.5v.773ZM24-9a7.645,7.645,0,0,0-1.922.2,3.984,3.984,0,0,0-1.223.516,1.95,1.95,0,0,0-.648.676,1.487,1.487,0,0,0-.191.691,1.509,1.509,0,0,0,.191.7,1.878,1.878,0,0,0,.648.672,4.056,4.056,0,0,0,1.227.5,7.8,7.8,0,0,0,1.918.2,7.607,7.607,0,0,0,1.914-.2,4.122,4.122,0,0,0,1.223-.508,1.854,1.854,0,0,0,.645-.668,1.511,1.511,0,0,0,.188-.691,1.369,1.369,0,0,0-.082-.453,1.65,1.65,0,0,0-.266-.469,2.247,2.247,0,0,0-.484-.445,3.18,3.18,0,0,0-.742-.371,5.627,5.627,0,0,0-1.035-.254A8.793,8.793,0,0,0,24-9Zm-5.766-1.891v-.766h5.313v-1.852h.906v1.852h5.313v.766ZM41.359-2.539a9.863,9.863,0,0,1-1.215-1.023A11.71,11.71,0,0,1,39.02-4.84,11.054,11.054,0,0,1,38.1-6.258,7.235,7.235,0,0,1,37.5-7.7a7.151,7.151,0,0,1-.559,1.473,11.332,11.332,0,0,1-.883,1.465,12.1,12.1,0,0,1-1.1,1.34,9.654,9.654,0,0,1-1.215,1.09l-.758-.609A9.323,9.323,0,0,0,34.516-4.25a9.791,9.791,0,0,0,1.3-1.711,9.326,9.326,0,0,0,.9-2,7.276,7.276,0,0,0,.336-2.2V-12.6h.922v2.383A7.041,7.041,0,0,0,38.3-8.062a8.792,8.792,0,0,0,.891,1.945,9.1,9.1,0,0,0,1.3,1.648,8.685,8.685,0,0,0,1.551,1.25Zm3.352-4.125v8.07H43.8v-15.07h.906v6.219H47.3v.781Zm20.066,8.07V-7.875h-3.6v-.781h3.6v-5.008h.906V1.406ZM61.613-2.539A9.863,9.863,0,0,1,60.4-3.562,11.71,11.71,0,0,1,59.273-4.84a11.054,11.054,0,0,1-.918-1.418,7.235,7.235,0,0,1-.6-1.437,7.151,7.151,0,0,1-.559,1.473,11.332,11.332,0,0,1-.883,1.465,12.1,12.1,0,0,1-1.1,1.34A9.654,9.654,0,0,1,54-2.328l-.758-.609A9.323,9.323,0,0,0,54.769-4.25a9.791,9.791,0,0,0,1.3-1.711,9.326,9.326,0,0,0,.9-2,7.276,7.276,0,0,0,.336-2.2V-12.6h.922v2.383a7.041,7.041,0,0,0,.332,2.156,8.792,8.792,0,0,0,.891,1.945,9.1,9.1,0,0,0,1.3,1.648,8.685,8.685,0,0,0,1.551,1.25Zm19,3.945v-15.07h.906V1.406Zm-4.18-9.172H71.1v4.289h5.336ZM70.206-2.711V-12.5H71.1v3.969H76.41V-12.5h.914v9.789ZM99.1-1.187H85.191v-.789H99.1Zm-6.961-8.937a5.573,5.573,0,0,1-.891,1.379A8.966,8.966,0,0,1,89.9-7.477a10.627,10.627,0,0,1-1.648,1.039,8.805,8.805,0,0,1-1.785.688l-.6-.711a7.748,7.748,0,0,0,1.406-.41,8.887,8.887,0,0,0,1.348-.668,8.972,8.972,0,0,0,1.2-.871,6.6,6.6,0,0,0,.969-1.023,4.908,4.908,0,0,0,.645-1.125,3.105,3.105,0,0,0,.234-1.168v-.7h.945v.688a3.006,3.006,0,0,0,.246,1.172,4.988,4.988,0,0,0,.668,1.129,6.931,6.931,0,0,0,.992,1.027,9.262,9.262,0,0,0,1.219.875,9.4,9.4,0,0,0,1.336.668,7.545,7.545,0,0,0,1.359.41l-.617.7a8.853,8.853,0,0,1-1.164-.406,9.65,9.65,0,0,1-1.145-.582,11.969,11.969,0,0,1-1.078-.723,9.609,9.609,0,0,1-.961-.824,7.473,7.473,0,0,1-.781-.895A5.092,5.092,0,0,1,92.136-10.125Z" transform="translate(1056 3648)"/>
    <path id="Path_3984" data-name="Path 3984" class="cls-6" d="M2.727,4.438V3.68H13.273v.758Zm-.2,4.047V7.727H4.82L4.656,5.273h.9l.164,2.453h4.563l.164-2.453h.9L11.18,7.727h2.289v.758ZM1.047,10.828V10.07H14.953v.758Zm2.273,7.2V14.813h8.438V13.141H3.32v-.758h9.344v3.172H4.227v1.719H13.07v.758Zm25.539-4.875V8.547H26.8v3.563h-.9V3.648h.9v4.1h2.055V3.336h.906v9.82ZM24.734,11.18a5.642,5.642,0,0,1-.605.121q-.34.051-.7.086t-.719.055q-.355.02-.66.027l-.383.012q-.172,0-.363.012t-.437.012l-.613.008q-.367,0-.891,0H18.1V7.406H22.82V4.859H18.1V4.094h5.625V8.156H19.008V10.75h1.043q.441,0,.762,0l.551-.008.422-.008q.191,0,.359-.012l.371-.016q.266-.008.547-.031t.555-.051q.273-.027.527-.07t.457-.09Zm5.445,6.953a9.3,9.3,0,0,1-1.543-.484,9.859,9.859,0,0,1-1.5-.77,8.747,8.747,0,0,1-1.32-1.008,5.574,5.574,0,0,1-.992-1.207,4.3,4.3,0,0,1-.566.8,6.944,6.944,0,0,1-.781.754,8.827,8.827,0,0,1-.93.672,10.118,10.118,0,0,1-1.008.559,9.432,9.432,0,0,1-1.023.422,6.189,6.189,0,0,1-.973.254l-.562-.766a6.34,6.34,0,0,0,1.148-.234,8.319,8.319,0,0,0,1.211-.465A8.121,8.121,0,0,0,22.484,16a5.83,5.83,0,0,0,.969-.836,3.96,3.96,0,0,0,.672-.98,2.525,2.525,0,0,0,.25-1.1V12.7h.906v.359a2.508,2.508,0,0,0,.25,1.094,3.96,3.96,0,0,0,.672.98,5.9,5.9,0,0,0,.973.84,8.186,8.186,0,0,0,1.148.668,8.487,8.487,0,0,0,1.207.469,6.162,6.162,0,0,0,1.141.238Zm5.156-.18V13.266h9.328v4.688Zm5.117-8.937v1.844h6.5v.789H33.047v-.789h6.5V9.016H34.531v-.75h2.328L36.7,5.352H37.6l.156,2.914h4.469l.188-2.914H43.3l-.2,2.914h2.367v.75Zm3.32,5.023H36.227V17.18h7.547ZM34.727,4.508V3.727H45.273v.781Zm30.246,13.9V10.766H62.785V17.93h-.9V3.648h.9V9.984h2.187V3.336h.906v15.07ZM59.691,4.688a13.076,13.076,0,0,1-.461,3,12.019,12.019,0,0,1-1.113,2.7,12.621,12.621,0,0,1-1.738,2.371,15.279,15.279,0,0,1-2.32,2.035l-.758-.617a11.435,11.435,0,0,0,2.078-1.629,11.9,11.9,0,0,0,1.672-2.066,11.505,11.505,0,0,0,1.164-2.395,9.98,9.98,0,0,0,.539-2.629H54.144V4.688Zm21.234,3.18v3.289h-.891V3.336h.891V7.094h2.25v.773Zm-5.008-.844H70.9v2.3h5.016ZM71.777,18.211v-3.5h8.242V12.7H71.777v-.758h9.148v3.469H72.683v2.039h8.672v.758Zm-1.766-8.133V3.867H70.9V6.273h5.016V3.867h.891v6.211Z" transform="translate(725 3813)"/>
    <path id="Path_3985" data-name="Path 3985" class="cls-6" d="M12.852,18.406V3.336h.906v15.07Zm-2.8-.508V9.664H7.2V8.883h2.844V3.648h.9V17.9ZM7.547,4.688a13.076,13.076,0,0,1-.461,3,12.019,12.019,0,0,1-1.113,2.7,12.621,12.621,0,0,1-1.738,2.371,15.279,15.279,0,0,1-2.32,2.035l-.758-.617a11.435,11.435,0,0,0,2.078-1.629,11.9,11.9,0,0,0,1.672-2.066A11.505,11.505,0,0,0,6.07,8.082a9.98,9.98,0,0,0,.539-2.629H2V4.688Zm20.977,8.7H21.086v3.828h7.438ZM20.2,17.977V12.617h9.219v5.359ZM28.508,3.336h.906v8.289h-.906ZM21.914,4.563a3.075,3.075,0,0,0-1.152.211,2.674,2.674,0,0,0-1.508,1.484,2.9,2.9,0,0,0-.215,1.125,2.967,2.967,0,0,0,.215,1.145,2.616,2.616,0,0,0,.6.891,2.718,2.718,0,0,0,.91.578,3.321,3.321,0,0,0,2.309,0,2.753,2.753,0,0,0,.918-.578,2.635,2.635,0,0,0,.605-.891,2.92,2.92,0,0,0,.219-1.145,2.851,2.851,0,0,0-.219-1.125,2.7,2.7,0,0,0-.609-.895,2.783,2.783,0,0,0-.922-.59A3.084,3.084,0,0,0,21.914,4.563Zm0,6.4a4.053,4.053,0,0,1-1.492-.27,3.7,3.7,0,0,1-1.2-.746,3.433,3.433,0,0,1-.8-1.133,3.507,3.507,0,0,1-.289-1.43A3.566,3.566,0,0,1,18.43,5.93a3.348,3.348,0,0,1,.8-1.125,3.662,3.662,0,0,1,1.2-.73,4.16,4.16,0,0,1,1.492-.262,4.249,4.249,0,0,1,1.5.258,3.645,3.645,0,0,1,1.2.727,3.358,3.358,0,0,1,.8,1.129,3.552,3.552,0,0,1,.293,1.457,3.566,3.566,0,0,1-.289,1.453,3.39,3.39,0,0,1-.8,1.129,3.61,3.61,0,0,1-1.2.734A4.246,4.246,0,0,1,21.914,10.961Zm27.058,7.445V10.766H46.785V17.93h-.9V3.648h.9V9.984h2.188V3.336h.906v15.07ZM43.691,4.688a13.076,13.076,0,0,1-.461,3,12.019,12.019,0,0,1-1.113,2.7,12.621,12.621,0,0,1-1.738,2.371,15.279,15.279,0,0,1-2.32,2.035l-.758-.617a11.435,11.435,0,0,0,2.078-1.629,11.9,11.9,0,0,0,1.672-2.066,11.505,11.505,0,0,0,1.164-2.395,9.98,9.98,0,0,0,.539-2.629H38.144V4.688Zm21.234,3.18v3.289h-.891V3.336h.891V7.094h2.25v.773Zm-5.008-.844H54.9v2.3h5.016ZM55.777,18.211v-3.5h8.242V12.7H55.777v-.758h9.148v3.469H56.683v2.039h8.672v.758Zm-1.766-8.133V3.867H54.9V6.273h5.016V3.867h.891v6.211Z" transform="translate(725 3835)"/>
    <path id="Path_3986" data-name="Path 3986" class="cls-6" d="M12.852,18.406V3.336h.906v15.07Zm-2.8-.508V9.664H7.2V8.883h2.844V3.648h.9V17.9ZM7.547,4.688a13.076,13.076,0,0,1-.461,3,12.019,12.019,0,0,1-1.113,2.7,12.621,12.621,0,0,1-1.738,2.371,15.279,15.279,0,0,1-2.32,2.035l-.758-.617a11.435,11.435,0,0,0,2.078-1.629,11.9,11.9,0,0,0,1.672-2.066A11.505,11.505,0,0,0,6.07,8.082a9.98,9.98,0,0,0,.539-2.629H2V4.688Zm20.977,8.7H21.086v3.828h7.438ZM20.2,17.977V12.617h9.219v5.359ZM28.508,3.336h.906v8.289h-.906ZM21.914,4.563a3.075,3.075,0,0,0-1.152.211,2.674,2.674,0,0,0-1.508,1.484,2.9,2.9,0,0,0-.215,1.125,2.967,2.967,0,0,0,.215,1.145,2.616,2.616,0,0,0,.6.891,2.718,2.718,0,0,0,.91.578,3.321,3.321,0,0,0,2.309,0,2.753,2.753,0,0,0,.918-.578,2.635,2.635,0,0,0,.605-.891,2.92,2.92,0,0,0,.219-1.145,2.851,2.851,0,0,0-.219-1.125,2.7,2.7,0,0,0-.609-.895,2.783,2.783,0,0,0-.922-.59A3.084,3.084,0,0,0,21.914,4.563Zm0,6.4a4.053,4.053,0,0,1-1.492-.27,3.7,3.7,0,0,1-1.2-.746,3.433,3.433,0,0,1-.8-1.133,3.507,3.507,0,0,1-.289-1.43A3.566,3.566,0,0,1,18.43,5.93a3.348,3.348,0,0,1,.8-1.125,3.662,3.662,0,0,1,1.2-.73,4.16,4.16,0,0,1,1.492-.262,4.249,4.249,0,0,1,1.5.258,3.645,3.645,0,0,1,1.2.727,3.358,3.358,0,0,1,.8,1.129,3.552,3.552,0,0,1,.293,1.457,3.566,3.566,0,0,1-.289,1.453,3.39,3.39,0,0,1-.8,1.129,3.61,3.61,0,0,1-1.2.734A4.246,4.246,0,0,1,21.914,10.961Zm19.578-6.2q0,4.273-.281,7.609l-.875-.062q.031-.3.059-.75t.059-1.012q.031-.559.055-1.191t.039-1.285q.016-.652.027-1.3t.012-1.223H34.039V4.766Zm3.516,5.57v8.07H44.1V3.336h.906V9.555H47.43v.781Zm-7.547-.883V14.6l.84-.02.949-.023q.492-.012.988-.027L41.2,14.5l.883-.031q.414-.016.734-.039l.047.758q-1.1.07-2.27.109l-2.426.078-1.219.031q-.641.016-1.312.027t-1.359.02q-.687.008-1.344.008l-.086-.781q.594,0,1.059,0l.887-.008q.422,0,.84-.012t.918-.023V9.453Zm17.41-5.016V3.68H65.417v.758Zm-.2,4.047V7.727h2.289L56.8,5.273h.9l.164,2.453h4.563l.164-2.453h.9l-.164,2.453h2.289v.758Zm-1.484,2.344V10.07H67.1v.758Zm2.273,7.2V14.813H63.9V13.141H55.464v-.758h9.344v3.172H56.371v1.719h8.844v.758ZM81,13.156V8.547H78.949v3.563h-.9V3.648h.9v4.1H81V3.336h.906v9.82ZM76.878,11.18a5.642,5.642,0,0,1-.605.121q-.34.051-.7.086t-.719.055q-.355.02-.66.027l-.383.012q-.172,0-.363.012t-.437.012l-.613.008q-.367,0-.891,0H70.246V7.406h4.719V4.859H70.246V4.094h5.625V8.156H71.152V10.75h1.043q.441,0,.762,0l.551-.008.422-.008q.191,0,.359-.012l.371-.016q.266-.008.547-.031t.555-.051q.273-.027.527-.07t.457-.09Zm5.445,6.953a9.3,9.3,0,0,1-1.543-.484,9.859,9.859,0,0,1-1.5-.77,8.747,8.747,0,0,1-1.32-1.008,5.574,5.574,0,0,1-.992-1.207,4.3,4.3,0,0,1-.566.8,6.945,6.945,0,0,1-.781.754,8.827,8.827,0,0,1-.93.672,10.118,10.118,0,0,1-1.008.559,9.432,9.432,0,0,1-1.023.422,6.189,6.189,0,0,1-.973.254l-.562-.766a6.34,6.34,0,0,0,1.148-.234,8.319,8.319,0,0,0,1.211-.465A8.121,8.121,0,0,0,74.628,16a5.83,5.83,0,0,0,.969-.836,3.96,3.96,0,0,0,.672-.98,2.525,2.525,0,0,0,.25-1.1V12.7h.906v.359a2.508,2.508,0,0,0,.25,1.094,3.96,3.96,0,0,0,.672.98,5.9,5.9,0,0,0,.973.84,8.186,8.186,0,0,0,1.148.668,8.487,8.487,0,0,0,1.207.469,6.162,6.162,0,0,0,1.141.238Zm5.156-.18V13.266h9.328v4.688ZM92.6,9.016v1.844h6.5v.789H85.191v-.789h6.5V9.016H86.675v-.75H89l-.164-2.914h.906L89.9,8.266h4.469l.188-2.914h.883l-.2,2.914h2.367v.75Zm3.32,5.023H88.371V17.18h7.547ZM86.871,4.508V3.727H97.417v.781Zm26.078,13.9V3.336h.906v15.07Zm-11.766-3.68q1.016,0,2.387-.012t3.191-.051q1.781-.039,3.023-.082t1.875-.1l.055.8q-.3.023-.781.047t-1.1.047q-.625.023-1.391.043l-1.648.043q-1.8.047-3.168.066t-2.355.02Zm5.055-9.477a3.44,3.44,0,0,0-1.172.2,2.987,2.987,0,0,0-.973.566,2.721,2.721,0,0,0-.664.883,2.632,2.632,0,0,0-.246,1.148,2.752,2.752,0,0,0,.246,1.191,2.625,2.625,0,0,0,.664.879,2.845,2.845,0,0,0,.973.543,3.832,3.832,0,0,0,2.344,0,2.845,2.845,0,0,0,.973-.543,2.625,2.625,0,0,0,.664-.879,2.752,2.752,0,0,0,.246-1.191,2.632,2.632,0,0,0-.246-1.148,2.721,2.721,0,0,0-.664-.883,2.987,2.987,0,0,0-.973-.566A3.44,3.44,0,0,0,106.238,5.25Zm0,6.352a4.45,4.45,0,0,1-1.555-.266,3.923,3.923,0,0,1-1.25-.734A3.392,3.392,0,0,1,102.6,9.48a3.346,3.346,0,0,1-.3-1.434,3.31,3.31,0,0,1,.309-1.434,3.457,3.457,0,0,1,.844-1.125,3.875,3.875,0,0,1,1.254-.734,4.464,4.464,0,0,1,1.539-.262,4.52,4.52,0,0,1,1.551.262,3.821,3.821,0,0,1,1.254.734,3.434,3.434,0,0,1,.836,1.125,3.525,3.525,0,0,1,0,2.867,3.434,3.434,0,0,1-.836,1.125,3.821,3.821,0,0,1-1.254.734A4.52,4.52,0,0,1,106.238,11.6Zm22.05,2.414a7.239,7.239,0,0,0-2.93.465,1.364,1.364,0,0,0,0,2.633,9.465,9.465,0,0,0,5.859,0,1.364,1.364,0,0,0,0-2.633A7.239,7.239,0,0,0,128.288,14.016Zm0,4.3a11.608,11.608,0,0,1-2.09-.168,5.487,5.487,0,0,1-1.527-.488,2.446,2.446,0,0,1-.934-.793,1.887,1.887,0,0,1-.316-1.074,2.039,2.039,0,0,1,1.234-1.867,10.383,10.383,0,0,1,7.266,0,2.039,2.039,0,0,1,1.234,1.867,1.887,1.887,0,0,1-.316,1.074,2.446,2.446,0,0,1-.934.793,5.487,5.487,0,0,1-1.527.488A11.608,11.608,0,0,1,128.288,18.32ZM121.335,12v-.758h6.508V9.32h-4.172V3.711h9.234v.758h-8.328V6.094h8.141v.742h-8.141V8.563h8.484V9.32h-4.312v1.922h6.492V12Zm27.742-3.7V11.9h-.906V3.336h.906V7.5h2.258v.8Zm-.891,6.93H140.71v1.984h7.477Zm-8.367,2.742V12.688h.891v1.789h7.477V12.688h.891v5.289Zm-2.3-12.187V5.031H141.5V3.109h.906V5.031h3.977v.758ZM142,7.523a4.859,4.859,0,0,0-1.168.129,2.861,2.861,0,0,0-.879.363,1.691,1.691,0,0,0-.551.563,1.416,1.416,0,0,0-.191.727,1.4,1.4,0,0,0,.191.723,1.671,1.671,0,0,0,.551.555,2.793,2.793,0,0,0,.879.352,5.712,5.712,0,0,0,2.34,0,2.8,2.8,0,0,0,.875-.352,1.671,1.671,0,0,0,.551-.555,1.4,1.4,0,0,0,.191-.723,1.416,1.416,0,0,0-.191-.727,1.691,1.691,0,0,0-.551-.562,2.864,2.864,0,0,0-.875-.363A4.847,4.847,0,0,0,142,7.523Zm-.016,4.266a6.066,6.066,0,0,1-1.418-.16,3.843,3.843,0,0,1-1.168-.477,2.459,2.459,0,0,1-.789-.781,1.977,1.977,0,0,1-.289-1.066,2.006,2.006,0,0,1,.293-1.086,2.483,2.483,0,0,1,.793-.785,3.843,3.843,0,0,1,1.168-.477,6.392,6.392,0,0,1,2.844,0,3.9,3.9,0,0,1,1.172.477,2.47,2.47,0,0,1,.8.785,2.006,2.006,0,0,1,.293,1.086,1.933,1.933,0,0,1-.3,1.07,2.529,2.529,0,0,1-.8.777,3.943,3.943,0,0,1-1.18.477A6.081,6.081,0,0,1,141.983,11.789Z" transform="translate(725 3857)"/>
    <path id="Path_3995" data-name="Path 3995" class="cls-6" d="M2.492-12.2H13.508v.789H2.492Zm8.641,6.164H13.7v.789H2.3v-.789H4.828l-.2-4.336h.891l.2,4.336H10.25l.258-4.336h.883Zm-10.086,5v-.789H14.953v.789ZM19.133-8.9h8.75v-2.656H19.164v-.773h9.625v4.188h-8.75v2.773h9.2v.773H24.453v2.953h6.5v.789H17.047v-.789h6.5V-4.594H19.133Zm25.75,3.883v-8.648h.906v8.648Zm-2.742,0V-9.422H39.625V-10.2h2.516v-3.156h.9v8.336Zm2.742,6.422V-3.437H35.977v-.789h9.813V1.406ZM39.922-6.055a5.925,5.925,0,0,1-.883-.621,8.336,8.336,0,0,1-.859-.832,7.875,7.875,0,0,1-.73-.949,4.631,4.631,0,0,1-.5-.98,5.08,5.08,0,0,1-.484,1.086A7.694,7.694,0,0,1,35.73-7.3a8.854,8.854,0,0,1-.895.926,7.84,7.84,0,0,1-.945.73l-.7-.6a7.1,7.1,0,0,0,1.289-.941,6.71,6.71,0,0,0,1.047-1.215,5.983,5.983,0,0,0,.7-1.43,4.96,4.96,0,0,0,.258-1.594v-.687h-2.82v-.789h6.555v.789H37.367v.688a4.165,4.165,0,0,0,.262,1.441,5.882,5.882,0,0,0,.7,1.348,6.194,6.194,0,0,0,1.016,1.133,5.007,5.007,0,0,0,1.207.789ZM62.953-1.844v.789H49.047v-.789ZM51.3-4.984v-7.242H60.7v.789H52.2v2.414h8.328v.766H52.2v2.484h8.75v.789Zm21.23,6.023V-4.172h9.148V1.039Zm8.258-4.453H73.417v3.7h7.367ZM78.714-6.2q-1.43.094-3.375.141T70.9-6.008v-6.914h7.125v.766H71.808v2.266h5.484v.758H71.808v2.359q2.445,0,4.133-.043t2.719-.129Zm2.055,1.242v-8.711h.906v8.711ZM91.624.984V-4.8h.891v2.078h7.531V-4.8h.891V.984Zm9.469-14.078q0,.7-.012,1.512t-.031,1.617q-.02.8-.047,1.516t-.066,1.215h2.3v.789H89.335v-.789h10.727q.016-.312.035-.707t.031-.84q.012-.445.02-.914t.016-.93q.008-.461.012-.891t0-.789H91.686v-.789ZM100.046-1.953H92.515V.219h7.531Zm9.875-.508a3.379,3.379,0,0,1-1.66-.391,3.411,3.411,0,0,1-1.176-1.074,4.974,4.974,0,0,1-.7-1.617,8.313,8.313,0,0,1-.234-2.027,8.36,8.36,0,0,1,.234-2.031,4.971,4.971,0,0,1,.7-1.621,3.374,3.374,0,0,1,1.176-1.07,3.407,3.407,0,0,1,1.66-.387,3.6,3.6,0,0,1,1.07.152,3.2,3.2,0,0,1,.895.434,3.331,3.331,0,0,1,.715.68,4.453,4.453,0,0,1,.539.891h3.633v-3.141h.906V1.406h-.906v-5.93h-3.68a3.772,3.772,0,0,1-1.246,1.508A3.275,3.275,0,0,1,109.921-2.461Zm0-9.453a2.366,2.366,0,0,0-1.3.348,2.748,2.748,0,0,0-.9.945,4.609,4.609,0,0,0-.52,1.387,7.977,7.977,0,0,0-.168,1.664,7.882,7.882,0,0,0,.168,1.652,4.611,4.611,0,0,0,.52,1.383,2.821,2.821,0,0,0,.9.953,2.327,2.327,0,0,0,1.3.355,2.322,2.322,0,0,0,1.3-.355,2.825,2.825,0,0,0,.895-.957,4.663,4.663,0,0,0,.52-1.387A7.843,7.843,0,0,0,112.8-7.57a8.422,8.422,0,0,0-.164-1.707,4.39,4.39,0,0,0-.516-1.379,2.674,2.674,0,0,0-.9-.922A2.444,2.444,0,0,0,109.921-11.914Zm3.5,2.156A7.951,7.951,0,0,1,113.7-7.57a8.806,8.806,0,0,1-.078,1.2,7.03,7.03,0,0,1-.234,1.086h3.383V-9.758Z" transform="translate(1056 3832)"/>
    <path id="Path_3980" data-name="Path 3980" class="cls-6" d="M12.992-8.4V-4.32h-.906v-9.344h.906v4.492h2.219V-8.4Zm-1.93,2.359q-.688.055-1.93.1T6.2-5.852q-.813.023-1.57.039L3.2-5.785q-.672.012-1.23.016t-.973,0L.906-6.539H2q.5,0,.969-.008t.922-.012q.457,0,.957-.02V-9.7h.914v3.1q.742-.016,1.426-.035T8.52-6.672l1.266-.047q.621-.023,1.238-.055ZM9.656-12.961q-.008,1.4-.062,2.563T9.422-8.156l-.867-.07q.047-.516.086-1.008t.063-.973q.023-.48.035-.965t.012-1H2.156v-.789ZM8.109-3.578a10.185,10.185,0,0,0-1.441.09,6.176,6.176,0,0,0-1.074.242,3.151,3.151,0,0,0-.75.352,2.132,2.132,0,0,0-.477.422,1.406,1.406,0,0,0-.254.457,1.5,1.5,0,0,0-.074.453,1.43,1.43,0,0,0,.078.453,1.4,1.4,0,0,0,.266.457,2.238,2.238,0,0,0,.492.422,3.321,3.321,0,0,0,.758.352A6.194,6.194,0,0,0,6.7.363a9.806,9.806,0,0,0,1.414.09A8.554,8.554,0,0,0,10.09.262a4.124,4.124,0,0,0,1.246-.488,1.781,1.781,0,0,0,.645-.652,1.489,1.489,0,0,0,.184-.684,1.489,1.489,0,0,0-.184-.684,1.781,1.781,0,0,0-.645-.652,4.124,4.124,0,0,0-1.246-.488A8.554,8.554,0,0,0,8.109-3.578Zm0,4.773A10.341,10.341,0,0,1,5.988,1,5.478,5.478,0,0,1,4.426.445a2.69,2.69,0,0,1-.965-.867,2.056,2.056,0,0,1-.328-1.141A2.043,2.043,0,0,1,3.461-2.7a2.666,2.666,0,0,1,.961-.863,5.5,5.5,0,0,1,1.563-.551,10.4,10.4,0,0,1,2.125-.2,10.546,10.546,0,0,1,2.121.191,5.291,5.291,0,0,1,1.555.551,2.722,2.722,0,0,1,.957.863,2.037,2.037,0,0,1,.328,1.137,2.056,2.056,0,0,1-.328,1.141,2.706,2.706,0,0,1-.957.867A5.365,5.365,0,0,1,10.23,1,10.341,10.341,0,0,1,8.109,1.2ZM27.492-4.289q.078-.609.133-1.145t.086-1.039q.031-.5.047-1t.016-1.016v-2.93H19.055V-12.2H28.68v3.367a36.458,36.458,0,0,1-.3,4.641ZM17.047-1.352v-.789h5.625V-7.086h.906v4.945h7.375v.789Z" transform="translate(725 3670)"/>
    <path id="Path_3996" data-name="Path 3996" class="cls-6" d="M12.422-3.031V-13.664h.906V-3.031ZM4.094.9V-3.727H5V.109h8.734V.9ZM9.2-5.477a8.424,8.424,0,0,1-1.055-.672,8.814,8.814,0,0,1-1.02-.883,8.12,8.12,0,0,1-.867-1.031A5.371,5.371,0,0,1,5.641-9.18a5.988,5.988,0,0,1-.586,1.2A8.893,8.893,0,0,1,4.2-6.84a9.346,9.346,0,0,1-1.027,1,8.1,8.1,0,0,1-1.113.789l-.7-.664A7.053,7.053,0,0,0,2.8-6.676,7.724,7.724,0,0,0,4.02-7.988a6.7,6.7,0,0,0,.844-1.543A4.61,4.61,0,0,0,5.18-11.2v-1.906H6.07v1.836a4.269,4.269,0,0,0,.316,1.617,5.975,5.975,0,0,0,.84,1.449A6.66,6.66,0,0,0,8.43-7.02a6.629,6.629,0,0,0,1.406.832ZM20.828,1.406V-5.633H17.047v-.789h10.68q.039-.523.074-1.168t.059-1.383q.023-.738.035-1.555t.012-1.676H19.3v-.789h9.5q0,.906-.012,1.8t-.039,1.73q-.027.84-.066,1.609t-.094,1.434h2.359v.789H27.172V1.406h-.906V-5.633H21.734V1.406ZM44.144-2.43a10.586,10.586,0,0,1-.914-.859,10.792,10.792,0,0,1-.867-1.035,10.187,10.187,0,0,1-.73-1.141,6.166,6.166,0,0,1-.5-1.184,7.016,7.016,0,0,1-.465,1.238,10.517,10.517,0,0,1-.711,1.254A11.965,11.965,0,0,1,39.089-3a8.313,8.313,0,0,1-.906.926l-.75-.594A7.286,7.286,0,0,0,38.66-3.848a8.953,8.953,0,0,0,1.031-1.531A9.062,9.062,0,0,0,40.4-7.121a6.4,6.4,0,0,0,.266-1.8v-1.617H37.714v-.781H40.66V-13.4h.906v2.078h2.945v.781H41.558v1.617a5.23,5.23,0,0,0,.129,1.141,7.053,7.053,0,0,0,.359,1.141,8.644,8.644,0,0,0,.539,1.09,8.628,8.628,0,0,0,.676.992,7.833,7.833,0,0,0,.773.848,5.655,5.655,0,0,0,.82.648Zm4.875,3.836V-6.1H46.847V.93h-.9V-13.359h.9v6.484h2.172v-6.789h.906V1.406Zm8.023-7.664V-8.484a3.143,3.143,0,0,1-1.164-.895,2.033,2.033,0,0,1-.422-1.285,2.028,2.028,0,0,1,.355-1.18,2.866,2.866,0,0,1,.984-.867,5.235,5.235,0,0,1,1.484-.531,9.068,9.068,0,0,1,1.863-.18,9.084,9.084,0,0,1,1.859.18,5.233,5.233,0,0,1,1.488.531,2.866,2.866,0,0,1,.984.867,2.028,2.028,0,0,1,.355,1.18,2.032,2.032,0,0,1-.426,1.293,3.167,3.167,0,0,1-1.176.895v2.219H67.1v.789H53.191v-.789Zm3.1,7.484a9.46,9.46,0,0,1-2.184-.219A4.844,4.844,0,0,1,56.468.414a2.475,2.475,0,0,1-.855-.871A2.13,2.13,0,0,1,55.339-1.5a2.13,2.13,0,0,1,.273-1.043,2.475,2.475,0,0,1,.855-.871,4.844,4.844,0,0,1,1.492-.594,11.008,11.008,0,0,1,4.367,0,4.844,4.844,0,0,1,1.492.594,2.475,2.475,0,0,1,.855.871A2.13,2.13,0,0,1,64.949-1.5a2.13,2.13,0,0,1-.273,1.043,2.475,2.475,0,0,1-.855.871,4.844,4.844,0,0,1-1.492.594A9.46,9.46,0,0,1,60.144,1.227Zm0-4.711a9.5,9.5,0,0,0-1.395.09,5.461,5.461,0,0,0-1.031.246A2.98,2.98,0,0,0,57-2.789a2.1,2.1,0,0,0-.453.422,1.364,1.364,0,0,0-.234.445,1.506,1.506,0,0,0-.066.422,1.553,1.553,0,0,0,.066.438,1.406,1.406,0,0,0,.234.449A1.982,1.982,0,0,0,57-.191a2.888,2.888,0,0,0,.719.348,5.941,5.941,0,0,0,1.031.238,9.5,9.5,0,0,0,1.395.09,9.5,9.5,0,0,0,1.395-.09A5.94,5.94,0,0,0,62.57.156a2.888,2.888,0,0,0,.719-.348,1.982,1.982,0,0,0,.453-.422,1.406,1.406,0,0,0,.234-.449,1.553,1.553,0,0,0,.066-.437,1.506,1.506,0,0,0-.066-.422,1.364,1.364,0,0,0-.234-.445,2.1,2.1,0,0,0-.453-.422,2.98,2.98,0,0,0-.719-.359,5.461,5.461,0,0,0-1.031-.246A9.5,9.5,0,0,0,60.144-3.484Zm0-9.2a7.884,7.884,0,0,0-1.617.148,4.333,4.333,0,0,0-1.187.414,2.048,2.048,0,0,0-.734.637,1.43,1.43,0,0,0-.25.816,1.43,1.43,0,0,0,.25.816,2.048,2.048,0,0,0,.734.637,4.333,4.333,0,0,0,1.188.414,7.884,7.884,0,0,0,1.617.148A7.884,7.884,0,0,0,61.761-8.8a4.333,4.333,0,0,0,1.188-.414,2.048,2.048,0,0,0,.734-.637,1.43,1.43,0,0,0,.25-.816,1.43,1.43,0,0,0-.25-.816,2.048,2.048,0,0,0-.734-.637,4.333,4.333,0,0,0-1.187-.414A7.884,7.884,0,0,0,60.144-12.68Zm0,4.773a8.495,8.495,0,0,1-2.2-.258v1.906h4.375v-1.9A8.854,8.854,0,0,1,60.144-7.906Z" transform="translate(1056 3854)"/>
    <path id="Path_3981" data-name="Path 3981" class="cls-6" d="M2.492-12.2H13.508v.789H2.492Zm8.641,6.164H13.7v.789H2.3v-.789H4.828l-.2-4.336h.891l.2,4.336H10.25l.258-4.336h.883Zm-10.086,5v-.789H14.953v.789ZM19.133-8.9h8.75v-2.656H19.164v-.773h9.625v4.188h-8.75v2.773h9.2v.773H24.453v2.953h6.5v.789H17.047v-.789h6.5V-4.594H19.133ZM43.742-6.383v-5.07h-7.5v5.07Zm.891-5.844v6.648h-4.18v3.9h6.5v.789H33.047V-1.68h6.5v-3.9h-4.2v-6.648ZM52.133.906V-3.719h.906V.117h8.734V.906Zm5.414-8.766v-.75h2.914v-2.039H57.547v-.75h2.914v-2.266h.906V-2.758h-.906v-5.1Zm-.383,2.391a8.424,8.424,0,0,1-1.055-.672,8.814,8.814,0,0,1-1.02-.883,8.12,8.12,0,0,1-.867-1.031,5.371,5.371,0,0,1-.613-1.117,5.988,5.988,0,0,1-.586,1.2,8.893,8.893,0,0,1-.852,1.141,9.346,9.346,0,0,1-1.027,1,8.1,8.1,0,0,1-1.113.789l-.7-.664a7.053,7.053,0,0,0,1.438-.965A7.724,7.724,0,0,0,51.988-7.98a6.7,6.7,0,0,0,.844-1.543,4.61,4.61,0,0,0,.316-1.672v-1.859h.891v1.789a4.269,4.269,0,0,0,.316,1.617A5.975,5.975,0,0,0,55.2-8.2a6.66,6.66,0,0,0,1.2,1.188A6.629,6.629,0,0,0,57.8-6.18Z" transform="translate(725 3692)"/>
    <path id="Path_3990" data-name="Path 3990" class="cls-6" d="M11.492-4.289q.078-.609.133-1.145t.086-1.039q.031-.5.047-1t.016-1.016v-2.93H3.055V-12.2H12.68v3.367a36.458,36.458,0,0,1-.3,4.641ZM1.047-1.352v-.789H6.672V-7.086h.906v4.945h7.375v.789ZM19.242.922V-3.422h.906V.133h8.844V.922Zm4.406-2.859V-5.086h-6.6v-.773H30.953v.773h-6.4v3.148Zm4.078-10.4H20.273v3.688h7.453ZM19.383-7.883V-13.1h9.234v5.219ZM35.664.93V-3.883h.906V.141h8.641V.93Zm9.109-9.016v5.414h-.906V-13.664h.906v4.789h2.258v.789ZM41.742-6.023q-1.211.109-3.1.152t-4.547.043v-6.906h6.945v.781H35v5.344q2.344,0,4.043-.043t2.645-.121ZM60.8,1.406v-15.07h.906V1.406ZM49.039-2.273q1.016,0,2.387-.012t3.191-.051q1.781-.039,3.023-.082t1.875-.1l.055.8q-.3.023-.781.047t-1.1.047q-.625.023-1.391.043l-1.648.043q-1.8.047-3.168.066t-2.355.02Zm5.055-9.477a3.44,3.44,0,0,0-1.172.2,2.987,2.987,0,0,0-.973.566,2.721,2.721,0,0,0-.664.883,2.632,2.632,0,0,0-.246,1.148,2.752,2.752,0,0,0,.246,1.191,2.625,2.625,0,0,0,.664.879,2.845,2.845,0,0,0,.973.543,3.705,3.705,0,0,0,1.172.184,3.705,3.705,0,0,0,1.172-.184,2.845,2.845,0,0,0,.973-.543,2.625,2.625,0,0,0,.664-.879,2.752,2.752,0,0,0,.246-1.191A2.632,2.632,0,0,0,56.9-10.1a2.721,2.721,0,0,0-.664-.883,2.987,2.987,0,0,0-.973-.566A3.44,3.44,0,0,0,54.094-11.75Zm0,6.352a4.45,4.45,0,0,1-1.555-.266,3.923,3.923,0,0,1-1.25-.734,3.392,3.392,0,0,1-.836-1.121,3.346,3.346,0,0,1-.3-1.434,3.31,3.31,0,0,1,.309-1.434,3.457,3.457,0,0,1,.844-1.125,3.875,3.875,0,0,1,1.254-.734,4.464,4.464,0,0,1,1.539-.262,4.52,4.52,0,0,1,1.551.262,3.821,3.821,0,0,1,1.254.734,3.434,3.434,0,0,1,.836,1.125,3.346,3.346,0,0,1,.3,1.434,3.346,3.346,0,0,1-.3,1.434A3.434,3.434,0,0,1,56.9-6.395a3.821,3.821,0,0,1-1.254.734A4.52,4.52,0,0,1,54.094-5.4ZM76.464-9.914h-5.07V-7.32h5.07Zm4.094,7.891H73.121V.219h7.438Zm-8.328,3v-5.9h.891v2.133h7.438V-4.922h.891v5.9ZM70.5-6.547v-6.617h.891v2.484h5.07v-2.484h.891v2.984h3.2v-3.484h.906V-5.7h-.906V-9.391h-3.2v2.844ZM88.167.891V-3.875h.906V.1h8.9V.891Zm8.484-14.555h.906V-2.742h-.906Zm-6.562,1.477a3.264,3.264,0,0,0-1.215.219,2.8,2.8,0,0,0-.949.613,2.786,2.786,0,0,0-.621.941,3.162,3.162,0,0,0-.223,1.2A3.286,3.286,0,0,0,87.3-7.988a2.69,2.69,0,0,0,.617.941,2.774,2.774,0,0,0,.953.605,3.347,3.347,0,0,0,1.219.215,3.347,3.347,0,0,0,1.219-.215,2.774,2.774,0,0,0,.953-.605,2.69,2.69,0,0,0,.617-.941A3.286,3.286,0,0,0,93.1-9.211a3.162,3.162,0,0,0-.223-1.2,2.786,2.786,0,0,0-.621-.941,2.8,2.8,0,0,0-.949-.613A3.264,3.264,0,0,0,90.089-12.187Zm0,6.727a4.125,4.125,0,0,1-1.531-.281,3.733,3.733,0,0,1-1.23-.781,3.62,3.62,0,0,1-.816-1.187,3.743,3.743,0,0,1-.3-1.5,3.868,3.868,0,0,1,.293-1.531,3.472,3.472,0,0,1,.809-1.176,3.585,3.585,0,0,1,1.227-.754,4.386,4.386,0,0,1,1.547-.266,4.3,4.3,0,0,1,1.543.27,3.643,3.643,0,0,1,1.223.758,3.426,3.426,0,0,1,.8,1.176,3.893,3.893,0,0,1,.289,1.523,3.758,3.758,0,0,1-.293,1.5,3.654,3.654,0,0,1-.809,1.188,3.666,3.666,0,0,1-1.223.785A4.116,4.116,0,0,1,90.089-5.461ZM112.574-6v-4.2h-3.352v-.773h3.352v-2.7h.906V-6Zm-8.328,7.047V-2.484h8.328V-4.453h-8.328v-.758h9.234v3.469h-8.328V.289h8.75v.758Zm5.094-7.82A6.736,6.736,0,0,1,108.2-7.4a8.751,8.751,0,0,1-1.055-.836,7.7,7.7,0,0,1-.867-.945,4.238,4.238,0,0,1-.574-.969,5.085,5.085,0,0,1-.543,1.055,8.016,8.016,0,0,1-.828,1.047,9.379,9.379,0,0,1-1.027.949,7.5,7.5,0,0,1-1.141.754l-.7-.656a6.551,6.551,0,0,0,.934-.52,7.707,7.707,0,0,0,.891-.691,7.062,7.062,0,0,0,.789-.836,6.088,6.088,0,0,0,.629-.953,5.255,5.255,0,0,0,.418-1.039,4.031,4.031,0,0,0,.152-1.1V-13.3h.891v1.164a3.8,3.8,0,0,0,.34,1.6,5.253,5.253,0,0,0,.879,1.34A6.021,6.021,0,0,0,108.6-8.168a6.328,6.328,0,0,0,1.344.668ZM128.55-1.937h-7.508V.219h7.508ZM120.144.977V-4.734h.9V-2.7h7.508V-4.734h.891V.977Zm8.391-14.641h.906v8.148h-.906Zm-1.8,7.391a5.642,5.642,0,0,1-.605.121q-.34.051-.7.086t-.719.055q-.355.02-.66.027-.641.016-2.023.031t-3.594.016V-9.93h5.852V-12.32h-5.852v-.766h6.758V-9.18h-5.852V-6.7q.906,0,1.715,0l1.477-.008q.668,0,1.176-.016t.813-.027q.266-.008.547-.027t.555-.051q.273-.031.527-.07t.457-.086Z" transform="translate(1056 3671)"/>
    <path id="Path_3997" data-name="Path 3997" class="cls-6" d="M3.586.945V-3.609h.906V.172h8.891V.945Zm9.4-8.3v4.844h-.906V-13.664h.906v5.523h2.2v.781Zm-1.922,2q-.688.055-1.93.1T6.2-5.172q-.813.023-1.57.039L3.2-5.105q-.672.012-1.23.016t-.973,0L.906-5.875H2q.5,0,.969-.008t.922-.012q.457,0,.957-.02V-9.156h.914V-5.93q.742-.016,1.426-.035T8.52-6.008l1.266-.047q.621-.023,1.238-.055ZM9.656-12.641q-.008,1.406-.062,2.68T9.422-7.6l-.867-.07q.1-1.047.148-2.1t.047-2.082H2.156v-.789ZM28.414,1.406v-15.07h.906V1.406ZM18.18-7.6h5.875v-3.9H18.18v-.773h6.781v5.43H19.086v4.031q1.359,0,2.527-.02t2.105-.059q.938-.039,1.637-.1a10.788,10.788,0,0,0,1.137-.145l.1.766q-.586.1-1.371.168t-1.816.1q-1.031.035-2.328.047t-2.9.012ZM48.613,1.406v-15.07h.906V1.406Zm-4.18-9.172H39.1v4.289h5.336ZM38.207-2.711V-12.5H39.1v3.969H44.41V-12.5h.914v9.789ZM57.042-6.258V-8.484a3.143,3.143,0,0,1-1.164-.895,2.033,2.033,0,0,1-.422-1.285,2.028,2.028,0,0,1,.355-1.18,2.866,2.866,0,0,1,.984-.867,5.235,5.235,0,0,1,1.484-.531,9.068,9.068,0,0,1,1.863-.18,9.084,9.084,0,0,1,1.859.18,5.233,5.233,0,0,1,1.488.531,2.866,2.866,0,0,1,.984.867,2.028,2.028,0,0,1,.355,1.18,2.032,2.032,0,0,1-.426,1.293,3.167,3.167,0,0,1-1.176.895v2.219H67.1v.789H53.191v-.789Zm3.1,7.484a9.46,9.46,0,0,1-2.184-.219A4.844,4.844,0,0,1,56.468.414a2.475,2.475,0,0,1-.855-.871A2.13,2.13,0,0,1,55.339-1.5a2.13,2.13,0,0,1,.273-1.043,2.475,2.475,0,0,1,.855-.871,4.844,4.844,0,0,1,1.492-.594,11.008,11.008,0,0,1,4.367,0,4.844,4.844,0,0,1,1.492.594,2.475,2.475,0,0,1,.855.871A2.13,2.13,0,0,1,64.949-1.5a2.13,2.13,0,0,1-.273,1.043,2.475,2.475,0,0,1-.855.871,4.844,4.844,0,0,1-1.492.594A9.46,9.46,0,0,1,60.144,1.227Zm0-4.711a9.5,9.5,0,0,0-1.395.09,5.461,5.461,0,0,0-1.031.246A2.98,2.98,0,0,0,57-2.789a2.1,2.1,0,0,0-.453.422,1.364,1.364,0,0,0-.234.445,1.506,1.506,0,0,0-.066.422,1.553,1.553,0,0,0,.066.438,1.406,1.406,0,0,0,.234.449A1.982,1.982,0,0,0,57-.191a2.888,2.888,0,0,0,.719.348,5.941,5.941,0,0,0,1.031.238,9.5,9.5,0,0,0,1.395.09,9.5,9.5,0,0,0,1.395-.09A5.94,5.94,0,0,0,62.57.156a2.888,2.888,0,0,0,.719-.348,1.982,1.982,0,0,0,.453-.422,1.406,1.406,0,0,0,.234-.449,1.553,1.553,0,0,0,.066-.437,1.506,1.506,0,0,0-.066-.422,1.364,1.364,0,0,0-.234-.445,2.1,2.1,0,0,0-.453-.422,2.98,2.98,0,0,0-.719-.359,5.461,5.461,0,0,0-1.031-.246A9.5,9.5,0,0,0,60.144-3.484Zm0-9.2a7.884,7.884,0,0,0-1.617.148,4.333,4.333,0,0,0-1.187.414,2.048,2.048,0,0,0-.734.637,1.43,1.43,0,0,0-.25.816,1.43,1.43,0,0,0,.25.816,2.048,2.048,0,0,0,.734.637,4.333,4.333,0,0,0,1.188.414,7.884,7.884,0,0,0,1.617.148A7.884,7.884,0,0,0,61.761-8.8a4.333,4.333,0,0,0,1.188-.414,2.048,2.048,0,0,0,.734-.637,1.43,1.43,0,0,0,.25-.816,1.43,1.43,0,0,0-.25-.816,2.048,2.048,0,0,0-.734-.637,4.333,4.333,0,0,0-1.187-.414A7.884,7.884,0,0,0,60.144-12.68Zm0,4.773a8.495,8.495,0,0,1-2.2-.258v1.906h4.375v-1.9A8.854,8.854,0,0,1,60.144-7.906Z" transform="translate(1056 3876)"/>
    <path id="Path_3998" data-name="Path 3998" class="cls-6" d="M5.906-5.461a4.125,4.125,0,0,1-1.531-.281,3.733,3.733,0,0,1-1.23-.781,3.62,3.62,0,0,1-.816-1.187,3.743,3.743,0,0,1-.3-1.5,3.868,3.868,0,0,1,.293-1.531,3.472,3.472,0,0,1,.809-1.176,3.585,3.585,0,0,1,1.227-.754,4.386,4.386,0,0,1,1.547-.266,4.175,4.175,0,0,1,1.84.395,3.494,3.494,0,0,1,1.332,1.105h3.461v-2.227h.906V-2.7h-.906V-6.711h-3.7a3.682,3.682,0,0,1-1.273.918A4.046,4.046,0,0,1,5.906-5.461Zm0-6.727a3.264,3.264,0,0,0-1.215.219,2.8,2.8,0,0,0-.949.613,2.786,2.786,0,0,0-.621.941,3.162,3.162,0,0,0-.223,1.2,3.286,3.286,0,0,0,.219,1.223,2.69,2.69,0,0,0,.617.941,2.774,2.774,0,0,0,.953.605,3.347,3.347,0,0,0,1.219.215,3.347,3.347,0,0,0,1.219-.215,2.774,2.774,0,0,0,.953-.605A2.69,2.69,0,0,0,8.7-7.988a3.286,3.286,0,0,0,.219-1.223,3.162,3.162,0,0,0-.223-1.2,2.786,2.786,0,0,0-.621-.941,2.8,2.8,0,0,0-.949-.613A3.264,3.264,0,0,0,5.906-12.187ZM4.094.891V-3.875H5V.1h8.82V.891ZM9.5-10.68a3.5,3.5,0,0,1,.2.7,4.362,4.362,0,0,1,.066.77,3.922,3.922,0,0,1-.105.922,3.712,3.712,0,0,1-.3.82h3.18V-10.68ZM24.445-5.633V1.406h-.906V-5.633H17.047v-.789H27.719q.039-.523.074-1.168t.059-1.383q.023-.738.039-1.555t.016-1.676H19.3v-.789h9.5q0,.906-.012,1.8t-.039,1.73q-.027.84-.066,1.609t-.094,1.434h2.359v.789ZM42-5.117l-1.133.031q-.617.016-1.254.027t-1.254.027q-.617.016-1.141.023L37.1-5.742q1.148-.016,2.246-.039l2.238-.047V-7.07a4.938,4.938,0,0,1-2.426-.578A1.55,1.55,0,0,1,38.347-9a1.432,1.432,0,0,1,.23-.789,1.889,1.889,0,0,1,.7-.617,4.131,4.131,0,0,1,1.156-.4,7.959,7.959,0,0,1,1.613-.145,7.825,7.825,0,0,1,1.59.145,4.191,4.191,0,0,1,1.16.4,1.953,1.953,0,0,1,.707.617A1.4,1.4,0,0,1,45.738-9a1.538,1.538,0,0,1-.828,1.359,5.077,5.077,0,0,1-2.422.57v1.219l2.367-.066q1.2-.035,2.352-.074l.039.711ZM39.6,1.023V-1.859h8.7V-3.2H39.6v-.742h9.586v2.8h-8.7V.281h9.125v.742Zm2.445-11.281a7.382,7.382,0,0,0-1.187.086,3.507,3.507,0,0,0-.883.25,1.5,1.5,0,0,0-.551.4A.807.807,0,0,0,39.23-9a.792.792,0,0,0,.191.52,1.483,1.483,0,0,0,.555.391,3.7,3.7,0,0,0,.887.246,7.327,7.327,0,0,0,1.18.086,7.253,7.253,0,0,0,1.176-.086A3.7,3.7,0,0,0,44.1-8.09a1.521,1.521,0,0,0,.559-.391.782.782,0,0,0,.2-.52.8.8,0,0,0-.187-.52,1.479,1.479,0,0,0-.551-.395,3.68,3.68,0,0,0-.887-.254A7.068,7.068,0,0,0,42.042-10.258Zm6.234,5.523v-8.93h.906v4.625H51.4v.8H49.183v3.508Zm-10.594-6.9v-.742H41.6V-13.82h.906v1.445h3.906v.742ZM60.144,1.281a9.831,9.831,0,0,1-2.23-.219A5.015,5.015,0,0,1,56.4.473a2.44,2.44,0,0,1-.863-.863,2.094,2.094,0,0,1-.273-1.031,2.094,2.094,0,0,1,.273-1.031,2.44,2.44,0,0,1,.863-.863,5.015,5.015,0,0,1,1.516-.59,11.481,11.481,0,0,1,4.461,0,5.015,5.015,0,0,1,1.516.59,2.44,2.44,0,0,1,.863.863,2.094,2.094,0,0,1,.273,1.031,2.094,2.094,0,0,1-.273,1.031,2.44,2.44,0,0,1-.863.863,5.015,5.015,0,0,1-1.516.59A9.831,9.831,0,0,1,60.144,1.281ZM60.6-8.266V-6.25H67.1v.789H53.191V-6.25h6.492V-8.266H55.527v-4.961h9.234v.789H56.433v3.383h8.484v.789Zm-.461,4.883a8.269,8.269,0,0,0-1.98.2,4.038,4.038,0,0,0-1.215.488,1.68,1.68,0,0,0-.613.637,1.469,1.469,0,0,0-.168.641,1.474,1.474,0,0,0,.07.438,1.357,1.357,0,0,0,.246.445,2.092,2.092,0,0,0,.465.414,3.035,3.035,0,0,0,.73.344A5.923,5.923,0,0,0,58.73.453a10.245,10.245,0,0,0,1.414.086A8.61,8.61,0,0,0,62.121.352a3.985,3.985,0,0,0,1.219-.477,1.644,1.644,0,0,0,.613-.637,1.52,1.52,0,0,0,.168-.66,1.429,1.429,0,0,0-.07-.422,1.315,1.315,0,0,0-.246-.441,2.23,2.23,0,0,0-.465-.414,3.032,3.032,0,0,0-.73-.352,5.879,5.879,0,0,0-1.051-.242A9.806,9.806,0,0,0,60.144-3.383ZM80.613,1.406v-15.07h.906V1.406Zm-4.18-9.172H71.1v4.289h5.336ZM70.206-2.711V-12.5H71.1v3.969H76.41V-12.5h.914v9.789Z" transform="translate(1056 3898)"/>
    <path id="Path_3991" data-name="Path 3991" class="cls-6" d="M12.7-11.437H4.2V-9.1h8.328v.766H4.2V-5.93h8.75v.789h-4.5V-1.7h6.5v.789H1.047V-1.7h6.5V-5.141H3.3v-7.086H12.7Zm16.1-1.578q0,.477-.008,1.059t-.02,1.207q-.012.625-.031,1.266T28.7-8.258q-.023.586-.051,1.086T28.6-6.32h2.352v.789H17.047V-6.32H27.711q.039-.5.074-1.258t.059-1.609l-8.836.422-.2-.82,9.047-.32q.016-.617.023-1.211t.008-1.109H19.4v-.789ZM19.336.852V-3.836h.906v3.9h8.75V.852ZM44.5,1.406V-6.812H40.7v-.773h3.8v-6.078h.906V1.406ZM40.8-12.281a11.188,11.188,0,0,1-.574,3.176,10.988,10.988,0,0,1-1.375,2.727,12.4,12.4,0,0,1-2.074,2.3A16.6,16.6,0,0,1,34.109-2.2l-.758-.7a13.875,13.875,0,0,0,2.391-1.473,11.347,11.347,0,0,0,1.98-1.937,10.377,10.377,0,0,0,1.422-2.379,9.539,9.539,0,0,0,.715-2.812H33.891v-.781Zm20.141,13.7V-6.2H58.719V.938h-.891V-13.352h.891v6.359h2.242v-6.672h.9V1.414ZM49.93-7.625h4.727V-11.5H49.93v-.773h5.633v5.406H50.836v4.055q1.273,0,2.18-.02t1.563-.055q.656-.035,1.125-.094t.883-.137l.125.742q-.3.063-.645.109t-.758.082q-.418.035-.93.063t-1.164.047q-.652.02-1.465.027t-1.82.008ZM65.055-1.008V-1.8h6.5V-5.523h.906V-1.8h6.5v.789ZM71.977-10.2a5.083,5.083,0,0,1-.844,1.348,8.747,8.747,0,0,1-1.324,1.262,10.036,10.036,0,0,1-1.645,1.035,8.244,8.244,0,0,1-1.812.668l-.586-.7a7.334,7.334,0,0,0,1.348-.379,8.569,8.569,0,0,0,1.32-.641,8.668,8.668,0,0,0,1.2-.859,6.721,6.721,0,0,0,.98-1.027,4.876,4.876,0,0,0,.66-1.152,3.287,3.287,0,0,0,.242-1.23v-.547h.945v.547a3.213,3.213,0,0,0,.246,1.227A5.017,5.017,0,0,0,73.375-9.5a6.547,6.547,0,0,0,.988,1.027,8.942,8.942,0,0,0,1.207.855,9.09,9.09,0,0,0,1.32.645,7.1,7.1,0,0,0,1.336.383l-.586.688a7.7,7.7,0,0,1-1.2-.391,9.929,9.929,0,0,1-1.168-.578,10.206,10.206,0,0,1-1.078-.719,9.363,9.363,0,0,1-.941-.82,7.339,7.339,0,0,1-.758-.883A4.458,4.458,0,0,1,71.977-10.2ZM96.933-8.7v4.031h-.906v-9h.906V-9.5h2.258v.8Zm-4.6,4.961a8.442,8.442,0,0,0-1.8.168,4.4,4.4,0,0,0-1.25.453,2.051,2.051,0,0,0-.73.664,1.493,1.493,0,0,0-.238.809,1.493,1.493,0,0,0,.238.809,2.051,2.051,0,0,0,.73.664,4.4,4.4,0,0,0,1.25.453,8.442,8.442,0,0,0,1.8.168,8.455,8.455,0,0,0,1.8-.168,4.4,4.4,0,0,0,1.254-.453,2.051,2.051,0,0,0,.73-.664,1.493,1.493,0,0,0,.238-.809,1.493,1.493,0,0,0-.238-.809,2.051,2.051,0,0,0-.73-.664,4.4,4.4,0,0,0-1.254-.453A8.455,8.455,0,0,0,92.331-3.734Zm0,4.945a9.467,9.467,0,0,1-2.16-.219,5.185,5.185,0,0,1-1.543-.6,2.65,2.65,0,0,1-.922-.906,2.2,2.2,0,0,1-.3-1.125,2.2,2.2,0,0,1,.3-1.125,2.65,2.65,0,0,1,.922-.906,5.185,5.185,0,0,1,1.543-.6,10.775,10.775,0,0,1,4.32,0,5.13,5.13,0,0,1,1.539.6,2.7,2.7,0,0,1,.922.906,2.178,2.178,0,0,1,.309,1.125,2.178,2.178,0,0,1-.309,1.125,2.7,2.7,0,0,1-.922.906,5.13,5.13,0,0,1-1.539.6A9.467,9.467,0,0,1,92.331,1.211ZM93.089-5.9a8.424,8.424,0,0,1-1.055-.672,8.814,8.814,0,0,1-1.02-.883,8.12,8.12,0,0,1-.867-1.031A5.371,5.371,0,0,1,89.535-9.6a5.988,5.988,0,0,1-.586,1.2A8.893,8.893,0,0,1,88.1-7.262a9.346,9.346,0,0,1-1.027,1,8.1,8.1,0,0,1-1.113.789l-.7-.664A7.053,7.053,0,0,0,86.7-7.1,7.724,7.724,0,0,0,87.914-8.41a6.7,6.7,0,0,0,.844-1.543,4.61,4.61,0,0,0,.316-1.672v-1.523h.891V-11.7a4.269,4.269,0,0,0,.316,1.617,5.975,5.975,0,0,0,.84,1.449,6.66,6.66,0,0,0,1.2,1.188,6.629,6.629,0,0,0,1.406.832Zm19.844-2.8v4.055h-.906v-9.016h.906v4.156h2.258v.8ZM109.1-5.984a6.979,6.979,0,0,1-1.07-.652,8.743,8.743,0,0,1-1.02-.875,7.716,7.716,0,0,1-.859-1.02,5.221,5.221,0,0,1-.59-1.07,5.6,5.6,0,0,1-.586,1.172A8.552,8.552,0,0,1,104.1-7.3a9.885,9.885,0,0,1-1.047.992,7.83,7.83,0,0,1-1.094.758l-.7-.641a7.7,7.7,0,0,0,1.473-.957,7.309,7.309,0,0,0,1.227-1.281,6.286,6.286,0,0,0,.84-1.527,4.766,4.766,0,0,0,.313-1.711V-12.2H101.7v-.789h7.688v.789H105.98v.516a4.241,4.241,0,0,0,.316,1.629,5.688,5.688,0,0,0,.836,1.414,6.414,6.414,0,0,0,1.2,1.145,7.12,7.12,0,0,0,1.406.813Zm-.766,2.25a8.442,8.442,0,0,0-1.8.168,4.4,4.4,0,0,0-1.25.453,2.051,2.051,0,0,0-.73.664,1.493,1.493,0,0,0-.238.809,1.493,1.493,0,0,0,.238.809,2.051,2.051,0,0,0,.73.664,4.4,4.4,0,0,0,1.25.453,8.442,8.442,0,0,0,1.8.168,8.455,8.455,0,0,0,1.8-.168,4.4,4.4,0,0,0,1.254-.453,2.051,2.051,0,0,0,.73-.664,1.493,1.493,0,0,0,.238-.809,1.493,1.493,0,0,0-.238-.809,2.051,2.051,0,0,0-.73-.664,4.4,4.4,0,0,0-1.254-.453A8.455,8.455,0,0,0,108.331-3.734Zm0,4.945a9.467,9.467,0,0,1-2.16-.219,5.185,5.185,0,0,1-1.543-.6,2.65,2.65,0,0,1-.922-.906,2.2,2.2,0,0,1-.3-1.125,2.2,2.2,0,0,1,.3-1.125,2.65,2.65,0,0,1,.922-.906,5.185,5.185,0,0,1,1.543-.6,10.775,10.775,0,0,1,4.32,0,5.13,5.13,0,0,1,1.539.6,2.7,2.7,0,0,1,.922.906,2.178,2.178,0,0,1,.309,1.125,2.178,2.178,0,0,1-.309,1.125,2.7,2.7,0,0,1-.922.906,5.13,5.13,0,0,1-1.539.6A9.467,9.467,0,0,1,108.331,1.211Z" transform="translate(1056 3693)"/>
    <path id="Path_3992" data-name="Path 3992" class="cls-6" d="M9.359-2.539A9.863,9.863,0,0,1,8.145-3.562,11.71,11.71,0,0,1,7.02-4.84,11.054,11.054,0,0,1,6.1-6.258,7.235,7.235,0,0,1,5.5-7.7a7.151,7.151,0,0,1-.559,1.473,11.332,11.332,0,0,1-.883,1.465,12.1,12.1,0,0,1-1.1,1.34,9.654,9.654,0,0,1-1.215,1.09L.984-2.937A9.323,9.323,0,0,0,2.516-4.25a9.791,9.791,0,0,0,1.3-1.711,9.326,9.326,0,0,0,.9-2,7.276,7.276,0,0,0,.336-2.2V-12.6h.922v2.383A7.041,7.041,0,0,0,6.3-8.062a8.792,8.792,0,0,0,.891,1.945,9.1,9.1,0,0,0,1.3,1.648,8.685,8.685,0,0,0,1.551,1.25Zm3.352-4.125v8.07H11.8v-15.07h.906v6.219H15.3v.781Zm9.2.375a4.053,4.053,0,0,1-1.492-.27,3.7,3.7,0,0,1-1.2-.746,3.433,3.433,0,0,1-.8-1.133,3.507,3.507,0,0,1-.289-1.43,3.566,3.566,0,0,1,.289-1.453,3.348,3.348,0,0,1,.8-1.125,3.662,3.662,0,0,1,1.2-.73,4.16,4.16,0,0,1,1.492-.262,4.28,4.28,0,0,1,1.406.227,3.673,3.673,0,0,1,1.156.641,3.369,3.369,0,0,1,.816,1,3.473,3.473,0,0,1,.395,1.293h2.852v-3.367h.906v7.6h-.906V-9.508H25.7A3.424,3.424,0,0,1,25.32-8.2a3.364,3.364,0,0,1-.812,1.016,3.69,3.69,0,0,1-1.164.656A4.266,4.266,0,0,1,21.914-6.289ZM20.2,1.031V-5.141h.891V-2.8h7.461V-5.141h.891V1.031Zm1.711-13.719a3.075,3.075,0,0,0-1.152.211,2.706,2.706,0,0,0-.91.59,2.711,2.711,0,0,0-.6.895,2.9,2.9,0,0,0-.215,1.125,2.967,2.967,0,0,0,.215,1.145,2.616,2.616,0,0,0,.6.891,2.718,2.718,0,0,0,.91.578,3.126,3.126,0,0,0,1.152.207,3.157,3.157,0,0,0,1.156-.207,2.753,2.753,0,0,0,.918-.578,2.635,2.635,0,0,0,.605-.891,2.92,2.92,0,0,0,.219-1.145,2.851,2.851,0,0,0-.219-1.125,2.7,2.7,0,0,0-.609-.895,2.783,2.783,0,0,0-.922-.59A3.084,3.084,0,0,0,21.914-12.687ZM28.555-2.031H21.094v2.3h7.461ZM44.516-10.5H41.141v2.672h3.375ZM36.266.961V-3.625h.906v3.8h8.734V.961ZM40.25-12.016H35.227v5.7H40.25Zm4.266,9.406V-7.062H41.141v1.516h-6.8v-7.242h6.8v1.523h3.375v-2.4h.906V-2.609Zm4.578-7.8V-11.2h3.992v-2.461h.906V-11.2h4v.789Zm4.445,2.188a3.353,3.353,0,0,0-1.082.176,2.788,2.788,0,0,0-.91.5,2.459,2.459,0,0,0-.625.8,2.368,2.368,0,0,0-.234,1.066A2.4,2.4,0,0,0,50.922-4.6a2.354,2.354,0,0,0,.629.793,2.752,2.752,0,0,0,.91.484,3.534,3.534,0,0,0,1.078.164,3.509,3.509,0,0,0,1.07-.164,2.757,2.757,0,0,0,.914-.488A2.428,2.428,0,0,0,56.16-4.6,2.347,2.347,0,0,0,56.4-5.68a2.368,2.368,0,0,0-.234-1.066,2.435,2.435,0,0,0-.629-.8,2.843,2.843,0,0,0-.91-.5A3.342,3.342,0,0,0,53.539-8.227Zm0,5.828a4.3,4.3,0,0,1-1.418-.234,3.815,3.815,0,0,1-1.191-.66,3.216,3.216,0,0,1-.824-1.031A2.942,2.942,0,0,1,49.8-5.68a3.151,3.151,0,0,1,.3-1.4,3.051,3.051,0,0,1,.816-1.039,3.672,3.672,0,0,1,1.2-.645,4.563,4.563,0,0,1,1.43-.223,4.589,4.589,0,0,1,1.438.223,3.672,3.672,0,0,1,1.2.645,3.051,3.051,0,0,1,.816,1.039,3.188,3.188,0,0,1,.3,1.414,2.931,2.931,0,0,1-.3,1.344,3.225,3.225,0,0,1-.82,1.031,3.705,3.705,0,0,1-1.2.66A4.422,4.422,0,0,1,53.539-2.4Zm7.07,3.8V-6.211H57.852v-.758h2.758v-6.7h.906V1.406Zm4.438-7.2v-.789H78.953V-5.8ZM72-3.383a8.269,8.269,0,0,0-1.98.2A4.038,4.038,0,0,0,68.8-2.7a1.68,1.68,0,0,0-.613.637,1.469,1.469,0,0,0-.168.641,1.474,1.474,0,0,0,.07.438,1.357,1.357,0,0,0,.246.445,2.092,2.092,0,0,0,.465.414,3.035,3.035,0,0,0,.73.344,5.923,5.923,0,0,0,1.051.234A10.245,10.245,0,0,0,72,.539,8.61,8.61,0,0,0,73.977.352,3.985,3.985,0,0,0,75.2-.125a1.644,1.644,0,0,0,.613-.637,1.52,1.52,0,0,0,.168-.66,1.429,1.429,0,0,0-.07-.422,1.315,1.315,0,0,0-.246-.441A2.23,2.23,0,0,0,75.2-2.7a3.032,3.032,0,0,0-.73-.352,5.879,5.879,0,0,0-1.051-.242A9.806,9.806,0,0,0,72-3.383Zm0,4.664a9.831,9.831,0,0,1-2.23-.219,5.015,5.015,0,0,1-1.516-.59,2.44,2.44,0,0,1-.863-.863,2.094,2.094,0,0,1-.273-1.031,2.094,2.094,0,0,1,.273-1.031,2.44,2.44,0,0,1,.863-.863,5.015,5.015,0,0,1,1.516-.59,11.481,11.481,0,0,1,4.461,0,5.015,5.015,0,0,1,1.516.59,2.44,2.44,0,0,1,.863.863,2.094,2.094,0,0,1,.273,1.031,2.094,2.094,0,0,1-.273,1.031,2.44,2.44,0,0,1-.863.863,5.015,5.015,0,0,1-1.516.59A9.831,9.831,0,0,1,72,1.281Zm5.727-9.547a9.038,9.038,0,0,1-1.648-.344,9.692,9.692,0,0,1-1.633-.66,7.846,7.846,0,0,1-1.426-.937,4.6,4.6,0,0,1-1.027-1.176,3.815,3.815,0,0,1-.6.8,6.211,6.211,0,0,1-.82.707,7.571,7.571,0,0,1-.977.6,10.309,10.309,0,0,1-1.07.477,9.6,9.6,0,0,1-1.1.344,8.05,8.05,0,0,1-1.062.191l-.508-.742a9.078,9.078,0,0,0,1.18-.16A8.734,8.734,0,0,0,68.219-9.5a8.163,8.163,0,0,0,1.121-.492,5.889,5.889,0,0,0,.977-.648,4.233,4.233,0,0,0,.762-.812,3.282,3.282,0,0,0,.477-.973H66.57v-.789H77.43v.789H72.461a2.736,2.736,0,0,0,.461.957,4.592,4.592,0,0,0,.781.813,5.921,5.921,0,0,0,1,.66,8.629,8.629,0,0,0,1.137.5,8.787,8.787,0,0,0,1.184.328,8.1,8.1,0,0,0,1.137.152Z" transform="translate(1056 3715)"/>
    <ellipse id="Ellipse_511" data-name="Ellipse 511" class="cls-7" cx="121.113" cy="121.113" rx="121.113" ry="121.113" transform="translate(367.79 3609.877)"/>
    <path id="Path_3976" data-name="Path 3976" class="cls-8" d="M-60.676-12.766V-22.906h-15v10.141Zm1.781-11.687v13.3h-8.359v7.8h13v1.578H-82.066V-3.359h13v-7.8h-8.391v-13.3Zm31.922,13.094V-27.328h1.813v15.969Zm.031,7.375H-41.973V.422h15.031ZM-43.754,1.953V-9.781h1.781v4.266h15.031V-9.781h1.781V1.953Zm10.641-14.062A13.678,13.678,0,0,1-35.246-13.4a16.742,16.742,0,0,1-2.047-1.758A16.337,16.337,0,0,1-39.019-17.2a10.248,10.248,0,0,1-1.187-2.141,11.016,11.016,0,0,1-1.172,2.336,17.781,17.781,0,0,1-1.742,2.258,19.208,19.208,0,0,1-2.086,1.984,16.783,16.783,0,0,1-2.187,1.531L-48.8-12.516a16.078,16.078,0,0,0,2.906-1.9,14.782,14.782,0,0,0,2.461-2.547,12.388,12.388,0,0,0,1.7-3.07A9.636,9.636,0,0,0-41.1-23.5v-.828H-47.91v-1.578h15.375v1.578h-6.812v.828a8.483,8.483,0,0,0,.633,3.258,11.375,11.375,0,0,0,1.672,2.828,12.827,12.827,0,0,0,2.4,2.289A14.239,14.239,0,0,0-31.832-13.5ZM4.793-4.875V-27.328H6.606V-4.875ZM-12.582,2.078V-5.891h1.813V.5h18.3V2.078ZM2.809-9.187q-2.437.141-4.867.219l-4.914.156q-2.625.078-5.164.117t-4.93.039l-.25-1.641q2.031,0,4.3-.023t4.891-.086v-4.8h-6.516V-25.422h14.2v1.547H-12.832v7.125H-.082V-15.2H-6.316v4.766q1.562-.031,2.867-.07t2.406-.086q1.1-.047,2.023-.094t1.7-.094Zm42.211,12V-27.328h1.813V2.813ZM38.238-24.562a22.375,22.375,0,0,1-1.148,6.352,21.977,21.977,0,0,1-2.75,5.453,24.793,24.793,0,0,1-4.148,4.594,33.192,33.192,0,0,1-5.344,3.758L23.332-5.8a27.75,27.75,0,0,0,4.781-2.945,22.694,22.694,0,0,0,3.961-3.875,20.754,20.754,0,0,0,2.844-4.758A19.078,19.078,0,0,0,36.347-23H24.41v-1.562Zm39.25,15.75V1.906H58.832V-8.812ZM75.707-7.266H60.613V.359H75.707Zm2.063-18.922q0,1.453-.023,3.047t-.062,3.109q-.039,1.516-.1,2.844t-.141,2.25h4.625v1.578H54.254v-1.578H75.691Q75.754-15.8,75.8-17t.078-2.516q.031-1.312.047-2.641t.016-2.453H58.957v-1.578Z" transform="translate(489 3746)"/>
  </g>
</svg>
