<svg xmlns="http://www.w3.org/2000/svg" viewBox="1448 -2058 658.576 366">
  <defs>
    <style>
      .cls-1 {
        fill: #352c6d;
      }

      .cls-2 {
        fill: #8284e5;
      }

      .cls-3 {
        fill: #8de1fe;
      }

      .cls-4 {
        fill: #fe7275;
      }

      .cls-5 {
        fill: #ffcb73;
      }

      .cls-6 {
        fill: #172143;
      }

      .cls-7 {
        fill: #fff;
      }

      .cls-8 {
        fill: #343150;
      }
    </style>
  </defs>
  <g id="Group_1554" data-name="Group 1554" transform="translate(998 -4148)">
    <circle id="Ellipse_490" data-name="Ellipse 490" class="cls-1" cx="7.5" cy="7.5" r="7.5" transform="translate(881 2114)"/>
    <circle id="Ellipse_495" data-name="Ellipse 495" class="cls-2" cx="7.5" cy="7.5" r="7.5" transform="translate(881 2265)"/>
    <circle id="Ellipse_501" data-name="Ellipse 501" class="cls-3" cx="7.5" cy="7.5" r="7.5" transform="translate(881 2186)"/>
    <circle id="Ellipse_507" data-name="Ellipse 507" class="cls-4" cx="7.5" cy="7.5" r="7.5" transform="translate(881 2339)"/>
    <circle id="Ellipse_529" data-name="Ellipse 529" class="cls-5" cx="7.5" cy="7.5" r="7.5" transform="translate(881 2410)"/>
    <path id="Path_3636" data-name="Path 3636" class="cls-6" d="M5.112,0H2.9L9.36-14.232H.744v-1.776h10.92v1.368ZM19.7.288a5.3,5.3,0,0,1-2.8-.732A5.421,5.421,0,0,1,14.988-2.4a10.017,10.017,0,0,1-1.056-2.64,12.326,12.326,0,0,1-.348-2.952,12.326,12.326,0,0,1,.348-2.952,9.83,9.83,0,0,1,1.056-2.628,5.451,5.451,0,0,1,1.92-1.944,5.3,5.3,0,0,1,2.8-.732,5.319,5.319,0,0,1,2.784.732,5.42,5.42,0,0,1,1.932,1.944,9.83,9.83,0,0,1,1.056,2.628,12.326,12.326,0,0,1,.348,2.952,12.326,12.326,0,0,1-.348,2.952A10.018,10.018,0,0,1,24.42-2.4,5.391,5.391,0,0,1,22.488-.444,5.319,5.319,0,0,1,19.7.288ZM17.3-2.484a3.2,3.2,0,0,0,2.4,1,3.2,3.2,0,0,0,2.4-1,5.283,5.283,0,0,0,1.32-2.388,12.473,12.473,0,0,0,.36-3.12,12.473,12.473,0,0,0-.36-3.12,5.2,5.2,0,0,0-1.32-2.376,3.215,3.215,0,0,0-2.4-.984,3.215,3.215,0,0,0-2.4.984,5.2,5.2,0,0,0-1.32,2.376,12.473,12.473,0,0,0-.36,3.12,12.473,12.473,0,0,0,.36,3.12A5.283,5.283,0,0,0,17.3-2.484ZM34.428-9.468a3.743,3.743,0,0,1-2.8,1.116A3.664,3.664,0,0,1,28.86-9.468a3.884,3.884,0,0,1-1.068-2.8,3.974,3.974,0,0,1,1.08-2.844,3.635,3.635,0,0,1,2.76-1.14,3.7,3.7,0,0,1,2.8,1.14,3.95,3.95,0,0,1,1.092,2.844A3.837,3.837,0,0,1,34.428-9.468ZM31.416,0h-1.3L40.344-16.008h1.32ZM42.768-.828A3.7,3.7,0,0,1,39.984.288,3.664,3.664,0,0,1,37.212-.828a3.884,3.884,0,0,1-1.068-2.8,3.974,3.974,0,0,1,1.08-2.844,3.635,3.635,0,0,1,2.76-1.14,3.664,3.664,0,0,1,2.784,1.14,3.974,3.974,0,0,1,1.08,2.844A3.86,3.86,0,0,1,42.768-.828ZM29.9-10.332a2.177,2.177,0,0,0,1.728.78,2.248,2.248,0,0,0,1.752-.78,2.8,2.8,0,0,0,.7-1.932,2.893,2.893,0,0,0-.684-1.98,2.238,2.238,0,0,0-1.764-.78,2.177,2.177,0,0,0-1.728.78,2.925,2.925,0,0,0-.672,1.98A2.856,2.856,0,0,0,29.9-10.332Zm8.34,8.64a2.212,2.212,0,0,0,1.74.78,2.248,2.248,0,0,0,1.752-.78,2.8,2.8,0,0,0,.7-1.932,2.893,2.893,0,0,0-.684-1.98,2.238,2.238,0,0,0-1.764-.78,2.2,2.2,0,0,0-1.752.78,2.925,2.925,0,0,0-.672,1.98A2.825,2.825,0,0,0,38.244-1.692Z" transform="translate(912 2129)"/>
    <path id="Path_3640" data-name="Path 3640" class="cls-6" d="M7.224.288A6.641,6.641,0,0,1,1.584-2.28L2.808-3.6A5.328,5.328,0,0,0,7.224-1.488a3.7,3.7,0,0,0,2.664-.984A3.245,3.245,0,0,0,10.92-4.92,3.262,3.262,0,0,0,9.9-7.428a3.74,3.74,0,0,0-2.652-.948,5.079,5.079,0,0,0-3.7,1.512l-1.464-.5v-8.64H11.88v1.776H4.08v5.568A5.065,5.065,0,0,1,7.824-10.1a5.1,5.1,0,0,1,3.6,1.38,4.842,4.842,0,0,1,1.488,3.732A4.9,4.9,0,0,1,11.3-1.152,5.886,5.886,0,0,1,7.224.288ZM21.54-9.468a3.743,3.743,0,0,1-2.8,1.116,3.664,3.664,0,0,1-2.772-1.116,3.884,3.884,0,0,1-1.068-2.8,3.974,3.974,0,0,1,1.08-2.844,3.635,3.635,0,0,1,2.76-1.14,3.7,3.7,0,0,1,2.8,1.14,3.95,3.95,0,0,1,1.092,2.844A3.837,3.837,0,0,1,21.54-9.468ZM18.528,0h-1.3L27.456-16.008h1.32ZM29.88-.828A3.7,3.7,0,0,1,27.1.288,3.664,3.664,0,0,1,24.324-.828a3.884,3.884,0,0,1-1.068-2.8,3.974,3.974,0,0,1,1.08-2.844,3.635,3.635,0,0,1,2.76-1.14,3.664,3.664,0,0,1,2.784,1.14,3.974,3.974,0,0,1,1.08,2.844A3.86,3.86,0,0,1,29.88-.828Zm-12.864-9.5a2.177,2.177,0,0,0,1.728.78,2.248,2.248,0,0,0,1.752-.78,2.8,2.8,0,0,0,.7-1.932,2.893,2.893,0,0,0-.684-1.98,2.238,2.238,0,0,0-1.764-.78,2.177,2.177,0,0,0-1.728.78,2.925,2.925,0,0,0-.672,1.98A2.856,2.856,0,0,0,17.016-10.332Zm8.34,8.64a2.212,2.212,0,0,0,1.74.78,2.248,2.248,0,0,0,1.752-.78,2.8,2.8,0,0,0,.7-1.932A2.893,2.893,0,0,0,28.86-5.6a2.238,2.238,0,0,0-1.764-.78,2.2,2.2,0,0,0-1.752.78,2.925,2.925,0,0,0-.672,1.98A2.825,2.825,0,0,0,25.356-1.692Z" transform="translate(912 2278)"/>
    <path id="Path_3638" data-name="Path 3638" class="cls-6" d="M6.264,0H4.272V-13.368L1.7-10.656.5-11.88l4.008-4.128H6.264Zm9.1.288A6.641,6.641,0,0,1,9.72-2.28L10.944-3.6A5.328,5.328,0,0,0,15.36-1.488a3.7,3.7,0,0,0,2.664-.984A3.245,3.245,0,0,0,19.056-4.92a3.262,3.262,0,0,0-1.02-2.508,3.74,3.74,0,0,0-2.652-.948,5.079,5.079,0,0,0-3.7,1.512l-1.464-.5v-8.64h9.792v1.776h-7.8v5.568A5.065,5.065,0,0,1,15.96-10.1a5.1,5.1,0,0,1,3.6,1.38,4.842,4.842,0,0,1,1.488,3.732,4.9,4.9,0,0,1-1.608,3.84A5.886,5.886,0,0,1,15.36.288ZM29.676-9.468a3.743,3.743,0,0,1-2.8,1.116,3.664,3.664,0,0,1-2.772-1.116,3.884,3.884,0,0,1-1.068-2.8,3.974,3.974,0,0,1,1.08-2.844,3.635,3.635,0,0,1,2.76-1.14,3.7,3.7,0,0,1,2.8,1.14,3.95,3.95,0,0,1,1.092,2.844A3.837,3.837,0,0,1,29.676-9.468ZM26.664,0h-1.3L35.592-16.008h1.32ZM38.016-.828A3.7,3.7,0,0,1,35.232.288,3.664,3.664,0,0,1,32.46-.828a3.884,3.884,0,0,1-1.068-2.8,3.974,3.974,0,0,1,1.08-2.844,3.635,3.635,0,0,1,2.76-1.14,3.663,3.663,0,0,1,2.784,1.14A3.974,3.974,0,0,1,39.1-3.624,3.86,3.86,0,0,1,38.016-.828Zm-12.864-9.5a2.177,2.177,0,0,0,1.728.78,2.248,2.248,0,0,0,1.752-.78,2.8,2.8,0,0,0,.7-1.932,2.893,2.893,0,0,0-.684-1.98,2.238,2.238,0,0,0-1.764-.78,2.177,2.177,0,0,0-1.728.78,2.925,2.925,0,0,0-.672,1.98A2.856,2.856,0,0,0,25.152-10.332Zm8.34,8.64a2.212,2.212,0,0,0,1.74.78,2.248,2.248,0,0,0,1.752-.78,2.8,2.8,0,0,0,.7-1.932A2.893,2.893,0,0,0,37-5.6a2.238,2.238,0,0,0-1.764-.78,2.2,2.2,0,0,0-1.752.78,2.925,2.925,0,0,0-.672,1.98A2.825,2.825,0,0,0,33.492-1.692Z" transform="translate(912 2199)"/>
    <path id="Path_3642" data-name="Path 3642" class="cls-6" d="M6.384.288A7.52,7.52,0,0,1,2.976-.456,5.878,5.878,0,0,1,.7-2.352L1.872-3.6a5.156,5.156,0,0,0,1.9,1.536,5.759,5.759,0,0,0,2.568.576,4.259,4.259,0,0,0,2.748-.8,2.67,2.67,0,0,0,1-2.2A2.372,2.372,0,0,0,9.012-6.624,5.294,5.294,0,0,0,6.1-7.32Q4.68-7.32,4.44-7.3V-9.12Q4.7-9.1,6.1-9.1a4.931,4.931,0,0,0,2.676-.66,2.188,2.188,0,0,0,1.044-1.98,2.335,2.335,0,0,0-1.02-2,4.273,4.273,0,0,0-2.556-.732,5.584,5.584,0,0,0-4.224,1.944l-1.1-1.248a6.73,6.73,0,0,1,5.472-2.472,6.336,6.336,0,0,1,3.9,1.14,3.7,3.7,0,0,1,1.524,3.132,3.235,3.235,0,0,1-1.056,2.532,4.8,4.8,0,0,1-2.4,1.188A4.41,4.41,0,0,1,10.86-7.1,3.5,3.5,0,0,1,12.048-4.32,4.131,4.131,0,0,1,10.512-1,6.232,6.232,0,0,1,6.384.288ZM20.748-9.468a3.743,3.743,0,0,1-2.8,1.116A3.664,3.664,0,0,1,15.18-9.468a3.884,3.884,0,0,1-1.068-2.8,3.974,3.974,0,0,1,1.08-2.844,3.635,3.635,0,0,1,2.76-1.14,3.7,3.7,0,0,1,2.8,1.14,3.95,3.95,0,0,1,1.092,2.844A3.837,3.837,0,0,1,20.748-9.468ZM17.736,0h-1.3L26.664-16.008h1.32ZM29.088-.828A3.7,3.7,0,0,1,26.3.288,3.664,3.664,0,0,1,23.532-.828a3.884,3.884,0,0,1-1.068-2.8,3.974,3.974,0,0,1,1.08-2.844,3.635,3.635,0,0,1,2.76-1.14,3.664,3.664,0,0,1,2.784,1.14,3.974,3.974,0,0,1,1.08,2.844A3.86,3.86,0,0,1,29.088-.828Zm-12.864-9.5a2.177,2.177,0,0,0,1.728.78,2.248,2.248,0,0,0,1.752-.78,2.8,2.8,0,0,0,.7-1.932,2.893,2.893,0,0,0-.684-1.98,2.238,2.238,0,0,0-1.764-.78,2.177,2.177,0,0,0-1.728.78,2.925,2.925,0,0,0-.672,1.98A2.856,2.856,0,0,0,16.224-10.332Zm8.34,8.64a2.212,2.212,0,0,0,1.74.78,2.248,2.248,0,0,0,1.752-.78,2.8,2.8,0,0,0,.7-1.932,2.893,2.893,0,0,0-.684-1.98,2.238,2.238,0,0,0-1.764-.78,2.2,2.2,0,0,0-1.752.78,2.925,2.925,0,0,0-.672,1.98A2.825,2.825,0,0,0,24.564-1.692Z" transform="translate(912 2354)"/>
    <path id="Path_3644" data-name="Path 3644" class="cls-6" d="M5.112,0H2.9L9.36-14.232H.744v-1.776h10.92v1.368ZM19.74-9.468a3.743,3.743,0,0,1-2.8,1.116,3.664,3.664,0,0,1-2.772-1.116,3.884,3.884,0,0,1-1.068-2.8,3.974,3.974,0,0,1,1.08-2.844,3.635,3.635,0,0,1,2.76-1.14,3.7,3.7,0,0,1,2.8,1.14,3.95,3.95,0,0,1,1.092,2.844A3.837,3.837,0,0,1,19.74-9.468ZM16.728,0h-1.3L25.656-16.008h1.32ZM28.08-.828A3.7,3.7,0,0,1,25.3.288,3.664,3.664,0,0,1,22.524-.828a3.884,3.884,0,0,1-1.068-2.8,3.974,3.974,0,0,1,1.08-2.844,3.635,3.635,0,0,1,2.76-1.14,3.664,3.664,0,0,1,2.784,1.14,3.974,3.974,0,0,1,1.08,2.844A3.86,3.86,0,0,1,28.08-.828Zm-12.864-9.5a2.177,2.177,0,0,0,1.728.78,2.248,2.248,0,0,0,1.752-.78,2.8,2.8,0,0,0,.7-1.932,2.893,2.893,0,0,0-.684-1.98,2.238,2.238,0,0,0-1.764-.78,2.177,2.177,0,0,0-1.728.78,2.925,2.925,0,0,0-.672,1.98A2.856,2.856,0,0,0,15.216-10.332Zm8.34,8.64a2.212,2.212,0,0,0,1.74.78,2.248,2.248,0,0,0,1.752-.78,2.8,2.8,0,0,0,.7-1.932A2.893,2.893,0,0,0,27.06-5.6a2.238,2.238,0,0,0-1.764-.78,2.2,2.2,0,0,0-1.752.78,2.925,2.925,0,0,0-.672,1.98A2.825,2.825,0,0,0,23.556-1.692Z" transform="translate(912 2425)"/>
    <path id="Path_3641" data-name="Path 3641" class="cls-6" d="M5.216,0H3.888V-9.488H.512v-1.184h8.1v1.184H5.216ZM16.752,0h-1.2V-5.088a1.752,1.752,0,0,0-.448-1.36,1.885,1.885,0,0,0-1.3-.4A2.619,2.619,0,0,0,12.52-6.5a3.094,3.094,0,0,0-1,.848V0h-1.2V-10.672h1.2v4.064a3.929,3.929,0,0,1,1.2-.92,3.349,3.349,0,0,1,1.568-.392,2.178,2.178,0,0,1,2.464,2.464ZM22.64.192A3.791,3.791,0,0,1,19.808-.936a4.019,4.019,0,0,1-1.1-2.936,4.074,4.074,0,0,1,1.088-2.872,3.551,3.551,0,0,1,2.72-1.176,3.375,3.375,0,0,1,2.712,1.176,4.422,4.422,0,0,1,1,2.968v.3H19.968a2.923,2.923,0,0,0,.832,1.9A2.611,2.611,0,0,0,22.752-.8a3.176,3.176,0,0,0,2.384-.976l.576.784A4.156,4.156,0,0,1,22.64.192Zm2.4-4.544a2.8,2.8,0,0,0-.672-1.784A2.293,2.293,0,0,0,22.5-6.928a2.254,2.254,0,0,0-1.816.784,2.919,2.919,0,0,0-.712,1.792ZM33.664,0H32.336V-10.672h6.992v1.184H33.664v3.44h5.552v1.184H33.664ZM41.68-8.832a.781.781,0,0,1-.56-.232.76.76,0,0,1-.24-.568.786.786,0,0,1,.24-.576.768.768,0,0,1,.56-.24.786.786,0,0,1,.576.24.786.786,0,0,1,.24.576.76.76,0,0,1-.24.568A.8.8,0,0,1,41.68-8.832ZM42.288,0h-1.2V-7.728h1.2Zm3.6,0h-1.2V-7.728h1.2V-6.48a3.16,3.16,0,0,1,2.576-1.408v1.232a2.289,2.289,0,0,0-.48-.048A2.334,2.334,0,0,0,46.8-6.32a2.529,2.529,0,0,0-.912.848Zm6.528.192A4.093,4.093,0,0,1,49.3-1.024l.624-.864a3.164,3.164,0,0,0,1.1.784,3.428,3.428,0,0,0,1.448.32,2.165,2.165,0,0,0,1.344-.368,1.154,1.154,0,0,0,.48-.96.9.9,0,0,0-.5-.808A3.966,3.966,0,0,0,52.6-3.368q-.7-.152-1.4-.352A2.751,2.751,0,0,1,50-4.408,1.726,1.726,0,0,1,49.5-5.7,1.976,1.976,0,0,1,50.28-7.28a3.207,3.207,0,0,1,2.1-.64A3.878,3.878,0,0,1,55.248-6.8l-.56.832a2.836,2.836,0,0,0-2.3-.976,2.05,2.05,0,0,0-1.248.344,1.045,1.045,0,0,0-.464.872.805.805,0,0,0,.5.728,4.648,4.648,0,0,0,1.192.416q.7.152,1.4.36a2.676,2.676,0,0,1,1.2.728,1.878,1.878,0,0,1,.5,1.352,2.076,2.076,0,0,1-.8,1.68A3.44,3.44,0,0,1,52.416.192Zm6.944,0a1.665,1.665,0,0,1-1.28-.464,1.9,1.9,0,0,1-.432-1.344V-6.672h-1.28V-7.728h1.28V-9.84h1.2v2.112h1.568v1.056H58.848v4.8a1.188,1.188,0,0,0,.2.72.68.68,0,0,0,.584.272,1.041,1.041,0,0,0,.816-.32l.352.9A2.019,2.019,0,0,1,59.36.192ZM71.152,0H66.288V-10.672H71.04a3.078,3.078,0,0,1,2.184.752,2.564,2.564,0,0,1,.808,1.968,2.479,2.479,0,0,1-.544,1.624A2.27,2.27,0,0,1,72.16-5.5a2.289,2.289,0,0,1,1.464.9A2.691,2.691,0,0,1,74.24-2.88a2.763,2.763,0,0,1-.824,2.088A3.131,3.131,0,0,1,71.152,0Zm-.336-6.048a1.839,1.839,0,0,0,1.36-.48,1.668,1.668,0,0,0,.48-1.232A1.68,1.68,0,0,0,72.168-9a1.827,1.827,0,0,0-1.352-.488h-3.2v3.44Zm.064,4.864a2.042,2.042,0,0,0,1.456-.5,1.755,1.755,0,0,0,.528-1.344,1.8,1.8,0,0,0-.52-1.312,1.962,1.962,0,0,0-1.464-.528H67.616v3.68Zm11.576.208A3.549,3.549,0,0,1,79.68.192,3.549,3.549,0,0,1,76.9-.976a4.177,4.177,0,0,1-1.048-2.9A4.148,4.148,0,0,1,76.9-6.76,3.56,3.56,0,0,1,79.68-7.92a3.56,3.56,0,0,1,2.776,1.16A4.148,4.148,0,0,1,83.5-3.872,4.177,4.177,0,0,1,82.456-.976ZM77.8-1.752a2.279,2.279,0,0,0,1.88.872,2.257,2.257,0,0,0,1.872-.872,3.317,3.317,0,0,0,.688-2.12,3.284,3.284,0,0,0-.688-2.112,2.265,2.265,0,0,0-1.872-.864,2.279,2.279,0,0,0-1.88.872,3.268,3.268,0,0,0-.7,2.1A3.292,3.292,0,0,0,77.8-1.752ZM91.872,0h-1.2V-5.056a1.8,1.8,0,0,0-.448-1.384,1.835,1.835,0,0,0-1.28-.408,2.647,2.647,0,0,0-1.3.352,2.921,2.921,0,0,0-.984.848V0h-1.2V-7.728h1.2v1.12a3.929,3.929,0,0,1,1.2-.92,3.318,3.318,0,0,1,1.552-.392,2.192,2.192,0,0,1,2.464,2.5Zm8.816,0h-1.2V-1.088a3.984,3.984,0,0,1-1.208.912,3.376,3.376,0,0,1-1.544.368,2.178,2.178,0,0,1-2.464-2.464V-7.728h1.2V-2.64a1.772,1.772,0,0,0,.44,1.36,1.854,1.854,0,0,0,1.288.4,2.745,2.745,0,0,0,1.3-.336,2.773,2.773,0,0,0,.984-.832v-5.68h1.2Zm4.848.192a4.093,4.093,0,0,1-3.12-1.216l.624-.864a3.164,3.164,0,0,0,1.1.784,3.428,3.428,0,0,0,1.448.32,2.165,2.165,0,0,0,1.344-.368,1.154,1.154,0,0,0,.48-.96.9.9,0,0,0-.5-.808,3.967,3.967,0,0,0-1.192-.448q-.7-.152-1.4-.352a2.751,2.751,0,0,1-1.2-.688,1.726,1.726,0,0,1-.5-1.288A1.976,1.976,0,0,1,103.4-7.28a3.207,3.207,0,0,1,2.1-.64,3.878,3.878,0,0,1,2.864,1.12l-.56.832a2.836,2.836,0,0,0-2.3-.976,2.05,2.05,0,0,0-1.248.344,1.045,1.045,0,0,0-.464.872.805.805,0,0,0,.5.728,4.648,4.648,0,0,0,1.192.416q.7.152,1.4.36a2.676,2.676,0,0,1,1.2.728,1.878,1.878,0,0,1,.5,1.352,2.076,2.076,0,0,1-.8,1.68A3.44,3.44,0,0,1,105.536.192ZM118.672,0h-1.328V-9.488h-3.376v-1.184h8.1v1.184h-3.392Zm9.416-.976A3.549,3.549,0,0,1,125.312.192a3.549,3.549,0,0,1-2.776-1.168,4.177,4.177,0,0,1-1.048-2.9,4.148,4.148,0,0,1,1.048-2.888,3.56,3.56,0,0,1,2.776-1.16,3.56,3.56,0,0,1,2.776,1.16,4.148,4.148,0,0,1,1.048,2.888A4.177,4.177,0,0,1,128.088-.976Zm-4.656-.776a2.279,2.279,0,0,0,1.88.872,2.257,2.257,0,0,0,1.872-.872,3.317,3.317,0,0,0,.688-2.12,3.284,3.284,0,0,0-.688-2.112,2.265,2.265,0,0,0-1.872-.864,2.279,2.279,0,0,0-1.88.872,3.268,3.268,0,0,0-.7,2.1A3.292,3.292,0,0,0,123.432-1.752ZM137.5,0h-1.2V-1.088a3.984,3.984,0,0,1-1.208.912,3.377,3.377,0,0,1-1.544.368,2.178,2.178,0,0,1-2.464-2.464V-7.728h1.2V-2.64a1.772,1.772,0,0,0,.44,1.36,1.854,1.854,0,0,0,1.288.4,2.745,2.745,0,0,0,1.3-.336,2.773,2.773,0,0,0,.984-.832v-5.68h1.2Zm3.6,0h-1.2V-7.728h1.2V-6.48a3.16,3.16,0,0,1,2.576-1.408v1.232a2.288,2.288,0,0,0-.48-.048,2.334,2.334,0,0,0-1.184.384,2.529,2.529,0,0,0-.912.848Zm10.5,0h-1.2V-5.056a1.8,1.8,0,0,0-.448-1.384,1.835,1.835,0,0,0-1.28-.408,2.647,2.647,0,0,0-1.3.352,2.921,2.921,0,0,0-.984.848V0h-1.2V-7.728h1.2v1.12a3.929,3.929,0,0,1,1.2-.92,3.318,3.318,0,0,1,1.552-.392,2.192,2.192,0,0,1,2.464,2.5Zm8.432,0h-1.2V-.88a3.3,3.3,0,0,1-2.56,1.072A2.842,2.842,0,0,1,154.384-.5a2.32,2.32,0,0,1-.816-1.872,2.3,2.3,0,0,1,.808-1.88,2.9,2.9,0,0,1,1.9-.664,3.2,3.2,0,0,1,2.56,1.056V-5.248a1.447,1.447,0,0,0-.544-1.2,2.2,2.2,0,0,0-1.408-.432,3.15,3.15,0,0,0-2.368,1.072l-.56-.832a4.108,4.108,0,0,1,3.088-1.28,3.444,3.444,0,0,1,2.16.64,2.326,2.326,0,0,1,.832,1.968ZM156.7-.672a2.441,2.441,0,0,0,2.128-.96V-3.088a2.441,2.441,0,0,0-2.128-.96,1.994,1.994,0,0,0-1.368.472,1.555,1.555,0,0,0-.536,1.224,1.537,1.537,0,0,0,.536,1.208A1.994,1.994,0,0,0,156.7-.672ZM172.96,0h-1.2V-5.248q0-1.6-1.424-1.6a2.193,2.193,0,0,0-1.152.352,2.818,2.818,0,0,0-.9.832V0h-1.2V-5.248q0-1.6-1.424-1.6a2.13,2.13,0,0,0-1.128.352,2.943,2.943,0,0,0-.9.848V0h-1.2V-7.728h1.2v1.12a3.019,3.019,0,0,1,1.008-.88,2.855,2.855,0,0,1,1.488-.432,2.218,2.218,0,0,1,1.376.4,1.9,1.9,0,0,1,.7,1.04,3.068,3.068,0,0,1,1.072-1.008,2.908,2.908,0,0,1,1.52-.432q2.16,0,2.16,2.336Zm5.888.192a3.791,3.791,0,0,1-2.832-1.128,4.019,4.019,0,0,1-1.1-2.936A4.074,4.074,0,0,1,176-6.744a3.551,3.551,0,0,1,2.72-1.176,3.375,3.375,0,0,1,2.712,1.176,4.422,4.422,0,0,1,1,2.968v.3h-6.256a2.923,2.923,0,0,0,.832,1.9A2.611,2.611,0,0,0,178.96-.8a3.176,3.176,0,0,0,2.384-.976l.576.784A4.156,4.156,0,0,1,178.848.192Zm2.4-4.544a2.8,2.8,0,0,0-.672-1.784,2.293,2.293,0,0,0-1.872-.792,2.254,2.254,0,0,0-1.816.784,2.919,2.919,0,0,0-.712,1.792ZM190.784,0h-1.2V-5.056a1.8,1.8,0,0,0-.448-1.384,1.835,1.835,0,0,0-1.28-.408,2.647,2.647,0,0,0-1.3.352,2.921,2.921,0,0,0-.984.848V0h-1.2V-7.728h1.2v1.12a3.929,3.929,0,0,1,1.2-.92,3.318,3.318,0,0,1,1.552-.392,2.192,2.192,0,0,1,2.464,2.5Zm4.352.192a1.665,1.665,0,0,1-1.28-.464,1.9,1.9,0,0,1-.432-1.344V-6.672h-1.28V-7.728h1.28V-9.84h1.2v2.112h1.568v1.056h-1.568v4.8a1.188,1.188,0,0,0,.2.72.68.68,0,0,0,.584.272,1.041,1.041,0,0,0,.816-.32l.352.9A2.019,2.019,0,0,1,195.136.192Z" transform="translate(912 2300)"/>
    <path id="Path_3643" data-name="Path 3643" class="cls-6" d="M6.112,0H1.248V-10.672H6a3.078,3.078,0,0,1,2.184.752,2.564,2.564,0,0,1,.808,1.968,2.479,2.479,0,0,1-.544,1.624A2.27,2.27,0,0,1,7.12-5.5a2.289,2.289,0,0,1,1.464.9A2.691,2.691,0,0,1,9.2-2.88,2.763,2.763,0,0,1,8.376-.792,3.131,3.131,0,0,1,6.112,0ZM5.776-6.048a1.839,1.839,0,0,0,1.36-.48,1.668,1.668,0,0,0,.48-1.232A1.68,1.68,0,0,0,7.128-9a1.827,1.827,0,0,0-1.352-.488h-3.2v3.44ZM5.84-1.184A2.042,2.042,0,0,0,7.3-1.68a1.755,1.755,0,0,0,.528-1.344A1.8,1.8,0,0,0,7.3-4.336,1.962,1.962,0,0,0,5.84-4.864H2.576v3.68Zm11.576.208A3.549,3.549,0,0,1,14.64.192,3.549,3.549,0,0,1,11.864-.976a4.177,4.177,0,0,1-1.048-2.9A4.148,4.148,0,0,1,11.864-6.76,3.56,3.56,0,0,1,14.64-7.92a3.56,3.56,0,0,1,2.776,1.16,4.148,4.148,0,0,1,1.048,2.888A4.177,4.177,0,0,1,17.416-.976ZM12.76-1.752a2.279,2.279,0,0,0,1.88.872,2.257,2.257,0,0,0,1.872-.872,3.317,3.317,0,0,0,.688-2.12,3.284,3.284,0,0,0-.688-2.112,2.265,2.265,0,0,0-1.872-.864,2.279,2.279,0,0,0-1.88.872,3.268,3.268,0,0,0-.7,2.1A3.292,3.292,0,0,0,12.76-1.752ZM26.832,0h-1.2V-1.088a3.984,3.984,0,0,1-1.208.912A3.376,3.376,0,0,1,22.88.192a2.178,2.178,0,0,1-2.464-2.464V-7.728h1.2V-2.64a1.772,1.772,0,0,0,.44,1.36,1.854,1.854,0,0,0,1.288.4,2.745,2.745,0,0,0,1.3-.336,2.773,2.773,0,0,0,.984-.832v-5.68h1.2Zm8.816,0h-1.2V-5.056A1.8,1.8,0,0,0,34-6.44a1.835,1.835,0,0,0-1.28-.408,2.647,2.647,0,0,0-1.3.352,2.921,2.921,0,0,0-.984.848V0h-1.2V-7.728h1.2v1.12a3.929,3.929,0,0,1,1.2-.92,3.318,3.318,0,0,1,1.552-.392,2.192,2.192,0,0,1,2.464,2.5ZM40,.192a1.665,1.665,0,0,1-1.28-.464,1.9,1.9,0,0,1-.432-1.344V-6.672h-1.28V-7.728h1.28V-9.84h1.2v2.112h1.568v1.056H39.488v4.8a1.188,1.188,0,0,0,.2.72.68.68,0,0,0,.584.272,1.041,1.041,0,0,0,.816-.32l.352.9A2.019,2.019,0,0,1,40,.192Zm2.32,2.832.192-1.088a1.6,1.6,0,0,0,.656.128,1.243,1.243,0,0,0,.688-.176,1.348,1.348,0,0,0,.464-.64L44.832.08,41.6-7.728h1.3l2.576,6.336,2.56-6.336h1.312l-3.872,9.3A2.34,2.34,0,0,1,43.2,3.136,3.257,3.257,0,0,1,42.32,3.024ZM56.1,0H54.768V-10.672h4.288a3.244,3.244,0,0,1,2.448.928,3.167,3.167,0,0,1,.9,2.288,3.152,3.152,0,0,1-.9,2.288,3.25,3.25,0,0,1-2.44.928H56.1Zm2.8-5.424a2.127,2.127,0,0,0,1.536-.568,1.939,1.939,0,0,0,.592-1.464,1.939,1.939,0,0,0-.592-1.464A2.127,2.127,0,0,0,58.9-9.488H56.1v4.064ZM65.312,0h-1.2V-7.728h1.2V-6.48a3.16,3.16,0,0,1,2.576-1.408v1.232a2.288,2.288,0,0,0-.48-.048,2.334,2.334,0,0,0-1.184.384,2.528,2.528,0,0,0-.912.848ZM75.544-.976A3.549,3.549,0,0,1,72.768.192,3.549,3.549,0,0,1,69.992-.976a4.177,4.177,0,0,1-1.048-2.9A4.148,4.148,0,0,1,69.992-6.76a3.56,3.56,0,0,1,2.776-1.16,3.56,3.56,0,0,1,2.776,1.16,4.148,4.148,0,0,1,1.048,2.888A4.177,4.177,0,0,1,75.544-.976Zm-4.656-.776a2.279,2.279,0,0,0,1.88.872,2.257,2.257,0,0,0,1.872-.872,3.317,3.317,0,0,0,.688-2.12,3.284,3.284,0,0,0-.688-2.112,2.265,2.265,0,0,0-1.872-.864,2.279,2.279,0,0,0-1.88.872,3.268,3.268,0,0,0-.7,2.1A3.292,3.292,0,0,0,70.888-1.752Zm10.76,4.888A5.387,5.387,0,0,1,79.9,2.888a3.641,3.641,0,0,1-1.376-.9l.608-.9a3.086,3.086,0,0,0,2.512,1.056,2.738,2.738,0,0,0,1.776-.568,2.117,2.117,0,0,0,.7-1.752v-1.1a3.359,3.359,0,0,1-1.12.992A2.973,2.973,0,0,1,81.536.1a3.159,3.159,0,0,1-2.488-1.08A4.259,4.259,0,0,1,78.1-3.9a4.29,4.29,0,0,1,.952-2.928A3.148,3.148,0,0,1,81.536-7.92a3.093,3.093,0,0,1,2.592,1.36V-7.728h1.2v7.5a3.023,3.023,0,0,1-1.04,2.568A4.234,4.234,0,0,1,81.648,3.136Zm.176-4.1a2.672,2.672,0,0,0,1.336-.368,2.593,2.593,0,0,0,.968-.9V-5.6a2.548,2.548,0,0,0-.96-.888,2.7,2.7,0,0,0-1.344-.36,2.215,2.215,0,0,0-1.816.816A3.265,3.265,0,0,0,79.344-3.9a3.246,3.246,0,0,0,.672,2.12A2.212,2.212,0,0,0,81.824-.96Zm7.1.96h-1.2V-7.728h1.2V-6.48A3.16,3.16,0,0,1,91.5-7.888v1.232a2.288,2.288,0,0,0-.48-.048,2.334,2.334,0,0,0-1.184.384,2.528,2.528,0,0,0-.912.848ZM99.04,0h-1.2V-.88A3.3,3.3,0,0,1,95.28.192,2.842,2.842,0,0,1,93.392-.5a2.32,2.32,0,0,1-.816-1.872,2.3,2.3,0,0,1,.808-1.88,2.9,2.9,0,0,1,1.9-.664,3.2,3.2,0,0,1,2.56,1.056V-5.248a1.447,1.447,0,0,0-.544-1.2,2.2,2.2,0,0,0-1.408-.432A3.15,3.15,0,0,0,93.52-5.808l-.56-.832a4.108,4.108,0,0,1,3.088-1.28,3.444,3.444,0,0,1,2.16.64,2.326,2.326,0,0,1,.832,1.968ZM95.712-.672a2.441,2.441,0,0,0,2.128-.96V-3.088a2.441,2.441,0,0,0-2.128-.96,1.994,1.994,0,0,0-1.368.472,1.555,1.555,0,0,0-.536,1.224,1.537,1.537,0,0,0,.536,1.208A1.994,1.994,0,0,0,95.712-.672ZM111.968,0h-1.2V-5.248q0-1.6-1.424-1.6a2.193,2.193,0,0,0-1.152.352,2.818,2.818,0,0,0-.9.832V0h-1.2V-5.248q0-1.6-1.424-1.6a2.13,2.13,0,0,0-1.128.352,2.943,2.943,0,0,0-.9.848V0h-1.2V-7.728h1.2v1.12a3.019,3.019,0,0,1,1.008-.88,2.855,2.855,0,0,1,1.488-.432,2.218,2.218,0,0,1,1.376.4,1.9,1.9,0,0,1,.7,1.04,3.068,3.068,0,0,1,1.072-1.008,2.908,2.908,0,0,1,1.52-.432q2.16,0,2.16,2.336Z" transform="translate(912 2376)"/>
    <path id="Path_3645" data-name="Path 3645" class="cls-6" d="M8.992,0H7.424L4.7-4.24H2.576V0H1.248V-10.672H5.536a3.367,3.367,0,0,1,2.416.88A3.069,3.069,0,0,1,8.88-7.456a3,3,0,0,1-.8,2.192,3.012,3.012,0,0,1-1.968.912ZM5.376-5.408a2.11,2.11,0,0,0,1.536-.576A1.965,1.965,0,0,0,7.5-7.456,1.939,1.939,0,0,0,6.912-8.92a2.127,2.127,0,0,0-1.536-.568h-2.8v4.08Zm8.56,5.6A3.791,3.791,0,0,1,11.1-.936,4.019,4.019,0,0,1,10-3.872a4.074,4.074,0,0,1,1.088-2.872,3.551,3.551,0,0,1,2.72-1.176A3.375,3.375,0,0,1,16.52-6.744a4.422,4.422,0,0,1,1,2.968v.3H11.264a2.923,2.923,0,0,0,.832,1.9A2.611,2.611,0,0,0,14.048-.8a3.176,3.176,0,0,0,2.384-.976l.576.784A4.156,4.156,0,0,1,13.936.192Zm2.4-4.544a2.8,2.8,0,0,0-.672-1.784,2.293,2.293,0,0,0-1.872-.792,2.254,2.254,0,0,0-1.816.784,2.919,2.919,0,0,0-.712,1.792ZM21.9.192a4.093,4.093,0,0,1-3.12-1.216l.624-.864a3.164,3.164,0,0,0,1.1.784,3.428,3.428,0,0,0,1.448.32A2.165,2.165,0,0,0,23.3-1.152a1.154,1.154,0,0,0,.48-.96.9.9,0,0,0-.5-.808,3.966,3.966,0,0,0-1.192-.448q-.7-.152-1.4-.352a2.751,2.751,0,0,1-1.2-.688,1.726,1.726,0,0,1-.5-1.288,1.976,1.976,0,0,1,.776-1.584,3.207,3.207,0,0,1,2.1-.64A3.878,3.878,0,0,1,24.736-6.8l-.56.832a2.836,2.836,0,0,0-2.3-.976,2.05,2.05,0,0,0-1.248.344,1.045,1.045,0,0,0-.464.872.805.805,0,0,0,.5.728,4.648,4.648,0,0,0,1.192.416q.7.152,1.4.36a2.676,2.676,0,0,1,1.2.728,1.878,1.878,0,0,1,.5,1.352,2.076,2.076,0,0,1-.8,1.68A3.44,3.44,0,0,1,21.9.192Zm8.48,0A3.791,3.791,0,0,1,27.552-.936a4.019,4.019,0,0,1-1.1-2.936,4.074,4.074,0,0,1,1.088-2.872,3.551,3.551,0,0,1,2.72-1.176,3.375,3.375,0,0,1,2.712,1.176,4.422,4.422,0,0,1,1,2.968v.3H27.712a2.923,2.923,0,0,0,.832,1.9A2.611,2.611,0,0,0,30.5-.8a3.176,3.176,0,0,0,2.384-.976l.576.784A4.156,4.156,0,0,1,30.384.192Zm2.4-4.544a2.8,2.8,0,0,0-.672-1.784,2.293,2.293,0,0,0-1.872-.792,2.254,2.254,0,0,0-1.816.784,2.919,2.919,0,0,0-.712,1.792ZM37.1,0H35.9V-7.728h1.2V-6.48A3.16,3.16,0,0,1,39.68-7.888v1.232A2.288,2.288,0,0,0,39.2-6.7a2.334,2.334,0,0,0-1.184.384,2.529,2.529,0,0,0-.912.848ZM44.56,0H43.248L40.032-7.728h1.3L43.9-1.392l2.56-6.336h1.312Zm7.952.192A3.791,3.791,0,0,1,49.68-.936a4.019,4.019,0,0,1-1.1-2.936,4.074,4.074,0,0,1,1.088-2.872,3.551,3.551,0,0,1,2.72-1.176A3.375,3.375,0,0,1,55.1-6.744a4.422,4.422,0,0,1,1,2.968v.3H49.84a2.923,2.923,0,0,0,.832,1.9A2.611,2.611,0,0,0,52.624-.8a3.176,3.176,0,0,0,2.384-.976l.576.784A4.156,4.156,0,0,1,52.512.192Zm2.4-4.544a2.8,2.8,0,0,0-.672-1.784,2.293,2.293,0,0,0-1.872-.792,2.254,2.254,0,0,0-1.816.784,2.919,2.919,0,0,0-.712,1.792ZM63.536,0H62.208V-10.672H69.2v1.184H63.536v3.44h5.552v1.184H63.536Zm13.84,0h-1.2V-1.088a3.984,3.984,0,0,1-1.208.912,3.376,3.376,0,0,1-1.544.368A2.178,2.178,0,0,1,70.96-2.272V-7.728h1.2V-2.64a1.772,1.772,0,0,0,.44,1.36,1.854,1.854,0,0,0,1.288.4,2.745,2.745,0,0,0,1.3-.336,2.773,2.773,0,0,0,.984-.832v-5.68h1.2Zm8.816,0h-1.2V-5.056a1.8,1.8,0,0,0-.448-1.384,1.835,1.835,0,0,0-1.28-.408,2.647,2.647,0,0,0-1.3.352,2.921,2.921,0,0,0-.984.848V0h-1.2V-7.728h1.2v1.12a3.929,3.929,0,0,1,1.2-.92,3.318,3.318,0,0,1,1.552-.392,2.192,2.192,0,0,1,2.464,2.5Zm9.2,0h-1.2V-1.152A3.092,3.092,0,0,1,91.584.192,3.138,3.138,0,0,1,89.1-.9a4.345,4.345,0,0,1-.952-2.952A4.383,4.383,0,0,1,89.1-6.808,3.118,3.118,0,0,1,91.584-7.92a3.108,3.108,0,0,1,2.608,1.36v-4.112h1.2Zm-3.52-.88a2.75,2.75,0,0,0,1.344-.352,2.679,2.679,0,0,0,.976-.864V-5.6a2.669,2.669,0,0,0-.984-.888,2.718,2.718,0,0,0-1.336-.36,2.2,2.2,0,0,0-1.808.84,3.338,3.338,0,0,0-.672,2.152,3.3,3.3,0,0,0,.672,2.144A2.2,2.2,0,0,0,91.872-.88Z" transform="translate(912 2447)"/>
    <path id="Path_3639" data-name="Path 3639" class="cls-6" d="M2.576,0H1.248V-10.672H5.536a3.244,3.244,0,0,1,2.448.928,3.167,3.167,0,0,1,.9,2.288,3.152,3.152,0,0,1-.9,2.288,3.25,3.25,0,0,1-2.44.928H2.576Zm2.8-5.424a2.127,2.127,0,0,0,1.536-.568A1.939,1.939,0,0,0,7.5-7.456,1.939,1.939,0,0,0,6.912-8.92a2.127,2.127,0,0,0-1.536-.568h-2.8v4.064ZM11.792,0h-1.2V-7.728h1.2V-6.48a3.16,3.16,0,0,1,2.576-1.408v1.232a2.288,2.288,0,0,0-.48-.048A2.334,2.334,0,0,0,12.7-6.32a2.529,2.529,0,0,0-.912.848ZM22.024-.976A3.549,3.549,0,0,1,19.248.192,3.549,3.549,0,0,1,16.472-.976a4.177,4.177,0,0,1-1.048-2.9A4.148,4.148,0,0,1,16.472-6.76a3.56,3.56,0,0,1,2.776-1.16,3.56,3.56,0,0,1,2.776,1.16,4.148,4.148,0,0,1,1.048,2.888A4.177,4.177,0,0,1,22.024-.976Zm-4.656-.776a2.279,2.279,0,0,0,1.88.872,2.257,2.257,0,0,0,1.872-.872,3.317,3.317,0,0,0,.688-2.12,3.284,3.284,0,0,0-.688-2.112,2.265,2.265,0,0,0-1.872-.864,2.279,2.279,0,0,0-1.88.872,3.268,3.268,0,0,0-.7,2.1A3.292,3.292,0,0,0,17.368-1.752Zm8.248-7.08a.781.781,0,0,1-.56-.232.76.76,0,0,1-.24-.568.786.786,0,0,1,.24-.576.768.768,0,0,1,.56-.24.786.786,0,0,1,.576.24.786.786,0,0,1,.24.576.76.76,0,0,1-.24.568A.8.8,0,0,1,25.616-8.832ZM23.936,3.136a2.718,2.718,0,0,1-1.7-.576l.432-.912a1.53,1.53,0,0,0,1.1.5,1.216,1.216,0,0,0,.912-.344A1.447,1.447,0,0,0,25.024.752v-8.48h1.2V.752a2.457,2.457,0,0,1-.592,1.76A2.227,2.227,0,0,1,23.936,3.136ZM32.112.192A3.791,3.791,0,0,1,29.28-.936a4.019,4.019,0,0,1-1.1-2.936,4.074,4.074,0,0,1,1.088-2.872,3.551,3.551,0,0,1,2.72-1.176A3.375,3.375,0,0,1,34.7-6.744a4.422,4.422,0,0,1,1,2.968v.3H29.44a2.923,2.923,0,0,0,.832,1.9A2.611,2.611,0,0,0,32.224-.8a3.176,3.176,0,0,0,2.384-.976l.576.784A4.156,4.156,0,0,1,32.112.192Zm2.4-4.544a2.8,2.8,0,0,0-.672-1.784,2.293,2.293,0,0,0-1.872-.792,2.254,2.254,0,0,0-1.816.784,2.919,2.919,0,0,0-.712,1.792ZM41.04.192a3.616,3.616,0,0,1-2.784-1.16,4.115,4.115,0,0,1-1.072-2.9,4.086,4.086,0,0,1,1.072-2.9A3.629,3.629,0,0,1,41.04-7.92a3.389,3.389,0,0,1,2.832,1.344l-.8.736A2.317,2.317,0,0,0,41.1-6.848a2.454,2.454,0,0,0-1.944.832,3.137,3.137,0,0,0-.728,2.144A3.168,3.168,0,0,0,39.16-1.72,2.444,2.444,0,0,0,41.1-.88a2.343,2.343,0,0,0,1.968-1.008l.8.736A3.389,3.389,0,0,1,41.04.192Zm6.464,0a1.665,1.665,0,0,1-1.28-.464,1.9,1.9,0,0,1-.432-1.344V-6.672h-1.28V-7.728h1.28V-9.84h1.2v2.112H48.56v1.056H46.992v4.8a1.188,1.188,0,0,0,.2.72.68.68,0,0,0,.584.272,1.041,1.041,0,0,0,.816-.32l.352.9A2.019,2.019,0,0,1,47.5.192ZM58.4,0H57.072V-9.488H53.7v-1.184h8.1v1.184H58.4Zm6.752.192A3.791,3.791,0,0,1,62.32-.936a4.019,4.019,0,0,1-1.1-2.936A4.074,4.074,0,0,1,62.3-6.744a3.551,3.551,0,0,1,2.72-1.176,3.375,3.375,0,0,1,2.712,1.176,4.422,4.422,0,0,1,1,2.968v.3H62.48a2.923,2.923,0,0,0,.832,1.9A2.611,2.611,0,0,0,65.264-.8a3.176,3.176,0,0,0,2.384-.976l.576.784A4.156,4.156,0,0,1,65.152.192Zm2.4-4.544a2.8,2.8,0,0,0-.672-1.784,2.293,2.293,0,0,0-1.872-.792,2.254,2.254,0,0,0-1.816.784,2.919,2.919,0,0,0-.712,1.792ZM76.7,0H75.5V-.88A3.3,3.3,0,0,1,72.944.192,2.842,2.842,0,0,1,71.056-.5a2.32,2.32,0,0,1-.816-1.872,2.3,2.3,0,0,1,.808-1.88,2.9,2.9,0,0,1,1.9-.664A3.2,3.2,0,0,1,75.5-3.856V-5.248a1.447,1.447,0,0,0-.544-1.2,2.2,2.2,0,0,0-1.408-.432,3.15,3.15,0,0,0-2.368,1.072l-.56-.832a4.108,4.108,0,0,1,3.088-1.28,3.444,3.444,0,0,1,2.16.64A2.326,2.326,0,0,1,76.7-5.312ZM73.376-.672a2.441,2.441,0,0,0,2.128-.96V-3.088a2.441,2.441,0,0,0-2.128-.96,1.994,1.994,0,0,0-1.368.472,1.555,1.555,0,0,0-.536,1.224,1.537,1.537,0,0,0,.536,1.208A1.994,1.994,0,0,0,73.376-.672ZM89.632,0h-1.2V-5.248q0-1.6-1.424-1.6a2.193,2.193,0,0,0-1.152.352,2.818,2.818,0,0,0-.9.832V0h-1.2V-5.248q0-1.6-1.424-1.6a2.13,2.13,0,0,0-1.128.352,2.943,2.943,0,0,0-.9.848V0H79.1V-7.728h1.2v1.12a3.019,3.019,0,0,1,1.008-.88A2.855,2.855,0,0,1,82.8-7.92a2.218,2.218,0,0,1,1.376.4,1.9,1.9,0,0,1,.7,1.04,3.068,3.068,0,0,1,1.072-1.008,2.908,2.908,0,0,1,1.52-.432q2.16,0,2.16,2.336Z" transform="translate(912 2221)"/>
    <path id="Path_3637" data-name="Path 3637" class="cls-6" d="M6.3.192A5.369,5.369,0,0,1,2.392-1.352,5.323,5.323,0,0,1,.816-5.328,5.323,5.323,0,0,1,2.392-9.3,5.369,5.369,0,0,1,6.3-10.848a4.7,4.7,0,0,1,4.048,2.112l-1.12.624a3.527,3.527,0,0,0-1.248-1.12A3.427,3.427,0,0,0,6.3-9.664,3.9,3.9,0,0,0,3.368-8.44,4.309,4.309,0,0,0,2.192-5.328,4.309,4.309,0,0,0,3.368-2.216,3.9,3.9,0,0,0,6.3-.992a3.478,3.478,0,0,0,1.68-.424A3.4,3.4,0,0,0,9.232-2.544l1.136.624A4.816,4.816,0,0,1,6.3.192ZM13.216,0h-1.2V-7.728h1.2V-6.48a3.16,3.16,0,0,1,2.576-1.408v1.232a2.288,2.288,0,0,0-.48-.048,2.334,2.334,0,0,0-1.184.384,2.529,2.529,0,0,0-.912.848ZM23.448-.976A3.549,3.549,0,0,1,20.672.192,3.549,3.549,0,0,1,17.9-.976a4.177,4.177,0,0,1-1.048-2.9A4.148,4.148,0,0,1,17.9-6.76a3.56,3.56,0,0,1,2.776-1.16,3.56,3.56,0,0,1,2.776,1.16A4.148,4.148,0,0,1,24.5-3.872,4.177,4.177,0,0,1,23.448-.976Zm-4.656-.776a2.279,2.279,0,0,0,1.88.872,2.257,2.257,0,0,0,1.872-.872,3.317,3.317,0,0,0,.688-2.12,3.284,3.284,0,0,0-.688-2.112,2.265,2.265,0,0,0-1.872-.864,2.279,2.279,0,0,0-1.88.872,3.268,3.268,0,0,0-.7,2.1A3.292,3.292,0,0,0,18.792-1.752ZM34.336,0h-1.2L31.12-6.208,29.1,0H27.9L25.44-7.728h1.248l1.888,6.16,2.032-6.16h1.024l2.032,6.16,1.888-6.16H36.8ZM44.992,0h-1.2V-1.152A3.092,3.092,0,0,1,41.184.192,3.138,3.138,0,0,1,38.7-.9a4.345,4.345,0,0,1-.952-2.952A4.383,4.383,0,0,1,38.7-6.808,3.118,3.118,0,0,1,41.184-7.92a3.108,3.108,0,0,1,2.608,1.36v-4.112h1.2Zm-3.52-.88a2.75,2.75,0,0,0,1.344-.352,2.679,2.679,0,0,0,.976-.864V-5.6a2.668,2.668,0,0,0-.984-.888,2.718,2.718,0,0,0-1.336-.36,2.2,2.2,0,0,0-1.808.84,3.338,3.338,0,0,0-.672,2.152,3.3,3.3,0,0,0,.672,2.144A2.2,2.2,0,0,0,41.472-.88ZM49.84.192a4.093,4.093,0,0,1-3.12-1.216l.624-.864a3.164,3.164,0,0,0,1.1.784,3.428,3.428,0,0,0,1.448.32,2.165,2.165,0,0,0,1.344-.368,1.154,1.154,0,0,0,.48-.96.9.9,0,0,0-.5-.808,3.967,3.967,0,0,0-1.192-.448q-.7-.152-1.4-.352a2.751,2.751,0,0,1-1.2-.688,1.726,1.726,0,0,1-.5-1.288A1.976,1.976,0,0,1,47.7-7.28a3.207,3.207,0,0,1,2.1-.64A3.878,3.878,0,0,1,52.672-6.8l-.56.832a2.836,2.836,0,0,0-2.3-.976A2.05,2.05,0,0,0,48.56-6.6a1.045,1.045,0,0,0-.464.872.805.805,0,0,0,.5.728,4.648,4.648,0,0,0,1.192.416q.7.152,1.4.36a2.676,2.676,0,0,1,1.2.728,1.878,1.878,0,0,1,.5,1.352,2.076,2.076,0,0,1-.8,1.68A3.44,3.44,0,0,1,49.84.192ZM60.864,0h-1.2V-.88A3.3,3.3,0,0,1,57.1.192,2.842,2.842,0,0,1,55.216-.5,2.32,2.32,0,0,1,54.4-2.368a2.3,2.3,0,0,1,.808-1.88,2.9,2.9,0,0,1,1.9-.664,3.2,3.2,0,0,1,2.56,1.056V-5.248a1.447,1.447,0,0,0-.544-1.2,2.2,2.2,0,0,0-1.408-.432,3.15,3.15,0,0,0-2.368,1.072l-.56-.832a4.108,4.108,0,0,1,3.088-1.28,3.444,3.444,0,0,1,2.16.64,2.326,2.326,0,0,1,.832,1.968ZM57.536-.672a2.441,2.441,0,0,0,2.128-.96V-3.088a2.441,2.441,0,0,0-2.128-.96,1.994,1.994,0,0,0-1.368.472,1.555,1.555,0,0,0-.536,1.224,1.537,1.537,0,0,0,.536,1.208A1.994,1.994,0,0,0,57.536-.672ZM64.464,0h-1.2V-10.672h1.2Zm5.888.192A3.791,3.791,0,0,1,67.52-.936a4.019,4.019,0,0,1-1.1-2.936A4.074,4.074,0,0,1,67.5-6.744a3.551,3.551,0,0,1,2.72-1.176,3.375,3.375,0,0,1,2.712,1.176,4.422,4.422,0,0,1,1,2.968v.3H67.68a2.923,2.923,0,0,0,.832,1.9A2.611,2.611,0,0,0,70.464-.8a3.176,3.176,0,0,0,2.384-.976l.576.784A4.156,4.156,0,0,1,70.352.192Zm2.4-4.544a2.8,2.8,0,0,0-.672-1.784,2.293,2.293,0,0,0-1.872-.792,2.254,2.254,0,0,0-1.816.784,2.919,2.919,0,0,0-.712,1.792Z" transform="translate(912 2149)"/>
    <g id="TOKENS_DISTRIBUTION" data-name="TOKENS DISTRIBUTION" transform="translate(-86 -83)">
      <g id="Group_1549" data-name="Group 1549" transform="translate(536 2173)">
        <path id="Path_3082" data-name="Path 3082" class="cls-1" d="M338.6,183A182.932,182.932,0,0,0,155.6,0c-2.83,0-5.66,0-8.49.189V183L30.9,316.948A183.012,183.012,0,0,0,338.6,183" transform="translate(27.396)"/>
        <path id="Path_3083" data-name="Path 3083" class="cls-7" d="M57.587,219.866A182.2,182.2,0,0,1,.8,109.5" transform="translate(0.709 97.082)"/>
        <path id="Path_3084" data-name="Path 3084" class="cls-3" d="M.8,120.482A182.2,182.2,0,0,0,57.587,230.848L173.8,96.9Z" transform="translate(0.709 85.911)"/>
        <path id="Path_3085" data-name="Path 3085" class="cls-7" d="M1.509,148.5A189.863,189.863,0,0,1,0,125.105,184.137,184.137,0,0,1,10,65.3" transform="translate(0 57.895)"/>
        <path id="Path_3086" data-name="Path 3086" class="cls-2" d="M10,65.3A184.137,184.137,0,0,0,0,125.105,189.863,189.863,0,0,0,1.509,148.5l173-23.394Z" transform="translate(0 57.895)"/>
        <path id="Path_3087" data-name="Path 3087" class="cls-7" d="M5.3,96.6A184.126,184.126,0,0,1,45.862,30" transform="translate(4.699 26.598)"/>
        <path id="Path_3088" data-name="Path 3088" class="cls-4" d="M45.862,30A184.126,184.126,0,0,0,5.3,96.6L169.811,156.4Z" transform="translate(4.699 26.598)"/>
        <path id="Path_3089" data-name="Path 3089" class="cls-7" d="M26.8,56.509A182.657,182.657,0,0,1,150.749.1" transform="translate(23.761 0.089)"/>
        <path id="Path_3090" data-name="Path 3090" class="cls-5" d="M26.8,56.509l123.949,126.4V.1A182.657,182.657,0,0,0,26.8,56.509Z" transform="translate(23.761 0.089)"/>
      </g>
      <ellipse id="Ellipse_512" data-name="Ellipse 512" class="cls-7" cx="157.636" cy="157.636" rx="157.636" ry="157.636" transform="translate(561.364 2198.364)"/>
      <path id="Path_3091" data-name="Path 3091" class="cls-8" d="M-39.328,0h-1.024V-20.384h-7.2v-.96H-32.1v.96h-7.232ZM-25.92.384a6.542,6.542,0,0,1-5.2-2.32,8.58,8.58,0,0,1-2-5.808,8.534,8.534,0,0,1,2-5.776,6.542,6.542,0,0,1,5.2-2.32,6.549,6.549,0,0,1,5.216,2.3A8.561,8.561,0,0,1-18.72-7.744,8.623,8.623,0,0,1-20.7-1.936,6.53,6.53,0,0,1-25.92.384Zm0-.864a5.38,5.38,0,0,0,4.5-2.128,8.137,8.137,0,0,0,1.648-5.136,8.088,8.088,0,0,0-1.648-5.1,5.38,5.38,0,0,0-4.5-2.128,5.391,5.391,0,0,0-4.48,2.128,8.036,8.036,0,0,0-1.664,5.1A8.085,8.085,0,0,0-30.4-2.608,5.391,5.391,0,0,0-25.92-.48ZM-1.728,0H-3.1L-9.888-7.776l-3.2,2.944V0h-.96V-21.344h.96v15.3l10.08-9.408h1.376L-9.152-8.48Zm10.3.384A7.106,7.106,0,0,1,3.1-1.9,8.273,8.273,0,0,1,.992-7.744a8.364,8.364,0,0,1,2.08-5.744A6.638,6.638,0,0,1,8.256-15.84a6.408,6.408,0,0,1,5.28,2.336,8.869,8.869,0,0,1,1.888,5.76v.32H2.08A7.432,7.432,0,0,0,3.92-2.48a5.929,5.929,0,0,0,4.656,2,7.054,7.054,0,0,0,5.376-2.336l.576.608A7.98,7.98,0,0,1,8.576.384ZM14.4-8.288a7.663,7.663,0,0,0-.64-3.056,6.223,6.223,0,0,0-2.1-2.56,5.643,5.643,0,0,0-3.44-1.072,5.333,5.333,0,0,0-4.416,2.064A7.757,7.757,0,0,0,2.08-8.288ZM31.488,0h-.96V-10.784A4.277,4.277,0,0,0,29.5-14.032a4.241,4.241,0,0,0-2.976-.944,6.307,6.307,0,0,0-3.072.848,7.063,7.063,0,0,0-2.4,2.064V0H20.1V-15.456h.96v2.432a8.337,8.337,0,0,1,2.5-1.968,6.486,6.486,0,0,1,3.1-.848,4.947,4.947,0,0,1,3.616,1.2,5.24,5.24,0,0,1,1.216,3.856Zm9.824.384A7.141,7.141,0,0,1,35.648-2.08l.768-.7a5.759,5.759,0,0,0,4.9,2.3A5.139,5.139,0,0,0,44.64-1.488a3.167,3.167,0,0,0,1.248-2.576,2.464,2.464,0,0,0-1.024-2.08,6.9,6.9,0,0,0-2.48-1.136q-1.456-.368-2.912-.768a6.2,6.2,0,0,1-2.48-1.3,3.029,3.029,0,0,1-1.024-2.4,3.65,3.65,0,0,1,1.408-2.928,5.834,5.834,0,0,1,3.84-1.168A6.333,6.333,0,0,1,46.528-13.5l-.7.64a5.226,5.226,0,0,0-4.608-2.112,4.92,4.92,0,0,0-3.136.912,2.835,2.835,0,0,0-1.152,2.32,2.145,2.145,0,0,0,1.024,1.872,7.623,7.623,0,0,0,2.48,1.04q1.456.352,2.912.768a5.865,5.865,0,0,1,2.48,1.392,3.434,3.434,0,0,1,1.024,2.608A4.076,4.076,0,0,1,45.424-.88,6,6,0,0,1,41.312.384ZM-66.88,32h-6.336V10.656h6.336a10.051,10.051,0,0,1,7.712,3.12,10.689,10.689,0,0,1,2.912,7.568,10.65,10.65,0,0,1-2.9,7.568A10.092,10.092,0,0,1-66.88,32Zm0-.96a9.012,9.012,0,0,0,6.96-2.752,9.833,9.833,0,0,0,2.544-6.944,9.869,9.869,0,0,0-2.56-6.944,8.97,8.97,0,0,0-6.944-2.784h-5.312V31.04Zm15.968-17.152a.912.912,0,0,1-.64-.272.87.87,0,0,1-.288-.656.87.87,0,0,1,.288-.656.912.912,0,0,1,.64-.272.894.894,0,0,1,.656.272.894.894,0,0,1,.272.656.894.894,0,0,1-.272.656A.894.894,0,0,1-50.912,13.888ZM-50.432,32h-.96V16.544h.96Zm9.824.384a7.141,7.141,0,0,1-5.664-2.464l.768-.7a5.759,5.759,0,0,0,4.9,2.3,5.139,5.139,0,0,0,3.328-1.008,3.167,3.167,0,0,0,1.248-2.576,2.464,2.464,0,0,0-1.024-2.08,6.9,6.9,0,0,0-2.48-1.136q-1.456-.368-2.912-.768a6.2,6.2,0,0,1-2.48-1.3,3.029,3.029,0,0,1-1.024-2.4,3.65,3.65,0,0,1,1.408-2.928A5.834,5.834,0,0,1-40.7,16.16,6.333,6.333,0,0,1-35.392,18.5l-.7.64A5.226,5.226,0,0,0-40.7,17.024a4.92,4.92,0,0,0-3.136.912,2.835,2.835,0,0,0-1.152,2.32,2.145,2.145,0,0,0,1.024,1.872,7.623,7.623,0,0,0,2.48,1.04q1.456.352,2.912.768a5.865,5.865,0,0,1,2.48,1.392,3.434,3.434,0,0,1,1.024,2.608A4.076,4.076,0,0,1-36.5,31.12,6,6,0,0,1-40.608,32.384Zm13.024,0q-2.624,0-2.624-3.1V17.408h-2.56v-.864h2.56V12.32h.96v4.224h3.136v.864h-3.136V29.28q0,2.24,1.664,2.24a2.278,2.278,0,0,0,1.824-.832l.576.736A3.4,3.4,0,0,1-27.584,32.384ZM-21.248,32h-.96V16.544h.96V19.36q2.336-3.1,5.312-3.1v1.152a7.284,7.284,0,0,0-.768-.032,4.7,4.7,0,0,0-2.592.96,5.557,5.557,0,0,0-1.952,2.08ZM-12,13.888a.912.912,0,0,1-.64-.272.87.87,0,0,1-.288-.656.87.87,0,0,1,.288-.656.912.912,0,0,1,.64-.272.894.894,0,0,1,.656.272.894.894,0,0,1,.272.656.894.894,0,0,1-.272.656A.894.894,0,0,1-12,13.888ZM-11.52,32h-.96V16.544h.96Zm6.464-3.552a6.314,6.314,0,0,0,2.3,2.176,6.375,6.375,0,0,0,3.264.9,5.112,5.112,0,0,0,4.3-2.032,8.325,8.325,0,0,0,1.552-5.2,8.4,8.4,0,0,0-1.552-5.216,5.1,5.1,0,0,0-4.3-2.048,6.209,6.209,0,0,0-3.264.928,6.565,6.565,0,0,0-2.3,2.208Zm0,3.552h-.96V10.656h.96V19.2A7.085,7.085,0,0,1-2.64,16.976,6.341,6.341,0,0,1,.512,16.16,6.252,6.252,0,0,1,5.52,18.4a8.78,8.78,0,0,1,1.9,5.888,8.752,8.752,0,0,1-1.888,5.888A6.28,6.28,0,0,1,.512,32.384a6.474,6.474,0,0,1-3.232-.848,6.558,6.558,0,0,1-2.336-2.128Zm28.544,0h-.96V29.632a8.9,8.9,0,0,1-2.56,1.968,6.516,6.516,0,0,1-3.04.784,5.032,5.032,0,0,1-3.616-1.168A5.124,5.124,0,0,1,12.1,27.392V16.544h.96V27.392a4.164,4.164,0,0,0,1.024,3.216,4.339,4.339,0,0,0,2.976.912,6.59,6.59,0,0,0,3.088-.816,6.579,6.579,0,0,0,2.384-2V16.544h.96Zm8.32.384q-2.624,0-2.624-3.1V17.408h-2.56v-.864h2.56V12.32h.96v4.224H33.28v.864H30.144V29.28q0,2.24,1.664,2.24a2.278,2.278,0,0,0,1.824-.832l.576.736A3.4,3.4,0,0,1,31.808,32.384Zm5.856-18.5a.912.912,0,0,1-.64-.272.891.891,0,0,1,0-1.312.912.912,0,0,1,.64-.272.928.928,0,0,1,0,1.856ZM38.144,32h-.96V16.544h.96Zm11.872.384a6.542,6.542,0,0,1-5.2-2.32,8.58,8.58,0,0,1-2-5.808,8.534,8.534,0,0,1,2-5.776,7.022,7.022,0,0,1,10.416-.016,8.561,8.561,0,0,1,1.984,5.792,8.623,8.623,0,0,1-1.984,5.808A6.53,6.53,0,0,1,50.016,32.384Zm0-.864a5.38,5.38,0,0,0,4.5-2.128,8.137,8.137,0,0,0,1.648-5.136,8.088,8.088,0,0,0-1.648-5.1,5.8,5.8,0,0,0-8.976,0,8.036,8.036,0,0,0-1.664,5.1,8.085,8.085,0,0,0,1.664,5.136A5.391,5.391,0,0,0,50.016,31.52ZM73.28,32h-.96V21.216A4.277,4.277,0,0,0,71.3,17.968a4.241,4.241,0,0,0-2.976-.944,6.307,6.307,0,0,0-3.072.848,7.063,7.063,0,0,0-2.4,2.064V32h-.96V16.544h.96v2.432a8.337,8.337,0,0,1,2.5-1.968,6.486,6.486,0,0,1,3.1-.848,4.947,4.947,0,0,1,3.616,1.2,5.24,5.24,0,0,1,1.216,3.856Z" transform="translate(712.956 2343.971)"/>
    </g>
  </g>
</svg>
