<svg xmlns="http://www.w3.org/2000/svg" xmlns:xlink="http://www.w3.org/1999/xlink" viewBox="0 0 1008 515.618">
  <defs>
    <style>
      .cls-1, .cls-11, .cls-2 {
        fill: none;
      }

      .cls-11, .cls-2 {
        stroke: #cccbdb;
      }

      .cls-2 {
        stroke-miterlimit: 10;
        stroke-width: 4px;
      }

      .cls-3, .cls-5 {
        fill: #2a2e3d;
        font-size: 17px;
      }

      .cls-3, .cls-6 {
        font-family: MalgunGothic, Malgun Gothic;
      }

      .cls-18, .cls-4, .cls-5 {
        font-family: ProximaNova-Regular, Proxima Nova;
      }

      .cls-18, .cls-7 {
        fill: #fff;
      }

      .cls-7 {
        stroke: #352c6d;
        stroke-width: 3px;
      }

      .cls-8 {
        fill: #343150;
        font-size: 21px;
        font-family: MalgunGothic-Semilight, Malgun Gothic;
        font-weight: 300;
      }

      .cls-9 {
        font-family: ProximaNovaT-Thin, Proxima Nova;
        font-weight: 200;
      }

      .cls-10 {
        clip-path: url(#clip-path);
      }

      .cls-11 {
        stroke-width: 2px;
      }

      .cls-12 {
        clip-path: url(#clip-path-2);
      }

      .cls-13 {
        clip-path: url(#clip-path-3);
      }

      .cls-14 {
        clip-path: url(#clip-path-4);
      }

      .cls-15 {
        clip-path: url(#clip-path-6);
      }

      .cls-16 {
        clip-path: url(#clip-path-7);
      }

      .cls-17 {
        fill: #352c6d;
      }

      .cls-18 {
        font-size: 27px;
      }

      .cls-19 {
        fill: #cccbdb;
      }

      .cls-20 {
        stroke: none;
      }
    </style>
    <clipPath id="clip-path">
      <rect class="cls-1" width="235" height="2"/>
    </clipPath>
    <clipPath id="clip-path-2">
      <rect class="cls-1" width="150" height="2"/>
    </clipPath>
    <clipPath id="clip-path-3">
      <rect class="cls-1" width="122" height="2"/>
    </clipPath>
    <clipPath id="clip-path-4">
      <rect class="cls-1" width="108" height="2"/>
    </clipPath>
    <clipPath id="clip-path-6">
      <rect class="cls-1" width="166" height="2"/>
    </clipPath>
    <clipPath id="clip-path-7">
      <rect class="cls-1" width="275" height="2"/>
    </clipPath>
  </defs>
  <g id="TOKEN_SALE_MODEL_FOR_VIP_INVESTOR_S_LIST" data-name="TOKEN SALE MODEL FOR VIP INVESTOR&apos;S LIST" transform="translate(-327 -1036.382)">
    <g id="Group_1524" data-name="Group 1524" transform="translate(332 1036.382)">
      <path id="Path_2895" data-name="Path 2895" class="cls-2" d="M1,476.017a249.98,249.98,0,0,0,122.191,31.6C262.657,507.618,376,394.275,376,254.809S262.657,2,123.191,2A248.784,248.784,0,0,0,1,33.6"/>
      <path id="Path_2896" data-name="Path 2896" class="cls-2" d="M1,9.5" transform="translate(0 24.101)"/>
      <path id="Path_2897" data-name="Path 2897" class="cls-2" d="M1,9.5" transform="translate(0 24.101)"/>
      <path id="Path_2898" data-name="Path 2898" class="cls-2" d="M1,114.5" transform="translate(0 361.517)"/>
    </g>
    <text id="사용자는_암호화_화폐를_투자합니다._비트코인_BTC_이더리움_ETH_기타_암호화화폐_" data-name="사용자는 암호화 화폐를 투자합니다. (비트코인(BTC), 이더리움(ETH), 기타 암호화화폐))" class="cls-3" transform="translate(899 1067)"><tspan x="0" y="19">사용자는</tspan><tspan class="cls-4" y="19"> </tspan><tspan y="19">암호화</tspan><tspan class="cls-4" y="19"> </tspan><tspan y="19">화폐를</tspan><tspan class="cls-4" y="19"> </tspan><tspan y="19">투자합니다</tspan><tspan class="cls-4" y="19">. (</tspan><tspan y="19">비트코인</tspan><tspan class="cls-4" x="0" y="43">(BTC), </tspan><tspan y="43">이더리움</tspan><tspan class="cls-4" y="43">(ETH), </tspan><tspan y="43">기타</tspan><tspan class="cls-4" y="43"> </tspan><tspan y="43">암호화화폐</tspan><tspan class="cls-4" y="43">))</tspan></text>
    <text id="투자된_암호화_화폐는_환율에_따라_미국달러_US_로_색인되어_변경됩니다." data-name="투자된 암호화 화폐는 환율에 따라 미국달러(US$)로 색인되어 변경됩니다." class="cls-3" transform="translate(899 1128)"><tspan x="0" y="19">투자된</tspan><tspan class="cls-4" y="19"> </tspan><tspan y="19">암호화</tspan><tspan class="cls-4" y="19"> </tspan><tspan y="19">화폐는</tspan><tspan class="cls-4" y="19"> </tspan><tspan y="19">환율에</tspan><tspan class="cls-4" y="19"> </tspan><tspan y="19">따라</tspan><tspan class="cls-4" y="19"> </tspan><tspan y="19">미국달러</tspan><tspan class="cls-4" y="19">(US$)</tspan><tspan x="0" y="43">로</tspan><tspan class="cls-4" y="43"> </tspan><tspan y="43">색인되어</tspan><tspan class="cls-4" y="43"> </tspan><tspan y="43">변경됩니다</tspan><tspan class="cls-4" y="43">.</tspan></text>
    <text id="다이스_토큰은_로_색인_변경된_투자된_금액을_기준으로_송금됩니다." data-name="다이스 토큰은 $로 색인/변경된 투자된 금액을 기준으로 송금됩니다." class="cls-3" transform="translate(899 1206)"><tspan x="0" y="19">다이스</tspan><tspan class="cls-4" y="19"> </tspan><tspan y="19">토큰은</tspan><tspan class="cls-4" y="19" xml:space="preserve"> $</tspan><tspan y="19">로</tspan><tspan class="cls-4" y="19"> </tspan><tspan y="19">색인</tspan><tspan class="cls-4" y="19">/</tspan><tspan y="19">변경된</tspan><tspan class="cls-4" y="19"> </tspan><tspan y="19">투자된</tspan><tspan class="cls-4" y="19"> </tspan><tspan y="19">금액을</tspan><tspan class="cls-4" y="19"> </tspan><tspan x="0" y="43">기준으로</tspan><tspan class="cls-4" y="43"> </tspan><tspan y="43">송금됩니다</tspan><tspan class="cls-4" y="43">.</tspan></text>
    <text id="ICO가_완료되고_사용자가_VIP_1BTC_또는_10_ETH가_투자_된_경우_투자자_명단에있을_때_환율_차이의_과정_또는_계산이_처리됩니다" data-name="ICO가 완료되고 사용자가 VIP (1BTC 또는 10 ETH가 투자 된 경우) 투자자 명단에있을 때 환율 차이의 과정 또는 계산이 처리됩니다" class="cls-5" transform="translate(899 1271)"><tspan x="0" y="19">ICO</tspan><tspan class="cls-6" y="19">가</tspan><tspan y="19"> </tspan><tspan class="cls-6" y="19">완료되고</tspan><tspan y="19"> </tspan><tspan class="cls-6" y="19">사용자가</tspan><tspan y="19" xml:space="preserve"> VIP (1BTC </tspan><tspan class="cls-6" y="19">또는</tspan><tspan y="19" xml:space="preserve"> 10 ETH</tspan><tspan class="cls-6" y="19">가</tspan><tspan y="19"> </tspan><tspan class="cls-6" y="19">투자</tspan><tspan y="19"> </tspan><tspan class="cls-6" x="0" y="43">된</tspan><tspan y="43"> </tspan><tspan class="cls-6" y="43">경우</tspan><tspan y="43">) </tspan><tspan class="cls-6" y="43">투자자</tspan><tspan y="43"> </tspan><tspan class="cls-6" y="43">명단에있을</tspan><tspan y="43"> </tspan><tspan class="cls-6" y="43">때</tspan><tspan y="43"> </tspan><tspan class="cls-6" y="43">환율</tspan><tspan y="43"> </tspan><tspan class="cls-6" y="43">차이의</tspan><tspan y="43"> </tspan><tspan class="cls-6" y="43">과정</tspan><tspan y="43"> </tspan><tspan class="cls-6" y="43">또는</tspan><tspan y="43"> </tspan><tspan class="cls-6" y="43">계산</tspan><tspan class="cls-6" x="0" y="67">이</tspan><tspan y="67"> </tspan><tspan class="cls-6" y="67">처리됩니다</tspan></text>
    <text id="암호화_화폐_투자의_환율이_증가하면_환율의_차이_가_계산됩니다" data-name="암호화 화폐 투자의 환율이 증가하면 환율의 차이
가 계산됩니다" class="cls-3" transform="translate(899 1372)"><tspan x="0" y="0">암호화</tspan><tspan class="cls-4" y="0"> </tspan><tspan y="0">화폐</tspan><tspan class="cls-4" y="0"> </tspan><tspan y="0">투자의</tspan><tspan class="cls-4" y="0"> </tspan><tspan y="0">환율이</tspan><tspan class="cls-4" y="0"> </tspan><tspan y="0">증가하면</tspan><tspan class="cls-4" y="0"> </tspan><tspan y="0">환율의</tspan><tspan class="cls-4" y="0"> </tspan><tspan y="0">차이</tspan><tspan class="cls-4" y="0"></tspan><tspan x="0" y="24">가</tspan><tspan class="cls-4" y="24"> </tspan><tspan y="24">계산됩니다</tspan></text>
    <text id="다이스_토큰_차이_수_환율_2_-_환율_1_투자된_합계금액_다이스_토큰_가치" data-name="다이스 토큰 차이 수 = ((환율 2 - 환율 1) * 투자된 합계금액) / 다이스 토큰 가치" class="cls-3" transform="translate(899 1429)"><tspan x="0" y="19">다이스</tspan><tspan class="cls-4" y="19"> </tspan><tspan y="19">토큰</tspan><tspan class="cls-4" y="19"> </tspan><tspan y="19">차이</tspan><tspan class="cls-4" y="19"> </tspan><tspan y="19">수</tspan><tspan class="cls-4" y="19" xml:space="preserve"> = ((</tspan><tspan y="19">환율</tspan><tspan class="cls-4" y="19" xml:space="preserve"> 2 - </tspan><tspan y="19">환율</tspan><tspan class="cls-4" y="19" xml:space="preserve"> 1) * </tspan><tspan y="19">투자된</tspan><tspan class="cls-4" y="19"> </tspan><tspan y="19">합</tspan><tspan x="0" y="43">계금액</tspan><tspan class="cls-4" y="43">) / </tspan><tspan y="43">다이스</tspan><tspan class="cls-4" y="43"> </tspan><tspan y="43">토큰</tspan><tspan class="cls-4" y="43"> </tspan><tspan y="43">가치</tspan></text>
    <text id="다이스_토큰은_사용자의_지갑으로_송금됩니다." data-name="다이스 토큰은 사용자의 지갑으로 송금됩니다." class="cls-3" transform="translate(899 1517)"><tspan x="0" y="19">다이스</tspan><tspan class="cls-4" y="19"> </tspan><tspan y="19">토큰은</tspan><tspan class="cls-4" y="19"> </tspan><tspan y="19">사용자의</tspan><tspan class="cls-4" y="19"> </tspan><tspan y="19">지갑으로</tspan><tspan class="cls-4" y="19"> </tspan><tspan y="19">송금됩니다</tspan><tspan class="cls-4" y="19">.</tspan></text>
    <g id="Ellipse_464" data-name="Ellipse 464" class="cls-7" transform="translate(583 1071)">
      <circle class="cls-20" cx="8" cy="8" r="8"/>
      <circle class="cls-1" cx="8" cy="8" r="6.5"/>
    </g>
    <g id="Ellipse_465" data-name="Ellipse 465" class="cls-7" transform="translate(660 1144)">
      <circle class="cls-20" cx="8" cy="8" r="8"/>
      <circle class="cls-1" cx="8" cy="8" r="6.5"/>
    </g>
    <g id="Ellipse_469" data-name="Ellipse 469" class="cls-7" transform="translate(691 1220)">
      <circle class="cls-20" cx="8" cy="8" r="8"/>
      <circle class="cls-1" cx="8" cy="8" r="6.5"/>
    </g>
    <g id="Ellipse_477" data-name="Ellipse 477" class="cls-7" transform="translate(700 1295)">
      <circle class="cls-20" cx="8" cy="8" r="8"/>
      <circle class="cls-1" cx="8" cy="8" r="6.5"/>
    </g>
    <g id="Ellipse_481" data-name="Ellipse 481" class="cls-7" transform="translate(686 1369)">
      <circle class="cls-20" cx="8" cy="8" r="8"/>
      <circle class="cls-1" cx="8" cy="8" r="6.5"/>
    </g>
    <g id="Ellipse_482" data-name="Ellipse 482" class="cls-7" transform="translate(643 1444)">
      <circle class="cls-20" cx="8" cy="8" r="8"/>
      <circle class="cls-1" cx="8" cy="8" r="6.5"/>
    </g>
    <g id="Ellipse_483" data-name="Ellipse 483" class="cls-7" transform="translate(534 1520)">
      <circle class="cls-20" cx="8" cy="8" r="8"/>
      <circle class="cls-1" cx="8" cy="8" r="6.5"/>
    </g>
    <text id="어떤_비율로_보상이_이루어질까요" data-name="어떤 비율로 보상이 이루어질까요" class="cls-8" transform="translate(333 1296)"><tspan x="0" y="0">어떤</tspan><tspan class="cls-9" y="0"> </tspan><tspan y="0">비율로</tspan><tspan class="cls-9" y="0"> </tspan><tspan y="0">보상이</tspan><tspan class="cls-9" y="0"> </tspan><tspan y="0">이루어질까요</tspan></text>
    <g id="Repeat_Grid_15" data-name="Repeat Grid 15" class="cls-10" transform="translate(600.5 1077.5)">
      <g transform="translate(-505.5 -1122.5)">
        <line id="Line_42" data-name="Line 42" class="cls-11" x2="7" transform="translate(505.5 1122.5)"/>
      </g>
      <g transform="translate(-491.5 -1122.5)">
        <line id="Line_42-2" data-name="Line 42" class="cls-11" x2="7" transform="translate(505.5 1122.5)"/>
      </g>
      <g transform="translate(-477.5 -1122.5)">
        <line id="Line_42-3" data-name="Line 42" class="cls-11" x2="7" transform="translate(505.5 1122.5)"/>
      </g>
      <g transform="translate(-463.5 -1122.5)">
        <line id="Line_42-4" data-name="Line 42" class="cls-11" x2="7" transform="translate(505.5 1122.5)"/>
      </g>
      <g transform="translate(-449.5 -1122.5)">
        <line id="Line_42-5" data-name="Line 42" class="cls-11" x2="7" transform="translate(505.5 1122.5)"/>
      </g>
      <g transform="translate(-435.5 -1122.5)">
        <line id="Line_42-6" data-name="Line 42" class="cls-11" x2="7" transform="translate(505.5 1122.5)"/>
      </g>
      <g transform="translate(-421.5 -1122.5)">
        <line id="Line_42-7" data-name="Line 42" class="cls-11" x2="7" transform="translate(505.5 1122.5)"/>
      </g>
      <g transform="translate(-407.5 -1122.5)">
        <line id="Line_42-8" data-name="Line 42" class="cls-11" x2="7" transform="translate(505.5 1122.5)"/>
      </g>
      <g transform="translate(-393.5 -1122.5)">
        <line id="Line_42-9" data-name="Line 42" class="cls-11" x2="7" transform="translate(505.5 1122.5)"/>
      </g>
      <g transform="translate(-379.5 -1122.5)">
        <line id="Line_42-10" data-name="Line 42" class="cls-11" x2="7" transform="translate(505.5 1122.5)"/>
      </g>
      <g transform="translate(-365.5 -1122.5)">
        <line id="Line_42-11" data-name="Line 42" class="cls-11" x2="7" transform="translate(505.5 1122.5)"/>
      </g>
      <g transform="translate(-351.5 -1122.5)">
        <line id="Line_42-12" data-name="Line 42" class="cls-11" x2="7" transform="translate(505.5 1122.5)"/>
      </g>
      <g transform="translate(-337.5 -1122.5)">
        <line id="Line_42-13" data-name="Line 42" class="cls-11" x2="7" transform="translate(505.5 1122.5)"/>
      </g>
      <g transform="translate(-323.5 -1122.5)">
        <line id="Line_42-14" data-name="Line 42" class="cls-11" x2="7" transform="translate(505.5 1122.5)"/>
      </g>
      <g transform="translate(-309.5 -1122.5)">
        <line id="Line_42-15" data-name="Line 42" class="cls-11" x2="7" transform="translate(505.5 1122.5)"/>
      </g>
      <g transform="translate(-295.5 -1122.5)">
        <line id="Line_42-16" data-name="Line 42" class="cls-11" x2="7" transform="translate(505.5 1122.5)"/>
      </g>
      <g transform="translate(-281.5 -1122.5)">
        <line id="Line_42-17" data-name="Line 42" class="cls-11" x2="7" transform="translate(505.5 1122.5)"/>
      </g>
    </g>
    <g id="Repeat_Grid_16" data-name="Repeat Grid 16" class="cls-12" transform="translate(685.5 1150.5)">
      <g transform="translate(-505.5 -1122.5)">
        <line id="Line_42-18" data-name="Line 42" class="cls-11" x2="7" transform="translate(505.5 1122.5)"/>
      </g>
      <g transform="translate(-491.5 -1122.5)">
        <line id="Line_42-19" data-name="Line 42" class="cls-11" x2="7" transform="translate(505.5 1122.5)"/>
      </g>
      <g transform="translate(-477.5 -1122.5)">
        <line id="Line_42-20" data-name="Line 42" class="cls-11" x2="7" transform="translate(505.5 1122.5)"/>
      </g>
      <g transform="translate(-463.5 -1122.5)">
        <line id="Line_42-21" data-name="Line 42" class="cls-11" x2="7" transform="translate(505.5 1122.5)"/>
      </g>
      <g transform="translate(-449.5 -1122.5)">
        <line id="Line_42-22" data-name="Line 42" class="cls-11" x2="7" transform="translate(505.5 1122.5)"/>
      </g>
      <g transform="translate(-435.5 -1122.5)">
        <line id="Line_42-23" data-name="Line 42" class="cls-11" x2="7" transform="translate(505.5 1122.5)"/>
      </g>
      <g transform="translate(-421.5 -1122.5)">
        <line id="Line_42-24" data-name="Line 42" class="cls-11" x2="7" transform="translate(505.5 1122.5)"/>
      </g>
      <g transform="translate(-407.5 -1122.5)">
        <line id="Line_42-25" data-name="Line 42" class="cls-11" x2="7" transform="translate(505.5 1122.5)"/>
      </g>
      <g transform="translate(-393.5 -1122.5)">
        <line id="Line_42-26" data-name="Line 42" class="cls-11" x2="7" transform="translate(505.5 1122.5)"/>
      </g>
      <g transform="translate(-379.5 -1122.5)">
        <line id="Line_42-27" data-name="Line 42" class="cls-11" x2="7" transform="translate(505.5 1122.5)"/>
      </g>
      <g transform="translate(-365.5 -1122.5)">
        <line id="Line_42-28" data-name="Line 42" class="cls-11" x2="7" transform="translate(505.5 1122.5)"/>
      </g>
    </g>
    <g id="Repeat_Grid_17" data-name="Repeat Grid 17" class="cls-13" transform="translate(717.5 1227.5)">
      <g transform="translate(-505.5 -1122.5)">
        <line id="Line_42-29" data-name="Line 42" class="cls-11" x2="7" transform="translate(505.5 1122.5)"/>
      </g>
      <g transform="translate(-491.5 -1122.5)">
        <line id="Line_42-30" data-name="Line 42" class="cls-11" x2="7" transform="translate(505.5 1122.5)"/>
      </g>
      <g transform="translate(-477.5 -1122.5)">
        <line id="Line_42-31" data-name="Line 42" class="cls-11" x2="7" transform="translate(505.5 1122.5)"/>
      </g>
      <g transform="translate(-463.5 -1122.5)">
        <line id="Line_42-32" data-name="Line 42" class="cls-11" x2="7" transform="translate(505.5 1122.5)"/>
      </g>
      <g transform="translate(-449.5 -1122.5)">
        <line id="Line_42-33" data-name="Line 42" class="cls-11" x2="7" transform="translate(505.5 1122.5)"/>
      </g>
      <g transform="translate(-435.5 -1122.5)">
        <line id="Line_42-34" data-name="Line 42" class="cls-11" x2="7" transform="translate(505.5 1122.5)"/>
      </g>
      <g transform="translate(-421.5 -1122.5)">
        <line id="Line_42-35" data-name="Line 42" class="cls-11" x2="7" transform="translate(505.5 1122.5)"/>
      </g>
      <g transform="translate(-407.5 -1122.5)">
        <line id="Line_42-36" data-name="Line 42" class="cls-11" x2="7" transform="translate(505.5 1122.5)"/>
      </g>
      <g transform="translate(-393.5 -1122.5)">
        <line id="Line_42-37" data-name="Line 42" class="cls-11" x2="7" transform="translate(505.5 1122.5)"/>
      </g>
    </g>
    <g id="Repeat_Grid_18" data-name="Repeat Grid 18" class="cls-14" transform="translate(727.5 1302.5)">
      <g transform="translate(-505.5 -1122.5)">
        <line id="Line_42-38" data-name="Line 42" class="cls-11" x2="7" transform="translate(505.5 1122.5)"/>
      </g>
      <g transform="translate(-491.5 -1122.5)">
        <line id="Line_42-39" data-name="Line 42" class="cls-11" x2="7" transform="translate(505.5 1122.5)"/>
      </g>
      <g transform="translate(-477.5 -1122.5)">
        <line id="Line_42-40" data-name="Line 42" class="cls-11" x2="7" transform="translate(505.5 1122.5)"/>
      </g>
      <g transform="translate(-463.5 -1122.5)">
        <line id="Line_42-41" data-name="Line 42" class="cls-11" x2="7" transform="translate(505.5 1122.5)"/>
      </g>
      <g transform="translate(-449.5 -1122.5)">
        <line id="Line_42-42" data-name="Line 42" class="cls-11" x2="7" transform="translate(505.5 1122.5)"/>
      </g>
      <g transform="translate(-435.5 -1122.5)">
        <line id="Line_42-43" data-name="Line 42" class="cls-11" x2="7" transform="translate(505.5 1122.5)"/>
      </g>
      <g transform="translate(-421.5 -1122.5)">
        <line id="Line_42-44" data-name="Line 42" class="cls-11" x2="7" transform="translate(505.5 1122.5)"/>
      </g>
      <g transform="translate(-407.5 -1122.5)">
        <line id="Line_42-45" data-name="Line 42" class="cls-11" x2="7" transform="translate(505.5 1122.5)"/>
      </g>
    </g>
    <g id="Repeat_Grid_19" data-name="Repeat Grid 19" class="cls-14" transform="translate(724.5 1376.5)">
      <g transform="translate(-505.5 -1122.5)">
        <line id="Line_42-46" data-name="Line 42" class="cls-11" x2="7" transform="translate(505.5 1122.5)"/>
      </g>
      <g transform="translate(-491.5 -1122.5)">
        <line id="Line_42-47" data-name="Line 42" class="cls-11" x2="7" transform="translate(505.5 1122.5)"/>
      </g>
      <g transform="translate(-477.5 -1122.5)">
        <line id="Line_42-48" data-name="Line 42" class="cls-11" x2="7" transform="translate(505.5 1122.5)"/>
      </g>
      <g transform="translate(-463.5 -1122.5)">
        <line id="Line_42-49" data-name="Line 42" class="cls-11" x2="7" transform="translate(505.5 1122.5)"/>
      </g>
      <g transform="translate(-449.5 -1122.5)">
        <line id="Line_42-50" data-name="Line 42" class="cls-11" x2="7" transform="translate(505.5 1122.5)"/>
      </g>
      <g transform="translate(-435.5 -1122.5)">
        <line id="Line_42-51" data-name="Line 42" class="cls-11" x2="7" transform="translate(505.5 1122.5)"/>
      </g>
      <g transform="translate(-421.5 -1122.5)">
        <line id="Line_42-52" data-name="Line 42" class="cls-11" x2="7" transform="translate(505.5 1122.5)"/>
      </g>
      <g transform="translate(-407.5 -1122.5)">
        <line id="Line_42-53" data-name="Line 42" class="cls-11" x2="7" transform="translate(505.5 1122.5)"/>
      </g>
    </g>
    <g id="Repeat_Grid_20" data-name="Repeat Grid 20" class="cls-15" transform="translate(675.5 1452.5)">
      <g transform="translate(-505.5 -1122.5)">
        <line id="Line_42-54" data-name="Line 42" class="cls-11" x2="7" transform="translate(505.5 1122.5)"/>
      </g>
      <g transform="translate(-491.5 -1122.5)">
        <line id="Line_42-55" data-name="Line 42" class="cls-11" x2="7" transform="translate(505.5 1122.5)"/>
      </g>
      <g transform="translate(-477.5 -1122.5)">
        <line id="Line_42-56" data-name="Line 42" class="cls-11" x2="7" transform="translate(505.5 1122.5)"/>
      </g>
      <g transform="translate(-463.5 -1122.5)">
        <line id="Line_42-57" data-name="Line 42" class="cls-11" x2="7" transform="translate(505.5 1122.5)"/>
      </g>
      <g transform="translate(-449.5 -1122.5)">
        <line id="Line_42-58" data-name="Line 42" class="cls-11" x2="7" transform="translate(505.5 1122.5)"/>
      </g>
      <g transform="translate(-435.5 -1122.5)">
        <line id="Line_42-59" data-name="Line 42" class="cls-11" x2="7" transform="translate(505.5 1122.5)"/>
      </g>
      <g transform="translate(-421.5 -1122.5)">
        <line id="Line_42-60" data-name="Line 42" class="cls-11" x2="7" transform="translate(505.5 1122.5)"/>
      </g>
      <g transform="translate(-407.5 -1122.5)">
        <line id="Line_42-61" data-name="Line 42" class="cls-11" x2="7" transform="translate(505.5 1122.5)"/>
      </g>
      <g transform="translate(-393.5 -1122.5)">
        <line id="Line_42-62" data-name="Line 42" class="cls-11" x2="7" transform="translate(505.5 1122.5)"/>
      </g>
      <g transform="translate(-379.5 -1122.5)">
        <line id="Line_42-63" data-name="Line 42" class="cls-11" x2="7" transform="translate(505.5 1122.5)"/>
      </g>
      <g transform="translate(-365.5 -1122.5)">
        <line id="Line_42-64" data-name="Line 42" class="cls-11" x2="7" transform="translate(505.5 1122.5)"/>
      </g>
      <g transform="translate(-351.5 -1122.5)">
        <line id="Line_42-65" data-name="Line 42" class="cls-11" x2="7" transform="translate(505.5 1122.5)"/>
      </g>
    </g>
    <g id="Repeat_Grid_21" data-name="Repeat Grid 21" class="cls-16" transform="translate(568.5 1527.5)">
      <g transform="translate(-505.5 -1122.5)">
        <line id="Line_42-66" data-name="Line 42" class="cls-11" x2="7" transform="translate(505.5 1122.5)"/>
      </g>
      <g transform="translate(-491.5 -1122.5)">
        <line id="Line_42-67" data-name="Line 42" class="cls-11" x2="7" transform="translate(505.5 1122.5)"/>
      </g>
      <g transform="translate(-477.5 -1122.5)">
        <line id="Line_42-68" data-name="Line 42" class="cls-11" x2="7" transform="translate(505.5 1122.5)"/>
      </g>
      <g transform="translate(-463.5 -1122.5)">
        <line id="Line_42-69" data-name="Line 42" class="cls-11" x2="7" transform="translate(505.5 1122.5)"/>
      </g>
      <g transform="translate(-449.5 -1122.5)">
        <line id="Line_42-70" data-name="Line 42" class="cls-11" x2="7" transform="translate(505.5 1122.5)"/>
      </g>
      <g transform="translate(-435.5 -1122.5)">
        <line id="Line_42-71" data-name="Line 42" class="cls-11" x2="7" transform="translate(505.5 1122.5)"/>
      </g>
      <g transform="translate(-421.5 -1122.5)">
        <line id="Line_42-72" data-name="Line 42" class="cls-11" x2="7" transform="translate(505.5 1122.5)"/>
      </g>
      <g transform="translate(-407.5 -1122.5)">
        <line id="Line_42-73" data-name="Line 42" class="cls-11" x2="7" transform="translate(505.5 1122.5)"/>
      </g>
      <g transform="translate(-393.5 -1122.5)">
        <line id="Line_42-74" data-name="Line 42" class="cls-11" x2="7" transform="translate(505.5 1122.5)"/>
      </g>
      <g transform="translate(-379.5 -1122.5)">
        <line id="Line_42-75" data-name="Line 42" class="cls-11" x2="7" transform="translate(505.5 1122.5)"/>
      </g>
      <g transform="translate(-365.5 -1122.5)">
        <line id="Line_42-76" data-name="Line 42" class="cls-11" x2="7" transform="translate(505.5 1122.5)"/>
      </g>
      <g transform="translate(-351.5 -1122.5)">
        <line id="Line_42-77" data-name="Line 42" class="cls-11" x2="7" transform="translate(505.5 1122.5)"/>
      </g>
      <g transform="translate(-337.5 -1122.5)">
        <line id="Line_42-78" data-name="Line 42" class="cls-11" x2="7" transform="translate(505.5 1122.5)"/>
      </g>
      <g transform="translate(-323.5 -1122.5)">
        <line id="Line_42-79" data-name="Line 42" class="cls-11" x2="7" transform="translate(505.5 1122.5)"/>
      </g>
      <g transform="translate(-309.5 -1122.5)">
        <line id="Line_42-80" data-name="Line 42" class="cls-11" x2="7" transform="translate(505.5 1122.5)"/>
      </g>
      <g transform="translate(-295.5 -1122.5)">
        <line id="Line_42-81" data-name="Line 42" class="cls-11" x2="7" transform="translate(505.5 1122.5)"/>
      </g>
      <g transform="translate(-281.5 -1122.5)">
        <line id="Line_42-82" data-name="Line 42" class="cls-11" x2="7" transform="translate(505.5 1122.5)"/>
      </g>
      <g transform="translate(-267.5 -1122.5)">
        <line id="Line_42-83" data-name="Line 42" class="cls-11" x2="7" transform="translate(505.5 1122.5)"/>
      </g>
      <g transform="translate(-253.5 -1122.5)">
        <line id="Line_42-84" data-name="Line 42" class="cls-11" x2="7" transform="translate(505.5 1122.5)"/>
      </g>
      <g transform="translate(-239.5 -1122.5)">
        <line id="Line_42-85" data-name="Line 42" class="cls-11" x2="7" transform="translate(505.5 1122.5)"/>
      </g>
    </g>
    <circle id="Ellipse_466" data-name="Ellipse 466" class="cls-17" cx="25" cy="25" r="25" transform="translate(824 1052)"/>
    <circle id="Ellipse_467" data-name="Ellipse 467" class="cls-17" cx="25" cy="25" r="25" transform="translate(824 1127)"/>
    <circle id="Ellipse_468" data-name="Ellipse 468" class="cls-17" cx="25" cy="25" r="25" transform="translate(824 1202)"/>
    <circle id="Ellipse_476" data-name="Ellipse 476" class="cls-17" cx="25" cy="25" r="25" transform="translate(824 1277)"/>
    <circle id="Ellipse_478" data-name="Ellipse 478" class="cls-17" cx="25" cy="25" r="25" transform="translate(824 1352)"/>
    <circle id="Ellipse_479" data-name="Ellipse 479" class="cls-17" cx="25" cy="25" r="25" transform="translate(824 1427)"/>
    <circle id="Ellipse_480" data-name="Ellipse 480" class="cls-17" cx="25" cy="25" r="25" transform="translate(824 1502)"/>
    <text id="_1" data-name="1" class="cls-18" transform="translate(845 1086)"><tspan x="0" y="0">1</tspan></text>
    <text id="_2" data-name="2" class="cls-18" transform="translate(841 1160)"><tspan x="0" y="0">2</tspan></text>
    <text id="_3" data-name="3" class="cls-18" transform="translate(841 1236)"><tspan x="0" y="0">3</tspan></text>
    <text id="_4" data-name="4" class="cls-18" transform="translate(842 1311)"><tspan x="0" y="0">4</tspan></text>
    <text id="_5" data-name="5" class="cls-18" transform="translate(841 1386)"><tspan x="0" y="0">5</tspan></text>
    <text id="_6" data-name="6" class="cls-18" transform="translate(841 1461)"><tspan x="0" y="0">6</tspan></text>
    <text id="_7" data-name="7" class="cls-18" transform="translate(842 1536)"><tspan x="0" y="0">7</tspan></text>
    <circle id="Ellipse_531" data-name="Ellipse 531" class="cls-19" cx="6" cy="6" r="6" transform="translate(327 1063)"/>
    <circle id="Ellipse_532" data-name="Ellipse 532" class="cls-19" cx="6" cy="6" r="6" transform="translate(327 1507)"/>
  </g>
</svg>
