<svg xmlns="http://www.w3.org/2000/svg" viewBox="0 0 825.63 330.489">
  <defs>
    <style>
      .cls-1 {
        fill: #352c6d;
      }

      .cls-2 {
        fill: #8284e5;
      }

      .cls-3 {
        fill: #8de1fe;
      }

      .cls-4 {
        fill: #fe7275;
      }

      .cls-5 {
        fill: #dedefc;
      }

      .cls-6 {
        fill: #ffcb73;
      }

      .cls-7 {
        fill: #172143;
      }

      .cls-8 {
        fill: #fff;
      }

      .cls-9 {
        fill: #343150;
      }
    </style>
  </defs>
  <g id="TOKENS_DISTRIBUTION" data-name="TOKENS DISTRIBUTION" transform="translate(-390.755 -2102.755)">
    <circle id="Ellipse_490" data-name="Ellipse 490" class="cls-1" cx="7.5" cy="7.5" r="7.5" transform="translate(797 2200)"/>
    <circle id="Ellipse_495" data-name="Ellipse 495" class="cls-2" cx="7.5" cy="7.5" r="7.5" transform="translate(1014 2202)"/>
    <circle id="Ellipse_501" data-name="Ellipse 501" class="cls-3" cx="7.5" cy="7.5" r="7.5" transform="translate(797 2269)"/>
    <circle id="Ellipse_507" data-name="Ellipse 507" class="cls-4" cx="7.5" cy="7.5" r="7.5" transform="translate(1014 2269)"/>
    <circle id="Ellipse_592" data-name="Ellipse 592" class="cls-5" cx="7.5" cy="7.5" r="7.5" transform="translate(1014 2336)"/>
    <circle id="Ellipse_529" data-name="Ellipse 529" class="cls-6" cx="7.5" cy="7.5" r="7.5" transform="translate(797 2336)"/>
    <path id="Path_4111" data-name="Path 4111" class="cls-7" d="M4.686,0H2.662L8.58-13.046H.682v-1.628h10.01v1.254ZM18.062.264A4.86,4.86,0,0,1,15.5-.407,4.969,4.969,0,0,1,13.739-2.2a9.183,9.183,0,0,1-.968-2.42,11.3,11.3,0,0,1-.319-2.706,11.3,11.3,0,0,1,.319-2.706,9.011,9.011,0,0,1,.968-2.409,5,5,0,0,1,1.76-1.782,4.86,4.86,0,0,1,2.563-.671,4.875,4.875,0,0,1,2.552.671,4.969,4.969,0,0,1,1.771,1.782,9.011,9.011,0,0,1,.968,2.409,11.3,11.3,0,0,1,.319,2.706,11.3,11.3,0,0,1-.319,2.706,9.183,9.183,0,0,1-.968,2.42A4.941,4.941,0,0,1,20.614-.407,4.875,4.875,0,0,1,18.062.264Zm-2.2-2.541a2.929,2.929,0,0,0,2.2.913,2.93,2.93,0,0,0,2.2-.913,4.843,4.843,0,0,0,1.21-2.189,11.434,11.434,0,0,0,.33-2.86,11.434,11.434,0,0,0-.33-2.86,4.768,4.768,0,0,0-1.21-2.178,2.947,2.947,0,0,0-2.2-.9,2.947,2.947,0,0,0-2.2.9,4.768,4.768,0,0,0-1.21,2.178,11.433,11.433,0,0,0-.33,2.86,11.433,11.433,0,0,0,.33,2.86A4.843,4.843,0,0,0,15.862-2.277Zm15.7-6.4A3.431,3.431,0,0,1,29-7.656a3.359,3.359,0,0,1-2.541-1.023,3.56,3.56,0,0,1-.979-2.563,3.643,3.643,0,0,1,.99-2.607A3.332,3.332,0,0,1,29-14.894a3.394,3.394,0,0,1,2.563,1.045,3.62,3.62,0,0,1,1,2.607A3.517,3.517,0,0,1,31.559-8.679ZM28.8,0H27.61l9.372-14.674h1.21ZM39.2-.759A3.4,3.4,0,0,1,36.652.264,3.359,3.359,0,0,1,34.111-.759a3.56,3.56,0,0,1-.979-2.563,3.643,3.643,0,0,1,.99-2.607,3.332,3.332,0,0,1,2.53-1.045A3.358,3.358,0,0,1,39.2-5.929a3.643,3.643,0,0,1,.99,2.607A3.538,3.538,0,0,1,39.2-.759ZM27.412-9.471A2,2,0,0,0,29-8.756,2.061,2.061,0,0,0,30.6-9.471a2.563,2.563,0,0,0,.638-1.771,2.652,2.652,0,0,0-.627-1.815A2.052,2.052,0,0,0,29-13.772a2,2,0,0,0-1.584.715,2.682,2.682,0,0,0-.616,1.815A2.618,2.618,0,0,0,27.412-9.471Zm7.645,7.92a2.028,2.028,0,0,0,1.6.715,2.061,2.061,0,0,0,1.606-.715A2.563,2.563,0,0,0,38.9-3.322a2.652,2.652,0,0,0-.627-1.815,2.052,2.052,0,0,0-1.617-.715,2.019,2.019,0,0,0-1.606.715,2.682,2.682,0,0,0-.616,1.815A2.59,2.59,0,0,0,35.057-1.551Z" transform="translate(828 2215)"/>
    <path id="Path_4117" data-name="Path 4117" class="cls-7" d="M6.622.264A6.088,6.088,0,0,1,1.452-2.09L2.574-3.3A4.884,4.884,0,0,0,6.622-1.364a3.394,3.394,0,0,0,2.442-.9A2.974,2.974,0,0,0,10.01-4.51a2.99,2.99,0,0,0-.935-2.3,3.428,3.428,0,0,0-2.431-.869A4.656,4.656,0,0,0,3.256-6.292L1.914-6.754v-7.92H10.89v1.628H3.74v5.1a4.643,4.643,0,0,1,3.432-1.32A4.679,4.679,0,0,1,10.472-8a4.439,4.439,0,0,1,1.364,3.421,4.493,4.493,0,0,1-1.474,3.52A5.4,5.4,0,0,1,6.622.264ZM19.745-8.679a3.431,3.431,0,0,1-2.563,1.023,3.359,3.359,0,0,1-2.541-1.023,3.56,3.56,0,0,1-.979-2.563,3.643,3.643,0,0,1,.99-2.607,3.332,3.332,0,0,1,2.53-1.045,3.394,3.394,0,0,1,2.563,1.045,3.62,3.62,0,0,1,1,2.607A3.517,3.517,0,0,1,19.745-8.679ZM16.984,0H15.8l9.372-14.674h1.21ZM27.39-.759A3.4,3.4,0,0,1,24.838.264,3.359,3.359,0,0,1,22.3-.759a3.56,3.56,0,0,1-.979-2.563,3.643,3.643,0,0,1,.99-2.607,3.332,3.332,0,0,1,2.53-1.045A3.358,3.358,0,0,1,27.39-5.929a3.643,3.643,0,0,1,.99,2.607A3.538,3.538,0,0,1,27.39-.759ZM15.6-9.471a2,2,0,0,0,1.584.715,2.061,2.061,0,0,0,1.606-.715,2.563,2.563,0,0,0,.638-1.771,2.652,2.652,0,0,0-.627-1.815,2.052,2.052,0,0,0-1.617-.715,2,2,0,0,0-1.584.715,2.682,2.682,0,0,0-.616,1.815A2.618,2.618,0,0,0,15.6-9.471Zm7.645,7.92a2.028,2.028,0,0,0,1.6.715,2.061,2.061,0,0,0,1.606-.715,2.563,2.563,0,0,0,.638-1.771,2.652,2.652,0,0,0-.627-1.815,2.052,2.052,0,0,0-1.617-.715,2.019,2.019,0,0,0-1.606.715,2.682,2.682,0,0,0-.616,1.815A2.59,2.59,0,0,0,23.243-1.551Z" transform="translate(1045 2215)"/>
    <path id="Path_4114" data-name="Path 4114" class="cls-7" d="M5.742,0H3.916V-12.254L1.562-9.768.462-10.89l3.674-3.784H5.742Zm12.98,0H8.646V-1.452q2.288-1.8,3.553-2.871t2.442-2.266A9.423,9.423,0,0,0,16.3-8.723a4.016,4.016,0,0,0,.484-1.859,2.354,2.354,0,0,0-.9-2,3.472,3.472,0,0,0-2.156-.682,4.788,4.788,0,0,0-3.982,1.848L8.624-12.584a5.522,5.522,0,0,1,2.189-1.7,7.059,7.059,0,0,1,2.915-.605,5.529,5.529,0,0,1,3.465,1.122,3.783,3.783,0,0,1,1.463,3.19A6.263,6.263,0,0,1,16.9-6.5a39.965,39.965,0,0,1-5.368,4.873h7.194Zm8.437-8.679A3.431,3.431,0,0,1,24.6-7.656a3.359,3.359,0,0,1-2.541-1.023,3.56,3.56,0,0,1-.979-2.563,3.643,3.643,0,0,1,.99-2.607,3.332,3.332,0,0,1,2.53-1.045,3.394,3.394,0,0,1,2.563,1.045,3.62,3.62,0,0,1,1,2.607A3.517,3.517,0,0,1,27.159-8.679ZM24.4,0H23.21l9.372-14.674h1.21ZM34.8-.759A3.4,3.4,0,0,1,32.252.264,3.359,3.359,0,0,1,29.711-.759a3.56,3.56,0,0,1-.979-2.563,3.643,3.643,0,0,1,.99-2.607,3.332,3.332,0,0,1,2.53-1.045A3.358,3.358,0,0,1,34.8-5.929a3.643,3.643,0,0,1,.99,2.607A3.538,3.538,0,0,1,34.8-.759ZM23.012-9.471a2,2,0,0,0,1.584.715A2.061,2.061,0,0,0,26.2-9.471a2.563,2.563,0,0,0,.638-1.771,2.652,2.652,0,0,0-.627-1.815,2.052,2.052,0,0,0-1.617-.715,2,2,0,0,0-1.584.715,2.682,2.682,0,0,0-.616,1.815A2.618,2.618,0,0,0,23.012-9.471Zm7.645,7.92a2.028,2.028,0,0,0,1.6.715,2.061,2.061,0,0,0,1.606-.715A2.563,2.563,0,0,0,34.5-3.322a2.652,2.652,0,0,0-.627-1.815,2.052,2.052,0,0,0-1.617-.715,2.019,2.019,0,0,0-1.606.715,2.682,2.682,0,0,0-.616,1.815A2.59,2.59,0,0,0,30.657-1.551Z" transform="translate(828 2282)"/>
    <path id="Path_4120" data-name="Path 4120" class="cls-7" d="M5.852.264A6.894,6.894,0,0,1,2.728-.418,5.388,5.388,0,0,1,.638-2.156L1.716-3.3A4.726,4.726,0,0,0,3.454-1.892a5.279,5.279,0,0,0,2.354.528A3.9,3.9,0,0,0,8.327-2.1,2.448,2.448,0,0,0,9.24-4.114a2.174,2.174,0,0,0-.979-1.958A4.853,4.853,0,0,0,5.588-6.71q-1.3,0-1.518.022V-8.36q.242.022,1.518.022a4.52,4.52,0,0,0,2.453-.6A2.005,2.005,0,0,0,9-10.758,2.14,2.14,0,0,0,8.063-12.6a3.916,3.916,0,0,0-2.343-.671,5.118,5.118,0,0,0-3.872,1.782L.836-12.628a6.169,6.169,0,0,1,5.016-2.266,5.808,5.808,0,0,1,3.575,1.045,3.389,3.389,0,0,1,1.4,2.871,2.966,2.966,0,0,1-.968,2.321,4.4,4.4,0,0,1-2.2,1.089,4.043,4.043,0,0,1,2.3,1.056A3.208,3.208,0,0,1,11.044-3.96,3.787,3.787,0,0,1,9.636-.913,5.712,5.712,0,0,1,5.852.264ZM19.019-8.679a3.431,3.431,0,0,1-2.563,1.023,3.359,3.359,0,0,1-2.541-1.023,3.56,3.56,0,0,1-.979-2.563,3.643,3.643,0,0,1,.99-2.607,3.332,3.332,0,0,1,2.53-1.045,3.394,3.394,0,0,1,2.563,1.045,3.62,3.62,0,0,1,1,2.607A3.517,3.517,0,0,1,19.019-8.679ZM16.258,0H15.07l9.372-14.674h1.21ZM26.664-.759A3.4,3.4,0,0,1,24.112.264,3.359,3.359,0,0,1,21.571-.759a3.56,3.56,0,0,1-.979-2.563,3.643,3.643,0,0,1,.99-2.607,3.332,3.332,0,0,1,2.53-1.045,3.358,3.358,0,0,1,2.552,1.045,3.643,3.643,0,0,1,.99,2.607A3.538,3.538,0,0,1,26.664-.759ZM14.872-9.471a2,2,0,0,0,1.584.715,2.061,2.061,0,0,0,1.606-.715,2.563,2.563,0,0,0,.638-1.771,2.652,2.652,0,0,0-.627-1.815,2.052,2.052,0,0,0-1.617-.715,2,2,0,0,0-1.584.715,2.682,2.682,0,0,0-.616,1.815A2.618,2.618,0,0,0,14.872-9.471Zm7.645,7.92a2.028,2.028,0,0,0,1.595.715,2.061,2.061,0,0,0,1.606-.715,2.563,2.563,0,0,0,.638-1.771,2.652,2.652,0,0,0-.627-1.815,2.052,2.052,0,0,0-1.617-.715,2.019,2.019,0,0,0-1.606.715,2.682,2.682,0,0,0-.616,1.815A2.59,2.59,0,0,0,22.517-1.551Z" transform="translate(1045 2284)"/>
    <path id="Path_4122" data-name="Path 4122" class="cls-7" d="M5.852.264A6.894,6.894,0,0,1,2.728-.418,5.388,5.388,0,0,1,.638-2.156L1.716-3.3A4.726,4.726,0,0,0,3.454-1.892a5.279,5.279,0,0,0,2.354.528A3.9,3.9,0,0,0,8.327-2.1,2.448,2.448,0,0,0,9.24-4.114a2.174,2.174,0,0,0-.979-1.958A4.853,4.853,0,0,0,5.588-6.71q-1.3,0-1.518.022V-8.36q.242.022,1.518.022a4.52,4.52,0,0,0,2.453-.6A2.005,2.005,0,0,0,9-10.758,2.14,2.14,0,0,0,8.063-12.6a3.916,3.916,0,0,0-2.343-.671,5.118,5.118,0,0,0-3.872,1.782L.836-12.628a6.169,6.169,0,0,1,5.016-2.266,5.808,5.808,0,0,1,3.575,1.045,3.389,3.389,0,0,1,1.4,2.871,2.966,2.966,0,0,1-.968,2.321,4.4,4.4,0,0,1-2.2,1.089,4.043,4.043,0,0,1,2.3,1.056A3.208,3.208,0,0,1,11.044-3.96,3.787,3.787,0,0,1,9.636-.913,5.712,5.712,0,0,1,5.852.264ZM19.019-8.679a3.431,3.431,0,0,1-2.563,1.023,3.359,3.359,0,0,1-2.541-1.023,3.56,3.56,0,0,1-.979-2.563,3.643,3.643,0,0,1,.99-2.607,3.332,3.332,0,0,1,2.53-1.045,3.394,3.394,0,0,1,2.563,1.045,3.62,3.62,0,0,1,1,2.607A3.517,3.517,0,0,1,19.019-8.679ZM16.258,0H15.07l9.372-14.674h1.21ZM26.664-.759A3.4,3.4,0,0,1,24.112.264,3.359,3.359,0,0,1,21.571-.759a3.56,3.56,0,0,1-.979-2.563,3.643,3.643,0,0,1,.99-2.607,3.332,3.332,0,0,1,2.53-1.045,3.358,3.358,0,0,1,2.552,1.045,3.643,3.643,0,0,1,.99,2.607A3.538,3.538,0,0,1,26.664-.759ZM14.872-9.471a2,2,0,0,0,1.584.715,2.061,2.061,0,0,0,1.606-.715,2.563,2.563,0,0,0,.638-1.771,2.652,2.652,0,0,0-.627-1.815,2.052,2.052,0,0,0-1.617-.715,2,2,0,0,0-1.584.715,2.682,2.682,0,0,0-.616,1.815A2.618,2.618,0,0,0,14.872-9.471Zm7.645,7.92a2.028,2.028,0,0,0,1.595.715,2.061,2.061,0,0,0,1.606-.715,2.563,2.563,0,0,0,.638-1.771,2.652,2.652,0,0,0-.627-1.815,2.052,2.052,0,0,0-1.617-.715,2.019,2.019,0,0,0-1.606.715,2.682,2.682,0,0,0-.616,1.815A2.59,2.59,0,0,0,22.517-1.551Z" transform="translate(1045 2351)"/>
    <path id="Path_4115" data-name="Path 4115" class="cls-7" d="M4.686,0H2.662L8.58-13.046H.682v-1.628h10.01v1.254ZM18.1-8.679a3.431,3.431,0,0,1-2.563,1.023,3.359,3.359,0,0,1-2.541-1.023,3.56,3.56,0,0,1-.979-2.563A3.643,3.643,0,0,1,13-13.849a3.332,3.332,0,0,1,2.53-1.045A3.394,3.394,0,0,1,18.1-13.849a3.62,3.62,0,0,1,1,2.607A3.517,3.517,0,0,1,18.1-8.679ZM15.334,0H14.146l9.372-14.674h1.21ZM25.74-.759A3.4,3.4,0,0,1,23.188.264,3.359,3.359,0,0,1,20.647-.759a3.56,3.56,0,0,1-.979-2.563,3.643,3.643,0,0,1,.99-2.607,3.332,3.332,0,0,1,2.53-1.045A3.358,3.358,0,0,1,25.74-5.929a3.643,3.643,0,0,1,.99,2.607A3.538,3.538,0,0,1,25.74-.759ZM13.948-9.471a2,2,0,0,0,1.584.715,2.061,2.061,0,0,0,1.606-.715,2.563,2.563,0,0,0,.638-1.771,2.652,2.652,0,0,0-.627-1.815,2.052,2.052,0,0,0-1.617-.715,2,2,0,0,0-1.584.715,2.682,2.682,0,0,0-.616,1.815A2.618,2.618,0,0,0,13.948-9.471Zm7.645,7.92a2.028,2.028,0,0,0,1.595.715,2.061,2.061,0,0,0,1.606-.715,2.563,2.563,0,0,0,.638-1.771,2.652,2.652,0,0,0-.627-1.815,2.052,2.052,0,0,0-1.617-.715,2.019,2.019,0,0,0-1.606.715,2.682,2.682,0,0,0-.616,1.815A2.59,2.59,0,0,0,21.593-1.551Z" transform="translate(828 2351)"/>
    <path id="Path_4118" data-name="Path 4118" class="cls-7" d="M12.383-3.82v-4.8H9.273v-.773h3.109v-4.273h.906V-3.82ZM9.5-5.4a5.464,5.464,0,0,1-1.109-.527,7.955,7.955,0,0,1-1.086-.8,7.475,7.475,0,0,1-.926-.961A4.252,4.252,0,0,1,5.758-8.7a5.053,5.053,0,0,1-.617,1.094,7.927,7.927,0,0,1-.895,1.027,8.29,8.29,0,0,1-1.062.871,6.187,6.187,0,0,1-1.129.625L1.406-5.75a4.967,4.967,0,0,0,.91-.4,6.4,6.4,0,0,0,.895-.6,6.832,6.832,0,0,0,.813-.77,5.711,5.711,0,0,0,.664-.9,4.735,4.735,0,0,0,.445-.988A3.433,3.433,0,0,0,5.3-10.453v-.7H1.789v-.773H5.313v-1.766h.914v1.766H9.75v.773H6.227v.7A3.215,3.215,0,0,0,6.391-9.43a4.4,4.4,0,0,0,.441.938,4.729,4.729,0,0,0,.656.828,6.106,6.106,0,0,0,.809.688,6.2,6.2,0,0,0,.891.527,4.621,4.621,0,0,0,.906.332ZM13.977,1.07a8.9,8.9,0,0,1-1.523-.5,9.85,9.85,0,0,1-1.531-.82,8.613,8.613,0,0,1-1.34-1.078A5.134,5.134,0,0,1,8.625-2.6,5.281,5.281,0,0,1,7.68-1.32,8.221,8.221,0,0,1,6.367-.242a9.743,9.743,0,0,1-1.5.816,8.077,8.077,0,0,1-1.5.5L2.8.281A5.8,5.8,0,0,0,3.957.016,8.285,8.285,0,0,0,5.172-.5a8.06,8.06,0,0,0,1.145-.723,6.048,6.048,0,0,0,.957-.895,4.331,4.331,0,0,0,.66-1.027A2.671,2.671,0,0,0,8.18-4.258v-.32h.914v.3a2.679,2.679,0,0,0,.25,1.125,4.145,4.145,0,0,0,.676,1.027A6.429,6.429,0,0,0,11-1.23a8.445,8.445,0,0,0,1.152.723,8.446,8.446,0,0,0,1.207.516A6.091,6.091,0,0,0,14.5.281ZM24.371.813v-4.32h.906V.023h8.734V.813ZM28.464-9.211H23.386v3.047h5.078ZM22.5-5.391v-7.555h.891v2.961h5.078v-2.961h.891V-9.32h3.18v-4.344h.906v10.9h-.906V-8.555h-3.18v3.164ZM41.3-4.109q-.242-.375-.477-.793t-.434-.863a9.707,9.707,0,0,1-.355-.918,6.234,6.234,0,0,1-.234-.949,11.441,11.441,0,0,1-.227,1.2,12.547,12.547,0,0,1-.359,1.207,11.41,11.41,0,0,1-.484,1.164,9.936,9.936,0,0,1-.6,1.074l-.766-.352a9.894,9.894,0,0,0,.8-1.418,10.3,10.3,0,0,0,.605-1.684,14.535,14.535,0,0,0,.379-1.98,18.8,18.8,0,0,0,.133-2.316v-.836H37.574v-.766h7.492v.766h-1.68v.9a16.09,16.09,0,0,0,.141,2.121,14.264,14.264,0,0,0,.422,2.043,11.17,11.17,0,0,0,.711,1.859,7.661,7.661,0,0,0,1.008,1.563L45-2.57a8.849,8.849,0,0,1-.676-1.039,12.051,12.051,0,0,1-.59-1.207,12.5,12.5,0,0,1-.457-1.266A8.723,8.723,0,0,1,43-7.289a7.661,7.661,0,0,1-.141.8q-.1.453-.246.953t-.328,1.023q-.184.523-.383,1.008t-.41.906a6.163,6.163,0,0,1-.414.719l-.727-.375q.3-.469.527-.926T41.3-4.109Zm7.742,5.516V-6.617H47.2V.93h-.883V-13.352h.875v5.938h1.852v-6.25h.9V1.406ZM41.644-5.1a13.465,13.465,0,0,0,.715-2.676,18.294,18.294,0,0,0,.223-2.9v-.9H40.1v.852a9.358,9.358,0,0,0,.063,1.063q.063.547.176,1.09T40.6-7.512q.148.52.316.977a7.522,7.522,0,0,0,.355.824A4.357,4.357,0,0,0,41.644-5.1ZM68.093-8.891H60.468v2.922h7.625ZM64.741-5.2v3.516h6.5V-.9H57.335v-.789h6.5V-5.2H59.577v-7.133h.891v2.68h7.625v-2.68h.891V-5.2ZM84.788,1.406V-8.008H79.976v-.781h4.813v-4.875h.906V1.406Zm-1.68-4.789a4.664,4.664,0,0,1-.527.1q-.324.047-.687.086t-.734.066q-.371.027-.66.035-.32.016-.828.027t-1.23.016l-1.676.008q-.953,0-2.164,0v-9.422h.906v8.633H78.89q1.5,0,2.516-.086a11.208,11.208,0,0,0,1.57-.219Zm20.133,2.2H89.335v-.789h13.906ZM96.28-10.125a5.573,5.573,0,0,1-.891,1.379,8.966,8.966,0,0,1-1.348,1.27,10.627,10.627,0,0,1-1.648,1.039,8.805,8.805,0,0,1-1.785.688l-.6-.711a7.748,7.748,0,0,0,1.406-.41,8.887,8.887,0,0,0,1.348-.668,8.972,8.972,0,0,0,1.2-.871,6.6,6.6,0,0,0,.969-1.023,4.908,4.908,0,0,0,.645-1.125,3.105,3.105,0,0,0,.234-1.168v-.7h.945v.688A3.006,3.006,0,0,0,97-10.57a4.988,4.988,0,0,0,.668,1.129,6.931,6.931,0,0,0,.992,1.027,9.262,9.262,0,0,0,1.219.875,9.4,9.4,0,0,0,1.336.668,7.545,7.545,0,0,0,1.359.41l-.617.7a8.853,8.853,0,0,1-1.164-.406,9.65,9.65,0,0,1-1.145-.582,11.969,11.969,0,0,1-1.078-.723,9.609,9.609,0,0,1-.961-.824,7.473,7.473,0,0,1-.781-.895A5.092,5.092,0,0,1,96.28-10.125Zm24.855-1.312h-8.5V-9.1h8.328v.766h-8.328V-5.93h8.75v.789h-4.5V-1.7h6.5v.789H109.479V-1.7h6.5V-5.141h-4.25v-7.086h9.406Zm15.8,12.844V-8.008H132.12v-.781h4.813v-4.875h.906V1.406Zm-1.68-4.789a4.665,4.665,0,0,1-.527.1q-.324.047-.687.086t-.734.066q-.371.027-.66.035-.32.016-.828.027t-1.23.016l-1.676.008q-.953,0-2.164,0v-9.422h.906v8.633h3.383q1.5,0,2.516-.086a11.208,11.208,0,0,0,1.57-.219ZM144.651.9V-3.727h.906V.109h8.734V.9Zm3.938-12.773H143.62v5.523h4.969Zm-5.859,6.3v-7.07h6.75v3.133h3.492v-4.148h.906V-2.828h-.906V-8.734h-3.492v3.156Zm28.656,3.734v.789H157.479v-.789ZM159.729-4.984v-7.242h9.406v.789h-8.5v2.414h8.328v.766h-8.328v2.484h8.75v.789Z" transform="translate(1045 2237)"/>
    <path id="Path_4119" data-name="Path 4119" class="cls-7" d="M12.7-6.75V1.406h-.906v-15.07H12.7v6.141h2.6v.773ZM8.141-7.664H2.828v4.117H8.141Zm-6.2,4.891V-12.5h.891v4.07H8.141V-12.5h.891v9.727Zm21.6,1.266V-5.016H17.047V-5.8H30.953v.789H24.43v3.508ZM19.367.891v-4.3h.906V.1h8.719V.891ZM24-12.578a7.1,7.1,0,0,0-1.625.168,4.092,4.092,0,0,0-1.191.461,2.146,2.146,0,0,0-.73.7,1.64,1.64,0,0,0-.25.875,1.64,1.64,0,0,0,.25.875,2.146,2.146,0,0,0,.73.7,4.092,4.092,0,0,0,1.191.461A7.1,7.1,0,0,0,24-8.172a7.1,7.1,0,0,0,1.625-.168A4.092,4.092,0,0,0,26.816-8.8a2.146,2.146,0,0,0,.73-.7,1.64,1.64,0,0,0,.25-.875,1.64,1.64,0,0,0-.25-.875,2.146,2.146,0,0,0-.73-.7,4.092,4.092,0,0,0-1.191-.461A7.1,7.1,0,0,0,24-12.578ZM24-7.43a8.465,8.465,0,0,1-1.9-.2,4.989,4.989,0,0,1-1.484-.578,2.891,2.891,0,0,1-.965-.926,2.285,2.285,0,0,1-.344-1.242,2.252,2.252,0,0,1,.348-1.234,2.965,2.965,0,0,1,.969-.93,4.922,4.922,0,0,1,1.484-.582A8.427,8.427,0,0,1,24-13.32a8.271,8.271,0,0,1,1.895.2,5.062,5.062,0,0,1,1.484.582,2.929,2.929,0,0,1,.969.926,2.252,2.252,0,0,1,.348,1.234,2.285,2.285,0,0,1-.344,1.242,2.891,2.891,0,0,1-.965.926,4.989,4.989,0,0,1-1.484.578A8.465,8.465,0,0,1,24-7.43ZM44.492,1.406v-15.07H45.4V1.406Zm-1.82-4.023q-.594.07-1.273.117t-1.391.063q-.75.016-2.129.027T34.594-2.4V-12.406H41.82v.789H35.5v3.7h5.563v.75H35.5V-3.18q1.414,0,2.543-.016t2-.043q.875-.027,1.508-.066T42.609-3.4ZM54.636-12.2H65.652v.789H54.636Zm8.641,6.164h2.562v.789H54.449v-.789h2.523l-.2-4.336h.891l.2,4.336h4.523l.258-4.336h.883Zm-10.086,5v-.789H67.1v.789ZM71.277-8.9h8.75v-2.656H71.308v-.773h9.625v4.188h-8.75v2.773h9.2v.773H76.6v2.953h6.5v.789H69.191v-.789h6.5V-4.594H71.277ZM85.191-1.625v-.789h10.25q.164-1.273.254-2.574t.09-2.637v-3.789H87.292V-12.2H96.7v4.109q0,1.172-.086,2.566t-.281,3.113H99.1v.789ZM113-4.852V-8.734h-2.039v3.883h-.9v-8.5h.9v3.82H113v-4.133h.914v8.813Zm.023,1.57h-7.609V.211h7.609Zm-8.5,4.266V-4.055h9.391V.984Zm4.352-7.023a5.642,5.642,0,0,1-.605.121q-.34.051-.7.086t-.719.055q-.355.02-.66.027l-.383.012q-.172,0-.363.012t-.437.012l-.613.008q-.367,0-.891,0h-1.258v-4.07h4.719v-2.453h-4.719v-.766h5.625v3.969h-4.719v2.555h1.043q.441,0,.762,0l.551-.008.422-.008q.191,0,.359-.012l.371-.016q.266-.008.547-.031t.555-.051q.273-.027.527-.07t.457-.09Z" transform="translate(1045 2306)"/>
    <path id="Path_4121" data-name="Path 4121" class="cls-7" d="M11.492-4.289q.078-.609.133-1.145t.086-1.039q.031-.5.047-1t.016-1.016v-2.93H3.055V-12.2H12.68v3.367a36.458,36.458,0,0,1-.3,4.641ZM1.047-1.352v-.789H6.672V-7.086h.906v4.945h7.375v.789ZM19.242.922V-3.422h.906V.133h8.844V.922Zm4.406-2.859V-5.086h-6.6v-.773H30.953v.773h-6.4v3.148Zm4.078-10.4H20.273v3.688h7.453ZM19.383-7.883V-13.1h9.234v5.219ZM35.664.93V-3.883h.906V.141h8.641V.93Zm9.109-9.016v5.414h-.906V-13.664h.906v4.789h2.258v.789ZM41.742-6.023q-1.211.109-3.1.152t-4.547.043v-6.906h6.945v.781H35v5.344q2.344,0,4.043-.043t2.645-.121Z" transform="translate(1045 2373)"/>
    <path id="Path_4116" data-name="Path 4116" class="cls-7" d="M4.8-2.422A2.693,2.693,0,0,1,3.57-2.715a2.729,2.729,0,0,1-1.008-.918,4.955,4.955,0,0,1-.676-1.594,9.529,9.529,0,0,1-.246-2.32,9.481,9.481,0,0,1,.246-2.316,4.907,4.907,0,0,1,.676-1.586,2.739,2.739,0,0,1,1.008-.914A2.693,2.693,0,0,1,4.8-12.656a2.773,2.773,0,0,1,.844.129,2.42,2.42,0,0,1,.758.4,3.064,3.064,0,0,1,.641.7,4.261,4.261,0,0,1,.492,1h2.617v-2.922h.9V1.242h-.9v-5.93H7.547a4.387,4.387,0,0,1-.492,1.016,3.032,3.032,0,0,1-.645.707,2.491,2.491,0,0,1-.762.41A2.7,2.7,0,0,1,4.8-2.422Zm0-9.477a1.707,1.707,0,0,0-.9.254,2.156,2.156,0,0,0-.727.785,4.63,4.63,0,0,0-.484,1.352,9.485,9.485,0,0,0-.176,1.961,9.6,9.6,0,0,0,.176,1.969,4.631,4.631,0,0,0,.484,1.359,2.156,2.156,0,0,0,.727.785,1.707,1.707,0,0,0,.9.254A1.674,1.674,0,0,0,5.7-3.434a2.17,2.17,0,0,0,.723-.785A4.631,4.631,0,0,0,6.9-5.578a9.6,9.6,0,0,0,.176-1.969A9.485,9.485,0,0,0,6.9-9.508a4.63,4.63,0,0,0-.484-1.352,2.17,2.17,0,0,0-.723-.785A1.674,1.674,0,0,0,4.8-11.9Zm8.1,13.3v-15.07h.906V1.406ZM7.75-9.664a9.9,9.9,0,0,1,.2,2.117q0,.6-.051,1.121a8.019,8.019,0,0,1-.152.973h2.406V-9.664ZM28.469,1.406v-15.07h.906V1.406Zm-4.18-9.172H18.953v4.289h5.336ZM18.063-2.711V-12.5h.891v3.969h5.313V-12.5h.914v9.789ZM48.574,1.406v-15.07h.906V1.406ZM45.183-12.281a11.188,11.188,0,0,1-.574,3.176,10.988,10.988,0,0,1-1.375,2.727,12.4,12.4,0,0,1-2.074,2.3A16.6,16.6,0,0,1,38.488-2.2l-.758-.7a13.875,13.875,0,0,0,2.391-1.473A11.347,11.347,0,0,0,42.1-6.309a10.377,10.377,0,0,0,1.422-2.379,9.539,9.539,0,0,0,.715-2.812H38.269v-.781ZM64.808-4.406V.953H55.48V-4.406Zm-.891.773H56.371V.18h7.547Zm1.031-9.461q0,.727-.012,1.523t-.031,1.555q-.02.758-.051,1.422t-.07,1.125H67.1v.789H53.191v-.789H63.91q.031-.43.055-1.031T64-9.758q.016-.656.023-1.32t.008-1.227H55.542v-.789Z" transform="translate(828 2373)"/>
    <path id="Path_4113" data-name="Path 4113" class="cls-7" d="M2.492-12.2H13.508v.789H2.492Zm8.641,6.164H13.7v.789H2.3v-.789H4.828l-.2-4.336h.891l.2,4.336H10.25l.258-4.336h.883Zm-10.086,5v-.789H14.953v.789ZM19.133-8.9h8.75v-2.656H19.164v-.773h9.625v4.188h-8.75v2.773h9.2v.773H24.453v2.953h6.5v.789H17.047v-.789h6.5V-4.594H19.133Zm25.75,3.883v-8.648h.906v8.648Zm-2.742,0V-9.422H39.625V-10.2h2.516v-3.156h.9v8.336Zm2.742,6.422V-3.437H35.977v-.789h9.813V1.406ZM39.922-6.055a5.925,5.925,0,0,1-.883-.621,8.336,8.336,0,0,1-.859-.832,7.875,7.875,0,0,1-.73-.949,4.631,4.631,0,0,1-.5-.98,5.08,5.08,0,0,1-.484,1.086A7.694,7.694,0,0,1,35.73-7.3a8.854,8.854,0,0,1-.895.926,7.84,7.84,0,0,1-.945.73l-.7-.6a7.1,7.1,0,0,0,1.289-.941,6.71,6.71,0,0,0,1.047-1.215,5.983,5.983,0,0,0,.7-1.43,4.96,4.96,0,0,0,.258-1.594v-.687h-2.82v-.789h6.555v.789H37.367v.688a4.165,4.165,0,0,0,.262,1.441,5.882,5.882,0,0,0,.7,1.348,6.194,6.194,0,0,0,1.016,1.133,5.007,5.007,0,0,0,1.207.789ZM62.953-1.844v.789H49.047v-.789ZM51.3-4.984v-7.242H60.7v.789H52.2v2.414h8.328v.766H52.2v2.484h8.75v.789Zm21.23,6.023V-4.172h9.148V1.039Zm8.258-4.453H73.417v3.7h7.367ZM78.714-6.2q-1.43.094-3.375.141T70.9-6.008v-6.914h7.125v.766H71.808v2.266h5.484v.758H71.808v2.359q2.445,0,4.133-.043t2.719-.129Zm2.055,1.242v-8.711h.906v8.711Z" transform="translate(828 2304)"/>
    <path id="Path_4112" data-name="Path 4112" class="cls-7" d="M1.047-1.516V-2.3h10.3q.156-1.172.242-2.418t.1-2.48l-9.227.477-.2-.844,9.422-.406v-3.437H3.039V-12.2H12.6v4.109q0,1.18-.082,2.621T12.234-2.3h2.719v.789ZM28.7-6.422V1.406h-.906v-15.07H28.7v6.453h2.6v.789ZM18.031-7.6h5.641v-3.9H18.031v-.773h6.547v5.43H18.938v4.031q2.727,0,4.48-.082a20.5,20.5,0,0,0,2.621-.246l.1.766q-.555.086-1.324.152t-1.77.105q-1,.039-2.25.059t-2.766.02Zm22.43,3.234V1.406h-.906V-4.367H33.047v-.789H46.953v.789ZM40-12.664a6.908,6.908,0,0,0-1.723.191,4.143,4.143,0,0,0-1.238.52,2.265,2.265,0,0,0-.75.77,1.9,1.9,0,0,0-.25.949,1.873,1.873,0,0,0,.25.945,2.246,2.246,0,0,0,.75.762,4.138,4.138,0,0,0,1.242.512A7.056,7.056,0,0,0,40-7.828a7.1,7.1,0,0,0,1.723-.187,4.189,4.189,0,0,0,1.25-.512,2.311,2.311,0,0,0,.762-.762,1.83,1.83,0,0,0,.258-.945,1.879,1.879,0,0,0-.254-.945,2.278,2.278,0,0,0-.758-.773,4.191,4.191,0,0,0-1.25-.52A7,7,0,0,0,40-12.664Zm0,5.586a8.454,8.454,0,0,1-1.9-.2,5.188,5.188,0,0,1-1.539-.6,3.143,3.143,0,0,1-1.035-.988,2.467,2.467,0,0,1-.379-1.363,2.481,2.481,0,0,1,.383-1.375,3.2,3.2,0,0,1,1.039-1,5.122,5.122,0,0,1,1.539-.605,8.417,8.417,0,0,1,1.891-.2,8.44,8.44,0,0,1,1.914.207,5.241,5.241,0,0,1,1.551.609,3.153,3.153,0,0,1,1.039,1,2.486,2.486,0,0,1,.379,1.367A2.462,2.462,0,0,1,44.5-8.863a3.17,3.17,0,0,1-1.043.988,5.163,5.163,0,0,1-1.551.6A8.719,8.719,0,0,1,40-7.078Zm9.047,5.8v-.789H62.953v.789ZM60.6-11.437H52.3v5.086h8.547v.789H51.4v-6.664h9.2ZM71.808.828V-3.766h.906v3.8h8.641V.828Zm9.117-8.773v5.234h-.906V-13.664h.906v4.922h2.25v.8ZM69.8-11.891v-.789h8.063v.789Zm8.961,6.125a14.641,14.641,0,0,1-2.594.188H69.378v-.789h2.07l-.164-4.453h.875l.164,4.453h3.008L75.5-10.82h.852l-.18,4.453q.781,0,1.422-.035a7.536,7.536,0,0,0,1.063-.121Zm18.273,7.18V-6.625H94.925V.938h-.891V-13.352h.891v5.938H97.05v-6.25h.9V1.414ZM91.05-11.523H86.933v7.688H91.05ZM86.042-3.07v-9.219h5.9V-3.07Z" transform="translate(828 2235)"/>
    <g id="Group_1550" data-name="Group 1550" transform="translate(-156 -81)">
      <g id="Group_1572" data-name="Group 1572" transform="translate(546.755 2183.755)">
        <path id="Path_3895" data-name="Path 3895" class="cls-1" d="M143.5,330.489A165.245,165.245,0,1,0,143.5,0c-2.555,0-5.111,0-7.666.17V165.245L30.9,286.2a164.68,164.68,0,0,0,112.6,44.292" transform="translate(21.74)"/>
        <path id="Path_3896" data-name="Path 3896" class="cls-3" d="M.8,118.194a164.519,164.519,0,0,0,51.277,99.658L157.016,96.9Z" transform="translate(0.563 68.174)"/>
        <path id="Path_3897" data-name="Path 3897" class="cls-2" d="M9.029,65.3A166.271,166.271,0,0,0,0,119.3a171.443,171.443,0,0,0,1.363,21.124L157.579,119.3Z" transform="translate(0 45.942)"/>
        <path id="Path_3898" data-name="Path 3898" class="cls-4" d="M41.075,30.87l-.17-.17A165.233,165.233,0,0,0,5.3,89.643l148.55,54Z" transform="translate(3.729 21.599)"/>
        <path id="Path_3899" data-name="Path 3899" class="cls-5" d="M50.8,19.861l5.111,10.392,65.928,134.921V.1A163.9,163.9,0,0,0,50.8,19.861Z" transform="translate(35.74 0.07)"/>
        <path id="Path_3900" data-name="Path 3900" class="cls-1" d="M27.222,30A7.409,7.409,0,0,0,26.2,31.192l.17.17Z" transform="translate(18.433 21.107)"/>
        <path id="Path_3901" data-name="Path 3901" class="cls-6" d="M73.048,22.092,67.937,11.7A165.729,165.729,0,0,0,27.052,42.875L26.2,44.238,139.146,157.013Z" transform="translate(18.433 8.232)"/>
      </g>
      <path id="Path_3902" data-name="Path 3902" class="cls-8" d="M145.681,0A145.681,145.681,0,1,1,0,145.681,145.681,145.681,0,0,1,145.681,0Z" transform="translate(565.99 2202.99)"/>
      <path id="Path_4110" data-name="Path 4110" class="cls-9" d="M-42.754-22.875h-17V-18.2H-43.1v1.531H-59.754v4.813h17.5v1.578h-9v6.891h13v1.578H-66.066V-3.391h13v-6.891h-8.5V-24.453h18.813Zm32.2-3.156q0,.953-.016,2.117t-.039,2.414q-.023,1.25-.062,2.531t-.086,2.453q-.047,1.172-.1,2.172t-.1,1.7h4.7v1.578H-34.066v-1.578h21.328q.078-1,.148-2.516t.117-3.219l-17.672.844-.391-1.641,18.094-.641q.031-1.234.047-2.422t.016-2.219H-29.363v-1.578ZM-29.488,1.7V-7.672h1.813v7.8h17.5V1.7ZM13.785,2.781V-8.578H6.254v-1.578H34.066v1.578H26.535V2.781H24.722V-8.578H15.6V2.781ZM20.16-25.328a13.815,13.815,0,0,0-3.445.383,8.285,8.285,0,0,0-2.477,1.039,4.53,4.53,0,0,0-1.5,1.539,3.79,3.79,0,0,0-.5,1.9,3.747,3.747,0,0,0,.5,1.891,4.492,4.492,0,0,0,1.5,1.523,8.276,8.276,0,0,0,2.484,1.023,14.113,14.113,0,0,0,3.438.375,14.21,14.21,0,0,0,3.445-.375,8.379,8.379,0,0,0,2.5-1.023,4.622,4.622,0,0,0,1.523-1.523,3.66,3.66,0,0,0,.516-1.891,3.758,3.758,0,0,0-.508-1.891,4.557,4.557,0,0,0-1.516-1.547,8.382,8.382,0,0,0-2.5-1.039A14.005,14.005,0,0,0,20.16-25.328Zm0,11.172a16.908,16.908,0,0,1-3.8-.406,10.376,10.376,0,0,1-3.078-1.2,6.287,6.287,0,0,1-2.07-1.977,4.934,4.934,0,0,1-.758-2.727,4.962,4.962,0,0,1,.766-2.75A6.407,6.407,0,0,1,13.3-25.211a10.243,10.243,0,0,1,3.078-1.211,16.835,16.835,0,0,1,3.781-.406,16.881,16.881,0,0,1,3.828.414,10.482,10.482,0,0,1,3.1,1.219A6.305,6.305,0,0,1,29.168-23.2a4.972,4.972,0,0,1,.758,2.734,4.924,4.924,0,0,1-.766,2.742,6.341,6.341,0,0,1-2.086,1.977,10.325,10.325,0,0,1-3.1,1.2A17.439,17.439,0,0,1,20.16-14.156Zm32,8.188a14.479,14.479,0,0,0-5.859.93,2.9,2.9,0,0,0-2.016,2.633A2.9,2.9,0,0,0,46.3.227a14.479,14.479,0,0,0,5.859.93,14.479,14.479,0,0,0,5.859-.93,2.9,2.9,0,0,0,2.016-2.633,2.9,2.9,0,0,0-2.016-2.633A14.479,14.479,0,0,0,52.16-5.969Zm0,8.609A23.216,23.216,0,0,1,47.98,2.3a10.974,10.974,0,0,1-3.055-.977A4.891,4.891,0,0,1,43.058-.258a3.773,3.773,0,0,1-.633-2.148,4.078,4.078,0,0,1,2.469-3.734A15.893,15.893,0,0,1,52.16-7.453a15.893,15.893,0,0,1,7.266,1.313,4.078,4.078,0,0,1,2.469,3.734,3.773,3.773,0,0,1-.633,2.148,4.892,4.892,0,0,1-1.867,1.586A10.974,10.974,0,0,1,56.34,2.3,23.216,23.216,0,0,1,52.16,2.641ZM38.254-10v-1.516H51.269v-3.844H42.926V-26.578H61.394v1.516H44.738v3.25H61.019v1.484H44.738v3.453H61.707v1.516H53.082v3.844H66.066V-10Z" transform="translate(707.956 2361.971)"/>
    </g>
  </g>
</svg>
