<svg xmlns="http://www.w3.org/2000/svg" viewBox="0 0 847.413 330.489">
  <defs>
    <style>
      .cls-1 {
        fill: #352c6d;
      }

      .cls-2 {
        fill: #8284e5;
      }

      .cls-3 {
        fill: #8de1fe;
      }

      .cls-4 {
        fill: #fe7275;
      }

      .cls-5 {
        fill: #dedefc;
      }

      .cls-6 {
        fill: #ffcb73;
      }

      .cls-7 {
        fill: #172143;
      }

      .cls-8 {
        fill: #fff;
      }

      .cls-9 {
        fill: #343150;
      }
    </style>
  </defs>
  <g id="tokens_distribution" data-name="tokens distribution" transform="translate(-390.755 -2102.755)">
    <circle id="Ellipse_490" data-name="Ellipse 490" class="cls-1" cx="7.5" cy="7.5" r="7.5" transform="translate(797 2200)"/>
    <circle id="Ellipse_495" data-name="Ellipse 495" class="cls-2" cx="7.5" cy="7.5" r="7.5" transform="translate(1014 2202)"/>
    <circle id="Ellipse_501" data-name="Ellipse 501" class="cls-3" cx="7.5" cy="7.5" r="7.5" transform="translate(797 2269)"/>
    <circle id="Ellipse_507" data-name="Ellipse 507" class="cls-4" cx="7.5" cy="7.5" r="7.5" transform="translate(1014 2269)"/>
    <circle id="Ellipse_592" data-name="Ellipse 592" class="cls-5" cx="7.5" cy="7.5" r="7.5" transform="translate(1014 2336)"/>
    <circle id="Ellipse_529" data-name="Ellipse 529" class="cls-6" cx="7.5" cy="7.5" r="7.5" transform="translate(797 2336)"/>
    <path id="Path_3904" data-name="Path 3904" class="cls-7" d="M4.686,0H2.662L8.58-13.046H.682v-1.628h10.01v1.254ZM18.062.264A4.86,4.86,0,0,1,15.5-.407,4.969,4.969,0,0,1,13.739-2.2a9.183,9.183,0,0,1-.968-2.42,11.3,11.3,0,0,1-.319-2.706,11.3,11.3,0,0,1,.319-2.706,9.011,9.011,0,0,1,.968-2.409,5,5,0,0,1,1.76-1.782,4.86,4.86,0,0,1,2.563-.671,4.875,4.875,0,0,1,2.552.671,4.969,4.969,0,0,1,1.771,1.782,9.011,9.011,0,0,1,.968,2.409,11.3,11.3,0,0,1,.319,2.706,11.3,11.3,0,0,1-.319,2.706,9.183,9.183,0,0,1-.968,2.42A4.941,4.941,0,0,1,20.614-.407,4.875,4.875,0,0,1,18.062.264Zm-2.2-2.541a2.929,2.929,0,0,0,2.2.913,2.93,2.93,0,0,0,2.2-.913,4.843,4.843,0,0,0,1.21-2.189,11.434,11.434,0,0,0,.33-2.86,11.434,11.434,0,0,0-.33-2.86,4.768,4.768,0,0,0-1.21-2.178,2.947,2.947,0,0,0-2.2-.9,2.947,2.947,0,0,0-2.2.9,4.768,4.768,0,0,0-1.21,2.178,11.433,11.433,0,0,0-.33,2.86,11.433,11.433,0,0,0,.33,2.86A4.843,4.843,0,0,0,15.862-2.277Zm15.7-6.4A3.431,3.431,0,0,1,29-7.656a3.359,3.359,0,0,1-2.541-1.023,3.56,3.56,0,0,1-.979-2.563,3.643,3.643,0,0,1,.99-2.607A3.332,3.332,0,0,1,29-14.894a3.394,3.394,0,0,1,2.563,1.045,3.62,3.62,0,0,1,1,2.607A3.517,3.517,0,0,1,31.559-8.679ZM28.8,0H27.61l9.372-14.674h1.21ZM39.2-.759A3.4,3.4,0,0,1,36.652.264,3.359,3.359,0,0,1,34.111-.759a3.56,3.56,0,0,1-.979-2.563,3.643,3.643,0,0,1,.99-2.607,3.332,3.332,0,0,1,2.53-1.045A3.358,3.358,0,0,1,39.2-5.929a3.643,3.643,0,0,1,.99,2.607A3.538,3.538,0,0,1,39.2-.759ZM27.412-9.471A2,2,0,0,0,29-8.756,2.061,2.061,0,0,0,30.6-9.471a2.563,2.563,0,0,0,.638-1.771,2.652,2.652,0,0,0-.627-1.815A2.052,2.052,0,0,0,29-13.772a2,2,0,0,0-1.584.715,2.682,2.682,0,0,0-.616,1.815A2.618,2.618,0,0,0,27.412-9.471Zm7.645,7.92a2.028,2.028,0,0,0,1.6.715,2.061,2.061,0,0,0,1.606-.715A2.563,2.563,0,0,0,38.9-3.322a2.652,2.652,0,0,0-.627-1.815,2.052,2.052,0,0,0-1.617-.715,2.019,2.019,0,0,0-1.606.715,2.682,2.682,0,0,0-.616,1.815A2.59,2.59,0,0,0,35.057-1.551Z" transform="translate(828 2215)"/>
    <path id="Path_3910" data-name="Path 3910" class="cls-7" d="M6.622.264A6.088,6.088,0,0,1,1.452-2.09L2.574-3.3A4.884,4.884,0,0,0,6.622-1.364a3.394,3.394,0,0,0,2.442-.9A2.974,2.974,0,0,0,10.01-4.51a2.99,2.99,0,0,0-.935-2.3,3.428,3.428,0,0,0-2.431-.869A4.656,4.656,0,0,0,3.256-6.292L1.914-6.754v-7.92H10.89v1.628H3.74v5.1a4.643,4.643,0,0,1,3.432-1.32A4.679,4.679,0,0,1,10.472-8a4.439,4.439,0,0,1,1.364,3.421,4.493,4.493,0,0,1-1.474,3.52A5.4,5.4,0,0,1,6.622.264ZM19.745-8.679a3.431,3.431,0,0,1-2.563,1.023,3.359,3.359,0,0,1-2.541-1.023,3.56,3.56,0,0,1-.979-2.563,3.643,3.643,0,0,1,.99-2.607,3.332,3.332,0,0,1,2.53-1.045,3.394,3.394,0,0,1,2.563,1.045,3.62,3.62,0,0,1,1,2.607A3.517,3.517,0,0,1,19.745-8.679ZM16.984,0H15.8l9.372-14.674h1.21ZM27.39-.759A3.4,3.4,0,0,1,24.838.264,3.359,3.359,0,0,1,22.3-.759a3.56,3.56,0,0,1-.979-2.563,3.643,3.643,0,0,1,.99-2.607,3.332,3.332,0,0,1,2.53-1.045A3.358,3.358,0,0,1,27.39-5.929a3.643,3.643,0,0,1,.99,2.607A3.538,3.538,0,0,1,27.39-.759ZM15.6-9.471a2,2,0,0,0,1.584.715,2.061,2.061,0,0,0,1.606-.715,2.563,2.563,0,0,0,.638-1.771,2.652,2.652,0,0,0-.627-1.815,2.052,2.052,0,0,0-1.617-.715,2,2,0,0,0-1.584.715,2.682,2.682,0,0,0-.616,1.815A2.618,2.618,0,0,0,15.6-9.471Zm7.645,7.92a2.028,2.028,0,0,0,1.6.715,2.061,2.061,0,0,0,1.606-.715,2.563,2.563,0,0,0,.638-1.771,2.652,2.652,0,0,0-.627-1.815,2.052,2.052,0,0,0-1.617-.715,2.019,2.019,0,0,0-1.606.715,2.682,2.682,0,0,0-.616,1.815A2.59,2.59,0,0,0,23.243-1.551Z" transform="translate(1045 2215)"/>
    <path id="Path_3906" data-name="Path 3906" class="cls-7" d="M5.742,0H3.916V-12.254L1.562-9.768.462-10.89l3.674-3.784H5.742Zm12.98,0H8.646V-1.452q2.288-1.8,3.553-2.871t2.442-2.266A9.423,9.423,0,0,0,16.3-8.723a4.016,4.016,0,0,0,.484-1.859,2.354,2.354,0,0,0-.9-2,3.472,3.472,0,0,0-2.156-.682,4.788,4.788,0,0,0-3.982,1.848L8.624-12.584a5.522,5.522,0,0,1,2.189-1.7,7.059,7.059,0,0,1,2.915-.605,5.529,5.529,0,0,1,3.465,1.122,3.783,3.783,0,0,1,1.463,3.19A6.263,6.263,0,0,1,16.9-6.5a39.965,39.965,0,0,1-5.368,4.873h7.194Zm8.437-8.679A3.431,3.431,0,0,1,24.6-7.656a3.359,3.359,0,0,1-2.541-1.023,3.56,3.56,0,0,1-.979-2.563,3.643,3.643,0,0,1,.99-2.607,3.332,3.332,0,0,1,2.53-1.045,3.394,3.394,0,0,1,2.563,1.045,3.62,3.62,0,0,1,1,2.607A3.517,3.517,0,0,1,27.159-8.679ZM24.4,0H23.21l9.372-14.674h1.21ZM34.8-.759A3.4,3.4,0,0,1,32.252.264,3.359,3.359,0,0,1,29.711-.759a3.56,3.56,0,0,1-.979-2.563,3.643,3.643,0,0,1,.99-2.607,3.332,3.332,0,0,1,2.53-1.045A3.358,3.358,0,0,1,34.8-5.929a3.643,3.643,0,0,1,.99,2.607A3.538,3.538,0,0,1,34.8-.759ZM23.012-9.471a2,2,0,0,0,1.584.715A2.061,2.061,0,0,0,26.2-9.471a2.563,2.563,0,0,0,.638-1.771,2.652,2.652,0,0,0-.627-1.815,2.052,2.052,0,0,0-1.617-.715,2,2,0,0,0-1.584.715,2.682,2.682,0,0,0-.616,1.815A2.618,2.618,0,0,0,23.012-9.471Zm7.645,7.92a2.028,2.028,0,0,0,1.6.715,2.061,2.061,0,0,0,1.606-.715A2.563,2.563,0,0,0,34.5-3.322a2.652,2.652,0,0,0-.627-1.815,2.052,2.052,0,0,0-1.617-.715,2.019,2.019,0,0,0-1.606.715,2.682,2.682,0,0,0-.616,1.815A2.59,2.59,0,0,0,30.657-1.551Z" transform="translate(828 2282)"/>
    <path id="Path_3912" data-name="Path 3912" class="cls-7" d="M5.852.264A6.894,6.894,0,0,1,2.728-.418,5.388,5.388,0,0,1,.638-2.156L1.716-3.3A4.726,4.726,0,0,0,3.454-1.892a5.279,5.279,0,0,0,2.354.528A3.9,3.9,0,0,0,8.327-2.1,2.448,2.448,0,0,0,9.24-4.114a2.174,2.174,0,0,0-.979-1.958A4.853,4.853,0,0,0,5.588-6.71q-1.3,0-1.518.022V-8.36q.242.022,1.518.022a4.52,4.52,0,0,0,2.453-.6A2.005,2.005,0,0,0,9-10.758,2.14,2.14,0,0,0,8.063-12.6a3.916,3.916,0,0,0-2.343-.671,5.118,5.118,0,0,0-3.872,1.782L.836-12.628a6.169,6.169,0,0,1,5.016-2.266,5.808,5.808,0,0,1,3.575,1.045,3.389,3.389,0,0,1,1.4,2.871,2.966,2.966,0,0,1-.968,2.321,4.4,4.4,0,0,1-2.2,1.089,4.043,4.043,0,0,1,2.3,1.056A3.208,3.208,0,0,1,11.044-3.96,3.787,3.787,0,0,1,9.636-.913,5.712,5.712,0,0,1,5.852.264ZM19.019-8.679a3.431,3.431,0,0,1-2.563,1.023,3.359,3.359,0,0,1-2.541-1.023,3.56,3.56,0,0,1-.979-2.563,3.643,3.643,0,0,1,.99-2.607,3.332,3.332,0,0,1,2.53-1.045,3.394,3.394,0,0,1,2.563,1.045,3.62,3.62,0,0,1,1,2.607A3.517,3.517,0,0,1,19.019-8.679ZM16.258,0H15.07l9.372-14.674h1.21ZM26.664-.759A3.4,3.4,0,0,1,24.112.264,3.359,3.359,0,0,1,21.571-.759a3.56,3.56,0,0,1-.979-2.563,3.643,3.643,0,0,1,.99-2.607,3.332,3.332,0,0,1,2.53-1.045,3.358,3.358,0,0,1,2.552,1.045,3.643,3.643,0,0,1,.99,2.607A3.538,3.538,0,0,1,26.664-.759ZM14.872-9.471a2,2,0,0,0,1.584.715,2.061,2.061,0,0,0,1.606-.715,2.563,2.563,0,0,0,.638-1.771,2.652,2.652,0,0,0-.627-1.815,2.052,2.052,0,0,0-1.617-.715,2,2,0,0,0-1.584.715,2.682,2.682,0,0,0-.616,1.815A2.618,2.618,0,0,0,14.872-9.471Zm7.645,7.92a2.028,2.028,0,0,0,1.595.715,2.061,2.061,0,0,0,1.606-.715,2.563,2.563,0,0,0,.638-1.771,2.652,2.652,0,0,0-.627-1.815,2.052,2.052,0,0,0-1.617-.715,2.019,2.019,0,0,0-1.606.715,2.682,2.682,0,0,0-.616,1.815A2.59,2.59,0,0,0,22.517-1.551Z" transform="translate(1045 2284)"/>
    <path id="Path_3914" data-name="Path 3914" class="cls-7" d="M5.852.264A6.894,6.894,0,0,1,2.728-.418,5.388,5.388,0,0,1,.638-2.156L1.716-3.3A4.726,4.726,0,0,0,3.454-1.892a5.279,5.279,0,0,0,2.354.528A3.9,3.9,0,0,0,8.327-2.1,2.448,2.448,0,0,0,9.24-4.114a2.174,2.174,0,0,0-.979-1.958A4.853,4.853,0,0,0,5.588-6.71q-1.3,0-1.518.022V-8.36q.242.022,1.518.022a4.52,4.52,0,0,0,2.453-.6A2.005,2.005,0,0,0,9-10.758,2.14,2.14,0,0,0,8.063-12.6a3.916,3.916,0,0,0-2.343-.671,5.118,5.118,0,0,0-3.872,1.782L.836-12.628a6.169,6.169,0,0,1,5.016-2.266,5.808,5.808,0,0,1,3.575,1.045,3.389,3.389,0,0,1,1.4,2.871,2.966,2.966,0,0,1-.968,2.321,4.4,4.4,0,0,1-2.2,1.089,4.043,4.043,0,0,1,2.3,1.056A3.208,3.208,0,0,1,11.044-3.96,3.787,3.787,0,0,1,9.636-.913,5.712,5.712,0,0,1,5.852.264ZM19.019-8.679a3.431,3.431,0,0,1-2.563,1.023,3.359,3.359,0,0,1-2.541-1.023,3.56,3.56,0,0,1-.979-2.563,3.643,3.643,0,0,1,.99-2.607,3.332,3.332,0,0,1,2.53-1.045,3.394,3.394,0,0,1,2.563,1.045,3.62,3.62,0,0,1,1,2.607A3.517,3.517,0,0,1,19.019-8.679ZM16.258,0H15.07l9.372-14.674h1.21ZM26.664-.759A3.4,3.4,0,0,1,24.112.264,3.359,3.359,0,0,1,21.571-.759a3.56,3.56,0,0,1-.979-2.563,3.643,3.643,0,0,1,.99-2.607,3.332,3.332,0,0,1,2.53-1.045,3.358,3.358,0,0,1,2.552,1.045,3.643,3.643,0,0,1,.99,2.607A3.538,3.538,0,0,1,26.664-.759ZM14.872-9.471a2,2,0,0,0,1.584.715,2.061,2.061,0,0,0,1.606-.715,2.563,2.563,0,0,0,.638-1.771,2.652,2.652,0,0,0-.627-1.815,2.052,2.052,0,0,0-1.617-.715,2,2,0,0,0-1.584.715,2.682,2.682,0,0,0-.616,1.815A2.618,2.618,0,0,0,14.872-9.471Zm7.645,7.92a2.028,2.028,0,0,0,1.595.715,2.061,2.061,0,0,0,1.606-.715,2.563,2.563,0,0,0,.638-1.771,2.652,2.652,0,0,0-.627-1.815,2.052,2.052,0,0,0-1.617-.715,2.019,2.019,0,0,0-1.606.715,2.682,2.682,0,0,0-.616,1.815A2.59,2.59,0,0,0,22.517-1.551Z" transform="translate(1045 2351)"/>
    <path id="Path_3908" data-name="Path 3908" class="cls-7" d="M4.686,0H2.662L8.58-13.046H.682v-1.628h10.01v1.254ZM18.1-8.679a3.431,3.431,0,0,1-2.563,1.023,3.359,3.359,0,0,1-2.541-1.023,3.56,3.56,0,0,1-.979-2.563A3.643,3.643,0,0,1,13-13.849a3.332,3.332,0,0,1,2.53-1.045A3.394,3.394,0,0,1,18.1-13.849a3.62,3.62,0,0,1,1,2.607A3.517,3.517,0,0,1,18.1-8.679ZM15.334,0H14.146l9.372-14.674h1.21ZM25.74-.759A3.4,3.4,0,0,1,23.188.264,3.359,3.359,0,0,1,20.647-.759a3.56,3.56,0,0,1-.979-2.563,3.643,3.643,0,0,1,.99-2.607,3.332,3.332,0,0,1,2.53-1.045A3.358,3.358,0,0,1,25.74-5.929a3.643,3.643,0,0,1,.99,2.607A3.538,3.538,0,0,1,25.74-.759ZM13.948-9.471a2,2,0,0,0,1.584.715,2.061,2.061,0,0,0,1.606-.715,2.563,2.563,0,0,0,.638-1.771,2.652,2.652,0,0,0-.627-1.815,2.052,2.052,0,0,0-1.617-.715,2,2,0,0,0-1.584.715,2.682,2.682,0,0,0-.616,1.815A2.618,2.618,0,0,0,13.948-9.471Zm7.645,7.92a2.028,2.028,0,0,0,1.595.715,2.061,2.061,0,0,0,1.606-.715,2.563,2.563,0,0,0,.638-1.771,2.652,2.652,0,0,0-.627-1.815,2.052,2.052,0,0,0-1.617-.715,2.019,2.019,0,0,0-1.606.715,2.682,2.682,0,0,0-.616,1.815A2.59,2.59,0,0,0,21.593-1.551Z" transform="translate(828 2351)"/>
    <path id="Path_3911" data-name="Path 3911" class="cls-7" d="M4.976,0H4.048V-9.84H.56v-.832h7.9v.832H4.976ZM16.368,0h-.832V-5.264a1.9,1.9,0,0,0-.48-1.48,2.04,2.04,0,0,0-1.392-.424,2.945,2.945,0,0,0-1.424.384,3.065,3.065,0,0,0-1.088.944V0H10.32V-10.672h.832V-6.56a4.156,4.156,0,0,1,1.232-.952,3.277,3.277,0,0,1,1.552-.408,2.171,2.171,0,0,1,2.432,2.48Zm6.016.192A3.686,3.686,0,0,1,19.6-.944a4.059,4.059,0,0,1-1.088-2.928,4.126,4.126,0,0,1,1.064-2.872A3.442,3.442,0,0,1,22.24-7.92a3.287,3.287,0,0,1,2.672,1.176,4.419,4.419,0,0,1,.976,2.92V-3.6H19.424a3.354,3.354,0,0,0,.88,2.192,2.787,2.787,0,0,0,2.144.88A3.293,3.293,0,0,0,24.976-1.6l.432.544A4.018,4.018,0,0,1,22.384.192ZM25.04-4.256A3.256,3.256,0,0,0,24.3-6.288,2.5,2.5,0,0,0,22.224-7.2a2.465,2.465,0,0,0-2.008.9,3.359,3.359,0,0,0-.792,2.04ZM33.12,0h-.912V-10.672h6.768v.832H33.12v3.952h5.744v.832H33.12Zm8.144-8.944a.614.614,0,0,1-.448-.192.614.614,0,0,1-.192-.448.588.588,0,0,1,.192-.44.627.627,0,0,1,.448-.184.619.619,0,0,1,.456.184.6.6,0,0,1,.184.44.619.619,0,0,1-.184.456A.619.619,0,0,1,41.264-8.944ZM41.68,0h-.832V-7.728h.832ZM45.1,0h-.832V-7.728H45.1V-6.4a3.257,3.257,0,0,1,2.608-1.488v.912a2.045,2.045,0,0,0-.416-.032,2.344,2.344,0,0,0-1.248.432,2.65,2.65,0,0,0-.944.944Zm6.544.192a3.821,3.821,0,0,1-2.976-1.216l.5-.624a3.044,3.044,0,0,0,1.056.816,3.24,3.24,0,0,0,1.44.32,2.369,2.369,0,0,0,1.5-.44,1.372,1.372,0,0,0,.56-1.128,1.063,1.063,0,0,0-.5-.92,3.606,3.606,0,0,0-1.216-.512Q51.3-3.68,50.576-3.88a2.934,2.934,0,0,1-1.224-.664,1.594,1.594,0,0,1-.5-1.232A1.908,1.908,0,0,1,49.592-7.3,3.052,3.052,0,0,1,51.6-7.92a3.541,3.541,0,0,1,2.768,1.136l-.464.592a2.67,2.67,0,0,0-2.3-1.024,2.274,2.274,0,0,0-1.408.4,1.217,1.217,0,0,0-.528,1.008.932.932,0,0,0,.5.832,4.223,4.223,0,0,0,1.216.472q.712.168,1.432.376a2.76,2.76,0,0,1,1.224.72,1.812,1.812,0,0,1,.5,1.328,2.048,2.048,0,0,1-.752,1.632A3.216,3.216,0,0,1,51.648.192Zm6.72,0q-1.52,0-1.52-1.68v-5.5h-1.28v-.736h1.28V-9.84H57.7v2.112h1.568v.736H57.7v5.376q0,1.056.8,1.056a1.117,1.117,0,0,0,.864-.368l.32.64A1.842,1.842,0,0,1,58.368.192ZM69.744,0h-4.48V-10.672h4.384a3.043,3.043,0,0,1,2.144.736,2.564,2.564,0,0,1,.8,1.984,2.456,2.456,0,0,1-.552,1.624,2.3,2.3,0,0,1-1.32.824,2.279,2.279,0,0,1,1.464.9A2.7,2.7,0,0,1,72.8-2.88a2.766,2.766,0,0,1-.816,2.1A3.118,3.118,0,0,1,69.744,0Zm-.208-5.888A2.087,2.087,0,0,0,71.08-6.44a1.917,1.917,0,0,0,.552-1.416,1.951,1.951,0,0,0-.552-1.416,2.053,2.053,0,0,0-1.544-.568h-3.36v3.952ZM69.6-.832A2.283,2.283,0,0,0,71.248-1.4a2.039,2.039,0,0,0,.592-1.544,2.079,2.079,0,0,0-.592-1.5A2.178,2.178,0,0,0,69.6-5.056H66.176V-.832ZM78.32.192A3.4,3.4,0,0,1,75.632-.976a4.235,4.235,0,0,1-1.024-2.9A4.205,4.205,0,0,1,75.632-6.76,3.413,3.413,0,0,1,78.32-7.92a3.431,3.431,0,0,1,2.7,1.16,4.205,4.205,0,0,1,1.024,2.888,4.235,4.235,0,0,1-1.024,2.9A3.421,3.421,0,0,1,78.32.192Zm0-.752a2.493,2.493,0,0,0,2.072-.968,3.68,3.68,0,0,0,.76-2.344,3.655,3.655,0,0,0-.76-2.328,2.493,2.493,0,0,0-2.072-.968,2.476,2.476,0,0,0-2.056.968,3.655,3.655,0,0,0-.76,2.328,3.688,3.688,0,0,0,.76,2.336A2.468,2.468,0,0,0,78.32-.56ZM90.24,0h-.832V-5.232a1.959,1.959,0,0,0-.48-1.5,1.991,1.991,0,0,0-1.392-.44,2.945,2.945,0,0,0-1.424.384,3.065,3.065,0,0,0-1.088.944V0h-.832V-7.728h.832V-6.56a4.156,4.156,0,0,1,1.232-.952,3.277,3.277,0,0,1,1.552-.408A2.186,2.186,0,0,1,90.24-5.408Zm8.64,0h-.832V-1.136a4.429,4.429,0,0,1-1.264.952,3.3,3.3,0,0,1-1.52.376,2.5,2.5,0,0,1-1.824-.6,2.545,2.545,0,0,1-.608-1.88v-5.44h.832V-2.48a1.927,1.927,0,0,0,.48,1.5,2.04,2.04,0,0,0,1.392.424,3,3,0,0,0,1.416-.368,3.167,3.167,0,0,0,1.1-.912V-7.728h.832Zm4.9.192A3.821,3.821,0,0,1,100.8-1.024l.5-.624a3.044,3.044,0,0,0,1.056.816,3.24,3.24,0,0,0,1.44.32,2.369,2.369,0,0,0,1.5-.44,1.372,1.372,0,0,0,.56-1.128,1.063,1.063,0,0,0-.5-.92,3.606,3.606,0,0,0-1.216-.512q-.712-.168-1.432-.368a2.934,2.934,0,0,1-1.224-.664,1.594,1.594,0,0,1-.5-1.232A1.908,1.908,0,0,1,101.72-7.3a3.052,3.052,0,0,1,2.008-.616A3.541,3.541,0,0,1,106.5-6.784l-.464.592a2.67,2.67,0,0,0-2.3-1.024,2.274,2.274,0,0,0-1.408.4,1.217,1.217,0,0,0-.528,1.008.932.932,0,0,0,.5.832,4.223,4.223,0,0,0,1.216.472q.712.168,1.432.376a2.76,2.76,0,0,1,1.224.72,1.812,1.812,0,0,1,.5,1.328,2.048,2.048,0,0,1-.752,1.632A3.216,3.216,0,0,1,103.776.192ZM116.64,0h-.928V-9.84h-3.488v-.832h7.9v.832H116.64Zm6.64.192a3.4,3.4,0,0,1-2.688-1.168,4.235,4.235,0,0,1-1.024-2.9,4.205,4.205,0,0,1,1.024-2.888,3.413,3.413,0,0,1,2.688-1.16,3.431,3.431,0,0,1,2.7,1.16,4.205,4.205,0,0,1,1.024,2.888,4.235,4.235,0,0,1-1.024,2.9A3.421,3.421,0,0,1,123.28.192Zm0-.752a2.493,2.493,0,0,0,2.072-.968,3.68,3.68,0,0,0,.76-2.344,3.655,3.655,0,0,0-.76-2.328,2.493,2.493,0,0,0-2.072-.968,2.476,2.476,0,0,0-2.056.968,3.655,3.655,0,0,0-.76,2.328,3.688,3.688,0,0,0,.76,2.336A2.468,2.468,0,0,0,123.28-.56ZM135.2,0h-.832V-1.136a4.429,4.429,0,0,1-1.264.952,3.3,3.3,0,0,1-1.52.376,2.5,2.5,0,0,1-1.824-.6,2.545,2.545,0,0,1-.608-1.88v-5.44h.832V-2.48a1.927,1.927,0,0,0,.48,1.5,2.04,2.04,0,0,0,1.392.424,3,3,0,0,0,1.416-.368,3.167,3.167,0,0,0,1.1-.912V-7.728h.832Zm3.424,0h-.832V-7.728h.832V-6.4a3.257,3.257,0,0,1,2.608-1.488v.912a2.045,2.045,0,0,0-.416-.032,2.344,2.344,0,0,0-1.248.432,2.649,2.649,0,0,0-.944.944Zm10.288,0h-.832V-5.232a1.959,1.959,0,0,0-.48-1.5,1.991,1.991,0,0,0-1.392-.44,2.945,2.945,0,0,0-1.424.384,3.065,3.065,0,0,0-1.088.944V0h-.832V-7.728h.832V-6.56a4.156,4.156,0,0,1,1.232-.952,3.277,3.277,0,0,1,1.552-.408,2.186,2.186,0,0,1,2.432,2.512Zm8.336,0h-.832V-.912a3.388,3.388,0,0,1-2.624,1.1A2.823,2.823,0,0,1,151.9-.5a2.344,2.344,0,0,1-.816-1.88,2.325,2.325,0,0,1,.808-1.88,2.853,2.853,0,0,1,1.9-.68,3.357,3.357,0,0,1,2.624,1.1V-5.408a1.576,1.576,0,0,0-.592-1.3,2.312,2.312,0,0,0-1.488-.472,3.091,3.091,0,0,0-2.416,1.136l-.464-.576a3.892,3.892,0,0,1,2.976-1.3,3.164,3.164,0,0,1,2.032.624,2.229,2.229,0,0,1,.784,1.856ZM154.08-.464a2.777,2.777,0,0,0,2.336-1.056v-1.7a2.787,2.787,0,0,0-2.336-1.072,2.152,2.152,0,0,0-1.528.544,1.8,1.8,0,0,0-.584,1.376A1.775,1.775,0,0,0,152.552-1,2.171,2.171,0,0,0,154.08-.464ZM169.872,0h-.832V-5.408q0-1.76-1.552-1.76a2.381,2.381,0,0,0-1.24.384,2.843,2.843,0,0,0-.968.928V0h-.848V-5.408q0-1.76-1.552-1.76a2.285,2.285,0,0,0-1.216.392,3.282,3.282,0,0,0-.992.936V0h-.832V-7.728h.832V-6.56a3.046,3.046,0,0,1,1.016-.912,2.8,2.8,0,0,1,1.48-.448,2.091,2.091,0,0,1,1.36.416,1.927,1.927,0,0,1,.672,1.04,3.133,3.133,0,0,1,1.072-1.016,2.817,2.817,0,0,1,1.488-.44q2.112,0,2.112,2.352Zm6.016.192A3.686,3.686,0,0,1,173.1-.944a4.059,4.059,0,0,1-1.088-2.928,4.126,4.126,0,0,1,1.064-2.872,3.442,3.442,0,0,1,2.664-1.176,3.287,3.287,0,0,1,2.672,1.176,4.419,4.419,0,0,1,.976,2.92V-3.6h-6.464a3.354,3.354,0,0,0,.88,2.192,2.787,2.787,0,0,0,2.144.88A3.293,3.293,0,0,0,178.48-1.6l.432.544A4.018,4.018,0,0,1,175.888.192Zm2.656-4.448a3.256,3.256,0,0,0-.744-2.032,2.5,2.5,0,0,0-2.072-.912,2.465,2.465,0,0,0-2.008.9,3.359,3.359,0,0,0-.792,2.04ZM187.584,0h-.832V-5.232a1.959,1.959,0,0,0-.48-1.5,1.991,1.991,0,0,0-1.392-.44,2.945,2.945,0,0,0-1.424.384,3.065,3.065,0,0,0-1.088.944V0h-.832V-7.728h.832V-6.56a4.156,4.156,0,0,1,1.232-.952,3.277,3.277,0,0,1,1.552-.408,2.186,2.186,0,0,1,2.432,2.512Zm4.272.192q-1.52,0-1.52-1.68v-5.5h-1.28v-.736h1.28V-9.84h.848v2.112h1.568v.736h-1.568v5.376q0,1.056.8,1.056a1.117,1.117,0,0,0,.864-.368l.32.64A1.842,1.842,0,0,1,191.856.192Z" transform="translate(1045 2237)"/>
    <path id="Path_3913" data-name="Path 3913" class="cls-7" d="M5.808,0H1.328V-10.672H5.712a3.043,3.043,0,0,1,2.144.736,2.564,2.564,0,0,1,.8,1.984A2.456,2.456,0,0,1,8.1-6.328a2.3,2.3,0,0,1-1.32.824,2.279,2.279,0,0,1,1.464.9,2.7,2.7,0,0,1,.616,1.72,2.766,2.766,0,0,1-.816,2.1A3.118,3.118,0,0,1,5.808,0ZM5.6-5.888A2.087,2.087,0,0,0,7.144-6.44,1.917,1.917,0,0,0,7.7-7.856a1.951,1.951,0,0,0-.552-1.416A2.053,2.053,0,0,0,5.6-9.84H2.24v3.952ZM5.664-.832A2.283,2.283,0,0,0,7.312-1.4,2.039,2.039,0,0,0,7.9-2.944a2.079,2.079,0,0,0-.592-1.5,2.178,2.178,0,0,0-1.648-.616H2.24V-.832ZM14.384.192A3.4,3.4,0,0,1,11.7-.976a4.235,4.235,0,0,1-1.024-2.9A4.205,4.205,0,0,1,11.7-6.76a3.413,3.413,0,0,1,2.688-1.16,3.431,3.431,0,0,1,2.7,1.16,4.205,4.205,0,0,1,1.024,2.888,4.235,4.235,0,0,1-1.024,2.9A3.421,3.421,0,0,1,14.384.192Zm0-.752a2.493,2.493,0,0,0,2.072-.968,3.68,3.68,0,0,0,.76-2.344,3.655,3.655,0,0,0-.76-2.328,2.493,2.493,0,0,0-2.072-.968,2.476,2.476,0,0,0-2.056.968,3.655,3.655,0,0,0-.76,2.328,3.688,3.688,0,0,0,.76,2.336A2.468,2.468,0,0,0,14.384-.56ZM26.3,0h-.832V-1.136a4.429,4.429,0,0,1-1.264.952,3.3,3.3,0,0,1-1.52.376,2.5,2.5,0,0,1-1.824-.6,2.546,2.546,0,0,1-.608-1.88v-5.44h.832V-2.48a1.927,1.927,0,0,0,.48,1.5A2.04,2.04,0,0,0,22.96-.56a3,3,0,0,0,1.416-.368,3.167,3.167,0,0,0,1.1-.912V-7.728H26.3Zm8.64,0h-.832V-5.232a1.959,1.959,0,0,0-.48-1.5,1.991,1.991,0,0,0-1.392-.44,2.945,2.945,0,0,0-1.424.384,3.065,3.065,0,0,0-1.088.944V0H28.9V-7.728h.832V-6.56a4.156,4.156,0,0,1,1.232-.952,3.277,3.277,0,0,1,1.552-.408,2.186,2.186,0,0,1,2.432,2.512Zm4.272.192q-1.52,0-1.52-1.68v-5.5h-1.28v-.736H37.7V-9.84h.848v2.112h1.568v.736H38.544v5.376q0,1.056.8,1.056a1.117,1.117,0,0,0,.864-.368l.32.64A1.842,1.842,0,0,1,39.216.192Zm2.208,2.832.144-.768a1.642,1.642,0,0,0,.672.128,1.259,1.259,0,0,0,1.168-.944L44.016.064,40.752-7.728h.928L44.5-.976,47.28-7.728h.944l-4,9.424a2.058,2.058,0,0,1-1.984,1.44A2.8,2.8,0,0,1,41.424,3.024ZM54.72,0h-.912V-10.672h4a3.1,3.1,0,0,1,2.352.9,3.086,3.086,0,0,1,.864,2.216,3.071,3.071,0,0,1-.872,2.216,3.105,3.105,0,0,1-2.344.9H54.72Zm2.992-5.264a2.32,2.32,0,0,0,1.7-.64,2.216,2.216,0,0,0,.648-1.648A2.216,2.216,0,0,0,59.416-9.2a2.32,2.32,0,0,0-1.7-.64H54.72v4.576ZM63.744,0h-.832V-7.728h.832V-6.4a3.257,3.257,0,0,1,2.608-1.488v.912a2.045,2.045,0,0,0-.416-.032,2.344,2.344,0,0,0-1.248.432,2.65,2.65,0,0,0-.944.944Zm7.5.192A3.4,3.4,0,0,1,68.56-.976a4.235,4.235,0,0,1-1.024-2.9A4.205,4.205,0,0,1,68.56-6.76a3.413,3.413,0,0,1,2.688-1.16,3.431,3.431,0,0,1,2.7,1.16,4.205,4.205,0,0,1,1.024,2.888,4.235,4.235,0,0,1-1.024,2.9A3.421,3.421,0,0,1,71.248.192Zm0-.752a2.493,2.493,0,0,0,2.072-.968,3.68,3.68,0,0,0,.76-2.344A3.655,3.655,0,0,0,73.32-6.2a2.493,2.493,0,0,0-2.072-.968,2.476,2.476,0,0,0-2.056.968,3.655,3.655,0,0,0-.76,2.328,3.688,3.688,0,0,0,.76,2.336A2.468,2.468,0,0,0,71.248-.56Zm8.928,3.7a5.039,5.039,0,0,1-1.7-.248,3.636,3.636,0,0,1-1.344-.92l.48-.64a2.889,2.889,0,0,0,1.088.84,3.822,3.822,0,0,0,1.472.248,2.874,2.874,0,0,0,1.9-.616,2.281,2.281,0,0,0,.744-1.864V-1.28A3.453,3.453,0,0,1,81.672-.248,3.053,3.053,0,0,1,80.128.16a3.156,3.156,0,0,1-2.5-1.1,4.321,4.321,0,0,1-.952-2.936,4.335,4.335,0,0,1,.96-2.936,3.142,3.142,0,0,1,2.5-1.112,3.154,3.154,0,0,1,2.688,1.44V-7.728h.848V-.08A2.941,2.941,0,0,1,82.7,2.36,3.906,3.906,0,0,1,80.176,3.136Zm.1-3.728A2.922,2.922,0,0,0,81.76-1a2.857,2.857,0,0,0,1.056-1V-5.76a2.857,2.857,0,0,0-1.056-1,2.922,2.922,0,0,0-1.488-.408A2.378,2.378,0,0,0,78.3-6.24a3.721,3.721,0,0,0-.728,2.368,3.688,3.688,0,0,0,.728,2.36A2.386,2.386,0,0,0,80.272-.592Zm6.8.592H86.24V-7.728h.832V-6.4A3.257,3.257,0,0,1,89.68-7.888v.912a2.045,2.045,0,0,0-.416-.032,2.344,2.344,0,0,0-1.248.432,2.65,2.65,0,0,0-.944.944Zm9.984,0h-.832V-.912A3.388,3.388,0,0,1,93.6.192a2.823,2.823,0,0,1-1.888-.7,2.344,2.344,0,0,1-.816-1.88,2.325,2.325,0,0,1,.808-1.88,2.853,2.853,0,0,1,1.9-.68,3.357,3.357,0,0,1,2.624,1.1V-5.408a1.576,1.576,0,0,0-.592-1.3,2.312,2.312,0,0,0-1.488-.472,3.091,3.091,0,0,0-2.416,1.136l-.464-.576a3.892,3.892,0,0,1,2.976-1.3,3.164,3.164,0,0,1,2.032.624,2.229,2.229,0,0,1,.784,1.856ZM93.888-.464A2.777,2.777,0,0,0,96.224-1.52v-1.7a2.787,2.787,0,0,0-2.336-1.072,2.152,2.152,0,0,0-1.528.544,1.8,1.8,0,0,0-.584,1.376A1.775,1.775,0,0,0,92.36-1,2.171,2.171,0,0,0,93.888-.464ZM109.68,0h-.832V-5.408q0-1.76-1.552-1.76a2.381,2.381,0,0,0-1.24.384,2.843,2.843,0,0,0-.968.928V0h-.848V-5.408q0-1.76-1.552-1.76a2.285,2.285,0,0,0-1.216.392,3.282,3.282,0,0,0-.992.936V0h-.832V-7.728h.832V-6.56a3.046,3.046,0,0,1,1.016-.912,2.8,2.8,0,0,1,1.48-.448,2.091,2.091,0,0,1,1.36.416,1.927,1.927,0,0,1,.672,1.04A3.134,3.134,0,0,1,106.08-7.48a2.817,2.817,0,0,1,1.488-.44q2.112,0,2.112,2.352Z" transform="translate(1045 2306)"/>
    <path id="Path_3915" data-name="Path 3915" class="cls-7" d="M10.112,0H9.056L8-2.624H2.352L1.3,0H.24L4.608-10.672H5.744ZM7.7-3.456,5.168-9.7,2.656-3.456ZM18.192,0h-.848V-1.232A3.376,3.376,0,0,1,16.2-.208a3.1,3.1,0,0,1-1.544.4,3.146,3.146,0,0,1-2.5-1.1A4.352,4.352,0,0,1,11.2-3.856,4.366,4.366,0,0,1,12.16-6.8a3.132,3.132,0,0,1,2.5-1.12,3.154,3.154,0,0,1,2.688,1.44v-4.192h.848ZM14.8-.56a2.967,2.967,0,0,0,1.488-.4,2.848,2.848,0,0,0,1.056-.976V-5.76a2.857,2.857,0,0,0-1.056-1A2.922,2.922,0,0,0,14.8-7.168a2.37,2.37,0,0,0-1.976.936A3.755,3.755,0,0,0,12.1-3.856a3.721,3.721,0,0,0,.728,2.368A2.378,2.378,0,0,0,14.8-.56ZM23.808,0h-.944L19.6-7.728h.928L23.344-.976l2.784-6.752h.944ZM28.9-8.944a.614.614,0,0,1-.448-.192.614.614,0,0,1-.192-.448.588.588,0,0,1,.192-.44.627.627,0,0,1,.448-.184.619.619,0,0,1,.456.184.6.6,0,0,1,.184.44.619.619,0,0,1-.184.456A.619.619,0,0,1,28.9-8.944ZM29.312,0H28.48V-7.728h.832Zm4.9.192a3.821,3.821,0,0,1-2.976-1.216l.5-.624a3.044,3.044,0,0,0,1.056.816,3.24,3.24,0,0,0,1.44.32,2.369,2.369,0,0,0,1.5-.44,1.372,1.372,0,0,0,.56-1.128,1.063,1.063,0,0,0-.5-.92,3.606,3.606,0,0,0-1.216-.512q-.712-.168-1.432-.368a2.934,2.934,0,0,1-1.224-.664,1.594,1.594,0,0,1-.5-1.232A1.908,1.908,0,0,1,32.152-7.3,3.052,3.052,0,0,1,34.16-7.92a3.541,3.541,0,0,1,2.768,1.136l-.464.592a2.67,2.67,0,0,0-2.3-1.024,2.274,2.274,0,0,0-1.408.4,1.217,1.217,0,0,0-.528,1.008.932.932,0,0,0,.5.832,4.223,4.223,0,0,0,1.216.472q.712.168,1.432.376a2.76,2.76,0,0,1,1.224.72,1.812,1.812,0,0,1,.5,1.328,2.048,2.048,0,0,1-.752,1.632A3.216,3.216,0,0,1,34.208.192Zm8.3,0A3.4,3.4,0,0,1,39.824-.976a4.235,4.235,0,0,1-1.024-2.9A4.205,4.205,0,0,1,39.824-6.76a3.413,3.413,0,0,1,2.688-1.16,3.431,3.431,0,0,1,2.7,1.16A4.205,4.205,0,0,1,46.24-3.872a4.235,4.235,0,0,1-1.024,2.9A3.421,3.421,0,0,1,42.512.192Zm0-.752a2.493,2.493,0,0,0,2.072-.968,3.68,3.68,0,0,0,.76-2.344,3.655,3.655,0,0,0-.76-2.328,2.493,2.493,0,0,0-2.072-.968,2.476,2.476,0,0,0-2.056.968,3.655,3.655,0,0,0-.76,2.328,3.688,3.688,0,0,0,.76,2.336A2.468,2.468,0,0,0,42.512-.56Zm6.7.56h-.832V-7.728h.832V-6.4a3.257,3.257,0,0,1,2.608-1.488v.912a2.045,2.045,0,0,0-.416-.032,2.344,2.344,0,0,0-1.248.432,2.65,2.65,0,0,0-.944.944Zm3.728,3.024.144-.768a1.642,1.642,0,0,0,.672.128,1.259,1.259,0,0,0,1.168-.944L55.536.064,52.272-7.728H53.2L56.016-.976,58.8-7.728h.944l-4,9.424a2.058,2.058,0,0,1-1.984,1.44A2.8,2.8,0,0,1,52.944,3.024ZM69.808,0h-4.48V-10.672h4.384a3.043,3.043,0,0,1,2.144.736,2.564,2.564,0,0,1,.8,1.984A2.456,2.456,0,0,1,72.1-6.328a2.3,2.3,0,0,1-1.32.824,2.279,2.279,0,0,1,1.464.9,2.7,2.7,0,0,1,.616,1.72,2.766,2.766,0,0,1-.816,2.1A3.118,3.118,0,0,1,69.808,0ZM69.6-5.888a2.087,2.087,0,0,0,1.544-.552A1.917,1.917,0,0,0,71.7-7.856a1.951,1.951,0,0,0-.552-1.416A2.053,2.053,0,0,0,69.6-9.84H66.24v3.952Zm.064,5.056A2.283,2.283,0,0,0,71.312-1.4,2.039,2.039,0,0,0,71.9-2.944a2.079,2.079,0,0,0-.592-1.5,2.178,2.178,0,0,0-1.648-.616H66.24V-.832ZM78.384.192A3.4,3.4,0,0,1,75.7-.976a4.235,4.235,0,0,1-1.024-2.9A4.205,4.205,0,0,1,75.7-6.76a3.413,3.413,0,0,1,2.688-1.16,3.431,3.431,0,0,1,2.7,1.16,4.205,4.205,0,0,1,1.024,2.888,4.235,4.235,0,0,1-1.024,2.9A3.421,3.421,0,0,1,78.384.192Zm0-.752a2.493,2.493,0,0,0,2.072-.968,3.68,3.68,0,0,0,.76-2.344,3.655,3.655,0,0,0-.76-2.328,2.493,2.493,0,0,0-2.072-.968,2.476,2.476,0,0,0-2.056.968,3.655,3.655,0,0,0-.76,2.328,3.688,3.688,0,0,0,.76,2.336A2.468,2.468,0,0,0,78.384-.56ZM90,0h-.832V-.912a3.388,3.388,0,0,1-2.624,1.1,2.823,2.823,0,0,1-1.888-.7,2.344,2.344,0,0,1-.816-1.88,2.325,2.325,0,0,1,.808-1.88,2.853,2.853,0,0,1,1.9-.68,3.357,3.357,0,0,1,2.624,1.1V-5.408a1.576,1.576,0,0,0-.592-1.3,2.312,2.312,0,0,0-1.488-.472,3.091,3.091,0,0,0-2.416,1.136l-.464-.576a3.892,3.892,0,0,1,2.976-1.3,3.164,3.164,0,0,1,2.032.624A2.229,2.229,0,0,1,90-5.44ZM86.832-.464A2.777,2.777,0,0,0,89.168-1.52v-1.7a2.787,2.787,0,0,0-2.336-1.072,2.152,2.152,0,0,0-1.528.544,1.8,1.8,0,0,0-.584,1.376A1.775,1.775,0,0,0,85.3-1,2.171,2.171,0,0,0,86.832-.464ZM93.424,0h-.832V-7.728h.832V-6.4a3.257,3.257,0,0,1,2.608-1.488v.912a2.045,2.045,0,0,0-.416-.032,2.344,2.344,0,0,0-1.248.432,2.65,2.65,0,0,0-.944.944Zm10.784,0h-.848V-1.232a3.376,3.376,0,0,1-1.144,1.024,3.1,3.1,0,0,1-1.544.4,3.146,3.146,0,0,1-2.5-1.1,4.352,4.352,0,0,1-.952-2.944,4.366,4.366,0,0,1,.96-2.944,3.132,3.132,0,0,1,2.5-1.12,3.154,3.154,0,0,1,2.688,1.44v-4.192h.848Zm-3.392-.56a2.967,2.967,0,0,0,1.488-.4,2.848,2.848,0,0,0,1.056-.976V-5.76a2.857,2.857,0,0,0-1.056-1,2.922,2.922,0,0,0-1.488-.408,2.37,2.37,0,0,0-1.976.936,3.755,3.755,0,0,0-.728,2.376,3.721,3.721,0,0,0,.728,2.368A2.378,2.378,0,0,0,100.816-.56Z" transform="translate(1045 2373)"/>
    <path id="Path_3909" data-name="Path 3909" class="cls-7" d="M8.688,0h-1.1L4.592-4.416H2.24V0H1.328V-10.672H5.312a3.3,3.3,0,0,1,2.328.848,2.94,2.94,0,0,1,.92,2.272A2.906,2.906,0,0,1,7.7-5.344a3.117,3.117,0,0,1-2.1.864ZM5.232-5.248A2.331,2.331,0,0,0,6.944-5.9,2.228,2.228,0,0,0,7.6-7.552,2.2,2.2,0,0,0,6.944-9.2a2.347,2.347,0,0,0-1.712-.64H2.24v4.592ZM13.744.192A3.686,3.686,0,0,1,10.96-.944,4.059,4.059,0,0,1,9.872-3.872a4.126,4.126,0,0,1,1.064-2.872A3.442,3.442,0,0,1,13.6-7.92a3.287,3.287,0,0,1,2.672,1.176,4.419,4.419,0,0,1,.976,2.92V-3.6H10.784a3.354,3.354,0,0,0,.88,2.192,2.787,2.787,0,0,0,2.144.88A3.293,3.293,0,0,0,16.336-1.6l.432.544A4.018,4.018,0,0,1,13.744.192ZM16.4-4.256a3.256,3.256,0,0,0-.744-2.032A2.5,2.5,0,0,0,13.584-7.2a2.465,2.465,0,0,0-2.008.9,3.359,3.359,0,0,0-.792,2.04ZM21.7.192A3.821,3.821,0,0,1,18.72-1.024l.5-.624a3.044,3.044,0,0,0,1.056.816,3.24,3.24,0,0,0,1.44.32,2.369,2.369,0,0,0,1.5-.44,1.372,1.372,0,0,0,.56-1.128,1.063,1.063,0,0,0-.5-.92,3.606,3.606,0,0,0-1.216-.512q-.712-.168-1.432-.368A2.934,2.934,0,0,1,19.4-4.544a1.594,1.594,0,0,1-.5-1.232A1.908,1.908,0,0,1,19.64-7.3a3.052,3.052,0,0,1,2.008-.616,3.541,3.541,0,0,1,2.768,1.136l-.464.592a2.67,2.67,0,0,0-2.3-1.024,2.274,2.274,0,0,0-1.408.4,1.217,1.217,0,0,0-.528,1.008.932.932,0,0,0,.5.832,4.223,4.223,0,0,0,1.216.472q.712.168,1.432.376a2.76,2.76,0,0,1,1.224.72,1.812,1.812,0,0,1,.5,1.328A2.048,2.048,0,0,1,23.84-.448,3.216,3.216,0,0,1,21.7.192Zm8.464,0A3.686,3.686,0,0,1,27.376-.944a4.059,4.059,0,0,1-1.088-2.928,4.126,4.126,0,0,1,1.064-2.872A3.442,3.442,0,0,1,30.016-7.92a3.287,3.287,0,0,1,2.672,1.176,4.419,4.419,0,0,1,.976,2.92V-3.6H27.2a3.354,3.354,0,0,0,.88,2.192,2.787,2.787,0,0,0,2.144.88A3.293,3.293,0,0,0,32.752-1.6l.432.544A4.018,4.018,0,0,1,30.16.192Zm2.656-4.448a3.256,3.256,0,0,0-.744-2.032A2.5,2.5,0,0,0,30-7.2a2.465,2.465,0,0,0-2.008.9,3.359,3.359,0,0,0-.792,2.04ZM36.64,0h-.832V-7.728h.832V-6.4a3.257,3.257,0,0,1,2.608-1.488v.912a2.045,2.045,0,0,0-.416-.032,2.344,2.344,0,0,0-1.248.432,2.65,2.65,0,0,0-.944.944ZM43.9,0H42.96L39.7-7.728h.928L43.44-.976l2.784-6.752h.944ZM52,.192A3.686,3.686,0,0,1,49.216-.944a4.059,4.059,0,0,1-1.088-2.928,4.126,4.126,0,0,1,1.064-2.872A3.442,3.442,0,0,1,51.856-7.92a3.287,3.287,0,0,1,2.672,1.176,4.419,4.419,0,0,1,.976,2.92V-3.6H49.04a3.354,3.354,0,0,0,.88,2.192,2.787,2.787,0,0,0,2.144.88A3.293,3.293,0,0,0,54.592-1.6l.432.544A4.018,4.018,0,0,1,52,.192Zm2.656-4.448a3.256,3.256,0,0,0-.744-2.032A2.5,2.5,0,0,0,51.84-7.2a2.465,2.465,0,0,0-2.008.9,3.359,3.359,0,0,0-.792,2.04ZM62.736,0h-.912V-10.672h6.768v.832H62.736v3.952H68.48v.832H62.736ZM76.512,0H75.68V-1.136a4.429,4.429,0,0,1-1.264.952A3.3,3.3,0,0,1,72.9.192a2.5,2.5,0,0,1-1.824-.6,2.545,2.545,0,0,1-.608-1.88v-5.44H71.3V-2.48a1.927,1.927,0,0,0,.48,1.5,2.04,2.04,0,0,0,1.392.424,3,3,0,0,0,1.416-.368,3.167,3.167,0,0,0,1.1-.912V-7.728h.832Zm8.64,0H84.32V-5.232a1.959,1.959,0,0,0-.48-1.5,1.991,1.991,0,0,0-1.392-.44,2.945,2.945,0,0,0-1.424.384,3.065,3.065,0,0,0-1.088.944V0H79.1V-7.728h.832V-6.56a4.156,4.156,0,0,1,1.232-.952A3.277,3.277,0,0,1,82.72-7.92a2.186,2.186,0,0,1,2.432,2.512Zm9.136,0H93.44V-1.232A3.376,3.376,0,0,1,92.3-.208a3.1,3.1,0,0,1-1.544.4,3.146,3.146,0,0,1-2.5-1.1A4.352,4.352,0,0,1,87.3-3.856a4.366,4.366,0,0,1,.96-2.944,3.132,3.132,0,0,1,2.5-1.12A3.154,3.154,0,0,1,93.44-6.48v-4.192h.848ZM90.9-.56a2.967,2.967,0,0,0,1.488-.4,2.848,2.848,0,0,0,1.056-.976V-5.76a2.857,2.857,0,0,0-1.056-1A2.922,2.922,0,0,0,90.9-7.168a2.37,2.37,0,0,0-1.976.936,3.755,3.755,0,0,0-.728,2.376,3.721,3.721,0,0,0,.728,2.368A2.378,2.378,0,0,0,90.9-.56Z" transform="translate(828 2373)"/>
    <path id="Path_3907" data-name="Path 3907" class="cls-7" d="M2.24,0H1.328V-10.672h4a3.1,3.1,0,0,1,2.352.9,3.086,3.086,0,0,1,.864,2.216,3.071,3.071,0,0,1-.872,2.216,3.105,3.105,0,0,1-2.344.9H2.24ZM5.232-5.264a2.32,2.32,0,0,0,1.7-.64,2.216,2.216,0,0,0,.648-1.648A2.216,2.216,0,0,0,6.936-9.2a2.32,2.32,0,0,0-1.7-.64H2.24v4.576ZM11.264,0h-.832V-7.728h.832V-6.4a3.257,3.257,0,0,1,2.608-1.488v.912a2.045,2.045,0,0,0-.416-.032,2.344,2.344,0,0,0-1.248.432,2.65,2.65,0,0,0-.944.944Zm7.5.192A3.4,3.4,0,0,1,16.08-.976a4.235,4.235,0,0,1-1.024-2.9A4.205,4.205,0,0,1,16.08-6.76a3.413,3.413,0,0,1,2.688-1.16,3.431,3.431,0,0,1,2.7,1.16A4.205,4.205,0,0,1,22.5-3.872a4.235,4.235,0,0,1-1.024,2.9A3.421,3.421,0,0,1,18.768.192Zm0-.752a2.493,2.493,0,0,0,2.072-.968,3.68,3.68,0,0,0,.76-2.344A3.655,3.655,0,0,0,20.84-6.2a2.493,2.493,0,0,0-2.072-.968,2.476,2.476,0,0,0-2.056.968,3.655,3.655,0,0,0-.76,2.328,3.688,3.688,0,0,0,.76,2.336A2.468,2.468,0,0,0,18.768-.56Zm6.288-8.384a.614.614,0,0,1-.448-.192.614.614,0,0,1-.192-.448.588.588,0,0,1,.192-.44.627.627,0,0,1,.448-.184.619.619,0,0,1,.456.184.6.6,0,0,1,.184.44.619.619,0,0,1-.184.456A.619.619,0,0,1,25.056-8.944Zm-1.68,12.08a2.357,2.357,0,0,1-1.584-.592l.368-.656a1.52,1.52,0,0,0,1.136.528,1.353,1.353,0,0,0,.976-.352A1.419,1.419,0,0,0,24.64.992v-8.72h.832V.992a2.169,2.169,0,0,1-.544,1.6A2.1,2.1,0,0,1,23.376,3.136ZM31.488.192A3.686,3.686,0,0,1,28.7-.944a4.059,4.059,0,0,1-1.088-2.928A4.126,4.126,0,0,1,28.68-6.744,3.442,3.442,0,0,1,31.344-7.92a3.287,3.287,0,0,1,2.672,1.176,4.419,4.419,0,0,1,.976,2.92V-3.6H28.528a3.354,3.354,0,0,0,.88,2.192,2.787,2.787,0,0,0,2.144.88A3.293,3.293,0,0,0,34.08-1.6l.432.544A4.018,4.018,0,0,1,31.488.192Zm2.656-4.448A3.256,3.256,0,0,0,33.4-6.288,2.5,2.5,0,0,0,31.328-7.2a2.465,2.465,0,0,0-2.008.9,3.359,3.359,0,0,0-.792,2.04Zm6.3,4.448a3.469,3.469,0,0,1-2.72-1.168,4.2,4.2,0,0,1-1.04-2.9,4.166,4.166,0,0,1,1.04-2.888,3.48,3.48,0,0,1,2.72-1.16,3.322,3.322,0,0,1,2.736,1.312l-.576.512A2.484,2.484,0,0,0,40.5-7.168a2.636,2.636,0,0,0-2.12.936,3.527,3.527,0,0,0-.792,2.36A3.558,3.558,0,0,0,38.376-1.5,2.626,2.626,0,0,0,40.5-.56a2.5,2.5,0,0,0,2.112-1.088l.576.512A3.307,3.307,0,0,1,40.448.192Zm6.272,0q-1.52,0-1.52-1.68v-5.5H43.92v-.736H45.2V-9.84h.848v2.112h1.568v.736H46.048v5.376q0,1.056.8,1.056a1.117,1.117,0,0,0,.864-.368l.32.64A1.842,1.842,0,0,1,46.72.192ZM57.264,0h-.928V-9.84H52.848v-.832h7.9v.832H57.264Zm6.8.192A3.686,3.686,0,0,1,61.28-.944a4.059,4.059,0,0,1-1.088-2.928,4.126,4.126,0,0,1,1.064-2.872A3.442,3.442,0,0,1,63.92-7.92a3.287,3.287,0,0,1,2.672,1.176,4.419,4.419,0,0,1,.976,2.92V-3.6H61.1a3.354,3.354,0,0,0,.88,2.192,2.787,2.787,0,0,0,2.144.88A3.293,3.293,0,0,0,66.656-1.6l.432.544A4.018,4.018,0,0,1,64.064.192ZM66.72-4.256a3.256,3.256,0,0,0-.744-2.032A2.5,2.5,0,0,0,63.9-7.2a2.465,2.465,0,0,0-2.008.9,3.359,3.359,0,0,0-.792,2.04ZM75.456,0h-.832V-.912A3.388,3.388,0,0,1,72,.192a2.823,2.823,0,0,1-1.888-.7,2.344,2.344,0,0,1-.816-1.88,2.325,2.325,0,0,1,.808-1.88,2.853,2.853,0,0,1,1.9-.68,3.357,3.357,0,0,1,2.624,1.1V-5.408a1.576,1.576,0,0,0-.592-1.3,2.312,2.312,0,0,0-1.488-.472,3.091,3.091,0,0,0-2.416,1.136l-.464-.576a3.892,3.892,0,0,1,2.976-1.3,3.164,3.164,0,0,1,2.032.624,2.229,2.229,0,0,1,.784,1.856ZM72.288-.464A2.777,2.777,0,0,0,74.624-1.52v-1.7a2.787,2.787,0,0,0-2.336-1.072,2.152,2.152,0,0,0-1.528.544,1.8,1.8,0,0,0-.584,1.376A1.775,1.775,0,0,0,70.76-1,2.171,2.171,0,0,0,72.288-.464ZM88.08,0h-.832V-5.408q0-1.76-1.552-1.76a2.381,2.381,0,0,0-1.24.384,2.843,2.843,0,0,0-.968.928V0H82.64V-5.408q0-1.76-1.552-1.76a2.285,2.285,0,0,0-1.216.392,3.282,3.282,0,0,0-.992.936V0h-.832V-7.728h.832V-6.56A3.046,3.046,0,0,1,79.9-7.472a2.8,2.8,0,0,1,1.48-.448,2.091,2.091,0,0,1,1.36.416,1.927,1.927,0,0,1,.672,1.04A3.134,3.134,0,0,1,84.48-7.48a2.817,2.817,0,0,1,1.488-.44q2.112,0,2.112,2.352Z" transform="translate(828 2304)"/>
    <path id="Path_3905" data-name="Path 3905" class="cls-7" d="M6.336.192A5.249,5.249,0,0,1,2.48-1.352,5.367,5.367,0,0,1,.928-5.328,5.367,5.367,0,0,1,2.48-9.3a5.249,5.249,0,0,1,3.856-1.544A4.773,4.773,0,0,1,10.224-8.96l-.768.5A3.715,3.715,0,0,0,8.112-9.592a3.857,3.857,0,0,0-1.776-.424A4.242,4.242,0,0,0,3.16-8.7,4.648,4.648,0,0,0,1.888-5.328,4.655,4.655,0,0,0,3.16-1.96,4.229,4.229,0,0,0,6.336-.64a3.857,3.857,0,0,0,1.776-.424A3.715,3.715,0,0,0,9.456-2.192l.768.48A4.788,4.788,0,0,1,6.336.192ZM12.88,0h-.832V-7.728h.832V-6.4a3.257,3.257,0,0,1,2.608-1.488v.912a2.045,2.045,0,0,0-.416-.032,2.344,2.344,0,0,0-1.248.432,2.65,2.65,0,0,0-.944.944Zm7.5.192A3.4,3.4,0,0,1,17.7-.976a4.235,4.235,0,0,1-1.024-2.9A4.205,4.205,0,0,1,17.7-6.76a3.413,3.413,0,0,1,2.688-1.16,3.431,3.431,0,0,1,2.7,1.16,4.205,4.205,0,0,1,1.024,2.888,4.235,4.235,0,0,1-1.024,2.9A3.421,3.421,0,0,1,20.384.192Zm0-.752a2.493,2.493,0,0,0,2.072-.968,3.68,3.68,0,0,0,.76-2.344,3.655,3.655,0,0,0-.76-2.328,2.493,2.493,0,0,0-2.072-.968,2.476,2.476,0,0,0-2.056.968,3.655,3.655,0,0,0-.76,2.328,3.688,3.688,0,0,0,.76,2.336A2.468,2.468,0,0,0,20.384-.56ZM33.68,0h-.8L30.72-6.608,28.544,0h-.8L25.232-7.728h.9l2.048,6.56,2.176-6.56h.72l2.176,6.56L35.3-7.728h.9ZM44.3,0h-.848V-1.232A3.376,3.376,0,0,1,42.312-.208a3.1,3.1,0,0,1-1.544.4,3.146,3.146,0,0,1-2.5-1.1,4.352,4.352,0,0,1-.952-2.944,4.366,4.366,0,0,1,.96-2.944,3.132,3.132,0,0,1,2.5-1.12,3.154,3.154,0,0,1,2.688,1.44v-4.192H44.3ZM40.912-.56A2.967,2.967,0,0,0,42.4-.96a2.848,2.848,0,0,0,1.056-.976V-5.76a2.857,2.857,0,0,0-1.056-1,2.922,2.922,0,0,0-1.488-.408,2.37,2.37,0,0,0-1.976.936,3.755,3.755,0,0,0-.728,2.376,3.721,3.721,0,0,0,.728,2.368A2.378,2.378,0,0,0,40.912-.56ZM49.2.192a3.821,3.821,0,0,1-2.976-1.216l.5-.624a3.044,3.044,0,0,0,1.056.816,3.24,3.24,0,0,0,1.44.32,2.369,2.369,0,0,0,1.5-.44,1.372,1.372,0,0,0,.56-1.128,1.063,1.063,0,0,0-.5-.92,3.606,3.606,0,0,0-1.216-.512q-.712-.168-1.432-.368A2.934,2.934,0,0,1,46.9-4.544a1.594,1.594,0,0,1-.5-1.232A1.908,1.908,0,0,1,47.144-7.3a3.052,3.052,0,0,1,2.008-.616A3.541,3.541,0,0,1,51.92-6.784l-.464.592a2.67,2.67,0,0,0-2.3-1.024,2.274,2.274,0,0,0-1.408.4,1.217,1.217,0,0,0-.528,1.008.932.932,0,0,0,.5.832,4.223,4.223,0,0,0,1.216.472q.712.168,1.432.376a2.76,2.76,0,0,1,1.224.72,1.812,1.812,0,0,1,.5,1.328,2.048,2.048,0,0,1-.752,1.632A3.216,3.216,0,0,1,49.2.192ZM59.984,0h-.832V-.912a3.388,3.388,0,0,1-2.624,1.1A2.823,2.823,0,0,1,54.64-.5a2.344,2.344,0,0,1-.816-1.88,2.325,2.325,0,0,1,.808-1.88,2.853,2.853,0,0,1,1.9-.68,3.357,3.357,0,0,1,2.624,1.1V-5.408a1.576,1.576,0,0,0-.592-1.3,2.312,2.312,0,0,0-1.488-.472,3.091,3.091,0,0,0-2.416,1.136l-.464-.576a3.892,3.892,0,0,1,2.976-1.3A3.164,3.164,0,0,1,59.2-7.3a2.229,2.229,0,0,1,.784,1.856ZM56.816-.464A2.777,2.777,0,0,0,59.152-1.52v-1.7a2.787,2.787,0,0,0-2.336-1.072,2.152,2.152,0,0,0-1.528.544A1.8,1.8,0,0,0,54.7-2.368,1.775,1.775,0,0,0,55.288-1,2.171,2.171,0,0,0,56.816-.464ZM63.408,0h-.832V-10.672h.832Zm6.016.192A3.686,3.686,0,0,1,66.64-.944a4.059,4.059,0,0,1-1.088-2.928,4.126,4.126,0,0,1,1.064-2.872A3.442,3.442,0,0,1,69.28-7.92a3.287,3.287,0,0,1,2.672,1.176,4.419,4.419,0,0,1,.976,2.92V-3.6H66.464a3.354,3.354,0,0,0,.88,2.192,2.787,2.787,0,0,0,2.144.88A3.293,3.293,0,0,0,72.016-1.6l.432.544A4.018,4.018,0,0,1,69.424.192ZM72.08-4.256a3.256,3.256,0,0,0-.744-2.032A2.5,2.5,0,0,0,69.264-7.2a2.465,2.465,0,0,0-2.008.9,3.359,3.359,0,0,0-.792,2.04Z" transform="translate(828 2235)"/>
    <g id="Group_1550" data-name="Group 1550" transform="translate(-156 -81)">
      <g id="Group_1572" data-name="Group 1572" transform="translate(546.755 2183.755)">
        <path id="Path_3895" data-name="Path 3895" class="cls-1" d="M143.5,330.489A165.245,165.245,0,1,0,143.5,0c-2.555,0-5.111,0-7.666.17V165.245L30.9,286.2a164.68,164.68,0,0,0,112.6,44.292" transform="translate(21.74)"/>
        <path id="Path_3896" data-name="Path 3896" class="cls-3" d="M.8,118.194a164.519,164.519,0,0,0,51.277,99.658L157.016,96.9Z" transform="translate(0.563 68.174)"/>
        <path id="Path_3897" data-name="Path 3897" class="cls-2" d="M9.029,65.3A166.271,166.271,0,0,0,0,119.3a171.443,171.443,0,0,0,1.363,21.124L157.579,119.3Z" transform="translate(0 45.942)"/>
        <path id="Path_3898" data-name="Path 3898" class="cls-4" d="M41.075,30.87l-.17-.17A165.233,165.233,0,0,0,5.3,89.643l148.55,54Z" transform="translate(3.729 21.599)"/>
        <path id="Path_3899" data-name="Path 3899" class="cls-5" d="M50.8,19.861l5.111,10.392,65.928,134.921V.1A163.9,163.9,0,0,0,50.8,19.861Z" transform="translate(35.74 0.07)"/>
        <path id="Path_3900" data-name="Path 3900" class="cls-1" d="M27.222,30A7.409,7.409,0,0,0,26.2,31.192l.17.17Z" transform="translate(18.433 21.107)"/>
        <path id="Path_3901" data-name="Path 3901" class="cls-6" d="M73.048,22.092,67.937,11.7A165.729,165.729,0,0,0,27.052,42.875L26.2,44.238,139.146,157.013Z" transform="translate(18.433 8.232)"/>
      </g>
      <path id="Path_3902" data-name="Path 3902" class="cls-8" d="M145.681,0A145.681,145.681,0,1,1,0,145.681,145.681,145.681,0,0,1,145.681,0Z" transform="translate(566 2203)"/>
      <path id="Path_3903" data-name="Path 3903" class="cls-9" d="M-39.328,0h-1.024V-20.384h-7.2v-.96H-32.1v.96h-7.232ZM-25.92.384a6.542,6.542,0,0,1-5.2-2.32,8.58,8.58,0,0,1-2-5.808,8.534,8.534,0,0,1,2-5.776,6.542,6.542,0,0,1,5.2-2.32,6.549,6.549,0,0,1,5.216,2.3A8.561,8.561,0,0,1-18.72-7.744,8.623,8.623,0,0,1-20.7-1.936,6.53,6.53,0,0,1-25.92.384Zm0-.864a5.38,5.38,0,0,0,4.5-2.128,8.137,8.137,0,0,0,1.648-5.136,8.088,8.088,0,0,0-1.648-5.1,5.38,5.38,0,0,0-4.5-2.128,5.391,5.391,0,0,0-4.48,2.128,8.036,8.036,0,0,0-1.664,5.1A8.085,8.085,0,0,0-30.4-2.608,5.391,5.391,0,0,0-25.92-.48ZM-1.728,0H-3.1L-9.888-7.776l-3.2,2.944V0h-.96V-21.344h.96v15.3l10.08-9.408h1.376L-9.152-8.48Zm10.3.384A7.106,7.106,0,0,1,3.1-1.9,8.273,8.273,0,0,1,.992-7.744a8.364,8.364,0,0,1,2.08-5.744A6.638,6.638,0,0,1,8.256-15.84a6.408,6.408,0,0,1,5.28,2.336,8.869,8.869,0,0,1,1.888,5.76v.32H2.08A7.432,7.432,0,0,0,3.92-2.48a5.929,5.929,0,0,0,4.656,2,7.054,7.054,0,0,0,5.376-2.336l.576.608A7.98,7.98,0,0,1,8.576.384ZM14.4-8.288a7.663,7.663,0,0,0-.64-3.056,6.223,6.223,0,0,0-2.1-2.56,5.643,5.643,0,0,0-3.44-1.072,5.333,5.333,0,0,0-4.416,2.064A7.757,7.757,0,0,0,2.08-8.288ZM31.488,0h-.96V-10.784A4.277,4.277,0,0,0,29.5-14.032a4.241,4.241,0,0,0-2.976-.944,6.307,6.307,0,0,0-3.072.848,7.063,7.063,0,0,0-2.4,2.064V0H20.1V-15.456h.96v2.432a8.337,8.337,0,0,1,2.5-1.968,6.486,6.486,0,0,1,3.1-.848,4.947,4.947,0,0,1,3.616,1.2,5.24,5.24,0,0,1,1.216,3.856Zm9.824.384A7.141,7.141,0,0,1,35.648-2.08l.768-.7a5.759,5.759,0,0,0,4.9,2.3A5.139,5.139,0,0,0,44.64-1.488a3.167,3.167,0,0,0,1.248-2.576,2.464,2.464,0,0,0-1.024-2.08,6.9,6.9,0,0,0-2.48-1.136q-1.456-.368-2.912-.768a6.2,6.2,0,0,1-2.48-1.3,3.029,3.029,0,0,1-1.024-2.4,3.65,3.65,0,0,1,1.408-2.928,5.834,5.834,0,0,1,3.84-1.168A6.333,6.333,0,0,1,46.528-13.5l-.7.64a5.226,5.226,0,0,0-4.608-2.112,4.92,4.92,0,0,0-3.136.912,2.835,2.835,0,0,0-1.152,2.32,2.145,2.145,0,0,0,1.024,1.872,7.623,7.623,0,0,0,2.48,1.04q1.456.352,2.912.768a5.865,5.865,0,0,1,2.48,1.392,3.434,3.434,0,0,1,1.024,2.608A4.076,4.076,0,0,1,45.424-.88,6,6,0,0,1,41.312.384ZM-66.88,32h-6.336V10.656h6.336a10.051,10.051,0,0,1,7.712,3.12,10.689,10.689,0,0,1,2.912,7.568,10.65,10.65,0,0,1-2.9,7.568A10.092,10.092,0,0,1-66.88,32Zm0-.96a9.012,9.012,0,0,0,6.96-2.752,9.833,9.833,0,0,0,2.544-6.944,9.869,9.869,0,0,0-2.56-6.944,8.97,8.97,0,0,0-6.944-2.784h-5.312V31.04Zm15.968-17.152a.912.912,0,0,1-.64-.272.87.87,0,0,1-.288-.656.87.87,0,0,1,.288-.656.912.912,0,0,1,.64-.272.894.894,0,0,1,.656.272.894.894,0,0,1,.272.656.894.894,0,0,1-.272.656A.894.894,0,0,1-50.912,13.888ZM-50.432,32h-.96V16.544h.96Zm9.824.384a7.141,7.141,0,0,1-5.664-2.464l.768-.7a5.759,5.759,0,0,0,4.9,2.3,5.139,5.139,0,0,0,3.328-1.008,3.167,3.167,0,0,0,1.248-2.576,2.464,2.464,0,0,0-1.024-2.08,6.9,6.9,0,0,0-2.48-1.136q-1.456-.368-2.912-.768a6.2,6.2,0,0,1-2.48-1.3,3.029,3.029,0,0,1-1.024-2.4,3.65,3.65,0,0,1,1.408-2.928A5.834,5.834,0,0,1-40.7,16.16,6.333,6.333,0,0,1-35.392,18.5l-.7.64A5.226,5.226,0,0,0-40.7,17.024a4.92,4.92,0,0,0-3.136.912,2.835,2.835,0,0,0-1.152,2.32,2.145,2.145,0,0,0,1.024,1.872,7.623,7.623,0,0,0,2.48,1.04q1.456.352,2.912.768a5.865,5.865,0,0,1,2.48,1.392,3.434,3.434,0,0,1,1.024,2.608A4.076,4.076,0,0,1-36.5,31.12,6,6,0,0,1-40.608,32.384Zm13.024,0q-2.624,0-2.624-3.1V17.408h-2.56v-.864h2.56V12.32h.96v4.224h3.136v.864h-3.136V29.28q0,2.24,1.664,2.24a2.278,2.278,0,0,0,1.824-.832l.576.736A3.4,3.4,0,0,1-27.584,32.384ZM-21.248,32h-.96V16.544h.96V19.36q2.336-3.1,5.312-3.1v1.152a7.284,7.284,0,0,0-.768-.032,4.7,4.7,0,0,0-2.592.96,5.557,5.557,0,0,0-1.952,2.08ZM-12,13.888a.912.912,0,0,1-.64-.272.87.87,0,0,1-.288-.656.87.87,0,0,1,.288-.656.912.912,0,0,1,.64-.272.894.894,0,0,1,.656.272.894.894,0,0,1,.272.656.894.894,0,0,1-.272.656A.894.894,0,0,1-12,13.888ZM-11.52,32h-.96V16.544h.96Zm6.464-3.552a6.314,6.314,0,0,0,2.3,2.176,6.375,6.375,0,0,0,3.264.9,5.112,5.112,0,0,0,4.3-2.032,8.325,8.325,0,0,0,1.552-5.2,8.4,8.4,0,0,0-1.552-5.216,5.1,5.1,0,0,0-4.3-2.048,6.209,6.209,0,0,0-3.264.928,6.565,6.565,0,0,0-2.3,2.208Zm0,3.552h-.96V10.656h.96V19.2A7.085,7.085,0,0,1-2.64,16.976,6.341,6.341,0,0,1,.512,16.16,6.252,6.252,0,0,1,5.52,18.4a8.78,8.78,0,0,1,1.9,5.888,8.752,8.752,0,0,1-1.888,5.888A6.28,6.28,0,0,1,.512,32.384a6.474,6.474,0,0,1-3.232-.848,6.558,6.558,0,0,1-2.336-2.128Zm28.544,0h-.96V29.632a8.9,8.9,0,0,1-2.56,1.968,6.516,6.516,0,0,1-3.04.784,5.032,5.032,0,0,1-3.616-1.168A5.124,5.124,0,0,1,12.1,27.392V16.544h.96V27.392a4.164,4.164,0,0,0,1.024,3.216,4.339,4.339,0,0,0,2.976.912,6.59,6.59,0,0,0,3.088-.816,6.579,6.579,0,0,0,2.384-2V16.544h.96Zm8.32.384q-2.624,0-2.624-3.1V17.408h-2.56v-.864h2.56V12.32h.96v4.224H33.28v.864H30.144V29.28q0,2.24,1.664,2.24a2.278,2.278,0,0,0,1.824-.832l.576.736A3.4,3.4,0,0,1,31.808,32.384Zm5.856-18.5a.912.912,0,0,1-.64-.272.891.891,0,0,1,0-1.312.912.912,0,0,1,.64-.272.928.928,0,0,1,0,1.856ZM38.144,32h-.96V16.544h.96Zm11.872.384a6.542,6.542,0,0,1-5.2-2.32,8.58,8.58,0,0,1-2-5.808,8.534,8.534,0,0,1,2-5.776,7.022,7.022,0,0,1,10.416-.016,8.561,8.561,0,0,1,1.984,5.792,8.623,8.623,0,0,1-1.984,5.808A6.53,6.53,0,0,1,50.016,32.384Zm0-.864a5.38,5.38,0,0,0,4.5-2.128,8.137,8.137,0,0,0,1.648-5.136,8.088,8.088,0,0,0-1.648-5.1,5.8,5.8,0,0,0-8.976,0,8.036,8.036,0,0,0-1.664,5.1,8.085,8.085,0,0,0,1.664,5.136A5.391,5.391,0,0,0,50.016,31.52ZM73.28,32h-.96V21.216A4.277,4.277,0,0,0,71.3,17.968a4.241,4.241,0,0,0-2.976-.944,6.307,6.307,0,0,0-3.072.848,7.063,7.063,0,0,0-2.4,2.064V32h-.96V16.544h.96v2.432a8.337,8.337,0,0,1,2.5-1.968,6.486,6.486,0,0,1,3.1-.848,4.947,4.947,0,0,1,3.616,1.2,5.24,5.24,0,0,1,1.216,3.856Z" transform="translate(711.216 2343.344)"/>
    </g>
  </g>
</svg>
