<svg xmlns="http://www.w3.org/2000/svg" xmlns:xlink="http://www.w3.org/1999/xlink" viewBox="1368.901 828.152 820.599 448.052">
  <defs>
    <style>
      .cls-1, .cls-5, .cls-8 {
        fill: none;
      }

      .cls-2, .cls-3 {
        fill: #2a2e3d;
      }

      .cls-3 {
        opacity: 0.7;
      }

      .cls-4, .cls-8 {
        opacity: 0.2;
      }

      .cls-4 {
        clip-path: url(#clip-path);
      }

      .cls-5, .cls-8 {
        stroke: #c9c9c9;
      }

      .cls-6 {
        fill: #352c6d;
      }

      .cls-7 {
        fill: #d9d8e4;
      }

      .cls-9 {
        fill: #fff;
      }
    </style>
    <clipPath id="clip-path">
      <rect class="cls-1" width="708" height="418"/>
    </clipPath>
  </defs>
  <g id="Total_Revenue" data-name="Total Revenue" transform="translate(998 -4148)">
    <path id="Path_3120" data-name="Path 3120" class="cls-2" d="M8.7,0H.918V-1.122Q2.686-2.516,3.664-3.341T5.551-5.092A7.281,7.281,0,0,0,6.834-6.741a3.1,3.1,0,0,0,.374-1.437,1.819,1.819,0,0,0-.7-1.547,2.683,2.683,0,0,0-1.666-.527A3.7,3.7,0,0,0,1.768-8.823L.9-9.724a4.267,4.267,0,0,1,1.691-1.317,5.454,5.454,0,0,1,2.253-.468,4.272,4.272,0,0,1,2.678.867,2.923,2.923,0,0,1,1.13,2.465,4.84,4.84,0,0,1-1.36,3.154A30.882,30.882,0,0,1,3.145-1.258H8.7ZM15.2.2a3.755,3.755,0,0,1-1.981-.519A3.84,3.84,0,0,1,11.858-1.7a7.1,7.1,0,0,1-.748-1.87,8.731,8.731,0,0,1-.247-2.091,8.731,8.731,0,0,1,.247-2.091,6.963,6.963,0,0,1,.748-1.862,3.861,3.861,0,0,1,1.36-1.377,3.755,3.755,0,0,1,1.981-.519,3.767,3.767,0,0,1,1.972.519,3.839,3.839,0,0,1,1.368,1.377,6.963,6.963,0,0,1,.748,1.862,8.731,8.731,0,0,1,.247,2.091,8.731,8.731,0,0,1-.247,2.091,7.1,7.1,0,0,1-.748,1.87A3.818,3.818,0,0,1,17.17-.315,3.767,3.767,0,0,1,15.2.2ZM13.5-1.76a2.264,2.264,0,0,0,1.7.706,2.264,2.264,0,0,0,1.7-.706,3.742,3.742,0,0,0,.935-1.692,8.835,8.835,0,0,0,.255-2.21,8.835,8.835,0,0,0-.255-2.21A3.684,3.684,0,0,0,16.9-9.554a2.277,2.277,0,0,0-1.7-.7,2.277,2.277,0,0,0-1.7.7,3.684,3.684,0,0,0-.935,1.683,8.835,8.835,0,0,0-.255,2.21,8.835,8.835,0,0,0,.255,2.21A3.742,3.742,0,0,0,13.5-1.76ZM24.837,0H23.426V-9.469L21.607-7.548l-.85-.867L23.6-11.339h1.241Zm5.9.187a3.975,3.975,0,0,1-3.145-1.36l.714-1.054a3.074,3.074,0,0,0,2.431,1.156,2.629,2.629,0,0,0,1.836-.68A3.693,3.693,0,0,0,33.626-3.4a6.968,6.968,0,0,0,.306-2.108,4.532,4.532,0,0,0-.017-.459,3.924,3.924,0,0,1-1.309,1.224,3.539,3.539,0,0,1-1.887.544,3.852,3.852,0,0,1-2.669-.943A3.407,3.407,0,0,1,27-7.82a3.569,3.569,0,0,1,1.088-2.618,3.884,3.884,0,0,1,2.873-1.088,4.138,4.138,0,0,1,2.023.476,3.575,3.575,0,0,1,1.368,1.309A6.551,6.551,0,0,1,35.1-7.888a9.473,9.473,0,0,1,.246,2.227,8.24,8.24,0,0,1-.476,2.882A4.778,4.778,0,0,1,33.329-.655,4.046,4.046,0,0,1,30.736.187Zm.306-5.61a3.106,3.106,0,0,0,1.607-.459,3.356,3.356,0,0,0,1.215-1.224,4.243,4.243,0,0,0-.8-2.21,2.37,2.37,0,0,0-2.04-.952,2.476,2.476,0,0,0-1.9.748,2.369,2.369,0,0,0-.7,1.649,2.268,2.268,0,0,0,.731,1.819A2.79,2.79,0,0,0,31.042-5.423Z" transform="translate(532 5424)"/>
    <path id="Path_3115" data-name="Path 3115" class="cls-3" d="M4.437,0H3.026V-9.469L1.207-7.548l-.85-.867L3.2-11.339H4.437ZM15.351.2a3.755,3.755,0,0,1-1.981-.519A3.84,3.84,0,0,1,12.01-1.7a7.1,7.1,0,0,1-.748-1.87,8.731,8.731,0,0,1-.247-2.091,8.731,8.731,0,0,1,.247-2.091,6.963,6.963,0,0,1,.748-1.862,3.861,3.861,0,0,1,1.36-1.377,3.755,3.755,0,0,1,1.981-.519,3.767,3.767,0,0,1,1.972.519,3.839,3.839,0,0,1,1.368,1.377,6.963,6.963,0,0,1,.748,1.862,8.731,8.731,0,0,1,.247,2.091A8.731,8.731,0,0,1,19.44-3.57a7.1,7.1,0,0,1-.748,1.87A3.818,3.818,0,0,1,17.323-.315,3.767,3.767,0,0,1,15.351.2Zm-1.7-1.964a2.264,2.264,0,0,0,1.7.706,2.264,2.264,0,0,0,1.7-.706,3.742,3.742,0,0,0,.935-1.692,8.835,8.835,0,0,0,.255-2.21,8.835,8.835,0,0,0-.255-2.21,3.684,3.684,0,0,0-.935-1.683,2.277,2.277,0,0,0-1.7-.7,2.277,2.277,0,0,0-1.7.7,3.684,3.684,0,0,0-.935,1.683,8.835,8.835,0,0,0-.255,2.21,8.835,8.835,0,0,0,.255,2.21A3.742,3.742,0,0,0,13.651-1.76ZM25.755.2a3.755,3.755,0,0,1-1.98-.519A3.84,3.84,0,0,1,22.415-1.7a7.1,7.1,0,0,1-.748-1.87,8.731,8.731,0,0,1-.247-2.091,8.731,8.731,0,0,1,.247-2.091,6.963,6.963,0,0,1,.748-1.862,3.861,3.861,0,0,1,1.36-1.377,3.755,3.755,0,0,1,1.98-.519,3.767,3.767,0,0,1,1.972.519A3.839,3.839,0,0,1,29.1-9.614a6.963,6.963,0,0,1,.748,1.862,8.731,8.731,0,0,1,.247,2.091,8.731,8.731,0,0,1-.247,2.091A7.1,7.1,0,0,1,29.1-1.7,3.818,3.818,0,0,1,27.727-.315,3.767,3.767,0,0,1,25.755.2Zm-1.7-1.964a2.264,2.264,0,0,0,1.7.706,2.264,2.264,0,0,0,1.7-.706,3.742,3.742,0,0,0,.935-1.692,8.835,8.835,0,0,0,.255-2.21,8.835,8.835,0,0,0-.255-2.21,3.684,3.684,0,0,0-.935-1.683,2.277,2.277,0,0,0-1.7-.7,2.277,2.277,0,0,0-1.7.7,3.684,3.684,0,0,0-.935,1.683,8.835,8.835,0,0,0-.255,2.21,8.835,8.835,0,0,0,.255,2.21A3.742,3.742,0,0,0,24.055-1.76ZM36.159.2a3.755,3.755,0,0,1-1.98-.519A3.84,3.84,0,0,1,32.819-1.7a7.1,7.1,0,0,1-.748-1.87,8.731,8.731,0,0,1-.246-2.091,8.731,8.731,0,0,1,.246-2.091,6.963,6.963,0,0,1,.748-1.862,3.861,3.861,0,0,1,1.36-1.377,3.755,3.755,0,0,1,1.98-.519,3.767,3.767,0,0,1,1.972.519A3.839,3.839,0,0,1,39.5-9.614a6.963,6.963,0,0,1,.748,1.862,8.731,8.731,0,0,1,.247,2.091,8.731,8.731,0,0,1-.247,2.091A7.1,7.1,0,0,1,39.5-1.7,3.818,3.818,0,0,1,38.131-.315,3.767,3.767,0,0,1,36.159.2Zm-1.7-1.964a2.264,2.264,0,0,0,1.7.706,2.264,2.264,0,0,0,1.7-.706,3.742,3.742,0,0,0,.935-1.692,8.835,8.835,0,0,0,.255-2.21,8.835,8.835,0,0,0-.255-2.21,3.684,3.684,0,0,0-.935-1.683,2.277,2.277,0,0,0-1.7-.7,2.277,2.277,0,0,0-1.7.7,3.684,3.684,0,0,0-.935,1.683,8.835,8.835,0,0,0-.255,2.21,8.835,8.835,0,0,0,.255,2.21A3.742,3.742,0,0,0,34.459-1.76ZM50.949.2a3.755,3.755,0,0,1-1.98-.519A3.84,3.84,0,0,1,47.609-1.7a7.1,7.1,0,0,1-.748-1.87,8.731,8.731,0,0,1-.246-2.091,8.731,8.731,0,0,1,.246-2.091,6.963,6.963,0,0,1,.748-1.862,3.861,3.861,0,0,1,1.36-1.377,3.755,3.755,0,0,1,1.98-.519,3.767,3.767,0,0,1,1.972.519A3.839,3.839,0,0,1,54.29-9.614a6.963,6.963,0,0,1,.748,1.862,8.731,8.731,0,0,1,.247,2.091,8.731,8.731,0,0,1-.247,2.091A7.1,7.1,0,0,1,54.29-1.7,3.818,3.818,0,0,1,52.921-.315,3.767,3.767,0,0,1,50.949.2Zm-1.7-1.964a2.264,2.264,0,0,0,1.7.706,2.264,2.264,0,0,0,1.7-.706,3.742,3.742,0,0,0,.935-1.692,8.835,8.835,0,0,0,.255-2.21,8.835,8.835,0,0,0-.255-2.21,3.684,3.684,0,0,0-.935-1.683,2.277,2.277,0,0,0-1.7-.7,2.277,2.277,0,0,0-1.7.7,3.684,3.684,0,0,0-.935,1.683,8.835,8.835,0,0,0-.255,2.21,8.835,8.835,0,0,0,.255,2.21A3.742,3.742,0,0,0,49.249-1.76ZM61.353.2a3.755,3.755,0,0,1-1.98-.519A3.84,3.84,0,0,1,58.013-1.7a7.1,7.1,0,0,1-.748-1.87,8.731,8.731,0,0,1-.246-2.091,8.731,8.731,0,0,1,.246-2.091,6.963,6.963,0,0,1,.748-1.862,3.861,3.861,0,0,1,1.36-1.377,3.755,3.755,0,0,1,1.98-.519,3.767,3.767,0,0,1,1.972.519,3.839,3.839,0,0,1,1.368,1.377,6.963,6.963,0,0,1,.748,1.862,8.731,8.731,0,0,1,.247,2.091,8.731,8.731,0,0,1-.247,2.091,7.1,7.1,0,0,1-.748,1.87A3.818,3.818,0,0,1,63.325-.315,3.767,3.767,0,0,1,61.353.2Zm-1.7-1.964a2.264,2.264,0,0,0,1.7.706,2.264,2.264,0,0,0,1.7-.706,3.742,3.742,0,0,0,.935-1.692,8.836,8.836,0,0,0,.255-2.21,8.836,8.836,0,0,0-.255-2.21,3.684,3.684,0,0,0-.935-1.683,2.277,2.277,0,0,0-1.7-.7,2.277,2.277,0,0,0-1.7.7,3.684,3.684,0,0,0-.935,1.683,8.835,8.835,0,0,0-.255,2.21,8.835,8.835,0,0,0,.255,2.21A3.742,3.742,0,0,0,59.653-1.76ZM71.757.2a3.755,3.755,0,0,1-1.981-.519A3.84,3.84,0,0,1,68.417-1.7a7.1,7.1,0,0,1-.748-1.87,8.731,8.731,0,0,1-.247-2.091,8.731,8.731,0,0,1,.247-2.091,6.963,6.963,0,0,1,.748-1.862,3.861,3.861,0,0,1,1.36-1.377,3.755,3.755,0,0,1,1.981-.519,3.767,3.767,0,0,1,1.972.519A3.839,3.839,0,0,1,75.1-9.614a6.963,6.963,0,0,1,.748,1.862,8.731,8.731,0,0,1,.246,2.091,8.731,8.731,0,0,1-.246,2.091A7.1,7.1,0,0,1,75.1-1.7,3.818,3.818,0,0,1,73.729-.315,3.767,3.767,0,0,1,71.757.2Zm-1.7-1.964a2.264,2.264,0,0,0,1.7.706,2.264,2.264,0,0,0,1.7-.706,3.742,3.742,0,0,0,.935-1.692,8.835,8.835,0,0,0,.255-2.21,8.835,8.835,0,0,0-.255-2.21,3.684,3.684,0,0,0-.935-1.683,2.277,2.277,0,0,0-1.7-.7,2.277,2.277,0,0,0-1.7.7,3.684,3.684,0,0,0-.935,1.683,8.835,8.835,0,0,0-.255,2.21,8.835,8.835,0,0,0,.255,2.21A3.742,3.742,0,0,0,70.057-1.76Z" transform="translate(385 5349)"/>
    <path id="Path_3106" data-name="Path 3106" class="cls-3" d="M8.7,0H.918V-1.122Q2.686-2.516,3.664-3.341T5.551-5.092A7.281,7.281,0,0,0,6.834-6.741a3.1,3.1,0,0,0,.374-1.437,1.819,1.819,0,0,0-.7-1.547,2.683,2.683,0,0,0-1.666-.527A3.7,3.7,0,0,0,1.768-8.823L.9-9.724a4.267,4.267,0,0,1,1.691-1.317,5.454,5.454,0,0,1,2.253-.468,4.272,4.272,0,0,1,2.678.867,2.923,2.923,0,0,1,1.13,2.465,4.84,4.84,0,0,1-1.36,3.154A30.882,30.882,0,0,1,3.145-1.258H8.7Zm10.88.2A3.755,3.755,0,0,1,17.6-.315,3.84,3.84,0,0,1,16.243-1.7,7.1,7.1,0,0,1,15.5-3.57a8.731,8.731,0,0,1-.247-2.091A8.731,8.731,0,0,1,15.5-7.752a6.963,6.963,0,0,1,.748-1.862,3.861,3.861,0,0,1,1.36-1.377,3.755,3.755,0,0,1,1.98-.519,3.767,3.767,0,0,1,1.972.519,3.839,3.839,0,0,1,1.368,1.377,6.963,6.963,0,0,1,.748,1.862,8.731,8.731,0,0,1,.247,2.091,8.731,8.731,0,0,1-.247,2.091,7.1,7.1,0,0,1-.748,1.87A3.818,3.818,0,0,1,21.556-.315,3.767,3.767,0,0,1,19.584.2Zm-1.7-1.964a2.264,2.264,0,0,0,1.7.706,2.264,2.264,0,0,0,1.7-.706,3.742,3.742,0,0,0,.935-1.692,8.835,8.835,0,0,0,.255-2.21,8.835,8.835,0,0,0-.255-2.21,3.684,3.684,0,0,0-.935-1.683,2.277,2.277,0,0,0-1.7-.7,2.277,2.277,0,0,0-1.7.7,3.684,3.684,0,0,0-.935,1.683,8.835,8.835,0,0,0-.255,2.21,8.835,8.835,0,0,0,.255,2.21A3.742,3.742,0,0,0,17.884-1.76ZM29.988.2a3.755,3.755,0,0,1-1.98-.519A3.84,3.84,0,0,1,26.647-1.7,7.1,7.1,0,0,1,25.9-3.57a8.731,8.731,0,0,1-.247-2.091A8.731,8.731,0,0,1,25.9-7.752a6.963,6.963,0,0,1,.748-1.862,3.861,3.861,0,0,1,1.36-1.377,3.755,3.755,0,0,1,1.98-.519,3.767,3.767,0,0,1,1.972.519,3.839,3.839,0,0,1,1.368,1.377,6.963,6.963,0,0,1,.748,1.862,8.731,8.731,0,0,1,.246,2.091,8.731,8.731,0,0,1-.246,2.091,7.1,7.1,0,0,1-.748,1.87A3.818,3.818,0,0,1,31.96-.315,3.767,3.767,0,0,1,29.988.2Zm-1.7-1.964a2.264,2.264,0,0,0,1.7.706,2.264,2.264,0,0,0,1.7-.706,3.742,3.742,0,0,0,.935-1.692,8.835,8.835,0,0,0,.255-2.21,8.835,8.835,0,0,0-.255-2.21,3.684,3.684,0,0,0-.935-1.683,2.277,2.277,0,0,0-1.7-.7,2.277,2.277,0,0,0-1.7.7,3.684,3.684,0,0,0-.935,1.683,8.835,8.835,0,0,0-.255,2.21,8.835,8.835,0,0,0,.255,2.21A3.742,3.742,0,0,0,28.288-1.76ZM40.392.2a3.755,3.755,0,0,1-1.98-.519A3.84,3.84,0,0,1,37.051-1.7,7.1,7.1,0,0,1,36.3-3.57a8.731,8.731,0,0,1-.246-2.091A8.731,8.731,0,0,1,36.3-7.752a6.963,6.963,0,0,1,.748-1.862,3.861,3.861,0,0,1,1.36-1.377,3.755,3.755,0,0,1,1.98-.519,3.767,3.767,0,0,1,1.972.519,3.839,3.839,0,0,1,1.368,1.377,6.963,6.963,0,0,1,.748,1.862,8.731,8.731,0,0,1,.246,2.091A8.731,8.731,0,0,1,44.48-3.57a7.1,7.1,0,0,1-.748,1.87A3.818,3.818,0,0,1,42.364-.315,3.767,3.767,0,0,1,40.392.2Zm-1.7-1.964a2.264,2.264,0,0,0,1.7.706,2.264,2.264,0,0,0,1.7-.706,3.742,3.742,0,0,0,.935-1.692,8.835,8.835,0,0,0,.255-2.21,8.835,8.835,0,0,0-.255-2.21,3.684,3.684,0,0,0-.935-1.683,2.277,2.277,0,0,0-1.7-.7,2.277,2.277,0,0,0-1.7.7,3.684,3.684,0,0,0-.935,1.683,8.835,8.835,0,0,0-.255,2.21,8.835,8.835,0,0,0,.255,2.21A3.742,3.742,0,0,0,38.692-1.76ZM55.182.2A3.755,3.755,0,0,1,53.2-.315,3.84,3.84,0,0,1,51.841-1.7a7.1,7.1,0,0,1-.748-1.87,8.731,8.731,0,0,1-.246-2.091,8.731,8.731,0,0,1,.246-2.091,6.963,6.963,0,0,1,.748-1.862,3.861,3.861,0,0,1,1.36-1.377,3.755,3.755,0,0,1,1.98-.519,3.767,3.767,0,0,1,1.972.519,3.839,3.839,0,0,1,1.368,1.377,6.963,6.963,0,0,1,.748,1.862,8.731,8.731,0,0,1,.246,2.091,8.731,8.731,0,0,1-.246,2.091,7.1,7.1,0,0,1-.748,1.87A3.818,3.818,0,0,1,57.154-.315,3.767,3.767,0,0,1,55.182.2Zm-1.7-1.964a2.264,2.264,0,0,0,1.7.706,2.264,2.264,0,0,0,1.7-.706,3.742,3.742,0,0,0,.935-1.692,8.835,8.835,0,0,0,.255-2.21,8.835,8.835,0,0,0-.255-2.21,3.684,3.684,0,0,0-.935-1.683,2.277,2.277,0,0,0-1.7-.7,2.277,2.277,0,0,0-1.7.7,3.684,3.684,0,0,0-.935,1.683,8.835,8.835,0,0,0-.255,2.21,8.835,8.835,0,0,0,.255,2.21A3.742,3.742,0,0,0,53.482-1.76ZM65.586.2a3.755,3.755,0,0,1-1.98-.519A3.84,3.84,0,0,1,62.245-1.7,7.1,7.1,0,0,1,61.5-3.57a8.731,8.731,0,0,1-.246-2.091A8.731,8.731,0,0,1,61.5-7.752a6.963,6.963,0,0,1,.748-1.862,3.861,3.861,0,0,1,1.36-1.377,3.755,3.755,0,0,1,1.98-.519,3.767,3.767,0,0,1,1.972.519,3.839,3.839,0,0,1,1.368,1.377,6.963,6.963,0,0,1,.748,1.862,8.731,8.731,0,0,1,.246,2.091,8.731,8.731,0,0,1-.246,2.091,7.1,7.1,0,0,1-.748,1.87A3.818,3.818,0,0,1,67.558-.315,3.767,3.767,0,0,1,65.586.2Zm-1.7-1.964a2.264,2.264,0,0,0,1.7.706,2.264,2.264,0,0,0,1.7-.706,3.742,3.742,0,0,0,.935-1.692,8.835,8.835,0,0,0,.255-2.21,8.835,8.835,0,0,0-.255-2.21,3.684,3.684,0,0,0-.935-1.683,2.277,2.277,0,0,0-1.7-.7,2.277,2.277,0,0,0-1.7.7,3.684,3.684,0,0,0-.935,1.683,8.835,8.835,0,0,0-.255,2.21,8.835,8.835,0,0,0,.255,2.21A3.742,3.742,0,0,0,63.886-1.76ZM75.99.2a3.755,3.755,0,0,1-1.981-.519A3.84,3.84,0,0,1,72.65-1.7,7.1,7.1,0,0,1,71.9-3.57a8.731,8.731,0,0,1-.247-2.091A8.731,8.731,0,0,1,71.9-7.752a6.963,6.963,0,0,1,.748-1.862,3.861,3.861,0,0,1,1.36-1.377,3.755,3.755,0,0,1,1.981-.519,3.767,3.767,0,0,1,1.972.519,3.839,3.839,0,0,1,1.368,1.377,6.963,6.963,0,0,1,.748,1.862,8.731,8.731,0,0,1,.246,2.091,8.731,8.731,0,0,1-.246,2.091,7.1,7.1,0,0,1-.748,1.87A3.818,3.818,0,0,1,77.962-.315,3.767,3.767,0,0,1,75.99.2ZM74.29-1.76a2.264,2.264,0,0,0,1.7.706,2.264,2.264,0,0,0,1.7-.706,3.742,3.742,0,0,0,.935-1.692,8.835,8.835,0,0,0,.255-2.21,8.835,8.835,0,0,0-.255-2.21,3.684,3.684,0,0,0-.935-1.683,2.277,2.277,0,0,0-1.7-.7,2.277,2.277,0,0,0-1.7.7,3.684,3.684,0,0,0-.935,1.683,8.835,8.835,0,0,0-.255,2.21,8.835,8.835,0,0,0,.255,2.21A3.742,3.742,0,0,0,74.29-1.76Z" transform="translate(381 5299)"/>
    <path id="Path_3107" data-name="Path 3107" class="cls-2" d="M8.528,0H.8V-1.472A47.252,47.252,0,0,0,5.352-5.224,3.449,3.449,0,0,0,6.56-7.536a1.418,1.418,0,0,0-.568-1.208,2.222,2.222,0,0,0-1.368-.424,3.652,3.652,0,0,0-2.88,1.28L.656-9.12a4.443,4.443,0,0,1,1.736-1.272,5.626,5.626,0,0,1,2.2-.44,4.317,4.317,0,0,1,2.752.88,2.9,2.9,0,0,1,1.12,2.416A4.239,4.239,0,0,1,7.312-4.8a22.51,22.51,0,0,1-3.52,3.152H8.528ZM20.48-.288a3.829,3.829,0,0,1-1.92.48,3.829,3.829,0,0,1-1.92-.48A3.689,3.689,0,0,1,15.3-1.568a6.493,6.493,0,0,1-.752-1.76,7.729,7.729,0,0,1-.256-2,7.729,7.729,0,0,1,.256-2A6.371,6.371,0,0,1,15.3-9.08a3.712,3.712,0,0,1,1.344-1.272,3.829,3.829,0,0,1,1.92-.48,3.829,3.829,0,0,1,1.92.48A3.712,3.712,0,0,1,21.824-9.08a6.371,6.371,0,0,1,.752,1.752,7.729,7.729,0,0,1,.256,2,7.729,7.729,0,0,1-.256,2,6.493,6.493,0,0,1-.752,1.76A3.689,3.689,0,0,1,20.48-.288ZM16.768-2.56A1.9,1.9,0,0,0,18.56-1.472,1.9,1.9,0,0,0,20.352-2.56a5.886,5.886,0,0,0,.576-2.768,7.6,7.6,0,0,0-.216-1.9,2.967,2.967,0,0,0-.768-1.384,1.877,1.877,0,0,0-1.384-.552,1.877,1.877,0,0,0-1.384.552,2.967,2.967,0,0,0-.768,1.384,7.6,7.6,0,0,0-.216,1.9A5.886,5.886,0,0,0,16.768-2.56ZM28.432,0H26.56V-8.24L24.816-6.432,23.728-7.568l3.072-3.1h1.632ZM37.24-.584a5.16,5.16,0,0,1-2.9.776,5.2,5.2,0,0,1-2.912-.776A2.44,2.44,0,0,1,30.24-2.736a2.389,2.389,0,0,1,.68-1.7A4.145,4.145,0,0,1,32.64-5.5a3.89,3.89,0,0,1-1.608-.944,2.161,2.161,0,0,1-.616-1.584A2.366,2.366,0,0,1,30.76-9.3a2.488,2.488,0,0,1,.912-.88,4.945,4.945,0,0,1,1.248-.488,5.883,5.883,0,0,1,1.416-.168,5.785,5.785,0,0,1,1.408.168,5.107,5.107,0,0,1,1.248.488,2.47,2.47,0,0,1,.92.88,2.366,2.366,0,0,1,.344,1.264q0,1.808-2.24,2.528a4.145,4.145,0,0,1,1.72,1.072,2.389,2.389,0,0,1,.68,1.7A2.443,2.443,0,0,1,37.24-.584Zm-2.9-5.656a5.942,5.942,0,0,0,.832-.216,2.372,2.372,0,0,0,.792-.48,1.045,1.045,0,0,0,.392-.808,1.2,1.2,0,0,0-.568-1.04,2.533,2.533,0,0,0-1.448-.384,2.563,2.563,0,0,0-1.464.384,1.2,1.2,0,0,0-.568,1.04,1.037,1.037,0,0,0,.4.808,2.454,2.454,0,0,0,.8.48A5.942,5.942,0,0,0,34.336-6.24Zm0,4.768a2.786,2.786,0,0,0,1.552-.416,1.253,1.253,0,0,0,.64-1.088,1.315,1.315,0,0,0-.744-1.16,3.67,3.67,0,0,0-1.448-.52,3.913,3.913,0,0,0-.88.216,2.719,2.719,0,0,0-.9.56,1.19,1.19,0,0,0-.432.9,1.255,1.255,0,0,0,.632,1.088A2.808,2.808,0,0,0,34.336-1.472Zm16.536.888a5.16,5.16,0,0,1-2.9.776,5.2,5.2,0,0,1-2.912-.776,2.44,2.44,0,0,1-1.184-2.152,2.389,2.389,0,0,1,.68-1.7A4.145,4.145,0,0,1,46.272-5.5a3.89,3.89,0,0,1-1.608-.944,2.161,2.161,0,0,1-.616-1.584A2.366,2.366,0,0,1,44.392-9.3a2.488,2.488,0,0,1,.912-.88,4.945,4.945,0,0,1,1.248-.488,5.883,5.883,0,0,1,1.416-.168,5.785,5.785,0,0,1,1.408.168,5.107,5.107,0,0,1,1.248.488,2.47,2.47,0,0,1,.92.88,2.366,2.366,0,0,1,.344,1.264q0,1.808-2.24,2.528a4.145,4.145,0,0,1,1.72,1.072,2.389,2.389,0,0,1,.68,1.7A2.443,2.443,0,0,1,50.872-.584Zm-2.9-5.656a5.942,5.942,0,0,0,.832-.216,2.372,2.372,0,0,0,.792-.48,1.045,1.045,0,0,0,.392-.808,1.2,1.2,0,0,0-.568-1.04,2.533,2.533,0,0,0-1.448-.384,2.563,2.563,0,0,0-1.464.384,1.2,1.2,0,0,0-.568,1.04,1.037,1.037,0,0,0,.4.808,2.454,2.454,0,0,0,.8.48A5.942,5.942,0,0,0,47.968-6.24Zm0,4.768a2.786,2.786,0,0,0,1.552-.416,1.253,1.253,0,0,0,.64-1.088,1.315,1.315,0,0,0-.744-1.16,3.67,3.67,0,0,0-1.448-.52,3.913,3.913,0,0,0-.88.216,2.719,2.719,0,0,0-.9.56,1.19,1.19,0,0,0-.432.9,1.255,1.255,0,0,0,.632,1.088A2.808,2.808,0,0,0,47.968-1.472ZM56.96.176A4.136,4.136,0,0,1,53.9-1.008l.864-1.408a2.93,2.93,0,0,0,2.192.928A2.4,2.4,0,0,0,59.048-2.52a4.178,4.178,0,0,0,.728-2.472v-.32a3.715,3.715,0,0,1-1.2,1.048,3.258,3.258,0,0,1-1.664.456A3.715,3.715,0,0,1,54.36-4.72a3.218,3.218,0,0,1-1.032-2.544,3.365,3.365,0,0,1,1.1-2.552,3.975,3.975,0,0,1,2.84-1.032,4.03,4.03,0,0,1,2.52.776,4.243,4.243,0,0,1,1.448,1.984,8.17,8.17,0,0,1,.432,2.76,6.16,6.16,0,0,1-1.232,3.952A4.179,4.179,0,0,1,56.96.176Zm.448-5.6A2.729,2.729,0,0,0,58.72-5.76a2.906,2.906,0,0,0,1.024-.912,3.218,3.218,0,0,0-.664-1.76,2.045,2.045,0,0,0-1.72-.752,2.1,2.1,0,0,0-1.552.576,1.774,1.774,0,0,0-.576,1.28,1.69,1.69,0,0,0,.624,1.416A2.442,2.442,0,0,0,57.408-5.424Zm12.6,4.84a5.16,5.16,0,0,1-2.9.776,5.2,5.2,0,0,1-2.912-.776,2.44,2.44,0,0,1-1.184-2.152,2.389,2.389,0,0,1,.68-1.7A4.145,4.145,0,0,1,65.408-5.5,3.89,3.89,0,0,1,63.8-6.448a2.161,2.161,0,0,1-.616-1.584A2.366,2.366,0,0,1,63.528-9.3a2.488,2.488,0,0,1,.912-.88,4.945,4.945,0,0,1,1.248-.488,5.883,5.883,0,0,1,1.416-.168,5.785,5.785,0,0,1,1.408.168,5.107,5.107,0,0,1,1.248.488,2.47,2.47,0,0,1,.92.88,2.366,2.366,0,0,1,.344,1.264q0,1.808-2.24,2.528A4.145,4.145,0,0,1,70.5-4.432a2.389,2.389,0,0,1,.68,1.7A2.443,2.443,0,0,1,70.008-.584ZM67.1-6.24a5.942,5.942,0,0,0,.832-.216,2.372,2.372,0,0,0,.792-.48,1.045,1.045,0,0,0,.392-.808,1.2,1.2,0,0,0-.568-1.04A2.533,2.533,0,0,0,67.1-9.168a2.563,2.563,0,0,0-1.464.384,1.2,1.2,0,0,0-.568,1.04,1.037,1.037,0,0,0,.4.808,2.454,2.454,0,0,0,.8.48A5.943,5.943,0,0,0,67.1-6.24Zm0,4.768a2.787,2.787,0,0,0,1.552-.416,1.253,1.253,0,0,0,.64-1.088,1.315,1.315,0,0,0-.744-1.16,3.67,3.67,0,0,0-1.448-.52,3.913,3.913,0,0,0-.88.216,2.719,2.719,0,0,0-.9.56,1.19,1.19,0,0,0-.432.9,1.255,1.255,0,0,0,.632,1.088A2.808,2.808,0,0,0,67.1-1.472Z" transform="translate(517 5278)"/>
    <path id="Path_3108" data-name="Path 3108" class="cls-2" d="M7.408,0H5.536V-2.416H.448v-1.5l4.384-6.752H7.408v6.608H8.832v1.648H7.408ZM5.536-4.064V-8.992L2.288-4.064ZM21.064-.584a5.16,5.16,0,0,1-2.9.776,5.2,5.2,0,0,1-2.912-.776,2.44,2.44,0,0,1-1.184-2.152,2.389,2.389,0,0,1,.68-1.7A4.145,4.145,0,0,1,16.464-5.5a3.89,3.89,0,0,1-1.608-.944,2.161,2.161,0,0,1-.616-1.584A2.366,2.366,0,0,1,14.584-9.3a2.488,2.488,0,0,1,.912-.88,4.945,4.945,0,0,1,1.248-.488,5.883,5.883,0,0,1,1.416-.168,5.785,5.785,0,0,1,1.408.168,5.107,5.107,0,0,1,1.248.488,2.47,2.47,0,0,1,.92.88,2.366,2.366,0,0,1,.344,1.264q0,1.808-2.24,2.528a4.145,4.145,0,0,1,1.72,1.072,2.389,2.389,0,0,1,.68,1.7A2.443,2.443,0,0,1,21.064-.584ZM18.16-6.24a5.942,5.942,0,0,0,.832-.216,2.372,2.372,0,0,0,.792-.48,1.045,1.045,0,0,0,.392-.808,1.2,1.2,0,0,0-.568-1.04,2.533,2.533,0,0,0-1.448-.384,2.563,2.563,0,0,0-1.464.384,1.2,1.2,0,0,0-.568,1.04,1.037,1.037,0,0,0,.4.808,2.454,2.454,0,0,0,.8.48A5.942,5.942,0,0,0,18.16-6.24Zm0,4.768a2.786,2.786,0,0,0,1.552-.416,1.253,1.253,0,0,0,.64-1.088,1.315,1.315,0,0,0-.744-1.16,3.67,3.67,0,0,0-1.448-.52,3.913,3.913,0,0,0-.88.216,2.719,2.719,0,0,0-.9.56,1.19,1.19,0,0,0-.432.9,1.255,1.255,0,0,0,.632,1.088A2.808,2.808,0,0,0,18.16-1.472ZM27.152.176A4.136,4.136,0,0,1,24.1-1.008l.864-1.408a2.93,2.93,0,0,0,2.192.928A2.4,2.4,0,0,0,29.24-2.52a4.178,4.178,0,0,0,.728-2.472v-.32a3.715,3.715,0,0,1-1.2,1.048,3.258,3.258,0,0,1-1.664.456,3.715,3.715,0,0,1-2.552-.912A3.218,3.218,0,0,1,23.52-7.264a3.365,3.365,0,0,1,1.1-2.552,3.975,3.975,0,0,1,2.84-1.032,4.03,4.03,0,0,1,2.52.776,4.243,4.243,0,0,1,1.448,1.984,8.17,8.17,0,0,1,.432,2.76,6.16,6.16,0,0,1-1.232,3.952A4.179,4.179,0,0,1,27.152.176Zm.448-5.6a2.729,2.729,0,0,0,1.312-.336,2.906,2.906,0,0,0,1.024-.912,3.218,3.218,0,0,0-.664-1.76,2.045,2.045,0,0,0-1.72-.752A2.1,2.1,0,0,0,26-8.608a1.774,1.774,0,0,0-.576,1.28,1.69,1.69,0,0,0,.624,1.416A2.442,2.442,0,0,0,27.6-5.424ZM36.944.192a5.725,5.725,0,0,1-2.408-.48,4.12,4.12,0,0,1-1.624-1.248L33.92-2.768a3.641,3.641,0,0,0,1.312.944,4.052,4.052,0,0,0,1.648.352,2.684,2.684,0,0,0,1.632-.44A1.407,1.407,0,0,0,39.1-3.1q0-1.5-2.368-1.5-1.072,0-1.232.016v-1.68q.192.016,1.232.016a3.13,3.13,0,0,0,1.592-.352,1.147,1.147,0,0,0,.6-1.056,1.249,1.249,0,0,0-.608-1.112,2.815,2.815,0,0,0-1.552-.392,3.775,3.775,0,0,0-2.752,1.184l-.96-1.168a4.828,4.828,0,0,1,3.888-1.68,4.621,4.621,0,0,1,2.8.776,2.475,2.475,0,0,1,1.056,2.1,2.144,2.144,0,0,1-.7,1.64A3.113,3.113,0,0,1,38.48-5.5a2.929,2.929,0,0,1,1.7.768,2.307,2.307,0,0,1,.784,1.824,2.722,2.722,0,0,1-1.1,2.24A4.585,4.585,0,0,1,36.944.192Zm13.744,0A4.906,4.906,0,0,1,46.72-1.456l1.072-1.28a3.673,3.673,0,0,0,2.88,1.264,2.3,2.3,0,0,0,1.592-.536,1.718,1.718,0,0,0,.6-1.336,1.762,1.762,0,0,0-.584-1.384,2.259,2.259,0,0,0-1.56-.52,3.271,3.271,0,0,0-2.336.928L47.056-4.7v-5.968h6.992v1.648h-5.12v3.088a3.268,3.268,0,0,1,2.416-.928,3.4,3.4,0,0,1,2.408.936,3.266,3.266,0,0,1,1,2.5A3.318,3.318,0,0,1,53.624-.792,4.3,4.3,0,0,1,50.688.192ZM60.368,0H58.5V-8.24L56.752-6.432,55.664-7.568l3.072-3.1h1.632Zm6.08,0H64.576V-8.24L62.832-6.432,61.744-7.568l3.072-3.1h1.632Z" transform="translate(668 5255)"/>
    <path id="Path_3094" data-name="Path 3094" class="cls-2" d="M4.944,0H3.072V-8.24L1.328-6.432.24-7.568l3.072-3.1H4.944Zm6.08,0H9.152V-8.24L7.408-6.432,6.32-7.568l3.072-3.1h1.632ZM23.68,0H21.808V-2.416H16.72v-1.5L21.1-10.672H23.68v6.608H25.1v1.648H23.68ZM21.808-4.064V-8.992L18.56-4.064ZM32.4-.288a3.829,3.829,0,0,1-1.92.48,3.829,3.829,0,0,1-1.92-.48,3.689,3.689,0,0,1-1.344-1.28,6.493,6.493,0,0,1-.752-1.76,7.729,7.729,0,0,1-.256-2,7.729,7.729,0,0,1,.256-2,6.371,6.371,0,0,1,.752-1.752,3.712,3.712,0,0,1,1.344-1.272,3.829,3.829,0,0,1,1.92-.48,3.829,3.829,0,0,1,1.92.48A3.712,3.712,0,0,1,33.744-9.08,6.371,6.371,0,0,1,34.5-7.328a7.729,7.729,0,0,1,.256,2,7.729,7.729,0,0,1-.256,2,6.493,6.493,0,0,1-.752,1.76A3.689,3.689,0,0,1,32.4-.288ZM28.688-2.56A1.9,1.9,0,0,0,30.48-1.472,1.9,1.9,0,0,0,32.272-2.56a5.886,5.886,0,0,0,.576-2.768,7.6,7.6,0,0,0-.216-1.9,2.967,2.967,0,0,0-.768-1.384,1.877,1.877,0,0,0-1.384-.552,1.877,1.877,0,0,0-1.384.552,2.967,2.967,0,0,0-.768,1.384,7.6,7.6,0,0,0-.216,1.9A5.886,5.886,0,0,0,28.688-2.56ZM42.816,0H40.944V-2.416H35.856v-1.5l4.384-6.752h2.576v6.608H44.24v1.648H42.816ZM40.944-4.064V-8.992L37.7-4.064ZM53.856.192a4.349,4.349,0,0,1-2-.44A3.561,3.561,0,0,1,50.48-1.456a5.756,5.756,0,0,1-.768-1.736,8.279,8.279,0,0,1-.256-2.12A6.186,6.186,0,0,1,50.688-9.28a4.179,4.179,0,0,1,3.472-1.552,4.224,4.224,0,0,1,3.072,1.184l-.88,1.424a2.906,2.906,0,0,0-2.192-.944,2.433,2.433,0,0,0-2.048,1.024,4.041,4.041,0,0,0-.768,2.5,2.051,2.051,0,0,0,.016.3,3.467,3.467,0,0,1,1.184-1.04,3.331,3.331,0,0,1,1.68-.448,3.7,3.7,0,0,1,2.544.9,3.205,3.205,0,0,1,1.024,2.536A3.377,3.377,0,0,1,56.7-.84,3.968,3.968,0,0,1,53.856.192Zm-.1-1.664a2.136,2.136,0,0,0,1.568-.568A1.765,1.765,0,0,0,55.9-3.328a1.69,1.69,0,0,0-.624-1.416,2.468,2.468,0,0,0-1.568-.488,2.65,2.65,0,0,0-1.3.344,3.133,3.133,0,0,0-1.04.92,3.287,3.287,0,0,0,.672,1.76A2.041,2.041,0,0,0,53.76-1.472ZM65.824,0H63.952V-2.416H58.864v-1.5l4.384-6.752h2.576v6.608h1.424v1.648H65.824ZM63.952-4.064V-8.992L60.7-4.064ZM75.368-.584a5.16,5.16,0,0,1-2.9.776,5.2,5.2,0,0,1-2.912-.776,2.44,2.44,0,0,1-1.184-2.152,2.389,2.389,0,0,1,.68-1.7A4.145,4.145,0,0,1,70.768-5.5a3.89,3.89,0,0,1-1.608-.944,2.161,2.161,0,0,1-.616-1.584A2.366,2.366,0,0,1,68.888-9.3a2.488,2.488,0,0,1,.912-.88,4.945,4.945,0,0,1,1.248-.488,5.883,5.883,0,0,1,1.416-.168,5.785,5.785,0,0,1,1.408.168,5.108,5.108,0,0,1,1.248.488,2.47,2.47,0,0,1,.92.88,2.366,2.366,0,0,1,.344,1.264q0,1.808-2.24,2.528a4.145,4.145,0,0,1,1.72,1.072,2.389,2.389,0,0,1,.68,1.7A2.443,2.443,0,0,1,75.368-.584Zm-2.9-5.656a5.942,5.942,0,0,0,.832-.216,2.372,2.372,0,0,0,.792-.48,1.045,1.045,0,0,0,.392-.808,1.2,1.2,0,0,0-.568-1.04,2.533,2.533,0,0,0-1.448-.384A2.563,2.563,0,0,0,71-8.784a1.2,1.2,0,0,0-.568,1.04,1.037,1.037,0,0,0,.4.808,2.454,2.454,0,0,0,.8.48A5.943,5.943,0,0,0,72.464-6.24Zm0,4.768a2.786,2.786,0,0,0,1.552-.416,1.253,1.253,0,0,0,.64-1.088,1.315,1.315,0,0,0-.744-1.16,3.67,3.67,0,0,0-1.448-.52,3.913,3.913,0,0,0-.88.216,2.719,2.719,0,0,0-.9.56,1.19,1.19,0,0,0-.432.9,1.255,1.255,0,0,0,.632,1.088A2.808,2.808,0,0,0,72.464-1.472Z" transform="translate(807 5210)"/>
    <path id="Path_3095" data-name="Path 3095" class="cls-2" d="M8.528,0H.8V-1.472A47.252,47.252,0,0,0,5.352-5.224,3.449,3.449,0,0,0,6.56-7.536a1.418,1.418,0,0,0-.568-1.208,2.222,2.222,0,0,0-1.368-.424,3.652,3.652,0,0,0-2.88,1.28L.656-9.12a4.443,4.443,0,0,1,1.736-1.272,5.626,5.626,0,0,1,2.2-.44,4.317,4.317,0,0,1,2.752.88,2.9,2.9,0,0,1,1.12,2.416A4.239,4.239,0,0,1,7.312-4.8a22.51,22.51,0,0,1-3.52,3.152H8.528Zm8.664-.584a5.16,5.16,0,0,1-2.9.776,5.2,5.2,0,0,1-2.912-.776,2.44,2.44,0,0,1-1.184-2.152,2.389,2.389,0,0,1,.68-1.7A4.145,4.145,0,0,1,12.592-5.5a3.89,3.89,0,0,1-1.608-.944,2.161,2.161,0,0,1-.616-1.584A2.366,2.366,0,0,1,10.712-9.3a2.488,2.488,0,0,1,.912-.88,4.945,4.945,0,0,1,1.248-.488,5.883,5.883,0,0,1,1.416-.168,5.785,5.785,0,0,1,1.408.168,5.107,5.107,0,0,1,1.248.488,2.47,2.47,0,0,1,.92.88,2.366,2.366,0,0,1,.344,1.264q0,1.808-2.24,2.528a4.145,4.145,0,0,1,1.72,1.072,2.389,2.389,0,0,1,.68,1.7A2.443,2.443,0,0,1,17.192-.584Zm-2.9-5.656a5.942,5.942,0,0,0,.832-.216,2.372,2.372,0,0,0,.792-.48,1.045,1.045,0,0,0,.392-.808,1.2,1.2,0,0,0-.568-1.04,2.533,2.533,0,0,0-1.448-.384,2.563,2.563,0,0,0-1.464.384,1.2,1.2,0,0,0-.568,1.04,1.037,1.037,0,0,0,.4.808,2.454,2.454,0,0,0,.8.48A5.943,5.943,0,0,0,14.288-6.24Zm0,4.768a2.786,2.786,0,0,0,1.552-.416,1.253,1.253,0,0,0,.64-1.088,1.315,1.315,0,0,0-.744-1.16,3.67,3.67,0,0,0-1.448-.52,3.913,3.913,0,0,0-.88.216,2.719,2.719,0,0,0-.9.56,1.19,1.19,0,0,0-.432.9,1.255,1.255,0,0,0,.632,1.088A2.808,2.808,0,0,0,14.288-1.472Zm16.536.888a5.16,5.16,0,0,1-2.9.776,5.2,5.2,0,0,1-2.912-.776,2.44,2.44,0,0,1-1.184-2.152,2.389,2.389,0,0,1,.68-1.7A4.145,4.145,0,0,1,26.224-5.5a3.89,3.89,0,0,1-1.608-.944A2.161,2.161,0,0,1,24-8.032,2.366,2.366,0,0,1,24.344-9.3a2.488,2.488,0,0,1,.912-.88,4.945,4.945,0,0,1,1.248-.488,5.883,5.883,0,0,1,1.416-.168,5.785,5.785,0,0,1,1.408.168,5.107,5.107,0,0,1,1.248.488,2.47,2.47,0,0,1,.92.88,2.366,2.366,0,0,1,.344,1.264q0,1.808-2.24,2.528a4.145,4.145,0,0,1,1.72,1.072,2.389,2.389,0,0,1,.68,1.7A2.443,2.443,0,0,1,30.824-.584ZM27.92-6.24a5.942,5.942,0,0,0,.832-.216,2.372,2.372,0,0,0,.792-.48,1.045,1.045,0,0,0,.392-.808,1.2,1.2,0,0,0-.568-1.04,2.533,2.533,0,0,0-1.448-.384,2.563,2.563,0,0,0-1.464.384,1.2,1.2,0,0,0-.568,1.04,1.037,1.037,0,0,0,.4.808,2.454,2.454,0,0,0,.8.48A5.942,5.942,0,0,0,27.92-6.24Zm0,4.768a2.786,2.786,0,0,0,1.552-.416,1.253,1.253,0,0,0,.64-1.088,1.315,1.315,0,0,0-.744-1.16,3.67,3.67,0,0,0-1.448-.52,3.913,3.913,0,0,0-.88.216,2.719,2.719,0,0,0-.9.56,1.19,1.19,0,0,0-.432.9,1.255,1.255,0,0,0,.632,1.088A2.808,2.808,0,0,0,27.92-1.472ZM39.52-.288a3.829,3.829,0,0,1-1.92.48,3.829,3.829,0,0,1-1.92-.48,3.689,3.689,0,0,1-1.344-1.28,6.493,6.493,0,0,1-.752-1.76,7.729,7.729,0,0,1-.256-2,7.729,7.729,0,0,1,.256-2,6.371,6.371,0,0,1,.752-1.752,3.712,3.712,0,0,1,1.344-1.272,3.829,3.829,0,0,1,1.92-.48,3.829,3.829,0,0,1,1.92.48A3.712,3.712,0,0,1,40.864-9.08a6.371,6.371,0,0,1,.752,1.752,7.729,7.729,0,0,1,.256,2,7.729,7.729,0,0,1-.256,2,6.493,6.493,0,0,1-.752,1.76A3.689,3.689,0,0,1,39.52-.288ZM35.808-2.56A1.9,1.9,0,0,0,37.6-1.472,1.9,1.9,0,0,0,39.392-2.56a5.886,5.886,0,0,0,.576-2.768,7.6,7.6,0,0,0-.216-1.9,2.967,2.967,0,0,0-.768-1.384A1.877,1.877,0,0,0,37.6-9.168a1.877,1.877,0,0,0-1.384.552,2.967,2.967,0,0,0-.768,1.384,7.6,7.6,0,0,0-.216,1.9A5.886,5.886,0,0,0,35.808-2.56ZM49.376-.288a3.829,3.829,0,0,1-1.92.48,3.829,3.829,0,0,1-1.92-.48,3.689,3.689,0,0,1-1.344-1.28,6.493,6.493,0,0,1-.752-1.76,7.729,7.729,0,0,1-.256-2,7.729,7.729,0,0,1,.256-2,6.371,6.371,0,0,1,.752-1.752,3.712,3.712,0,0,1,1.344-1.272,3.829,3.829,0,0,1,1.92-.48,3.829,3.829,0,0,1,1.92.48A3.712,3.712,0,0,1,50.72-9.08a6.371,6.371,0,0,1,.752,1.752,7.729,7.729,0,0,1,.256,2,7.729,7.729,0,0,1-.256,2,6.493,6.493,0,0,1-.752,1.76A3.689,3.689,0,0,1,49.376-.288ZM45.664-2.56a1.9,1.9,0,0,0,1.792,1.088A1.9,1.9,0,0,0,49.248-2.56a5.886,5.886,0,0,0,.576-2.768,7.6,7.6,0,0,0-.216-1.9,2.967,2.967,0,0,0-.768-1.384,1.877,1.877,0,0,0-1.384-.552,1.877,1.877,0,0,0-1.384.552A2.967,2.967,0,0,0,45.3-7.232a7.6,7.6,0,0,0-.216,1.9A5.886,5.886,0,0,0,45.664-2.56Zm18.5,1.976a5.16,5.16,0,0,1-2.9.776,5.2,5.2,0,0,1-2.912-.776,2.44,2.44,0,0,1-1.184-2.152,2.389,2.389,0,0,1,.68-1.7A4.145,4.145,0,0,1,59.568-5.5a3.89,3.89,0,0,1-1.608-.944,2.161,2.161,0,0,1-.616-1.584A2.366,2.366,0,0,1,57.688-9.3a2.488,2.488,0,0,1,.912-.88,4.945,4.945,0,0,1,1.248-.488,5.883,5.883,0,0,1,1.416-.168,5.785,5.785,0,0,1,1.408.168,5.107,5.107,0,0,1,1.248.488,2.47,2.47,0,0,1,.92.88,2.366,2.366,0,0,1,.344,1.264q0,1.808-2.24,2.528a4.145,4.145,0,0,1,1.72,1.072,2.389,2.389,0,0,1,.68,1.7A2.443,2.443,0,0,1,64.168-.584Zm-2.9-5.656a5.942,5.942,0,0,0,.832-.216,2.372,2.372,0,0,0,.792-.48,1.045,1.045,0,0,0,.392-.808,1.2,1.2,0,0,0-.568-1.04,2.533,2.533,0,0,0-1.448-.384,2.563,2.563,0,0,0-1.464.384,1.2,1.2,0,0,0-.568,1.04,1.037,1.037,0,0,0,.4.808,2.454,2.454,0,0,0,.8.48A5.942,5.942,0,0,0,61.264-6.24Zm0,4.768a2.786,2.786,0,0,0,1.552-.416,1.253,1.253,0,0,0,.64-1.088,1.315,1.315,0,0,0-.744-1.16,3.67,3.67,0,0,0-1.448-.52,3.913,3.913,0,0,0-.88.216,2.719,2.719,0,0,0-.9.56,1.19,1.19,0,0,0-.432.9,1.255,1.255,0,0,0,.632,1.088A2.808,2.808,0,0,0,61.264-1.472ZM71.072.192a4.349,4.349,0,0,1-2-.44A3.561,3.561,0,0,1,67.7-1.456a5.756,5.756,0,0,1-.768-1.736,8.278,8.278,0,0,1-.256-2.12A6.186,6.186,0,0,1,67.9-9.28a4.179,4.179,0,0,1,3.472-1.552,4.224,4.224,0,0,1,3.072,1.184l-.88,1.424a2.906,2.906,0,0,0-2.192-.944,2.433,2.433,0,0,0-2.048,1.024,4.041,4.041,0,0,0-.768,2.5,2.052,2.052,0,0,0,.016.3,3.467,3.467,0,0,1,1.184-1.04,3.331,3.331,0,0,1,1.68-.448,3.7,3.7,0,0,1,2.544.9,3.205,3.205,0,0,1,1.024,2.536A3.377,3.377,0,0,1,73.92-.84,3.968,3.968,0,0,1,71.072.192Zm-.1-1.664a2.136,2.136,0,0,0,1.568-.568,1.765,1.765,0,0,0,.576-1.288A1.69,1.69,0,0,0,72.5-4.744a2.468,2.468,0,0,0-1.568-.488,2.65,2.65,0,0,0-1.3.344,3.133,3.133,0,0,0-1.04.92,3.287,3.287,0,0,0,.672,1.76A2.041,2.041,0,0,0,70.976-1.472ZM83.3-.584a5.16,5.16,0,0,1-2.9.776,5.2,5.2,0,0,1-2.912-.776A2.44,2.44,0,0,1,76.3-2.736a2.389,2.389,0,0,1,.68-1.7A4.145,4.145,0,0,1,78.7-5.5,3.89,3.89,0,0,1,77.1-6.448a2.161,2.161,0,0,1-.616-1.584A2.366,2.366,0,0,1,76.824-9.3a2.488,2.488,0,0,1,.912-.88,4.945,4.945,0,0,1,1.248-.488,5.883,5.883,0,0,1,1.416-.168,5.785,5.785,0,0,1,1.408.168,5.108,5.108,0,0,1,1.248.488,2.47,2.47,0,0,1,.92.88,2.366,2.366,0,0,1,.344,1.264q0,1.808-2.24,2.528A4.145,4.145,0,0,1,83.8-4.432a2.389,2.389,0,0,1,.68,1.7A2.443,2.443,0,0,1,83.3-.584ZM80.4-6.24a5.942,5.942,0,0,0,.832-.216,2.372,2.372,0,0,0,.792-.48,1.045,1.045,0,0,0,.392-.808,1.2,1.2,0,0,0-.568-1.04A2.533,2.533,0,0,0,80.4-9.168a2.563,2.563,0,0,0-1.464.384,1.2,1.2,0,0,0-.568,1.04,1.037,1.037,0,0,0,.4.808,2.454,2.454,0,0,0,.8.48A5.943,5.943,0,0,0,80.4-6.24Zm0,4.768a2.786,2.786,0,0,0,1.552-.416,1.253,1.253,0,0,0,.64-1.088,1.315,1.315,0,0,0-.744-1.16,3.67,3.67,0,0,0-1.448-.52,3.913,3.913,0,0,0-.88.216,2.719,2.719,0,0,0-.9.56,1.19,1.19,0,0,0-.432.9,1.255,1.255,0,0,0,.632,1.088A2.808,2.808,0,0,0,80.4-1.472Z" transform="translate(949 5112)"/>
    <path id="Path_3093" data-name="Path 3093" class="cls-3" d="M3.621,0H2.057L6.63-10.081H.527v-1.258H8.262v.969ZM13.957.2a3.755,3.755,0,0,1-1.981-.519A3.84,3.84,0,0,1,10.616-1.7a7.1,7.1,0,0,1-.748-1.87,8.731,8.731,0,0,1-.247-2.091,8.731,8.731,0,0,1,.247-2.091,6.963,6.963,0,0,1,.748-1.862,3.861,3.861,0,0,1,1.36-1.377,3.755,3.755,0,0,1,1.981-.519,3.767,3.767,0,0,1,1.972.519A3.839,3.839,0,0,1,17.3-9.614a6.963,6.963,0,0,1,.748,1.862,8.731,8.731,0,0,1,.246,2.091,8.731,8.731,0,0,1-.246,2.091A7.1,7.1,0,0,1,17.3-1.7,3.818,3.818,0,0,1,15.929-.315,3.767,3.767,0,0,1,13.957.2Zm-1.7-1.964a2.264,2.264,0,0,0,1.7.706,2.264,2.264,0,0,0,1.7-.706,3.742,3.742,0,0,0,.935-1.692,8.835,8.835,0,0,0,.255-2.21,8.835,8.835,0,0,0-.255-2.21,3.684,3.684,0,0,0-.935-1.683,2.277,2.277,0,0,0-1.7-.7,2.277,2.277,0,0,0-1.7.7,3.684,3.684,0,0,0-.935,1.683,8.835,8.835,0,0,0-.255,2.21,8.835,8.835,0,0,0,.255,2.21A3.742,3.742,0,0,0,12.257-1.76ZM28.747.2a3.755,3.755,0,0,1-1.981-.519A3.84,3.84,0,0,1,25.406-1.7a7.1,7.1,0,0,1-.748-1.87,8.731,8.731,0,0,1-.247-2.091,8.731,8.731,0,0,1,.247-2.091,6.963,6.963,0,0,1,.748-1.862,3.861,3.861,0,0,1,1.36-1.377,3.755,3.755,0,0,1,1.981-.519,3.767,3.767,0,0,1,1.972.519,3.839,3.839,0,0,1,1.369,1.377,6.963,6.963,0,0,1,.748,1.862,8.731,8.731,0,0,1,.246,2.091,8.731,8.731,0,0,1-.246,2.091,7.1,7.1,0,0,1-.748,1.87A3.818,3.818,0,0,1,30.719-.315,3.767,3.767,0,0,1,28.747.2Zm-1.7-1.964a2.264,2.264,0,0,0,1.7.706,2.264,2.264,0,0,0,1.7-.706,3.742,3.742,0,0,0,.935-1.692,8.835,8.835,0,0,0,.255-2.21,8.835,8.835,0,0,0-.255-2.21,3.684,3.684,0,0,0-.935-1.683,2.277,2.277,0,0,0-1.7-.7,2.277,2.277,0,0,0-1.7.7,3.684,3.684,0,0,0-.935,1.683,8.835,8.835,0,0,0-.255,2.21,8.835,8.835,0,0,0,.255,2.21A3.742,3.742,0,0,0,27.047-1.76ZM39.151.2a3.755,3.755,0,0,1-1.98-.519A3.84,3.84,0,0,1,35.811-1.7a7.1,7.1,0,0,1-.748-1.87,8.731,8.731,0,0,1-.246-2.091,8.731,8.731,0,0,1,.246-2.091,6.963,6.963,0,0,1,.748-1.862,3.861,3.861,0,0,1,1.36-1.377,3.755,3.755,0,0,1,1.98-.519,3.767,3.767,0,0,1,1.972.519,3.839,3.839,0,0,1,1.368,1.377,6.963,6.963,0,0,1,.748,1.862,8.731,8.731,0,0,1,.246,2.091A8.731,8.731,0,0,1,43.24-3.57a7.1,7.1,0,0,1-.748,1.87A3.818,3.818,0,0,1,41.123-.315,3.767,3.767,0,0,1,39.151.2Zm-1.7-1.964a2.264,2.264,0,0,0,1.7.706,2.264,2.264,0,0,0,1.7-.706,3.742,3.742,0,0,0,.935-1.692,8.835,8.835,0,0,0,.255-2.21,8.835,8.835,0,0,0-.255-2.21,3.684,3.684,0,0,0-.935-1.683,2.277,2.277,0,0,0-1.7-.7,2.277,2.277,0,0,0-1.7.7,3.684,3.684,0,0,0-.935,1.683,8.835,8.835,0,0,0-.255,2.21,8.835,8.835,0,0,0,.255,2.21A3.742,3.742,0,0,0,37.451-1.76ZM49.555.2a3.755,3.755,0,0,1-1.98-.519A3.84,3.84,0,0,1,46.215-1.7a7.1,7.1,0,0,1-.748-1.87,8.731,8.731,0,0,1-.246-2.091,8.731,8.731,0,0,1,.246-2.091,6.963,6.963,0,0,1,.748-1.862,3.861,3.861,0,0,1,1.36-1.377,3.755,3.755,0,0,1,1.98-.519,3.767,3.767,0,0,1,1.972.519A3.839,3.839,0,0,1,52.9-9.614a6.963,6.963,0,0,1,.748,1.862,8.731,8.731,0,0,1,.246,2.091,8.731,8.731,0,0,1-.246,2.091A7.1,7.1,0,0,1,52.9-1.7,3.818,3.818,0,0,1,51.527-.315,3.767,3.767,0,0,1,49.555.2Zm-1.7-1.964a2.264,2.264,0,0,0,1.7.706,2.264,2.264,0,0,0,1.7-.706,3.742,3.742,0,0,0,.935-1.692,8.835,8.835,0,0,0,.255-2.21,8.835,8.835,0,0,0-.255-2.21,3.684,3.684,0,0,0-.935-1.683,2.277,2.277,0,0,0-1.7-.7,2.277,2.277,0,0,0-1.7.7,3.684,3.684,0,0,0-.935,1.683,8.835,8.835,0,0,0-.255,2.21,8.835,8.835,0,0,0,.255,2.21A3.742,3.742,0,0,0,47.855-1.76ZM64.345.2a3.755,3.755,0,0,1-1.98-.519A3.84,3.84,0,0,1,61-1.7a7.1,7.1,0,0,1-.748-1.87,8.731,8.731,0,0,1-.246-2.091,8.731,8.731,0,0,1,.246-2.091A6.963,6.963,0,0,1,61-9.614a3.861,3.861,0,0,1,1.36-1.377,3.755,3.755,0,0,1,1.98-.519,3.767,3.767,0,0,1,1.972.519,3.839,3.839,0,0,1,1.368,1.377,6.963,6.963,0,0,1,.748,1.862,8.731,8.731,0,0,1,.246,2.091,8.731,8.731,0,0,1-.246,2.091,7.1,7.1,0,0,1-.748,1.87A3.818,3.818,0,0,1,66.317-.315,3.767,3.767,0,0,1,64.345.2Zm-1.7-1.964a2.264,2.264,0,0,0,1.7.706,2.264,2.264,0,0,0,1.7-.706,3.742,3.742,0,0,0,.935-1.692,8.835,8.835,0,0,0,.255-2.21,8.835,8.835,0,0,0-.255-2.21,3.684,3.684,0,0,0-.935-1.683,2.277,2.277,0,0,0-1.7-.7,2.277,2.277,0,0,0-1.7.7,3.684,3.684,0,0,0-.935,1.683,8.835,8.835,0,0,0-.255,2.21,8.835,8.835,0,0,0,.255,2.21A3.742,3.742,0,0,0,62.645-1.76ZM74.749.2a3.755,3.755,0,0,1-1.981-.519A3.84,3.84,0,0,1,71.409-1.7a7.1,7.1,0,0,1-.748-1.87,8.731,8.731,0,0,1-.247-2.091,8.731,8.731,0,0,1,.247-2.091,6.963,6.963,0,0,1,.748-1.862,3.861,3.861,0,0,1,1.36-1.377,3.755,3.755,0,0,1,1.981-.519,3.767,3.767,0,0,1,1.972.519A3.839,3.839,0,0,1,78.09-9.614a6.963,6.963,0,0,1,.748,1.862,8.731,8.731,0,0,1,.246,2.091,8.731,8.731,0,0,1-.246,2.091A7.1,7.1,0,0,1,78.09-1.7,3.818,3.818,0,0,1,76.721-.315,3.767,3.767,0,0,1,74.749.2Zm-1.7-1.964a2.264,2.264,0,0,0,1.7.706,2.264,2.264,0,0,0,1.7-.706,3.742,3.742,0,0,0,.935-1.692,8.835,8.835,0,0,0,.255-2.21,8.835,8.835,0,0,0-.255-2.21,3.684,3.684,0,0,0-.935-1.683,2.277,2.277,0,0,0-1.7-.7,2.277,2.277,0,0,0-1.7.7,3.684,3.684,0,0,0-.935,1.683,8.835,8.835,0,0,0-.255,2.21,8.835,8.835,0,0,0,.255,2.21A3.742,3.742,0,0,0,73.049-1.76ZM85.153.2a3.755,3.755,0,0,1-1.981-.519A3.84,3.84,0,0,1,81.813-1.7a7.1,7.1,0,0,1-.748-1.87,8.731,8.731,0,0,1-.247-2.091,8.731,8.731,0,0,1,.247-2.091,6.963,6.963,0,0,1,.748-1.862,3.861,3.861,0,0,1,1.36-1.377,3.755,3.755,0,0,1,1.981-.519,3.767,3.767,0,0,1,1.972.519,3.839,3.839,0,0,1,1.368,1.377,6.963,6.963,0,0,1,.748,1.862,8.731,8.731,0,0,1,.247,2.091,8.731,8.731,0,0,1-.247,2.091,7.1,7.1,0,0,1-.748,1.87A3.818,3.818,0,0,1,87.125-.315,3.767,3.767,0,0,1,85.153.2Zm-1.7-1.964a2.264,2.264,0,0,0,1.7.706,2.264,2.264,0,0,0,1.7-.706,3.742,3.742,0,0,0,.935-1.692,8.835,8.835,0,0,0,.255-2.21,8.835,8.835,0,0,0-.255-2.21,3.684,3.684,0,0,0-.935-1.683,2.277,2.277,0,0,0-1.7-.7,2.277,2.277,0,0,0-1.7.7,3.684,3.684,0,0,0-.935,1.683,8.835,8.835,0,0,0-.255,2.21,8.835,8.835,0,0,0,.255,2.21A3.742,3.742,0,0,0,83.453-1.76Z" transform="translate(372 5005)"/>
    <path id="Path_3096" data-name="Path 3096" class="cls-2" d="M5.056.192a4.349,4.349,0,0,1-2-.44A3.561,3.561,0,0,1,1.68-1.456,5.756,5.756,0,0,1,.912-3.192a8.279,8.279,0,0,1-.256-2.12A6.186,6.186,0,0,1,1.888-9.28,4.179,4.179,0,0,1,5.36-10.832,4.224,4.224,0,0,1,8.432-9.648l-.88,1.424A2.906,2.906,0,0,0,5.36-9.168,2.433,2.433,0,0,0,3.312-8.144a4.041,4.041,0,0,0-.768,2.5,2.052,2.052,0,0,0,.016.3,3.467,3.467,0,0,1,1.184-1.04,3.331,3.331,0,0,1,1.68-.448,3.7,3.7,0,0,1,2.544.9A3.205,3.205,0,0,1,8.992-3.392,3.377,3.377,0,0,1,7.9-.84,3.968,3.968,0,0,1,5.056.192Zm-.1-1.664A2.136,2.136,0,0,0,6.528-2.04,1.765,1.765,0,0,0,7.1-3.328,1.69,1.69,0,0,0,6.48-4.744a2.468,2.468,0,0,0-1.568-.488,2.65,2.65,0,0,0-1.3.344,3.133,3.133,0,0,0-1.04.92,3.287,3.287,0,0,0,.672,1.76A2.041,2.041,0,0,0,4.96-1.472ZM13.6,0H11.552l4.032-9.024H10.048v-1.648h7.7v1.3ZM26.656.192a5.725,5.725,0,0,1-2.408-.48,4.12,4.12,0,0,1-1.624-1.248l1.008-1.232a3.641,3.641,0,0,0,1.312.944,4.052,4.052,0,0,0,1.648.352,2.684,2.684,0,0,0,1.632-.44A1.407,1.407,0,0,0,28.816-3.1q0-1.5-2.368-1.5-1.072,0-1.232.016v-1.68q.192.016,1.232.016a3.13,3.13,0,0,0,1.592-.352,1.147,1.147,0,0,0,.6-1.056,1.249,1.249,0,0,0-.608-1.112,2.815,2.815,0,0,0-1.552-.392,3.775,3.775,0,0,0-2.752,1.184l-.96-1.168a4.828,4.828,0,0,1,3.888-1.68,4.621,4.621,0,0,1,2.8.776,2.475,2.475,0,0,1,1.056,2.1,2.144,2.144,0,0,1-.7,1.64,3.113,3.113,0,0,1-1.624.808,2.929,2.929,0,0,1,1.7.768,2.307,2.307,0,0,1,.784,1.824,2.722,2.722,0,0,1-1.1,2.24A4.585,4.585,0,0,1,26.656.192ZM39.1-.584a5.16,5.16,0,0,1-2.9.776A5.2,5.2,0,0,1,33.28-.584,2.44,2.44,0,0,1,32.1-2.736a2.389,2.389,0,0,1,.68-1.7A4.145,4.145,0,0,1,34.5-5.5a3.89,3.89,0,0,1-1.608-.944,2.161,2.161,0,0,1-.616-1.584A2.366,2.366,0,0,1,32.616-9.3a2.488,2.488,0,0,1,.912-.88,4.945,4.945,0,0,1,1.248-.488,5.883,5.883,0,0,1,1.416-.168,5.785,5.785,0,0,1,1.408.168,5.107,5.107,0,0,1,1.248.488,2.47,2.47,0,0,1,.92.88,2.366,2.366,0,0,1,.344,1.264q0,1.808-2.24,2.528a4.145,4.145,0,0,1,1.72,1.072,2.389,2.389,0,0,1,.68,1.7A2.443,2.443,0,0,1,39.1-.584Zm-2.9-5.656a5.942,5.942,0,0,0,.832-.216,2.372,2.372,0,0,0,.792-.48,1.045,1.045,0,0,0,.392-.808,1.2,1.2,0,0,0-.568-1.04,2.533,2.533,0,0,0-1.448-.384,2.563,2.563,0,0,0-1.464.384,1.2,1.2,0,0,0-.568,1.04,1.037,1.037,0,0,0,.4.808,2.454,2.454,0,0,0,.8.48A5.942,5.942,0,0,0,36.192-6.24Zm0,4.768a2.786,2.786,0,0,0,1.552-.416,1.253,1.253,0,0,0,.64-1.088,1.315,1.315,0,0,0-.744-1.16,3.67,3.67,0,0,0-1.448-.52,3.913,3.913,0,0,0-.88.216,2.719,2.719,0,0,0-.9.56,1.19,1.19,0,0,0-.432.9,1.255,1.255,0,0,0,.632,1.088A2.808,2.808,0,0,0,36.192-1.472Zm11.6,1.184a3.829,3.829,0,0,1-1.92.48,3.829,3.829,0,0,1-1.92-.48,3.689,3.689,0,0,1-1.344-1.28,6.493,6.493,0,0,1-.752-1.76,7.729,7.729,0,0,1-.256-2,7.729,7.729,0,0,1,.256-2,6.371,6.371,0,0,1,.752-1.752,3.712,3.712,0,0,1,1.344-1.272,3.829,3.829,0,0,1,1.92-.48,3.829,3.829,0,0,1,1.92.48A3.712,3.712,0,0,1,49.136-9.08a6.371,6.371,0,0,1,.752,1.752,7.729,7.729,0,0,1,.256,2,7.729,7.729,0,0,1-.256,2,6.493,6.493,0,0,1-.752,1.76A3.689,3.689,0,0,1,47.792-.288ZM44.08-2.56a1.9,1.9,0,0,0,1.792,1.088A1.9,1.9,0,0,0,47.664-2.56a5.886,5.886,0,0,0,.576-2.768,7.6,7.6,0,0,0-.216-1.9,2.967,2.967,0,0,0-.768-1.384,1.877,1.877,0,0,0-1.384-.552,1.877,1.877,0,0,0-1.384.552,2.967,2.967,0,0,0-.768,1.384,7.6,7.6,0,0,0-.216,1.9A5.886,5.886,0,0,0,44.08-2.56ZM59.152.176A4.136,4.136,0,0,1,56.1-1.008l.864-1.408a2.93,2.93,0,0,0,2.192.928A2.4,2.4,0,0,0,61.24-2.52a4.178,4.178,0,0,0,.728-2.472v-.32a3.715,3.715,0,0,1-1.2,1.048,3.258,3.258,0,0,1-1.664.456,3.715,3.715,0,0,1-2.552-.912A3.218,3.218,0,0,1,55.52-7.264a3.365,3.365,0,0,1,1.1-2.552,3.975,3.975,0,0,1,2.84-1.032,4.03,4.03,0,0,1,2.52.776,4.243,4.243,0,0,1,1.448,1.984,8.17,8.17,0,0,1,.432,2.76,6.16,6.16,0,0,1-1.232,3.952A4.179,4.179,0,0,1,59.152.176Zm.448-5.6a2.729,2.729,0,0,0,1.312-.336,2.906,2.906,0,0,0,1.024-.912,3.218,3.218,0,0,0-.664-1.76,2.045,2.045,0,0,0-1.72-.752A2.1,2.1,0,0,0,58-8.608a1.774,1.774,0,0,0-.576,1.28,1.69,1.69,0,0,0,.624,1.416A2.442,2.442,0,0,0,59.6-5.424ZM69.392.192a4.906,4.906,0,0,1-3.968-1.648L66.5-2.736a3.673,3.673,0,0,0,2.88,1.264,2.3,2.3,0,0,0,1.592-.536,1.718,1.718,0,0,0,.6-1.336,1.762,1.762,0,0,0-.584-1.384,2.259,2.259,0,0,0-1.56-.52,3.271,3.271,0,0,0-2.336.928L65.76-4.7v-5.968h6.992v1.648h-5.12v3.088a3.268,3.268,0,0,1,2.416-.928,3.4,3.4,0,0,1,2.408.936,3.266,3.266,0,0,1,1,2.5A3.318,3.318,0,0,1,72.328-.792,4.3,4.3,0,0,1,69.392.192ZM81.536,0H79.664V-2.416H74.576v-1.5l4.384-6.752h2.576v6.608H82.96v1.648H81.536ZM79.664-4.064V-8.992L76.416-4.064Z" transform="translate(1096 4987)"/>
    <path id="Path_3097" data-name="Path 3097" class="cls-3" d="M7.344,0H5.933V-2.873H.544V-4.046l4.862-7.293H7.344v7.225h1.6v1.241h-1.6ZM5.933-4.114V-10.03L1.955-4.114ZM14.688.2a3.755,3.755,0,0,1-1.981-.519A3.84,3.84,0,0,1,11.347-1.7,7.1,7.1,0,0,1,10.6-3.57a8.731,8.731,0,0,1-.247-2.091A8.731,8.731,0,0,1,10.6-7.752a6.963,6.963,0,0,1,.748-1.862,3.861,3.861,0,0,1,1.36-1.377,3.755,3.755,0,0,1,1.981-.519,3.767,3.767,0,0,1,1.972.519,3.839,3.839,0,0,1,1.368,1.377,6.963,6.963,0,0,1,.748,1.862,8.731,8.731,0,0,1,.247,2.091,8.731,8.731,0,0,1-.247,2.091,7.1,7.1,0,0,1-.748,1.87A3.818,3.818,0,0,1,16.66-.315,3.767,3.767,0,0,1,14.688.2Zm-1.7-1.964a2.264,2.264,0,0,0,1.7.706,2.264,2.264,0,0,0,1.7-.706,3.742,3.742,0,0,0,.935-1.692,8.835,8.835,0,0,0,.255-2.21,8.835,8.835,0,0,0-.255-2.21,3.684,3.684,0,0,0-.935-1.683,2.277,2.277,0,0,0-1.7-.7,2.277,2.277,0,0,0-1.7.7,3.684,3.684,0,0,0-.935,1.683,8.835,8.835,0,0,0-.255,2.21,8.835,8.835,0,0,0,.255,2.21A3.742,3.742,0,0,0,12.988-1.76ZM29.478.2A3.755,3.755,0,0,1,27.5-.315,3.84,3.84,0,0,1,26.137-1.7a7.1,7.1,0,0,1-.748-1.87,8.731,8.731,0,0,1-.247-2.091,8.731,8.731,0,0,1,.247-2.091,6.963,6.963,0,0,1,.748-1.862,3.861,3.861,0,0,1,1.36-1.377,3.755,3.755,0,0,1,1.981-.519,3.767,3.767,0,0,1,1.972.519,3.839,3.839,0,0,1,1.368,1.377,6.963,6.963,0,0,1,.748,1.862,8.731,8.731,0,0,1,.247,2.091,8.731,8.731,0,0,1-.247,2.091,7.1,7.1,0,0,1-.748,1.87A3.818,3.818,0,0,1,31.45-.315,3.767,3.767,0,0,1,29.478.2Zm-1.7-1.964a2.264,2.264,0,0,0,1.7.706,2.264,2.264,0,0,0,1.7-.706,3.742,3.742,0,0,0,.935-1.692,8.835,8.835,0,0,0,.255-2.21,8.835,8.835,0,0,0-.255-2.21,3.684,3.684,0,0,0-.935-1.683,2.277,2.277,0,0,0-1.7-.7,2.277,2.277,0,0,0-1.7.7,3.684,3.684,0,0,0-.935,1.683,8.835,8.835,0,0,0-.255,2.21,8.835,8.835,0,0,0,.255,2.21A3.742,3.742,0,0,0,27.778-1.76ZM39.882.2A3.755,3.755,0,0,1,37.9-.315,3.84,3.84,0,0,1,36.542-1.7a7.1,7.1,0,0,1-.748-1.87,8.731,8.731,0,0,1-.246-2.091,8.731,8.731,0,0,1,.246-2.091,6.963,6.963,0,0,1,.748-1.862,3.861,3.861,0,0,1,1.36-1.377,3.755,3.755,0,0,1,1.98-.519,3.767,3.767,0,0,1,1.972.519,3.839,3.839,0,0,1,1.368,1.377,6.963,6.963,0,0,1,.748,1.862,8.731,8.731,0,0,1,.247,2.091,8.731,8.731,0,0,1-.247,2.091,7.1,7.1,0,0,1-.748,1.87A3.818,3.818,0,0,1,41.854-.315,3.767,3.767,0,0,1,39.882.2Zm-1.7-1.964a2.264,2.264,0,0,0,1.7.706,2.264,2.264,0,0,0,1.7-.706,3.742,3.742,0,0,0,.935-1.692,8.835,8.835,0,0,0,.255-2.21,8.835,8.835,0,0,0-.255-2.21,3.684,3.684,0,0,0-.935-1.683,2.277,2.277,0,0,0-1.7-.7,2.277,2.277,0,0,0-1.7.7,3.684,3.684,0,0,0-.935,1.683,8.835,8.835,0,0,0-.255,2.21,8.835,8.835,0,0,0,.255,2.21A3.742,3.742,0,0,0,38.182-1.76ZM50.286.2a3.755,3.755,0,0,1-1.98-.519A3.84,3.84,0,0,1,46.945-1.7,7.1,7.1,0,0,1,46.2-3.57a8.731,8.731,0,0,1-.246-2.091A8.731,8.731,0,0,1,46.2-7.752a6.963,6.963,0,0,1,.748-1.862,3.861,3.861,0,0,1,1.36-1.377,3.755,3.755,0,0,1,1.98-.519,3.767,3.767,0,0,1,1.972.519,3.839,3.839,0,0,1,1.368,1.377,6.963,6.963,0,0,1,.748,1.862,8.731,8.731,0,0,1,.247,2.091,8.731,8.731,0,0,1-.247,2.091,7.1,7.1,0,0,1-.748,1.87A3.818,3.818,0,0,1,52.258-.315,3.767,3.767,0,0,1,50.286.2Zm-1.7-1.964a2.264,2.264,0,0,0,1.7.706,2.264,2.264,0,0,0,1.7-.706,3.742,3.742,0,0,0,.935-1.692,8.835,8.835,0,0,0,.255-2.21,8.835,8.835,0,0,0-.255-2.21,3.684,3.684,0,0,0-.935-1.683,2.277,2.277,0,0,0-1.7-.7,2.277,2.277,0,0,0-1.7.7,3.684,3.684,0,0,0-.935,1.683,8.835,8.835,0,0,0-.255,2.21,8.835,8.835,0,0,0,.255,2.21A3.742,3.742,0,0,0,48.586-1.76ZM65.076.2A3.755,3.755,0,0,1,63.1-.315,3.84,3.84,0,0,1,61.736-1.7a7.1,7.1,0,0,1-.748-1.87,8.731,8.731,0,0,1-.246-2.091,8.731,8.731,0,0,1,.246-2.091,6.963,6.963,0,0,1,.748-1.862,3.861,3.861,0,0,1,1.36-1.377,3.755,3.755,0,0,1,1.981-.519,3.767,3.767,0,0,1,1.972.519,3.839,3.839,0,0,1,1.368,1.377,6.963,6.963,0,0,1,.748,1.862,8.731,8.731,0,0,1,.246,2.091,8.731,8.731,0,0,1-.246,2.091,7.1,7.1,0,0,1-.748,1.87A3.818,3.818,0,0,1,67.048-.315,3.767,3.767,0,0,1,65.076.2Zm-1.7-1.964a2.264,2.264,0,0,0,1.7.706,2.264,2.264,0,0,0,1.7-.706,3.742,3.742,0,0,0,.935-1.692,8.835,8.835,0,0,0,.255-2.21,8.835,8.835,0,0,0-.255-2.21,3.684,3.684,0,0,0-.935-1.683,2.277,2.277,0,0,0-1.7-.7,2.277,2.277,0,0,0-1.7.7,3.684,3.684,0,0,0-.935,1.683,8.835,8.835,0,0,0-.255,2.21,8.835,8.835,0,0,0,.255,2.21A3.742,3.742,0,0,0,63.376-1.76ZM75.48.2A3.755,3.755,0,0,1,73.5-.315,3.84,3.84,0,0,1,72.14-1.7a7.1,7.1,0,0,1-.748-1.87,8.731,8.731,0,0,1-.247-2.091,8.731,8.731,0,0,1,.247-2.091,6.963,6.963,0,0,1,.748-1.862,3.861,3.861,0,0,1,1.36-1.377,3.755,3.755,0,0,1,1.981-.519,3.767,3.767,0,0,1,1.972.519A3.839,3.839,0,0,1,78.82-9.614a6.963,6.963,0,0,1,.748,1.862,8.731,8.731,0,0,1,.247,2.091,8.731,8.731,0,0,1-.247,2.091A7.1,7.1,0,0,1,78.82-1.7,3.818,3.818,0,0,1,77.452-.315,3.767,3.767,0,0,1,75.48.2ZM73.78-1.76a2.264,2.264,0,0,0,1.7.706,2.264,2.264,0,0,0,1.7-.706,3.742,3.742,0,0,0,.935-1.692,8.835,8.835,0,0,0,.255-2.21,8.835,8.835,0,0,0-.255-2.21,3.684,3.684,0,0,0-.935-1.683,2.277,2.277,0,0,0-1.7-.7,2.277,2.277,0,0,0-1.7.7,3.684,3.684,0,0,0-.935,1.683,8.835,8.835,0,0,0-.255,2.21,8.835,8.835,0,0,0,.255,2.21A3.742,3.742,0,0,0,73.78-1.76ZM85.884.2A3.755,3.755,0,0,1,83.9-.315,3.84,3.84,0,0,1,82.544-1.7,7.1,7.1,0,0,1,81.8-3.57a8.731,8.731,0,0,1-.247-2.091A8.731,8.731,0,0,1,81.8-7.752a6.963,6.963,0,0,1,.748-1.862,3.861,3.861,0,0,1,1.36-1.377,3.755,3.755,0,0,1,1.981-.519,3.767,3.767,0,0,1,1.972.519,3.839,3.839,0,0,1,1.368,1.377,6.963,6.963,0,0,1,.748,1.862,8.731,8.731,0,0,1,.246,2.091,8.731,8.731,0,0,1-.246,2.091,7.1,7.1,0,0,1-.748,1.87A3.818,3.818,0,0,1,87.856-.315,3.767,3.767,0,0,1,85.884.2Zm-1.7-1.964a2.264,2.264,0,0,0,1.7.706,2.264,2.264,0,0,0,1.7-.706,3.742,3.742,0,0,0,.935-1.692,8.835,8.835,0,0,0,.255-2.21,8.835,8.835,0,0,0-.255-2.21,3.684,3.684,0,0,0-.935-1.683,2.277,2.277,0,0,0-1.7-.7,2.277,2.277,0,0,0-1.7.7,3.684,3.684,0,0,0-.935,1.683,8.835,8.835,0,0,0-.255,2.21,8.835,8.835,0,0,0,.255,2.21A3.742,3.742,0,0,0,84.184-1.76Z" transform="translate(371 5092)"/>
    <path id="Path_3098" data-name="Path 3098" class="cls-3" d="M5.117.2a4.7,4.7,0,0,1-4-1.819l.867-.935a3.774,3.774,0,0,0,3.128,1.5A2.622,2.622,0,0,0,7-1.751a2.3,2.3,0,0,0,.731-1.734,2.311,2.311,0,0,0-.722-1.777,2.649,2.649,0,0,0-1.878-.671A3.6,3.6,0,0,0,2.516-4.862L1.479-5.219v-6.12H8.415v1.258H2.89v3.944a3.588,3.588,0,0,1,2.652-1.02,3.615,3.615,0,0,1,2.55.977A3.43,3.43,0,0,1,9.146-3.536,3.472,3.472,0,0,1,8.007-.816,4.169,4.169,0,0,1,5.117.2ZM15.232.2a3.755,3.755,0,0,1-1.981-.519A3.84,3.84,0,0,1,11.892-1.7a7.1,7.1,0,0,1-.748-1.87A8.731,8.731,0,0,1,10.9-5.661a8.731,8.731,0,0,1,.247-2.091,6.963,6.963,0,0,1,.748-1.862,3.861,3.861,0,0,1,1.36-1.377,3.755,3.755,0,0,1,1.981-.519,3.767,3.767,0,0,1,1.972.519,3.839,3.839,0,0,1,1.368,1.377,6.963,6.963,0,0,1,.748,1.862,8.731,8.731,0,0,1,.247,2.091,8.731,8.731,0,0,1-.247,2.091,7.1,7.1,0,0,1-.748,1.87A3.818,3.818,0,0,1,17.2-.315,3.767,3.767,0,0,1,15.232.2Zm-1.7-1.964a2.264,2.264,0,0,0,1.7.706,2.264,2.264,0,0,0,1.7-.706,3.742,3.742,0,0,0,.935-1.692,8.835,8.835,0,0,0,.255-2.21,8.835,8.835,0,0,0-.255-2.21,3.684,3.684,0,0,0-.935-1.683,2.277,2.277,0,0,0-1.7-.7,2.277,2.277,0,0,0-1.7.7A3.684,3.684,0,0,0,12.6-7.871a8.835,8.835,0,0,0-.255,2.21,8.835,8.835,0,0,0,.255,2.21A3.742,3.742,0,0,0,13.532-1.76ZM30.022.2a3.755,3.755,0,0,1-1.981-.519A3.84,3.84,0,0,1,26.682-1.7a7.1,7.1,0,0,1-.748-1.87,8.731,8.731,0,0,1-.247-2.091,8.731,8.731,0,0,1,.247-2.091,6.963,6.963,0,0,1,.748-1.862,3.861,3.861,0,0,1,1.36-1.377,3.755,3.755,0,0,1,1.981-.519,3.767,3.767,0,0,1,1.972.519,3.839,3.839,0,0,1,1.369,1.377,6.963,6.963,0,0,1,.748,1.862,8.731,8.731,0,0,1,.246,2.091,8.731,8.731,0,0,1-.246,2.091,7.1,7.1,0,0,1-.748,1.87A3.818,3.818,0,0,1,31.994-.315,3.767,3.767,0,0,1,30.022.2Zm-1.7-1.964a2.264,2.264,0,0,0,1.7.706,2.264,2.264,0,0,0,1.7-.706,3.742,3.742,0,0,0,.935-1.692,8.835,8.835,0,0,0,.255-2.21,8.835,8.835,0,0,0-.255-2.21,3.684,3.684,0,0,0-.935-1.683,2.277,2.277,0,0,0-1.7-.7,2.277,2.277,0,0,0-1.7.7,3.684,3.684,0,0,0-.935,1.683,8.835,8.835,0,0,0-.255,2.21,8.835,8.835,0,0,0,.255,2.21A3.742,3.742,0,0,0,28.322-1.76ZM40.426.2a3.755,3.755,0,0,1-1.98-.519A3.84,3.84,0,0,1,37.086-1.7a7.1,7.1,0,0,1-.748-1.87,8.731,8.731,0,0,1-.246-2.091,8.731,8.731,0,0,1,.246-2.091,6.963,6.963,0,0,1,.748-1.862,3.861,3.861,0,0,1,1.36-1.377,3.755,3.755,0,0,1,1.98-.519,3.767,3.767,0,0,1,1.972.519,3.839,3.839,0,0,1,1.368,1.377,6.963,6.963,0,0,1,.748,1.862,8.731,8.731,0,0,1,.246,2.091,8.731,8.731,0,0,1-.246,2.091,7.1,7.1,0,0,1-.748,1.87A3.818,3.818,0,0,1,42.4-.315,3.767,3.767,0,0,1,40.426.2Zm-1.7-1.964a2.264,2.264,0,0,0,1.7.706,2.264,2.264,0,0,0,1.7-.706,3.742,3.742,0,0,0,.935-1.692,8.835,8.835,0,0,0,.255-2.21,8.835,8.835,0,0,0-.255-2.21,3.684,3.684,0,0,0-.935-1.683,2.277,2.277,0,0,0-1.7-.7,2.277,2.277,0,0,0-1.7.7,3.684,3.684,0,0,0-.935,1.683,8.835,8.835,0,0,0-.255,2.21,8.835,8.835,0,0,0,.255,2.21A3.742,3.742,0,0,0,38.726-1.76ZM50.83.2a3.755,3.755,0,0,1-1.98-.519A3.84,3.84,0,0,1,47.49-1.7a7.1,7.1,0,0,1-.748-1.87A8.731,8.731,0,0,1,46.5-5.661a8.731,8.731,0,0,1,.246-2.091,6.963,6.963,0,0,1,.748-1.862,3.861,3.861,0,0,1,1.36-1.377,3.755,3.755,0,0,1,1.98-.519,3.767,3.767,0,0,1,1.972.519,3.839,3.839,0,0,1,1.368,1.377,6.963,6.963,0,0,1,.748,1.862,8.731,8.731,0,0,1,.246,2.091,8.731,8.731,0,0,1-.246,2.091,7.1,7.1,0,0,1-.748,1.87A3.818,3.818,0,0,1,52.8-.315,3.767,3.767,0,0,1,50.83.2ZM49.13-1.76a2.264,2.264,0,0,0,1.7.706,2.264,2.264,0,0,0,1.7-.706,3.742,3.742,0,0,0,.935-1.692,8.835,8.835,0,0,0,.255-2.21,8.835,8.835,0,0,0-.255-2.21,3.684,3.684,0,0,0-.935-1.683,2.277,2.277,0,0,0-1.7-.7,2.277,2.277,0,0,0-1.7.7A3.684,3.684,0,0,0,48.2-7.871a8.835,8.835,0,0,0-.255,2.21,8.835,8.835,0,0,0,.255,2.21A3.742,3.742,0,0,0,49.13-1.76ZM65.62.2a3.755,3.755,0,0,1-1.98-.519A3.84,3.84,0,0,1,62.28-1.7a7.1,7.1,0,0,1-.748-1.87,8.731,8.731,0,0,1-.246-2.091,8.731,8.731,0,0,1,.246-2.091,6.963,6.963,0,0,1,.748-1.862,3.861,3.861,0,0,1,1.36-1.377,3.755,3.755,0,0,1,1.98-.519,3.767,3.767,0,0,1,1.972.519,3.839,3.839,0,0,1,1.368,1.377,6.963,6.963,0,0,1,.748,1.862,8.731,8.731,0,0,1,.246,2.091,8.731,8.731,0,0,1-.246,2.091,7.1,7.1,0,0,1-.748,1.87A3.818,3.818,0,0,1,67.592-.315,3.767,3.767,0,0,1,65.62.2ZM63.92-1.76a2.264,2.264,0,0,0,1.7.706,2.264,2.264,0,0,0,1.7-.706,3.742,3.742,0,0,0,.935-1.692,8.835,8.835,0,0,0,.255-2.21,8.835,8.835,0,0,0-.255-2.21,3.684,3.684,0,0,0-.935-1.683,2.277,2.277,0,0,0-1.7-.7,2.277,2.277,0,0,0-1.7.7,3.684,3.684,0,0,0-.935,1.683,8.835,8.835,0,0,0-.255,2.21,8.835,8.835,0,0,0,.255,2.21A3.742,3.742,0,0,0,63.92-1.76ZM76.024.2a3.755,3.755,0,0,1-1.981-.519A3.84,3.84,0,0,1,72.684-1.7a7.1,7.1,0,0,1-.748-1.87,8.731,8.731,0,0,1-.247-2.091,8.731,8.731,0,0,1,.247-2.091,6.963,6.963,0,0,1,.748-1.862,3.861,3.861,0,0,1,1.36-1.377,3.755,3.755,0,0,1,1.981-.519A3.767,3.767,0,0,1,78-10.991a3.839,3.839,0,0,1,1.368,1.377,6.963,6.963,0,0,1,.748,1.862,8.731,8.731,0,0,1,.247,2.091,8.731,8.731,0,0,1-.247,2.091,7.1,7.1,0,0,1-.748,1.87A3.818,3.818,0,0,1,78-.315,3.767,3.767,0,0,1,76.024.2Zm-1.7-1.964a2.264,2.264,0,0,0,1.7.706,2.264,2.264,0,0,0,1.7-.706,3.742,3.742,0,0,0,.935-1.692,8.835,8.835,0,0,0,.255-2.21,8.835,8.835,0,0,0-.255-2.21,3.684,3.684,0,0,0-.935-1.683,2.277,2.277,0,0,0-1.7-.7,2.277,2.277,0,0,0-1.7.7,3.684,3.684,0,0,0-.935,1.683,8.835,8.835,0,0,0-.255,2.21,8.835,8.835,0,0,0,.255,2.21A3.742,3.742,0,0,0,74.324-1.76ZM86.428.2a3.755,3.755,0,0,1-1.981-.519A3.84,3.84,0,0,1,83.088-1.7a7.1,7.1,0,0,1-.748-1.87,8.731,8.731,0,0,1-.247-2.091,8.731,8.731,0,0,1,.247-2.091,6.963,6.963,0,0,1,.748-1.862,3.861,3.861,0,0,1,1.36-1.377,3.755,3.755,0,0,1,1.981-.519,3.767,3.767,0,0,1,1.972.519,3.839,3.839,0,0,1,1.368,1.377,6.963,6.963,0,0,1,.748,1.862,8.731,8.731,0,0,1,.246,2.091,8.731,8.731,0,0,1-.246,2.091,7.1,7.1,0,0,1-.748,1.87A3.818,3.818,0,0,1,88.4-.315,3.767,3.767,0,0,1,86.428.2Zm-1.7-1.964a2.264,2.264,0,0,0,1.7.706,2.264,2.264,0,0,0,1.7-.706,3.742,3.742,0,0,0,.935-1.692,8.835,8.835,0,0,0,.255-2.21,8.835,8.835,0,0,0-.255-2.21,3.684,3.684,0,0,0-.935-1.683,2.277,2.277,0,0,0-1.7-.7,2.277,2.277,0,0,0-1.7.7,3.684,3.684,0,0,0-.935,1.683,8.835,8.835,0,0,0-.255,2.21,8.835,8.835,0,0,0,.255,2.21A3.742,3.742,0,0,0,84.728-1.76Z" transform="translate(370 5047)"/>
    <path id="Path_3099" data-name="Path 3099" class="cls-3" d="M4.522.2A5.327,5.327,0,0,1,2.108-.323,4.163,4.163,0,0,1,.493-1.666l.833-.884A3.652,3.652,0,0,0,2.669-1.462a4.079,4.079,0,0,0,1.819.408,3.017,3.017,0,0,0,1.947-.57A1.892,1.892,0,0,0,7.14-3.179a1.68,1.68,0,0,0-.756-1.513,3.75,3.75,0,0,0-2.066-.493q-1,0-1.173.017V-6.46q.187.017,1.173.017a3.493,3.493,0,0,0,1.9-.467,1.55,1.55,0,0,0,.74-1.4,1.654,1.654,0,0,0-.722-1.42,3.026,3.026,0,0,0-1.81-.518A3.955,3.955,0,0,0,1.428-8.874L.646-9.758a4.767,4.767,0,0,1,3.876-1.751,4.488,4.488,0,0,1,2.763.807A2.619,2.619,0,0,1,8.364-8.483,2.292,2.292,0,0,1,7.616-6.69a3.4,3.4,0,0,1-1.7.842,3.124,3.124,0,0,1,1.776.816A2.479,2.479,0,0,1,8.534-3.06,2.926,2.926,0,0,1,7.446-.706,4.414,4.414,0,0,1,4.522.2ZM14.671.2a3.755,3.755,0,0,1-1.981-.519A3.84,3.84,0,0,1,11.331-1.7a7.1,7.1,0,0,1-.748-1.87,8.731,8.731,0,0,1-.247-2.091,8.731,8.731,0,0,1,.247-2.091,6.963,6.963,0,0,1,.748-1.862,3.861,3.861,0,0,1,1.36-1.377,3.755,3.755,0,0,1,1.981-.519,3.767,3.767,0,0,1,1.972.519,3.839,3.839,0,0,1,1.368,1.377,6.963,6.963,0,0,1,.748,1.862,8.731,8.731,0,0,1,.246,2.091A8.731,8.731,0,0,1,18.76-3.57a7.1,7.1,0,0,1-.748,1.87A3.818,3.818,0,0,1,16.643-.315,3.767,3.767,0,0,1,14.671.2Zm-1.7-1.964a2.264,2.264,0,0,0,1.7.706,2.264,2.264,0,0,0,1.7-.706,3.742,3.742,0,0,0,.935-1.692,8.835,8.835,0,0,0,.255-2.21,8.835,8.835,0,0,0-.255-2.21,3.684,3.684,0,0,0-.935-1.683,2.277,2.277,0,0,0-1.7-.7,2.277,2.277,0,0,0-1.7.7,3.684,3.684,0,0,0-.935,1.683,8.835,8.835,0,0,0-.255,2.21,8.835,8.835,0,0,0,.255,2.21A3.742,3.742,0,0,0,12.971-1.76ZM29.461.2a3.755,3.755,0,0,1-1.981-.519A3.84,3.84,0,0,1,26.121-1.7a7.1,7.1,0,0,1-.748-1.87,8.731,8.731,0,0,1-.247-2.091,8.731,8.731,0,0,1,.247-2.091,6.963,6.963,0,0,1,.748-1.862,3.861,3.861,0,0,1,1.36-1.377,3.755,3.755,0,0,1,1.981-.519,3.767,3.767,0,0,1,1.972.519A3.839,3.839,0,0,1,32.8-9.614a6.963,6.963,0,0,1,.748,1.862A8.731,8.731,0,0,1,33.8-5.661a8.731,8.731,0,0,1-.247,2.091A7.1,7.1,0,0,1,32.8-1.7,3.818,3.818,0,0,1,31.433-.315,3.767,3.767,0,0,1,29.461.2Zm-1.7-1.964a2.264,2.264,0,0,0,1.7.706,2.264,2.264,0,0,0,1.7-.706A3.742,3.742,0,0,0,32.1-3.451a8.835,8.835,0,0,0,.255-2.21,8.835,8.835,0,0,0-.255-2.21,3.684,3.684,0,0,0-.935-1.683,2.277,2.277,0,0,0-1.7-.7,2.277,2.277,0,0,0-1.7.7,3.684,3.684,0,0,0-.935,1.683,8.835,8.835,0,0,0-.255,2.21,8.835,8.835,0,0,0,.255,2.21A3.742,3.742,0,0,0,27.761-1.76ZM39.865.2a3.755,3.755,0,0,1-1.98-.519A3.84,3.84,0,0,1,36.525-1.7a7.1,7.1,0,0,1-.748-1.87,8.731,8.731,0,0,1-.246-2.091,8.731,8.731,0,0,1,.246-2.091,6.963,6.963,0,0,1,.748-1.862,3.861,3.861,0,0,1,1.36-1.377,3.755,3.755,0,0,1,1.98-.519,3.767,3.767,0,0,1,1.972.519,3.839,3.839,0,0,1,1.368,1.377,6.963,6.963,0,0,1,.748,1.862A8.731,8.731,0,0,1,44.2-5.661a8.731,8.731,0,0,1-.247,2.091,7.1,7.1,0,0,1-.748,1.87A3.818,3.818,0,0,1,41.837-.315,3.767,3.767,0,0,1,39.865.2Zm-1.7-1.964a2.264,2.264,0,0,0,1.7.706,2.264,2.264,0,0,0,1.7-.706A3.742,3.742,0,0,0,42.5-3.451a8.835,8.835,0,0,0,.255-2.21,8.835,8.835,0,0,0-.255-2.21,3.684,3.684,0,0,0-.935-1.683,2.277,2.277,0,0,0-1.7-.7,2.277,2.277,0,0,0-1.7.7,3.684,3.684,0,0,0-.935,1.683,8.835,8.835,0,0,0-.255,2.21,8.835,8.835,0,0,0,.255,2.21A3.742,3.742,0,0,0,38.165-1.76ZM50.269.2a3.755,3.755,0,0,1-1.98-.519A3.84,3.84,0,0,1,46.929-1.7a7.1,7.1,0,0,1-.748-1.87,8.731,8.731,0,0,1-.246-2.091,8.731,8.731,0,0,1,.246-2.091,6.963,6.963,0,0,1,.748-1.862,3.861,3.861,0,0,1,1.36-1.377,3.755,3.755,0,0,1,1.98-.519,3.767,3.767,0,0,1,1.972.519A3.839,3.839,0,0,1,53.61-9.614a6.963,6.963,0,0,1,.748,1.862A8.731,8.731,0,0,1,54.6-5.661a8.731,8.731,0,0,1-.247,2.091A7.1,7.1,0,0,1,53.61-1.7,3.818,3.818,0,0,1,52.241-.315,3.767,3.767,0,0,1,50.269.2Zm-1.7-1.964a2.264,2.264,0,0,0,1.7.706,2.264,2.264,0,0,0,1.7-.706A3.742,3.742,0,0,0,52.9-3.451a8.835,8.835,0,0,0,.255-2.21,8.835,8.835,0,0,0-.255-2.21,3.684,3.684,0,0,0-.935-1.683,2.277,2.277,0,0,0-1.7-.7,2.277,2.277,0,0,0-1.7.7,3.684,3.684,0,0,0-.935,1.683,8.835,8.835,0,0,0-.255,2.21,8.835,8.835,0,0,0,.255,2.21A3.742,3.742,0,0,0,48.569-1.76ZM65.059.2a3.755,3.755,0,0,1-1.981-.519A3.84,3.84,0,0,1,61.719-1.7a7.1,7.1,0,0,1-.748-1.87,8.731,8.731,0,0,1-.246-2.091,8.731,8.731,0,0,1,.246-2.091,6.963,6.963,0,0,1,.748-1.862,3.861,3.861,0,0,1,1.36-1.377,3.755,3.755,0,0,1,1.981-.519,3.767,3.767,0,0,1,1.972.519A3.839,3.839,0,0,1,68.4-9.614a6.963,6.963,0,0,1,.748,1.862,8.731,8.731,0,0,1,.246,2.091,8.731,8.731,0,0,1-.246,2.091A7.1,7.1,0,0,1,68.4-1.7,3.818,3.818,0,0,1,67.031-.315,3.767,3.767,0,0,1,65.059.2Zm-1.7-1.964a2.264,2.264,0,0,0,1.7.706,2.264,2.264,0,0,0,1.7-.706,3.742,3.742,0,0,0,.935-1.692,8.835,8.835,0,0,0,.255-2.21,8.835,8.835,0,0,0-.255-2.21,3.684,3.684,0,0,0-.935-1.683,2.277,2.277,0,0,0-1.7-.7,2.277,2.277,0,0,0-1.7.7,3.684,3.684,0,0,0-.935,1.683,8.835,8.835,0,0,0-.255,2.21,8.835,8.835,0,0,0,.255,2.21A3.742,3.742,0,0,0,63.359-1.76ZM75.463.2a3.755,3.755,0,0,1-1.981-.519A3.84,3.84,0,0,1,72.123-1.7a7.1,7.1,0,0,1-.748-1.87,8.731,8.731,0,0,1-.247-2.091,8.731,8.731,0,0,1,.247-2.091,6.963,6.963,0,0,1,.748-1.862,3.861,3.861,0,0,1,1.36-1.377,3.755,3.755,0,0,1,1.981-.519,3.767,3.767,0,0,1,1.972.519A3.839,3.839,0,0,1,78.8-9.614a6.963,6.963,0,0,1,.748,1.862A8.731,8.731,0,0,1,79.8-5.661a8.731,8.731,0,0,1-.247,2.091A7.1,7.1,0,0,1,78.8-1.7,3.818,3.818,0,0,1,77.435-.315,3.767,3.767,0,0,1,75.463.2Zm-1.7-1.964a2.264,2.264,0,0,0,1.7.706,2.264,2.264,0,0,0,1.7-.706A3.742,3.742,0,0,0,78.1-3.451a8.835,8.835,0,0,0,.255-2.21,8.835,8.835,0,0,0-.255-2.21,3.684,3.684,0,0,0-.935-1.683,2.277,2.277,0,0,0-1.7-.7,2.277,2.277,0,0,0-1.7.7,3.684,3.684,0,0,0-.935,1.683,8.835,8.835,0,0,0-.255,2.21,8.835,8.835,0,0,0,.255,2.21A3.742,3.742,0,0,0,73.763-1.76ZM85.867.2a3.755,3.755,0,0,1-1.981-.519A3.84,3.84,0,0,1,82.527-1.7a7.1,7.1,0,0,1-.748-1.87,8.731,8.731,0,0,1-.247-2.091,8.731,8.731,0,0,1,.247-2.091,6.963,6.963,0,0,1,.748-1.862,3.861,3.861,0,0,1,1.36-1.377,3.755,3.755,0,0,1,1.981-.519,3.767,3.767,0,0,1,1.972.519,3.839,3.839,0,0,1,1.368,1.377,6.963,6.963,0,0,1,.748,1.862A8.731,8.731,0,0,1,90.2-5.661a8.731,8.731,0,0,1-.246,2.091,7.1,7.1,0,0,1-.748,1.87A3.818,3.818,0,0,1,87.839-.315,3.767,3.767,0,0,1,85.867.2Zm-1.7-1.964a2.264,2.264,0,0,0,1.7.706,2.264,2.264,0,0,0,1.7-.706A3.742,3.742,0,0,0,88.5-3.451a8.835,8.835,0,0,0,.255-2.21,8.835,8.835,0,0,0-.255-2.21,3.684,3.684,0,0,0-.935-1.683,2.277,2.277,0,0,0-1.7-.7,2.277,2.277,0,0,0-1.7.7,3.684,3.684,0,0,0-.935,1.683,8.835,8.835,0,0,0-.255,2.21,8.835,8.835,0,0,0,.255,2.21A3.742,3.742,0,0,0,84.167-1.76Z" transform="translate(371 5146)"/>
    <path id="Path_3105" data-name="Path 3105" class="cls-3" d="M4.437,0H3.026V-9.469L1.207-7.548l-.85-.867L3.2-11.339H4.437Zm6.528.2A3.755,3.755,0,0,1,8.985-.315,3.84,3.84,0,0,1,7.625-1.7a7.1,7.1,0,0,1-.748-1.87A8.731,8.731,0,0,1,6.63-5.661a8.731,8.731,0,0,1,.247-2.091,6.963,6.963,0,0,1,.748-1.862,3.861,3.861,0,0,1,1.36-1.377,3.755,3.755,0,0,1,1.981-.519,3.767,3.767,0,0,1,1.972.519,3.839,3.839,0,0,1,1.368,1.377,6.963,6.963,0,0,1,.748,1.862A8.731,8.731,0,0,1,15.3-5.661a8.731,8.731,0,0,1-.247,2.091,7.1,7.1,0,0,1-.748,1.87A3.818,3.818,0,0,1,12.937-.315,3.767,3.767,0,0,1,10.965.2ZM9.265-1.76a2.264,2.264,0,0,0,1.7.706,2.264,2.264,0,0,0,1.7-.706A3.742,3.742,0,0,0,13.6-3.451a8.835,8.835,0,0,0,.255-2.21,8.835,8.835,0,0,0-.255-2.21,3.684,3.684,0,0,0-.935-1.683,2.277,2.277,0,0,0-1.7-.7,2.277,2.277,0,0,0-1.7.7A3.684,3.684,0,0,0,8.33-7.871a8.835,8.835,0,0,0-.255,2.21,8.835,8.835,0,0,0,.255,2.21A3.742,3.742,0,0,0,9.265-1.76ZM25.755.2a3.755,3.755,0,0,1-1.981-.519A3.84,3.84,0,0,1,22.414-1.7a7.1,7.1,0,0,1-.748-1.87,8.731,8.731,0,0,1-.247-2.091,8.731,8.731,0,0,1,.247-2.091,6.963,6.963,0,0,1,.748-1.862,3.861,3.861,0,0,1,1.36-1.377,3.755,3.755,0,0,1,1.981-.519,3.767,3.767,0,0,1,1.972.519A3.839,3.839,0,0,1,29.1-9.614a6.963,6.963,0,0,1,.748,1.862,8.731,8.731,0,0,1,.247,2.091,8.731,8.731,0,0,1-.247,2.091A7.1,7.1,0,0,1,29.1-1.7,3.818,3.818,0,0,1,27.727-.315,3.767,3.767,0,0,1,25.755.2Zm-1.7-1.964a2.264,2.264,0,0,0,1.7.706,2.264,2.264,0,0,0,1.7-.706,3.742,3.742,0,0,0,.935-1.692,8.835,8.835,0,0,0,.255-2.21,8.835,8.835,0,0,0-.255-2.21,3.684,3.684,0,0,0-.935-1.683,2.277,2.277,0,0,0-1.7-.7,2.277,2.277,0,0,0-1.7.7,3.684,3.684,0,0,0-.935,1.683,8.835,8.835,0,0,0-.255,2.21,8.835,8.835,0,0,0,.255,2.21A3.742,3.742,0,0,0,24.055-1.76ZM36.159.2a3.755,3.755,0,0,1-1.98-.519A3.84,3.84,0,0,1,32.819-1.7a7.1,7.1,0,0,1-.748-1.87,8.731,8.731,0,0,1-.246-2.091,8.731,8.731,0,0,1,.246-2.091,6.963,6.963,0,0,1,.748-1.862,3.861,3.861,0,0,1,1.36-1.377,3.755,3.755,0,0,1,1.98-.519,3.767,3.767,0,0,1,1.972.519A3.839,3.839,0,0,1,39.5-9.614a6.963,6.963,0,0,1,.748,1.862,8.731,8.731,0,0,1,.247,2.091,8.731,8.731,0,0,1-.247,2.091A7.1,7.1,0,0,1,39.5-1.7,3.818,3.818,0,0,1,38.131-.315,3.767,3.767,0,0,1,36.159.2Zm-1.7-1.964a2.264,2.264,0,0,0,1.7.706,2.264,2.264,0,0,0,1.7-.706,3.742,3.742,0,0,0,.935-1.692,8.835,8.835,0,0,0,.255-2.21,8.835,8.835,0,0,0-.255-2.21,3.684,3.684,0,0,0-.935-1.683,2.277,2.277,0,0,0-1.7-.7,2.277,2.277,0,0,0-1.7.7,3.684,3.684,0,0,0-.935,1.683,8.835,8.835,0,0,0-.255,2.21,8.835,8.835,0,0,0,.255,2.21A3.742,3.742,0,0,0,34.459-1.76ZM46.563.2a3.755,3.755,0,0,1-1.98-.519A3.84,3.84,0,0,1,43.222-1.7a7.1,7.1,0,0,1-.748-1.87,8.731,8.731,0,0,1-.246-2.091,8.731,8.731,0,0,1,.246-2.091,6.963,6.963,0,0,1,.748-1.862,3.861,3.861,0,0,1,1.36-1.377,3.755,3.755,0,0,1,1.98-.519,3.767,3.767,0,0,1,1.972.519A3.839,3.839,0,0,1,49.9-9.614a6.963,6.963,0,0,1,.748,1.862A8.731,8.731,0,0,1,50.9-5.661a8.731,8.731,0,0,1-.247,2.091A7.1,7.1,0,0,1,49.9-1.7,3.818,3.818,0,0,1,48.535-.315,3.767,3.767,0,0,1,46.563.2Zm-1.7-1.964a2.264,2.264,0,0,0,1.7.706,2.264,2.264,0,0,0,1.7-.706A3.742,3.742,0,0,0,49.2-3.451a8.835,8.835,0,0,0,.255-2.21,8.835,8.835,0,0,0-.255-2.21,3.684,3.684,0,0,0-.935-1.683,2.277,2.277,0,0,0-1.7-.7,2.277,2.277,0,0,0-1.7.7,3.684,3.684,0,0,0-.935,1.683,8.835,8.835,0,0,0-.255,2.21,8.835,8.835,0,0,0,.255,2.21A3.742,3.742,0,0,0,44.863-1.76ZM61.353.2a3.755,3.755,0,0,1-1.98-.519A3.84,3.84,0,0,1,58.013-1.7a7.1,7.1,0,0,1-.748-1.87,8.731,8.731,0,0,1-.246-2.091,8.731,8.731,0,0,1,.246-2.091,6.963,6.963,0,0,1,.748-1.862,3.861,3.861,0,0,1,1.36-1.377,3.755,3.755,0,0,1,1.98-.519,3.767,3.767,0,0,1,1.972.519,3.839,3.839,0,0,1,1.368,1.377,6.963,6.963,0,0,1,.748,1.862,8.731,8.731,0,0,1,.247,2.091,8.731,8.731,0,0,1-.247,2.091,7.1,7.1,0,0,1-.748,1.87A3.818,3.818,0,0,1,63.325-.315,3.767,3.767,0,0,1,61.353.2Zm-1.7-1.964a2.264,2.264,0,0,0,1.7.706,2.264,2.264,0,0,0,1.7-.706,3.742,3.742,0,0,0,.935-1.692,8.836,8.836,0,0,0,.255-2.21,8.836,8.836,0,0,0-.255-2.21,3.684,3.684,0,0,0-.935-1.683,2.277,2.277,0,0,0-1.7-.7,2.277,2.277,0,0,0-1.7.7,3.684,3.684,0,0,0-.935,1.683,8.835,8.835,0,0,0-.255,2.21,8.835,8.835,0,0,0,.255,2.21A3.742,3.742,0,0,0,59.653-1.76ZM71.757.2a3.755,3.755,0,0,1-1.981-.519A3.84,3.84,0,0,1,68.417-1.7a7.1,7.1,0,0,1-.748-1.87,8.731,8.731,0,0,1-.247-2.091,8.731,8.731,0,0,1,.247-2.091,6.963,6.963,0,0,1,.748-1.862,3.861,3.861,0,0,1,1.36-1.377,3.755,3.755,0,0,1,1.981-.519,3.767,3.767,0,0,1,1.972.519A3.839,3.839,0,0,1,75.1-9.614a6.963,6.963,0,0,1,.748,1.862,8.731,8.731,0,0,1,.246,2.091,8.731,8.731,0,0,1-.246,2.091A7.1,7.1,0,0,1,75.1-1.7,3.818,3.818,0,0,1,73.729-.315,3.767,3.767,0,0,1,71.757.2Zm-1.7-1.964a2.264,2.264,0,0,0,1.7.706,2.264,2.264,0,0,0,1.7-.706,3.742,3.742,0,0,0,.935-1.692,8.835,8.835,0,0,0,.255-2.21,8.835,8.835,0,0,0-.255-2.21,3.684,3.684,0,0,0-.935-1.683,2.277,2.277,0,0,0-1.7-.7,2.277,2.277,0,0,0-1.7.7,3.684,3.684,0,0,0-.935,1.683,8.835,8.835,0,0,0-.255,2.21,8.835,8.835,0,0,0,.255,2.21A3.742,3.742,0,0,0,70.057-1.76ZM82.161.2A3.755,3.755,0,0,1,80.18-.315,3.84,3.84,0,0,1,78.821-1.7a7.1,7.1,0,0,1-.748-1.87,8.731,8.731,0,0,1-.247-2.091,8.731,8.731,0,0,1,.247-2.091,6.963,6.963,0,0,1,.748-1.862,3.861,3.861,0,0,1,1.36-1.377,3.755,3.755,0,0,1,1.981-.519,3.767,3.767,0,0,1,1.972.519A3.839,3.839,0,0,1,85.5-9.614a6.963,6.963,0,0,1,.748,1.862A8.731,8.731,0,0,1,86.5-5.661a8.731,8.731,0,0,1-.247,2.091A7.1,7.1,0,0,1,85.5-1.7,3.818,3.818,0,0,1,84.133-.315,3.767,3.767,0,0,1,82.161.2Zm-1.7-1.964a2.264,2.264,0,0,0,1.7.706,2.264,2.264,0,0,0,1.7-.706A3.742,3.742,0,0,0,84.8-3.451a8.835,8.835,0,0,0,.255-2.21,8.835,8.835,0,0,0-.255-2.21,3.684,3.684,0,0,0-.935-1.683,2.277,2.277,0,0,0-1.7-.7,2.277,2.277,0,0,0-1.7.7,3.684,3.684,0,0,0-.935,1.683,8.835,8.835,0,0,0-.255,2.21,8.835,8.835,0,0,0,.255,2.21A3.742,3.742,0,0,0,80.461-1.76Z" transform="translate(375 5249)"/>
    <path id="Path_3100" data-name="Path 3100" class="cls-3" d="M8.7,0H.918V-1.122Q2.686-2.516,3.664-3.341T5.551-5.092A7.281,7.281,0,0,0,6.834-6.741a3.1,3.1,0,0,0,.374-1.437,1.819,1.819,0,0,0-.7-1.547,2.683,2.683,0,0,0-1.666-.527A3.7,3.7,0,0,0,1.768-8.823L.9-9.724a4.267,4.267,0,0,1,1.691-1.317,5.454,5.454,0,0,1,2.253-.468,4.272,4.272,0,0,1,2.678.867,2.923,2.923,0,0,1,1.13,2.465,4.84,4.84,0,0,1-1.36,3.154A30.882,30.882,0,0,1,3.145-1.258H8.7ZM15.2.2a3.755,3.755,0,0,1-1.981-.519A3.84,3.84,0,0,1,11.858-1.7a7.1,7.1,0,0,1-.748-1.87,8.731,8.731,0,0,1-.247-2.091,8.731,8.731,0,0,1,.247-2.091,6.963,6.963,0,0,1,.748-1.862,3.861,3.861,0,0,1,1.36-1.377,3.755,3.755,0,0,1,1.981-.519,3.767,3.767,0,0,1,1.972.519,3.839,3.839,0,0,1,1.368,1.377,6.963,6.963,0,0,1,.748,1.862,8.731,8.731,0,0,1,.247,2.091,8.731,8.731,0,0,1-.247,2.091,7.1,7.1,0,0,1-.748,1.87A3.818,3.818,0,0,1,17.17-.315,3.767,3.767,0,0,1,15.2.2ZM13.5-1.76a2.264,2.264,0,0,0,1.7.706,2.264,2.264,0,0,0,1.7-.706,3.742,3.742,0,0,0,.935-1.692,8.835,8.835,0,0,0,.255-2.21,8.835,8.835,0,0,0-.255-2.21A3.684,3.684,0,0,0,16.9-9.554a2.277,2.277,0,0,0-1.7-.7,2.277,2.277,0,0,0-1.7.7,3.684,3.684,0,0,0-.935,1.683,8.835,8.835,0,0,0-.255,2.21,8.835,8.835,0,0,0,.255,2.21A3.742,3.742,0,0,0,13.5-1.76ZM29.988.2a3.755,3.755,0,0,1-1.981-.519A3.84,3.84,0,0,1,26.648-1.7,7.1,7.1,0,0,1,25.9-3.57a8.731,8.731,0,0,1-.247-2.091A8.731,8.731,0,0,1,25.9-7.752a6.963,6.963,0,0,1,.748-1.862,3.861,3.861,0,0,1,1.36-1.377,3.755,3.755,0,0,1,1.981-.519,3.767,3.767,0,0,1,1.972.519,3.839,3.839,0,0,1,1.368,1.377,6.963,6.963,0,0,1,.748,1.862,8.731,8.731,0,0,1,.247,2.091,8.731,8.731,0,0,1-.247,2.091,7.1,7.1,0,0,1-.748,1.87A3.818,3.818,0,0,1,31.96-.315,3.767,3.767,0,0,1,29.988.2Zm-1.7-1.964a2.264,2.264,0,0,0,1.7.706,2.264,2.264,0,0,0,1.7-.706,3.742,3.742,0,0,0,.935-1.692,8.835,8.835,0,0,0,.255-2.21,8.835,8.835,0,0,0-.255-2.21,3.684,3.684,0,0,0-.935-1.683,2.277,2.277,0,0,0-1.7-.7,2.277,2.277,0,0,0-1.7.7,3.684,3.684,0,0,0-.935,1.683,8.835,8.835,0,0,0-.255,2.21,8.835,8.835,0,0,0,.255,2.21A3.742,3.742,0,0,0,28.288-1.76ZM40.392.2a3.755,3.755,0,0,1-1.98-.519A3.84,3.84,0,0,1,37.052-1.7,7.1,7.1,0,0,1,36.3-3.57a8.731,8.731,0,0,1-.246-2.091A8.731,8.731,0,0,1,36.3-7.752a6.963,6.963,0,0,1,.748-1.862,3.861,3.861,0,0,1,1.36-1.377,3.755,3.755,0,0,1,1.98-.519,3.767,3.767,0,0,1,1.972.519,3.839,3.839,0,0,1,1.368,1.377,6.963,6.963,0,0,1,.748,1.862,8.731,8.731,0,0,1,.247,2.091,8.731,8.731,0,0,1-.247,2.091,7.1,7.1,0,0,1-.748,1.87A3.818,3.818,0,0,1,42.364-.315,3.767,3.767,0,0,1,40.392.2Zm-1.7-1.964a2.264,2.264,0,0,0,1.7.706,2.264,2.264,0,0,0,1.7-.706,3.742,3.742,0,0,0,.935-1.692,8.835,8.835,0,0,0,.255-2.21,8.835,8.835,0,0,0-.255-2.21,3.684,3.684,0,0,0-.935-1.683,2.277,2.277,0,0,0-1.7-.7,2.277,2.277,0,0,0-1.7.7,3.684,3.684,0,0,0-.935,1.683,8.835,8.835,0,0,0-.255,2.21,8.835,8.835,0,0,0,.255,2.21A3.742,3.742,0,0,0,38.692-1.76ZM50.8.2a3.755,3.755,0,0,1-1.98-.519A3.84,3.84,0,0,1,47.456-1.7a7.1,7.1,0,0,1-.748-1.87,8.731,8.731,0,0,1-.246-2.091,8.731,8.731,0,0,1,.246-2.091,6.963,6.963,0,0,1,.748-1.862,3.861,3.861,0,0,1,1.36-1.377,3.755,3.755,0,0,1,1.98-.519,3.767,3.767,0,0,1,1.972.519,3.839,3.839,0,0,1,1.368,1.377,6.963,6.963,0,0,1,.748,1.862,8.731,8.731,0,0,1,.247,2.091,8.731,8.731,0,0,1-.247,2.091,7.1,7.1,0,0,1-.748,1.87A3.818,3.818,0,0,1,52.768-.315,3.767,3.767,0,0,1,50.8.2ZM49.1-1.76a2.264,2.264,0,0,0,1.7.706,2.264,2.264,0,0,0,1.7-.706,3.742,3.742,0,0,0,.935-1.692,8.835,8.835,0,0,0,.255-2.21,8.835,8.835,0,0,0-.255-2.21A3.684,3.684,0,0,0,52.5-9.554a2.277,2.277,0,0,0-1.7-.7,2.277,2.277,0,0,0-1.7.7,3.684,3.684,0,0,0-.935,1.683,8.835,8.835,0,0,0-.255,2.21,8.835,8.835,0,0,0,.255,2.21A3.742,3.742,0,0,0,49.1-1.76ZM65.586.2a3.755,3.755,0,0,1-1.981-.519A3.84,3.84,0,0,1,62.246-1.7,7.1,7.1,0,0,1,61.5-3.57a8.731,8.731,0,0,1-.246-2.091A8.731,8.731,0,0,1,61.5-7.752a6.963,6.963,0,0,1,.748-1.862,3.861,3.861,0,0,1,1.36-1.377,3.755,3.755,0,0,1,1.981-.519,3.767,3.767,0,0,1,1.972.519,3.839,3.839,0,0,1,1.368,1.377,6.963,6.963,0,0,1,.748,1.862,8.731,8.731,0,0,1,.247,2.091,8.731,8.731,0,0,1-.247,2.091,7.1,7.1,0,0,1-.748,1.87A3.818,3.818,0,0,1,67.558-.315,3.767,3.767,0,0,1,65.586.2Zm-1.7-1.964a2.264,2.264,0,0,0,1.7.706,2.264,2.264,0,0,0,1.7-.706,3.742,3.742,0,0,0,.935-1.692,8.835,8.835,0,0,0,.255-2.21,8.835,8.835,0,0,0-.255-2.21,3.684,3.684,0,0,0-.935-1.683,2.277,2.277,0,0,0-1.7-.7,2.277,2.277,0,0,0-1.7.7,3.684,3.684,0,0,0-.935,1.683,8.835,8.835,0,0,0-.255,2.21,8.835,8.835,0,0,0,.255,2.21A3.742,3.742,0,0,0,63.886-1.76ZM75.99.2a3.755,3.755,0,0,1-1.981-.519A3.84,3.84,0,0,1,72.65-1.7,7.1,7.1,0,0,1,71.9-3.57a8.731,8.731,0,0,1-.247-2.091A8.731,8.731,0,0,1,71.9-7.752a6.963,6.963,0,0,1,.748-1.862,3.861,3.861,0,0,1,1.36-1.377,3.755,3.755,0,0,1,1.981-.519,3.767,3.767,0,0,1,1.972.519,3.839,3.839,0,0,1,1.368,1.377,6.963,6.963,0,0,1,.748,1.862,8.731,8.731,0,0,1,.246,2.091,8.731,8.731,0,0,1-.246,2.091,7.1,7.1,0,0,1-.748,1.87A3.818,3.818,0,0,1,77.962-.315,3.767,3.767,0,0,1,75.99.2ZM74.29-1.76a2.264,2.264,0,0,0,1.7.706,2.264,2.264,0,0,0,1.7-.706,3.742,3.742,0,0,0,.935-1.692,8.835,8.835,0,0,0,.255-2.21,8.835,8.835,0,0,0-.255-2.21,3.684,3.684,0,0,0-.935-1.683,2.277,2.277,0,0,0-1.7-.7,2.277,2.277,0,0,0-1.7.7,3.684,3.684,0,0,0-.935,1.683,8.835,8.835,0,0,0-.255,2.21,8.835,8.835,0,0,0,.255,2.21A3.742,3.742,0,0,0,74.29-1.76ZM86.394.2a3.755,3.755,0,0,1-1.981-.519A3.84,3.84,0,0,1,83.054-1.7a7.1,7.1,0,0,1-.748-1.87,8.731,8.731,0,0,1-.247-2.091,8.731,8.731,0,0,1,.247-2.091,6.963,6.963,0,0,1,.748-1.862,3.861,3.861,0,0,1,1.36-1.377,3.755,3.755,0,0,1,1.981-.519,3.767,3.767,0,0,1,1.972.519,3.839,3.839,0,0,1,1.368,1.377,6.963,6.963,0,0,1,.748,1.862,8.731,8.731,0,0,1,.247,2.091,8.731,8.731,0,0,1-.247,2.091,7.1,7.1,0,0,1-.748,1.87A3.818,3.818,0,0,1,88.366-.315,3.767,3.767,0,0,1,86.394.2Zm-1.7-1.964a2.264,2.264,0,0,0,1.7.706,2.264,2.264,0,0,0,1.7-.706,3.742,3.742,0,0,0,.935-1.692,8.835,8.835,0,0,0,.255-2.21,8.835,8.835,0,0,0-.255-2.21,3.684,3.684,0,0,0-.935-1.683,2.277,2.277,0,0,0-1.7-.7,2.277,2.277,0,0,0-1.7.7,3.684,3.684,0,0,0-.935,1.683,8.835,8.835,0,0,0-.255,2.21,8.835,8.835,0,0,0,.255,2.21A3.742,3.742,0,0,0,84.694-1.76Z" transform="translate(370 5195)"/>
    <path id="Path_3121" data-name="Path 3121" class="cls-2" d="M8.7,0H.918V-1.122Q2.686-2.516,3.664-3.341T5.551-5.092A7.281,7.281,0,0,0,6.834-6.741a3.1,3.1,0,0,0,.374-1.437,1.819,1.819,0,0,0-.7-1.547,2.683,2.683,0,0,0-1.666-.527A3.7,3.7,0,0,0,1.768-8.823L.9-9.724a4.267,4.267,0,0,1,1.691-1.317,5.454,5.454,0,0,1,2.253-.468,4.272,4.272,0,0,1,2.678.867,2.923,2.923,0,0,1,1.13,2.465,4.84,4.84,0,0,1-1.36,3.154A30.882,30.882,0,0,1,3.145-1.258H8.7ZM15.2.2a3.755,3.755,0,0,1-1.981-.519A3.84,3.84,0,0,1,11.858-1.7a7.1,7.1,0,0,1-.748-1.87,8.731,8.731,0,0,1-.247-2.091,8.731,8.731,0,0,1,.247-2.091,6.963,6.963,0,0,1,.748-1.862,3.861,3.861,0,0,1,1.36-1.377,3.755,3.755,0,0,1,1.981-.519,3.767,3.767,0,0,1,1.972.519,3.839,3.839,0,0,1,1.368,1.377,6.963,6.963,0,0,1,.748,1.862,8.731,8.731,0,0,1,.247,2.091,8.731,8.731,0,0,1-.247,2.091,7.1,7.1,0,0,1-.748,1.87A3.818,3.818,0,0,1,17.17-.315,3.767,3.767,0,0,1,15.2.2ZM13.5-1.76a2.264,2.264,0,0,0,1.7.706,2.264,2.264,0,0,0,1.7-.706,3.742,3.742,0,0,0,.935-1.692,8.835,8.835,0,0,0,.255-2.21,8.835,8.835,0,0,0-.255-2.21A3.684,3.684,0,0,0,16.9-9.554a2.277,2.277,0,0,0-1.7-.7,2.277,2.277,0,0,0-1.7.7,3.684,3.684,0,0,0-.935,1.683,8.835,8.835,0,0,0-.255,2.21,8.835,8.835,0,0,0,.255,2.21A3.742,3.742,0,0,0,13.5-1.76ZM29.1,0H21.318V-1.122q1.768-1.394,2.746-2.219t1.887-1.751a7.282,7.282,0,0,0,1.283-1.649,3.1,3.1,0,0,0,.374-1.437,1.819,1.819,0,0,0-.7-1.547,2.683,2.683,0,0,0-1.666-.527,3.7,3.7,0,0,0-3.077,1.428l-.867-.9a4.267,4.267,0,0,1,1.691-1.317,5.454,5.454,0,0,1,2.253-.468,4.272,4.272,0,0,1,2.677.867,2.923,2.923,0,0,1,1.13,2.465,4.84,4.84,0,0,1-1.36,3.154,30.882,30.882,0,0,1-4.148,3.765H29.1ZM35.6.2a3.755,3.755,0,0,1-1.981-.519A3.84,3.84,0,0,1,32.258-1.7a7.1,7.1,0,0,1-.748-1.87,8.731,8.731,0,0,1-.247-2.091,8.731,8.731,0,0,1,.247-2.091,6.963,6.963,0,0,1,.748-1.862,3.861,3.861,0,0,1,1.36-1.377,3.755,3.755,0,0,1,1.981-.519,3.767,3.767,0,0,1,1.972.519,3.839,3.839,0,0,1,1.368,1.377,6.963,6.963,0,0,1,.748,1.862,8.731,8.731,0,0,1,.247,2.091,8.731,8.731,0,0,1-.247,2.091,7.1,7.1,0,0,1-.748,1.87A3.818,3.818,0,0,1,37.57-.315,3.767,3.767,0,0,1,35.6.2ZM33.9-1.76a2.264,2.264,0,0,0,1.7.706,2.264,2.264,0,0,0,1.7-.706,3.742,3.742,0,0,0,.935-1.692,8.835,8.835,0,0,0,.255-2.21,8.835,8.835,0,0,0-.255-2.21A3.684,3.684,0,0,0,37.3-9.554a2.277,2.277,0,0,0-1.7-.7,2.277,2.277,0,0,0-1.7.7,3.684,3.684,0,0,0-.935,1.683,8.835,8.835,0,0,0-.255,2.21,8.835,8.835,0,0,0,.255,2.21A3.742,3.742,0,0,0,33.9-1.76Z" transform="translate(681 5424)"/>
    <path id="Path_3122" data-name="Path 3122" class="cls-2" d="M8.7,0H.918V-1.122Q2.686-2.516,3.664-3.341T5.551-5.092A7.281,7.281,0,0,0,6.834-6.741a3.1,3.1,0,0,0,.374-1.437,1.819,1.819,0,0,0-.7-1.547,2.683,2.683,0,0,0-1.666-.527A3.7,3.7,0,0,0,1.768-8.823L.9-9.724a4.267,4.267,0,0,1,1.691-1.317,5.454,5.454,0,0,1,2.253-.468,4.272,4.272,0,0,1,2.678.867,2.923,2.923,0,0,1,1.13,2.465,4.84,4.84,0,0,1-1.36,3.154A30.882,30.882,0,0,1,3.145-1.258H8.7ZM15.2.2a3.755,3.755,0,0,1-1.981-.519A3.84,3.84,0,0,1,11.858-1.7a7.1,7.1,0,0,1-.748-1.87,8.731,8.731,0,0,1-.247-2.091,8.731,8.731,0,0,1,.247-2.091,6.963,6.963,0,0,1,.748-1.862,3.861,3.861,0,0,1,1.36-1.377,3.755,3.755,0,0,1,1.981-.519,3.767,3.767,0,0,1,1.972.519,3.839,3.839,0,0,1,1.368,1.377,6.963,6.963,0,0,1,.748,1.862,8.731,8.731,0,0,1,.247,2.091,8.731,8.731,0,0,1-.247,2.091,7.1,7.1,0,0,1-.748,1.87A3.818,3.818,0,0,1,17.17-.315,3.767,3.767,0,0,1,15.2.2ZM13.5-1.76a2.264,2.264,0,0,0,1.7.706,2.264,2.264,0,0,0,1.7-.706,3.742,3.742,0,0,0,.935-1.692,8.835,8.835,0,0,0,.255-2.21,8.835,8.835,0,0,0-.255-2.21A3.684,3.684,0,0,0,16.9-9.554a2.277,2.277,0,0,0-1.7-.7,2.277,2.277,0,0,0-1.7.7,3.684,3.684,0,0,0-.935,1.683,8.835,8.835,0,0,0-.255,2.21,8.835,8.835,0,0,0,.255,2.21A3.742,3.742,0,0,0,13.5-1.76ZM29.1,0H21.318V-1.122q1.768-1.394,2.746-2.219t1.887-1.751a7.282,7.282,0,0,0,1.283-1.649,3.1,3.1,0,0,0,.374-1.437,1.819,1.819,0,0,0-.7-1.547,2.683,2.683,0,0,0-1.666-.527,3.7,3.7,0,0,0-3.077,1.428l-.867-.9a4.267,4.267,0,0,1,1.691-1.317,5.454,5.454,0,0,1,2.253-.468,4.272,4.272,0,0,1,2.677.867,2.923,2.923,0,0,1,1.13,2.465,4.84,4.84,0,0,1-1.36,3.154,30.882,30.882,0,0,1-4.148,3.765H29.1Zm5.729,0H33.422V-9.469L31.6-7.548l-.85-.867,2.839-2.924h1.241Z" transform="translate(827 5424)"/>
    <path id="Path_3123" data-name="Path 3123" class="cls-2" d="M8.7,0H.918V-1.122Q2.686-2.516,3.664-3.341T5.551-5.092A7.281,7.281,0,0,0,6.834-6.741a3.1,3.1,0,0,0,.374-1.437,1.819,1.819,0,0,0-.7-1.547,2.683,2.683,0,0,0-1.666-.527A3.7,3.7,0,0,0,1.768-8.823L.9-9.724a4.267,4.267,0,0,1,1.691-1.317,5.454,5.454,0,0,1,2.253-.468,4.272,4.272,0,0,1,2.678.867,2.923,2.923,0,0,1,1.13,2.465,4.84,4.84,0,0,1-1.36,3.154A30.882,30.882,0,0,1,3.145-1.258H8.7ZM15.2.2a3.755,3.755,0,0,1-1.981-.519A3.84,3.84,0,0,1,11.858-1.7a7.1,7.1,0,0,1-.748-1.87,8.731,8.731,0,0,1-.247-2.091,8.731,8.731,0,0,1,.247-2.091,6.963,6.963,0,0,1,.748-1.862,3.861,3.861,0,0,1,1.36-1.377,3.755,3.755,0,0,1,1.981-.519,3.767,3.767,0,0,1,1.972.519,3.839,3.839,0,0,1,1.368,1.377,6.963,6.963,0,0,1,.748,1.862,8.731,8.731,0,0,1,.247,2.091,8.731,8.731,0,0,1-.247,2.091,7.1,7.1,0,0,1-.748,1.87A3.818,3.818,0,0,1,17.17-.315,3.767,3.767,0,0,1,15.2.2ZM13.5-1.76a2.264,2.264,0,0,0,1.7.706,2.264,2.264,0,0,0,1.7-.706,3.742,3.742,0,0,0,.935-1.692,8.835,8.835,0,0,0,.255-2.21,8.835,8.835,0,0,0-.255-2.21A3.684,3.684,0,0,0,16.9-9.554a2.277,2.277,0,0,0-1.7-.7,2.277,2.277,0,0,0-1.7.7,3.684,3.684,0,0,0-.935,1.683,8.835,8.835,0,0,0-.255,2.21,8.835,8.835,0,0,0,.255,2.21A3.742,3.742,0,0,0,13.5-1.76ZM29.1,0H21.318V-1.122q1.768-1.394,2.746-2.219t1.887-1.751a7.282,7.282,0,0,0,1.283-1.649,3.1,3.1,0,0,0,.374-1.437,1.819,1.819,0,0,0-.7-1.547,2.683,2.683,0,0,0-1.666-.527,3.7,3.7,0,0,0-3.077,1.428l-.867-.9a4.267,4.267,0,0,1,1.691-1.317,5.454,5.454,0,0,1,2.253-.468,4.272,4.272,0,0,1,2.677.867,2.923,2.923,0,0,1,1.13,2.465,4.84,4.84,0,0,1-1.36,3.154,30.882,30.882,0,0,1-4.148,3.765H29.1Zm10,0H31.314V-1.122q1.768-1.394,2.746-2.219t1.887-1.751A7.281,7.281,0,0,0,37.23-6.741,3.1,3.1,0,0,0,37.6-8.177a1.819,1.819,0,0,0-.7-1.547,2.683,2.683,0,0,0-1.666-.527,3.7,3.7,0,0,0-3.077,1.428l-.867-.9a4.267,4.267,0,0,1,1.692-1.317,5.454,5.454,0,0,1,2.252-.468,4.272,4.272,0,0,1,2.678.867,2.923,2.923,0,0,1,1.131,2.465,4.84,4.84,0,0,1-1.36,3.154,30.882,30.882,0,0,1-4.148,3.765H39.1Z" transform="translate(971 5424)"/>
    <path id="Path_3124" data-name="Path 3124" class="cls-2" d="M8.7,0H.918V-1.122Q2.686-2.516,3.664-3.341T5.551-5.092A7.281,7.281,0,0,0,6.834-6.741a3.1,3.1,0,0,0,.374-1.437,1.819,1.819,0,0,0-.7-1.547,2.683,2.683,0,0,0-1.666-.527A3.7,3.7,0,0,0,1.768-8.823L.9-9.724a4.267,4.267,0,0,1,1.691-1.317,5.454,5.454,0,0,1,2.253-.468,4.272,4.272,0,0,1,2.678.867,2.923,2.923,0,0,1,1.13,2.465,4.84,4.84,0,0,1-1.36,3.154A30.882,30.882,0,0,1,3.145-1.258H8.7ZM15.2.2a3.755,3.755,0,0,1-1.981-.519A3.84,3.84,0,0,1,11.858-1.7a7.1,7.1,0,0,1-.748-1.87,8.731,8.731,0,0,1-.247-2.091,8.731,8.731,0,0,1,.247-2.091,6.963,6.963,0,0,1,.748-1.862,3.861,3.861,0,0,1,1.36-1.377,3.755,3.755,0,0,1,1.981-.519,3.767,3.767,0,0,1,1.972.519,3.839,3.839,0,0,1,1.368,1.377,6.963,6.963,0,0,1,.748,1.862,8.731,8.731,0,0,1,.247,2.091,8.731,8.731,0,0,1-.247,2.091,7.1,7.1,0,0,1-.748,1.87A3.818,3.818,0,0,1,17.17-.315,3.767,3.767,0,0,1,15.2.2ZM13.5-1.76a2.264,2.264,0,0,0,1.7.706,2.264,2.264,0,0,0,1.7-.706,3.742,3.742,0,0,0,.935-1.692,8.835,8.835,0,0,0,.255-2.21,8.835,8.835,0,0,0-.255-2.21A3.684,3.684,0,0,0,16.9-9.554a2.277,2.277,0,0,0-1.7-.7,2.277,2.277,0,0,0-1.7.7,3.684,3.684,0,0,0-.935,1.683,8.835,8.835,0,0,0-.255,2.21,8.835,8.835,0,0,0,.255,2.21A3.742,3.742,0,0,0,13.5-1.76ZM29.1,0H21.318V-1.122q1.768-1.394,2.746-2.219t1.887-1.751a7.282,7.282,0,0,0,1.283-1.649,3.1,3.1,0,0,0,.374-1.437,1.819,1.819,0,0,0-.7-1.547,2.683,2.683,0,0,0-1.666-.527,3.7,3.7,0,0,0-3.077,1.428l-.867-.9a4.267,4.267,0,0,1,1.691-1.317,5.454,5.454,0,0,1,2.253-.468,4.272,4.272,0,0,1,2.677.867,2.923,2.923,0,0,1,1.13,2.465,4.84,4.84,0,0,1-1.36,3.154,30.882,30.882,0,0,1-4.148,3.765H29.1Zm5.814.2A5.327,5.327,0,0,1,32.5-.323a4.163,4.163,0,0,1-1.615-1.343l.833-.884a3.652,3.652,0,0,0,1.343,1.088,4.079,4.079,0,0,0,1.819.408,3.017,3.017,0,0,0,1.946-.57,1.892,1.892,0,0,0,.706-1.556,1.68,1.68,0,0,0-.757-1.513,3.75,3.75,0,0,0-2.066-.493q-1,0-1.173.017V-6.46q.187.017,1.173.017a3.493,3.493,0,0,0,1.9-.467,1.55,1.55,0,0,0,.74-1.4,1.654,1.654,0,0,0-.722-1.42,3.026,3.026,0,0,0-1.811-.518,3.955,3.955,0,0,0-2.992,1.377l-.782-.884a4.767,4.767,0,0,1,3.876-1.751,4.488,4.488,0,0,1,2.763.807A2.619,2.619,0,0,1,38.76-8.483a2.292,2.292,0,0,1-.748,1.793,3.4,3.4,0,0,1-1.7.842,3.124,3.124,0,0,1,1.776.816A2.479,2.479,0,0,1,38.93-3.06,2.926,2.926,0,0,1,37.842-.706,4.414,4.414,0,0,1,34.918.2Z" transform="translate(1117 5424)"/>
    <g id="Repeat_Grid_24" data-name="Repeat Grid 24" class="cls-4" transform="translate(483.5 4993.5)">
      <g transform="translate(-446.5 -5343.5)">
        <line id="Line_44" data-name="Line 44" class="cls-5" x1="708" transform="translate(446.5 5343.5)"/>
      </g>
      <g transform="translate(-446.5 -5293.5)">
        <line id="Line_44-2" data-name="Line 44" class="cls-5" x1="708" transform="translate(446.5 5343.5)"/>
      </g>
      <g transform="translate(-446.5 -5243.5)">
        <line id="Line_44-3" data-name="Line 44" class="cls-5" x1="708" transform="translate(446.5 5343.5)"/>
      </g>
      <g transform="translate(-446.5 -5193.5)">
        <line id="Line_44-4" data-name="Line 44" class="cls-5" x1="708" transform="translate(446.5 5343.5)"/>
      </g>
      <g transform="translate(-446.5 -5143.5)">
        <line id="Line_44-5" data-name="Line 44" class="cls-5" x1="708" transform="translate(446.5 5343.5)"/>
      </g>
      <g transform="translate(-446.5 -5093.5)">
        <line id="Line_44-6" data-name="Line 44" class="cls-5" x1="708" transform="translate(446.5 5343.5)"/>
      </g>
      <g transform="translate(-446.5 -5043.5)">
        <line id="Line_44-7" data-name="Line 44" class="cls-5" x1="708" transform="translate(446.5 5343.5)"/>
      </g>
      <g transform="translate(-446.5 -4993.5)">
        <line id="Line_44-8" data-name="Line 44" class="cls-5" x1="708" transform="translate(446.5 5343.5)"/>
      </g>
      <g transform="translate(-446.5 -4943.5)">
        <line id="Line_44-9" data-name="Line 44" class="cls-5" x1="708" transform="translate(446.5 5343.5)"/>
      </g>
    </g>
    <path id="Path_3109" data-name="Path 3109" class="cls-6" d="M0,0H82V100H0Z" transform="translate(512 5293)"/>
    <path id="Path_3110" data-name="Path 3110" class="cls-7" d="M0,0H82V123H0Z" transform="translate(661 5270)"/>
    <path id="Path_3111" data-name="Path 3111" class="cls-6" d="M0,0H82V100H0Z" transform="translate(661 5293)"/>
    <path id="Path_3104" data-name="Path 3104" class="cls-7" d="M0,0H82V168H0Z" transform="translate(805 5225)"/>
    <path id="Path_3112" data-name="Path 3112" class="cls-6" d="M0,0H82V100H0Z" transform="translate(805 5293)"/>
    <path id="Path_3101" data-name="Path 3101" class="cls-7" d="M0,0H82V266H0Z" transform="translate(951 5127)"/>
    <path id="Path_3113" data-name="Path 3113" class="cls-6" d="M0,0H82V100H0Z" transform="translate(951 5293)"/>
    <path id="Path_3102" data-name="Path 3102" class="cls-7" d="M0,0H82V391H0Z" transform="translate(1096 5002)"/>
    <path id="Path_3114" data-name="Path 3114" class="cls-6" d="M0,0H82V100H0Z" transform="translate(1096 5293)"/>
    <path id="Path_3103" data-name="Path 3103" class="cls-8" d="M0,400V0" transform="translate(483.5 4993.5)"/>
    <path id="Path_3116" data-name="Path 3116" class="cls-9" d="M8.192,0H.864V-1.056Q2.528-2.368,3.448-3.144T5.224-4.792A6.853,6.853,0,0,0,6.432-6.344,2.921,2.921,0,0,0,6.784-7.7a1.712,1.712,0,0,0-.656-1.456,2.525,2.525,0,0,0-1.568-.5A3.482,3.482,0,0,0,1.664-8.3L.848-9.152a4.016,4.016,0,0,1,1.592-1.24,5.134,5.134,0,0,1,2.12-.44,4.021,4.021,0,0,1,2.52.816A2.751,2.751,0,0,1,8.144-7.7a4.555,4.555,0,0,1-1.28,2.968,29.066,29.066,0,0,1-3.9,3.544H8.192ZM16.32,0H14.992V-2.7H9.92v-1.1L14.5-10.672H16.32v6.8h1.5V-2.7h-1.5ZM14.992-3.872V-9.44L11.248-3.872ZM26.528,0H19.2V-1.056q1.664-1.312,2.584-2.088T23.56-4.792a6.853,6.853,0,0,0,1.208-1.552A2.921,2.921,0,0,0,25.12-7.7a1.712,1.712,0,0,0-.656-1.456,2.525,2.525,0,0,0-1.568-.5A3.482,3.482,0,0,0,20-8.3l-.816-.848a4.016,4.016,0,0,1,1.592-1.24,5.134,5.134,0,0,1,2.12-.44,4.021,4.021,0,0,1,2.52.816A2.751,2.751,0,0,1,26.48-7.7,4.555,4.555,0,0,1,25.2-4.728a29.066,29.066,0,0,1-3.9,3.544h5.232Zm6.136-6.312a2.5,2.5,0,0,1-1.864.744,2.443,2.443,0,0,1-1.848-.744,2.589,2.589,0,0,1-.712-1.864,2.649,2.649,0,0,1,.72-1.9,2.423,2.423,0,0,1,1.84-.76,2.468,2.468,0,0,1,1.864.76,2.633,2.633,0,0,1,.728,1.9A2.558,2.558,0,0,1,32.664-6.312ZM30.656,0h-.864l6.816-10.672h.88Zm7.568-.552a2.469,2.469,0,0,1-1.856.744A2.443,2.443,0,0,1,34.52-.552a2.589,2.589,0,0,1-.712-1.864,2.649,2.649,0,0,1,.72-1.9,2.423,2.423,0,0,1,1.84-.76,2.442,2.442,0,0,1,1.856.76,2.649,2.649,0,0,1,.72,1.9A2.573,2.573,0,0,1,38.224-.552ZM29.648-6.888a1.451,1.451,0,0,0,1.152.52,1.5,1.5,0,0,0,1.168-.52,1.864,1.864,0,0,0,.464-1.288,1.929,1.929,0,0,0-.456-1.32,1.492,1.492,0,0,0-1.176-.52,1.451,1.451,0,0,0-1.152.52,1.95,1.95,0,0,0-.448,1.32A1.9,1.9,0,0,0,29.648-6.888Zm5.56,5.76a1.475,1.475,0,0,0,1.16.52,1.5,1.5,0,0,0,1.168-.52A1.864,1.864,0,0,0,38-2.416a1.929,1.929,0,0,0-.456-1.32,1.492,1.492,0,0,0-1.176-.52,1.468,1.468,0,0,0-1.168.52,1.95,1.95,0,0,0-.448,1.32A1.883,1.883,0,0,0,35.208-1.128Z" transform="translate(682 5349)"/>
    <path id="Path_3117" data-name="Path 3117" class="cls-9" d="M4.816.192A4.428,4.428,0,0,1,1.056-1.52l.816-.88A3.552,3.552,0,0,0,4.816-.992a2.468,2.468,0,0,0,1.776-.656A2.163,2.163,0,0,0,7.28-3.28,2.175,2.175,0,0,0,6.6-4.952a2.493,2.493,0,0,0-1.768-.632A3.386,3.386,0,0,0,2.368-4.576l-.976-.336v-5.76H7.92v1.184H2.72v3.712a3.377,3.377,0,0,1,2.5-.96,3.4,3.4,0,0,1,2.4.92,3.228,3.228,0,0,1,.992,2.488A3.268,3.268,0,0,1,7.536-.768,3.924,3.924,0,0,1,4.816.192Zm9.552,0A3.86,3.86,0,0,1,12.48-.256,3.384,3.384,0,0,1,11.192-1.48a6.04,6.04,0,0,1-.7-1.744,8.944,8.944,0,0,1-.232-2.088,7.822,7.822,0,0,1,.448-2.72,4.491,4.491,0,0,1,1.448-2.008,3.808,3.808,0,0,1,2.44-.792,3.741,3.741,0,0,1,2.96,1.28l-.672.992a2.893,2.893,0,0,0-2.288-1.088,2.439,2.439,0,0,0-1.688.624A3.577,3.577,0,0,0,11.9-7.48a6.269,6.269,0,0,0-.312,2.024,4.051,4.051,0,0,0,.016.416,3.674,3.674,0,0,1,1.24-1.152A3.372,3.372,0,0,1,14.624-6.7a3.6,3.6,0,0,1,2.5.888,3.22,3.22,0,0,1,.984,2.52A3.351,3.351,0,0,1,17.088-.824,3.693,3.693,0,0,1,14.368.192ZM14.32-.992a2.338,2.338,0,0,0,1.8-.7,2.234,2.234,0,0,0,.648-1.56A2.135,2.135,0,0,0,16.08-4.96,2.626,2.626,0,0,0,14.3-5.552a2.843,2.843,0,0,0-1.5.44,3.52,3.52,0,0,0-1.168,1.16A4.058,4.058,0,0,0,12.4-1.88,2.238,2.238,0,0,0,14.32-.992ZM25.808,0H24.48V-2.7H19.408v-1.1l4.576-6.864h1.824v6.8h1.5V-2.7h-1.5ZM24.48-3.872V-9.44L20.736-3.872Zm8.264-2.44a2.5,2.5,0,0,1-1.864.744,2.443,2.443,0,0,1-1.848-.744,2.589,2.589,0,0,1-.712-1.864,2.649,2.649,0,0,1,.72-1.9,2.423,2.423,0,0,1,1.84-.76,2.468,2.468,0,0,1,1.864.76,2.633,2.633,0,0,1,.728,1.9A2.558,2.558,0,0,1,32.744-6.312ZM30.736,0h-.864l6.816-10.672h.88ZM38.3-.552a2.469,2.469,0,0,1-1.856.744A2.443,2.443,0,0,1,34.6-.552a2.589,2.589,0,0,1-.712-1.864,2.649,2.649,0,0,1,.72-1.9,2.423,2.423,0,0,1,1.84-.76,2.442,2.442,0,0,1,1.856.76,2.649,2.649,0,0,1,.72,1.9A2.573,2.573,0,0,1,38.3-.552ZM29.728-6.888a1.451,1.451,0,0,0,1.152.52,1.5,1.5,0,0,0,1.168-.52,1.864,1.864,0,0,0,.464-1.288,1.929,1.929,0,0,0-.456-1.32,1.492,1.492,0,0,0-1.176-.52,1.451,1.451,0,0,0-1.152.52,1.95,1.95,0,0,0-.448,1.32A1.9,1.9,0,0,0,29.728-6.888Zm5.56,5.76a1.475,1.475,0,0,0,1.16.52,1.5,1.5,0,0,0,1.168-.52,1.864,1.864,0,0,0,.464-1.288,1.929,1.929,0,0,0-.456-1.32,1.492,1.492,0,0,0-1.176-.52,1.468,1.468,0,0,0-1.168.52,1.95,1.95,0,0,0-.448,1.32A1.883,1.883,0,0,0,35.288-1.128Z" transform="translate(826 5349)"/>
    <path id="Path_3118" data-name="Path 3118" class="cls-9" d="M4.176,0H2.848V-8.912L1.136-7.1l-.8-.816,2.672-2.752H4.176Zm8.16,0H11.008V-2.7H5.936v-1.1l4.576-6.864h1.824v6.8h1.5V-2.7h-1.5ZM11.008-3.872V-9.44L7.264-3.872ZM22.544,0H15.216V-1.056Q16.88-2.368,17.8-3.144t1.776-1.648a6.853,6.853,0,0,0,1.208-1.552A2.921,2.921,0,0,0,21.136-7.7a1.712,1.712,0,0,0-.656-1.456,2.525,2.525,0,0,0-1.568-.5,3.482,3.482,0,0,0-2.9,1.344L15.2-9.152a4.016,4.016,0,0,1,1.592-1.24,5.134,5.134,0,0,1,2.12-.44,4.021,4.021,0,0,1,2.52.816A2.751,2.751,0,0,1,22.5-7.7a4.555,4.555,0,0,1-1.28,2.968,29.066,29.066,0,0,1-3.9,3.544h5.232Zm6.144.192A3.86,3.86,0,0,1,26.8-.256,3.384,3.384,0,0,1,25.512-1.48a6.04,6.04,0,0,1-.7-1.744,8.944,8.944,0,0,1-.232-2.088,7.822,7.822,0,0,1,.448-2.72,4.491,4.491,0,0,1,1.448-2.008,3.808,3.808,0,0,1,2.44-.792,3.741,3.741,0,0,1,2.96,1.28L31.2-8.56a2.893,2.893,0,0,0-2.288-1.088,2.439,2.439,0,0,0-1.688.624A3.577,3.577,0,0,0,26.216-7.48,6.269,6.269,0,0,0,25.9-5.456a4.051,4.051,0,0,0,.016.416,3.674,3.674,0,0,1,1.24-1.152A3.372,3.372,0,0,1,28.944-6.7a3.6,3.6,0,0,1,2.5.888,3.22,3.22,0,0,1,.984,2.52A3.351,3.351,0,0,1,31.408-.824,3.693,3.693,0,0,1,28.688.192ZM28.64-.992a2.338,2.338,0,0,0,1.8-.7,2.234,2.234,0,0,0,.648-1.56A2.135,2.135,0,0,0,30.4-4.96a2.626,2.626,0,0,0-1.776-.592,2.843,2.843,0,0,0-1.5.44,3.52,3.52,0,0,0-1.168,1.16A4.058,4.058,0,0,0,26.72-1.88,2.238,2.238,0,0,0,28.64-.992Zm9.5-5.32a2.5,2.5,0,0,1-1.864.744,2.443,2.443,0,0,1-1.848-.744,2.589,2.589,0,0,1-.712-1.864,2.649,2.649,0,0,1,.72-1.9,2.423,2.423,0,0,1,1.84-.76,2.468,2.468,0,0,1,1.864.76,2.633,2.633,0,0,1,.728,1.9A2.558,2.558,0,0,1,38.136-6.312ZM36.128,0h-.864L42.08-10.672h.88ZM43.7-.552A2.469,2.469,0,0,1,41.84.192a2.443,2.443,0,0,1-1.848-.744,2.589,2.589,0,0,1-.712-1.864,2.649,2.649,0,0,1,.72-1.9,2.423,2.423,0,0,1,1.84-.76,2.442,2.442,0,0,1,1.856.76,2.649,2.649,0,0,1,.72,1.9A2.573,2.573,0,0,1,43.7-.552ZM35.12-6.888a1.451,1.451,0,0,0,1.152.52,1.5,1.5,0,0,0,1.168-.52A1.864,1.864,0,0,0,37.9-8.176a1.929,1.929,0,0,0-.456-1.32,1.492,1.492,0,0,0-1.176-.52,1.451,1.451,0,0,0-1.152.52,1.95,1.95,0,0,0-.448,1.32A1.9,1.9,0,0,0,35.12-6.888Zm5.56,5.76a1.475,1.475,0,0,0,1.16.52,1.5,1.5,0,0,0,1.168-.52,1.864,1.864,0,0,0,.464-1.288,1.929,1.929,0,0,0-.456-1.32,1.492,1.492,0,0,0-1.176-.52,1.468,1.468,0,0,0-1.168.52,1.95,1.95,0,0,0-.448,1.32A1.883,1.883,0,0,0,40.68-1.128Z" transform="translate(969 5349)"/>
    <path id="Path_3119" data-name="Path 3119" class="cls-9" d="M4.256.192A5.014,5.014,0,0,1,1.984-.3,3.918,3.918,0,0,1,.464-1.568L1.248-2.4A3.437,3.437,0,0,0,2.512-1.376a3.839,3.839,0,0,0,1.712.384,2.839,2.839,0,0,0,1.832-.536A1.78,1.78,0,0,0,6.72-2.992a1.581,1.581,0,0,0-.712-1.424A3.53,3.53,0,0,0,4.064-4.88q-.944,0-1.1.016V-6.08q.176.016,1.1.016A3.287,3.287,0,0,0,5.848-6.5a1.458,1.458,0,0,0,.7-1.32,1.557,1.557,0,0,0-.68-1.336,2.848,2.848,0,0,0-1.7-.488,3.722,3.722,0,0,0-2.816,1.3L.608-9.184a4.487,4.487,0,0,1,3.648-1.648,4.224,4.224,0,0,1,2.6.76A2.465,2.465,0,0,1,7.872-7.984a2.157,2.157,0,0,1-.7,1.688,3.2,3.2,0,0,1-1.6.792,2.94,2.94,0,0,1,1.672.768A2.333,2.333,0,0,1,8.032-2.88,2.754,2.754,0,0,1,7.008-.664,4.154,4.154,0,0,1,4.256.192Zm8.912,0A5.014,5.014,0,0,1,10.9-.3a3.918,3.918,0,0,1-1.52-1.264L10.16-2.4a3.437,3.437,0,0,0,1.264,1.024,3.839,3.839,0,0,0,1.712.384,2.839,2.839,0,0,0,1.832-.536,1.78,1.78,0,0,0,.664-1.464,1.581,1.581,0,0,0-.712-1.424,3.53,3.53,0,0,0-1.944-.464q-.944,0-1.1.016V-6.08q.176.016,1.1.016A3.287,3.287,0,0,0,14.76-6.5a1.458,1.458,0,0,0,.7-1.32,1.557,1.557,0,0,0-.68-1.336,2.848,2.848,0,0,0-1.7-.488,3.722,3.722,0,0,0-2.816,1.3L9.52-9.184a4.487,4.487,0,0,1,3.648-1.648,4.224,4.224,0,0,1,2.6.76,2.465,2.465,0,0,1,1.016,2.088,2.157,2.157,0,0,1-.7,1.688,3.2,3.2,0,0,1-1.6.792,2.94,2.94,0,0,1,1.672.768,2.333,2.333,0,0,1,.792,1.856A2.754,2.754,0,0,1,15.92-.664,4.154,4.154,0,0,1,13.168.192Zm8.912,0a5.014,5.014,0,0,1-2.272-.5,3.918,3.918,0,0,1-1.52-1.264l.784-.832a3.437,3.437,0,0,0,1.264,1.024,3.839,3.839,0,0,0,1.712.384,2.839,2.839,0,0,0,1.832-.536,1.78,1.78,0,0,0,.664-1.464,1.581,1.581,0,0,0-.712-1.424,3.53,3.53,0,0,0-1.944-.464q-.944,0-1.1.016V-6.08q.176.016,1.1.016a3.287,3.287,0,0,0,1.784-.44,1.458,1.458,0,0,0,.7-1.32,1.557,1.557,0,0,0-.68-1.336,2.848,2.848,0,0,0-1.7-.488,3.722,3.722,0,0,0-2.816,1.3l-.736-.832a4.487,4.487,0,0,1,3.648-1.648,4.224,4.224,0,0,1,2.6.76A2.465,2.465,0,0,1,25.7-7.984a2.157,2.157,0,0,1-.7,1.688,3.2,3.2,0,0,1-1.6.792,2.94,2.94,0,0,1,1.672.768,2.333,2.333,0,0,1,.792,1.856A2.754,2.754,0,0,1,24.832-.664,4.154,4.154,0,0,1,22.08.192ZM30.144,0H28.672l4.3-9.488H27.232v-1.184h7.28v.912ZM39.9-6.312a2.5,2.5,0,0,1-1.864.744,2.443,2.443,0,0,1-1.848-.744,2.589,2.589,0,0,1-.712-1.864,2.649,2.649,0,0,1,.72-1.9,2.423,2.423,0,0,1,1.84-.76,2.468,2.468,0,0,1,1.864.76,2.633,2.633,0,0,1,.728,1.9A2.558,2.558,0,0,1,39.9-6.312ZM37.888,0h-.864L43.84-10.672h.88Zm7.568-.552A2.469,2.469,0,0,1,43.6.192a2.443,2.443,0,0,1-1.848-.744,2.589,2.589,0,0,1-.712-1.864,2.649,2.649,0,0,1,.72-1.9,2.423,2.423,0,0,1,1.84-.76,2.442,2.442,0,0,1,1.856.76,2.649,2.649,0,0,1,.72,1.9A2.573,2.573,0,0,1,45.456-.552ZM36.88-6.888a1.451,1.451,0,0,0,1.152.52,1.5,1.5,0,0,0,1.168-.52,1.864,1.864,0,0,0,.464-1.288,1.929,1.929,0,0,0-.456-1.32,1.492,1.492,0,0,0-1.176-.52,1.451,1.451,0,0,0-1.152.52,1.95,1.95,0,0,0-.448,1.32A1.9,1.9,0,0,0,36.88-6.888Zm5.56,5.76a1.475,1.475,0,0,0,1.16.52,1.5,1.5,0,0,0,1.168-.52,1.864,1.864,0,0,0,.464-1.288,1.929,1.929,0,0,0-.456-1.32,1.492,1.492,0,0,0-1.176-.52,1.468,1.468,0,0,0-1.168.52,1.95,1.95,0,0,0-.448,1.32A1.883,1.883,0,0,0,42.44-1.128Z" transform="translate(1113 5349)"/>
  </g>
</svg>
