<?xml version="1.0" standalone="no"?>
<!DOCTYPE svg PUBLIC "-//W3C//DTD SVG 20010904//EN"
 "http://www.w3.org/TR/2001/REC-SVG-20010904/DTD/svg10.dtd">
<svg version="1.0" xmlns="http://www.w3.org/2000/svg"
 width="500.000000pt" height="500.000000pt" viewBox="0 0 500.000000 500.000000"
 preserveAspectRatio="xMidYMid meet">
<metadata>
Created by potrace 1.11, written by Peter Selinger 2001-2013
</metadata>
<g transform="translate(0.000000,500.000000) scale(0.100000,-0.100000)"
fill="#000000" stroke="none">
<path d="M2425 4654 c-218 -51 -234 -62 -500 -325 l-220 -219 127 -127 128
-128 197 197 c116 115 215 204 240 217 57 28 149 29 206 0 28 -14 300 -279
844 -822 620 -620 807 -812 822 -847 25 -54 27 -136 6 -188 -20 -47 -1611
-1644 -1669 -1674 -21 -11 -62 -22 -90 -25 -107 -11 -73 -41 -964 850 -569
569 -816 823 -827 849 -25 62 -20 145 14 203 18 31 154 174 358 378 l328 327
277 -277 277 -278 -26 -75 c-31 -91 -41 -214 -24 -302 41 -213 216 -398 427
-452 78 -20 212 -21 287 -1 201 52 369 220 422 421 19 75 19 213 0 289 -41
161 -158 304 -307 375 -46 22 -110 45 -143 51 -89 17 -226 6 -310 -25 l-70
-26 -405 405 -405 405 -491 -492 c-467 -470 -492 -497 -528 -569 -39 -81 -66
-185 -66 -258 0 -121 43 -256 114 -354 70 -97 1669 -1685 1737 -1725 198 -115
447 -111 630 12 74 49 1688 1661 1733 1730 60 92 89 183 94 302 5 119 -11 193
-64 304 -35 72 -65 104 -863 903 -562 564 -847 842 -891 872 -87 58 -199 95
-303 100 -45 2 -91 2 -102 -1z m183 -1956 c79 -38 130 -137 118 -227 -19 -137
-157 -225 -290 -187 -43 13 -64 27 -99 66 -172 192 38 461 271 348z"/>
</g>
</svg>
