<?xml version="1.0" encoding="UTF-8"?>
<svg width="58px" height="60px" viewBox="0 0 58 60" version="1.1" xmlns="http://www.w3.org/2000/svg" xmlns:xlink="http://www.w3.org/1999/xlink">
    <!-- Generator: Sketch 48.2 (47327) - http://www.bohemiancoding.com/sketch -->
    <title>bitcoin</title>
    <desc>Created with Sketch.</desc>
    <defs></defs>
    <g id="Page-1" stroke="none" stroke-width="1" fill="none" fill-rule="evenodd">
        <g id="bitcoin">
            <g id="Group" fill-rule="nonzero">
                <g id="bitcoin" fill="#FEAE47">
                    <ellipse id="Ellipse_219" cx="29" cy="29.51" rx="29" ry="29.51"></ellipse>
                </g>
                <path d="M35,33 L35,27 C37.209139,27 39,25.209139 39,23 C39,20.790861 37.209139,19 35,19 L16,19 L16,13 L35,13 C40.5228475,13 45,17.4771525 45,23 C45,28.5228475 40.5228475,33 35,33 Z" id="Path_1291" fill="#FFFFFF"></path>
                <path d="M35,47 L16,47 L16,41 L35,41 C37.209139,41 39,39.209139 39,37 C39,34.790861 37.209139,33 35,33 L21,33 L21,27 L35,27 C40.5228475,27 45,31.4771525 45,37 C45,42.5228475 40.5228475,47 35,47 Z" id="Path_1292" fill="#FFFFFF"></path>
                <rect id="Rectangle_433" fill="#FFFFFF" x="18" y="16" width="6" height="28"></rect>
                <rect id="Rectangle_434" fill="#FFFFFF" x="20.666" y="10" width="6" height="6"></rect>
                <rect id="Rectangle_435" fill="#FFFFFF" x="29.332" y="10" width="6" height="6"></rect>
                <rect id="Rectangle_436" fill="#FFFFFF" x="20.666" y="44" width="6" height="6"></rect>
                <rect id="Rectangle_437" fill="#FFFFFF" x="29.332" y="44" width="6" height="6"></rect>
            </g>
            <g transform="translate(15.000000, 10.000000)"></g>
        </g>
    </g>
</svg>