<svg xmlns="http://www.w3.org/2000/svg" viewBox="0 0 68 44.552">
  <defs>
    <style>
      .cls-1 {
        fill: #f5f5f5;
      }

      .cls-2 {
        fill: #ff4b55;
      }

      .cls-3 {
        fill: #41479b;
      }

      .cls-4 {
        fill: #464655;
      }
    </style>
  </defs>
  <g id="south-korea" transform="translate(0 -88.276)">
    <path id="Path_1300" data-name="Path 1300" class="cls-1" d="M66.827,132.828H1.172A1.173,1.173,0,0,1,0,131.655V89.448a1.173,1.173,0,0,1,1.172-1.172H66.828A1.173,1.173,0,0,1,68,89.448v42.207A1.173,1.173,0,0,1,66.827,132.828Z" transform="translate(0 0)"/>
    <path id="Path_1301" data-name="Path 1301" class="cls-2" d="M192.441,169.692a11.727,11.727,0,0,0-16.253,3.255,5.858,5.858,0,1,0,9.748,6.5,5.858,5.858,0,1,1,9.748,6.5,11.723,11.723,0,0,0-3.243-16.255" transform="translate(-151.932 -68.897)"/>
    <path id="Path_1302" data-name="Path 1302" class="cls-3" d="M169.771,207.04a5.858,5.858,0,1,0,9.748,6.5,5.858,5.858,0,1,1,9.748,6.5,11.716,11.716,0,1,1-19.5-13" transform="translate(-145.515 -102.991)"/>
    <g id="Group_1102" data-name="Group 1102" transform="translate(11.455 93.063)">
      <path id="Path_1303" data-name="Path 1303" class="cls-4" d="M339.362,147.483l2.13,3.2a.586.586,0,0,1-.162.812l-.54.362a.586.586,0,0,1-.814-.162l-2.132-3.2a.586.586,0,0,1,.162-.813l.543-.362A.586.586,0,0,1,339.362,147.483Z" transform="translate(-304.343 -144.18)"/>
      <path id="Path_1304" data-name="Path 1304" class="cls-4" d="M364.115,184.65l2.137,3.2a.586.586,0,0,1-.164.815l-.542.358a.586.586,0,0,1-.811-.163l-2.135-3.2a.586.586,0,0,1,.162-.813l.541-.362A.586.586,0,0,1,364.115,184.65Z" transform="translate(-325.811 -176.412)"/>
      <path id="Path_1305" data-name="Path 1305" class="cls-4" d="M356.506,136.028l5.423,8.138a.586.586,0,0,1-.163.813l-.545.363a.586.586,0,0,1-.813-.163l-5.424-8.137a.586.586,0,0,1,.163-.813l.547-.364A.587.587,0,0,1,356.506,136.028Z" transform="translate(-319.207 -134.247)"/>
      <path id="Path_1306" data-name="Path 1306" class="cls-4" d="M373.643,124.585l2.134,3.207a.586.586,0,0,1-.165.814l-.543.359a.586.586,0,0,1-.811-.164l-2.136-3.2a.586.586,0,0,1,.163-.813l.544-.363A.586.586,0,0,1,373.643,124.585Z" transform="translate(-334.071 -124.323)"/>
      <path id="Path_1307" data-name="Path 1307" class="cls-4" d="M398.42,161.825l2.131,3.2a.586.586,0,0,1-.162.812l-.541.362a.586.586,0,0,1-.814-.162l-2.131-3.2a.586.586,0,0,1,.162-.812l.541-.362A.586.586,0,0,1,398.42,161.825Z" transform="translate(-355.559 -156.618)"/>
      <path id="Path_1308" data-name="Path 1308" class="cls-4" d="M122.163,292.279l5.422,8.129a.586.586,0,0,1-.162.813l-.543.363a.586.586,0,0,1-.813-.162l-5.422-8.129a.586.586,0,0,1,.162-.813l.543-.363A.586.586,0,0,1,122.163,292.279Z" transform="translate(-115.991 -269.746)"/>
      <path id="Path_1309" data-name="Path 1309" class="cls-4" d="M105.027,303.727l2.129,3.193a.586.586,0,0,1-.162.812l-.54.362a.586.586,0,0,1-.814-.162l-2.131-3.192a.586.586,0,0,1,.162-.813l.543-.362A.586.586,0,0,1,105.027,303.727Z" transform="translate(-101.131 -279.674)"/>
      <path id="Path_1310" data-name="Path 1310" class="cls-4" d="M129.791,340.9l2.131,3.2a.586.586,0,0,1-.162.812l-.542.362a.586.586,0,0,1-.814-.162l-2.132-3.2a.586.586,0,0,1,.162-.813l.543-.363A.586.586,0,0,1,129.791,340.9Z" transform="translate(-122.606 -311.909)"/>
      <path id="Path_1311" data-name="Path 1311" class="cls-4" d="M87.873,315.172l5.418,8.129a.586.586,0,0,1-.162.813l-.541.362a.586.586,0,0,1-.813-.162l-5.422-8.128a.586.586,0,0,1,.163-.813l.545-.363A.586.586,0,0,1,87.873,315.172Z" transform="translate(-86.254 -289.599)"/>
      <path id="Path_1312" data-name="Path 1312" class="cls-4" d="M120.652,155.616l5.421-8.136a.586.586,0,0,1,.813-.163l.543.362a.586.586,0,0,1,.162.813l-5.423,8.131a.586.586,0,0,1-.811.163l-.541-.358A.586.586,0,0,1,120.652,155.616Z" transform="translate(-115.997 -144.178)"/>
      <path id="Path_1313" data-name="Path 1313" class="cls-4" d="M103.5,144.173l5.422-8.137a.586.586,0,0,1,.814-.162l.541.362a.586.586,0,0,1,.162.812l-5.421,8.138a.586.586,0,0,1-.813.163l-.543-.362A.586.586,0,0,1,103.5,144.173Z" transform="translate(-101.127 -134.254)"/>
      <path id="Path_1314" data-name="Path 1314" class="cls-4" d="M86.349,132.735l5.423-8.145a.586.586,0,0,1,.814-.163l.541.362a.586.586,0,0,1,.162.812l-5.419,8.147a.586.586,0,0,1-.813.163l-.545-.363A.587.587,0,0,1,86.349,132.735Z" transform="translate(-86.251 -124.327)"/>
      <path id="Path_1315" data-name="Path 1315" class="cls-4" d="M337.848,332.645l2.131-3.192a.586.586,0,0,1,.814-.162l.54.362a.586.586,0,0,1,.162.812l-2.129,3.193a.586.586,0,0,1-.813.162l-.543-.362A.586.586,0,0,1,337.848,332.645Z" transform="translate(-304.347 -301.983)"/>
      <path id="Path_1316" data-name="Path 1316" class="cls-4" d="M362.6,295.489l2.135-3.208a.586.586,0,0,1,.813-.163l.544.363a.586.586,0,0,1,.162.813l-2.139,3.2a.586.586,0,0,1-.811.163l-.539-.358A.586.586,0,0,1,362.6,295.489Z" transform="translate(-325.814 -269.747)"/>
      <path id="Path_1317" data-name="Path 1317" class="cls-4" d="M354.983,344.1l2.133-3.2a.586.586,0,0,1,.813-.163l.545.364a.586.586,0,0,1,.163.813l-2.131,3.2a.586.586,0,0,1-.813.163l-.547-.364A.586.586,0,0,1,354.983,344.1Z" transform="translate(-319.207 -311.905)"/>
      <path id="Path_1318" data-name="Path 1318" class="cls-4" d="M379.757,306.914l2.134-3.193a.586.586,0,0,1,.813-.162l.545.363a.586.586,0,0,1,.162.813l-2.134,3.193a.586.586,0,0,1-.813.162l-.545-.363A.586.586,0,0,1,379.757,306.914Z" transform="translate(-340.69 -279.669)"/>
      <path id="Path_1319" data-name="Path 1319" class="cls-4" d="M372.125,355.52l2.135-3.195a.586.586,0,0,1,.811-.163l.543.359a.586.586,0,0,1,.165.814l-2.133,3.2a.586.586,0,0,1-.813.163l-.544-.363A.586.586,0,0,1,372.125,355.52Z" transform="translate(-334.072 -321.817)"/>
      <path id="Path_1320" data-name="Path 1320" class="cls-4" d="M396.912,318.377l2.13-3.2a.586.586,0,0,1,.814-.162l.541.362a.586.586,0,0,1,.162.813l-2.132,3.195a.586.586,0,0,1-.811.163l-.539-.357A.586.586,0,0,1,396.912,318.377Z" transform="translate(-355.567 -289.604)"/>
    </g>
  </g>
</svg>
