<svg xmlns="http://www.w3.org/2000/svg" viewBox="3799.896 -7633.523 10.206 20">
  <defs>
    <style>
      .cls-1 {
        fill: #fff;
      }
    </style>
  </defs>
  <path id="Path_335" data-name="Path 335" class="cls-1" d="M31.9,0,29.45,0c-2.75,0-4.527,1.932-4.527,4.922V7.191H22.462a.4.4,0,0,0-.385.408v3.288a.4.4,0,0,0,.385.408h2.461v8.3a.4.4,0,0,0,.385.408h3.211a.4.4,0,0,0,.385-.408V11.3h2.878a.4.4,0,0,0,.385-.408V7.6a.421.421,0,0,0-.113-.288.374.374,0,0,0-.272-.12H28.9V5.268c0-.925.208-1.394,1.345-1.394H31.9a.4.4,0,0,0,.385-.408V.412A.4.4,0,0,0,31.9,0Z" transform="translate(3777.82 -7633.524)"/>
</svg>
