<svg xmlns="http://www.w3.org/2000/svg" viewBox="10850 9331 23.996 24">
  <defs>
    <style>
      .cls-1 {
        fill: #eee;
      }
    </style>
  </defs>
  <g id="google-plus" transform="translate(10850 9248.48)">
    <path id="Path_1293" data-name="Path 1293" class="cls-1" d="M13.16,97h5.86A7.45,7.45,0,1,1,17,89.006a.807.807,0,0,0,1.1,0l2.152-2.026a.8.8,0,0,0,0-1.17,11.956,11.956,0,0,0-8.011-3.285A12,12,0,1,0,23.98,95.194c.009-.079.015-2.754.015-2.754H13.16a.8.8,0,0,0-.8.8v2.947A.8.8,0,0,0,13.16,97Z"/>
  </g>
</svg>
