<svg xmlns="http://www.w3.org/2000/svg" viewBox="3996.506 -7634.494 20.05 20.05">
  <defs>
    <style>
      .cls-1 {
        opacity: 0.6;
      }

      .cls-2 {
        fill: #fff;
      }
    </style>
  </defs>
  <g id="instagram-logo" class="cls-1" transform="translate(3996.506 -7634.494)">
    <path id="Path_2287" data-name="Path 2287" class="cls-2" d="M14.517,0H5.533A5.539,5.539,0,0,0,0,5.533v8.984A5.539,5.539,0,0,0,5.533,20.05h8.984a5.539,5.539,0,0,0,5.533-5.533V5.533A5.539,5.539,0,0,0,14.517,0Zm3.754,14.517a3.758,3.758,0,0,1-3.754,3.754H5.533a3.758,3.758,0,0,1-3.754-3.754V5.533A3.758,3.758,0,0,1,5.533,1.779h8.984a3.759,3.759,0,0,1,3.754,3.754v8.984Z"/>
    <path id="Path_2288" data-name="Path 2288" class="cls-2" d="M46.134,40.97A5.166,5.166,0,1,0,51.3,46.136,5.172,5.172,0,0,0,46.134,40.97Zm0,8.554a3.387,3.387,0,1,1,3.387-3.387A3.391,3.391,0,0,1,46.134,49.524Z" transform="translate(-36.109 -36.111)"/>
    <path id="Path_2289" data-name="Path 2289" class="cls-2" d="M120.226,28.251a1.3,1.3,0,1,0,.923.382A1.31,1.31,0,0,0,120.226,28.251Z" transform="translate(-104.817 -24.901)"/>
  </g>
</svg>
