<svg xmlns="http://www.w3.org/2000/svg" viewBox="2982.86 -6290.93 534.14 343.7">
  <defs>
    <style>
      .cls-1 {
        fill: #e8836b;
      }

      .cls-2 {
        fill: #ff9d46;
      }

      .cls-3 {
        fill: #e88f7e;
      }

      .cls-4 {
        fill: #ff5f65;
      }

      .cls-5 {
        fill: #0088d0;
      }

      .cls-6 {
        fill: #ca4e4b;
      }

      .cls-7 {
        fill: #035f8f;
      }

      .cls-8 {
        fill: #eb9a53;
      }

      .cls-9 {
        fill: #fff;
      }

      .cls-10 {
        fill: #eaeaea;
      }

      .cls-11 {
        fill: #4d1e51;
      }

      .cls-12 {
        fill: #c9393f;
      }

      .cls-13 {
        fill: #563d40;
      }

      .cls-14 {
        fill: #ffbb10;
      }

      .cls-15 {
        fill: #686868;
      }
    </style>
  </defs>
  <g id="About_US" data-name="About US" transform="translate(2982.86 -6290.93)">
    <g id="Layer_1" data-name="Layer 1" transform="translate(0 0)">
      <rect id="Rectangle_327" data-name="Rectangle 327" class="cls-1" width="14.113" height="33.334" transform="translate(162.415 132.701) rotate(16.04)"/>
      <rect id="Rectangle_328" data-name="Rectangle 328" class="cls-2" width="376.811" height="0.412" transform="translate(3.472 320.887) rotate(-55.66)"/>
      <path id="Path_1008" data-name="Path 1008" class="cls-2" d="M489.557,313.14,256.814,181.409,11.248,214.631l-.058-.408L256.9,180.98l.058.033,232.8,131.769Z" transform="translate(-6.578 -106.382)"/>
      <path id="Path_1009" data-name="Path 1009" class="cls-2" d="M561.153,265.177l-.1-.4,278.974-72.85-90.6-115.368L796.464,23.72l.309.276L749.965,76.575l90.772,115.59-.3.082Z" transform="translate(-329.791 -13.943)"/>
      <path id="Path_1010" data-name="Path 1010" class="cls-3" d="M787.638,545.266l-12.778-3.3,16.356-51.206a69.377,69.377,0,0,0,4.534-18.277l6.372-59.166,30.725,7.955-10.676,59.619a69.512,69.512,0,0,1-5.9,18.136Z" transform="translate(-455.471 -242.954)"/>
      <path id="Path_1011" data-name="Path 1011" class="cls-4" d="M851.684,393.1l-22.992-6.183-7.832-1.649,9.538-37.225a31.916,31.916,0,0,1,38.9-22.893h0Z" transform="translate(-482.51 -190.524)"/>
      <path id="Path_1012" data-name="Path 1012" class="cls-1" d="M362.86,595.99l44.154,42.892L390.2,650.09l-22.4-7.341-4.946-27.361Z" transform="translate(-213.293 -350.329)"/>
      <path id="Path_1013" data-name="Path 1013" class="cls-5" d="M99.828,609.089H213.18V526.7c0-38.519-24.97-66.214-56.272-66.214h0c-41.277,0-57.088,54.479-57.088,93Z" transform="translate(-58.675 -270.681)"/>
      <path id="Path_1014" data-name="Path 1014" class="cls-1" d="M223.931,413.815h0l11.838-19.958h0a15.341,15.341,0,0,1,2.622-3.3c7.419-7.007,20.317-5.387,28.853,3.623,7.712,8.145,9.2,19.546,3.941,26.834h0L259.4,439.729a16.418,16.418,0,0,1-2.028,3.219h0a15.457,15.457,0,0,1-2.819,2.687c-8.219,6.026-20.828,2.8-28.169-7.2C220.489,430.463,219.776,420.546,223.931,413.815Z" transform="translate(-130.079 -227.015)"/>
      <path id="Path_1015" data-name="Path 1015" class="cls-6" d="M256.543,406.37a24.245,24.245,0,0,0,1.026,6.809c4.006,13.157,11.793,19.736,22.283,21.615,1.026.185,2.061.313,3.071.412l8.887-14.1h0c5.26-7.292,3.772-18.685-3.945-26.834-8.532-9.01-21.434-10.63-28.853-3.623a15.341,15.341,0,0,0-2.622,3.3h0Z" transform="translate(-150.709 -227.067)"/>
      <ellipse id="Ellipse_332" data-name="Ellipse 332" class="cls-1" cx="43.49" cy="31.842" rx="43.49" ry="31.842" transform="matrix(0.172, -0.985, 0.985, 0.172, 98.025, 195.857)"/>
      <ellipse id="Ellipse_333" data-name="Ellipse 333" class="cls-7" cx="17.737" cy="11.286" rx="17.737" ry="11.286" transform="translate(42.074 258.623) rotate(-20.12)"/>
      <ellipse id="Ellipse_334" data-name="Ellipse 334" class="cls-1" cx="16.236" cy="10.165" rx="16.236" ry="10.165" transform="translate(44.3 260.332) rotate(-20.12)"/>
      <path id="Path_1016" data-name="Path 1016" class="cls-1" d="M146.456,629.2s5.194,29.422,18.293,37.291c13.92,8.367,54.644,24.319,54.644,24.319l-5.218,16.4s-63.617-5.874-76.812-22.613-21.743-45.374-21.743-45.374Z" transform="translate(-67.963 -369.85)"/>
      <path id="Path_1017" data-name="Path 1017" class="cls-7" d="M185.372,560.23s2.061,18,4.377,23.029S182.854,576.7,185.372,560.23Z" transform="translate(-108.705 -329.309)"/>
      <path id="Path_1018" data-name="Path 1018" class="cls-7" d="M94.176,596.39s2.061,18,4.377,23.029S91.641,612.857,94.176,596.39Z" transform="translate(-51.096 -336.564)"/>
      <rect id="Rectangle_329" data-name="Rectangle 329" class="cls-8" width="80.773" height="6.599" rx="3.3" transform="translate(154.93 338.399) rotate(180)"/>
      <path id="Path_1019" data-name="Path 1019" class="cls-2" d="M355.416,707.988H473.5a4.777,4.777,0,0,0,4.505-3.194L502.5,635.1a4.773,4.773,0,0,0-4.505-6.356H379.9a4.777,4.777,0,0,0-4.5,3.19l-24.488,69.69a4.777,4.777,0,0,0,4.505,6.368Z" transform="translate(-206.109 -369.58)"/>
      <ellipse id="Ellipse_335" data-name="Ellipse 335" class="cls-9" cx="9.357" cy="8.598" rx="9.357" ry="8.598" transform="translate(214.377 306.622) rotate(-60)"/>
      <path id="Path_1020" data-name="Path 1020" class="cls-7" d="M232.838,505.6l-4.975-3.124a33.956,33.956,0,0,1-14.839-20.239l-1.261-4.856S207.963,494.811,232.838,505.6Z" transform="translate(-124.354 -280.609)"/>
      <rect id="Rectangle_330" data-name="Rectangle 330" class="cls-10" width="518.073" height="5.305" transform="translate(534.14 343.7) rotate(180)"/>
      <path id="Path_1021" data-name="Path 1021" class="cls-11" d="M285.4,294.085a76.3,76.3,0,0,0,16.549,3.837,13.381,13.381,0,0,0,11.034-3.034c3.936-3.021,11.212-22.942,4.064-22.163-23.219,2.535-25.189.186-32.151-2.98-9.163-4.159-19.459-10.181-27.674-6.694-11.389,4.835-11.447,11.669-23.322,43.107-9.806,25.968-1.344,27.9-1.344,27.9s7.452-3.747,8.784-9.093-2.358-14.736,1.5-20.2,11.954-5.746,11.611,1.125a21.591,21.591,0,0,1-3.9,11.414s9.616-12.04,10.993-19.835-5.56-15.935,6.15-10.49C274.288,290.033,280.891,292.506,285.4,294.085Z" transform="translate(-134.708 -154.01)"/>
      <path id="Path_1022" data-name="Path 1022" class="cls-4" d="M968.5,355.83l-.025.025c-.35-1.187-.717-2.382-1.113-3.594h0c-8.314-39.191-32.192-92.054-63.836-85.323-24,5.091-37.159,37.328-28.853,76.519l5.771,27.254a85.7,85.7,0,0,0,9.315,23.94l26.05,105.463h113.513Z" transform="translate(-512.677 -156.565)"/>
      <path id="Path_1023" data-name="Path 1023" class="cls-1" d="M906.733,222.815h0L894.9,202.857h0a15.342,15.342,0,0,0-2.622-3.3c-7.419-7.007-20.317-5.387-28.853,3.623-7.712,8.145-9.2,19.546-3.941,26.834h0l11.789,18.713a16.419,16.419,0,0,0,2.028,3.219h0a15.455,15.455,0,0,0,2.819,2.688c8.219,6.026,20.828,2.8,28.169-7.2C910.175,239.463,910.888,229.546,906.733,222.815Z" transform="translate(-503.385 -114.743)"/>
      <path id="Path_1024" data-name="Path 1024" class="cls-6" d="M894.782,213.147a35.968,35.968,0,0,1-4.06,16.43,25.952,25.952,0,0,1-19.274,14.188c-1.026.185-2.061.313-3.071.412l-8.887-14.1h0c-5.26-7.292-3.772-18.685,3.945-26.834,8.532-9.01,21.434-10.63,28.853-3.623a15.339,15.339,0,0,1,2.622,3.3h0Z" transform="translate(-503.391 -114.778)"/>
      <ellipse id="Ellipse_336" data-name="Ellipse 336" class="cls-1" cx="32.687" cy="43.49" rx="32.687" ry="43.49" transform="matrix(0.985, -0.172, 0.172, 0.985, 319.836, 42.695)"/>
      <path id="Path_1025" data-name="Path 1025" class="cls-12" d="M943.05,314.6l4.975-3.124a33.957,33.957,0,0,0,14.839-20.239l1.261-4.856S967.926,303.812,943.05,314.6Z" transform="translate(-554.335 -168.337)"/>
      <path id="Path_1026" data-name="Path 1026" class="cls-13" d="M785.095,109.36a10.061,10.061,0,0,0,1.2,9.583c3.71,5.091,10.886,12.019,21.364,9.138,13.268-3.648,26.9-13.891,31.1-17.221a16.443,16.443,0,0,0,3.945-4.456c2.279-3.85,3.953-10.3-5.1-15.709C824.294,82.733,798.013,76.575,785.095,109.36Z" transform="translate(-461.073 -49.593)"/>
      <path id="Path_1027" data-name="Path 1027" class="cls-13" d="M788.565,138.43s-5.647,1.673-4.823,15.107c.721,11.772,4.5,14.962,4.5,14.962Z" transform="translate(-460.644 -81.371)"/>
      <path id="Path_1028" data-name="Path 1028" class="cls-13" d="M889.49,143.237s5.511,23.52,7.572,22.106-2.885-17.9,5.358-20.721,12.914,16.929,12.914,16.929,2.749-22.11-6.113-31.763S889.49,143.237,889.49,143.237Z" transform="translate(-522.851 -74.904)"/>
      <path id="Path_1029" data-name="Path 1029" class="cls-11" d="M642.658,488.073l-.824.824a2.786,2.786,0,0,0-.289,3.607L670.686,532.8l8.034-2.011-33.276-42.542a1.867,1.867,0,0,0-2.786-.169Z" transform="translate(-376.795 -286.574)"/>
      <ellipse id="Ellipse_337" data-name="Ellipse 337" class="cls-12" cx="13.59" cy="21.356" rx="13.59" ry="21.356" transform="translate(385.865 202.16) rotate(-60.69)"/>
      <ellipse id="Ellipse_338" data-name="Ellipse 338" class="cls-1" cx="10.725" cy="17.126" rx="10.725" ry="17.126" transform="translate(389.071 199.586) rotate(-60.69)"/>
      <path id="Path_1030" data-name="Path 1030" class="cls-12" d="M955.167,393.32S953,412.314,950.55,417.614,957.842,410.694,955.167,393.32Z" transform="translate(-558.508 -231.198)"/>
      <path id="Path_1031" data-name="Path 1031" class="cls-12" d="M1055.407,442.47s-2.164,18.994-4.616,24.294S1058.086,459.844,1055.407,442.47Z" transform="translate(-617.431 -260.088)"/>
      <path id="Path_1032" data-name="Path 1032" class="cls-1" d="M779.56,463s-10.358,29.768-25.329,35.762c-13.248,5.317-46.507,18.507-57.266,22.769-2.951-1.393-5.816-3.24-6.224-5.272-.635-3.186-3.759-12.209-6.76-16.9a2.731,2.731,0,0,0-.165-.33l-4.279-7.419a3.4,3.4,0,1,0-5.882,3.4l3.891,6.735c.33,3.223-.824,9.233-.824,9.233s-8.751-4.377-10.5-8.751a48.883,48.883,0,0,0-3.429-7.073l-5.247-7.007s-3.574,19.323-.074,28.078c3.45,8.619,19.422,16.294,26.834,19.464a6.776,6.776,0,0,0,1.838.486l-.062.111s77.047,1.129,93.608-14.08,30.3-43.54,30.3-43.54Z" transform="translate(-385.564 -272.156)"/>
      <path id="Path_1033" data-name="Path 1033" class="cls-3" d="M715.277,758.12a34.57,34.57,0,0,1-15.626,16.615c-11.129,5.614-22.588,5.412-20.152,9.068s36.326-3.6,42.794-9.373c7.036-6.278,8.763,8.536,16.335,9.48s8.92-3.05,8.92-3.05-12.514-8.491-10.841-14.921S715.277,758.12,715.277,758.12Z" transform="translate(-399.222 -445.631)"/>
      <path id="Path_1034" data-name="Path 1034" class="cls-6" d="M722,803.659s13.532-3.112,18.891-8.883,10.606-2.164,10.606-2.164a26.61,26.61,0,0,1-18.437,11.047" transform="translate(-424.399 -465.252)"/>
      <path id="Path_1035" data-name="Path 1035" class="cls-3" d="M766.86,713.161s6.6-31.326,11.953-31.739,3.359,23.907,9.068,36.273C792.828,728.412,766.86,713.161,766.86,713.161Z" transform="translate(-450.768 -400.544)"/>
      <path id="Path_1036" data-name="Path 1036" class="cls-1" d="M813.86,246.43s2.683,6.706,1.344,9.39-1.344,5.812,4.023,4.023,4.472-9.39,4.472-9.39Z" transform="translate(-478.395 -144.854)"/>
      <ellipse id="Ellipse_339" data-name="Ellipse 339" class="cls-13" cx="1.929" cy="2.894" rx="1.929" ry="2.894" transform="matrix(0.971, -0.24, 0.24, 0.971, 344.709, 94.554)"/>
      <ellipse id="Ellipse_340" data-name="Ellipse 340" class="cls-13" cx="1.665" cy="2.498" rx="1.665" ry="2.498" transform="translate(329.6 97.587) rotate(-20.34)"/>
      <path id="Path_1037" data-name="Path 1037" class="cls-13" d="M829.141,216.845l-.7-1.018c.28-.19,6.912-4.695,11.69-2.955l-.412,1.162C835.517,212.509,829.2,216.812,829.141,216.845Z" transform="translate(-486.966 -124.894)"/>
      <path id="Path_1038" data-name="Path 1038" class="cls-13" d="M789.461,226.459l-.7-1.018c.28-.194,6.912-4.7,11.69-2.96l-.412,1.162C795.837,222.123,789.523,226.414,789.461,226.459Z" transform="translate(-463.641 -130.543)"/>
      <path id="Path_1039" data-name="Path 1039" class="cls-11" d="M358.1,367.787c-3.182-3.12-10.717-1.826-10.787-1.81l-.214-1.237c.334-.058,8.244-1.414,11.867,2.147Z" transform="translate(-204.029 -214.222)"/>
      <path id="Path_1040" data-name="Path 1040" class="cls-11" d="M402.691,388.314c-3.182-3.116-10.717-1.822-10.783-1.81l-.218-1.216c.334-.062,8.244-1.414,11.867,2.143Z" transform="translate(-230.239 -226.298)"/>
      <ellipse id="Ellipse_341" data-name="Ellipse 341" class="cls-13" cx="17.51" cy="16.281" rx="17.51" ry="16.281" transform="translate(304.979 46.342)"/>
      <path id="Path_1041" data-name="Path 1041" class="cls-12" d="M820.86,472.43s14.7,0,26.1,3.71l1.673,7.885h0a54.685,54.685,0,0,0-22.559-10.5Z" transform="translate(-482.51 -277.699)"/>
      <path id="Path_1042" data-name="Path 1042" class="cls-11" d="M347.36,272.636s26.829,3.425,30.007-1.5c0,0,4.662,8.182-5.214,8.887S347.36,272.636,347.36,272.636Z" transform="translate(-204.182 -159.379)"/>
      <ellipse id="Ellipse_342" data-name="Ellipse 342" class="cls-11" cx="2.498" cy="1.665" rx="2.498" ry="1.665" transform="translate(146.639 163.16) rotate(-76.65)"/>
      <ellipse id="Ellipse_343" data-name="Ellipse 343" class="cls-11" cx="2.498" cy="1.665" rx="2.498" ry="1.665" transform="translate(165.021 168.645) rotate(-76.65)"/>
      <path id="Path_1043" data-name="Path 1043" class="cls-1" d="M390.866,413.32a4.814,4.814,0,0,0-.082,5.771l-9.513.371Z" transform="translate(-224.114 -242.954)"/>
      <path id="Path_1044" data-name="Path 1044" class="cls-6" d="M387.966,429.961s3.743-3.03,1.517-4.534-6.954,1.335-9.006.89S382.3,433.395,387.966,429.961Z" transform="translate(-223.321 -249.81)"/>
      <path id="Path_1045" data-name="Path 1045" class="cls-6" d="M852.155,273.135l-.185-.8c.111-.029,11.2-2.683,12.366-9.171l.824.144C863.882,270.324,852.634,273.02,852.155,273.135Z" transform="translate(-500.797 -154.688)"/>
      <path id="Path_1046" data-name="Path 1046" class="cls-6" d="M346.5,449.231c-.478-.111-11.727-2.807-12.976-9.827l.824-.144c1.154,6.488,12.238,9.142,12.366,9.167Z" transform="translate(-196.047 -258.202)"/>
      <line id="Line_5" data-name="Line 5" class="cls-10" y1="9.691" x2="2.086" transform="translate(292.131 201.734)"/>
      <path id="Path_1047" data-name="Path 1047" class="cls-10" d="M707.846,498.86a.715.715,0,0,1-.132,0,.618.618,0,0,1-.474-.734l2.086-9.695a.62.62,0,0,1,1.212.26l-2.09,9.695a.614.614,0,0,1-.6.474Z" transform="translate(-415.715 -286.817)"/>
      <line id="Line_6" data-name="Line 6" class="cls-10" x2="9.839" y2="1.232" transform="translate(297.984 218.267)"/>
      <path id="Path_1048" data-name="Path 1048" class="cls-10" d="M731.887,530.478h-.074l-9.839-1.237a.619.619,0,1,1,.153-1.228l9.843,1.228a.62.62,0,1,1-.078,1.237Z" transform="translate(-424.064 -310.369)"/>
      <line id="Line_7" data-name="Line 7" class="cls-10" y1="7.959" x2="13.771" transform="translate(295.025 206.326)"/>
      <path id="Path_1049" data-name="Path 1049" class="cls-10" d="M714.867,508.254a.618.618,0,0,1-.309-1.154l13.767-7.959a.62.62,0,0,1,.622,1.072l-13.771,7.959a.59.59,0,0,1-.309.082Z" transform="translate(-419.842 -293.351)"/>
      <rect id="Rectangle_331" data-name="Rectangle 331" class="cls-2" width="0.412" height="241.588" transform="translate(216.058 9.933) rotate(-3.57)"/>
      <rect id="Rectangle_332" data-name="Rectangle 332" class="cls-2" width="0.412" height="73.032" transform="matrix(0.978, -0.207, 0.207, 0.978, 250.091, 74.866)"/>
      <circle id="Ellipse_344" data-name="Ellipse 344" class="cls-2" cx="3.306" cy="3.306" r="3.306" transform="translate(212.958 6.607)"/>
      <circle id="Ellipse_345" data-name="Ellipse 345" class="cls-2" cx="3.306" cy="3.306" r="3.306" transform="translate(463.52 6.607)"/>
      <circle id="Ellipse_346" data-name="Ellipse 346" class="cls-2" cx="3.306" cy="3.306" r="3.306" transform="translate(479.772 202.579)"/>
      <circle id="Ellipse_347" data-name="Ellipse 347" class="cls-2" cx="3.306" cy="3.306" r="3.306" transform="translate(0 317.662)"/>
      <circle id="Ellipse_348" data-name="Ellipse 348" class="cls-2" cx="3.306" cy="3.306" r="3.306" transform="translate(246.984 71.511)"/>
      <circle id="Ellipse_349" data-name="Ellipse 349" class="cls-2" cx="3.306" cy="3.306" r="3.306" transform="translate(262.132 142.956)"/>
      <circle id="Ellipse_350" data-name="Ellipse 350" class="cls-2" cx="3.306" cy="3.306" r="3.306" transform="translate(228.003 247.73)"/>
      <circle id="Ellipse_351" data-name="Ellipse 351" class="cls-2" cx="3.306" cy="3.306" r="3.306" transform="translate(96.238 0)"/>
      <circle id="Ellipse_352" data-name="Ellipse 352" class="cls-2" cx="3.306" cy="3.306" r="3.306" transform="translate(1.344 104.692)"/>
      <path id="Path_1050" data-name="Path 1050" class="cls-2" d="M272.943,150.717,107.2,7.9,13.309,112.082,13,111.806,107.165,7.32l.153.132,165.9,142.956Z" transform="translate(-7.642 -4.303)"/>
      <path id="Path_1051" data-name="Path 1051" class="cls-14" d="M4.838,473.107a.618.618,0,1,0-.618-.618A.618.618,0,0,0,4.838,473.107Z" transform="translate(-2.481 -277.37)"/>
      <rect id="Rectangle_333" data-name="Rectangle 333" class="cls-10" width="16.999" height="16.999" rx="7.41" transform="translate(246.206 231.072) rotate(-135)"/>
      <circle id="Ellipse_353" data-name="Ellipse 353" class="cls-15" cx="1.937" cy="1.937" r="1.937" transform="translate(244.27 217.113)"/>
      <rect id="Rectangle_334" data-name="Rectangle 334" class="cls-10" width="16.999" height="16.999" rx="7.41" transform="translate(295.97 197.156) rotate(-155.12)"/>
      <circle id="Ellipse_354" data-name="Ellipse 354" class="cls-15" cx="1.937" cy="1.937" r="1.937" transform="translate(291.15 188.581)"/>
      <circle id="Ellipse_355" data-name="Ellipse 355" class="cls-15" cx="1.937" cy="1.937" r="1.937" transform="translate(288.586 179.265)"/>
    </g>
  </g>
</svg>
