<?xml version="1.0" encoding="utf-8"?>
<!-- Generator: Adobe Illustrator 22.0.1, SVG Export Plug-In . SVG Version: 6.00 Build 0)  -->
<svg version="1.1" id="Слой_1" xmlns="http://www.w3.org/2000/svg" xmlns:xlink="http://www.w3.org/1999/xlink" x="0px" y="0px"
	 viewBox="0 0 560 398" style="enable-background:new 0 0 560 398;" xml:space="preserve">
<style type="text/css">
	.st0{fill:none;}
	.st1{fill:#A7A2EA;}
	.st2{fill:#CA3E16;}
	.st3{fill:#2316CA;}
	.st4{fill:#7487FD;}
	.st5{fill:#FD9C35;}
	.st6{fill:#1D223F;}
	.st7{fill:none;stroke:#5793F3;stroke-miterlimit:10;}
	.st8{fill:#5793F3;}
	.st9{fill:none;stroke:#DC3E6F;stroke-miterlimit:10;}
	.st10{fill:#DC3E6F;}
	.st11{fill:none;stroke:#DE4444;stroke-miterlimit:10;}
	.st12{fill:#DE4444;}
	.st13{fill:none;stroke:#FD9C35;stroke-miterlimit:10;}
	.st14{fill:none;stroke:#544BFC;stroke-miterlimit:10;}
	.st15{fill:#544BFC;}
	.st16{fill:#744100;}
	.st17{fill:#7B73DF;}
	.st18{fill:none;stroke:#2A2E3D;stroke-miterlimit:10;}
	.st19{enable-background:new    ;}
	.st20{fill:#2A2E3D;}
	.st21{fill:none;stroke:url(#SVGID_1_);stroke-width:19;stroke-miterlimit:10;}
	.st22{fill:none;stroke:url(#SVGID_2_);stroke-width:19;stroke-miterlimit:10;}
	.st23{fill:none;stroke:url(#SVGID_3_);stroke-width:19;stroke-miterlimit:10;}
	.st24{fill:none;stroke:url(#SVGID_4_);stroke-width:19;stroke-miterlimit:10;}
	.st25{fill:none;stroke:url(#SVGID_5_);stroke-width:19;stroke-miterlimit:10;}
	.st26{fill:none;stroke:url(#SVGID_6_);stroke-width:19;stroke-miterlimit:10;}
	.st27{fill:none;stroke:url(#SVGID_7_);stroke-width:19;stroke-miterlimit:10;}
	.st28{fill:none;stroke:#000000;stroke-width:2;stroke-miterlimit:10;}
	.st29{fill:none;stroke:#192F38;stroke-width:2;stroke-miterlimit:10;}
	.st30{fill:none;stroke:#000000;stroke-miterlimit:10;}
	.st31{fill:#FFFFFF;}
	.st32{stroke:#000000;stroke-miterlimit:10;}
	.st33{fill:#404040;stroke:#000000;stroke-miterlimit:10;}
	.st34{fill:#808080;stroke:#404040;stroke-miterlimit:10;}
	.st35{fill:#BFBFBF;stroke:#000000;stroke-miterlimit:10;}
	.st36{fill:#E5E5E5;stroke:#000000;stroke-miterlimit:10;}
	.st37{fill:#F2F2F2;stroke:#000000;stroke-miterlimit:10;}
	.st38{fill:#FFFFFF;stroke:#000000;stroke-miterlimit:10;}
	.st39{fill:none;stroke:url(#SVGID_8_);stroke-width:19;stroke-miterlimit:10;}
	.st40{fill:none;stroke:url(#SVGID_9_);stroke-width:19;stroke-miterlimit:10;}
	.st41{opacity:0.5;fill:none;stroke:#20A6EC;stroke-width:19;stroke-miterlimit:10;enable-background:new    ;}
	.st42{fill:none;stroke:url(#SVGID_10_);stroke-width:19;stroke-miterlimit:10;}
	.st43{fill:none;stroke:url(#SVGID_11_);stroke-width:19;stroke-miterlimit:10;}
	.st44{fill:none;stroke:url(#SVGID_12_);stroke-width:19;stroke-miterlimit:10;}
	.st45{fill:none;stroke:#000000;stroke-width:5;stroke-miterlimit:10;}
	.st46{fill:none;stroke:#000000;stroke-width:19;stroke-miterlimit:10;}
	.st47{opacity:0.5;fill:none;stroke:#000000;stroke-width:5;stroke-miterlimit:10;enable-background:new    ;}
	.st48{fill:none;stroke:url(#SVGID_13_);stroke-width:19;stroke-miterlimit:10;}
	.st49{fill:none;stroke:url(#SVGID_14_);stroke-width:19;stroke-miterlimit:10;}
	.st50{fill:none;stroke:url(#SVGID_15_);stroke-width:19;stroke-miterlimit:10;}
	.st51{fill:none;stroke:url(#SVGID_16_);stroke-width:19;stroke-miterlimit:10;}
	.st52{fill:none;stroke:url(#SVGID_17_);stroke-width:19;stroke-miterlimit:10;}
	.st53{fill:none;stroke:url(#SVGID_18_);stroke-width:19;stroke-miterlimit:10;}
	.st54{fill:none;stroke:url(#SVGID_19_);stroke-width:19;stroke-miterlimit:10;}
	.st55{opacity:0.1;fill:none;stroke:#000000;stroke-miterlimit:10;enable-background:new    ;}
	.st56{fill:#F9AB60;}
	.st57{fill:#F7B839;}
	.st58{fill:#DC4076;}
	.st59{fill:#F89638;}
	.st60{fill:#F24A5D;}
</style>
<g id="Слой_1_1_">
	
		<image style="overflow:visible;enable-background:new    ;" width="1076" height="1474" xlink:href="5133DEA2.jpg"  transform="matrix(1 0 0 1 289 -2722)">
	</image>
	<rect x="-1119.1" y="-2102.3" class="st0" width="47.1" height="10.3"/>
	<text transform="matrix(1 0 0 1 -1119.1177 -2093.5518)" style="font-family:'ChartwellBars'; font-size:12px;">15+5+3+7+70</text>
	<g>
		<g>
			<path class="st1" d="M-810-2128.5c0,0.2,0,0.3,0,0.5c0,69.1,32,130.7,82,170.8l136.5-171.3H-810z"/>
		</g>
		<g>
			<path class="st2" d="M-779.9-2238.9c-19.1,32.4-30,70.1-30.1,110.4h218.5L-779.9-2238.9z"/>
		</g>
		<g>
			<path class="st3" d="M-729-2298.1c-20.3,16.5-37.6,36.5-50.9,59.2l188.4,110.4L-729-2298.1z"/>
		</g>
		<path class="st0" d="M-729-2298.1c37.5-30.5,85.4-48.8,137.5-48.9"/>
		<g>
			<path class="st4" d="M-591.5-2128.5V-2347c-52.1,0.1-99.9,18.4-137.5,48.9L-591.5-2128.5z"/>
		</g>
		<path class="st5" d="M-753.2-1933c42.8,34.4,97.2,55,156.4,55c138.1,0,250-111.9,250-250s-111.9-250-250-250c-0.2,0-0.4,0-0.6,0
			v249.4L-753.2-1933z"/>
	</g>
	<circle class="st6" cx="-591" cy="-2129" r="124"/>
	<polyline class="st7" points="-347.3,-2129.1 -309.9,-2166.5 -51,-2166.5 	"/>
	<circle class="st8" cx="-50.5" cy="-2166.5" r="3.5"/>
	<text transform="matrix(1 0 0 1 -134.5 -2147.75)" class="st8" style="font-family:'ProximaNova-Regular'; font-size:17px;">Crowdsale</text>
	<g>
		<text transform="matrix(1 0 0 1 -993.5 -1941.75)" class="st10" style="font-family:'ProximaNova-Regular'; font-size:17px;">Project Team</text>
	</g>
	<g>
		<text transform="matrix(1 0 0 1 -993.5 -1971.75)" class="st10" style="font-family:'ProximaNova-Semibold'; font-size:17px;">15%</text>
	</g>
	<g>
		<text transform="matrix(1 0 0 1 -88.25 -2172.75)" class="st8" style="font-family:'ProximaNova-Semibold'; font-size:17px;">70%</text>
	</g>
	<polyline class="st9" points="-753,-2005 -820,-1962 -999,-1962 	"/>
	<circle class="st10" cx="-999" cy="-1962.2" r="3.5"/>
	<polyline class="st11" points="-798,-2187 -824,-2213 -999,-2213 	"/>
	<circle class="st12" cx="-999.4" cy="-2213.4" r="3.5"/>
	<g>
		<text transform="matrix(1 0 0 1 -993.5 -2192.75)" class="st12" style="font-family:'ProximaNova-Regular'; font-size:17px;">First Bonus Tournament</text>
	</g>
	<g>
		<text transform="matrix(1 0 0 1 -993.5 -2222.75)" class="st12" style="font-family:'ProximaNova-Semibold'; font-size:17px;">5%</text>
	</g>
	<polyline class="st13" points="-749,-2256 -808,-2315 -999,-2315 	"/>
	<circle class="st5" cx="-999.4" cy="-2315.5" r="3.5"/>
	<g>
		<text transform="matrix(1 0 0 1 -993.5 -2290.75)" class="st5" style="font-family:'ProximaNova-Regular'; font-size:17px;">Bounty Program</text>
	</g>
	<g>
		<text transform="matrix(1 0 0 1 -993.5 -2320.75)" class="st5" style="font-family:'ProximaNova-Semibold'; font-size:17px;">3%</text>
	</g>
	<polyline class="st14" points="-673,-2307 -796,-2430 -999,-2430 	"/>
	<circle class="st15" cx="-998.4" cy="-2430.5" r="3.5"/>
	<g>
		<text transform="matrix(1 0 0 1 -991.5 -2406.75)" class="st15" style="font-family:'ProximaNova-Regular'; font-size:17px;">Reserved fund</text>
	</g>
	<g>
		<text transform="matrix(1 0 0 1 -991.5 -2436.75)" class="st15" style="font-family:'ProximaNova-Semibold'; font-size:17px;">7%</text>
	</g>
	<g>
		<path class="st16" d="M-823.6-1397.7c41.7-85.6,129.5-144.6,231.1-144.8"/>
		<path class="st2" d="M-823.6-1397.7l231.1,112.2v-257C-694.1-1542.3-781.9-1483.3-823.6-1397.7z"/>
		<path class="st17" d="M-348.2-1202.1c8.8-26,13.7-53.9,13.7-82.9c0-142.2-115.3-257.5-257.5-257.5c-0.2,0-0.3,0-0.5,0v257
			L-348.2-1202.1z"/>
		<path class="st16" d="M-348.2-1202.1c-17.8,52.4-52,97.1-96.5,128.2"/>
		<path class="st5" d="M-444.6-1073.8c44.5-31.1,78.7-75.9,96.5-128.2l-244.3-83.4L-444.6-1073.8z"/>
		<path class="st16" d="M-1004.5-993.5"/>
		<path class="st16" d="M-444.6-1073.8c-41.8,29.2-92.6,46.3-147.4,46.3c-142.2,0-257.5-115.3-257.5-257.5
			c0-40.4,9.3-78.6,25.9-112.7"/>
		<path class="st4" d="M-823.6-1397.7c-16.6,34-25.9,72.3-25.9,112.7c0,142.2,115.3,257.5,257.5,257.5c54.8,0,105.6-17.1,147.4-46.3
			l-147.9-211.7L-823.6-1397.7z"/>
	</g>
	<circle class="st6" cx="-593" cy="-1286" r="163"/>
	<polyline class="st7" points="-386,-1348 -320.5,-1413.5 48,-1413.5 	"/>
	<polyline class="st13" points="-392,-1170.5 -326,-1104.5 23,-1104.5 	"/>
	<polyline class="st14" points="-762.5,-1123.5 -812,-1074 -1074.5,-1074 	"/>
	<polyline class="st11" points="-746.5,-1438.5 -809,-1501 -1060.5,-1501 	"/>
</g>
<g id="Слой_2_1_">
	<polyline class="st18" points="519.5,265 519.4,296.7 410.5,297.5 411,243.4 401.5,243.4 	"/>
	<line class="st18" x1="480.5" y1="267" x2="480.5" y2="297"/>
	<g class="st19">
		<path class="st20" d="M251.7,243.3l-4.7,0l-3.8-6.9l-3,0l0,6.9l-4.1,0l0-19.3l9,0c2,0,3.6,0.6,4.7,1.7c1.2,1.2,1.8,2.7,1.7,4.5
			c0,1.6-0.4,2.9-1.2,3.9c-0.8,1-1.8,1.6-3,1.9L251.7,243.3z M244.5,232.8c0.8,0,1.5-0.2,2.1-0.7c0.5-0.5,0.8-1.1,0.8-1.9
			c0-0.8-0.3-1.4-0.8-1.9c-0.5-0.5-1.2-0.7-2.1-0.7l-4.3,0l0,5.2L244.5,232.8z"/>
		<path class="st20" d="M266.7,243.3l-3.7,0l0-1.5c-1,1.2-2.5,1.8-4.4,1.8c-1.3,0-2.4-0.4-3.4-1.2c-1-0.8-1.5-2-1.5-3.4
			c0-1.5,0.5-2.6,1.5-3.4c1-0.8,2.1-1.1,3.4-1.1c2,0,3.5,0.6,4.4,1.7l0-1.9c0-0.7-0.3-1.3-0.8-1.7c-0.6-0.4-1.3-0.6-2.2-0.6
			c-1.5,0-2.9,0.5-4.1,1.6l-1.4-2.5c1.7-1.5,3.7-2.2,6.1-2.2c1.8,0,3.3,0.4,4.4,1.3c1.1,0.8,1.7,2.2,1.7,4.1L266.7,243.3z
			 M260.1,241.2c1.4,0,2.4-0.4,3-1.2l0-1.7c-0.6-0.8-1.6-1.2-3-1.2c-0.8,0-1.4,0.2-1.9,0.6c-0.5,0.4-0.8,0.9-0.8,1.5
			c0,0.6,0.2,1.1,0.8,1.5C258.7,241,259.3,241.2,260.1,241.2z"/>
		<path class="st20" d="M272.2,227.8c-0.6,0-1.1-0.2-1.6-0.7c-0.4-0.4-0.7-1-0.6-1.6s0.2-1.1,0.7-1.5s1-0.6,1.6-0.6
			c0.6,0,1.1,0.2,1.6,0.6c0.4,0.4,0.6,0.9,0.6,1.5c0,0.6-0.2,1.1-0.6,1.5C273.3,227.6,272.8,227.8,272.2,227.8z M274,243.4l-3.7,0
			l0-14l3.7,0L274,243.4z"/>
		<path class="st20" d="M282.7,243.7c-1.2,0-2.4-0.2-3.5-0.6c-1.1-0.4-2-0.9-2.8-1.6l1.6-2.6c0.5,0.5,1.3,0.9,2.2,1.3
			s1.8,0.6,2.6,0.6c0.8,0,1.4-0.1,1.8-0.4c0.4-0.3,0.6-0.6,0.6-1.1c0-0.3-0.2-0.6-0.6-0.9c-0.4-0.2-0.9-0.4-1.5-0.5
			c-0.6-0.1-1.3-0.2-2-0.4c-0.7-0.2-1.4-0.4-2-0.7c-0.6-0.3-1.1-0.7-1.5-1.3c-0.4-0.6-0.6-1.3-0.6-2.2c0-1.2,0.5-2.3,1.5-3.1
			s2.4-1.3,4.2-1.3c2.2,0,4,0.6,5.7,1.9l-1.5,2.5c-0.4-0.5-1-0.9-1.8-1.2c-0.7-0.3-1.5-0.5-2.4-0.5c-0.7,0-1.2,0.1-1.6,0.4
			c-0.4,0.3-0.6,0.6-0.6,1c0,0.3,0.2,0.6,0.6,0.8c0.4,0.2,0.9,0.4,1.5,0.5c0.6,0.1,1.3,0.2,2,0.5s1.4,0.4,2,0.7
			c0.6,0.3,1.1,0.7,1.5,1.4c0.4,0.6,0.6,1.4,0.6,2.3c0,1.3-0.5,2.4-1.6,3.2C286.1,243.3,284.6,243.7,282.7,243.7z"/>
		<path class="st20" d="M298.1,243.8c-2.2,0-4-0.7-5.4-2c-1.4-1.4-2.1-3.1-2.1-5.3c0-2.1,0.7-3.8,2.1-5.2c1.4-1.4,3.1-2.1,5.2-2.1
			c2.1,0,3.8,0.7,5.1,2.1c1.3,1.4,1.9,3.3,1.9,5.6l0,0.8l-10.4,0c0.1,0.9,0.5,1.7,1.2,2.3s1.6,0.9,2.8,0.9c0.6,0,1.3-0.1,2-0.4
			c0.7-0.3,1.3-0.6,1.7-1l1.6,2.4C302.5,243.1,300.5,243.8,298.1,243.8z M301.3,235.1c-0.1-0.8-0.4-1.5-0.9-2.1
			c-0.6-0.6-1.4-1-2.5-1c-1,0-1.9,0.3-2.4,0.9s-0.9,1.3-1,2.2L301.3,235.1z"/>
		<path class="st20" d="M320.9,243.4l-3.7,0l0-1.8c-1.1,1.4-2.6,2.1-4.3,2.1c-1.8,0-3.3-0.7-4.5-2s-1.7-3.1-1.7-5.4
			c0-2.2,0.6-4,1.8-5.4c1.2-1.3,2.7-2,4.5-2c1.8,0,3.2,0.7,4.3,2.2l0-7.1l3.7,0L320.9,243.4z M314,240.5c0.6,0,1.2-0.1,1.8-0.4
			c0.6-0.3,1.1-0.7,1.4-1.1l0-5c-0.3-0.5-0.8-0.8-1.4-1.1c-0.6-0.3-1.2-0.5-1.8-0.5c-1,0-1.9,0.4-2.6,1.1c-0.7,0.8-1,1.7-1,3
			c0,1.2,0.3,2.2,1,2.9C312.1,240.1,312.9,240.5,314,240.5z"/>
	</g>
	<g class="st19">
		<path class="st20" d="M245.3,271.3l-4.1,0l0-19.3l13.7,0l0,3.6l-9.6,0l0,4.1l9.4,0l0,3.6l-9.4,0L245.3,271.3z"/>
		<path class="st20" d="M270.8,271.4l-3.7,0l0-1.8c-1.3,1.4-2.9,2.1-4.9,2.1c-1.5,0-2.6-0.4-3.4-1.2c-0.8-0.8-1.1-1.9-1.1-3.3l0-9.9
			l3.7,0l0,8.5c0,1.7,0.9,2.6,2.6,2.6c1.3,0,2.4-0.5,3.2-1.6l0-9.5l3.7,0L270.8,271.4z"/>
		<path class="st20" d="M287.6,271.4l-3.7,0l0-8.5c0-1.7-0.9-2.6-2.6-2.6c-1.3,0-2.4,0.5-3.2,1.6l0,9.4l-3.7,0l0-14l3.7,0l0,1.8
			c1.2-1.4,2.9-2.2,4.9-2.2c1.5,0,2.6,0.4,3.4,1.2c0.8,0.8,1.1,1.9,1.1,3.3L287.6,271.4z"/>
		<path class="st20" d="M304.6,271.4l-3.7,0l0-1.8c-1.1,1.4-2.6,2.1-4.3,2.1c-1.8,0-3.3-0.7-4.5-2c-1.2-1.3-1.7-3.1-1.7-5.4
			c0-2.2,0.6-4,1.7-5.4c1.2-1.3,2.7-2,4.5-2c1.8,0,3.2,0.7,4.3,2.2l0-7.1l3.7,0L304.6,271.4z M297.7,268.5c0.6,0,1.2-0.1,1.8-0.4
			c0.6-0.3,1.1-0.7,1.4-1.1l0-5c-0.3-0.5-0.8-0.8-1.4-1.1c-0.6-0.3-1.2-0.5-1.8-0.5c-1,0-1.9,0.4-2.6,1.1c-0.7,0.8-1,1.7-1,3
			c0,1.2,0.3,2.2,1,2.9C295.8,268.1,296.6,268.5,297.7,268.5z"/>
		<path class="st20" d="M313.3,271.8c-1.2,0-2.4-0.2-3.5-0.6c-1.1-0.4-2-0.9-2.8-1.6l1.6-2.6c0.5,0.5,1.3,1,2.2,1.3
			c0.9,0.4,1.8,0.6,2.6,0.6c0.8,0,1.4-0.1,1.8-0.4c0.4-0.3,0.6-0.6,0.6-1.1c0-0.3-0.2-0.6-0.6-0.9c-0.4-0.2-0.9-0.4-1.5-0.5
			c-0.6-0.1-1.3-0.2-2-0.4c-0.7-0.2-1.4-0.4-2-0.7s-1.1-0.7-1.5-1.3c-0.4-0.6-0.6-1.3-0.6-2.2c0-1.2,0.5-2.3,1.5-3.1
			c1-0.8,2.4-1.3,4.2-1.3c2.2,0,4,0.6,5.7,1.9l-1.5,2.5c-0.4-0.5-1-0.9-1.8-1.2c-0.7-0.3-1.5-0.5-2.4-0.5c-0.7,0-1.2,0.1-1.6,0.4
			c-0.4,0.3-0.6,0.6-0.6,1c0,0.3,0.2,0.6,0.6,0.8c0.4,0.2,0.9,0.4,1.5,0.5c0.6,0.1,1.3,0.2,2,0.5c0.7,0.2,1.4,0.4,2,0.7
			c0.6,0.3,1.1,0.7,1.5,1.4c0.4,0.6,0.6,1.4,0.6,2.3c0,1.3-0.5,2.4-1.6,3.2C316.7,271.4,315.2,271.8,313.3,271.8z"/>
	</g>
	<g>
		
			<linearGradient id="SVGID_1_" gradientUnits="userSpaceOnUse" x1="349.6385" y1="-2566.3508" x2="20.3361" y2="-2862.856" gradientTransform="matrix(1 -8.804109e-03 -8.804109e-03 -1 66.7297 -2498.0862)">
			<stop  offset="0" style="stop-color:#F09B6D"/>
			<stop  offset="1" style="stop-color:#ED1E79"/>
		</linearGradient>
		<path class="st21" d="M521.9,268.7c0-2.3,0.1-4.7,0-7c-1.2-133.6-110.5-241-244.1-239.9C144.2,23,36.8,132.3,38,266
			c0,2.3,0.1,4.7,0.2,7"/>
		
			<linearGradient id="SVGID_2_" gradientUnits="userSpaceOnUse" x1="324.5192" y1="-2598.0518" x2="46.9676" y2="-2847.9604" gradientTransform="matrix(1 -8.804109e-03 -8.804109e-03 -1 66.7297 -2498.0862)">
			<stop  offset="0" style="stop-color:#F09B6D"/>
			<stop  offset="1" style="stop-color:#ED1E79"/>
		</linearGradient>
		<path class="st22" d="M78.2,272.6c-0.1-2.3-0.2-4.7-0.2-7C77,154,166.7,62.8,278.2,61.8C389.8,60.8,481,150.5,482,262
			c0,2.3,0,4.7-0.1,7"/>
		
			<linearGradient id="SVGID_3_" gradientUnits="userSpaceOnUse" x1="324.5386" y1="-2598.0164" x2="46.9586" y2="-2847.9504" gradientTransform="matrix(1 -8.804109e-03 -8.804109e-03 -1 66.7297 -2498.0862)">
			<stop  offset="0" style="stop-color:#F09B6D"/>
			<stop  offset="1" style="stop-color:#ED1E79"/>
		</linearGradient>
		<path class="st23" d="M481.9,269c0.1-2.3,0.1-4.7,0.1-7c-0.9-102.1-77.3-185.8-175.8-198.5c-9.2-1.2-18.5-1.8-28-1.7
			C166.6,62.8,77,154,78,265.6c0,2.3,0.1,4.7,0.2,7"/>
		
			<linearGradient id="SVGID_4_" gradientUnits="userSpaceOnUse" x1="184.0085" y1="-2589.1169" x2="2.5494" y2="-2752.5034" gradientTransform="matrix(1 -8.804109e-03 -8.804109e-03 -1 66.7297 -2498.0862)">
			<stop  offset="0" style="stop-color:#F09B6D"/>
			<stop  offset="1" style="stop-color:#ED1E79"/>
		</linearGradient>
		<path class="st24" d="M119.7,272.2c-0.1-2.3-0.2-4.7-0.2-7c-0.8-88.4,70.2-160.6,158.6-161.4"/>
		
			<linearGradient id="SVGID_5_" gradientUnits="userSpaceOnUse" x1="184.0084" y1="-2589.1169" x2="2.5492" y2="-2752.5037" gradientTransform="matrix(1 -8.804109e-03 -8.804109e-03 -1 66.7297 -2498.0862)">
			<stop  offset="0" style="stop-color:#F09B6D"/>
			<stop  offset="1" style="stop-color:#ED1E79"/>
		</linearGradient>
		<path class="st25" d="M278.1,103.8c-88.4,0.8-159.4,73-158.6,161.4c0,2.3,0.1,4.7,0.2,7"/>
		
			<linearGradient id="SVGID_6_" gradientUnits="userSpaceOnUse" x1="84.0605" y1="-2761.4248" x2="70.4301" y2="-2773.6978" gradientTransform="matrix(1 -8.804109e-03 -8.804109e-03 -1 66.7297 -2498.0862)">
			<stop  offset="0" style="stop-color:#F09B6D"/>
			<stop  offset="1" style="stop-color:#ED1E79"/>
		</linearGradient>
		<path class="st26" d="M168.7,271.8c-0.1-2-0.2-4-0.2-6"/>
		
			<linearGradient id="SVGID_7_" gradientUnits="userSpaceOnUse" x1="139.8505" y1="-2684.4927" x2="57.1702" y2="-2758.9382" gradientTransform="matrix(1 -8.804109e-03 -8.804109e-03 -1 66.7297 -2498.0862)">
			<stop  offset="0" style="stop-color:#F09B6D"/>
			<stop  offset="1" style="stop-color:#ED1E79"/>
		</linearGradient>
		<path class="st27" d="M217.2,173c-29.7,20.2-49,54.3-48.7,92.9c0,2,0.1,4,0.2,6"/>
		<path class="st28" d="M515,268.8"/>
		<line class="st29" x1="191" y1="272.1" x2="11.1" y2="273.7"/>
		<line class="st29" x1="544.5" y1="269.2" x2="427.3" y2="269.1"/>
		<path class="st30" d="M38.2,273"/>
		<path class="st30" d="M78.2,272.6"/>
		<path class="st30" d="M481.9,269"/>
		<path class="st30" d="M521.9,268.7"/>
		<path class="st30" d="M481.9,269"/>
		<path class="st30" d="M78.2,272.6"/>
		<path class="st30" d="M119.7,272.2"/>
		<path class="st30" d="M119.7,272.2"/>
		<path class="st30" d="M168.7,271.8"/>
		<path class="st30" d="M168.7,271.8"/>
	</g>
	<g class="st19">
		<path class="st20" d="M37,304.5l-1.3-1.3l5.6-5.6l-7.9,3.3l-0.6-0.6l3.2-7.9l-5.6,5.6l-1.3-1.3l7.5-7.6l1.9,1.8l-2.9,7l7-3
			l1.9,1.9L37,304.5z"/>
		<path class="st20" d="M43.1,310.5l-1.2-1.2l0.6-0.6c-0.9,0.1-1.7-0.3-2.5-1c-0.5-0.5-0.8-1.1-0.9-1.8c-0.1-0.7,0.2-1.3,0.7-1.9
			c0.6-0.6,1.2-0.8,1.9-0.8c0.7,0.1,1.3,0.4,1.8,0.9c0.8,0.8,1.1,1.6,1.1,2.5l0.8-0.8c0.3-0.3,0.4-0.7,0.4-1.1s-0.3-0.8-0.7-1.2
			c-0.6-0.6-1.4-0.9-2.3-0.9l0.3-1.3c1.2,0,2.3,0.5,3.2,1.4c0.7,0.7,1.1,1.4,1.2,2.1c0.1,0.7-0.2,1.5-0.9,2.1L43.1,310.5z
			 M41.3,307.4c0.6,0.6,1.2,0.8,1.9,0.7l0.8-0.8c0.1-0.7-0.2-1.3-0.8-1.9c-0.3-0.3-0.7-0.5-1.1-0.6c-0.4,0-0.7,0.1-1,0.4
			c-0.3,0.3-0.4,0.6-0.4,1C40.7,306.7,40.9,307.1,41.3,307.4z"/>
		<path class="st20" d="M45.9,313.2l-1.2-1.2l5.4-5.5l1.2,1.2l-0.8,0.8c0.5-0.1,1,0,1.5,0.1c0.5,0.1,0.9,0.4,1.3,0.7l-1.2,1.2
			c-0.1-0.1-0.2-0.3-0.3-0.4c-0.3-0.2-0.6-0.4-1-0.6c-0.4-0.1-0.8-0.2-1.1-0.1L45.9,313.2z"/>
		<path class="st20" d="M53.8,321l-1.5-1.5l0.5-3.9l-1.5,0l-1.5,1.5l-1.2-1.2l7.5-7.6l1.2,1.2l-4.7,4.8l5-0.3l1.5,1.5l-4.8,0.2
			L53.8,321z"/>
		<path class="st20" d="M57,324.5c-0.8-0.8-1.3-1.8-1.3-2.8c0-1.1,0.4-2,1.2-2.9c0.8-0.8,1.7-1.2,2.8-1.3c1.1,0,2,0.3,2.8,1.1
			c0.8,0.8,1.2,1.7,1.1,2.8c-0.1,1.1-0.5,2-1.4,2.9l-0.3,0.3l-4.3-4.2c-0.4,0.5-0.6,1-0.5,1.6c0,0.6,0.3,1.1,0.8,1.6
			c0.3,0.3,0.6,0.5,1,0.7c0.4,0.2,0.8,0.3,1.2,0.3l-0.2,1.3C59,325.9,58,325.4,57,324.5z M61.8,322.6c0.4-0.4,0.6-0.9,0.6-1.4
			s-0.2-1.1-0.7-1.6c-0.5-0.5-1-0.7-1.5-0.6c-0.6,0-1,0.2-1.4,0.6L61.8,322.6z"/>
		<path class="st20" d="M62.5,329.9c-0.5-0.5-0.7-0.9-0.7-1.4s0.2-0.9,0.7-1.4l3.1-3.2l-0.9-0.9l1-1l0.9,0.9l1.5-1.5l1.2,1.2
			l-1.5,1.5l1.1,1.1l-1,1.1l-1.1-1.1l-2.8,2.9c-0.2,0.2-0.3,0.4-0.3,0.6c0,0.2,0,0.4,0.2,0.6c0.2,0.2,0.5,0.4,0.7,0.3l-0.6,1.2
			C63.5,330.6,63,330.4,62.5,329.9z"/>
		<path class="st20" d="M65.8,332.9l-1.2-1.2l5.4-5.5l1.2,1.2L65.8,332.9z M71.3,326.1c-0.2-0.2-0.3-0.4-0.3-0.7
			c0-0.3,0.1-0.5,0.3-0.7c0.2-0.2,0.4-0.3,0.7-0.3c0.3,0,0.5,0.1,0.7,0.3c0.2,0.2,0.3,0.4,0.3,0.7c0,0.3-0.1,0.5-0.3,0.7
			c-0.2,0.2-0.4,0.3-0.7,0.3C71.8,326.4,71.5,326.3,71.3,326.1z"/>
		<path class="st20" d="M72.3,339.2l-1.2-1.2l3.4-3.4c0.7-0.8,0.8-1.5,0-2.2c-0.3-0.3-0.6-0.5-1-0.6c-0.4-0.1-0.8-0.1-1.1-0.1
			l-3.8,3.8l-1.2-1.2l5.4-5.5L74,330l-0.7,0.8c0.4,0,0.9,0,1.4,0.2c0.5,0.2,1,0.4,1.4,0.8c0.6,0.6,0.9,1.2,0.9,1.8
			c0,0.6-0.3,1.2-0.8,1.8L72.3,339.2z"/>
		<path class="st20" d="M73.9,345.2c-0.9-0.9-1.4-1.9-1.5-3.1l1.4-0.3c-0.1,0.9,0.3,1.7,1.1,2.4c0.5,0.4,1,0.7,1.5,0.8
			s1.1-0.2,1.6-0.7l0.7-0.7c-1.1,0.1-2-0.1-2.7-0.8c-0.7-0.7-1.1-1.5-1-2.5c0-0.9,0.5-1.9,1.4-2.7c0.9-0.9,1.8-1.3,2.7-1.4
			c1-0.1,1.8,0.3,2.5,1c0.7,0.7,1,1.6,0.9,2.6l0.8-0.8l1.2,1.2l-5.1,5.2c-0.5,0.5-0.9,0.8-1.5,1c-0.5,0.2-1,0.2-1.4,0.1
			c-0.5-0.1-0.9-0.3-1.3-0.5C74.6,345.8,74.3,345.5,73.9,345.2z M77.3,342.1c0.3,0.3,0.6,0.5,1,0.6c0.4,0.1,0.8,0.1,1.1,0.1l2-2.1
			c0.1-0.3,0-0.7-0.1-1.1c-0.1-0.4-0.3-0.7-0.6-1c-0.5-0.5-1-0.7-1.6-0.6c-0.6,0-1.2,0.3-1.7,0.9c-0.5,0.5-0.8,1.1-0.8,1.7
			C76.6,341.1,76.9,341.6,77.3,342.1z"/>
	</g>
	<g class="st19">
		<path class="st20" d="M77.7,294.3c-1.1-1.1-1.7-2.4-1.8-3.9c-0.1-1.5,0.5-2.8,1.7-4s2.5-1.7,4-1.7c1.5,0,2.8,0.6,3.9,1.7
			c1.3,1.3,1.8,2.8,1.5,4.6l-1.7-0.5c0.1-0.5,0-1-0.1-1.6c-0.2-0.5-0.4-1-0.9-1.4c-0.8-0.7-1.6-1.1-2.6-1.1c-1,0-1.9,0.4-2.7,1.2
			s-1.2,1.7-1.2,2.7c0,1,0.4,1.9,1.1,2.6c0.4,0.4,0.8,0.6,1.2,0.8c0.5,0.2,0.9,0.3,1.3,0.3l1.2-1.2l-2.3-2.2l1.2-1.2l3.6,3.5
			l-2.8,2.9C80.5,296.2,79,295.6,77.7,294.3z"/>
		<path class="st20" d="M86.9,303.1l-1.2-1.2l0.6-0.6c-0.9,0.1-1.7-0.3-2.5-1c-0.5-0.5-0.8-1.1-0.9-1.8c-0.1-0.7,0.2-1.3,0.7-1.9
			c0.6-0.6,1.2-0.8,1.9-0.8c0.7,0.1,1.3,0.4,1.8,0.9c0.8,0.8,1.1,1.6,1.1,2.5l0.8-0.8c0.3-0.3,0.4-0.7,0.4-1.1s-0.3-0.8-0.7-1.2
			c-0.6-0.6-1.4-0.9-2.3-0.9l0.3-1.3c1.2,0,2.3,0.5,3.2,1.4c0.7,0.7,1.1,1.4,1.2,2.1c0.1,0.7-0.2,1.5-0.9,2.1L86.9,303.1z
			 M85.1,299.9c0.6,0.6,1.2,0.8,1.9,0.7l0.8-0.8c0.1-0.6-0.2-1.3-0.8-1.9c-0.3-0.3-0.7-0.5-1.1-0.6s-0.7,0.1-1,0.4
			c-0.3,0.3-0.4,0.6-0.4,1C84.5,299.2,84.7,299.6,85.1,299.9z"/>
		<path class="st20" d="M96.4,312.4l-1.2-1.2l3.5-3.6c0.7-0.7,0.7-1.3,0.1-1.9c-0.3-0.2-0.6-0.4-0.9-0.5c-0.4-0.1-0.7-0.1-1.1,0
			l-3.8,3.9l-1.2-1.2l3.5-3.6c0.6-0.7,0.7-1.3,0.1-1.9c-0.2-0.2-0.6-0.4-0.9-0.5c-0.4-0.1-0.7-0.1-1.1,0l-3.8,3.8l-1.2-1.2l5.4-5.5
			l1.2,1.2l-0.7,0.8c0.3-0.1,0.8,0,1.3,0.1s1,0.4,1.4,0.8c0.8,0.8,1,1.6,0.5,2.5c0.4-0.1,0.9-0.1,1.5,0c0.5,0.1,1,0.4,1.4,0.8
			c1.1,1,1,2.1-0.1,3.2L96.4,312.4z"/>
		<path class="st20" d="M100.4,316.6c-0.8-0.8-1.3-1.8-1.3-2.8c0-1.1,0.4-2,1.2-2.9c0.8-0.8,1.7-1.2,2.8-1.3c1.1,0,2,0.3,2.8,1.1
			c0.8,0.8,1.2,1.7,1.1,2.8c-0.1,1.1-0.5,2-1.4,2.9l-0.3,0.3l-4.3-4.2c-0.4,0.5-0.6,1-0.5,1.6c0,0.6,0.3,1.1,0.8,1.6
			c0.3,0.3,0.6,0.5,1,0.7c0.4,0.2,0.8,0.3,1.2,0.3l-0.2,1.3C102.3,318,101.3,317.5,100.4,316.6z M105.1,314.7
			c0.4-0.4,0.6-0.9,0.6-1.4s-0.2-1.1-0.7-1.6c-0.5-0.5-1-0.7-1.5-0.6c-0.6,0-1,0.2-1.4,0.6L105.1,314.7z"/>
		<path class="st20" d="M110.1,325.9l-2.8-2.8l7.5-7.6l2.8,2.8c1.2,1.2,1.8,2.5,1.8,3.9c0,1.4-0.5,2.7-1.6,3.8
			c-1.1,1.1-2.4,1.7-3.8,1.7S111.3,327.1,110.1,325.9z M111.3,324.7c0.8,0.8,1.7,1.2,2.6,1.1c1,0,1.8-0.4,2.5-1.2
			c0.8-0.8,1.1-1.6,1.2-2.6c0-0.9-0.4-1.8-1.2-2.6l-1.5-1.5l-5.2,5.3L111.3,324.7z"/>
		<path class="st20" d="M117.8,333.7c-0.8-0.8-1.3-1.8-1.3-2.8c0-1.1,0.4-2,1.2-2.9c0.8-0.8,1.7-1.2,2.8-1.3c1.1,0,2,0.3,2.8,1.1
			c0.8,0.8,1.2,1.7,1.1,2.8c-0.1,1.1-0.5,2-1.4,2.9l-0.3,0.3l-4.3-4.2c-0.4,0.5-0.6,1-0.5,1.6c0,0.6,0.3,1.1,0.8,1.6
			c0.3,0.3,0.6,0.5,1,0.7c0.4,0.2,0.8,0.3,1.2,0.3l-0.2,1.3C119.7,335.1,118.7,334.6,117.8,333.7z M122.5,331.8
			c0.4-0.4,0.6-0.9,0.6-1.4s-0.2-1.1-0.7-1.6c-0.5-0.5-1-0.7-1.5-0.6s-1,0.2-1.4,0.6L122.5,331.8z"/>
		<path class="st20" d="M124.5,340l-1.3-1.3l3.2-7.7l1.3,1.3l-2.5,5.7l5.7-2.5l1.3,1.3L124.5,340z"/>
		<path class="st20" d="M129.9,345.6c-0.8-0.8-1.3-1.8-1.3-2.8c0-1.1,0.4-2,1.2-2.9c0.8-0.8,1.7-1.2,2.8-1.3c1.1,0,2,0.3,2.8,1.1
			c0.8,0.8,1.2,1.7,1.1,2.8s-0.5,2-1.4,2.9l-0.3,0.3l-4.3-4.2c-0.4,0.5-0.6,1-0.5,1.6s0.3,1.1,0.8,1.6c0.3,0.3,0.6,0.5,1,0.7
			c0.4,0.2,0.8,0.3,1.2,0.3l-0.2,1.3C131.8,347,130.8,346.5,129.9,345.6z M134.6,343.7c0.4-0.4,0.6-0.9,0.6-1.4
			c0-0.6-0.2-1.1-0.7-1.6c-0.5-0.5-1-0.7-1.5-0.6c-0.6,0-1,0.2-1.4,0.6L134.6,343.7z"/>
		<path class="st20" d="M135,350.4l-1.2-1.2l7.5-7.6l1.2,1.2L135,350.4z"/>
		<path class="st20" d="M138.9,354.5c-0.9-0.8-1.3-1.8-1.2-2.9c0-1.1,0.4-2,1.2-2.8c0.8-0.8,1.7-1.2,2.8-1.3c1.1,0,2,0.3,2.9,1.2
			c0.9,0.8,1.3,1.8,1.2,2.9c0,1.1-0.4,2-1.2,2.8c-0.8,0.8-1.7,1.3-2.8,1.3C140.7,355.7,139.8,355.3,138.9,354.5z M140,353.4
			c0.5,0.5,1.1,0.7,1.7,0.6c0.6-0.1,1.2-0.4,1.7-0.9c0.5-0.5,0.8-1.1,0.8-1.7c0.1-0.6-0.2-1.2-0.6-1.7c-0.5-0.5-1-0.7-1.7-0.6
			c-0.6,0.1-1.2,0.4-1.7,0.9c-0.5,0.5-0.8,1.1-0.9,1.7C139.3,352.4,139.5,352.9,140,353.4z"/>
		<path class="st20" d="M145.9,361.4c-0.7-0.7-1-1.6-0.9-2.6l-2.8,2.9l-1.2-1.2l7.5-7.6l1.2,1.2l-0.7,0.8c1-0.2,1.9,0.1,2.6,0.8
			c0.7,0.7,1.1,1.5,1,2.5c-0.1,1-0.5,1.9-1.4,2.8c-0.9,0.9-1.8,1.4-2.8,1.4C147.5,362.4,146.7,362.1,145.9,361.4z M146.6,360
			c0.5,0.5,1,0.7,1.6,0.6c0.6-0.1,1.2-0.4,1.7-0.9c0.5-0.5,0.8-1.1,0.9-1.7s-0.2-1.2-0.6-1.6c-0.3-0.3-0.6-0.5-1-0.6
			s-0.8-0.1-1.1-0.1l-2.1,2.2c-0.1,0.3,0,0.7,0.1,1.1C146.2,359.4,146.3,359.7,146.6,360z"/>
		<path class="st20" d="M157.7,372.6l-1.2-1.2l3.5-3.6c0.7-0.7,0.7-1.3,0.1-1.9c-0.3-0.2-0.6-0.4-0.9-0.5c-0.4-0.1-0.7-0.1-1.1,0
			l-3.8,3.9l-1.2-1.2l3.5-3.6c0.6-0.7,0.7-1.3,0.1-1.9c-0.2-0.2-0.6-0.4-0.9-0.5c-0.4-0.1-0.7-0.1-1.1,0l-3.8,3.8l-1.2-1.2l5.4-5.5
			l1.2,1.2l-0.7,0.8c0.3-0.1,0.8,0,1.3,0.1c0.5,0.1,1,0.4,1.4,0.8c0.8,0.8,1,1.6,0.5,2.5c0.4-0.1,0.9-0.1,1.5,0
			c0.5,0.1,1,0.4,1.4,0.8c1.1,1,1,2.1-0.1,3.2L157.7,372.6z"/>
		<path class="st20" d="M161.6,376.8c-0.8-0.8-1.3-1.8-1.3-2.8s0.4-2,1.2-2.9c0.8-0.8,1.7-1.2,2.8-1.3c1.1,0,2,0.3,2.8,1.1
			c0.8,0.8,1.2,1.7,1.1,2.8c-0.1,1.1-0.5,2-1.4,2.9l-0.3,0.3l-4.3-4.2c-0.4,0.5-0.6,1-0.5,1.6c0,0.6,0.3,1.1,0.8,1.6
			c0.3,0.3,0.6,0.5,1,0.7s0.8,0.3,1.2,0.3l-0.2,1.3C163.6,378.2,162.6,377.7,161.6,376.8z M166.4,374.9c0.4-0.4,0.6-0.9,0.6-1.4
			c0-0.6-0.2-1.1-0.7-1.6c-0.5-0.5-1-0.7-1.5-0.6c-0.6,0-1,0.2-1.4,0.6L166.4,374.9z"/>
		<path class="st20" d="M170.5,385.2l-1.2-1.2l3.4-3.4c0.7-0.8,0.8-1.5,0-2.2c-0.3-0.3-0.6-0.5-1-0.6c-0.4-0.1-0.8-0.1-1.1-0.1
			l-3.8,3.8l-1.2-1.2l5.4-5.5l1.2,1.2l-0.7,0.8c0.4,0,0.9,0,1.4,0.2s1,0.4,1.4,0.8c0.6,0.6,0.9,1.2,0.9,1.8c0,0.6-0.3,1.2-0.8,1.8
			L170.5,385.2z"/>
		<path class="st20" d="M173.6,388.5c-0.5-0.5-0.7-0.9-0.7-1.4c0-0.5,0.2-0.9,0.7-1.4l3.1-3.2l-0.9-0.9l1-1l0.9,0.9l1.5-1.5l1.2,1.2
			l-1.5,1.5l1.1,1.1l-1,1l-1.1-1.1l-2.8,2.9c-0.2,0.2-0.3,0.4-0.3,0.6c0,0.2,0,0.4,0.2,0.6c0.2,0.2,0.5,0.3,0.7,0.3l-0.6,1.2
			C174.5,389.3,174.1,389,173.6,388.5z"/>
	</g>
	<g class="st19">
		<path class="st20" d="M130.3,295.3L127,292l5.6-5.7l0.7,0.7l-5,5.1l2.7,2.6L130.3,295.3z"/>
		<path class="st20" d="M133.1,298.2c-0.6-0.6-0.9-1.3-0.9-2.1c0-0.8,0.3-1.5,1-2.2c0.6-0.6,1.3-0.9,2.1-1c0.8,0,1.5,0.2,2.1,0.8
			c0.6,0.6,0.9,1.3,0.8,2.1c-0.1,0.8-0.4,1.5-1,2.1l-0.2,0.2l-3.3-3.3c-0.4,0.4-0.6,0.9-0.6,1.5s0.2,1,0.6,1.4
			c0.5,0.5,1.1,0.7,1.8,0.7l-0.1,0.7C134.5,299.2,133.7,298.9,133.1,298.2z M136.7,297c0.3-0.4,0.5-0.8,0.6-1.3c0-0.5-0.2-1-0.6-1.4
			c-0.4-0.4-0.9-0.6-1.4-0.5s-1,0.2-1.3,0.6L136.7,297z"/>
		<path class="st20" d="M136.1,304.3c-0.4-0.4-0.6-0.7-0.8-1c-0.2-0.3-0.3-0.7-0.3-1.2l0.8-0.2c-0.1,0.7,0.2,1.3,0.8,1.9
			c0.4,0.4,0.8,0.6,1.3,0.6c0.5,0,0.9-0.1,1.3-0.6l0.6-0.6c-0.4,0.1-0.7,0-1.1-0.1c-0.4-0.1-0.7-0.3-1-0.6c-0.5-0.5-0.8-1.2-0.8-1.9
			s0.4-1.4,1-2.1s1.3-1,2-1.1c0.7-0.1,1.4,0.2,1.9,0.7c0.6,0.6,0.8,1.3,0.7,2.1l0.6-0.6l0.6,0.6l-3.9,4c-0.6,0.6-1.3,0.9-1.9,0.8
			S136.7,304.9,136.1,304.3z M138.4,302.2c0.2,0.2,0.5,0.4,0.9,0.5c0.4,0.1,0.7,0.1,1,0l1.8-1.8c0.1-0.3,0.1-0.6,0-1
			c-0.1-0.4-0.3-0.7-0.5-0.9c-0.4-0.4-0.9-0.6-1.4-0.5c-0.5,0.1-1,0.3-1.5,0.8c-0.5,0.5-0.7,1-0.8,1.5S138,301.8,138.4,302.2z"/>
		<path class="st20" d="M144.3,309l-0.6-0.6l0.5-0.5c-0.7,0-1.4-0.2-1.9-0.8c-0.4-0.4-0.6-0.8-0.6-1.4c0-0.5,0.1-1,0.5-1.4
			c0.4-0.4,0.9-0.6,1.4-0.6c0.5,0,1,0.3,1.4,0.6c0.6,0.6,0.9,1.2,0.8,1.9l0.7-0.7c0.3-0.3,0.4-0.6,0.3-0.9c0-0.3-0.2-0.7-0.5-1
			c-0.5-0.5-1.1-0.7-1.8-0.7l0.1-0.7c0.9,0,1.7,0.3,2.3,0.9c0.5,0.5,0.7,1,0.8,1.5c0.1,0.5-0.1,1-0.6,1.5L144.3,309z M142.8,306.9
			c0.5,0.5,1.1,0.7,1.6,0.6l0.8-0.8c0.1-0.6-0.1-1.1-0.6-1.6c-0.3-0.3-0.6-0.4-1-0.5c-0.4,0-0.7,0.1-0.9,0.4
			c-0.3,0.3-0.4,0.6-0.3,0.9S142.5,306.6,142.8,306.9z"/>
		<path class="st20" d="M146.2,310.9l-0.6-0.6l5.6-5.7l0.6,0.6L146.2,310.9z"/>
		<path class="st20" d="M153.4,318l-3.7-3.7l5.6-5.7l3.7,3.7l-0.6,0.6l-3-3l-1.8,1.8l3,2.9l-0.6,0.6l-3-2.9l-1.9,2l3,3L153.4,318z"
			/>
		<path class="st20" d="M158,322.5l-0.7-0.7l0.4-2.9l-2.9,0.5l-0.7-0.7l3.7-0.6l0.5-3.5l0.7,0.7l-0.4,2.7l2.7-0.4l0.7,0.7l-3.5,0.5
			L158,322.5z"/>
		<path class="st20" d="M160.6,325.3c-0.6-0.6-0.8-1.3-0.7-2.1l-2.2,2.2l-0.6-0.6l5.6-5.7l0.6,0.6l-0.6,0.6c0.4-0.1,0.7,0,1.1,0.1
			c0.4,0.1,0.7,0.3,1,0.6c0.5,0.5,0.8,1.2,0.8,1.9c0,0.7-0.4,1.4-1,2.1c-0.7,0.7-1.3,1-2.1,1.1S161.2,325.8,160.6,325.3z M161,324.6
			c0.4,0.4,0.9,0.6,1.4,0.5c0.5-0.1,1-0.3,1.5-0.8c0.5-0.5,0.7-1,0.8-1.5c0.1-0.5-0.1-1-0.5-1.4c-0.2-0.2-0.5-0.4-0.9-0.5
			c-0.4-0.1-0.7-0.1-1,0l-1.8,1.9c-0.1,0.3-0.1,0.6,0.1,1C160.6,324,160.8,324.3,161,324.6z"/>
		<path class="st20" d="M165.4,329.9c-0.6-0.6-0.9-1.3-0.9-2.1c0-0.8,0.3-1.5,1-2.2c0.6-0.6,1.3-0.9,2.1-1c0.8,0,1.5,0.2,2.1,0.8
			c0.6,0.6,0.9,1.3,0.8,2.1c-0.1,0.8-0.4,1.5-1,2.1l-0.2,0.2l-3.3-3.3c-0.4,0.4-0.6,0.9-0.6,1.5c0,0.5,0.2,1,0.6,1.4
			c0.5,0.5,1.1,0.7,1.8,0.7l-0.1,0.7C166.8,330.9,166,330.6,165.4,329.9z M169,328.8c0.3-0.4,0.5-0.8,0.6-1.3c0-0.5-0.2-1-0.6-1.4
			c-0.4-0.4-0.9-0.6-1.4-0.5c-0.5,0-1,0.2-1.3,0.6L169,328.8z"/>
		<path class="st20" d="M171.9,336.1l-0.6-0.6l2.7-2.7c0.3-0.3,0.5-0.7,0.5-1c0-0.3-0.2-0.6-0.5-0.9c-0.2-0.2-0.5-0.4-0.9-0.5
			c-0.3-0.1-0.7-0.1-1-0.1l-3,3l-0.6-0.6l4.1-4.1l0.6,0.6l-0.6,0.6c0.3,0,0.7,0,1.1,0.1s0.8,0.3,1,0.6c0.9,0.9,0.9,1.7,0,2.6
			L171.9,336.1z"/>
		<path class="st20" d="M174.4,338.8c-0.7-0.7-1-1.5-1-2.3l0.8-0.1c0,0.3,0,0.6,0.2,1c0.1,0.4,0.3,0.7,0.6,0.9
			c0.3,0.3,0.6,0.5,0.9,0.5c0.3,0,0.6,0,0.8-0.3c0.2-0.2,0.2-0.4,0.2-0.7c-0.1-0.3-0.2-0.6-0.4-0.9c-0.2-0.3-0.4-0.6-0.6-0.9
			c-0.2-0.3-0.3-0.7-0.3-1s0.1-0.7,0.4-1c0.3-0.3,0.7-0.5,1.2-0.4c0.5,0,1,0.3,1.5,0.8c0.6,0.6,0.9,1.3,0.9,2.1l-0.7,0.2
			c0.1-0.6-0.2-1.2-0.7-1.7c-0.3-0.3-0.6-0.4-0.8-0.5c-0.3,0-0.5,0-0.7,0.2c-0.2,0.2-0.2,0.4-0.1,0.7s0.2,0.6,0.4,0.8
			c0.2,0.3,0.4,0.6,0.6,0.9c0.2,0.3,0.3,0.7,0.3,1s-0.2,0.7-0.4,1c-0.4,0.4-0.8,0.5-1.3,0.5C175.4,339.5,174.9,339.3,174.4,338.8z"
			/>
		<path class="st20" d="M178.9,343.2c-0.6-0.6-0.9-1.3-0.9-2.1c0-0.8,0.3-1.5,1-2.2c0.6-0.6,1.3-0.9,2.1-1s1.5,0.2,2.1,0.8
			c0.6,0.6,0.9,1.3,0.8,2.1c-0.1,0.8-0.4,1.5-1,2.1l-0.2,0.2l-3.3-3.3c-0.4,0.4-0.6,0.9-0.6,1.5s0.2,1,0.6,1.4
			c0.5,0.5,1.1,0.7,1.8,0.7l-0.1,0.7C180.3,344.2,179.6,343.9,178.9,343.2z M182.6,342c0.3-0.4,0.5-0.8,0.6-1.3c0-0.5-0.2-1-0.6-1.4
			c-0.4-0.4-0.9-0.6-1.4-0.5c-0.5,0-1,0.2-1.3,0.6L182.6,342z"/>
		<path class="st20" d="M183.2,347.4c-0.7-0.7-1-1.5-1-2.3l0.8-0.1c0,0.3,0,0.6,0.2,1c0.1,0.4,0.3,0.7,0.6,0.9
			c0.3,0.3,0.6,0.5,0.9,0.5c0.3,0,0.6,0,0.8-0.3c0.2-0.2,0.2-0.4,0.2-0.7c-0.1-0.3-0.2-0.6-0.4-0.9c-0.2-0.3-0.4-0.6-0.6-0.9
			c-0.2-0.3-0.3-0.7-0.3-1s0.1-0.7,0.4-1c0.3-0.3,0.7-0.5,1.2-0.4c0.5,0,1,0.3,1.5,0.8c0.6,0.6,0.9,1.3,0.9,2.1l-0.7,0.2
			c0.1-0.6-0.2-1.2-0.7-1.7c-0.3-0.3-0.6-0.4-0.8-0.5c-0.3,0-0.5,0-0.7,0.2c-0.2,0.2-0.2,0.4-0.1,0.7c0.1,0.3,0.2,0.6,0.4,0.8
			c0.2,0.3,0.4,0.6,0.6,0.9c0.2,0.3,0.3,0.7,0.3,1c0,0.4-0.2,0.7-0.4,1c-0.4,0.4-0.8,0.5-1.3,0.5
			C184.2,348.2,183.7,347.9,183.2,347.4z"/>
	</g>
	<g class="st19">
		<path class="st20" d="M179.9,293.8c-0.8-0.8-1.2-1.8-1.2-2.8c0-1.1,0.5-2,1.3-2.9c0.8-0.9,1.8-1.3,2.9-1.3c1.1,0,2,0.3,2.9,1.2
			c0.8,0.8,1.2,1.8,1.2,2.8c0,1.1-0.5,2-1.3,2.9s-1.8,1.3-2.9,1.3S180.8,294.6,179.9,293.8z M180.5,293.1c0.6,0.6,1.3,0.9,2.2,0.8
			c0.8-0.1,1.6-0.4,2.2-1.1c0.7-0.7,1-1.4,1.1-2.2s-0.3-1.5-0.9-2.1c-0.6-0.6-1.4-0.9-2.2-0.8c-0.8,0.1-1.5,0.4-2.2,1.1
			c-0.7,0.7-1,1.4-1.1,2.2S179.9,292.5,180.5,293.1z"/>
		<path class="st20" d="M184.9,298.6c-0.3-0.3-0.4-0.6-0.4-0.9c0-0.3,0.2-0.6,0.5-0.9l2.7-2.7l-0.7-0.7l0.6-0.6l0.7,0.7l1.1-1.1
			l0.6,0.6l-1.1,1.1l0.8,0.8l-0.6,0.6l-0.8-0.8l-2.5,2.6c-0.2,0.2-0.2,0.3-0.3,0.5c0,0.2,0,0.3,0.2,0.5c0.2,0.2,0.4,0.3,0.6,0.3
			l-0.3,0.7C185.6,299.1,185.2,299,184.9,298.6z"/>
		<path class="st20" d="M189.9,303.4l-0.6-0.6l2.7-2.7c0.3-0.3,0.5-0.7,0.5-1c0-0.3-0.2-0.6-0.5-0.9c-0.2-0.2-0.5-0.4-0.9-0.5
			c-0.3-0.1-0.7-0.1-1-0.1l-3,3l-0.6-0.6l5.6-5.7l0.6,0.6l-2.1,2.2c0.3,0,0.7,0,1.1,0.1c0.4,0.1,0.8,0.3,1,0.6
			c0.9,0.9,0.9,1.7,0,2.6L189.9,303.4z"/>
		<path class="st20" d="M193,306.6c-0.6-0.6-0.9-1.3-0.9-2.1s0.3-1.5,1-2.2c0.6-0.6,1.3-0.9,2.1-1c0.8,0,1.5,0.2,2.1,0.8
			c0.6,0.6,0.9,1.3,0.8,2.1c-0.1,0.8-0.4,1.5-1,2.1l-0.2,0.2l-3.3-3.3c-0.4,0.4-0.6,0.9-0.6,1.5c0,0.5,0.2,1,0.6,1.4
			c0.5,0.5,1.1,0.7,1.8,0.7l-0.1,0.7C194.4,307.5,193.6,307.2,193,306.6z M196.6,305.4c0.3-0.4,0.5-0.8,0.6-1.3c0-0.5-0.2-1-0.6-1.4
			c-0.4-0.4-0.9-0.6-1.4-0.5s-1,0.2-1.3,0.6L196.6,305.4z"/>
		<path class="st20" d="M196.6,310l-0.6-0.6l4.1-4.1l0.6,0.6l-0.7,0.7c0.9-0.1,1.6,0.1,2.1,0.6l-0.6,0.7c-0.1-0.1-0.1-0.2-0.2-0.3
			c-0.2-0.2-0.5-0.3-0.8-0.4c-0.4-0.1-0.7-0.1-0.9,0L196.6,310z"/>
		<path class="st20" d="M204.8,318l-3.7-3.7l5.6-5.7l3.7,3.7l-0.6,0.6l-3-3l-1.8,1.8l3,2.9l-0.6,0.6l-3-2.9l-1.9,2l3,3L204.8,318z"
			/>
		<path class="st20" d="M209.3,322.5l-0.7-0.7l0.4-2.9l-2.9,0.5l-0.7-0.7l3.7-0.6l0.5-3.5l0.7,0.7l-0.4,2.7l2.7-0.4l0.7,0.7
			l-3.5,0.5L209.3,322.5z"/>
		<path class="st20" d="M212,325.3c-0.6-0.6-0.8-1.3-0.7-2.1l-2.2,2.2l-0.6-0.6l5.6-5.7l0.6,0.6l-0.6,0.6c0.4-0.1,0.7,0,1.1,0.1
			c0.4,0.1,0.7,0.3,1,0.6c0.5,0.5,0.8,1.2,0.8,1.9c0,0.7-0.4,1.4-1,2.1c-0.7,0.7-1.3,1-2.1,1.1S212.6,325.8,212,325.3z M212.4,324.5
			c0.4,0.4,0.9,0.6,1.4,0.5c0.5-0.1,1-0.3,1.5-0.8c0.5-0.5,0.7-1,0.8-1.5c0.1-0.5-0.1-1-0.5-1.4c-0.2-0.2-0.5-0.4-0.9-0.5
			c-0.4-0.1-0.7-0.1-1,0l-1.8,1.9c-0.1,0.3-0.1,0.6,0.1,1C212,324,212.2,324.3,212.4,324.5z"/>
		<path class="st20" d="M216.7,329.9c-0.6-0.6-0.9-1.3-0.9-2.1c0-0.8,0.3-1.5,1-2.2c0.6-0.6,1.3-0.9,2.1-1c0.8,0,1.5,0.2,2.1,0.8
			c0.6,0.6,0.9,1.3,0.8,2.1c-0.1,0.8-0.4,1.5-1,2.1l-0.2,0.2l-3.3-3.3c-0.4,0.4-0.6,0.9-0.6,1.5c0,0.5,0.2,1,0.6,1.4
			c0.5,0.5,1.1,0.7,1.8,0.7l-0.1,0.7C218.2,330.9,217.4,330.6,216.7,329.9z M220.4,328.8c0.3-0.4,0.5-0.8,0.6-1.3
			c0-0.5-0.2-1-0.6-1.4c-0.4-0.4-0.9-0.6-1.4-0.5c-0.5,0-1,0.2-1.3,0.6L220.4,328.8z"/>
		<path class="st20" d="M223.2,336.1l-0.6-0.6l2.7-2.7c0.3-0.3,0.5-0.7,0.5-1c0-0.3-0.2-0.6-0.5-0.9c-0.2-0.2-0.5-0.4-0.9-0.5
			c-0.3-0.1-0.7-0.1-1-0.1l-3,3l-0.6-0.6l4.1-4.1l0.6,0.6l-0.6,0.6c0.3,0,0.7,0,1.1,0.1c0.4,0.1,0.8,0.3,1,0.6
			c0.9,0.9,0.9,1.7,0,2.6L223.2,336.1z"/>
		<path class="st20" d="M225.7,338.7c-0.7-0.7-1-1.5-1-2.3l0.8-0.1c0,0.3,0,0.6,0.2,1c0.1,0.4,0.3,0.7,0.6,0.9
			c0.3,0.3,0.6,0.5,0.9,0.5c0.3,0,0.6,0,0.8-0.3c0.2-0.2,0.2-0.4,0.2-0.7c-0.1-0.3-0.2-0.6-0.4-0.9s-0.4-0.6-0.6-0.9
			c-0.2-0.3-0.3-0.7-0.3-1s0.1-0.7,0.4-1c0.3-0.3,0.7-0.5,1.2-0.4s1,0.3,1.5,0.8c0.6,0.6,0.9,1.3,0.9,2.1l-0.7,0.2
			c0.1-0.6-0.2-1.2-0.7-1.7c-0.3-0.3-0.6-0.4-0.8-0.5c-0.3,0-0.5,0-0.7,0.2c-0.2,0.2-0.2,0.4-0.1,0.7c0.1,0.3,0.2,0.6,0.4,0.8
			c0.2,0.3,0.4,0.6,0.6,0.9c0.2,0.3,0.3,0.7,0.3,1c0,0.4-0.2,0.7-0.4,1c-0.4,0.4-0.8,0.5-1.3,0.5
			C226.7,339.5,226.2,339.3,225.7,338.7z"/>
		<path class="st20" d="M230.2,343.2c-0.6-0.6-0.9-1.3-0.9-2.1c0-0.8,0.3-1.5,1-2.2c0.6-0.6,1.3-0.9,2.1-1s1.5,0.2,2.1,0.8
			c0.6,0.6,0.9,1.3,0.8,2.1c-0.1,0.8-0.4,1.5-1,2.1l-0.2,0.2l-3.3-3.3c-0.4,0.4-0.6,0.9-0.6,1.5s0.2,1,0.6,1.4
			c0.5,0.5,1.1,0.7,1.8,0.7l-0.1,0.7C231.7,344.2,230.9,343.9,230.2,343.2z M233.9,342c0.3-0.4,0.5-0.8,0.6-1.3c0-0.5-0.2-1-0.6-1.4
			c-0.4-0.4-0.9-0.6-1.4-0.5c-0.5,0-1,0.2-1.3,0.6L233.9,342z"/>
		<path class="st20" d="M234.5,347.4c-0.7-0.7-1-1.5-1-2.3l0.8-0.1c0,0.3,0,0.6,0.2,1c0.1,0.4,0.3,0.7,0.6,0.9
			c0.3,0.3,0.6,0.5,0.9,0.5c0.3,0,0.6,0,0.8-0.3c0.2-0.2,0.2-0.4,0.2-0.7s-0.2-0.6-0.4-0.9c-0.2-0.3-0.4-0.6-0.6-0.9
			c-0.2-0.3-0.3-0.7-0.3-1s0.1-0.7,0.4-1c0.3-0.3,0.7-0.5,1.2-0.4c0.5,0,1,0.3,1.5,0.8c0.6,0.6,0.9,1.3,0.9,2.1l-0.7,0.2
			c0.1-0.6-0.2-1.2-0.7-1.7c-0.3-0.3-0.6-0.4-0.8-0.5c-0.3,0-0.5,0-0.7,0.2c-0.2,0.2-0.2,0.4-0.1,0.7c0.1,0.3,0.2,0.6,0.4,0.8
			c0.2,0.3,0.4,0.6,0.6,0.9c0.2,0.3,0.3,0.7,0.3,1c0,0.4-0.2,0.7-0.4,1c-0.4,0.4-0.8,0.5-1.3,0.5C235.5,348.2,235,347.9,234.5,347.4
			z"/>
	</g>
	<path class="st20" d="M397.6,254.1h-28.2c-2.7,0-4.9-2.2-4.9-4.9V237c0-2.7,2.2-4.9,4.9-4.9h28.2c2.7,0,4.9,2.2,4.9,4.9v12.2
		C402.5,251.9,400.3,254.1,397.6,254.1z"/>
	<g class="st19">
		<path class="st31" d="M377.2,248.4h-2l0-1.9l-4.5,0l0-1.6l3.7-5.8l2.7,0l0,5.7l1.2,0l0,1.8l-1.2,0L377.2,248.4z M375.2,244.7
			l0-3.9l-2.5,3.9L375.2,244.7z"/>
		<path class="st31" d="M385.3,247.8c-0.6,0.5-1.3,0.7-2.2,0.7c-0.8,0-1.6-0.2-2.2-0.7s-1-1.1-1.3-1.8s-0.4-1.5-0.4-2.3
			s0.1-1.6,0.4-2.3c0.3-0.7,0.7-1.3,1.3-1.8c0.6-0.5,1.3-0.7,2.2-0.7c0.8,0,1.6,0.2,2.2,0.7c0.6,0.5,1,1.1,1.3,1.8
			c0.3,0.7,0.4,1.5,0.4,2.3c0,0.8-0.1,1.6-0.4,2.3S385.9,247.3,385.3,247.8z M381.7,245.9c0.3,0.6,0.8,0.8,1.4,0.8s1.1-0.3,1.4-0.8
			c0.3-0.6,0.4-1.3,0.4-2.2c0-0.9-0.1-1.7-0.4-2.2s-0.8-0.8-1.4-0.8s-1.1,0.3-1.4,0.8s-0.4,1.3-0.4,2.2
			C381.3,244.6,381.4,245.4,381.7,245.9z"/>
		<path class="st31" d="M390.2,243.5c-0.7,0-1.3-0.2-1.7-0.7c-0.4-0.4-0.7-1-0.7-1.6c0-0.7,0.2-1.2,0.7-1.7c0.4-0.4,1-0.7,1.7-0.7
			c0.7,0,1.3,0.2,1.7,0.7c0.4,0.4,0.7,1,0.7,1.7c0,0.7-0.2,1.2-0.7,1.6S390.9,243.5,390.2,243.5z M390.2,242.4
			c0.3,0,0.6-0.1,0.8-0.3c0.2-0.2,0.3-0.5,0.3-0.9c0-0.4-0.1-0.7-0.3-0.9c-0.2-0.2-0.5-0.3-0.8-0.3c-0.3,0-0.6,0.1-0.8,0.3
			c-0.2,0.2-0.3,0.5-0.3,0.9c0,0.4,0.1,0.6,0.3,0.9C389.6,242.3,389.9,242.4,390.2,242.4z M390.3,248.3l-1.1,0l6-9.3h1.1
			L390.3,248.3z M397,247.9c-0.4,0.4-1,0.7-1.7,0.7c-0.7,0-1.3-0.2-1.7-0.7c-0.4-0.4-0.7-1-0.7-1.7c0-0.7,0.2-1.2,0.7-1.7
			c0.4-0.4,1-0.7,1.7-0.7c0.7,0,1.3,0.2,1.7,0.7s0.7,1,0.7,1.7C397.7,246.9,397.5,247.4,397,247.9z M394.5,247.1
			c0.2,0.2,0.5,0.3,0.8,0.3s0.6-0.1,0.8-0.3s0.3-0.5,0.3-0.9c0-0.4-0.1-0.7-0.3-0.9c-0.2-0.2-0.5-0.3-0.8-0.3
			c-0.3,0-0.6,0.1-0.8,0.3c-0.2,0.2-0.3,0.5-0.3,0.9C394.2,246.6,394.3,246.9,394.5,247.1z"/>
	</g>
</g>
<g id="Слой_2_2_">
	<g>
		<path class="st30" d="M-2240-2168c9.9,0,19.5,1.6,28.4,4.4"/>
		<path class="st32" d="M-2211.5-2163.5c-9-2.9-18.5-4.4-28.4-4.4v92.8L-2211.5-2163.5z"/>
		<path class="st30" d="M-2211.5-2163.5c10.5,3.4,20.2,8.6,28.7,15.2"/>
		<path class="st33" d="M-2182.9-2148.3c-8.5-6.6-18.2-11.8-28.7-15.2l-28.4,88.3L-2182.9-2148.3z"/>
		<path class="st30" d="M-2182.9-2148.3c11.7,9.2,21.2,21.1,27.4,34.8"/>
		<path class="st34" d="M-2182.9-2148.3l-57.1,73.1l84.6-38.3C-2161.7-2127.2-2171.1-2139.1-2182.9-2148.3z"/>
		<path class="st30" d="M-2155.4-2113.5c5.3,11.7,8.2,24.6,8.2,38.3c0,4.2-0.3,8.3-0.8,12.3"/>
		<path class="st35" d="M-2148-2062.8c0.5-4,0.8-8.1,0.8-12.3c0-13.7-3-26.6-8.2-38.3l-84.6,38.2L-2148-2062.8z"/>
		<path class="st30" d="M-2148-2062.8c-6,45.4-44.9,80.5-92,80.5c-10.5,0-20.6-1.7-30-4.9"/>
		<path class="st30" d="M-2143-1946"/>
		<path class="st36" d="M-2270-1987.3c9.4,3.2,19.5,4.9,30,4.9c47.1,0,86-35.1,92-80.5l-92-12.3L-2270-1987.3z"/>
		<path class="st30" d="M-2270-1987.3c-36.5-12.5-62.8-47.1-62.8-87.9c0-51.3,41.5-92.8,92.8-92.8"/>
		<path class="st30" d="M-2375-1933"/>
		<path class="st37" d="M-2240-2168c-51.3,0-92.8,41.5-92.8,92.8c0,40.8,26.3,75.4,62.8,87.9l30-87.9V-2168z"/>
	</g>
	<circle class="st38" cx="-2240" cy="-2075.2" r="77.3"/>
	<text transform="matrix(1 0 0 1 -2227 -2185)" style="font-family:'Roboto-Regular'; font-size:16px;">2% Bingo</text>
	<text transform="matrix(1 0 0 1 -2175 -2160)" style="font-family:'Roboto-Regular'; font-size:16px;">2,2% Logic</text>
	<text transform="matrix(1 0 0 1 -2149 -2123)" style="font-family:'Roboto-Regular'; font-size:16px;">2,75% Pocker</text>
	<text transform="matrix(1 0 0 1 -2130 -2080)" style="font-family:'Roboto-Regular'; font-size:16px;">3,85% Lotterey</text>
	<text transform="matrix(1 0 0 1 -2153 -1991)" style="font-family:'Roboto-Regular'; font-size:16px;">11,8% Casino</text>
	<text transform="matrix(1 0 0 1 -2443 -2077)" style="font-family:'Roboto-Regular'; font-size:16px;">21,4% Betting</text>
	<polyline class="st30" points="-1994.5,-1295 -1994.3,-1268.3 -2029.5,-1268.5 -2029.5,-1284.5 -2041.5,-1284.5 	"/>
	<g>
		
			<linearGradient id="SVGID_8_" gradientUnits="userSpaceOnUse" x1="-2157.1084" y1="-1276.3749" x2="-2207.9907" y2="-1638.4213" gradientTransform="matrix(0.782 0.6232 0.6232 -0.782 415.5456 -1099.5812)">
			<stop  offset="0" style="stop-color:#F09B6D"/>
			<stop  offset="1" style="stop-color:#ED1E79"/>
		</linearGradient>
		<path class="st39" d="M-1995.3-1277.1c-0.4-59-26.4-117.2-76.1-156.9c-87.2-69.5-214.3-55.2-283.9,32.1
			c-29.8,37.4-44.2,82.2-44,126.6"/>
		
			<linearGradient id="SVGID_9_" gradientUnits="userSpaceOnUse" x1="-2281.4563" y1="-1366.9429" x2="-2314.1833" y2="-1599.8075" gradientTransform="matrix(0.782 0.6232 0.6232 -0.782 415.5456 -1099.5812)">
			<stop  offset="0" style="stop-color:#F09B6D"/>
			<stop  offset="1" style="stop-color:#ED1E79"/>
		</linearGradient>
		<path class="st40" d="M-2367.1-1275.4c-0.1-36.6,11.8-73.5,36.4-104.3c28.9-36.3,69.8-57.3,112.6-61.9"/>
		<path class="st41" d="M-2064.3-1276.8"/>
		
			<linearGradient id="SVGID_10_" gradientUnits="userSpaceOnUse" x1="-2262.9895" y1="-1434.5854" x2="-2283.4128" y2="-1579.9044" gradientTransform="matrix(0.782 0.6232 0.6232 -0.782 415.5456 -1099.5812)">
			<stop  offset="0" style="stop-color:#F09B6D"/>
			<stop  offset="1" style="stop-color:#ED1E79"/>
		</linearGradient>
		<path class="st42" d="M-2334.3-1275.6c0.1-29.3,9.7-58.9,29.4-83.6c10.5-13.2,22.9-23.8,36.6-31.9c2.9-1.7,5.9-3.3,8.9-4.8"/>
		
			<linearGradient id="SVGID_11_" gradientUnits="userSpaceOnUse" x1="-2243.3706" y1="-1493.1329" x2="-2252.8611" y2="-1560.66" gradientTransform="matrix(0.782 0.6232 0.6232 -0.782 415.5456 -1099.5812)">
			<stop  offset="0" style="stop-color:#F09B6D"/>
			<stop  offset="1" style="stop-color:#ED1E79"/>
		</linearGradient>
		<path class="st43" d="M-2302.3-1275.7c0.1-22.3,7.5-44.7,22.5-63.5"/>
		
			<linearGradient id="SVGID_12_" gradientUnits="userSpaceOnUse" x1="-2214.4087" y1="-1501.4615" x2="-2219.853" y2="-1540.2004" gradientTransform="matrix(0.782 0.6232 0.6232 -0.782 415.5456 -1099.5812)">
			<stop  offset="0" style="stop-color:#F09B6D"/>
			<stop  offset="1" style="stop-color:#ED1E79"/>
		</linearGradient>
		<path class="st44" d="M-2259.2-1309.2c-5.9,10.4-8.9,21.9-9,33.4"/>
		<path class="st45" d="M-1995.3-1277.1"/>
		<path class="st45" d="M-2399.3-1275.3"/>
		<path class="st45" d="M-2367.1-1275.4"/>
		<path class="st45" d="M-1995.3-1277.1"/>
		<path class="st45" d="M-2334.3-1275.6"/>
		<path class="st46" d="M-2302.3-1275.7"/>
		<path class="st46" d="M-2268.3-1275.8"/>
		<path class="st47" d="M-2131.2-1278.1"/>
	</g>
	<line class="st29" x1="-2244.9" y1="-1275.6" x2="-2417.4" y2="-1275.6"/>
	
		<text transform="matrix(0.7771 0.6293 -0.6293 0.7771 -2412.5818 -1263.8057)" style="font-family:'ProximaNova-Semibold'; font-size:15.9992px;">Crowd Sale</text>
	
		<text transform="matrix(0.7771 0.6293 -0.6293 0.7771 -2376.3481 -1264.0592)" style="font-family:'ProximaNova-Regular'; font-size:11.9994px;">Project Team</text>
	
		<text transform="matrix(0.7771 0.6293 -0.6293 0.7771 -2342.2969 -1264.7941)" style="font-family:'ProximaNova-Regular'; font-size:11.9994px;">Reserve Fund</text>
	
		<text transform="matrix(0.7771 0.6293 -0.6293 0.7771 -2270.4578 -1264.5237)" style="font-family:'ProximaNova-Regular'; font-size:11.9994px;">Bounty Program</text>
	
		<text transform="matrix(1.0032 2.122670e-04 -2.129431e-04 1 -2212.5859 -1302.6537)" style="font-family:'ProximaNova-Bold'; font-size:28.7493px;">Tokens</text>
	
		<text transform="matrix(1.0032 2.122670e-04 -2.129431e-04 1 -2241.584 -1274.86)" style="font-family:'ProximaNova-Bold'; font-size:28.7493px;">Distribution</text>
	
		<text transform="matrix(0.7771 0.6293 -0.6293 0.7771 -2308.0991 -1264.1227)" style="font-family:'ProximaNova-Regular'; font-size:11.9994px;">First Bonus Tournament</text>
	
		<text transform="matrix(0.1045 0.9945 -0.9945 0.1045 -2215.2986 -1451.661)" style="font-family:'ProximaNova-Semibold'; font-size:12px;">15%</text>
	
		<text transform="matrix(0.4384 0.8988 -0.8988 0.4384 -2257.7051 -1403.9913)" style="font-family:'ProximaNova-Semibold'; font-size:12px;">7%</text>
	
		<text transform="matrix(0.7771 0.6293 -0.6293 0.7771 -2283.2183 -1346.8801)" style="font-family:'ProximaNova-Semibold'; font-size:11.9994px;">5%</text>
	
		<text transform="matrix(0.866 0.5 -0.5 0.866 -2263.7346 -1315.7019)" style="font-family:'ProximaNova-Semibold'; font-size:12px;">3%</text>
	<path class="st32" d="M-2045.2-1273.3h-28.2c-2.7,0-4.9-2.2-4.9-4.9v-12.2c0-2.7,2.2-4.9,4.9-4.9h28.2c2.7,0,4.9,2.2,4.9,4.9v12.2
		C-2040.2-1275.5-2042.4-1273.3-2045.2-1273.3z"/>
	<text transform="matrix(1 0 0 1 -2071.7356 -1279.8074)" class="st31" style="font-family:'ProximaNova-Bold'; font-size:14px;">70%</text>
	<polyline class="st18" points="-1240.5,-247 -1240.6,-215.3 -1349.5,-214.5 -1349,-268.6 -1358.5,-268.6 	"/>
	<line class="st18" x1="-1279.5" y1="-245" x2="-1279.5" y2="-215"/>
	
		<text transform="matrix(1 1.776810e-03 -1.776810e-03 1 -1525.8782 -268.7085)" class="st20" style="font-family:'ProximaNova-Bold'; font-size:29px;">Raised</text>
	
		<text transform="matrix(1 1.776810e-03 -1.776810e-03 1 -1523.728 -240.6744)" class="st20" style="font-family:'ProximaNova-Bold'; font-size:29px;">Funds</text>
	<g>
		
			<linearGradient id="SVGID_13_" gradientUnits="userSpaceOnUse" x1="-1405.7177" y1="-2038.8964" x2="-1735.0201" y2="-2335.4016" gradientTransform="matrix(1 -8.804109e-03 -8.804109e-03 -1 66.7297 -2498.0862)">
			<stop  offset="0" style="stop-color:#F09B6D"/>
			<stop  offset="1" style="stop-color:#ED1E79"/>
		</linearGradient>
		<path class="st48" d="M-1238.1-243.3c0-2.3,0.1-4.7,0-7c-1.2-133.6-110.5-241-244.1-239.9c-133.6,1.2-241,110.5-239.8,244.2
			c0,2.3,0.1,4.7,0.2,7"/>
		
			<linearGradient id="SVGID_14_" gradientUnits="userSpaceOnUse" x1="-1430.837" y1="-2070.5974" x2="-1708.3885" y2="-2320.5061" gradientTransform="matrix(1 -8.804109e-03 -8.804109e-03 -1 66.7297 -2498.0862)">
			<stop  offset="0" style="stop-color:#F09B6D"/>
			<stop  offset="1" style="stop-color:#ED1E79"/>
		</linearGradient>
		<path class="st49" d="M-1681.8-239.4c-0.1-2.3-0.2-4.7-0.2-7c-1-111.6,88.7-202.8,200.2-203.8c111.6-1,202.8,88.7,203.8,200.2
			c0,2.3,0,4.7-0.1,7"/>
		
			<linearGradient id="SVGID_15_" gradientUnits="userSpaceOnUse" x1="-1430.8176" y1="-2070.562" x2="-1708.3976" y2="-2320.4961" gradientTransform="matrix(1 -8.804109e-03 -8.804109e-03 -1 66.7297 -2498.0862)">
			<stop  offset="0" style="stop-color:#F09B6D"/>
			<stop  offset="1" style="stop-color:#ED1E79"/>
		</linearGradient>
		<path class="st50" d="M-1278.1-243c0.1-2.3,0.1-4.7,0.1-7c-0.9-102.1-77.3-185.8-175.8-198.5c-9.2-1.2-18.5-1.8-28-1.7
			c-111.6,1-201.2,92.2-200.2,203.8c0,2.3,0.1,4.7,0.2,7"/>
		
			<linearGradient id="SVGID_16_" gradientUnits="userSpaceOnUse" x1="-1571.3478" y1="-2061.6626" x2="-1752.8068" y2="-2225.0491" gradientTransform="matrix(1 -8.804109e-03 -8.804109e-03 -1 66.7297 -2498.0862)">
			<stop  offset="0" style="stop-color:#F09B6D"/>
			<stop  offset="1" style="stop-color:#ED1E79"/>
		</linearGradient>
		<path class="st51" d="M-1640.3-239.8c-0.1-2.3-0.2-4.7-0.2-7c-0.8-88.4,70.2-160.6,158.6-161.4"/>
		
			<linearGradient id="SVGID_17_" gradientUnits="userSpaceOnUse" x1="-1571.3479" y1="-2061.6626" x2="-1752.807" y2="-2225.0493" gradientTransform="matrix(1 -8.804109e-03 -8.804109e-03 -1 66.7297 -2498.0862)">
			<stop  offset="0" style="stop-color:#F09B6D"/>
			<stop  offset="1" style="stop-color:#ED1E79"/>
		</linearGradient>
		<path class="st52" d="M-1481.9-408.2c-88.4,0.8-159.4,73-158.6,161.4c0,2.3,0.1,4.7,0.2,7"/>
		
			<linearGradient id="SVGID_18_" gradientUnits="userSpaceOnUse" x1="-1671.2958" y1="-2233.9705" x2="-1684.9261" y2="-2246.2434" gradientTransform="matrix(1 -8.804109e-03 -8.804109e-03 -1 66.7297 -2498.0862)">
			<stop  offset="0" style="stop-color:#F09B6D"/>
			<stop  offset="1" style="stop-color:#ED1E79"/>
		</linearGradient>
		<path class="st53" d="M-1591.3-240.2c-0.1-2-0.2-4-0.2-6"/>
		
			<linearGradient id="SVGID_19_" gradientUnits="userSpaceOnUse" x1="-1615.5057" y1="-2157.0383" x2="-1698.186" y2="-2231.4839" gradientTransform="matrix(1 -8.804109e-03 -8.804109e-03 -1 66.7297 -2498.0862)">
			<stop  offset="0" style="stop-color:#F09B6D"/>
			<stop  offset="1" style="stop-color:#ED1E79"/>
		</linearGradient>
		<path class="st54" d="M-1542.8-339c-29.7,20.2-49,54.3-48.7,92.9c0,2,0.1,4,0.2,6"/>
		<path class="st28" d="M-1245-243.2"/>
		<line class="st29" x1="-1569" y1="-239.9" x2="-1748.9" y2="-238.3"/>
		<path class="st30" d="M-1721.8-239"/>
		<path class="st30" d="M-1681.8-239.4"/>
		<path class="st30" d="M-1278.1-243"/>
		<path class="st30" d="M-1238.1-243.3"/>
		<path class="st30" d="M-1278.1-243"/>
		<path class="st30" d="M-1681.8-239.4"/>
		<path class="st30" d="M-1640.3-239.8"/>
		<path class="st30" d="M-1640.3-239.8"/>
		<path class="st30" d="M-1591.3-240.2"/>
		<path class="st30" d="M-1591.3-240.2"/>
	</g>
	
		<text transform="matrix(0.7133 0.7009 -0.7009 0.7133 -1731.7537 -216.0686)" class="st20" style="font-family:'ProximaNova-Semibold'; font-size:16px;">Marketing</text>
	
		<text transform="matrix(0.7133 0.7009 -0.7009 0.7133 -1686.6189 -222.1907)" class="st20" style="font-family:'ProximaNova-Semibold'; font-size:16px;">Game Development</text>
	
		<text transform="matrix(0.7133 0.7009 -0.7009 0.7133 -1633.7029 -220.6667)" class="st20" style="font-family:'ProximaNova-Regular'; font-size:12px;">Legal Expenses</text>
	<g>
		<line class="st55" x1="-2943" y1="246.7" x2="-2489" y2="246.7"/>
		<line class="st55" x1="-2943" y1="224.3" x2="-2489" y2="224.3"/>
		<line class="st55" x1="-2943" y1="201.6" x2="-2489" y2="201.6"/>
		<line class="st55" x1="-2943" y1="178.9" x2="-2489" y2="178.9"/>
		<line class="st55" x1="-2943" y1="156.2" x2="-2489" y2="156.2"/>
		<line class="st55" x1="-2943" y1="133.5" x2="-2489" y2="133.5"/>
		<line class="st55" x1="-2943" y1="110.8" x2="-2489" y2="110.8"/>
		<line class="st55" x1="-2943" y1="88.1" x2="-2489" y2="88.1"/>
		<line class="st55" x1="-2943" y1="65.4" x2="-2489" y2="65.4"/>
	</g>
	
		<text transform="matrix(0.7133 0.7009 -0.7009 0.7133 -1583.2429 -221.5566)" class="st20" style="font-family:'ProximaNova-Regular'; font-size:12px;">Other Expenses</text>
	<path class="st20" d="M-1362.4-257.9h-28.2c-2.7,0-4.9-2.2-4.9-4.9V-275c0-2.7,2.2-4.9,4.9-4.9h28.2c2.7,0,4.9,2.2,4.9,4.9v12.2
		C-1357.5-260.1-1359.7-257.9-1362.4-257.9z"/>
	
		<text transform="matrix(1 -4.000000e-04 4.000000e-04 1 -1389.588 -263.6473)" class="st31" style="font-family:'ProximaNova-Bold'; font-size:14px;">40%</text>
	<rect x="-2922.7" y="164.3" class="st56" width="60.5" height="83.2"/>
	<rect x="-2927.9" y="253.8" class="st57" width="75.7" height="1.6"/>
	<rect x="-2837.1" y="253.3" class="st58" width="348.1" height="1.6"/>
	<rect x="-2829.5" y="164.3" class="st59" width="60.5" height="83.2"/>
	<path class="st60" d="M-2769,163.5h-60.5v-37.8c10.1,0,20.1,0,30.3,0s20.1,0,30.3,0C-2769,138.2-2769,150.8-2769,163.5z"/>
	<rect x="-2738.7" y="164.3" class="st59" width="60.5" height="83.2"/>
	<rect x="-2738.7" y="110.5" class="st60" width="60.5" height="53"/>
	<rect x="-2647.9" y="164.3" class="st59" width="60.5" height="83.2"/>
	<rect x="-2647.9" y="87.8" class="st60" width="60.5" height="75.7"/>
	<rect x="-2557.1" y="164.3" class="st59" width="60.5" height="83.2"/>
	<rect x="-2557.1" y="57.5" class="st60" width="60.5" height="105.9"/>
	<rect x="-2829.5" y="163.5" class="st31" width="60.5" height="0.8"/>
	<rect x="-2738.7" y="163.5" class="st31" width="60.5" height="0.8"/>
	<rect x="-2647.9" y="163.5" class="st31" width="60.5" height="0.8"/>
	<rect x="-2557.1" y="163.5" class="st31" width="60.5" height="0.8"/>
	<g>
		<path class="st31" d="M-2806.8,144.2h-2.3v2.4h-0.8v-2.4h-2.3v-0.8h2.3v-2.4h0.8v2.4h2.3V144.2z"/>
		<path class="st31" d="M-2802.9,147.7h-1.4v-6.1l-1.3,1.3l-0.8-0.8l2.3-2.3h1.3V147.7z"/>
		<path class="st31" d="M-2797,147.5c-0.5,0.2-1,0.3-1.4,0.3c-0.5,0-1-0.2-1.4-0.3c-0.5-0.2-0.8-0.5-1-1c-0.3-0.3-0.5-0.8-0.5-1.3
			c-0.2-0.5-0.2-1-0.2-1.4c0-0.5,0-1,0.2-1.4c0.2-0.5,0.3-1,0.5-1.3c0.3-0.3,0.6-0.6,1-1c0.5-0.2,1-0.3,1.4-0.3c0.5,0,1,0.2,1.4,0.3
			c0.5,0.2,0.8,0.5,1,1c0.3,0.3,0.5,0.8,0.5,1.3c0.2,0.5,0.2,1,0.2,1.4c0,0.5,0,1-0.2,1.4c-0.2,0.5-0.3,1-0.5,1.3
			C-2796.3,147-2796.7,147.4-2797,147.5z M-2799.7,145.9c0.3,0.5,0.6,0.8,1.3,0.8c0.6,0,1-0.3,1.3-0.8s0.5-1.3,0.5-2.1
			c0-0.5,0-1-0.2-1.4c-0.2-0.5-0.3-0.8-0.6-1c-0.3-0.3-0.6-0.5-1-0.5c-0.5,0-0.8,0.2-1,0.5c-0.3,0.3-0.5,0.6-0.6,1
			c-0.2,0.5-0.2,0.8-0.2,1.4C-2800.2,144.6-2800,145.3-2799.7,145.9z"/>
		<path class="st31" d="M-2792.5,143.7c-0.6,0-1-0.2-1.4-0.5c-0.3-0.3-0.5-0.8-0.5-1.4s0.2-1,0.5-1.4c0.3-0.3,0.8-0.5,1.4-0.5
			s1.1,0.2,1.4,0.5c0.3,0.3,0.5,0.8,0.5,1.4c0,0.5-0.2,1-0.5,1.4C-2791.5,143.5-2792,143.7-2792.5,143.7z M-2792.5,142.9
			c0.3,0,0.5-0.2,0.8-0.3c0.2-0.2,0.3-0.5,0.3-0.8c0-0.3-0.2-0.6-0.3-0.8c-0.2-0.2-0.5-0.3-0.8-0.3s-0.5,0.2-0.8,0.3
			c-0.2,0.2-0.3,0.5-0.3,0.8c0,0.3,0.2,0.6,0.3,0.8C-2793.1,142.9-2792.8,142.9-2792.5,142.9z M-2792.5,147.7h-0.8l5-7.9h0.8
			L-2792.5,147.7z M-2786.8,147.4c-0.3,0.3-0.8,0.5-1.4,0.5c-0.6,0-1-0.2-1.4-0.5c-0.3-0.3-0.5-0.8-0.5-1.4s0.2-1,0.5-1.4
			c0.3-0.3,0.8-0.5,1.4-0.5c0.6,0,1,0.2,1.4,0.6c0.3,0.3,0.5,0.8,0.5,1.4C-2786.4,146.6-2786.5,147-2786.8,147.4z M-2789.1,146.7
			c0.2,0.2,0.5,0.3,0.8,0.3s0.5-0.2,0.8-0.3c0.2-0.2,0.3-0.5,0.3-0.8c0-0.3-0.2-0.6-0.3-0.8c-0.2-0.2-0.5-0.3-0.8-0.3
			s-0.5,0.2-0.8,0.3c-0.2,0.2-0.3,0.5-0.3,0.8C-2789.4,146.2-2789.3,146.6-2789.1,146.7z"/>
	</g>
	<g>
		<path class="st31" d="M-2717.3,136.6h-2.3v2.4h-0.8v-2.4h-2.3v-0.8h2.3v-2.4h0.8v2.4h2.3V136.6z"/>
		<path class="st31" d="M-2710.7,140.1h-5.6V139c1.6-1.3,2.7-2.1,3.4-2.7c0.6-0.6,1-1.1,1-1.8c0-0.3-0.2-0.6-0.5-1
			c-0.3-0.2-0.6-0.3-1-0.3c-0.8,0-1.6,0.3-2.1,1l-0.8-1c0.3-0.5,0.8-0.6,1.3-1c0.5-0.2,1.1-0.3,1.6-0.3c0.8,0,1.4,0.2,2.1,0.6
			c0.5,0.5,0.8,1,0.8,1.8c0,0.6-0.3,1.3-0.8,2.1c-0.5,0.8-1.4,1.4-2.6,2.3h3.5v1.4H-2710.7z"/>
		<path class="st31" d="M-2704.9,140c-0.5,0.2-1,0.3-1.4,0.3c-0.5,0-1-0.2-1.4-0.3c-0.5-0.2-0.8-0.5-1-1c-0.3-0.3-0.5-0.8-0.5-1.3
			c-0.2-0.5-0.2-1-0.2-1.4c0-0.5,0-1,0.2-1.4c0.2-0.5,0.3-1,0.5-1.3c0.3-0.3,0.6-0.6,1-1c0.5-0.2,1-0.3,1.4-0.3c0.5,0,1,0.2,1.4,0.3
			c0.5,0.2,0.8,0.5,1,1c0.3,0.3,0.5,0.8,0.5,1.3c0.2,0.5,0.2,1,0.2,1.4c0,0.5,0,1-0.2,1.4c-0.2,0.5-0.3,1-0.5,1.3
			C-2704.2,139.5-2704.6,139.8-2704.9,140z M-2707.6,138.4c0.3,0.5,0.6,0.8,1.3,0.8c0.6,0,1-0.3,1.3-0.8c0.3-0.5,0.5-1.3,0.5-2.1
			c0-0.5,0-1-0.2-1.4c-0.2-0.5-0.3-0.8-0.6-1c-0.3-0.3-0.6-0.5-1-0.5c-0.5,0-0.8,0.2-1,0.5c-0.3,0.3-0.5,0.6-0.6,1
			c-0.2,0.5-0.2,0.8-0.2,1.4C-2708.1,137.1-2708,137.7-2707.6,138.4z"/>
		<path class="st31" d="M-2700.5,136.1c-0.6,0-1-0.2-1.4-0.5c-0.3-0.3-0.5-0.8-0.5-1.4s0.2-1,0.5-1.4c0.3-0.3,0.8-0.5,1.4-0.5
			s1.1,0.2,1.4,0.5c0.3,0.3,0.5,0.8,0.5,1.4c0,0.5-0.2,1-0.5,1.4C-2699.4,135.9-2699.9,136.1-2700.5,136.1z M-2700.5,135.3
			c0.3,0,0.5-0.2,0.8-0.3c0.2-0.2,0.3-0.5,0.3-0.8c0-0.3-0.2-0.6-0.3-0.8c-0.2-0.2-0.5-0.3-0.8-0.3s-0.5,0.2-0.8,0.3
			c-0.2,0.2-0.3,0.5-0.3,0.8c0,0.3,0.2,0.6,0.3,0.8C-2701,135.3-2700.7,135.3-2700.5,135.3z M-2700.4,140.1h-0.8l5-7.9h0.8
			L-2700.4,140.1z M-2694.9,139.8c-0.3,0.3-0.8,0.5-1.4,0.5c-0.6,0-1-0.2-1.4-0.5c-0.3-0.3-0.5-0.8-0.5-1.4s0.2-1,0.5-1.4
			c0.3-0.3,0.8-0.5,1.4-0.5c0.6,0,1,0.2,1.4,0.6c0.3,0.3,0.5,0.8,0.5,1.4C-2694.3,139-2694.4,139.5-2694.9,139.8z M-2697,139.2
			c0.2,0.2,0.5,0.3,0.8,0.3c0.3,0,0.5-0.2,0.8-0.3c0.2-0.2,0.3-0.5,0.3-0.8c0-0.3-0.2-0.6-0.3-0.8c-0.2-0.2-0.5-0.3-0.8-0.3
			c-0.3,0-0.5,0.2-0.8,0.3c-0.2,0.2-0.3,0.5-0.3,0.8C-2697.3,138.7-2697.2,139-2697,139.2z"/>
	</g>
	<g>
		<path class="st31" d="M-2627.6,124.8h-2.3v2.4h-0.8v-2.4h-2.3V124h2.3v-2.4h0.8v2.4h2.3V124.8z"/>
		<path class="st31" d="M-2624.1,128.5c-0.6,0-1.3-0.2-1.8-0.3c-0.5-0.2-1-0.5-1.1-1l0.8-1c0.3,0.3,0.6,0.5,1,0.6
			c0.3,0.2,0.8,0.3,1.3,0.3c0.5,0,1-0.2,1.1-0.3c0.3-0.2,0.5-0.5,0.5-0.8c0-0.8-0.6-1.1-1.8-1.1c-0.5,0-0.8,0-1,0v-1.3
			c0.2,0,0.3,0,1,0c0.5,0,0.8-0.2,1.1-0.3c0.3-0.2,0.5-0.5,0.5-0.8s-0.2-0.6-0.5-0.8c-0.3-0.2-0.6-0.3-1.1-0.3
			c-0.8,0-1.4,0.3-2.1,0.8l-0.6-0.8c0.6-0.8,1.6-1.3,2.9-1.3c0.8,0,1.6,0.2,2.1,0.6c0.5,0.3,0.8,1,0.8,1.6c0,0.5-0.2,1-0.5,1.1
			c-0.3,0.3-0.8,0.5-1.1,0.6c0.5,0,0.8,0.2,1.3,0.6c0.3,0.3,0.6,0.8,0.6,1.3c0,0.6-0.3,1.3-0.8,1.6
			C-2622.5,128.4-2623.1,128.5-2624.1,128.5z"/>
		<path class="st31" d="M-2615.5,128.2c-0.5,0.2-1,0.3-1.4,0.3c-0.5,0-1-0.2-1.4-0.3c-0.5-0.2-0.8-0.5-1-1c-0.3-0.3-0.5-0.8-0.5-1.3
			c-0.2-0.5-0.2-1-0.2-1.4s0-1,0.2-1.4c0.2-0.5,0.3-1,0.5-1.3c0.3-0.3,0.6-0.6,1-1c0.5-0.2,1-0.3,1.4-0.3c0.5,0,1,0.2,1.4,0.3
			c0.5,0.2,0.8,0.5,1,1c0.3,0.3,0.5,0.8,0.5,1.3c0,0.5,0.2,1,0.2,1.4s0,1-0.2,1.4c-0.2,0.5-0.3,1-0.5,1.3
			C-2614.7,127.7-2615.1,128.1-2615.5,128.2z M-2618.3,126.6c0.3,0.5,0.6,0.8,1.3,0.8c0.6,0,1-0.3,1.3-0.8c0.3-0.5,0.5-1.3,0.5-2.1
			c0-0.5,0-1-0.2-1.4c-0.2-0.5-0.3-0.8-0.6-1c-0.3-0.3-0.6-0.5-1-0.5c-0.5,0-0.8,0.2-1,0.5c-0.3,0.3-0.5,0.6-0.6,1
			c-0.2,0.5-0.2,0.8-0.2,1.4C-2618.6,125.3-2618.4,126.1-2618.3,126.6z"/>
		<path class="st31" d="M-2611,124.3c-0.6,0-1-0.2-1.4-0.5c-0.3-0.3-0.5-0.8-0.5-1.4s0.2-1,0.5-1.4c0.3-0.3,0.8-0.5,1.4-0.5
			c0.6,0,1.1,0.2,1.4,0.5c0.3,0.3,0.5,0.8,0.5,1.4c0,0.5-0.2,1-0.5,1.4C-2609.9,124.2-2610.4,124.3-2611,124.3z M-2611,123.5
			c0.3,0,0.5-0.2,0.8-0.3c0.2-0.2,0.3-0.5,0.3-0.8s-0.2-0.6-0.3-0.8c-0.2-0.2-0.5-0.3-0.8-0.3c-0.3,0-0.5,0.2-0.8,0.3
			c-0.2,0.2-0.3,0.5-0.3,0.8s0.2,0.6,0.3,0.8C-2611.5,123.5-2611.4,123.5-2611,123.5z M-2611,128.5h-0.8l5-7.9h0.8L-2611,128.5z
			 M-2605.4,128.1c-0.3,0.3-0.8,0.5-1.4,0.5c-0.6,0-1-0.2-1.4-0.5c-0.3-0.3-0.5-0.8-0.5-1.4s0.2-1,0.5-1.4c0.3-0.3,0.8-0.5,1.4-0.5
			c0.6,0,1,0.2,1.4,0.6c0.3,0.3,0.5,0.8,0.5,1.4C-2604.8,127.2-2605.1,127.7-2605.4,128.1z M-2607.5,127.6c0.2,0.2,0.5,0.3,0.8,0.3
			s0.5-0.2,0.8-0.3c0.2-0.2,0.3-0.5,0.3-0.8s-0.2-0.6-0.3-0.8c-0.2-0.2-0.5-0.3-0.8-0.3s-0.5,0.2-0.8,0.3c-0.2,0.2-0.3,0.5-0.3,0.8
			C-2607.8,127.1-2607.7,127.2-2607.5,127.6z"/>
	</g>
	<g>
		<path class="st31" d="M-2910,209.7v-1c-1-0.2-1.8-0.5-2.4-1.1l0.8-1.1c0.5,0.5,1,0.8,1.6,0.8v-1.6c-0.3,0-0.5-0.2-0.6-0.2
			c-0.2,0-0.3-0.2-0.6-0.3c-0.2-0.2-0.3-0.2-0.5-0.3c-0.2-0.2-0.2-0.3-0.3-0.5c-0.2-0.2-0.2-0.5-0.2-0.6c0-0.5,0.2-1,0.6-1.3
			c0.3-0.3,1-0.6,1.6-0.6v-1h1v1c0.8,0.2,1.4,0.3,2.1,1l-0.8,1.1c-0.3-0.3-0.8-0.5-1.3-0.6v1.4c0.3,0,0.5,0.2,0.6,0.2
			c0.2,0,0.3,0.2,0.6,0.3c0.2,0.2,0.3,0.2,0.5,0.3c0.2,0.2,0.3,0.3,0.3,0.5c0.2,0.2,0.2,0.5,0.2,0.6c0,0.6-0.2,1.1-0.6,1.4
			c-0.3,0.3-1,0.6-1.6,0.6v1H-2910z M-2910.6,203.7c0,0.3,0.2,0.5,0.6,0.6v-1.3c-0.2,0-0.3,0.2-0.5,0.2
			C-2910.6,203.4-2910.6,203.6-2910.6,203.7z M-2908.2,206.8c0-0.3-0.3-0.5-0.8-0.6v1.3c0.2,0,0.5-0.2,0.5-0.3
			C-2908.4,207.1-2908.2,206.9-2908.2,206.8z"/>
		<path class="st31" d="M-2902.9,208.7h-1.4v-4.8l-1.1,1.1l-0.8-0.8l2.1-2.1h1.3C-2902.9,202.1-2902.9,208.7-2902.9,208.7z"/>
		<path class="st31" d="M-2900.2,208.1c0,0.3-0.2,0.6-0.3,1c-0.2,0.3-0.5,0.6-0.8,0.8l-0.5-0.5c0.2-0.2,0.3-0.2,0.5-0.5
			c0.2-0.2,0.3-0.3,0.3-0.5h-0.2c-0.2,0-0.3,0-0.5-0.2c-0.2-0.2-0.2-0.3-0.2-0.5c0-0.2,0-0.5,0.2-0.6c0.2-0.2,0.3-0.2,0.5-0.2
			c0.3,0,0.5,0.2,0.6,0.3C-2900.2,207.6-2900.2,207.7-2900.2,208.1z"/>
		<path class="st31" d="M-2894.2,208.7h-5v-1.1c1.4-1.1,2.4-1.8,2.9-2.3c0.5-0.5,0.6-0.8,0.6-1.3c0-0.3-0.2-0.5-0.3-0.6
			c-0.2-0.2-0.5-0.2-0.8-0.2c-0.6,0-1.3,0.3-1.8,0.8l-0.8-1c0.3-0.3,0.6-0.6,1.1-0.8c0.5-0.2,1-0.3,1.4-0.3c0.8,0,1.3,0.2,1.8,0.6
			c0.5,0.3,0.8,1,0.8,1.6c0,0.5-0.2,1.1-0.6,1.6c-0.5,0.5-1.1,1.1-2.1,1.8h2.7C-2894.2,207.6-2894.2,208.7-2894.2,208.7z"/>
		<path class="st31" d="M-2892.8,208.9h-1l2.4-7.1h1L-2892.8,208.9z"/>
		<path class="st31" d="M-2884.9,208.7h-5v-1.1c1.4-1.1,2.4-1.8,2.9-2.3c0.5-0.5,0.6-0.8,0.6-1.3c0-0.3-0.2-0.5-0.3-0.6
			c-0.2-0.2-0.5-0.2-0.8-0.2c-0.6,0-1.3,0.3-1.8,0.8l-0.8-1c0.3-0.3,0.6-0.6,1.1-0.8c0.5-0.2,1-0.3,1.4-0.3c0.8,0,1.3,0.2,1.8,0.6
			c0.5,0.3,0.8,1,0.8,1.6c0,0.5-0.2,1.1-0.6,1.6c-0.5,0.5-1.1,1.1-2.1,1.8h2.7C-2884.9,207.6-2884.9,208.7-2884.9,208.7z"/>
		<path class="st31" d="M-2879.4,208.7h-1.4v-1.4h-3.2v-1.1l2.7-4.2h1.9v4h0.8v1.3h-0.8V208.7z M-2880.9,206v-2.7l-1.8,2.7H-2880.9z
			"/>
		<path class="st31" d="M-2873.1,208.7h-1.3v-2.9c0-0.3,0-0.5-0.2-0.6c-0.2-0.2-0.3-0.2-0.6-0.2c-0.5,0-0.8,0.2-1.1,0.6v3.2h-1.3
			v-6.8h1.3v2.4c0.2-0.2,0.5-0.3,0.6-0.5c0.3-0.2,0.6-0.2,1-0.2c0.5,0,1,0.2,1.1,0.5c0.3,0.3,0.3,0.6,0.3,1.1v3.2H-2873.1z"/>
	</g>
	<g>
		<path class="st31" d="M-2816.6,209.7v-1c-1-0.2-1.8-0.5-2.4-1.1l0.8-1.1c0.5,0.5,1,0.8,1.6,0.8v-1.6c-0.3,0-0.5-0.2-0.6-0.2
			c-0.2,0-0.3-0.2-0.6-0.3c-0.2-0.2-0.3-0.2-0.5-0.3c-0.2-0.2-0.2-0.3-0.3-0.5c-0.2-0.2-0.2-0.5-0.2-0.6c0-0.5,0.2-1,0.6-1.3
			c0.3-0.3,1-0.6,1.6-0.6v-1h1v1c0.8,0.2,1.4,0.3,2.1,1l-0.8,1.1c-0.3-0.3-0.8-0.5-1.3-0.6v1.4c0.3,0,0.5,0.2,0.6,0.2
			c0.2,0,0.3,0.2,0.6,0.3c0.2,0.2,0.3,0.2,0.5,0.3c0.2,0.2,0.3,0.3,0.3,0.5c0.2,0.2,0.2,0.5,0.2,0.6c0,0.6-0.2,1.1-0.6,1.4
			c-0.3,0.3-1,0.6-1.6,0.6v1H-2816.6z M-2817.4,203.7c0,0.3,0.2,0.5,0.6,0.6v-1.3c-0.2,0-0.3,0.2-0.5,0.2
			C-2817.3,203.4-2817.4,203.6-2817.4,203.7z M-2815,206.8c0-0.3-0.3-0.5-0.8-0.6v1.3c0.2,0,0.5-0.2,0.5-0.3
			C-2815,207.1-2815,206.9-2815,206.8z"/>
		<path class="st31" d="M-2809.7,208.7h-1.4v-4.8l-1.1,1.1l-0.8-0.8l2.1-2.1h1.3C-2809.7,202.1-2809.7,208.7-2809.7,208.7z"/>
		<path class="st31" d="M-2806.8,208.1c0,0.3-0.2,0.6-0.3,1c-0.2,0.3-0.5,0.6-0.8,0.8l-0.5-0.5c0.2-0.2,0.3-0.2,0.5-0.5
			c0.2-0.2,0.3-0.3,0.3-0.5h-0.2c-0.2,0-0.3,0-0.5-0.2c-0.2-0.2-0.2-0.3-0.2-0.5c0-0.2,0-0.5,0.2-0.6c0.2-0.2,0.3-0.2,0.5-0.2
			c0.3,0,0.5,0.2,0.6,0.3C-2807,207.6-2806.8,207.7-2806.8,208.1z"/>
		<path class="st31" d="M-2800.8,208.7h-5v-1.1c1.4-1.1,2.4-1.8,2.9-2.3c0.5-0.5,0.6-0.8,0.6-1.3c0-0.3-0.2-0.5-0.3-0.6
			c-0.2-0.2-0.5-0.2-0.8-0.2c-0.6,0-1.3,0.3-1.8,0.8l-1-1.1c0.3-0.3,0.6-0.6,1.1-0.8s1-0.3,1.4-0.3c0.8,0,1.3,0.2,1.8,0.6
			c0.5,0.3,0.8,1,0.8,1.6c0,0.5-0.2,1.1-0.6,1.6c-0.5,0.5-1.1,1.1-2.1,1.8h2.7v1.3H-2800.8z"/>
		<path class="st31" d="M-2799.4,208.9h-1l2.4-7.1h1L-2799.4,208.9z"/>
		<path class="st31" d="M-2791.5,208.7h-5v-1.1c1.4-1.1,2.4-1.8,2.9-2.3c0.5-0.5,0.6-0.8,0.6-1.3c0-0.3-0.2-0.5-0.3-0.6
			c-0.2-0.2-0.5-0.2-0.8-0.2c-0.6,0-1.3,0.3-1.8,0.8l-0.8-1c0.3-0.3,0.6-0.6,1.1-0.8s1-0.3,1.4-0.3c0.8,0,1.3,0.2,1.8,0.6
			c0.5,0.3,0.8,1,0.8,1.6c0,0.5-0.2,1.1-0.6,1.6s-1.1,1.1-2.1,1.8h2.7V208.7z"/>
		<path class="st31" d="M-2786,208.7h-1.4v-1.4h-3.2v-1.1l2.7-4.2h1.9v4h0.8v1.3h-0.8C-2786,207.3-2786,208.7-2786,208.7z
			 M-2787.5,206v-2.7l-1.8,2.7H-2787.5z"/>
		<path class="st31" d="M-2779.8,208.7h-1.3v-2.9c0-0.3,0-0.5-0.2-0.6c-0.2-0.2-0.3-0.2-0.6-0.2c-0.5,0-0.8,0.2-1.1,0.6v3.2h-1.3
			v-6.8h1.3v2.4c0.2-0.2,0.5-0.3,0.6-0.5c0.3-0.2,0.6-0.2,1-0.2c0.5,0,1,0.2,1.1,0.5c0.3,0.3,0.3,0.6,0.3,1.1v3.2H-2779.8z"/>
	</g>
	<g>
		<path class="st31" d="M-2725.8,209.7v-1c-1-0.2-1.8-0.5-2.4-1.1l0.8-1.1c0.5,0.5,1,0.8,1.6,0.8v-1.6c-0.3,0-0.5-0.2-0.6-0.2
			c-0.2,0-0.3-0.2-0.6-0.3c-0.2-0.2-0.3-0.2-0.5-0.3c-0.2-0.2-0.2-0.3-0.3-0.5c-0.2-0.2-0.2-0.5-0.2-0.6c0-0.5,0.2-1,0.6-1.3
			c0.3-0.3,1-0.6,1.6-0.6v-1h1v1c0.8,0.2,1.4,0.3,2.1,1l-0.8,1.1c-0.3-0.3-0.8-0.5-1.3-0.6v1.4c0.3,0,0.5,0.2,0.6,0.2
			c0.2,0,0.3,0.2,0.6,0.3c0.2,0.2,0.3,0.2,0.5,0.3c0.2,0.2,0.3,0.3,0.3,0.5c0.2,0.2,0.2,0.5,0.2,0.6c0,0.6-0.2,1.1-0.6,1.4
			c-0.3,0.3-1,0.6-1.6,0.6v1H-2725.8z M-2726.6,203.7c0,0.3,0.2,0.5,0.6,0.6v-1.3c-0.2,0-0.3,0.2-0.5,0.2
			C-2726.5,203.4-2726.6,203.6-2726.6,203.7z M-2724.2,206.8c0-0.3-0.3-0.5-0.8-0.6v1.3c0.2,0,0.5-0.2,0.5-0.3
			C-2724.2,207.1-2724.2,206.9-2724.2,206.8z"/>
		<path class="st31" d="M-2718.9,208.7h-1.4v-4.8l-1.1,1.1l-0.8-0.8l2.1-2.1h1.3V208.7L-2718.9,208.7z"/>
		<path class="st31" d="M-2716,208.1c0,0.3-0.2,0.6-0.3,1c-0.2,0.3-0.5,0.6-0.8,0.8l-0.5-0.5c0.2-0.2,0.3-0.2,0.5-0.5
			c0.2-0.2,0.3-0.3,0.3-0.5h-0.2c-0.2,0-0.3,0-0.5-0.2c-0.2-0.2-0.2-0.3-0.2-0.5c0-0.2,0-0.5,0.2-0.6c0.2-0.2,0.3-0.2,0.5-0.2
			c0.3,0,0.5,0.2,0.6,0.3C-2716.2,207.6-2716,207.7-2716,208.1z"/>
		<path class="st31" d="M-2710,208.7h-5v-1.1c1.4-1.1,2.4-1.8,2.9-2.3c0.5-0.5,0.6-0.8,0.6-1.3c0-0.3-0.2-0.5-0.3-0.6
			c-0.2-0.2-0.5-0.2-0.8-0.2c-0.6,0-1.3,0.3-1.8,0.8l-0.8-1c0.3-0.3,0.6-0.6,1.1-0.8s1-0.3,1.4-0.3c0.8,0,1.3,0.2,1.8,0.6
			c0.5,0.3,0.8,1,0.8,1.6c0,0.5-0.2,1.1-0.6,1.6s-1.1,1.1-2.1,1.8h2.7V208.7L-2710,208.7z"/>
		<path class="st31" d="M-2708.6,208.9h-1l2.4-7.1h1L-2708.6,208.9z"/>
		<path class="st31" d="M-2700.7,208.7h-5v-1.1c1.4-1.1,2.4-1.8,2.9-2.3c0.5-0.5,0.6-0.8,0.6-1.3c0-0.3-0.2-0.5-0.3-0.6
			c-0.2-0.2-0.5-0.2-0.8-0.2c-0.6,0-1.3,0.3-1.8,0.8l-0.8-1c0.3-0.3,0.6-0.6,1.1-0.8c0.5-0.2,1-0.3,1.4-0.3c0.8,0,1.3,0.2,1.8,0.6
			c0.5,0.3,0.8,1,0.8,1.6c0,0.5-0.2,1.1-0.6,1.6s-1.1,1.1-2.1,1.8h2.7L-2700.7,208.7L-2700.7,208.7z"/>
		<path class="st31" d="M-2695.2,208.7h-1.4v-1.4h-3.2v-1.1l2.7-4.2h1.9v4h0.8v1.3h-0.8V208.7z M-2696.7,206v-2.7l-1.8,2.7H-2696.7z
			"/>
		<path class="st31" d="M-2689,208.7h-1.3v-2.9c0-0.3,0-0.5-0.2-0.6c-0.2-0.2-0.3-0.2-0.6-0.2c-0.5,0-0.8,0.2-1.1,0.6v3.2h-1.3v-6.8
			h1.3v2.4c0.2-0.2,0.5-0.3,0.6-0.5c0.3-0.2,0.6-0.2,1-0.2c0.5,0,1,0.2,1.1,0.5c0.3,0.3,0.3,0.6,0.3,1.1v3.2H-2689z"/>
	</g>
	<g>
		<path class="st31" d="M-2635,209.7v-1c-1-0.2-1.8-0.5-2.4-1.1l0.8-1.1c0.5,0.5,1,0.8,1.6,0.8v-1.6c-0.3,0-0.5-0.2-0.6-0.2
			s-0.3-0.2-0.6-0.3c-0.2-0.2-0.3-0.2-0.5-0.3c-0.2-0.2-0.2-0.3-0.3-0.5c-0.2-0.2-0.2-0.5-0.2-0.6c0-0.5,0.2-1,0.6-1.3
			c0.3-0.3,1-0.6,1.6-0.6v-1h1v1c0.8,0.2,1.4,0.3,2.1,1l-0.8,1.1c-0.3-0.3-0.8-0.5-1.3-0.6v1.4c0.3,0,0.5,0.2,0.6,0.2
			c0.2,0,0.3,0.2,0.6,0.3c0.2,0.2,0.3,0.2,0.5,0.3s0.3,0.3,0.3,0.5c0.2,0.2,0.2,0.5,0.2,0.6c0,0.6-0.2,1.1-0.6,1.4
			c-0.3,0.3-1,0.6-1.6,0.6v1H-2635z M-2635.8,203.7c0,0.3,0.2,0.5,0.6,0.6v-1.3c-0.2,0-0.3,0.2-0.5,0.2
			C-2635.7,203.4-2635.8,203.6-2635.8,203.7z M-2633.4,206.8c0-0.3-0.3-0.5-0.8-0.6v1.3c0.2,0,0.5-0.2,0.5-0.3
			C-2633.4,207.1-2633.4,206.9-2633.4,206.8z"/>
		<path class="st31" d="M-2628.1,208.7h-1.4v-4.8l-1.1,1.1l-0.8-0.8l2.1-2.1h1.3V208.7L-2628.1,208.7z"/>
		<path class="st31" d="M-2625.2,208.1c0,0.3-0.2,0.6-0.3,1c-0.2,0.3-0.5,0.6-0.8,0.8l-0.5-0.5c0.2-0.2,0.3-0.2,0.5-0.5
			c0.2-0.2,0.3-0.3,0.3-0.5h-0.2c-0.2,0-0.3,0-0.5-0.2c-0.2-0.2-0.2-0.3-0.2-0.5c0-0.2,0-0.5,0.2-0.6c0.2-0.2,0.3-0.2,0.5-0.2
			c0.3,0,0.5,0.2,0.6,0.3C-2625.4,207.6-2625.2,207.7-2625.2,208.1z"/>
		<path class="st31" d="M-2619.2,208.7h-5v-1.1c1.4-1.1,2.4-1.8,2.9-2.3c0.5-0.5,0.6-0.8,0.6-1.3c0-0.3-0.2-0.5-0.3-0.6
			c-0.2-0.2-0.5-0.2-0.8-0.2c-0.6,0-1.3,0.3-1.8,0.8l-0.8-1c0.3-0.3,0.6-0.6,1.1-0.8s1-0.3,1.4-0.3c0.8,0,1.3,0.2,1.8,0.6
			c0.5,0.3,0.8,1,0.8,1.6c0,0.5-0.2,1.1-0.6,1.6s-1.1,1.1-2.1,1.8h2.7V208.7L-2619.2,208.7z"/>
		<path class="st31" d="M-2617.8,208.9h-1l2.4-7.1h1L-2617.8,208.9z"/>
		<path class="st31" d="M-2609.9,208.7h-5v-1.1c1.4-1.1,2.4-1.8,2.9-2.3c0.5-0.5,0.6-0.8,0.6-1.3c0-0.3-0.2-0.5-0.3-0.6
			c-0.2-0.2-0.5-0.2-0.8-0.2c-0.6,0-1.3,0.3-1.8,0.8l-0.8-1c0.3-0.3,0.6-0.6,1.1-0.8c0.5-0.2,1-0.3,1.4-0.3c0.8,0,1.3,0.2,1.8,0.6
			c0.5,0.3,0.8,1,0.8,1.6c0,0.5-0.2,1.1-0.6,1.6c-0.5,0.5-1.1,1.1-2.1,1.8h2.7V208.7L-2609.9,208.7z"/>
		<path class="st31" d="M-2604.4,208.7h-1.4v-1.4h-3.2v-1.1l2.7-4.2h1.9v4h0.8v1.3h-0.8V208.7z M-2605.9,206v-2.7l-1.8,2.7H-2605.9z
			"/>
		<path class="st31" d="M-2598.2,208.7h-1.3v-2.9c0-0.3,0-0.5-0.2-0.6c-0.2-0.2-0.3-0.2-0.6-0.2c-0.5,0-0.8,0.2-1.1,0.6v3.2h-1.3
			v-6.8h1.3v2.4c0.2-0.2,0.5-0.3,0.6-0.5c0.3-0.2,0.6-0.2,1-0.2c0.5,0,1,0.2,1.1,0.5c0.3,0.3,0.3,0.6,0.3,1.1v3.2H-2598.2z"/>
	</g>
	<g>
		<path class="st31" d="M-2544.2,209.7v-1c-1-0.2-1.8-0.5-2.4-1.1l0.8-1.1c0.5,0.5,1,0.8,1.6,0.8v-1.6c-0.3,0-0.5-0.2-0.6-0.2
			c-0.2,0-0.3-0.2-0.6-0.3c-0.2-0.2-0.3-0.2-0.5-0.3c-0.2-0.2-0.2-0.3-0.3-0.5c-0.2-0.2-0.2-0.5-0.2-0.6c0-0.5,0.2-1,0.6-1.3
			c0.3-0.3,1-0.6,1.6-0.6v-1h1v1c0.8,0.2,1.4,0.3,2.1,1l-0.8,1.1c-0.3-0.3-0.8-0.5-1.3-0.6v1.4c0.3,0,0.5,0.2,0.6,0.2
			c0.2,0,0.3,0.2,0.6,0.3c0.2,0.2,0.3,0.2,0.5,0.3c0.2,0.2,0.3,0.3,0.3,0.5c0.2,0.2,0.2,0.5,0.2,0.6c0,0.6-0.2,1.1-0.6,1.4
			c-0.3,0.3-1,0.6-1.6,0.6v1H-2544.2z M-2545,203.7c0,0.3,0.2,0.5,0.6,0.6v-1.3c-0.2,0-0.3,0.2-0.5,0.2
			C-2544.9,203.4-2545,203.6-2545,203.7z M-2542.6,206.8c0-0.3-0.3-0.5-0.8-0.6v1.3c0.2,0,0.5-0.2,0.5-0.3
			C-2542.6,207.1-2542.6,206.9-2542.6,206.8z"/>
		<path class="st31" d="M-2537.3,208.7h-1.4v-4.8l-1.1,1.1l-0.8-0.8l2.1-2.1h1.3V208.7L-2537.3,208.7z"/>
		<path class="st31" d="M-2534.4,208.1c0,0.3-0.2,0.6-0.3,1c-0.2,0.3-0.5,0.6-0.8,0.8l-0.5-0.5c0.2-0.2,0.3-0.2,0.5-0.5
			c0.2-0.2,0.3-0.3,0.3-0.5h-0.2c-0.2,0-0.3,0-0.5-0.2c-0.2-0.2-0.2-0.3-0.2-0.5c0-0.2,0-0.5,0.2-0.6c0.2-0.2,0.3-0.2,0.5-0.2
			c0.3,0,0.5,0.2,0.6,0.3C-2534.6,207.6-2534.4,207.7-2534.4,208.1z"/>
		<path class="st31" d="M-2528.4,208.7h-5v-1.1c1.4-1.1,2.4-1.8,2.9-2.3c0.5-0.5,0.6-0.8,0.6-1.3c0-0.3-0.2-0.5-0.3-0.6
			c-0.2-0.2-0.5-0.2-0.8-0.2c-0.6,0-1.3,0.3-1.8,0.8l-0.8-1c0.3-0.3,0.6-0.6,1.1-0.8c0.5-0.2,1-0.3,1.4-0.3c0.8,0,1.3,0.2,1.8,0.6
			c0.5,0.3,0.8,1,0.8,1.6c0,0.5-0.2,1.1-0.6,1.6c-0.5,0.5-1.1,1.1-2.1,1.8h2.7V208.7z"/>
		<path class="st31" d="M-2527,208.9h-1l2.4-7.1h1L-2527,208.9z"/>
		<path class="st31" d="M-2519.1,208.7h-5v-1.1c1.4-1.1,2.4-1.8,2.9-2.3c0.5-0.5,0.6-0.8,0.6-1.3c0-0.3-0.2-0.5-0.3-0.6
			c-0.2-0.2-0.5-0.2-0.8-0.2c-0.6,0-1.3,0.3-1.8,0.8l-0.8-1c0.3-0.3,0.6-0.6,1.1-0.8s1-0.3,1.4-0.3c0.8,0,1.3,0.2,1.8,0.6
			c0.5,0.3,0.8,1,0.8,1.6c0,0.5-0.2,1.1-0.6,1.6s-1.1,1.1-2.1,1.8h2.7V208.7z"/>
		<path class="st31" d="M-2513.6,208.7h-1.4v-1.4h-3.2v-1.1l2.7-4.2h1.9v4h0.8v1.3h-0.8V208.7L-2513.6,208.7z M-2515.1,206v-2.7
			l-1.8,2.7H-2515.1z"/>
		<path class="st31" d="M-2507.4,208.7h-1.3v-2.9c0-0.3,0-0.5-0.2-0.6c-0.2-0.2-0.3-0.2-0.6-0.2c-0.5,0-0.8,0.2-1.1,0.6v3.2h-1.3
			v-6.8h1.3v2.4c0.2-0.2,0.5-0.3,0.6-0.5c0.3-0.2,0.6-0.2,1-0.2c0.5,0,1,0.2,1.1,0.5c0.3,0.3,0.3,0.6,0.3,1.1v3.2H-2507.4z"/>
	</g>
	<g>
		<path class="st31" d="M-2535.7,110.2h-2.3v2.4h-0.8v-2.4h-2.3v-0.8h2.3V107h0.8v2.4h2.3V110.2z"/>
		<path class="st31" d="M-2529.9,113.7h-1.4V112h-3.7v-1.1l3.2-5h1.9v4.8h1.1v1.3h-1.1V113.7L-2529.9,113.7z M-2531.2,110.7V107
			l-2.4,3.7H-2531.2z"/>
		<path class="st31" d="M-2523.5,113.6c-0.5,0.2-1,0.3-1.4,0.3s-1-0.2-1.4-0.3c-0.5-0.2-0.8-0.5-1-1c-0.3-0.3-0.5-0.8-0.5-1.3
			c-0.2-0.5-0.2-1-0.2-1.4c0-0.5,0-1,0.2-1.4c0.2-0.5,0.3-1,0.5-1.3c0.3-0.3,0.6-0.6,1-1c0.5-0.2,1-0.3,1.4-0.3s1,0.2,1.4,0.3
			c0.5,0.2,0.8,0.5,1,1c0.3,0.3,0.5,0.8,0.5,1.3c0.2,0.5,0.2,1,0.2,1.4c0,0.5,0,1-0.2,1.4c-0.2,0.5-0.3,1-0.5,1.3
			C-2522.6,112.9-2523,113.2-2523.5,113.6z M-2526.2,111.8c0.3,0.5,0.6,0.8,1.3,0.8c0.6,0,1-0.3,1.3-0.8s0.5-1.3,0.5-2.1
			c0-0.5,0-1-0.2-1.4c-0.2-0.5-0.3-0.8-0.6-1c-0.3-0.3-0.6-0.5-1-0.5c-0.5,0-0.8,0.2-1,0.5c-0.3,0.3-0.5,0.6-0.6,1
			c-0.2,0.5-0.2,0.8-0.2,1.4C-2526.7,110.7-2526.5,111.3-2526.2,111.8z"/>
		<path class="st31" d="M-2518.9,109.7c-0.6,0-1-0.2-1.4-0.5c-0.3-0.3-0.5-0.8-0.5-1.4s0.2-1,0.5-1.4c0.3-0.3,0.8-0.5,1.4-0.5
			c0.6,0,1.1,0.2,1.4,0.5c0.3,0.3,0.5,0.8,0.5,1.4c0,0.5-0.2,1-0.5,1.4C-2517.8,109.7-2518.3,109.7-2518.9,109.7z M-2518.9,108.9
			c0.3,0,0.5-0.2,0.8-0.3c0.2-0.2,0.3-0.5,0.3-0.8s-0.2-0.6-0.3-0.8c-0.2-0.2-0.5-0.3-0.8-0.3c-0.3,0-0.5,0.2-0.8,0.3
			c-0.2,0.2-0.3,0.5-0.3,0.8s0.2,0.6,0.3,0.8C-2519.4,108.7-2519.3,108.9-2518.9,108.9z M-2518.9,113.7h-0.8l5-7.9h0.8
			L-2518.9,113.7z M-2513.3,113.2c-0.3,0.3-0.8,0.5-1.4,0.5c-0.6,0-1-0.2-1.4-0.5c-0.3-0.3-0.5-0.8-0.5-1.4s0.2-1,0.5-1.4
			c0.3-0.3,0.8-0.5,1.4-0.5c0.6,0,1,0.2,1.4,0.6c0.3,0.3,0.5,0.8,0.5,1.4C-2512.8,112.4-2513,112.9-2513.3,113.2z M-2515.4,112.8
			c0.2,0.2,0.5,0.3,0.8,0.3s0.5-0.2,0.8-0.3c0.2-0.2,0.3-0.5,0.3-0.8s-0.2-0.6-0.3-0.8c-0.2-0.2-0.5-0.3-0.8-0.3s-0.5,0.2-0.8,0.3
			c-0.2,0.2-0.3,0.5-0.3,0.8S-2515.7,112.6-2515.4,112.8z"/>
	</g>
	<text transform="matrix(1 0 0 1 -2910.625 271.2916)" style="font-family:'ProximaNova-Semibold'; font-size:13px;">2019</text>
	<text transform="matrix(1 0 0 1 -2814.4585 272.2916)" style="font-family:'ProximaNova-Semibold'; font-size:13px;">2019</text>
</g>
<g>
	<path d="M217.7,166.2l-0.9-1.4l7.9-1.5l-2.6-3.7l1.1-0.8l3.6,5.1l-0.9,0.6L217.7,166.2z"/>
	<path d="M221.2,171.3l-0.5-0.7l10.3-0.4l0.5,0.7L221.2,171.3z M225.1,176.1c-0.6-0.1-1-0.4-1.4-0.9c-0.4-0.5-0.5-1.1-0.4-1.6
		s0.4-1,0.9-1.4c0.5-0.4,1.1-0.5,1.6-0.4c0.6,0.1,1,0.4,1.4,0.9c0.4,0.5,0.5,1.1,0.4,1.6c-0.1,0.6-0.4,1-0.9,1.4
		S225.7,176.2,225.1,176.1z M224.3,173.8c-0.1,0.3,0,0.6,0.2,0.9c0.2,0.3,0.4,0.4,0.8,0.5s0.6,0,0.9-0.3c0.3-0.2,0.5-0.5,0.6-0.8
		c0.1-0.3,0-0.6-0.2-0.9c-0.2-0.3-0.4-0.4-0.8-0.5c-0.3,0-0.6,0.1-1,0.3C224.5,173.2,224.3,173.5,224.3,173.8z M224.9,168.7
		c-0.4-0.5-0.5-1.1-0.4-1.6s0.4-1,0.9-1.4c0.5-0.4,1.1-0.5,1.6-0.4c0.6,0.1,1,0.4,1.4,0.9c0.4,0.5,0.5,1.1,0.4,1.6s-0.4,1-0.9,1.4
		c-0.5,0.4-1,0.5-1.6,0.4C225.7,169.5,225.3,169.2,224.9,168.7z M225.6,168.2c0.2,0.3,0.4,0.4,0.8,0.5c0.3,0,0.6,0,0.9-0.3
		c0.3-0.2,0.5-0.5,0.6-0.8c0.1-0.3,0-0.6-0.2-0.9c-0.2-0.3-0.4-0.4-0.8-0.5c-0.3,0-0.6,0.1-1,0.3c-0.3,0.2-0.5,0.5-0.6,0.8
		C225.4,167.6,225.4,167.9,225.6,168.2z"/>
</g>
<g>
	<path d="M284.4,97.7l0-1.5l6.7,0l-1.5-1.4l0.9-0.9l2.5,2.5l0,1.3L284.4,97.7z"/>
	<path d="M284.3,102.2c0-0.7,0.1-1.4,0.4-2c0.3-0.6,0.6-1,1-1.3l1,0.8c-0.3,0.3-0.6,0.6-0.8,1.1c-0.2,0.4-0.3,0.9-0.3,1.3
		c0,0.6,0.1,1,0.4,1.3c0.2,0.3,0.6,0.5,1,0.5c0.8,0,1.2-0.6,1.2-1.9c0-0.6,0-0.9,0-1l1.4,0c0,0.1,0,0.4,0,1c0,0.5,0.1,1,0.3,1.3
		c0.2,0.3,0.5,0.5,0.9,0.5c0.4,0,0.7-0.2,0.9-0.5c0.2-0.3,0.3-0.8,0.3-1.3c0-0.8-0.3-1.6-1-2.2l0.9-0.8c0.9,0.8,1.4,1.8,1.4,3.2
		c0,0.9-0.2,1.7-0.6,2.3c-0.4,0.6-1,0.9-1.7,0.9c-0.5,0-1-0.2-1.3-0.6c-0.4-0.4-0.6-0.8-0.7-1.3c0,0.5-0.2,1-0.6,1.4
		c-0.4,0.4-0.9,0.6-1.5,0.6c-0.7,0-1.4-0.3-1.8-0.9C284.5,104,284.3,103.2,284.3,102.2z"/>
	<path d="M285,114.8c-0.4-0.4-0.6-0.9-0.6-1.5s0.2-1.1,0.6-1.6c0.4-0.4,0.9-0.6,1.5-0.6c0.6,0,1.1,0.2,1.6,0.6
		c0.4,0.4,0.6,0.9,0.6,1.5s-0.2,1.2-0.6,1.6c-0.4,0.4-0.9,0.6-1.5,0.6S285.4,115.2,285,114.8z M284.5,108.6l0-0.9l8.7,5.5l0,0.9
		L284.5,108.6z M285.6,112.4c-0.2,0.2-0.4,0.5-0.4,0.8s0.1,0.6,0.4,0.8c0.2,0.2,0.5,0.3,0.9,0.3c0.4,0,0.7-0.1,0.9-0.3
		c0.2-0.2,0.4-0.5,0.4-0.8s-0.1-0.6-0.4-0.8s-0.6-0.3-0.9-0.3C286.1,112.1,285.8,112.2,285.6,112.4z M289,108.5
		c0-0.6,0.2-1.2,0.6-1.6c0.4-0.4,0.9-0.6,1.5-0.6c0.6,0,1.1,0.2,1.6,0.6c0.4,0.4,0.6,0.9,0.6,1.5c0,0.6-0.2,1.2-0.6,1.6
		s-0.9,0.6-1.5,0.6c-0.6,0-1.1-0.2-1.5-0.6C289.2,109.7,289,109.2,289,108.5z M289.8,108.5c0,0.3,0.1,0.6,0.4,0.8
		c0.2,0.2,0.5,0.3,0.9,0.3c0.4,0,0.7-0.1,0.9-0.3c0.2-0.2,0.4-0.5,0.4-0.8s-0.1-0.6-0.4-0.8c-0.2-0.2-0.6-0.3-0.9-0.3
		c-0.4,0-0.7,0.1-0.9,0.3C290,107.9,289.8,108.2,289.8,108.5z"/>
</g>
</svg>
