<?xml version="1.0" encoding="utf-8"?>
<!-- Generator: Adobe Illustrator 22.0.1, SVG Export Plug-In . SVG Version: 6.00 Build 0)  -->
<svg version="1.1" id="Слой_1" xmlns="http://www.w3.org/2000/svg" xmlns:xlink="http://www.w3.org/1999/xlink" x="0px" y="0px"
	 viewBox="0 0 560 398" style="enable-background:new 0 0 560 398;" xml:space="preserve">
<style type="text/css">
	.st0{fill:none;}
	.st1{fill:#A7A2EA;}
	.st2{fill:#CA3E16;}
	.st3{fill:#2316CA;}
	.st4{fill:#7487FD;}
	.st5{fill:#FD9C35;}
	.st6{fill:#1D223F;}
	.st7{fill:none;stroke:#5793F3;stroke-miterlimit:10;}
	.st8{fill:#5793F3;}
	.st9{fill:none;stroke:#DC3E6F;stroke-miterlimit:10;}
	.st10{fill:#DC3E6F;}
	.st11{fill:none;stroke:#DE4444;stroke-miterlimit:10;}
	.st12{fill:#DE4444;}
	.st13{fill:none;stroke:#FD9C35;stroke-miterlimit:10;}
	.st14{fill:none;stroke:#544BFC;stroke-miterlimit:10;}
	.st15{fill:#544BFC;}
	.st16{fill:#744100;}
	.st17{fill:#7B73DF;}
	.st18{fill:none;stroke:#2A2E3D;stroke-miterlimit:10;}
	.st19{fill:none;stroke:url(#SVGID_1_);stroke-width:19;stroke-miterlimit:10;}
	.st20{fill:none;stroke:url(#SVGID_2_);stroke-width:19;stroke-miterlimit:10;}
	.st21{fill:none;stroke:url(#SVGID_3_);stroke-width:19;stroke-miterlimit:10;}
	.st22{fill:none;stroke:url(#SVGID_4_);stroke-width:19;stroke-miterlimit:10;}
	.st23{fill:none;stroke:url(#SVGID_5_);stroke-width:19;stroke-miterlimit:10;}
	.st24{fill:none;stroke:url(#SVGID_6_);stroke-width:19;stroke-miterlimit:10;}
	.st25{fill:none;stroke:url(#SVGID_7_);stroke-width:19;stroke-miterlimit:10;}
	.st26{fill:none;stroke:#000000;stroke-width:2;stroke-miterlimit:10;}
	.st27{fill:none;stroke:#192F38;stroke-width:2;stroke-miterlimit:10;}
	.st28{fill:none;stroke:#000000;stroke-miterlimit:10;}
	.st29{fill:#2A2E3D;}
	.st30{enable-background:new    ;}
	.st31{fill:#FFFFFF;}
	.st32{stroke:#000000;stroke-miterlimit:10;}
	.st33{fill:#404040;stroke:#000000;stroke-miterlimit:10;}
	.st34{fill:#808080;stroke:#404040;stroke-miterlimit:10;}
	.st35{fill:#BFBFBF;stroke:#000000;stroke-miterlimit:10;}
	.st36{fill:#E5E5E5;stroke:#000000;stroke-miterlimit:10;}
	.st37{fill:#F2F2F2;stroke:#000000;stroke-miterlimit:10;}
	.st38{fill:#FFFFFF;stroke:#000000;stroke-miterlimit:10;}
	.st39{fill:none;stroke:url(#SVGID_8_);stroke-width:19;stroke-miterlimit:10;}
	.st40{fill:none;stroke:url(#SVGID_9_);stroke-width:19;stroke-miterlimit:10;}
	.st41{opacity:0.5;fill:none;stroke:#20A6EC;stroke-width:19;stroke-miterlimit:10;enable-background:new    ;}
	.st42{fill:none;stroke:url(#SVGID_10_);stroke-width:19;stroke-miterlimit:10;}
	.st43{fill:none;stroke:url(#SVGID_11_);stroke-width:19;stroke-miterlimit:10;}
	.st44{fill:none;stroke:url(#SVGID_12_);stroke-width:19;stroke-miterlimit:10;}
	.st45{fill:none;stroke:#000000;stroke-width:5;stroke-miterlimit:10;}
	.st46{fill:none;stroke:#000000;stroke-width:19;stroke-miterlimit:10;}
	.st47{opacity:0.5;fill:none;stroke:#000000;stroke-width:5;stroke-miterlimit:10;enable-background:new    ;}
	.st48{fill:none;stroke:url(#SVGID_13_);stroke-width:19;stroke-miterlimit:10;}
	.st49{fill:none;stroke:url(#SVGID_14_);stroke-width:19;stroke-miterlimit:10;}
	.st50{fill:none;stroke:url(#SVGID_15_);stroke-width:19;stroke-miterlimit:10;}
	.st51{fill:none;stroke:url(#SVGID_16_);stroke-width:19;stroke-miterlimit:10;}
	.st52{fill:none;stroke:url(#SVGID_17_);stroke-width:19;stroke-miterlimit:10;}
	.st53{fill:none;stroke:url(#SVGID_18_);stroke-width:19;stroke-miterlimit:10;}
	.st54{fill:none;stroke:url(#SVGID_19_);stroke-width:19;stroke-miterlimit:10;}
	.st55{opacity:0.1;fill:none;stroke:#000000;stroke-miterlimit:10;enable-background:new    ;}
	.st56{fill:#F9AB60;}
	.st57{fill:#F7B839;}
	.st58{fill:#DC4076;}
	.st59{fill:#F89638;}
	.st60{fill:#F24A5D;}
</style>
<g id="Слой_1_1_">
	<rect x="-1119.1" y="-2102.3" class="st0" width="47.1" height="10.3"/>
	<text transform="matrix(1 0 0 1 -1119.1177 -2093.5518)" style="font-family:'ChartwellBars'; font-size:12px;">15+5+3+7+70</text>
	<g>
		<g>
			<path class="st1" d="M-810-2128.5c0,0.2,0,0.3,0,0.5c0,69.1,32,130.7,82,170.8l136.5-171.3H-810z"/>
		</g>
		<g>
			<path class="st2" d="M-779.9-2238.9c-19.1,32.4-30,70.1-30.1,110.4h218.5L-779.9-2238.9z"/>
		</g>
		<g>
			<path class="st3" d="M-729-2298.1c-20.3,16.5-37.6,36.5-50.9,59.2l188.4,110.4L-729-2298.1z"/>
		</g>
		<path class="st0" d="M-729-2298.1c37.5-30.5,85.4-48.8,137.5-48.9"/>
		<g>
			<path class="st4" d="M-591.5-2128.5V-2347c-52.1,0.1-99.9,18.4-137.5,48.9L-591.5-2128.5z"/>
		</g>
		<path class="st5" d="M-753.2-1933c42.8,34.4,97.2,55,156.4,55c138.1,0,250-111.9,250-250s-111.9-250-250-250c-0.2,0-0.4,0-0.6,0
			v249.4L-753.2-1933z"/>
	</g>
	<circle class="st6" cx="-591" cy="-2129" r="124"/>
	<polyline class="st7" points="-347.3,-2129.1 -309.9,-2166.5 -51,-2166.5 	"/>
	<circle class="st8" cx="-50.5" cy="-2166.5" r="3.5"/>
	<text transform="matrix(1 0 0 1 -134.5 -2147.75)" class="st8" style="font-family:'ProximaNova-Regular'; font-size:17px;">Crowdsale</text>
	<g>
		<text transform="matrix(1 0 0 1 -993.5 -1941.75)" class="st10" style="font-family:'ProximaNova-Regular'; font-size:17px;">Project Team</text>
	</g>
	<g>
		<text transform="matrix(1 0 0 1 -993.5 -1971.75)" class="st10" style="font-family:'ProximaNova-Semibold'; font-size:17px;">15%</text>
	</g>
	<g>
		<text transform="matrix(1 0 0 1 -88.25 -2172.75)" class="st8" style="font-family:'ProximaNova-Semibold'; font-size:17px;">70%</text>
	</g>
	<polyline class="st9" points="-753,-2005 -820,-1962 -999,-1962 	"/>
	<circle class="st10" cx="-999" cy="-1962.2" r="3.5"/>
	<polyline class="st11" points="-798,-2187 -824,-2213 -999,-2213 	"/>
	<circle class="st12" cx="-999.4" cy="-2213.4" r="3.5"/>
	<g>
		<text transform="matrix(1 0 0 1 -993.5 -2192.75)" class="st12" style="font-family:'ProximaNova-Regular'; font-size:17px;">First Bonus Tournament</text>
	</g>
	<g>
		<text transform="matrix(1 0 0 1 -993.5 -2222.75)" class="st12" style="font-family:'ProximaNova-Semibold'; font-size:17px;">5%</text>
	</g>
	<polyline class="st13" points="-749,-2256 -808,-2315 -999,-2315 	"/>
	<circle class="st5" cx="-999.4" cy="-2315.5" r="3.5"/>
	<g>
		<text transform="matrix(1 0 0 1 -993.5 -2290.75)" class="st5" style="font-family:'ProximaNova-Regular'; font-size:17px;">Bounty Program</text>
	</g>
	<g>
		<text transform="matrix(1 0 0 1 -993.5 -2320.75)" class="st5" style="font-family:'ProximaNova-Semibold'; font-size:17px;">3%</text>
	</g>
	<polyline class="st14" points="-673,-2307 -796,-2430 -999,-2430 	"/>
	<circle class="st15" cx="-998.4" cy="-2430.5" r="3.5"/>
	<g>
		<text transform="matrix(1 0 0 1 -991.5 -2406.75)" class="st15" style="font-family:'ProximaNova-Regular'; font-size:17px;">Reserved fund</text>
	</g>
	<g>
		<text transform="matrix(1 0 0 1 -991.5 -2436.75)" class="st15" style="font-family:'ProximaNova-Semibold'; font-size:17px;">7%</text>
	</g>
	<g>
		<path class="st16" d="M-823.6-1397.7c41.7-85.6,129.5-144.6,231.1-144.8"/>
		<path class="st2" d="M-823.6-1397.7l231.1,112.2v-257C-694.1-1542.3-781.9-1483.3-823.6-1397.7z"/>
		<path class="st17" d="M-348.2-1202.1c8.8-26,13.7-53.9,13.7-82.9c0-142.2-115.3-257.5-257.5-257.5c-0.2,0-0.3,0-0.5,0v257
			L-348.2-1202.1z"/>
		<path class="st16" d="M-348.2-1202.1c-17.8,52.4-52,97.1-96.5,128.2"/>
		<path class="st5" d="M-444.6-1073.8c44.5-31.1,78.7-75.9,96.5-128.2l-244.3-83.4L-444.6-1073.8z"/>
		<path class="st16" d="M-1004.5-993.5"/>
		<path class="st16" d="M-444.6-1073.8c-41.8,29.2-92.6,46.3-147.4,46.3c-142.2,0-257.5-115.3-257.5-257.5
			c0-40.4,9.3-78.6,25.9-112.7"/>
		<path class="st4" d="M-823.6-1397.7c-16.6,34-25.9,72.3-25.9,112.7c0,142.2,115.3,257.5,257.5,257.5c54.8,0,105.6-17.1,147.4-46.3
			l-147.9-211.7L-823.6-1397.7z"/>
	</g>
	<circle class="st6" cx="-593" cy="-1286" r="163"/>
	<polyline class="st7" points="-386,-1348 -320.5,-1413.5 48,-1413.5 	"/>
	<polyline class="st13" points="-392,-1170.5 -326,-1104.5 23,-1104.5 	"/>
	<polyline class="st14" points="-762.5,-1123.5 -812,-1074 -1074.5,-1074 	"/>
	<polyline class="st11" points="-746.5,-1438.5 -809,-1501 -1060.5,-1501 	"/>
</g>
<g id="Слой_2_1_">
	<polyline class="st18" points="519.5,265 519.4,296.7 410.5,297.5 411,243.4 401.5,243.4 	"/>
	<line class="st18" x1="480.5" y1="267" x2="480.5" y2="297"/>
	<g>
		
			<linearGradient id="SVGID_1_" gradientUnits="userSpaceOnUse" x1="341.0292" y1="-3544.231" x2="11.7267" y2="-3840.7361" gradientTransform="matrix(1 -8.804109e-03 -8.804109e-03 -1 66.7297 -3476.0422)">
			<stop  offset="0" style="stop-color:#F09B6D"/>
			<stop  offset="1" style="stop-color:#ED1E79"/>
		</linearGradient>
		<path class="st19" d="M521.9,268.7c0-2.3,0.1-4.7,0-7c-1.2-133.6-110.5-241-244.1-239.9C144.2,23,36.8,132.3,38,266
			c0,2.3,0.1,4.7,0.2,7"/>
		
			<linearGradient id="SVGID_2_" gradientUnits="userSpaceOnUse" x1="315.9099" y1="-3575.9321" x2="38.3583" y2="-3825.8406" gradientTransform="matrix(1 -8.804109e-03 -8.804109e-03 -1 66.7297 -3476.0422)">
			<stop  offset="0" style="stop-color:#F09B6D"/>
			<stop  offset="1" style="stop-color:#ED1E79"/>
		</linearGradient>
		<path class="st20" d="M78.2,272.6c-0.1-2.3-0.2-4.7-0.2-7C77,154,166.7,62.8,278.2,61.8C389.8,60.8,481,150.5,482,262
			c0,2.3,0,4.7-0.1,7"/>
		
			<linearGradient id="SVGID_3_" gradientUnits="userSpaceOnUse" x1="315.9293" y1="-3575.8965" x2="38.3494" y2="-3825.8306" gradientTransform="matrix(1 -8.804109e-03 -8.804109e-03 -1 66.7297 -3476.0422)">
			<stop  offset="0" style="stop-color:#F09B6D"/>
			<stop  offset="1" style="stop-color:#ED1E79"/>
		</linearGradient>
		<path class="st21" d="M481.9,269c0.1-2.3,0.1-4.7,0.1-7c-0.9-102.1-77.3-185.8-175.8-198.5c-9.2-1.2-18.5-1.8-28-1.7
			C166.6,62.8,77,154,78,265.6c0,2.3,0.1,4.7,0.2,7"/>
		
			<linearGradient id="SVGID_4_" gradientUnits="userSpaceOnUse" x1="175.3991" y1="-3566.9971" x2="-6.06" y2="-3730.3835" gradientTransform="matrix(1 -8.804109e-03 -8.804109e-03 -1 66.7297 -3476.0422)">
			<stop  offset="0" style="stop-color:#F09B6D"/>
			<stop  offset="1" style="stop-color:#ED1E79"/>
		</linearGradient>
		<path class="st22" d="M119.7,272.2c-0.1-2.3-0.2-4.7-0.2-7c-0.8-88.4,70.2-160.6,158.6-161.4"/>
		
			<linearGradient id="SVGID_5_" gradientUnits="userSpaceOnUse" x1="175.3991" y1="-3566.9971" x2="-6.06" y2="-3730.3835" gradientTransform="matrix(1 -8.804109e-03 -8.804109e-03 -1 66.7297 -3476.0422)">
			<stop  offset="0" style="stop-color:#F09B6D"/>
			<stop  offset="1" style="stop-color:#ED1E79"/>
		</linearGradient>
		<path class="st23" d="M278.1,103.8c-88.4,0.8-159.4,73-158.6,161.4c0,2.3,0.1,4.7,0.2,7"/>
		
			<linearGradient id="SVGID_6_" gradientUnits="userSpaceOnUse" x1="75.451" y1="-3739.3049" x2="61.8206" y2="-3751.5779" gradientTransform="matrix(1 -8.804109e-03 -8.804109e-03 -1 66.7297 -3476.0422)">
			<stop  offset="0" style="stop-color:#F09B6D"/>
			<stop  offset="1" style="stop-color:#ED1E79"/>
		</linearGradient>
		<path class="st24" d="M168.7,271.8c-0.1-2-0.2-4-0.2-6"/>
		
			<linearGradient id="SVGID_7_" gradientUnits="userSpaceOnUse" x1="131.2411" y1="-3662.3728" x2="48.561" y2="-3736.8181" gradientTransform="matrix(1 -8.804109e-03 -8.804109e-03 -1 66.7297 -3476.0422)">
			<stop  offset="0" style="stop-color:#F09B6D"/>
			<stop  offset="1" style="stop-color:#ED1E79"/>
		</linearGradient>
		<path class="st25" d="M217.2,173c-29.7,20.2-49,54.3-48.7,92.9c0,2,0.1,4,0.2,6"/>
		<path class="st26" d="M515,268.8"/>
		<line class="st27" x1="191" y1="272.1" x2="11.1" y2="273.7"/>
		<line class="st27" x1="544.5" y1="269.2" x2="427.3" y2="269.1"/>
		<path class="st28" d="M38.2,273"/>
		<path class="st28" d="M78.2,272.6"/>
		<path class="st28" d="M481.9,269"/>
		<path class="st28" d="M521.9,268.7"/>
		<path class="st28" d="M481.9,269"/>
		<path class="st28" d="M78.2,272.6"/>
		<path class="st28" d="M119.7,272.2"/>
		<path class="st28" d="M119.7,272.2"/>
		<path class="st28" d="M168.7,271.8"/>
		<path class="st28" d="M168.7,271.8"/>
	</g>
	<path class="st29" d="M397.6,254.1h-28.2c-2.7,0-4.9-2.2-4.9-4.9V237c0-2.7,2.2-4.9,4.9-4.9h28.2c2.7,0,4.9,2.2,4.9,4.9v12.2
		C402.5,251.9,400.3,254.1,397.6,254.1z"/>
	<g class="st30">
		<path class="st31" d="M377.2,248.4h-2v-1.9h-4.5v-1.6l3.7-5.8h2.7v5.7h1.2v1.8h-1.2L377.2,248.4z M375.2,244.7v-3.9l-2.5,3.9
			H375.2z"/>
		<path class="st31" d="M385.3,247.8c-0.6,0.5-1.3,0.7-2.2,0.7c-0.8,0-1.6-0.2-2.2-0.7s-1-1.1-1.3-1.8s-0.4-1.5-0.4-2.3
			s0.1-1.6,0.4-2.3s0.7-1.3,1.3-1.8c0.6-0.5,1.3-0.7,2.2-0.7c0.8,0,1.6,0.2,2.2,0.7s1,1.1,1.3,1.8s0.4,1.5,0.4,2.3s-0.1,1.6-0.4,2.3
			S385.9,247.3,385.3,247.8z M381.7,245.9c0.3,0.6,0.8,0.8,1.4,0.8s1.1-0.3,1.4-0.8c0.3-0.6,0.4-1.3,0.4-2.2s-0.1-1.7-0.4-2.2
			s-0.8-0.8-1.4-0.8s-1.1,0.3-1.4,0.8s-0.4,1.3-0.4,2.2C381.3,244.6,381.4,245.4,381.7,245.9z"/>
		<path class="st31" d="M390.2,243.5c-0.7,0-1.3-0.2-1.7-0.7c-0.4-0.4-0.7-1-0.7-1.6c0-0.7,0.2-1.2,0.7-1.7c0.4-0.4,1-0.7,1.7-0.7
			s1.3,0.2,1.7,0.7c0.4,0.4,0.7,1,0.7,1.7s-0.2,1.2-0.7,1.6S390.9,243.5,390.2,243.5z M390.2,242.4c0.3,0,0.6-0.1,0.8-0.3
			c0.2-0.2,0.3-0.5,0.3-0.9s-0.1-0.7-0.3-0.9c-0.2-0.2-0.5-0.3-0.8-0.3s-0.6,0.1-0.8,0.3c-0.2,0.2-0.3,0.5-0.3,0.9s0.1,0.6,0.3,0.9
			C389.6,242.3,389.9,242.4,390.2,242.4z M390.3,248.3h-1.1l6-9.3h1.1L390.3,248.3z M397,247.9c-0.4,0.4-1,0.7-1.7,0.7
			s-1.3-0.2-1.7-0.7c-0.4-0.4-0.7-1-0.7-1.7s0.2-1.2,0.7-1.7c0.4-0.4,1-0.7,1.7-0.7s1.3,0.2,1.7,0.7s0.7,1,0.7,1.7
			S397.5,247.4,397,247.9z M394.5,247.1c0.2,0.2,0.5,0.3,0.8,0.3s0.6-0.1,0.8-0.3s0.3-0.5,0.3-0.9s-0.1-0.7-0.3-0.9
			c-0.2-0.2-0.5-0.3-0.8-0.3s-0.6,0.1-0.8,0.3c-0.2,0.2-0.3,0.5-0.3,0.9S394.3,246.9,394.5,247.1z"/>
	</g>
</g>
<g id="Слой_2_2_">
	<g>
		<path class="st28" d="M-2240-2168c9.9,0,19.5,1.6,28.4,4.4"/>
		<path class="st32" d="M-2211.5-2163.5c-9-2.9-18.5-4.4-28.4-4.4v92.8L-2211.5-2163.5z"/>
		<path class="st28" d="M-2211.5-2163.5c10.5,3.4,20.2,8.6,28.7,15.2"/>
		<path class="st33" d="M-2182.9-2148.3c-8.5-6.6-18.2-11.8-28.7-15.2l-28.4,88.3L-2182.9-2148.3z"/>
		<path class="st28" d="M-2182.9-2148.3c11.7,9.2,21.2,21.1,27.4,34.8"/>
		<path class="st34" d="M-2182.9-2148.3l-57.1,73.1l84.6-38.3C-2161.7-2127.2-2171.1-2139.1-2182.9-2148.3z"/>
		<path class="st28" d="M-2155.4-2113.5c5.3,11.7,8.2,24.6,8.2,38.3c0,4.2-0.3,8.3-0.8,12.3"/>
		<path class="st35" d="M-2148-2062.8c0.5-4,0.8-8.1,0.8-12.3c0-13.7-3-26.6-8.2-38.3l-84.6,38.2L-2148-2062.8z"/>
		<path class="st28" d="M-2148-2062.8c-6,45.4-44.9,80.5-92,80.5c-10.5,0-20.6-1.7-30-4.9"/>
		<path class="st28" d="M-2143-1946"/>
		<path class="st36" d="M-2270-1987.3c9.4,3.2,19.5,4.9,30,4.9c47.1,0,86-35.1,92-80.5l-92-12.3L-2270-1987.3z"/>
		<path class="st28" d="M-2270-1987.3c-36.5-12.5-62.8-47.1-62.8-87.9c0-51.3,41.5-92.8,92.8-92.8"/>
		<path class="st28" d="M-2375-1933"/>
		<path class="st37" d="M-2240-2168c-51.3,0-92.8,41.5-92.8,92.8c0,40.8,26.3,75.4,62.8,87.9l30-87.9V-2168z"/>
	</g>
	<circle class="st38" cx="-2240" cy="-2075.2" r="77.3"/>
	<text transform="matrix(1 0 0 1 -2227 -2185)" style="font-family:'Roboto-Regular'; font-size:16px;">2% Bingo</text>
	<text transform="matrix(1 0 0 1 -2175 -2160)" style="font-family:'Roboto-Regular'; font-size:16px;">2,2% Logic</text>
	<text transform="matrix(1 0 0 1 -2149 -2123)" style="font-family:'Roboto-Regular'; font-size:16px;">2,75% Pocker</text>
	<text transform="matrix(1 0 0 1 -2130 -2080)" style="font-family:'Roboto-Regular'; font-size:16px;">3,85% Lotterey</text>
	<text transform="matrix(1 0 0 1 -2153 -1991)" style="font-family:'Roboto-Regular'; font-size:16px;">11,8% Casino</text>
	<text transform="matrix(1 0 0 1 -2443 -2077)" style="font-family:'Roboto-Regular'; font-size:16px;">21,4% Betting</text>
	<polyline class="st28" points="-1994.5,-1295 -1994.3,-1268.3 -2029.5,-1268.5 -2029.5,-1284.5 -2041.5,-1284.5 	"/>
	<g>
		
			<linearGradient id="SVGID_8_" gradientUnits="userSpaceOnUse" x1="-1850.9786" y1="-1185.4724" x2="-1901.8608" y2="-1547.5187" gradientTransform="matrix(0.782 0.6232 0.6232 -0.782 119.5016 -1219.2755)">
			<stop  offset="0" style="stop-color:#F09B6D"/>
			<stop  offset="1" style="stop-color:#ED1E79"/>
		</linearGradient>
		<path class="st39" d="M-1995.3-1277.1c-0.4-59-26.4-117.2-76.1-156.9c-87.2-69.5-214.3-55.2-283.9,32.1
			c-29.8,37.4-44.2,82.2-44,126.6"/>
		
			<linearGradient id="SVGID_9_" gradientUnits="userSpaceOnUse" x1="-1975.3265" y1="-1276.0403" x2="-2008.0537" y2="-1508.905" gradientTransform="matrix(0.782 0.6232 0.6232 -0.782 119.5016 -1219.2755)">
			<stop  offset="0" style="stop-color:#F09B6D"/>
			<stop  offset="1" style="stop-color:#ED1E79"/>
		</linearGradient>
		<path class="st40" d="M-2367.1-1275.4c-0.1-36.6,11.8-73.5,36.4-104.3c28.9-36.3,69.8-57.3,112.6-61.9"/>
		<path class="st41" d="M-2064.3-1276.8"/>
		
			<linearGradient id="SVGID_10_" gradientUnits="userSpaceOnUse" x1="-1956.8597" y1="-1343.683" x2="-1977.2831" y2="-1489.002" gradientTransform="matrix(0.782 0.6232 0.6232 -0.782 119.5016 -1219.2755)">
			<stop  offset="0" style="stop-color:#F09B6D"/>
			<stop  offset="1" style="stop-color:#ED1E79"/>
		</linearGradient>
		<path class="st42" d="M-2334.3-1275.6c0.1-29.3,9.7-58.9,29.4-83.6c10.5-13.2,22.9-23.8,36.6-31.9c2.9-1.7,5.9-3.3,8.9-4.8"/>
		
			<linearGradient id="SVGID_11_" gradientUnits="userSpaceOnUse" x1="-1937.2407" y1="-1402.2305" x2="-1946.7312" y2="-1469.7576" gradientTransform="matrix(0.782 0.6232 0.6232 -0.782 119.5016 -1219.2755)">
			<stop  offset="0" style="stop-color:#F09B6D"/>
			<stop  offset="1" style="stop-color:#ED1E79"/>
		</linearGradient>
		<path class="st43" d="M-2302.3-1275.7c0.1-22.3,7.5-44.7,22.5-63.5"/>
		
			<linearGradient id="SVGID_12_" gradientUnits="userSpaceOnUse" x1="-1908.2787" y1="-1410.5588" x2="-1913.723" y2="-1449.2979" gradientTransform="matrix(0.782 0.6232 0.6232 -0.782 119.5016 -1219.2755)">
			<stop  offset="0" style="stop-color:#F09B6D"/>
			<stop  offset="1" style="stop-color:#ED1E79"/>
		</linearGradient>
		<path class="st44" d="M-2259.2-1309.2c-5.9,10.4-8.9,21.9-9,33.4"/>
		<path class="st45" d="M-1995.3-1277.1"/>
		<path class="st45" d="M-2399.3-1275.3"/>
		<path class="st45" d="M-2367.1-1275.4"/>
		<path class="st45" d="M-1995.3-1277.1"/>
		<path class="st45" d="M-2334.3-1275.6"/>
		<path class="st46" d="M-2302.3-1275.7"/>
		<path class="st46" d="M-2268.3-1275.8"/>
		<path class="st47" d="M-2131.2-1278.1"/>
	</g>
	<line class="st27" x1="-2244.9" y1="-1275.6" x2="-2417.4" y2="-1275.6"/>
	
		<text transform="matrix(0.7771 0.6293 -0.6293 0.7771 -2412.5815 -1263.8064)" style="font-family:'ProximaNova-Semibold'; font-size:15.9976px;">Crowd Sale</text>
	
		<text transform="matrix(0.7771 0.6293 -0.6293 0.7771 -2376.3474 -1264.0596)" style="font-family:'ProximaNova-Regular'; font-size:11.9982px;">Project Team</text>
	
		<text transform="matrix(0.7771 0.6293 -0.6293 0.7771 -2342.2966 -1264.7941)" style="font-family:'ProximaNova-Regular'; font-size:11.9982px;">Reserve Fund</text>
	
		<text transform="matrix(0.7771 0.6293 -0.6293 0.7771 -2270.4578 -1264.5233)" style="font-family:'ProximaNova-Regular'; font-size:11.9982px;">Bounty Program</text>
	
		<text transform="matrix(1.0032 2.122670e-04 -2.129431e-04 1 -2212.5859 -1302.6534)" style="font-family:'ProximaNova-Bold'; font-size:28.7493px;">Tokens</text>
	
		<text transform="matrix(1.0032 2.122670e-04 -2.129431e-04 1 -2241.5847 -1274.8599)" style="font-family:'ProximaNova-Bold'; font-size:28.7493px;">Distribution</text>
	
		<text transform="matrix(0.7771 0.6293 -0.6293 0.7771 -2308.0984 -1264.123)" style="font-family:'ProximaNova-Regular'; font-size:11.9982px;">First Bonus Tournament</text>
	
		<text transform="matrix(0.1045 0.9945 -0.9945 0.1045 -2215.2988 -1451.6611)" style="font-family:'ProximaNova-Semibold'; font-size:12px;">15%</text>
	
		<text transform="matrix(0.4384 0.8988 -0.8988 0.4384 -2257.7046 -1403.9913)" style="font-family:'ProximaNova-Semibold'; font-size:12px;">7%</text>
	
		<text transform="matrix(0.7771 0.6293 -0.6293 0.7771 -2283.218 -1346.8801)" style="font-family:'ProximaNova-Semibold'; font-size:11.9982px;">5%</text>
	
		<text transform="matrix(0.866 0.5 -0.5 0.866 -2263.7346 -1315.7017)" style="font-family:'ProximaNova-Semibold'; font-size:12px;">3%</text>
	<path class="st32" d="M-2045.2-1273.3h-28.2c-2.7,0-4.9-2.2-4.9-4.9v-12.2c0-2.7,2.2-4.9,4.9-4.9h28.2c2.7,0,4.9,2.2,4.9,4.9v12.2
		C-2040.2-1275.5-2042.4-1273.3-2045.2-1273.3z"/>
	<text transform="matrix(1 0 0 1 -2071.7356 -1279.8074)" class="st31" style="font-family:'ProximaNova-Bold'; font-size:14px;">70%</text>
	<polyline class="st18" points="-1240.5,-247 -1240.6,-215.3 -1349.5,-214.5 -1349,-268.6 -1358.5,-268.6 	"/>
	<line class="st18" x1="-1279.5" y1="-245" x2="-1279.5" y2="-215"/>
	
		<text transform="matrix(1 1.776810e-03 -1.776810e-03 1 -1525.8782 -268.7085)" class="st29" style="font-family:'ProximaNova-Bold'; font-size:29px;">Raised</text>
	
		<text transform="matrix(1 1.776810e-03 -1.776810e-03 1 -1523.728 -240.6744)" class="st29" style="font-family:'ProximaNova-Bold'; font-size:29px;">Funds</text>
	<g>
		
			<linearGradient id="SVGID_13_" gradientUnits="userSpaceOnUse" x1="-1414.327" y1="-3016.7766" x2="-1743.6294" y2="-3313.2817" gradientTransform="matrix(1 -8.804109e-03 -8.804109e-03 -1 66.7297 -3476.0422)">
			<stop  offset="0" style="stop-color:#F09B6D"/>
			<stop  offset="1" style="stop-color:#ED1E79"/>
		</linearGradient>
		<path class="st48" d="M-1238.1-243.3c0-2.3,0.1-4.7,0-7c-1.2-133.6-110.5-241-244.1-239.9c-133.6,1.2-241,110.5-239.8,244.2
			c0,2.3,0.1,4.7,0.2,7"/>
		
			<linearGradient id="SVGID_14_" gradientUnits="userSpaceOnUse" x1="-1439.4464" y1="-3048.4778" x2="-1716.9979" y2="-3298.3862" gradientTransform="matrix(1 -8.804109e-03 -8.804109e-03 -1 66.7297 -3476.0422)">
			<stop  offset="0" style="stop-color:#F09B6D"/>
			<stop  offset="1" style="stop-color:#ED1E79"/>
		</linearGradient>
		<path class="st49" d="M-1681.8-239.4c-0.1-2.3-0.2-4.7-0.2-7c-1-111.6,88.7-202.8,200.2-203.8c111.6-1,202.8,88.7,203.8,200.2
			c0,2.3,0,4.7-0.1,7"/>
		
			<linearGradient id="SVGID_15_" gradientUnits="userSpaceOnUse" x1="-1439.427" y1="-3048.4421" x2="-1717.0068" y2="-3298.3762" gradientTransform="matrix(1 -8.804109e-03 -8.804109e-03 -1 66.7297 -3476.0422)">
			<stop  offset="0" style="stop-color:#F09B6D"/>
			<stop  offset="1" style="stop-color:#ED1E79"/>
		</linearGradient>
		<path class="st50" d="M-1278.1-243c0.1-2.3,0.1-4.7,0.1-7c-0.9-102.1-77.3-185.8-175.8-198.5c-9.2-1.2-18.5-1.8-28-1.7
			c-111.6,1-201.2,92.2-200.2,203.8c0,2.3,0.1,4.7,0.2,7"/>
		
			<linearGradient id="SVGID_16_" gradientUnits="userSpaceOnUse" x1="-1579.9572" y1="-3039.5427" x2="-1761.4163" y2="-3202.9292" gradientTransform="matrix(1 -8.804109e-03 -8.804109e-03 -1 66.7297 -3476.0422)">
			<stop  offset="0" style="stop-color:#F09B6D"/>
			<stop  offset="1" style="stop-color:#ED1E79"/>
		</linearGradient>
		<path class="st51" d="M-1640.3-239.8c-0.1-2.3-0.2-4.7-0.2-7c-0.8-88.4,70.2-160.6,158.6-161.4"/>
		
			<linearGradient id="SVGID_17_" gradientUnits="userSpaceOnUse" x1="-1579.9573" y1="-3039.5427" x2="-1761.4163" y2="-3202.9294" gradientTransform="matrix(1 -8.804109e-03 -8.804109e-03 -1 66.7297 -3476.0422)">
			<stop  offset="0" style="stop-color:#F09B6D"/>
			<stop  offset="1" style="stop-color:#ED1E79"/>
		</linearGradient>
		<path class="st52" d="M-1481.9-408.2c-88.4,0.8-159.4,73-158.6,161.4c0,2.3,0.1,4.7,0.2,7"/>
		
			<linearGradient id="SVGID_18_" gradientUnits="userSpaceOnUse" x1="-1679.9052" y1="-3211.8506" x2="-1693.5355" y2="-3224.1235" gradientTransform="matrix(1 -8.804109e-03 -8.804109e-03 -1 66.7297 -3476.0422)">
			<stop  offset="0" style="stop-color:#F09B6D"/>
			<stop  offset="1" style="stop-color:#ED1E79"/>
		</linearGradient>
		<path class="st53" d="M-1591.3-240.2c-0.1-2-0.2-4-0.2-6"/>
		
			<linearGradient id="SVGID_19_" gradientUnits="userSpaceOnUse" x1="-1624.1151" y1="-3134.9185" x2="-1706.7952" y2="-3209.3638" gradientTransform="matrix(1 -8.804109e-03 -8.804109e-03 -1 66.7297 -3476.0422)">
			<stop  offset="0" style="stop-color:#F09B6D"/>
			<stop  offset="1" style="stop-color:#ED1E79"/>
		</linearGradient>
		<path class="st54" d="M-1542.8-339c-29.7,20.2-49,54.3-48.7,92.9c0,2,0.1,4,0.2,6"/>
		<path class="st26" d="M-1245-243.2"/>
		<line class="st27" x1="-1569" y1="-239.9" x2="-1748.9" y2="-238.3"/>
		<path class="st28" d="M-1721.8-239"/>
		<path class="st28" d="M-1681.8-239.4"/>
		<path class="st28" d="M-1278.1-243"/>
		<path class="st28" d="M-1238.1-243.3"/>
		<path class="st28" d="M-1278.1-243"/>
		<path class="st28" d="M-1681.8-239.4"/>
		<path class="st28" d="M-1640.3-239.8"/>
		<path class="st28" d="M-1640.3-239.8"/>
		<path class="st28" d="M-1591.3-240.2"/>
		<path class="st28" d="M-1591.3-240.2"/>
	</g>
	
		<text transform="matrix(0.7133 0.7009 -0.7009 0.7133 -1731.7537 -216.0688)" class="st29" style="font-family:'ProximaNova-Semibold'; font-size:16px;">Marketing</text>
	
		<text transform="matrix(0.7133 0.7009 -0.7009 0.7133 -1686.6189 -222.1909)" class="st29" style="font-family:'ProximaNova-Semibold'; font-size:16px;">Game Development</text>
	
		<text transform="matrix(0.7133 0.7009 -0.7009 0.7133 -1633.7029 -220.6669)" class="st29" style="font-family:'ProximaNova-Regular'; font-size:12px;">Legal Expenses</text>
	<g>
		<line class="st55" x1="-2943" y1="246.7" x2="-2489" y2="246.7"/>
		<line class="st55" x1="-2943" y1="224.3" x2="-2489" y2="224.3"/>
		<line class="st55" x1="-2943" y1="201.6" x2="-2489" y2="201.6"/>
		<line class="st55" x1="-2943" y1="178.9" x2="-2489" y2="178.9"/>
		<line class="st55" x1="-2943" y1="156.2" x2="-2489" y2="156.2"/>
		<line class="st55" x1="-2943" y1="133.5" x2="-2489" y2="133.5"/>
		<line class="st55" x1="-2943" y1="110.8" x2="-2489" y2="110.8"/>
		<line class="st55" x1="-2943" y1="88.1" x2="-2489" y2="88.1"/>
		<line class="st55" x1="-2943" y1="65.4" x2="-2489" y2="65.4"/>
	</g>
	
		<text transform="matrix(0.7133 0.7009 -0.7009 0.7133 -1583.2429 -221.5566)" class="st29" style="font-family:'ProximaNova-Regular'; font-size:12px;">Other Expenses</text>
	<path class="st29" d="M-1362.4-257.9h-28.2c-2.7,0-4.9-2.2-4.9-4.9V-275c0-2.7,2.2-4.9,4.9-4.9h28.2c2.7,0,4.9,2.2,4.9,4.9v12.2
		C-1357.5-260.1-1359.7-257.9-1362.4-257.9z"/>
	
		<text transform="matrix(1 -4.000000e-04 4.000000e-04 1 -1389.588 -263.6473)" class="st31" style="font-family:'ProximaNova-Bold'; font-size:14px;">40%</text>
	<rect x="-2922.7" y="164.3" class="st56" width="60.5" height="83.2"/>
	<rect x="-2927.9" y="253.8" class="st57" width="75.7" height="1.6"/>
	<rect x="-2837.1" y="253.3" class="st58" width="348.1" height="1.6"/>
	<rect x="-2829.5" y="164.3" class="st59" width="60.5" height="83.2"/>
	<path class="st60" d="M-2769,163.5h-60.5v-37.8c10.1,0,20.1,0,30.3,0s20.1,0,30.3,0C-2769,138.2-2769,150.8-2769,163.5z"/>
	<rect x="-2738.7" y="164.3" class="st59" width="60.5" height="83.2"/>
	<rect x="-2738.7" y="110.5" class="st60" width="60.5" height="53"/>
	<rect x="-2647.9" y="164.3" class="st59" width="60.5" height="83.2"/>
	<rect x="-2647.9" y="87.8" class="st60" width="60.5" height="75.7"/>
	<rect x="-2557.1" y="164.3" class="st59" width="60.5" height="83.2"/>
	<rect x="-2557.1" y="57.5" class="st60" width="60.5" height="105.9"/>
	<rect x="-2829.5" y="163.5" class="st31" width="60.5" height="0.8"/>
	<rect x="-2738.7" y="163.5" class="st31" width="60.5" height="0.8"/>
	<rect x="-2647.9" y="163.5" class="st31" width="60.5" height="0.8"/>
	<rect x="-2557.1" y="163.5" class="st31" width="60.5" height="0.8"/>
	<g>
		<path class="st31" d="M-2806.8,144.2h-2.3v2.4h-0.8v-2.4h-2.3v-0.8h2.3V141h0.8v2.4h2.3V144.2z"/>
		<path class="st31" d="M-2802.9,147.7h-1.4v-6.1l-1.3,1.3l-0.8-0.8l2.3-2.3h1.3v7.9L-2802.9,147.7L-2802.9,147.7z"/>
		<path class="st31" d="M-2797,147.5c-0.5,0.2-1,0.3-1.4,0.3c-0.5,0-1-0.2-1.4-0.3c-0.5-0.2-0.8-0.5-1-1c-0.3-0.3-0.5-0.8-0.5-1.3
			c-0.2-0.5-0.2-1-0.2-1.4c0-0.5,0-1,0.2-1.4c0.2-0.5,0.3-1,0.5-1.3c0.3-0.3,0.6-0.6,1-1c0.5-0.2,1-0.3,1.4-0.3c0.5,0,1,0.2,1.4,0.3
			c0.5,0.2,0.8,0.5,1,1c0.3,0.3,0.5,0.8,0.5,1.3c0.2,0.5,0.2,1,0.2,1.4c0,0.5,0,1-0.2,1.4c-0.2,0.5-0.3,1-0.5,1.3
			C-2796.3,147-2796.7,147.4-2797,147.5z M-2799.7,145.9c0.3,0.5,0.6,0.8,1.3,0.8c0.6,0,1-0.3,1.3-0.8s0.5-1.3,0.5-2.1
			c0-0.5,0-1-0.2-1.4c-0.2-0.5-0.3-0.8-0.6-1c-0.3-0.3-0.6-0.5-1-0.5c-0.5,0-0.8,0.2-1,0.5c-0.3,0.3-0.5,0.6-0.6,1
			c-0.2,0.5-0.2,0.8-0.2,1.4C-2800.2,144.6-2800,145.3-2799.7,145.9z"/>
		<path class="st31" d="M-2792.5,143.7c-0.6,0-1-0.2-1.4-0.5c-0.3-0.3-0.5-0.8-0.5-1.4s0.2-1,0.5-1.4c0.3-0.3,0.8-0.5,1.4-0.5
			s1.1,0.2,1.4,0.5c0.3,0.3,0.5,0.8,0.5,1.4c0,0.5-0.2,1-0.5,1.4C-2791.5,143.5-2792,143.7-2792.5,143.7z M-2792.5,142.9
			c0.3,0,0.5-0.2,0.8-0.3c0.2-0.2,0.3-0.5,0.3-0.8s-0.2-0.6-0.3-0.8c-0.2-0.2-0.5-0.3-0.8-0.3s-0.5,0.2-0.8,0.3
			c-0.2,0.2-0.3,0.5-0.3,0.8s0.2,0.6,0.3,0.8C-2793.1,142.9-2792.8,142.9-2792.5,142.9z M-2792.5,147.7h-0.8l5-7.9h0.8
			L-2792.5,147.7z M-2786.8,147.4c-0.3,0.3-0.8,0.5-1.4,0.5c-0.6,0-1-0.2-1.4-0.5c-0.3-0.3-0.5-0.8-0.5-1.4s0.2-1,0.5-1.4
			c0.3-0.3,0.8-0.5,1.4-0.5c0.6,0,1,0.2,1.4,0.6c0.3,0.3,0.5,0.8,0.5,1.4C-2786.4,146.6-2786.5,147-2786.8,147.4z M-2789.1,146.7
			c0.2,0.2,0.5,0.3,0.8,0.3s0.5-0.2,0.8-0.3c0.2-0.2,0.3-0.5,0.3-0.8s-0.2-0.6-0.3-0.8c-0.2-0.2-0.5-0.3-0.8-0.3s-0.5,0.2-0.8,0.3
			c-0.2,0.2-0.3,0.5-0.3,0.8C-2789.4,146.2-2789.3,146.6-2789.1,146.7z"/>
	</g>
	<g>
		<path class="st31" d="M-2717.3,136.6h-2.3v2.4h-0.8v-2.4h-2.3v-0.8h2.3v-2.4h0.8v2.4h2.3V136.6z"/>
		<path class="st31" d="M-2710.7,140.1h-5.6V139c1.6-1.3,2.7-2.1,3.4-2.7c0.6-0.6,1-1.1,1-1.8c0-0.3-0.2-0.6-0.5-1
			c-0.3-0.2-0.6-0.3-1-0.3c-0.8,0-1.6,0.3-2.1,1l-0.8-1c0.3-0.5,0.8-0.6,1.3-1c0.5-0.2,1.1-0.3,1.6-0.3c0.8,0,1.4,0.2,2.1,0.6
			c0.5,0.5,0.8,1,0.8,1.8c0,0.6-0.3,1.3-0.8,2.1s-1.4,1.4-2.6,2.3h3.5v1.4H-2710.7z"/>
		<path class="st31" d="M-2704.9,140c-0.5,0.2-1,0.3-1.4,0.3c-0.5,0-1-0.2-1.4-0.3c-0.5-0.2-0.8-0.5-1-1c-0.3-0.3-0.5-0.8-0.5-1.3
			c-0.2-0.5-0.2-1-0.2-1.4c0-0.5,0-1,0.2-1.4c0.2-0.5,0.3-1,0.5-1.3c0.3-0.3,0.6-0.6,1-1c0.5-0.2,1-0.3,1.4-0.3c0.5,0,1,0.2,1.4,0.3
			c0.5,0.2,0.8,0.5,1,1c0.3,0.3,0.5,0.8,0.5,1.3c0.2,0.5,0.2,1,0.2,1.4c0,0.5,0,1-0.2,1.4c-0.2,0.5-0.3,1-0.5,1.3
			C-2704.2,139.5-2704.6,139.8-2704.9,140z M-2707.6,138.4c0.3,0.5,0.6,0.8,1.3,0.8c0.6,0,1-0.3,1.3-0.8s0.5-1.3,0.5-2.1
			c0-0.5,0-1-0.2-1.4c-0.2-0.5-0.3-0.8-0.6-1c-0.3-0.3-0.6-0.5-1-0.5c-0.5,0-0.8,0.2-1,0.5c-0.3,0.3-0.5,0.6-0.6,1
			c-0.2,0.5-0.2,0.8-0.2,1.4C-2708.1,137.1-2708,137.7-2707.6,138.4z"/>
		<path class="st31" d="M-2700.5,136.1c-0.6,0-1-0.2-1.4-0.5c-0.3-0.3-0.5-0.8-0.5-1.4s0.2-1,0.5-1.4c0.3-0.3,0.8-0.5,1.4-0.5
			s1.1,0.2,1.4,0.5c0.3,0.3,0.5,0.8,0.5,1.4c0,0.5-0.2,1-0.5,1.4C-2699.4,135.9-2699.9,136.1-2700.5,136.1z M-2700.5,135.3
			c0.3,0,0.5-0.2,0.8-0.3c0.2-0.2,0.3-0.5,0.3-0.8s-0.2-0.6-0.3-0.8c-0.2-0.2-0.5-0.3-0.8-0.3s-0.5,0.2-0.8,0.3
			c-0.2,0.2-0.3,0.5-0.3,0.8s0.2,0.6,0.3,0.8C-2701,135.3-2700.7,135.3-2700.5,135.3z M-2700.4,140.1h-0.8l5-7.9h0.8L-2700.4,140.1z
			 M-2694.9,139.8c-0.3,0.3-0.8,0.5-1.4,0.5c-0.6,0-1-0.2-1.4-0.5c-0.3-0.3-0.5-0.8-0.5-1.4s0.2-1,0.5-1.4c0.3-0.3,0.8-0.5,1.4-0.5
			c0.6,0,1,0.2,1.4,0.6c0.3,0.3,0.5,0.8,0.5,1.4C-2694.3,139-2694.4,139.5-2694.9,139.8z M-2697,139.2c0.2,0.2,0.5,0.3,0.8,0.3
			s0.5-0.2,0.8-0.3c0.2-0.2,0.3-0.5,0.3-0.8s-0.2-0.6-0.3-0.8c-0.2-0.2-0.5-0.3-0.8-0.3s-0.5,0.2-0.8,0.3c-0.2,0.2-0.3,0.5-0.3,0.8
			S-2697.2,139-2697,139.2z"/>
	</g>
	<g>
		<path class="st31" d="M-2627.6,124.8h-2.3v2.4h-0.8v-2.4h-2.3V124h2.3v-2.4h0.8v2.4h2.3V124.8z"/>
		<path class="st31" d="M-2624.1,128.5c-0.6,0-1.3-0.2-1.8-0.3c-0.5-0.2-1-0.5-1.1-1l0.8-1c0.3,0.3,0.6,0.5,1,0.6
			c0.3,0.2,0.8,0.3,1.3,0.3s1-0.2,1.1-0.3c0.3-0.2,0.5-0.5,0.5-0.8c0-0.8-0.6-1.1-1.8-1.1c-0.5,0-0.8,0-1,0v-1.3c0.2,0,0.3,0,1,0
			c0.5,0,0.8-0.2,1.1-0.3c0.3-0.2,0.5-0.5,0.5-0.8s-0.2-0.6-0.5-0.8c-0.3-0.2-0.6-0.3-1.1-0.3c-0.8,0-1.4,0.3-2.1,0.8l-0.6-0.8
			c0.6-0.8,1.6-1.3,2.9-1.3c0.8,0,1.6,0.2,2.1,0.6c0.5,0.3,0.8,1,0.8,1.6c0,0.5-0.2,1-0.5,1.1c-0.3,0.3-0.8,0.5-1.1,0.6
			c0.5,0,0.8,0.2,1.3,0.6c0.3,0.3,0.6,0.8,0.6,1.3c0,0.6-0.3,1.3-0.8,1.6C-2622.5,128.4-2623.1,128.5-2624.1,128.5z"/>
		<path class="st31" d="M-2615.5,128.2c-0.5,0.2-1,0.3-1.4,0.3c-0.5,0-1-0.2-1.4-0.3c-0.5-0.2-0.8-0.5-1-1c-0.3-0.3-0.5-0.8-0.5-1.3
			c-0.2-0.5-0.2-1-0.2-1.4s0-1,0.2-1.4c0.2-0.5,0.3-1,0.5-1.3c0.3-0.3,0.6-0.6,1-1c0.5-0.2,1-0.3,1.4-0.3c0.5,0,1,0.2,1.4,0.3
			c0.5,0.2,0.8,0.5,1,1c0.3,0.3,0.5,0.8,0.5,1.3s0.2,1,0.2,1.4s0,1-0.2,1.4c-0.2,0.5-0.3,1-0.5,1.3
			C-2614.7,127.7-2615.1,128.1-2615.5,128.2z M-2618.3,126.6c0.3,0.5,0.6,0.8,1.3,0.8c0.6,0,1-0.3,1.3-0.8s0.5-1.3,0.5-2.1
			c0-0.5,0-1-0.2-1.4c-0.2-0.5-0.3-0.8-0.6-1c-0.3-0.3-0.6-0.5-1-0.5c-0.5,0-0.8,0.2-1,0.5c-0.3,0.3-0.5,0.6-0.6,1
			c-0.2,0.5-0.2,0.8-0.2,1.4C-2618.6,125.3-2618.4,126.1-2618.3,126.6z"/>
		<path class="st31" d="M-2611,124.3c-0.6,0-1-0.2-1.4-0.5c-0.3-0.3-0.5-0.8-0.5-1.4s0.2-1,0.5-1.4c0.3-0.3,0.8-0.5,1.4-0.5
			c0.6,0,1.1,0.2,1.4,0.5c0.3,0.3,0.5,0.8,0.5,1.4c0,0.5-0.2,1-0.5,1.4C-2609.9,124.2-2610.4,124.3-2611,124.3z M-2611,123.5
			c0.3,0,0.5-0.2,0.8-0.3c0.2-0.2,0.3-0.5,0.3-0.8s-0.2-0.6-0.3-0.8c-0.2-0.2-0.5-0.3-0.8-0.3s-0.5,0.2-0.8,0.3
			c-0.2,0.2-0.3,0.5-0.3,0.8s0.2,0.6,0.3,0.8C-2611.5,123.5-2611.4,123.5-2611,123.5z M-2611,128.5h-0.8l5-7.9h0.8L-2611,128.5z
			 M-2605.4,128.1c-0.3,0.3-0.8,0.5-1.4,0.5c-0.6,0-1-0.2-1.4-0.5c-0.3-0.3-0.5-0.8-0.5-1.4s0.2-1,0.5-1.4c0.3-0.3,0.8-0.5,1.4-0.5
			c0.6,0,1,0.2,1.4,0.6c0.3,0.3,0.5,0.8,0.5,1.4C-2604.8,127.2-2605.1,127.7-2605.4,128.1z M-2607.5,127.6c0.2,0.2,0.5,0.3,0.8,0.3
			s0.5-0.2,0.8-0.3c0.2-0.2,0.3-0.5,0.3-0.8s-0.2-0.6-0.3-0.8c-0.2-0.2-0.5-0.3-0.8-0.3s-0.5,0.2-0.8,0.3c-0.2,0.2-0.3,0.5-0.3,0.8
			S-2607.7,127.2-2607.5,127.6z"/>
	</g>
	<g>
		<path class="st31" d="M-2910,209.7v-1c-1-0.2-1.8-0.5-2.4-1.1l0.8-1.1c0.5,0.5,1,0.8,1.6,0.8v-1.6c-0.3,0-0.5-0.2-0.6-0.2
			c-0.2,0-0.3-0.2-0.6-0.3c-0.2-0.2-0.3-0.2-0.5-0.3c-0.2-0.2-0.2-0.3-0.3-0.5c-0.2-0.2-0.2-0.5-0.2-0.6c0-0.5,0.2-1,0.6-1.3
			c0.3-0.3,1-0.6,1.6-0.6v-1h1v1c0.8,0.2,1.4,0.3,2.1,1l-0.8,1.1c-0.3-0.3-0.8-0.5-1.3-0.6v1.4c0.3,0,0.5,0.2,0.6,0.2
			c0.2,0,0.3,0.2,0.6,0.3c0.2,0.2,0.3,0.2,0.5,0.3c0.2,0.2,0.3,0.3,0.3,0.5c0.2,0.2,0.2,0.5,0.2,0.6c0,0.6-0.2,1.1-0.6,1.4
			c-0.3,0.3-1,0.6-1.6,0.6v1L-2910,209.7L-2910,209.7z M-2910.6,203.7c0,0.3,0.2,0.5,0.6,0.6V203c-0.2,0-0.3,0.2-0.5,0.2
			C-2910.6,203.4-2910.6,203.6-2910.6,203.7z M-2908.2,206.8c0-0.3-0.3-0.5-0.8-0.6v1.3c0.2,0,0.5-0.2,0.5-0.3
			C-2908.4,207.1-2908.2,206.9-2908.2,206.8z"/>
		<path class="st31" d="M-2902.9,208.7h-1.4v-4.8l-1.1,1.1l-0.8-0.8l2.1-2.1h1.3C-2902.9,202.1-2902.9,208.7-2902.9,208.7z"/>
		<path class="st31" d="M-2900.2,208.1c0,0.3-0.2,0.6-0.3,1c-0.2,0.3-0.5,0.6-0.8,0.8l-0.5-0.5c0.2-0.2,0.3-0.2,0.5-0.5
			c0.2-0.2,0.3-0.3,0.3-0.5h-0.2c-0.2,0-0.3,0-0.5-0.2s-0.2-0.3-0.2-0.5s0-0.5,0.2-0.6c0.2-0.2,0.3-0.2,0.5-0.2
			c0.3,0,0.5,0.2,0.6,0.3C-2900.2,207.6-2900.2,207.7-2900.2,208.1z"/>
		<path class="st31" d="M-2894.2,208.7h-5v-1.1c1.4-1.1,2.4-1.8,2.9-2.3s0.6-0.8,0.6-1.3c0-0.3-0.2-0.5-0.3-0.6
			c-0.2-0.2-0.5-0.2-0.8-0.2c-0.6,0-1.3,0.3-1.8,0.8l-0.8-1c0.3-0.3,0.6-0.6,1.1-0.8s1-0.3,1.4-0.3c0.8,0,1.3,0.2,1.8,0.6
			c0.5,0.3,0.8,1,0.8,1.6c0,0.5-0.2,1.1-0.6,1.6c-0.5,0.5-1.1,1.1-2.1,1.8h2.7C-2894.2,207.6-2894.2,208.7-2894.2,208.7z"/>
		<path class="st31" d="M-2892.8,208.9h-1l2.4-7.1h1L-2892.8,208.9z"/>
		<path class="st31" d="M-2884.9,208.7h-5v-1.1c1.4-1.1,2.4-1.8,2.9-2.3s0.6-0.8,0.6-1.3c0-0.3-0.2-0.5-0.3-0.6
			c-0.2-0.2-0.5-0.2-0.8-0.2c-0.6,0-1.3,0.3-1.8,0.8l-0.8-1c0.3-0.3,0.6-0.6,1.1-0.8s1-0.3,1.4-0.3c0.8,0,1.3,0.2,1.8,0.6
			c0.5,0.3,0.8,1,0.8,1.6c0,0.5-0.2,1.1-0.6,1.6c-0.5,0.5-1.1,1.1-2.1,1.8h2.7C-2884.9,207.6-2884.9,208.7-2884.9,208.7z"/>
		<path class="st31" d="M-2879.4,208.7h-1.4v-1.4h-3.2v-1.1l2.7-4.2h1.9v4h0.8v1.3h-0.8V208.7z M-2880.9,206v-2.7l-1.8,2.7H-2880.9z
			"/>
		<path class="st31" d="M-2873.1,208.7h-1.3v-2.9c0-0.3,0-0.5-0.2-0.6c-0.2-0.2-0.3-0.2-0.6-0.2c-0.5,0-0.8,0.2-1.1,0.6v3.2h-1.3
			V202h1.3v2.4c0.2-0.2,0.5-0.3,0.6-0.5c0.3-0.2,0.6-0.2,1-0.2c0.5,0,1,0.2,1.1,0.5c0.3,0.3,0.3,0.6,0.3,1.1v3.2h0.2V208.7z"/>
	</g>
	<g>
		<path class="st31" d="M-2816.6,209.7v-1c-1-0.2-1.8-0.5-2.4-1.1l0.8-1.1c0.5,0.5,1,0.8,1.6,0.8v-1.6c-0.3,0-0.5-0.2-0.6-0.2
			c-0.2,0-0.3-0.2-0.6-0.3c-0.2-0.2-0.3-0.2-0.5-0.3c-0.2-0.2-0.2-0.3-0.3-0.5c-0.2-0.2-0.2-0.5-0.2-0.6c0-0.5,0.2-1,0.6-1.3
			c0.3-0.3,1-0.6,1.6-0.6v-1h1v1c0.8,0.2,1.4,0.3,2.1,1l-0.8,1.1c-0.3-0.3-0.8-0.5-1.3-0.6v1.4c0.3,0,0.5,0.2,0.6,0.2
			c0.2,0,0.3,0.2,0.6,0.3c0.2,0.2,0.3,0.2,0.5,0.3c0.2,0.2,0.3,0.3,0.3,0.5c0.2,0.2,0.2,0.5,0.2,0.6c0,0.6-0.2,1.1-0.6,1.4
			c-0.3,0.3-1,0.6-1.6,0.6v1L-2816.6,209.7L-2816.6,209.7z M-2817.4,203.7c0,0.3,0.2,0.5,0.6,0.6V203c-0.2,0-0.3,0.2-0.5,0.2
			C-2817.3,203.4-2817.4,203.6-2817.4,203.7z M-2815,206.8c0-0.3-0.3-0.5-0.8-0.6v1.3c0.2,0,0.5-0.2,0.5-0.3
			C-2815,207.1-2815,206.9-2815,206.8z"/>
		<path class="st31" d="M-2809.7,208.7h-1.4v-4.8l-1.1,1.1l-0.8-0.8l2.1-2.1h1.3C-2809.7,202.1-2809.7,208.7-2809.7,208.7z"/>
		<path class="st31" d="M-2806.8,208.1c0,0.3-0.2,0.6-0.3,1c-0.2,0.3-0.5,0.6-0.8,0.8l-0.5-0.5c0.2-0.2,0.3-0.2,0.5-0.5
			c0.2-0.2,0.3-0.3,0.3-0.5h-0.2c-0.2,0-0.3,0-0.5-0.2s-0.2-0.3-0.2-0.5s0-0.5,0.2-0.6c0.2-0.2,0.3-0.2,0.5-0.2
			c0.3,0,0.5,0.2,0.6,0.3C-2807,207.6-2806.8,207.7-2806.8,208.1z"/>
		<path class="st31" d="M-2800.8,208.7h-5v-1.1c1.4-1.1,2.4-1.8,2.9-2.3s0.6-0.8,0.6-1.3c0-0.3-0.2-0.5-0.3-0.6
			c-0.2-0.2-0.5-0.2-0.8-0.2c-0.6,0-1.3,0.3-1.8,0.8l-1-1.1c0.3-0.3,0.6-0.6,1.1-0.8s1-0.3,1.4-0.3c0.8,0,1.3,0.2,1.8,0.6
			c0.5,0.3,0.8,1,0.8,1.6c0,0.5-0.2,1.1-0.6,1.6c-0.5,0.5-1.1,1.1-2.1,1.8h2.7v1.3H-2800.8z"/>
		<path class="st31" d="M-2799.4,208.9h-1l2.4-7.1h1L-2799.4,208.9z"/>
		<path class="st31" d="M-2791.5,208.7h-5v-1.1c1.4-1.1,2.4-1.8,2.9-2.3s0.6-0.8,0.6-1.3c0-0.3-0.2-0.5-0.3-0.6
			c-0.2-0.2-0.5-0.2-0.8-0.2c-0.6,0-1.3,0.3-1.8,0.8l-0.8-1c0.3-0.3,0.6-0.6,1.1-0.8s1-0.3,1.4-0.3c0.8,0,1.3,0.2,1.8,0.6
			c0.5,0.3,0.8,1,0.8,1.6c0,0.5-0.2,1.1-0.6,1.6s-1.1,1.1-2.1,1.8h2.7v1.2H-2791.5z"/>
		<path class="st31" d="M-2786,208.7h-1.4v-1.4h-3.2v-1.1l2.7-4.2h1.9v4h0.8v1.3h-0.8V208.7z M-2787.5,206v-2.7l-1.8,2.7H-2787.5z"
			/>
		<path class="st31" d="M-2779.8,208.7h-1.3v-2.9c0-0.3,0-0.5-0.2-0.6c-0.2-0.2-0.3-0.2-0.6-0.2c-0.5,0-0.8,0.2-1.1,0.6v3.2h-1.3
			V202h1.3v2.4c0.2-0.2,0.5-0.3,0.6-0.5c0.3-0.2,0.6-0.2,1-0.2c0.5,0,1,0.2,1.1,0.5c0.3,0.3,0.3,0.6,0.3,1.1v3.2h0.2V208.7z"/>
	</g>
	<g>
		<path class="st31" d="M-2725.8,209.7v-1c-1-0.2-1.8-0.5-2.4-1.1l0.8-1.1c0.5,0.5,1,0.8,1.6,0.8v-1.6c-0.3,0-0.5-0.2-0.6-0.2
			c-0.2,0-0.3-0.2-0.6-0.3c-0.2-0.2-0.3-0.2-0.5-0.3c-0.2-0.2-0.2-0.3-0.3-0.5c-0.2-0.2-0.2-0.5-0.2-0.6c0-0.5,0.2-1,0.6-1.3
			c0.3-0.3,1-0.6,1.6-0.6v-1h1v1c0.8,0.2,1.4,0.3,2.1,1l-0.8,1.1c-0.3-0.3-0.8-0.5-1.3-0.6v1.4c0.3,0,0.5,0.2,0.6,0.2
			c0.2,0,0.3,0.2,0.6,0.3c0.2,0.2,0.3,0.2,0.5,0.3c0.2,0.2,0.3,0.3,0.3,0.5c0.2,0.2,0.2,0.5,0.2,0.6c0,0.6-0.2,1.1-0.6,1.4
			c-0.3,0.3-1,0.6-1.6,0.6v1L-2725.8,209.7L-2725.8,209.7z M-2726.6,203.7c0,0.3,0.2,0.5,0.6,0.6V203c-0.2,0-0.3,0.2-0.5,0.2
			C-2726.5,203.4-2726.6,203.6-2726.6,203.7z M-2724.2,206.8c0-0.3-0.3-0.5-0.8-0.6v1.3c0.2,0,0.5-0.2,0.5-0.3
			C-2724.2,207.1-2724.2,206.9-2724.2,206.8z"/>
		<path class="st31" d="M-2718.9,208.7h-1.4v-4.8l-1.1,1.1l-0.8-0.8l2.1-2.1h1.3v6.6H-2718.9z"/>
		<path class="st31" d="M-2716,208.1c0,0.3-0.2,0.6-0.3,1c-0.2,0.3-0.5,0.6-0.8,0.8l-0.5-0.5c0.2-0.2,0.3-0.2,0.5-0.5
			c0.2-0.2,0.3-0.3,0.3-0.5h-0.2c-0.2,0-0.3,0-0.5-0.2s-0.2-0.3-0.2-0.5s0-0.5,0.2-0.6c0.2-0.2,0.3-0.2,0.5-0.2
			c0.3,0,0.5,0.2,0.6,0.3C-2716.2,207.6-2716,207.7-2716,208.1z"/>
		<path class="st31" d="M-2710,208.7h-5v-1.1c1.4-1.1,2.4-1.8,2.9-2.3s0.6-0.8,0.6-1.3c0-0.3-0.2-0.5-0.3-0.6
			c-0.2-0.2-0.5-0.2-0.8-0.2c-0.6,0-1.3,0.3-1.8,0.8l-0.8-1c0.3-0.3,0.6-0.6,1.1-0.8s1-0.3,1.4-0.3c0.8,0,1.3,0.2,1.8,0.6
			c0.5,0.3,0.8,1,0.8,1.6c0,0.5-0.2,1.1-0.6,1.6s-1.1,1.1-2.1,1.8h2.7v1.2H-2710z"/>
		<path class="st31" d="M-2708.6,208.9h-1l2.4-7.1h1L-2708.6,208.9z"/>
		<path class="st31" d="M-2700.7,208.7h-5v-1.1c1.4-1.1,2.4-1.8,2.9-2.3s0.6-0.8,0.6-1.3c0-0.3-0.2-0.5-0.3-0.6
			c-0.2-0.2-0.5-0.2-0.8-0.2c-0.6,0-1.3,0.3-1.8,0.8l-0.8-1c0.3-0.3,0.6-0.6,1.1-0.8s1-0.3,1.4-0.3c0.8,0,1.3,0.2,1.8,0.6
			c0.5,0.3,0.8,1,0.8,1.6c0,0.5-0.2,1.1-0.6,1.6s-1.1,1.1-2.1,1.8h2.7L-2700.7,208.7L-2700.7,208.7z"/>
		<path class="st31" d="M-2695.2,208.7h-1.4v-1.4h-3.2v-1.1l2.7-4.2h1.9v4h0.8v1.3h-0.8V208.7z M-2696.7,206v-2.7l-1.8,2.7H-2696.7z
			"/>
		<path class="st31" d="M-2689,208.7h-1.3v-2.9c0-0.3,0-0.5-0.2-0.6c-0.2-0.2-0.3-0.2-0.6-0.2c-0.5,0-0.8,0.2-1.1,0.6v3.2h-1.3V202
			h1.3v2.4c0.2-0.2,0.5-0.3,0.6-0.5c0.3-0.2,0.6-0.2,1-0.2c0.5,0,1,0.2,1.1,0.5c0.3,0.3,0.3,0.6,0.3,1.1v3.2h0.2V208.7z"/>
	</g>
	<g>
		<path class="st31" d="M-2635,209.7v-1c-1-0.2-1.8-0.5-2.4-1.1l0.8-1.1c0.5,0.5,1,0.8,1.6,0.8v-1.6c-0.3,0-0.5-0.2-0.6-0.2
			s-0.3-0.2-0.6-0.3c-0.2-0.2-0.3-0.2-0.5-0.3c-0.2-0.2-0.2-0.3-0.3-0.5c-0.2-0.2-0.2-0.5-0.2-0.6c0-0.5,0.2-1,0.6-1.3
			c0.3-0.3,1-0.6,1.6-0.6v-1h1v1c0.8,0.2,1.4,0.3,2.1,1l-0.8,1.1c-0.3-0.3-0.8-0.5-1.3-0.6v1.4c0.3,0,0.5,0.2,0.6,0.2
			c0.2,0,0.3,0.2,0.6,0.3c0.2,0.2,0.3,0.2,0.5,0.3s0.3,0.3,0.3,0.5c0.2,0.2,0.2,0.5,0.2,0.6c0,0.6-0.2,1.1-0.6,1.4
			c-0.3,0.3-1,0.6-1.6,0.6v1L-2635,209.7L-2635,209.7z M-2635.8,203.7c0,0.3,0.2,0.5,0.6,0.6V203c-0.2,0-0.3,0.2-0.5,0.2
			C-2635.7,203.4-2635.8,203.6-2635.8,203.7z M-2633.4,206.8c0-0.3-0.3-0.5-0.8-0.6v1.3c0.2,0,0.5-0.2,0.5-0.3
			C-2633.4,207.1-2633.4,206.9-2633.4,206.8z"/>
		<path class="st31" d="M-2628.1,208.7h-1.4v-4.8l-1.1,1.1l-0.8-0.8l2.1-2.1h1.3v6.6H-2628.1z"/>
		<path class="st31" d="M-2625.2,208.1c0,0.3-0.2,0.6-0.3,1c-0.2,0.3-0.5,0.6-0.8,0.8l-0.5-0.5c0.2-0.2,0.3-0.2,0.5-0.5
			c0.2-0.2,0.3-0.3,0.3-0.5h-0.2c-0.2,0-0.3,0-0.5-0.2s-0.2-0.3-0.2-0.5s0-0.5,0.2-0.6c0.2-0.2,0.3-0.2,0.5-0.2
			c0.3,0,0.5,0.2,0.6,0.3C-2625.4,207.6-2625.2,207.7-2625.2,208.1z"/>
		<path class="st31" d="M-2619.2,208.7h-5v-1.1c1.4-1.1,2.4-1.8,2.9-2.3s0.6-0.8,0.6-1.3c0-0.3-0.2-0.5-0.3-0.6
			c-0.2-0.2-0.5-0.2-0.8-0.2c-0.6,0-1.3,0.3-1.8,0.8l-0.8-1c0.3-0.3,0.6-0.6,1.1-0.8s1-0.3,1.4-0.3c0.8,0,1.3,0.2,1.8,0.6
			c0.5,0.3,0.8,1,0.8,1.6c0,0.5-0.2,1.1-0.6,1.6s-1.1,1.1-2.1,1.8h2.7v1.2H-2619.2z"/>
		<path class="st31" d="M-2617.8,208.9h-1l2.4-7.1h1L-2617.8,208.9z"/>
		<path class="st31" d="M-2609.9,208.7h-5v-1.1c1.4-1.1,2.4-1.8,2.9-2.3s0.6-0.8,0.6-1.3c0-0.3-0.2-0.5-0.3-0.6
			c-0.2-0.2-0.5-0.2-0.8-0.2c-0.6,0-1.3,0.3-1.8,0.8l-0.8-1c0.3-0.3,0.6-0.6,1.1-0.8s1-0.3,1.4-0.3c0.8,0,1.3,0.2,1.8,0.6
			c0.5,0.3,0.8,1,0.8,1.6c0,0.5-0.2,1.1-0.6,1.6c-0.5,0.5-1.1,1.1-2.1,1.8h2.7v1.2H-2609.9z"/>
		<path class="st31" d="M-2604.4,208.7h-1.4v-1.4h-3.2v-1.1l2.7-4.2h1.9v4h0.8v1.3h-0.8V208.7z M-2605.9,206v-2.7l-1.8,2.7H-2605.9z
			"/>
		<path class="st31" d="M-2598.2,208.7h-1.3v-2.9c0-0.3,0-0.5-0.2-0.6c-0.2-0.2-0.3-0.2-0.6-0.2c-0.5,0-0.8,0.2-1.1,0.6v3.2h-1.3
			V202h1.3v2.4c0.2-0.2,0.5-0.3,0.6-0.5c0.3-0.2,0.6-0.2,1-0.2c0.5,0,1,0.2,1.1,0.5c0.3,0.3,0.3,0.6,0.3,1.1v3.2h0.2V208.7z"/>
	</g>
	<g>
		<path class="st31" d="M-2544.2,209.7v-1c-1-0.2-1.8-0.5-2.4-1.1l0.8-1.1c0.5,0.5,1,0.8,1.6,0.8v-1.6c-0.3,0-0.5-0.2-0.6-0.2
			c-0.2,0-0.3-0.2-0.6-0.3c-0.2-0.2-0.3-0.2-0.5-0.3c-0.2-0.2-0.2-0.3-0.3-0.5c-0.2-0.2-0.2-0.5-0.2-0.6c0-0.5,0.2-1,0.6-1.3
			c0.3-0.3,1-0.6,1.6-0.6v-1h1v1c0.8,0.2,1.4,0.3,2.1,1l-0.8,1.1c-0.3-0.3-0.8-0.5-1.3-0.6v1.4c0.3,0,0.5,0.2,0.6,0.2
			c0.2,0,0.3,0.2,0.6,0.3c0.2,0.2,0.3,0.2,0.5,0.3c0.2,0.2,0.3,0.3,0.3,0.5c0.2,0.2,0.2,0.5,0.2,0.6c0,0.6-0.2,1.1-0.6,1.4
			c-0.3,0.3-1,0.6-1.6,0.6v1L-2544.2,209.7L-2544.2,209.7z M-2545,203.7c0,0.3,0.2,0.5,0.6,0.6V203c-0.2,0-0.3,0.2-0.5,0.2
			C-2544.9,203.4-2545,203.6-2545,203.7z M-2542.6,206.8c0-0.3-0.3-0.5-0.8-0.6v1.3c0.2,0,0.5-0.2,0.5-0.3
			C-2542.6,207.1-2542.6,206.9-2542.6,206.8z"/>
		<path class="st31" d="M-2537.3,208.7h-1.4v-4.8l-1.1,1.1l-0.8-0.8l2.1-2.1h1.3v6.6H-2537.3z"/>
		<path class="st31" d="M-2534.4,208.1c0,0.3-0.2,0.6-0.3,1c-0.2,0.3-0.5,0.6-0.8,0.8l-0.5-0.5c0.2-0.2,0.3-0.2,0.5-0.5
			c0.2-0.2,0.3-0.3,0.3-0.5h-0.2c-0.2,0-0.3,0-0.5-0.2s-0.2-0.3-0.2-0.5s0-0.5,0.2-0.6c0.2-0.2,0.3-0.2,0.5-0.2
			c0.3,0,0.5,0.2,0.6,0.3C-2534.6,207.6-2534.4,207.7-2534.4,208.1z"/>
		<path class="st31" d="M-2528.4,208.7h-5v-1.1c1.4-1.1,2.4-1.8,2.9-2.3s0.6-0.8,0.6-1.3c0-0.3-0.2-0.5-0.3-0.6
			c-0.2-0.2-0.5-0.2-0.8-0.2c-0.6,0-1.3,0.3-1.8,0.8l-0.8-1c0.3-0.3,0.6-0.6,1.1-0.8s1-0.3,1.4-0.3c0.8,0,1.3,0.2,1.8,0.6
			c0.5,0.3,0.8,1,0.8,1.6c0,0.5-0.2,1.1-0.6,1.6c-0.5,0.5-1.1,1.1-2.1,1.8h2.7v1.2H-2528.4z"/>
		<path class="st31" d="M-2527,208.9h-1l2.4-7.1h1L-2527,208.9z"/>
		<path class="st31" d="M-2519.1,208.7h-5v-1.1c1.4-1.1,2.4-1.8,2.9-2.3s0.6-0.8,0.6-1.3c0-0.3-0.2-0.5-0.3-0.6
			c-0.2-0.2-0.5-0.2-0.8-0.2c-0.6,0-1.3,0.3-1.8,0.8l-0.8-1c0.3-0.3,0.6-0.6,1.1-0.8s1-0.3,1.4-0.3c0.8,0,1.3,0.2,1.8,0.6
			c0.5,0.3,0.8,1,0.8,1.6c0,0.5-0.2,1.1-0.6,1.6s-1.1,1.1-2.1,1.8h2.7v1.2H-2519.1z"/>
		<path class="st31" d="M-2513.6,208.7h-1.4v-1.4h-3.2v-1.1l2.7-4.2h1.9v4h0.8v1.3h-0.8V208.7L-2513.6,208.7z M-2515.1,206v-2.7
			l-1.8,2.7H-2515.1z"/>
		<path class="st31" d="M-2507.4,208.7h-1.3v-2.9c0-0.3,0-0.5-0.2-0.6c-0.2-0.2-0.3-0.2-0.6-0.2c-0.5,0-0.8,0.2-1.1,0.6v3.2h-1.3
			V202h1.3v2.4c0.2-0.2,0.5-0.3,0.6-0.5c0.3-0.2,0.6-0.2,1-0.2c0.5,0,1,0.2,1.1,0.5c0.3,0.3,0.3,0.6,0.3,1.1v3.2h0.2V208.7z"/>
	</g>
	<g>
		<path class="st31" d="M-2535.7,110.2h-2.3v2.4h-0.8v-2.4h-2.3v-0.8h2.3V107h0.8v2.4h2.3V110.2z"/>
		<path class="st31" d="M-2529.9,113.7h-1.4V112h-3.7v-1.1l3.2-5h1.9v4.8h1.1v1.3h-1.1V113.7L-2529.9,113.7z M-2531.2,110.7V107
			l-2.4,3.7H-2531.2z"/>
		<path class="st31" d="M-2523.5,113.6c-0.5,0.2-1,0.3-1.4,0.3s-1-0.2-1.4-0.3c-0.5-0.2-0.8-0.5-1-1c-0.3-0.3-0.5-0.8-0.5-1.3
			c-0.2-0.5-0.2-1-0.2-1.4c0-0.5,0-1,0.2-1.4c0.2-0.5,0.3-1,0.5-1.3c0.3-0.3,0.6-0.6,1-1c0.5-0.2,1-0.3,1.4-0.3s1,0.2,1.4,0.3
			c0.5,0.2,0.8,0.5,1,1c0.3,0.3,0.5,0.8,0.5,1.3c0.2,0.5,0.2,1,0.2,1.4c0,0.5,0,1-0.2,1.4c-0.2,0.5-0.3,1-0.5,1.3
			C-2522.6,112.9-2523,113.2-2523.5,113.6z M-2526.2,111.8c0.3,0.5,0.6,0.8,1.3,0.8c0.6,0,1-0.3,1.3-0.8s0.5-1.3,0.5-2.1
			c0-0.5,0-1-0.2-1.4c-0.2-0.5-0.3-0.8-0.6-1c-0.3-0.3-0.6-0.5-1-0.5c-0.5,0-0.8,0.2-1,0.5c-0.3,0.3-0.5,0.6-0.6,1
			c-0.2,0.5-0.2,0.8-0.2,1.4C-2526.7,110.7-2526.5,111.3-2526.2,111.8z"/>
		<path class="st31" d="M-2518.9,109.7c-0.6,0-1-0.2-1.4-0.5c-0.3-0.3-0.5-0.8-0.5-1.4s0.2-1,0.5-1.4c0.3-0.3,0.8-0.5,1.4-0.5
			c0.6,0,1.1,0.2,1.4,0.5c0.3,0.3,0.5,0.8,0.5,1.4c0,0.5-0.2,1-0.5,1.4C-2517.8,109.7-2518.3,109.7-2518.9,109.7z M-2518.9,108.9
			c0.3,0,0.5-0.2,0.8-0.3c0.2-0.2,0.3-0.5,0.3-0.8s-0.2-0.6-0.3-0.8c-0.2-0.2-0.5-0.3-0.8-0.3s-0.5,0.2-0.8,0.3
			c-0.2,0.2-0.3,0.5-0.3,0.8s0.2,0.6,0.3,0.8C-2519.4,108.7-2519.3,108.9-2518.9,108.9z M-2518.9,113.7h-0.8l5-7.9h0.8
			L-2518.9,113.7z M-2513.3,113.2c-0.3,0.3-0.8,0.5-1.4,0.5c-0.6,0-1-0.2-1.4-0.5c-0.3-0.3-0.5-0.8-0.5-1.4s0.2-1,0.5-1.4
			c0.3-0.3,0.8-0.5,1.4-0.5c0.6,0,1,0.2,1.4,0.6c0.3,0.3,0.5,0.8,0.5,1.4C-2512.8,112.4-2513,112.9-2513.3,113.2z M-2515.4,112.8
			c0.2,0.2,0.5,0.3,0.8,0.3s0.5-0.2,0.8-0.3c0.2-0.2,0.3-0.5,0.3-0.8s-0.2-0.6-0.3-0.8c-0.2-0.2-0.5-0.3-0.8-0.3s-0.5,0.2-0.8,0.3
			c-0.2,0.2-0.3,0.5-0.3,0.8S-2515.7,112.6-2515.4,112.8z"/>
	</g>
	<text transform="matrix(1 0 0 1 -2910.625 271.2916)" style="font-family:'ProximaNova-Semibold'; font-size:13px;">2019</text>
	<text transform="matrix(1 0 0 1 -2814.4585 272.2916)" style="font-family:'ProximaNova-Semibold'; font-size:13px;">2019</text>
</g>
<g>
	<path d="M217.7,166.2l-0.9-1.4l7.9-1.5l-2.6-3.7l1.1-0.8l3.6,5.1l-0.9,0.6L217.7,166.2z"/>
	<path d="M221.2,171.3l-0.5-0.7l10.3-0.4l0.5,0.7L221.2,171.3z M225.1,176.1c-0.6-0.1-1-0.4-1.4-0.9s-0.5-1.1-0.4-1.6s0.4-1,0.9-1.4
		s1.1-0.5,1.6-0.4c0.6,0.1,1,0.4,1.4,0.9s0.5,1.1,0.4,1.6c-0.1,0.6-0.4,1-0.9,1.4S225.7,176.2,225.1,176.1z M224.3,173.8
		c-0.1,0.3,0,0.6,0.2,0.9c0.2,0.3,0.4,0.4,0.8,0.5s0.6,0,0.9-0.3c0.3-0.2,0.5-0.5,0.6-0.8s0-0.6-0.2-0.9c-0.2-0.3-0.4-0.4-0.8-0.5
		c-0.3,0-0.6,0.1-1,0.3C224.5,173.2,224.3,173.5,224.3,173.8z M224.9,168.7c-0.4-0.5-0.5-1.1-0.4-1.6s0.4-1,0.9-1.4s1.1-0.5,1.6-0.4
		c0.6,0.1,1,0.4,1.4,0.9s0.5,1.1,0.4,1.6s-0.4,1-0.9,1.4s-1,0.5-1.6,0.4C225.7,169.5,225.3,169.2,224.9,168.7z M225.6,168.2
		c0.2,0.3,0.4,0.4,0.8,0.5c0.3,0,0.6,0,0.9-0.3c0.3-0.2,0.5-0.5,0.6-0.8s0-0.6-0.2-0.9c-0.2-0.3-0.4-0.4-0.8-0.5
		c-0.3,0-0.6,0.1-1,0.3c-0.3,0.2-0.5,0.5-0.6,0.8C225.4,167.6,225.4,167.9,225.6,168.2z"/>
</g>
<g>
	<path d="M284.4,97.7v-1.5h6.7l-1.5-1.4l0.9-0.9l2.5,2.5v1.3H284.4z"/>
	<path d="M284.3,102.2c0-0.7,0.1-1.4,0.4-2s0.6-1,1-1.3l1,0.8c-0.3,0.3-0.6,0.6-0.8,1.1c-0.2,0.4-0.3,0.9-0.3,1.3
		c0,0.6,0.1,1,0.4,1.3c0.2,0.3,0.6,0.5,1,0.5c0.8,0,1.2-0.6,1.2-1.9c0-0.6,0-0.9,0-1h1.4c0,0.1,0,0.4,0,1c0,0.5,0.1,1,0.3,1.3
		c0.2,0.3,0.5,0.5,0.9,0.5s0.7-0.2,0.9-0.5c0.2-0.3,0.3-0.8,0.3-1.3c0-0.8-0.3-1.6-1-2.2l0.9-0.8c0.9,0.8,1.4,1.8,1.4,3.2
		c0,0.9-0.2,1.7-0.6,2.3c-0.4,0.6-1,0.9-1.7,0.9c-0.5,0-1-0.2-1.3-0.6c-0.4-0.4-0.6-0.8-0.7-1.3c0,0.5-0.2,1-0.6,1.4
		s-0.9,0.6-1.5,0.6c-0.7,0-1.4-0.3-1.8-0.9C284.5,104,284.3,103.2,284.3,102.2z"/>
	<path d="M285,114.8c-0.4-0.4-0.6-0.9-0.6-1.5s0.2-1.1,0.6-1.6c0.4-0.4,0.9-0.6,1.5-0.6s1.1,0.2,1.6,0.6c0.4,0.4,0.6,0.9,0.6,1.5
		s-0.2,1.2-0.6,1.6s-0.9,0.6-1.5,0.6S285.4,115.2,285,114.8z M284.5,108.6v-0.9l8.7,5.5v0.9L284.5,108.6z M285.6,112.4
		c-0.2,0.2-0.4,0.5-0.4,0.8s0.1,0.6,0.4,0.8c0.2,0.2,0.5,0.3,0.9,0.3s0.7-0.1,0.9-0.3c0.2-0.2,0.4-0.5,0.4-0.8s-0.1-0.6-0.4-0.8
		s-0.6-0.3-0.9-0.3C286.1,112.1,285.8,112.2,285.6,112.4z M289,108.5c0-0.6,0.2-1.2,0.6-1.6s0.9-0.6,1.5-0.6s1.1,0.2,1.6,0.6
		c0.4,0.4,0.6,0.9,0.6,1.5s-0.2,1.2-0.6,1.6s-0.9,0.6-1.5,0.6s-1.1-0.2-1.5-0.6C289.2,109.7,289,109.2,289,108.5z M289.8,108.5
		c0,0.3,0.1,0.6,0.4,0.8c0.2,0.2,0.5,0.3,0.9,0.3s0.7-0.1,0.9-0.3c0.2-0.2,0.4-0.5,0.4-0.8s-0.1-0.6-0.4-0.8
		c-0.2-0.2-0.6-0.3-0.9-0.3c-0.4,0-0.7,0.1-0.9,0.3S289.8,108.2,289.8,108.5z"/>
</g>
<g>
	<path d="M41.7,283l4.9,4.9l-7,7l-4.9-4.9L41.7,283z M36.5,290.1l3,3l5.4-5.4l-3-3L36.5,290.1z M47.3,296.7l-1.8-1.8l-5.6,5.6l-1-1
		l10.8-10.8l1,1l-4.3,4.3l1.8,1.8L47.3,296.7z"/>
	<path d="M59.1,298.8l0.9,0.9l-10,10l-0.9-0.9l5.2-5.2l-2-2c-1.9,0.7-4.2,0.9-6.9,0.1l0.1-1.3c2.5,0.8,4.7,0.6,6.4-0.1l-3.3-2.7
		l0.7-1l3.7,3.2c0.7-0.4,1.4-0.9,2-1.4l-3.2-3.2l0.8-0.8l4.1,4.1c-1,1-2.2,1.9-3.4,2.6l1.7,1.7L59.1,298.8z M62.6,301.7l-10.8,10.8
		l-0.9-0.9l10.8-10.8L62.6,301.7z"/>
	<path d="M65.6,315.9c-1.8-1.3-3.2-2.6-5.6-4.9l-0.9-0.9l5.1-5.1l5.1,5.1l-0.8,0.8l-4.2-4.2l-1.3,1.3L67,312l-0.8,0.8l-3.9-3.9
		l-1.4,1.4c2.2,2.2,3.6,3.5,5.3,4.7L65.6,315.9z M64.5,321.3c-1.3,1.3-3.3,0.6-5.6-1.7c-2.2-2.2-2.9-4.3-1.6-5.6
		c1.3-1.3,3.3-0.6,5.6,1.6C65.1,318,65.8,320,64.5,321.3z M63.6,320.3c0.8-0.8,0.2-2.2-1.4-3.8c-1.6-1.6-3.1-2.2-3.8-1.4
		c-0.7,0.7-0.2,2.2,1.4,3.8C61.4,320.5,62.8,321.1,63.6,320.3z M66.6,319.1l-1-1l6.7-6.7l1,1L66.6,319.1z"/>
</g>
<g>
	<path d="M88.6,287.4l0.9,0.9l-10,10l-0.9-0.9l5-5l-2.2-2.2c-1.9,0.6-4.1,0.7-6.4,0.1l0.1-1.3c3.7,0.9,6.8,0.1,9.2-1.9l-3.2-3.2
		L82,283l4.2,4.2c-1.1,1.1-2.2,1.9-3.6,2.5l1.9,1.9L88.6,287.4z M92,290.3l-10.8,10.8l-0.9-0.9l10.8-10.8L92,290.3z"/>
	<path d="M96.7,301.1c-1.5,1.5-3.7,1.3-5.3-0.3c-1.6-1.6-1.8-3.8-0.3-5.3c1.5-1.5,3.7-1.3,5.3,0.3C98,297.4,98.2,299.7,96.7,301.1z
		 M92.1,296.5c-1,1-0.9,2.5,0.1,3.5c1.1,1.1,2.6,1.2,3.6,0.2c1-1,0.9-2.5-0.2-3.6C94.5,295.6,93,295.5,92.1,296.5z M96,307.8
		l-3.9,3.9l-7-7l3.9-3.9L96,307.8z M89.2,302.6l-2.3,2.3l5,5l2.3-2.3L89.2,302.6z M102.8,301l-6.2,6.2l-1-1l6.2-6.2L102.8,301z"/>
	<path d="M110.9,311.9c-2.8,2.8-6.3,4.4-11.1,3l0.1-1.3c3.9,1.1,6.8,0.2,9.2-1.9l-3.2-3.2l0.8-0.8L110.9,311.9z M116.8,315.1
		l-10.8,10.8l-0.9-0.9l5.6-5.6l-1.5-1.5l-5.1,5.1l-0.9-0.9l10-10l0.9,0.9l-4.1,4.1l1.5,1.5l4.3-4.3L116.8,315.1z"/>
	<path d="M119,327.6l-5-5l4.7-4.7l1,1l-1.6,1.6l3.1,3.1l1.6-1.6l1,1L119,327.6z M120.5,324.2l-3.1-3.1l-1.6,1.6l3.1,3.1L120.5,324.2
		z M111.4,329.4l6.3,6.3l-0.8,0.8l-7.2-7.2l2.7-2.7l5.8,5.8l1.1-1.1l-5.9-5.9l0.8-0.8l6.9,6.9l-2.6,2.6l-5.9-5.9L111.4,329.4z
		 M126.4,329.3l-0.8,0.8l-1.6-1.6l-2.4,2.4l-1-1l5.6-5.6l1,1l-2.3,2.3L126.4,329.3z"/>
</g>
<g>
	<path d="M137.7,290.7l-5.9,5.9l-1-1l2.4-2.4l-2.5-2.5l-2,2l-4.9-4.9l4.9-4.9l1,1l-1.6,1.6l2.9,2.9l1.6-1.6l1,1l-2.1,2.1l2.5,2.5
		l2.6-2.6L137.7,290.7z M130.3,289.2l-2.9-2.9l-1.7,1.7l2.9,2.9L130.3,289.2z M130.4,296.1l1,1l-4.2,4.2l-6.9-6.9l4.2-4.2l1,1
		l-1.3,1.3l5,5L130.4,296.1z M128.3,298.2l-5-5l-1.3,1.3l5,5L128.3,298.2z"/>
	<path d="M141.4,305.6l-1,1l1.4,1.4l-2.3,2.3l-6.4-6.4l-1,1l6.7,6.7l-0.7,0.7l-7.7-7.7l2.4-2.4l6.4,6.4l0.9-0.9l-6.4-6.4l0.7-0.7
		l1.5,1.5l1-1l-2.6-2.6l0.7-0.7l9.8,9.8l-0.7,0.7L141.4,305.6z M146.5,301.4l-6.3-6.3l0.7-0.7l7.3,7.3l-2.2,2.2l-6.3-6.3l-0.9,0.9
		l6.5,6.5l-0.7,0.7l-7.5-7.5l2.3-2.3l6.3,6.3L146.5,301.4z M140.4,304.7l-2.5-2.5l-1,1l2.5,2.5L140.4,304.7z"/>
	<path d="M153.5,318.5c-0.8-1.6-0.8-3.4-0.2-5c-1.7,0.8-3.7,0.8-5.4,0l0.3-1.3c2.2,1,4.7,0.7,6.3-0.8l0.4-0.4l-2.4-2.4l0.8-0.8
		l5.8,5.8l-0.8,0.8l-2.4-2.4l-0.4,0.4c-1.4,1.4-1.7,3.8-0.7,5.9L153.5,318.5z M148.3,315.3l7.2,7.2l-3.7,3.7l-1-1l3-3l-6.2-6.2
		L148.3,315.3z M162.6,315.5l-6.5,6.5l-1-1l2.8-2.8l-2.1-2.1l0.8-0.8l2.1,2.1l2.8-2.8L162.6,315.5z"/>
	<path d="M169.2,332.7l-0.8,0.8l-9.8-9.8l0.8-0.8l2.4,2.4l1.5-1.5c-0.5-1.2-0.4-2.2,0.3-2.9c1.3-1.3,3.5-0.6,5.8,1.8
		c2.3,2.3,3,4.5,1.8,5.8c-0.7,0.7-1.8,0.8-2.9,0.3l-1.5,1.5L169.2,332.7z M164.4,335.1c-1.2,1.2-3.3,0.5-5.6-1.8
		c-2.3-2.3-3-4.4-1.8-5.6s3.3-0.5,5.6,1.8C165,331.8,165.7,333.8,164.4,335.1z M166.2,326c1.7,1.7,3.2,2.3,4,1.5
		c0.8-0.8,0.2-2.3-1.5-4c-1.7-1.7-3.2-2.3-4-1.5C163.9,322.7,164.5,324.2,166.2,326z M163.4,334.1c0.7-0.7,0.1-2.2-1.5-3.8
		c-1.7-1.7-3.1-2.3-3.8-1.5s-0.2,2.2,1.5,3.8C161.3,334.2,162.7,334.8,163.4,334.1z M162.8,326.4l3,3l1.3-1.3
		c-0.5-0.4-1.1-0.8-1.6-1.4c-0.5-0.5-1-1.1-1.4-1.6L162.8,326.4z"/>
</g>
<g>
	<path d="M182.3,288.1c-3.1,3.1-7.3,4.4-12.6,2.6l0.3-1.3c4.3,1.5,7.8,0.9,10.6-1.5l-4.1-4.1l0.8-0.8L182.3,288.1z M186.7,290.1
		l-10.8,10.8l-1-1l10.8-10.8L186.7,290.1z"/>
	<path d="M183,301.2c1.9,1.9,3.3,3.2,5.2,4.5l-0.7,0.9c-1.9-1.4-3.4-2.7-5.4-4.7l-0.8-0.8l7.2-7.2l5,5l-0.8,0.8l-4-4l-2.2,2.2
		l3.8,3.8l-0.8,0.8l-3.8-3.8L183,301.2z M193.8,307.6l-1.8-1.8l-5.6,5.6l-1-1l10.8-10.8l1,1l-4.3,4.3l1.8,1.8L193.8,307.6z"/>
	<path d="M202.5,318c-0.8-1.6-0.8-3.4-0.2-5c-1.7,0.8-3.7,0.8-5.4,0l0.3-1.3c2.2,1,4.7,0.7,6.3-0.8l0.4-0.4l-2.4-2.4l0.8-0.8
		l5.8,5.8l-0.8,0.8l-2.4-2.4l-0.4,0.4c-1.4,1.4-1.7,3.8-0.7,5.9L202.5,318z M197.3,314.8l7.2,7.2l-3.7,3.7l-1-1l3-3l-6.2-6.2
		L197.3,314.8z M211.5,315l-6.5,6.5l-1-1l2.8-2.8l-2.1-2.1l0.8-0.8l2.1,2.1l2.8-2.8L211.5,315z"/>
	<path d="M218.1,332.2l-0.8,0.8l-9.8-9.8l0.8-0.8l2.4,2.4l1.5-1.5c-0.5-1.2-0.4-2.2,0.3-2.9c1.3-1.3,3.5-0.6,5.8,1.8
		c2.3,2.3,3,4.5,1.8,5.8c-0.7,0.7-1.8,0.8-2.9,0.3l-1.5,1.5L218.1,332.2z M213.4,334.6c-1.2,1.2-3.3,0.5-5.6-1.8
		c-2.3-2.3-3-4.4-1.8-5.6s3.3-0.5,5.6,1.8C213.9,331.3,214.6,333.3,213.4,334.6z M215.1,325.4c1.7,1.7,3.2,2.3,4,1.5
		c0.8-0.8,0.2-2.3-1.5-4c-1.7-1.7-3.2-2.3-4-1.5C212.8,322.2,213.4,323.7,215.1,325.4z M212.4,333.6c0.7-0.7,0.1-2.2-1.5-3.8
		c-1.7-1.7-3.1-2.3-3.8-1.5c-0.7,0.7-0.2,2.2,1.5,3.8C210.2,333.7,211.7,334.3,212.4,333.6z M211.7,325.9l3,3l1.3-1.3
		c-0.5-0.4-1.1-0.8-1.6-1.4c-0.5-0.5-1-1.1-1.4-1.6L211.7,325.9z"/>
</g>
<g>
	<path d="M229.9,266.9v2.2h-26.6v-2.2h11.9v-7.1h-8.8V246h20.2v13.8H218v7.1H229.9z M209.1,257.6h15v-9.5h-15V257.6z"/>
	<path d="M250.1,259c-3.4-1.1-6.1-3.4-7.4-6.5c-1.3,3.2-4,5.8-7.5,7l-1.4-2.1c4.4-1.4,7.5-5.1,7.5-9.1v-0.7h-6.7v-2.2h16.1v2.2H244
		v0.7c0,3.9,3.1,7.3,7.4,8.6L250.1,259z M254.9,260.8h2.6v11.6h-18.9v-11.6h2.6v3.6h13.6V260.8z M254.9,266.5h-13.6v3.8h13.6V266.5z
		 M257.5,243.5v15.9h-2.7v-15.9H257.5z"/>
	<path d="M282.7,260.7c-6.2,0.9-13.2,1.1-18.6,1.1l-0.4-2.2c2.6,0,5.4,0,8.3-0.1v-4.2h-5.7v-9.9h14v2.2H269v5.5h11.5v2.2h-5.8v4.1
		c2.7-0.1,5.4-0.3,7.9-0.6L282.7,260.7z M288.5,270v2.2h-20V264h2.7v6H288.5z M287.5,265.5h-2.7v-21.9h2.7V265.5z"/>
	<path d="M316.4,246.7c0,8.5-3.9,15.9-13.6,20.7l-1.4-2.2c7.9-3.8,11.8-9.4,12.4-16.4h-11v-2.2H316.4z M325,243.5v29.3h-2.7v-29.3
		H325z"/>
	<path d="M357.7,255.9v2.2H331v-2.2h19.7c0.8-3.7,0.8-6.3,0.8-8.6h-17.2v-2.2h19.8v2.2c0,2.3,0,5-0.8,8.6H357.7z M334.3,262h20v10.4
		h-20V262z M336.9,270.3h14.8v-6.1h-14.8V270.3z"/>
</g>
</svg>
