<?xml version="1.0" encoding="utf-8"?>
<!-- Generator: Adobe Illustrator 22.0.1, SVG Export Plug-In . SVG Version: 6.00 Build 0)  -->
<svg version="1.1" id="Слой_1" xmlns="http://www.w3.org/2000/svg" xmlns:xlink="http://www.w3.org/1999/xlink" x="0px" y="0px"
	 viewBox="0 0 1796 1222" style="enable-background:new 0 0 1796 1222;" xml:space="preserve">
<style type="text/css">
	.st0{fill:none;stroke:url(#SVGID_1_);stroke-width:57;stroke-miterlimit:10;}
	.st1{fill:none;stroke:url(#SVGID_2_);stroke-width:57;stroke-miterlimit:10;}
	.st2{fill:none;stroke:url(#SVGID_3_);stroke-width:44;stroke-miterlimit:10;}
	.st3{fill:none;stroke:url(#SVGID_4_);stroke-width:57;stroke-miterlimit:10;}
	.st4{fill:none;stroke:url(#SVGID_5_);stroke-width:57;stroke-miterlimit:10;}
	.st5{fill:none;stroke:url(#SVGID_6_);stroke-width:44;stroke-miterlimit:10;}
	.st6{fill:none;stroke:url(#SVGID_7_);stroke-width:57;stroke-miterlimit:10;}
	.st7{fill:none;stroke:url(#SVGID_8_);stroke-width:57;stroke-miterlimit:10;}
	.st8{fill:none;stroke:#000000;stroke-width:5;stroke-miterlimit:10;}
	.st9{fill:#2A2E3D;}
	.st10{fill:#FFFFFF;stroke:#FFFFFF;stroke-miterlimit:10;}
	.st11{fill:none;stroke:url(#SVGID_9_);stroke-width:30;stroke-miterlimit:10;}
	.st12{fill:none;stroke:url(#SVGID_10_);stroke-width:30;stroke-miterlimit:10;}
	.st13{fill:none;stroke:url(#SVGID_11_);stroke-width:30;stroke-miterlimit:10;}
	.st14{fill:none;stroke:url(#SVGID_12_);stroke-width:30;stroke-miterlimit:10;}
	.st15{fill:none;stroke:url(#SVGID_13_);stroke-width:30;stroke-miterlimit:10;}
	.st16{fill:none;stroke:url(#SVGID_14_);stroke-width:30;stroke-miterlimit:10;}
	.st17{fill:none;stroke:url(#SVGID_15_);stroke-width:30;stroke-miterlimit:10;}
	.st18{fill:none;stroke:url(#SVGID_16_);stroke-width:30;stroke-miterlimit:10;}
	.st19{fill:none;stroke:#000000;stroke-width:3;stroke-miterlimit:10;}
	.st20{fill:none;stroke:#000000;stroke-miterlimit:10;}
</style>
<g>
	<linearGradient id="SVGID_1_" gradientUnits="userSpaceOnUse" x1="75.7193" y1="435.8429" x2="1733.9033" y2="435.8429">
		<stop  offset="0" style="stop-color:#E72479"/>
		<stop  offset="1" style="stop-color:#F19C6D"/>
	</linearGradient>
	<path class="st0" d="M1705.4,850.4c0-442.2-358.4-800.6-800.6-800.6S104.2,408.2,104.2,850.4"/>
	<linearGradient id="SVGID_2_" gradientUnits="userSpaceOnUse" x1="169.9066" y1="482.9366" x2="904.8113" y2="482.9366">
		<stop  offset="0" style="stop-color:#E72479"/>
		<stop  offset="1" style="stop-color:#F19C6D"/>
	</linearGradient>
	<path class="st1" d="M198.4,850.4c0-390.1,316.3-706.4,706.4-706.4"/>
	<linearGradient id="SVGID_3_" gradientUnits="userSpaceOnUse" x1="292.5939" y1="850.3889" x2="292.5939" y2="850.3889">
		<stop  offset="0" style="stop-color:#FABA48"/>
		<stop  offset="1" style="stop-color:#DC4076"/>
	</linearGradient>
	<path class="st2" d="M292.6,850.4"/>
	<linearGradient id="SVGID_4_" gradientUnits="userSpaceOnUse" x1="264.0939" y1="596.2156" x2="549.4871" y2="596.2156">
		<stop  offset="0" style="stop-color:#E72479"/>
		<stop  offset="1" style="stop-color:#F19C6D"/>
	</linearGradient>
	<path class="st3" d="M532.1,364.6C386.5,476.6,292.6,652.5,292.6,850.4"/>
	<linearGradient id="SVGID_5_" gradientUnits="userSpaceOnUse" x1="358.2812" y1="671.5527" x2="534.6459" y2="671.5527">
		<stop  offset="0" style="stop-color:#E72479"/>
		<stop  offset="1" style="stop-color:#F19C6D"/>
	</linearGradient>
	<path class="st4" d="M513.1,511.4c-78.7,90.9-126.3,209.4-126.3,339"/>
	<linearGradient id="SVGID_6_" gradientUnits="userSpaceOnUse" x1="480.9685" y1="850.3889" x2="480.9685" y2="850.3889">
		<stop  offset="0" style="stop-color:#FABA48"/>
		<stop  offset="1" style="stop-color:#DC4076"/>
	</linearGradient>
	<path class="st5" d="M481,850.4"/>
	<linearGradient id="SVGID_7_" gradientUnits="userSpaceOnUse" x1="452.4685" y1="742.5724" x2="557.1674" y2="742.5724">
		<stop  offset="0" style="stop-color:#E72479"/>
		<stop  offset="1" style="stop-color:#F19C6D"/>
	</linearGradient>
	<path class="st6" d="M532.1,648.4c-32.6,60.1-51.2,128.9-51.2,202"/>
	<linearGradient id="SVGID_8_" gradientUnits="userSpaceOnUse" x1="546.6558" y1="756.0393" x2="648.7672" y2="756.0393">
		<stop  offset="0" style="stop-color:#E72479"/>
		<stop  offset="1" style="stop-color:#F19C6D"/>
	</linearGradient>
	<path class="st7" d="M624.6,676.7c-31.3,50.4-49.4,109.9-49.4,173.7"/>
</g>
<line class="st8" x1="648.6" y1="850.4" x2="25.1" y2="850.4"/>
<line class="st8" x1="1635.7" y1="850.4" x2="1775.1" y2="850.4"/>
<g>
	<path d="M621.5,664.7c-1.8-1.1-3.2-2.5-4.2-4c-1-1.5-1.6-3-1.7-4.5l3.6-1.2c0.2,1.2,0.7,2.4,1.4,3.5c0.8,1.1,1.7,2.1,2.8,2.8
		c1.4,0.9,2.6,1.3,3.8,1.2c1.2-0.1,2-0.6,2.7-1.6c1.3-2,0.3-4-2.8-6c-1.4-0.9-2.3-1.4-2.5-1.5l2.1-3.3c0.2,0.2,1.1,0.7,2.4,1.6
		c1.3,0.8,2.5,1.3,3.6,1.3c1.1,0,1.9-0.4,2.5-1.4c0.6-1,0.7-1.9,0.2-3c-0.5-1-1.4-1.9-2.6-2.7c-2.1-1.3-4.4-1.7-7-1.1l-0.5-3.5
		c3.3-1,6.6-0.5,9.9,1.5c2.3,1.5,3.9,3.1,4.6,5.1c0.8,1.9,0.6,3.8-0.5,5.5c-0.8,1.3-2,2.1-3.4,2.4c-1.5,0.3-2.9,0.1-4.2-0.4
		c1.1,0.9,2,2.1,2.4,3.7c0.5,1.6,0.2,3.1-0.7,4.6c-1.1,1.8-2.8,2.9-5,3.1C626.2,666.9,623.9,666.2,621.5,664.7z"/>
	<path d="M637.5,674.2l-2.1-1.3l27-12.7l2.1,1.3L637.5,674.2z M644.4,663.1c-1.6-1-2.5-2.3-2.9-3.9c-0.4-1.6-0.1-3.2,0.9-4.7
		c1-1.5,2.2-2.5,3.9-2.9c1.6-0.4,3.2-0.1,4.7,0.9c1.6,1,2.5,2.3,2.9,3.9c0.4,1.6,0,3.2-0.9,4.7c-0.9,1.5-2.2,2.4-3.8,2.8
		C647.5,664.4,645.9,664.1,644.4,663.1z M645.7,661c0.8,0.5,1.7,0.7,2.6,0.4c0.9-0.3,1.6-0.8,2.2-1.7c0.6-1,0.8-1.9,0.7-2.8
		c-0.2-0.9-0.7-1.6-1.5-2.2c-0.8-0.5-1.7-0.7-2.6-0.4c-0.9,0.3-1.6,0.9-2.2,1.8c-0.6,0.9-0.8,1.8-0.6,2.8
		C644.4,659.8,644.9,660.5,645.7,661z M653.4,682.7c-1.6,0.4-3.2,0.1-4.7-0.9c-1.6-1-2.5-2.3-2.9-3.9c-0.4-1.6-0.1-3.2,0.9-4.7
		c1-1.5,2.2-2.5,3.9-2.9c1.6-0.4,3.2-0.1,4.7,0.9c1.6,1,2.5,2.3,2.8,3.9c0.3,1.6,0,3.2-0.9,4.7C656.3,681.4,655,682.3,653.4,682.7z
		 M648.5,677.5c0.2,0.9,0.6,1.6,1.5,2.2c0.8,0.5,1.7,0.7,2.6,0.4c0.9-0.3,1.6-0.8,2.2-1.7c0.6-1,0.8-1.9,0.7-2.8
		c-0.2-0.9-0.7-1.6-1.5-2.2c-0.8-0.5-1.7-0.7-2.6-0.4c-0.9,0.3-1.6,0.9-2.2,1.8C648.5,675.7,648.3,676.6,648.5,677.5z"/>
</g>
<g>
	<path d="M528.9,632.4c-1.9-1-3.3-2.3-4.4-3.7c-1.1-1.5-1.7-2.9-1.9-4.4l3.5-1.4c0.3,1.2,0.8,2.3,1.6,3.4c0.8,1.1,1.8,2,3,2.6
		c1.4,0.8,2.7,1.1,3.9,1c1.1-0.2,2-0.7,2.6-1.8c1.1-2.1,0.1-4-3.2-5.8c-1.5-0.8-2.3-1.3-2.6-1.4l1.9-3.5c0.3,0.2,1.1,0.6,2.5,1.4
		c1.4,0.8,2.6,1.1,3.7,1.1c1.1,0,1.9-0.5,2.4-1.5c0.5-1,0.6-2,0-3c-0.5-1-1.5-1.9-2.8-2.6c-2.2-1.2-4.5-1.4-7-0.7l-0.6-3.5
		c3.2-1.2,6.5-0.9,9.9,1c2.4,1.3,4,2.9,4.9,4.8c0.9,1.9,0.8,3.7-0.2,5.5c-0.8,1.4-1.9,2.2-3.3,2.6c-1.4,0.4-2.9,0.3-4.3-0.2
		c1.2,0.8,2.1,2,2.6,3.5c0.6,1.5,0.4,3.1-0.5,4.7c-1,1.9-2.6,3-4.8,3.4C533.7,634.3,531.4,633.8,528.9,632.4z"/>
	<path d="M545.4,641l-2.2-1.2l26.2-14.2l2.2,1.2L545.4,641z M551.6,629.6c-1.6-0.9-2.6-2.1-3.1-3.7c-0.4-1.6-0.2-3.2,0.6-4.7
		c0.9-1.6,2.1-2.6,3.7-3.1c1.6-0.5,3.2-0.3,4.8,0.6c1.6,0.9,2.7,2.2,3.1,3.8c0.4,1.6,0.2,3.2-0.6,4.8c-0.9,1.6-2.1,2.6-3.7,3
		C554.8,630.7,553.2,630.5,551.6,629.6z M552.8,627.4c0.9,0.5,1.7,0.6,2.6,0.3c0.9-0.3,1.6-0.9,2.1-1.9c0.5-1,0.7-1.9,0.5-2.8
		c-0.2-0.9-0.8-1.6-1.6-2.1c-0.9-0.5-1.7-0.6-2.6-0.3c-0.9,0.3-1.6,1-2.1,1.9c-0.5,0.9-0.7,1.9-0.5,2.8
		C551.5,626.3,552,627,552.8,627.4z M561.7,648.6c-1.6,0.5-3.2,0.2-4.8-0.6c-1.6-0.9-2.6-2.1-3.1-3.7c-0.4-1.6-0.2-3.2,0.6-4.7
		c0.9-1.6,2.1-2.6,3.7-3.1c1.6-0.5,3.2-0.3,4.8,0.6c1.6,0.9,2.6,2.1,3.1,3.8c0.4,1.6,0.2,3.2-0.6,4.8
		C564.5,647.1,563.3,648.1,561.7,648.6z M556.5,643.7c0.2,0.9,0.7,1.6,1.6,2.1c0.9,0.5,1.7,0.6,2.6,0.3c0.9-0.3,1.6-0.9,2.1-1.9
		c0.5-1,0.7-1.9,0.5-2.8c-0.2-0.9-0.8-1.6-1.6-2.1c-0.9-0.5-1.7-0.6-2.6-0.3c-0.9,0.3-1.6,1-2.1,1.9
		C556.5,641.9,556.3,642.8,556.5,643.7z"/>
</g>
<g>
	<path d="M514.8,495.7c-3-2.7-4.5-5.7-4.4-9.1l3.9-0.6c0,2.6,1,4.9,3.1,6.7c1.2,1,2.4,1.5,3.6,1.5s2.3-0.5,3.1-1.4
		c0.9-1,1.3-2.1,1.1-3.4c-0.1-1.2-0.8-2.3-1.9-3.3c-1.6-1.4-3.5-2.1-5.6-2l-1.7-2.7l9.3-10.5l12.3,10.9l-2.6,2.9l-9-8l-4.8,5.4
		c2.1-0.1,4,0.6,5.7,2.1c1.7,1.5,2.6,3.3,2.8,5.4c0.2,2.1-0.5,4.1-2.1,6c-1.7,1.9-3.7,2.9-6.1,2.9
		C519.2,498.5,517,497.5,514.8,495.7z"/>
	<path d="M529,507.6l-1.9-1.6l28.7-8.2l1.9,1.7L529,507.6z M537.6,497.8c-1.4-1.2-2.1-2.6-2.2-4.3c-0.1-1.6,0.5-3.1,1.6-4.5
		c1.2-1.4,2.6-2.1,4.3-2.2c1.7-0.1,3.2,0.4,4.5,1.6c1.4,1.2,2.1,2.7,2.2,4.3c0.1,1.7-0.5,3.2-1.7,4.5c-1.2,1.3-2.6,2.1-4.2,2.2
		C540.5,499.5,539,499,537.6,497.8z M543.3,518.5c-1.6,0.1-3.2-0.5-4.5-1.7c-1.4-1.2-2.1-2.6-2.2-4.3c-0.1-1.6,0.5-3.1,1.6-4.5
		c1.2-1.4,2.6-2.1,4.3-2.2c1.7-0.1,3.2,0.4,4.5,1.6c1.4,1.2,2.1,2.7,2.2,4.3c0.1,1.7-0.5,3.2-1.7,4.5
		C546.4,517.7,545,518.4,543.3,518.5z M539.2,495.9c0.7,0.6,1.6,0.9,2.5,0.8c0.9-0.1,1.8-0.6,2.5-1.4c0.7-0.8,1.1-1.7,1.1-2.7
		c0-0.9-0.4-1.7-1.1-2.4c-0.7-0.6-1.6-0.9-2.5-0.8c-0.9,0.1-1.8,0.6-2.5,1.4c-0.7,0.8-1.1,1.7-1.1,2.6
		C538.1,494.5,538.5,495.3,539.2,495.9z M539.3,512.6c0,0.9,0.4,1.7,1.1,2.4c0.7,0.6,1.6,0.9,2.5,0.8c0.9-0.1,1.8-0.6,2.5-1.4
		c0.7-0.8,1.1-1.7,1.1-2.7c0-0.9-0.4-1.7-1.1-2.4c-0.7-0.6-1.6-0.9-2.5-0.8c-0.9,0.1-1.8,0.6-2.5,1.4
		C539.7,510.8,539.3,511.7,539.3,512.6z"/>
</g>
<g>
	<path d="M539.7,346.9l-3-3.8l22.6-5.5l-8-10.3l3.1-2.4l11.1,14.3l-2.4,1.9L539.7,346.9z"/>
	<path d="M550.7,361.1l-1.5-2l29.7-2.7l1.5,2L550.7,361.1z M562.8,374.5c-1.6-0.2-3-1-4.1-2.5c-1.1-1.4-1.6-3-1.4-4.6
		c0.2-1.6,1-3,2.4-4.1c1.4-1.1,3-1.6,4.6-1.4c1.6,0.2,3,1,4.2,2.4c1.1,1.4,1.6,3,1.3,4.7c-0.2,1.7-1.1,3-2.5,4.1
		C565.9,374.2,564.4,374.7,562.8,374.5z M561,353c-1.1-1.4-1.6-3-1.4-4.6c0.2-1.6,1-3,2.4-4.1c1.4-1.1,3-1.6,4.6-1.4
		c1.7,0.2,3,1,4.2,2.4c1.1,1.5,1.6,3,1.4,4.7c-0.2,1.7-1.1,3-2.5,4.1c-1.4,1.1-2.9,1.5-4.6,1.3C563.5,355.3,562.1,354.5,561,353z
		 M559.9,367.9c-0.2,0.9,0,1.8,0.6,2.5c0.6,0.8,1.4,1.2,2.3,1.3c0.9,0.1,1.8-0.2,2.7-0.9c0.9-0.7,1.4-1.5,1.6-2.4
		c0.2-0.9-0.1-1.8-0.7-2.5c-0.6-0.8-1.4-1.2-2.3-1.3c-0.9-0.1-1.8,0.3-2.7,0.9C560.6,366.2,560.1,367,559.9,367.9z M562.9,351.5
		c0.6,0.8,1.4,1.2,2.3,1.3c0.9,0.1,1.8-0.2,2.7-0.9c0.9-0.7,1.4-1.5,1.6-2.4s-0.1-1.8-0.7-2.5s-1.4-1.2-2.3-1.3
		c-0.9-0.1-1.8,0.3-2.7,0.9c-0.9,0.7-1.4,1.5-1.5,2.4C562.1,349.9,562.3,350.7,562.9,351.5z"/>
</g>
<g>
	<path class="st9" d="M914.7,123.7l0-4.4l19.4-0.1l-4.3-4.1l2.7-2.6l7.3,7.2l0,3.8L914.7,123.7z"/>
	<path class="st9" d="M914.8,146.4l-0.1-18.2l3.5,0c4,5.2,7,8.8,8.9,10.7c1.9,1.9,3.8,2.8,5.5,2.8c1.2,0,2.2-0.5,2.8-1.4
		c0.7-0.9,1-2,1-3.2c0-2.8-1-5-3.1-6.8l2.9-2.6c1.3,1.1,2.3,2.4,3,4.1c0.7,1.6,1.1,3.4,1.1,5.2c0,2.6-0.7,4.7-2,6.5
		c-1.4,1.8-3.3,2.7-5.7,2.7c-2.2,0-4.3-0.9-6.5-2.7c-2.1-1.8-4.6-4.5-7.5-8.2l0.1,11.2L914.8,146.4z"/>
	<path class="st9" d="M916.2,174.1c-1.2-1.2-1.8-2.7-1.8-4.5c0-1.8,0.6-3.3,1.7-4.5c1.2-1.2,2.6-1.7,4.4-1.8c1.8,0,3.3,0.6,4.5,1.7
		c1.2,1.1,1.8,2.6,1.8,4.5c0,1.8-0.6,3.3-1.8,4.5c-1.2,1.2-2.7,1.8-4.5,1.8C918.9,175.8,917.4,175.2,916.2,174.1z M914.8,156.1
		l0-2.5l25.2,15.9l0,2.5L914.8,156.1z M918,167.2c-0.7,0.6-1,1.4-1,2.4s0.4,1.8,1.1,2.4c0.7,0.6,1.6,0.9,2.7,0.9c1.1,0,2-0.3,2.7-1
		c0.7-0.6,1-1.4,1-2.4c0-1-0.4-1.8-1-2.4c-0.7-0.6-1.6-0.9-2.7-0.9C919.5,166.2,918.6,166.6,918,167.2z M927.9,156
		c0-1.8,0.6-3.3,1.7-4.5c1.2-1.2,2.6-1.7,4.4-1.8c1.8,0,3.3,0.6,4.5,1.7c1.2,1.1,1.8,2.6,1.8,4.5c0,1.9-0.6,3.4-1.8,4.5
		c-1.2,1.2-2.7,1.8-4.5,1.8c-1.8,0-3.3-0.6-4.4-1.7C928.5,159.4,927.9,157.8,927.9,156z M930.3,156c0,1,0.4,1.8,1,2.4
		c0.7,0.6,1.6,0.9,2.7,0.9c1.1,0,2-0.3,2.7-1c0.7-0.6,1-1.4,1-2.4c0-1-0.4-1.8-1-2.4c-0.7-0.6-1.6-0.9-2.7-0.9c-1.1,0-2,0.3-2.7,1
		C930.7,154.2,930.3,155,930.3,156z"/>
</g>
<polyline class="st8" points="1705.4,850.4 1705.4,964 1478.7,964 1478.7,850.4 1437.9,850.4 "/>
<path class="st9" d="M1429.4,881.1h-81c-4.7,0-8.5-3.8-8.5-8.5v-41.4c0-4.7,3.8-8.5,8.5-8.5h81c4.7,0,8.5,3.8,8.5,8.5v41.4
	C1437.9,877.3,1434.1,881.1,1429.4,881.1z"/>
<g>
	<path class="st10" d="M1362,864.5l-3.5,0l10-22.4l-13.5,0.1l0-2.8l17.1-0.1l0,2.1L1362,864.5z"/>
	<path class="st10" d="M1384.9,864.8c-1.7,0-3.1-0.4-4.4-1.1c-1.3-0.8-2.3-1.8-3-3.1c-0.7-1.3-1.3-2.7-1.7-4.1
		c-0.4-1.5-0.6-3-0.6-4.6c0-1.6,0.2-3.2,0.5-4.6c0.4-1.5,0.9-2.9,1.6-4.1c0.7-1.3,1.7-2.3,3-3.1c1.3-0.8,2.7-1.2,4.4-1.2
		c1.6,0,3.1,0.4,4.4,1.1c1.3,0.8,2.3,1.8,3.1,3c0.7,1.3,1.3,2.6,1.7,4.1c0.4,1.5,0.6,3,0.6,4.6c0,1.6-0.2,3.2-0.5,4.6
		c-0.4,1.5-0.9,2.9-1.6,4.2c-0.7,1.3-1.7,2.3-3,3.1C1388,864.4,1386.6,864.8,1384.9,864.8z M1381.1,860.5c1,1,2.3,1.6,3.8,1.5
		c1.5,0,2.8-0.5,3.8-1.6c1-1,1.7-2.3,2.1-3.8c0.4-1.5,0.5-3.1,0.5-4.9c0-1.8-0.2-3.4-0.6-4.9c-0.4-1.5-1.1-2.7-2.1-3.7
		c-1-1-2.3-1.5-3.8-1.5c-1.5,0-2.8,0.5-3.8,1.6c-1,1-1.7,2.3-2.1,3.7c-0.4,1.5-0.5,3.1-0.5,4.9c0,1.8,0.2,3.4,0.6,4.9
		C1379.4,858.2,1380.1,859.4,1381.1,860.5z"/>
	<path class="st10" d="M1408,849.4c-1.1,1.2-2.6,1.8-4.4,1.8c-1.8,0-3.2-0.6-4.4-1.7c-1.1-1.2-1.7-2.6-1.7-4.4
		c0-1.8,0.5-3.3,1.7-4.5c1.1-1.2,2.6-1.8,4.3-1.8c1.8,0,3.2,0.6,4.4,1.8c1.1,1.2,1.7,2.7,1.7,4.5
		C1409.7,846.7,1409.1,848.2,1408,849.4z M1400.8,848c0.7,0.8,1.6,1.2,2.7,1.2c1.1,0,2-0.4,2.7-1.2c0.7-0.8,1.1-1.8,1.1-3
		c0-1.3-0.4-2.3-1.1-3.1c-0.7-0.8-1.6-1.2-2.8-1.2c-1.1,0-2,0.4-2.7,1.2c-0.7,0.8-1,1.9-1,3.1C1399.8,846.2,1400.1,847.2,1400.8,848
		z M1403.3,864.3l-2,0l15.9-25.2l2.1,0L1403.3,864.3z M1421.1,862.9c-1.1,1.2-2.6,1.8-4.4,1.8c-1.8,0-3.2-0.6-4.4-1.7
		c-1.1-1.2-1.7-2.6-1.7-4.4c0-1.8,0.5-3.3,1.7-4.5c1.1-1.2,2.6-1.8,4.3-1.8c1.8,0,3.2,0.6,4.4,1.8c1.1,1.2,1.7,2.7,1.7,4.5
		C1422.8,860.2,1422.2,861.7,1421.1,862.9z M1414,861.5c0.7,0.8,1.6,1.2,2.7,1.2c1.1,0,2-0.4,2.7-1.2c0.7-0.8,1.1-1.8,1.1-3
		c0-1.3-0.4-2.3-1.1-3.1c-0.7-0.8-1.6-1.2-2.8-1.2c-1.1,0-2,0.4-2.7,1.2c-0.7,0.8-1,1.9-1,3.1C1412.9,859.7,1413.3,860.7,1414,861.5
		z"/>
</g>
<g>
	<path class="st9" d="M842.8,803.8h-15.1v-57.2h-20.6v-13.2h56.1v13.2h-20.5V803.8z"/>
	<path class="st9" d="M915.8,797.3c-4.9,5.2-11.5,7.8-19.6,7.8c-8.2,0-14.7-2.6-19.6-7.8c-4.9-5.2-7.3-11.5-7.3-19
		c0-7.5,2.4-13.9,7.3-19c4.9-5.1,11.4-7.7,19.6-7.7c8.2,0,14.7,2.6,19.6,7.7c4.9,5.1,7.4,11.5,7.4,19
		C923.2,785.8,920.7,792.2,915.8,797.3z M886.7,788.9c2.3,2.8,5.5,4.3,9.5,4.3c4,0,7.2-1.4,9.5-4.3c2.4-2.8,3.5-6.4,3.5-10.6
		c0-4.1-1.2-7.6-3.5-10.5c-2.4-2.8-5.5-4.3-9.5-4.3c-4,0-7.2,1.4-9.5,4.3c-2.3,2.8-3.5,6.3-3.5,10.5
		C883.2,782.5,884.4,786.1,886.7,788.9z"/>
	<path class="st9" d="M982.9,803.8h-16.8l-13.5-19.6l-6.1,6.5v13.1h-13.4v-70.4h13.4v42.1l19.3-22.7h16.5L962.1,776L982.9,803.8z"/>
	<path class="st9" d="M1013.5,805.1c-7.9,0-14.4-2.5-19.5-7.4c-5.1-4.9-7.7-11.4-7.7-19.4c0-7.5,2.5-13.9,7.4-19
		c5-5.1,11.3-7.7,18.9-7.7c7.6,0,13.7,2.6,18.5,7.8c4.7,5.2,7.1,11.9,7.1,20.3v3h-37.9c0.4,3.4,1.9,6.2,4.5,8.4
		c2.6,2.3,6,3.4,10.1,3.4c2.2,0,4.7-0.5,7.3-1.4c2.6-0.9,4.7-2.1,6.3-3.7l5.9,8.6C1029.4,802.7,1022.4,805.1,1013.5,805.1z
		 M1025.2,773.6c-0.2-2.9-1.4-5.5-3.4-7.8c-2.1-2.3-5.1-3.5-9.1-3.5c-3.8,0-6.8,1.1-8.9,3.4c-2.1,2.3-3.3,4.9-3.7,7.9H1025.2z"/>
	<path class="st9" d="M1095.7,803.8h-13.4V773c0-6.3-3.1-9.5-9.4-9.5c-4.9,0-8.7,2-11.6,6v34.3h-13.4v-51h13.4v6.6
		c4.4-5.3,10.4-7.9,17.8-7.9c5.5,0,9.6,1.4,12.4,4.3c2.8,2.9,4.2,6.9,4.2,11.9V803.8z"/>
	<path class="st9" d="M1127.3,805.1c-4.4,0-8.7-0.7-12.7-2.1c-4-1.4-7.4-3.3-10.1-5.8l5.8-9.4c2,1.8,4.6,3.4,8,4.9
		c3.4,1.4,6.6,2.1,9.6,2.1c2.8,0,4.9-0.5,6.4-1.5c1.4-1,2.2-2.3,2.2-4c0-1.3-0.8-2.3-2.3-3.1c-1.5-0.8-3.4-1.4-5.6-1.7
		c-2.2-0.4-4.6-0.9-7.3-1.6c-2.6-0.7-5.1-1.5-7.3-2.5c-2.2-1-4.1-2.5-5.6-4.7c-1.5-2.1-2.3-4.8-2.3-8c0-4.5,1.9-8.3,5.6-11.4
		c3.7-3.1,8.8-4.6,15.3-4.6c7.9,0,14.7,2.3,20.6,7l-5.4,9.2c-1.6-1.7-3.8-3.1-6.5-4.2c-2.7-1.1-5.6-1.7-8.6-1.7
		c-2.4,0-4.3,0.5-5.8,1.4c-1.5,1-2.2,2.2-2.2,3.6c0,1.1,0.7,2.1,2.2,2.8c1.5,0.7,3.3,1.3,5.6,1.6c2.3,0.4,4.7,0.9,7.3,1.6
		c2.6,0.7,5,1.6,7.3,2.6c2.3,1,4.1,2.7,5.6,4.9c1.5,2.3,2.2,5,2.2,8.2c0,4.8-2,8.7-5.9,11.8C1139.6,803.6,1134.2,805.1,1127.3,805.1
		z"/>
	<path class="st9" d="M746.8,886.7h-27.7v-70.4h27.7c11,0,20,3.2,27,9.7c6.9,6.5,10.4,15,10.4,25.5c0,10.6-3.4,19-10.3,25.5
		C766.9,883.5,757.9,886.7,746.8,886.7z M746.8,873.5c6.8,0,12.1-2.1,16.1-6.3c4-4.2,6-9.4,6-15.6c0-6.5-1.9-11.8-5.8-15.9
		c-3.9-4.1-9.3-6.2-16.2-6.2h-12.8v44H746.8z"/>
	<path class="st9" d="M801.2,830.3c-2.2,0-4.1-0.8-5.6-2.4c-1.6-1.6-2.4-3.5-2.4-5.6c0-2.2,0.8-4,2.4-5.6c1.6-1.5,3.5-2.3,5.6-2.3
		c2.2,0,4.1,0.8,5.7,2.3c1.5,1.5,2.3,3.4,2.3,5.6c0,2.2-0.8,4.1-2.3,5.6C805.3,829.5,803.4,830.3,801.2,830.3z M807.9,886.7h-13.4
		v-51h13.4V886.7z"/>
	<path class="st9" d="M839.6,888c-4.4,0-8.7-0.7-12.7-2.1c-4-1.4-7.4-3.3-10.1-5.8l5.8-9.4c2,1.8,4.6,3.4,8,4.9
		c3.4,1.4,6.6,2.1,9.6,2.1c2.8,0,4.9-0.5,6.4-1.5c1.4-1,2.2-2.3,2.2-4c0-1.3-0.8-2.3-2.3-3.1c-1.5-0.8-3.4-1.4-5.6-1.7
		c-2.2-0.4-4.6-0.9-7.3-1.6c-2.6-0.7-5.1-1.5-7.3-2.5c-2.2-1-4.1-2.5-5.6-4.7c-1.5-2.1-2.3-4.8-2.3-8c0-4.5,1.9-8.3,5.6-11.4
		c3.7-3.1,8.8-4.6,15.3-4.6c7.9,0,14.7,2.3,20.6,7l-5.4,9.2c-1.6-1.7-3.8-3.1-6.5-4.2c-2.7-1.1-5.6-1.7-8.6-1.7
		c-2.4,0-4.3,0.5-5.8,1.4c-1.5,0.9-2.2,2.2-2.2,3.6c0,1.1,0.7,2.1,2.2,2.8c1.5,0.7,3.3,1.3,5.6,1.6c2.2,0.4,4.7,0.9,7.3,1.6
		c2.6,0.7,5,1.6,7.3,2.6c2.3,1,4.1,2.7,5.6,4.9c1.5,2.3,2.2,5,2.2,8.2c0,4.8-2,8.7-5.9,11.8C851.8,886.5,846.4,888,839.6,888z"/>
	<path class="st9" d="M888.6,888c-4.7,0-8.3-1.2-10.8-3.6c-2.5-2.4-3.7-5.8-3.7-10.3v-26.6h-8.4v-11.7h8.4v-13.9h13.5v13.9H898v11.7
		h-10.3v23c0,1.6,0.4,3,1.3,4c0.8,1.1,2,1.6,3.4,1.6c2.1,0,3.7-0.5,4.6-1.5l2.8,10.1C897.3,886.9,893.6,888,888.6,888z"/>
	<path class="st9" d="M920.6,886.7h-13.4v-51h13.4v7c1.9-2.4,4.3-4.4,7.3-5.9c3-1.5,5.9-2.3,9-2.3v13.1c-0.9-0.2-2.1-0.3-3.7-0.3
		c-2.3,0-4.6,0.6-7.2,1.7c-2.5,1.1-4.3,2.5-5.4,4.1V886.7z"/>
	<path class="st9" d="M951.8,830.3c-2.2,0-4.1-0.8-5.6-2.4c-1.6-1.6-2.4-3.5-2.4-5.6c0-2.2,0.8-4,2.4-5.6c1.6-1.5,3.5-2.3,5.6-2.3
		c2.2,0,4.1,0.8,5.7,2.3c1.5,1.5,2.3,3.4,2.3,5.6c0,2.2-0.8,4.1-2.3,5.6C955.9,829.5,954,830.3,951.8,830.3z M958.5,886.7h-13.4v-51
		h13.4V886.7z"/>
	<path class="st9" d="M985.2,886.7h-13.4v-70.4h13.4v26c4-5.2,9.2-7.8,15.7-7.8c6.6,0,12,2.4,16.2,7.3c4.2,4.9,6.3,11.4,6.3,19.5
		c0,8.3-2.1,14.8-6.3,19.6c-4.2,4.7-9.6,7.1-16.2,7.1c-6.3,0-11.6-2.6-15.7-7.8V886.7z M985.2,870.4c1.1,1.6,2.8,3,5,4.1
		c2.2,1.1,4.4,1.6,6.5,1.6c3.9,0,7-1.4,9.4-4.1c2.4-2.7,3.6-6.3,3.6-10.7c0-4.4-1.2-8-3.6-10.8c-2.4-2.7-5.5-4.1-9.4-4.1
		c-2.2,0-4.4,0.6-6.5,1.7c-2.2,1.1-3.8,2.5-5,4.2V870.4z"/>
	<path class="st9" d="M1081.4,886.7H1068v-6.4c-4.6,5.1-10.5,7.7-17.9,7.7c-5.5,0-9.6-1.4-12.3-4.2c-2.7-2.8-4.1-6.8-4.1-11.8v-36.2
		h13.4v30.9c0,6.3,3.1,9.4,9.4,9.4c4.7,0,8.6-1.9,11.6-5.8v-34.5h13.4V886.7z"/>
	<path class="st9" d="M1111.8,888c-4.7,0-8.3-1.2-10.8-3.6c-2.5-2.4-3.7-5.8-3.7-10.3v-26.6h-8.4v-11.7h8.4v-13.9h13.5v13.9h10.3
		v11.7h-10.3v23c0,1.6,0.4,3,1.3,4c0.8,1.1,2,1.6,3.4,1.6c2.1,0,3.7-0.5,4.6-1.5l2.8,10.1C1120.5,886.9,1116.8,888,1111.8,888z"/>
	<path class="st9" d="M1137,830.3c-2.2,0-4.1-0.8-5.6-2.4c-1.6-1.6-2.4-3.5-2.4-5.6c0-2.2,0.8-4,2.4-5.6c1.6-1.5,3.5-2.3,5.6-2.3
		c2.2,0,4.2,0.8,5.7,2.3c1.5,1.5,2.3,3.4,2.3,5.6c0,2.2-0.8,4.1-2.3,5.6C1141.2,829.5,1139.3,830.3,1137,830.3z M1143.8,886.7h-13.4
		v-51h13.4V886.7z"/>
	<path class="st9" d="M1200.3,880.2c-4.9,5.2-11.5,7.8-19.6,7.8s-14.7-2.6-19.6-7.8c-4.9-5.2-7.3-11.5-7.3-19c0-7.5,2.4-13.9,7.3-19
		c4.9-5.1,11.4-7.7,19.6-7.7s14.7,2.6,19.6,7.7c4.9,5.1,7.4,11.5,7.4,19C1207.7,868.7,1205.2,875.1,1200.3,880.2z M1171.2,871.8
		c2.3,2.8,5.5,4.3,9.5,4.3c4,0,7.2-1.4,9.5-4.3c2.4-2.8,3.5-6.4,3.5-10.6c0-4.1-1.2-7.6-3.5-10.5c-2.4-2.8-5.5-4.3-9.5-4.3
		c-4,0-7.2,1.4-9.5,4.3c-2.3,2.8-3.5,6.3-3.5,10.5C1167.7,865.4,1168.9,868.9,1171.2,871.8z"/>
	<path class="st9" d="M1265.4,886.7H1252v-30.8c0-6.3-3.1-9.5-9.4-9.5c-4.9,0-8.7,2-11.6,6v34.3h-13.4v-51h13.4v6.6
		c4.4-5.3,10.4-7.9,17.8-7.9c5.5,0,9.6,1.4,12.4,4.3c2.8,2.9,4.2,6.9,4.2,11.9V886.7z"/>
</g>
<g>
	<path d="M80.5,903.4c-3.6-3.6-5.4-7.8-5.5-12.5c-0.1-4.7,1.7-8.9,5.3-12.5c3.6-3.6,7.8-5.4,12.5-5.3s8.9,1.9,12.5,5.5
		c4.2,4.2,5.6,9.2,4.2,15l-5.4-1.8c0.4-1.6,0.4-3.3,0-5.1c-0.4-1.7-1.3-3.2-2.5-4.5c-2.4-2.4-5.2-3.5-8.4-3.5
		c-3.2,0.1-6.1,1.4-8.6,3.9c-2.5,2.5-3.8,5.4-3.9,8.6c-0.1,3.2,1.1,6,3.5,8.4c1.3,1.3,2.8,2.1,4.5,2.6c1.7,0.4,3.4,0.4,5,0l1.8,5.4
		C89.6,908.9,84.6,907.5,80.5,903.4z"/>
	<path d="M97.6,919.6l-3.8-3.8l17.4-17.4l3.8,3.8l-2.6,2.6c1.5-0.2,3.1-0.1,4.6,0.4c1.6,0.5,2.9,1.2,4,2.3l-3.7,3.7
		c-0.3-0.4-0.6-0.8-1.1-1.3c-0.8-0.8-1.9-1.4-3.2-1.8c-1.4-0.4-2.5-0.5-3.5-0.3L97.6,919.6z"/>
	<path d="M113.7,936.6c-2.7-2.7-4-5.7-3.8-9.1c0.1-3.4,1.5-6.4,4-8.9c2.6-2.6,5.5-3.9,8.9-4c3.4-0.1,6.4,1.2,9.1,3.8
		c2.7,2.7,4,5.8,3.9,9.1c-0.1,3.4-1.5,6.4-4,8.9c-2.6,2.6-5.6,3.9-9,4.1C119.5,940.6,116.4,939.3,113.7,936.6z M117.1,933.2
		c1.6,1.6,3.3,2.2,5.4,2c2-0.2,3.8-1.1,5.5-2.8c1.6-1.6,2.5-3.4,2.7-5.4c0.2-2-0.5-3.8-2-5.4c-1.5-1.5-3.3-2.2-5.3-2
		c-2,0.2-3.8,1.1-5.4,2.7c-1.6,1.6-2.6,3.5-2.8,5.5C114.9,929.9,115.5,931.7,117.1,933.2z"/>
	<path d="M146,968l-4-4l8.7-16.8L134,956l-4-4l12-22.8l3.9,3.9l-9,16.3l16.8-8.5l3.3,3.3l-8.5,16.8l16.3-9l3.9,3.9L146,968z"/>
	<path d="M170,992l-3.8-3.8l2.4-2.4c-3.3,0.4-6.1-0.5-8.4-2.8c-2.3-2.3-3.3-5-3.1-8c0.2-3.1,1.7-6,4.5-8.8c2.8-2.8,5.7-4.3,8.8-4.5
		c3.1-0.2,5.8,0.8,8.1,3.1c2.3,2.3,3.2,5.1,2.7,8.4l9-9l3.8,3.8L170,992z M164.7,980.9c0.9,0.9,2,1.5,3.2,1.9
		c1.3,0.4,2.5,0.5,3.6,0.3l6.9-6.9c0.2-1.1,0.2-2.3-0.2-3.6c-0.4-1.3-1-2.4-1.9-3.3c-1.5-1.5-3.2-2.1-5.2-1.9
		c-2,0.2-3.8,1.1-5.5,2.8c-1.7,1.7-2.6,3.5-2.8,5.5C162.5,977.6,163.2,979.4,164.7,980.9z"/>
	<path d="M192,1014.9c-4.1-4.1-6.1-8.6-5.9-13.6l5.6-0.9c-0.1,4.3,1.3,7.9,4.3,10.9c1.6,1.6,3.1,2.5,4.6,2.6
		c1.5,0.2,2.6-0.2,3.5-1.1c0.9-0.9,1.2-2.1,0.7-3.6c-0.4-1.5-1.2-3.1-2.2-4.8c-1.1-1.7-2.1-3.4-3-5.2c-0.9-1.8-1.4-3.7-1.3-5.7
		c0.1-2,0.9-3.8,2.6-5.4c2-2,4.5-2.9,7.4-2.6c2.9,0.3,5.7,1.7,8.3,4.3c3.7,3.7,5.6,7.8,5.6,12.3l-5.5,0.7c0-3.6-1.4-6.9-4.2-9.7
		c-1.2-1.2-2.5-2-3.8-2.2c-1.3-0.2-2.4,0.2-3.3,1.1c-0.6,0.6-0.8,1.4-0.7,2.3c0.1,0.9,0.4,1.9,1,3c0.6,1.1,1.2,2.2,2,3.5
		c0.8,1.2,1.5,2.5,2.1,3.9c0.6,1.3,1.1,2.7,1.4,4c0.3,1.3,0.3,2.7-0.1,4.1c-0.4,1.4-1.2,2.7-2.4,3.9c-2.2,2.2-4.7,3.2-7.7,3
		C198.1,1019.6,195.1,1018,192,1014.9z"/>
	<path d="M219.9,1041.9l-3.8-3.8l1.9-1.9c-2.9,0.2-5.5-0.9-7.9-3.3c-1.6-1.6-2.5-3.5-2.7-5.7c-0.2-2.2,0.6-4.3,2.4-6.1
		c1.8-1.8,3.9-2.6,6-2.4c2.2,0.3,4.1,1.2,5.7,2.8c2.5,2.5,3.6,5.1,3.4,7.8l2.6-2.6c1-1,1.4-2.2,1.3-3.5c-0.2-1.3-0.9-2.6-2.1-3.8
		c-1.9-1.9-4.4-2.9-7.3-2.9l1.1-4.2c3.8,0.1,7.2,1.6,10.1,4.5c2.1,2.1,3.4,4.4,3.7,6.7c0.3,2.3-0.6,4.6-2.8,6.8L219.9,1041.9z
		 M214.2,1031.8c1.9,1.9,3.9,2.7,5.9,2.3l2.6-2.6c0.3-2.1-0.4-4-2.3-5.9c-1.1-1.1-2.3-1.7-3.5-1.8c-1.3-0.1-2.4,0.3-3.3,1.2
		c-0.9,0.9-1.3,2-1.2,3.3C212.5,1029.6,213.1,1030.8,214.2,1031.8z"/>
	<path d="M228.6,1050.6l-3.8-3.8l24-24l3.8,3.8L228.6,1050.6z"/>
	<path d="M241.1,1063.9c-2.6-2.6-4-5.7-4-9.1c0-3.4,1.3-6.5,4-9.2c2.5-2.5,5.5-3.9,9-4c3.4-0.1,6.4,1.1,9,3.7
		c2.6,2.6,3.7,5.5,3.5,8.9c-0.2,3.3-1.7,6.4-4.4,9.2l-0.9,0.9l-13.4-13.4c-1.2,1.5-1.8,3.2-1.7,5.1c0.1,1.9,0.9,3.6,2.5,5.2
		c0.9,0.9,1.9,1.6,3.2,2.2c1.2,0.6,2.5,0.8,3.6,0.8l-0.8,4.2C247.2,1068.4,244,1066.9,241.1,1063.9z M256.2,1058
		c1.2-1.2,1.8-2.8,1.9-4.5c0.1-1.8-0.6-3.4-2.2-5c-1.5-1.5-3.1-2.2-4.9-2.1c-1.8,0.1-3.3,0.7-4.6,1.8L256.2,1058z"/>
</g>
<g>
	<path d="M183.8,897.2l-2.5-2.5l20.4-20.4l8.2,8.2c2,2,3,4.1,2.9,6.5c0,2.3-0.9,4.4-2.7,6.1c-1.7,1.7-3.8,2.6-6.1,2.7
		c-2.3,0-4.5-0.9-6.4-2.9l-5.7-5.7L183.8,897.2z M199.5,892.1c1.2,1.2,2.5,1.8,4,1.9c1.5,0,2.8-0.5,3.9-1.7c1.1-1.1,1.7-2.5,1.7-3.9
		c0-1.5-0.6-2.8-1.9-4L202,879l-7.8,7.8L199.5,892.1z"/>
	<path d="M201.4,914.8l-2.3-2.3l14.8-14.8l2.3,2.3l-2.4,2.4c3.2-0.4,5.7,0.3,7.6,2.2l-2.4,2.4c-0.2-0.3-0.5-0.7-0.8-1
		c-0.7-0.7-1.7-1.2-3-1.5c-1.3-0.3-2.4-0.4-3.4-0.1L201.4,914.8z"/>
	<path d="M222.9,932.5c-2.8,0.2-5.3-0.9-7.6-3.1c-2.2-2.2-3.2-4.7-3.1-7.6c0.2-2.8,1.3-5.3,3.5-7.6c2.2-2.2,4.7-3.4,7.5-3.5
		c2.8-0.1,5.3,0.9,7.5,3.1c2.2,2.2,3.2,4.7,3.1,7.5c-0.1,2.8-1.3,5.3-3.5,7.5C228.3,931.2,225.7,932.4,222.9,932.5z M215.5,922.1
		c-0.2,2,0.4,3.8,1.9,5.3c1.5,1.5,3.3,2.1,5.3,1.9c2-0.2,3.8-1.1,5.4-2.7c1.6-1.6,2.5-3.4,2.7-5.4s-0.4-3.7-1.9-5.2
		c-1.5-1.5-3.3-2.2-5.3-1.9c-2,0.2-3.8,1.1-5.4,2.7C216.6,918.3,215.7,920.1,215.5,922.1z"/>
	<path d="M218.7,944.1c-1.2-1.2-1.9-2.7-2.1-4.3l2.6-0.9c0,1.3,0.4,2.3,1.2,3.1c0.7,0.7,1.5,1.1,2.4,1.1c0.9,0,1.8-0.5,2.6-1.4
		l16.2-16.2l2.3,2.3l-16.2,16.2c-1.5,1.5-3,2.2-4.5,2.2C221.6,946.2,220.1,945.5,218.7,944.1z M244.8,924.4
		c-0.4-0.4-0.6-0.9-0.6-1.5c0-0.6,0.2-1.1,0.6-1.5c0.4-0.4,1-0.6,1.6-0.6c0.6,0,1.1,0.2,1.5,0.6c0.4,0.4,0.6,0.9,0.6,1.6
		c0,0.6-0.2,1.1-0.6,1.6c-0.4,0.4-0.9,0.6-1.5,0.6C245.8,925,245.3,924.8,244.8,924.4z"/>
	<path d="M240,954.1c-2.2-2.2-3.3-4.7-3.3-7.6c0-2.8,1.2-5.4,3.5-7.7c2.2-2.2,4.7-3.3,7.6-3.4c2.9-0.1,5.4,0.9,7.5,3
		c2.2,2.2,3.2,4.7,2.9,7.4c-0.2,2.8-1.5,5.3-3.8,7.6l-0.6,0.6l-12-12c-1.3,1.6-2,3.3-2.1,5.2c0,1.9,0.7,3.7,2.3,5.2
		c1.8,1.8,4,2.7,6.4,2.7l-0.4,2.6C245.1,957.7,242.4,956.5,240,954.1z M253.3,950c1.2-1.3,2-2.9,2.1-4.7c0.2-1.8-0.5-3.5-2.1-5.1
		c-1.5-1.5-3.1-2.1-5-2c-1.9,0.2-3.4,0.8-4.8,2.1L253.3,950z"/>
	<path d="M257.1,971.2c-2.2-2.2-3.2-4.7-3.1-7.5c0.1-2.8,1.3-5.4,3.5-7.6c2.2-2.2,4.8-3.4,7.6-3.5c2.8-0.1,5.4,0.9,7.5,3.1
		c2.3,2.3,3.2,5,2.8,8l-2.9-0.1c0.3-2.2-0.3-4.1-1.8-5.7c-1.6-1.6-3.3-2.3-5.3-2.1c-2,0.1-3.8,1-5.5,2.7c-1.7,1.7-2.6,3.5-2.7,5.5
		c-0.1,2,0.6,3.8,2.1,5.3c1.6,1.6,3.5,2.2,5.7,1.8l0.1,2.9C262,974.4,259.4,973.5,257.1,971.2z"/>
	<path d="M269.5,983.6c-1.1-1.1-1.6-2.2-1.6-3.3c0-1.1,0.6-2.3,1.7-3.4l9.7-9.7l-2.5-2.5l2-2l2.5,2.5l4-4l2.3,2.3l-4,4l3,3l-2,2
		l-3-3l-9.2,9.2c-0.6,0.6-0.9,1.2-1,1.8s0.1,1.1,0.6,1.6c0.7,0.7,1.4,1,2.2,1l-1,2.4C271.9,985.3,270.6,984.7,269.5,983.6z"/>
	<path d="M290.7,1004.1l-2.5-2.5l18.2-18.2l-6.5-6.5l2.3-2.3l15.5,15.5l-2.3,2.3l-6.5-6.5L290.7,1004.1z"/>
	<path d="M306.8,1020.9c-2.2-2.2-3.3-4.7-3.3-7.6c0-2.8,1.2-5.4,3.5-7.7c2.2-2.2,4.7-3.3,7.6-3.4c2.9-0.1,5.4,0.9,7.5,3
		c2.2,2.2,3.2,4.7,2.9,7.4c-0.2,2.8-1.5,5.3-3.8,7.6l-0.6,0.6l-12-12c-1.3,1.6-2,3.3-2.1,5.2c0,1.9,0.7,3.7,2.3,5.2
		c1.8,1.8,4,2.7,6.4,2.7l-0.4,2.6C311.9,1024.5,309.2,1023.3,306.8,1020.9z M320.1,1016.8c1.2-1.3,2-2.9,2.1-4.7
		c0.2-1.8-0.5-3.5-2.1-5.1c-1.5-1.5-3.1-2.1-5-2c-1.8,0.2-3.4,0.8-4.8,2.1L320.1,1016.8z"/>
	<path d="M329.3,1042.6l-2.3-2.3l1.7-1.7c-2.6,0.1-4.9-0.8-7-2.8c-1.4-1.4-2.1-3-2.3-4.9c-0.2-1.9,0.5-3.6,2-5.1
		c1.6-1.6,3.3-2.2,5.1-2.1c1.9,0.2,3.5,1,4.9,2.4c2.1,2.1,3.1,4.4,2.9,6.9l2.7-2.7c1-1,1.4-2.1,1.3-3.3c-0.1-1.2-0.8-2.4-1.9-3.5
		c-1.7-1.7-3.9-2.6-6.6-2.5l0.5-2.7c3.2-0.1,6,1.1,8.4,3.5c1.7,1.7,2.7,3.5,2.9,5.4c0.2,1.9-0.5,3.7-2.2,5.4L329.3,1042.6z
		 M324.2,1035c1.8,1.8,3.8,2.6,5.9,2.2l2.8-2.8c0.3-2.1-0.4-4.1-2.2-5.9c-1.1-1.1-2.2-1.6-3.5-1.7c-1.3-0.1-2.4,0.4-3.4,1.3
		c-0.9,0.9-1.4,2.1-1.3,3.3C322.5,1032.7,323.1,1033.9,324.2,1035z"/>
	<path d="M354,1067.4l-2.3-2.3l10-10c2-2,2.2-4,0.3-5.8c-0.7-0.7-1.7-1.2-2.9-1.5c-1.2-0.3-2.3-0.3-3.3-0.1l-10.8,10.8l-2.3-2.3
		l10-10c2-2,2.2-4,0.3-5.8c-0.7-0.7-1.7-1.2-2.8-1.5c-1.2-0.3-2.3-0.3-3.4-0.1l-10.8,10.8l-2.3-2.3l14.8-14.8l2.3,2.3l-2.1,2.1
		c0.9-0.2,2.1-0.1,3.6,0.2c1.5,0.4,2.7,1,3.7,2c1.1,1.1,1.7,2.2,1.9,3.4c0.2,1.2-0.1,2.3-0.6,3.3c1.2-0.3,2.5-0.2,4,0.1
		c1.5,0.4,2.7,1.1,3.7,2.1c2.8,2.8,2.6,5.6-0.3,8.6L354,1067.4z"/>
</g>
<g>
	<path d="M296.6,909.5l-3-3l2.9-13.3l-4.1-4.1l-8.1,8.1l-2.5-2.5l20.4-20.4l8.2,8.2c1.9,1.9,2.9,4,2.9,6.3c0.1,2.3-0.8,4.4-2.7,6.3
		c-1.8,1.8-3.7,2.6-5.7,2.7c-2.1,0-3.9-0.7-5.5-2L296.6,909.5z M300,892.2c1.2,1.2,2.6,1.8,4,1.8c1.5,0,2.8-0.5,4-1.7
		c1.1-1.1,1.7-2.5,1.7-3.9c0-1.5-0.6-2.8-1.9-4l-5.4-5.4l-7.8,7.8L300,892.2z"/>
	<path d="M306.6,920.2c-2.2-2.2-3.3-4.7-3.3-7.6c0-2.8,1.2-5.4,3.5-7.7c2.2-2.2,4.7-3.3,7.6-3.4c2.9-0.1,5.4,0.9,7.5,3
		c2.2,2.2,3.2,4.7,2.9,7.4s-1.5,5.3-3.8,7.6l-0.6,0.6l-12-12c-1.3,1.6-2,3.3-2.1,5.2c0,1.9,0.7,3.7,2.3,5.2c1.8,1.8,4,2.7,6.4,2.7
		l-0.4,2.6C311.7,923.9,309,922.6,306.6,920.2z M319.9,916.1c1.2-1.3,2-2.9,2.1-4.7c0.2-1.8-0.5-3.5-2.1-5.1c-1.5-1.5-3.1-2.1-5-2
		c-1.8,0.2-3.4,0.8-4.8,2.1L319.9,916.1z"/>
	<path d="M321.9,935.5c-2.5-2.5-3.7-5.3-3.6-8.3l2.8-0.5c-0.1,1.1,0.1,2.3,0.6,3.6c0.5,1.3,1.2,2.4,2.2,3.4c1.1,1.1,2.2,1.7,3.3,1.9
		c1.1,0.1,2-0.2,2.8-0.9c0.7-0.7,0.9-1.5,0.6-2.5c-0.3-1-0.7-2.1-1.4-3.1c-0.7-1.1-1.4-2.2-2-3.4c-0.6-1.2-1-2.4-1-3.6
		c0-1.3,0.5-2.4,1.5-3.4c1.2-1.2,2.7-1.7,4.5-1.5c1.8,0.2,3.6,1.1,5.3,2.8c2.2,2.2,3.3,4.8,3.3,7.6L338,928c0.2-2.3-0.6-4.4-2.5-6.3
		c-1-1-2-1.6-3.1-1.7c-1-0.2-1.9,0.1-2.6,0.8c-0.6,0.6-0.7,1.4-0.4,2.3c0.3,1,0.8,2,1.5,3.1c0.7,1.1,1.4,2.2,2,3.4
		c0.6,1.2,0.9,2.4,0.9,3.7c0,1.3-0.6,2.5-1.6,3.5c-1.3,1.3-2.9,1.9-4.7,1.7C325.5,938.3,323.7,937.3,321.9,935.5z"/>
	<path d="M338.1,951.7c-2.2-2.2-3.3-4.7-3.3-7.6c0-2.8,1.2-5.4,3.5-7.7c2.2-2.2,4.7-3.3,7.6-3.4c2.9-0.1,5.4,0.9,7.5,3
		c2.2,2.2,3.2,4.7,2.9,7.4c-0.2,2.8-1.5,5.3-3.8,7.6l-0.6,0.6l-12-12c-1.3,1.6-2,3.3-2.1,5.2c0,1.9,0.7,3.7,2.3,5.2
		c1.8,1.8,4,2.7,6.4,2.7l-0.4,2.6C343.2,955.3,340.5,954.1,338.1,951.7z M351.4,947.6c1.2-1.3,2-2.9,2.1-4.7
		c0.2-1.8-0.5-3.6-2.1-5.1c-1.5-1.5-3.1-2.1-5-2c-1.8,0.2-3.4,0.8-4.8,2.1L351.4,947.6z"/>
	<path d="M351.3,964.2l-2.3-2.3l14.8-14.8l2.3,2.3l-2.4,2.4c3.2-0.4,5.7,0.3,7.6,2.2l-2.4,2.4c-0.2-0.3-0.5-0.7-0.8-1
		c-0.7-0.7-1.7-1.2-3-1.5c-1.3-0.3-2.4-0.4-3.4-0.1L351.3,964.2z"/>
	<path d="M365.6,978.5l-2.5-2.5l8.6-21l2.5,2.5l-7.2,17.1l17-7.2l2.5,2.5L365.6,978.5z"/>
	<path d="M380.5,994.1c-2.2-2.2-3.3-4.7-3.3-7.6c0-2.8,1.2-5.4,3.5-7.7c2.2-2.2,4.7-3.3,7.6-3.4c2.9-0.1,5.4,0.9,7.5,3
		c2.2,2.2,3.2,4.7,2.9,7.4c-0.2,2.8-1.5,5.3-3.8,7.6l-0.6,0.6l-12-12c-1.3,1.6-2,3.3-2.1,5.2c0,1.9,0.7,3.7,2.3,5.2
		c1.8,1.8,4,2.7,6.4,2.7l-0.4,2.6C385.6,997.7,382.9,996.5,380.5,994.1z M393.8,990c1.2-1.3,2-2.9,2.1-4.7c0.2-1.9-0.5-3.6-2.1-5.1
		c-1.5-1.5-3.1-2.1-5-2c-1.8,0.2-3.4,0.8-4.8,2.1L393.8,990z"/>
	<path d="M401.9,1014.8l-2.5-2.5l20.4-20.4l13.4,13.4l-2.3,2.3l-10.8-10.8l-6.6,6.6l10.6,10.6l-2.3,2.3l-10.6-10.6L401.9,1014.8z"/>
	<path d="M428.4,1041.3l-2.3-2.3l2.1-2.1c-1.3,0.1-2.7-0.1-4.1-0.6c-1.4-0.5-2.6-1.2-3.7-2.2c-3.1-3.1-3.1-6.3,0-9.4l10.4-10.4
		l2.3,2.3l-9.7,9.7c-1.2,1.2-1.8,2.4-1.8,3.4c0.1,1.1,0.6,2.1,1.7,3.2c0.9,0.9,1.9,1.5,3.1,1.9c1.2,0.4,2.4,0.5,3.5,0.3l10.9-10.9
		l2.3,2.3L428.4,1041.3z"/>
	<path d="M445.3,1058.2l-2.3-2.3l9.7-9.7c1.2-1.2,1.8-2.4,1.8-3.5c-0.1-1.1-0.6-2.2-1.7-3.2c-0.9-0.9-1.9-1.5-3.2-1.8
		c-1.3-0.4-2.4-0.4-3.5-0.3l-10.8,10.8l-2.3-2.3l14.8-14.8l2.3,2.3l-2.1,2.1c1.2-0.1,2.6,0.1,4.1,0.5c1.5,0.5,2.7,1.2,3.7,2.2
		c3.1,3.1,3.1,6.3-0.1,9.5L445.3,1058.2z"/>
	<path d="M462.9,1075.8l-2.3-2.3l2.2-2.2c-3,0.4-5.5-0.4-7.6-2.4c-2-2-2.8-4.2-2.7-6.9c0.2-2.6,1.5-5.1,3.8-7.5
		c2.3-2.3,4.8-3.6,7.5-3.8c2.6-0.2,4.9,0.7,6.9,2.6c2,2,2.8,4.6,2.4,7.6l7.9-7.9l2.3,2.3L462.9,1075.8z M457.9,1067.4
		c0.9,0.9,2,1.5,3.2,1.9c1.3,0.4,2.4,0.4,3.5,0.2l6.7-6.7c0.2-1.1,0.2-2.3-0.2-3.6s-1-2.4-1.9-3.2c-1.4-1.5-3.1-2.1-5.1-1.9
		c-1.9,0.2-3.7,1.2-5.4,2.8c-1.7,1.7-2.6,3.5-2.8,5.4C455.8,1064.3,456.4,1066,457.9,1067.4z"/>
</g>
<g>
	<path d="M375,897l-2.5-2.5l20.4-20.4l13.4,13.4l-2.3,2.3l-10.8-10.8l-6.6,6.6l10.6,10.6l-2.3,2.3l-10.6-10.6L375,897z"/>
	<path d="M391.5,913.5l-2.3-2.3l14.8-14.8l2.3,2.3L391.5,913.5z M407.3,895.5c-0.4-0.4-0.6-0.9-0.6-1.5c0-0.6,0.2-1.1,0.6-1.5
		c0.4-0.4,0.9-0.6,1.6-0.6c0.6,0,1.1,0.2,1.5,0.6c0.4,0.4,0.6,0.9,0.6,1.6c0,0.6-0.2,1.1-0.6,1.6c-0.4,0.4-0.9,0.6-1.5,0.6
		C408.2,896.1,407.7,895.9,407.3,895.5z"/>
	<path d="M398.4,920.4l-2.3-2.3l14.8-14.8l2.3,2.3l-2.4,2.4c3.2-0.4,5.7,0.3,7.6,2.2l-2.4,2.4c-0.2-0.3-0.5-0.7-0.8-1
		c-0.7-0.7-1.7-1.2-3-1.5c-1.3-0.3-2.4-0.4-3.4-0.1L398.4,920.4z"/>
	<path d="M410.5,933.3c-2.5-2.5-3.7-5.3-3.6-8.3l2.8-0.5c-0.1,1.1,0.1,2.3,0.6,3.6c0.5,1.3,1.2,2.4,2.2,3.4c1.1,1.1,2.2,1.7,3.3,1.9
		c1.1,0.1,2-0.2,2.8-0.9c0.7-0.7,0.9-1.5,0.6-2.5c-0.3-1-0.7-2.1-1.4-3.1c-0.7-1.1-1.4-2.2-2-3.4c-0.6-1.2-1-2.4-1-3.6
		c0-1.3,0.5-2.4,1.5-3.4c1.2-1.2,2.7-1.7,4.5-1.5c1.8,0.2,3.6,1.1,5.3,2.8c2.2,2.2,3.3,4.8,3.3,7.6l-2.7,0.5
		c0.2-2.3-0.6-4.4-2.5-6.3c-1-1-2-1.6-3.1-1.7c-1-0.2-1.9,0.1-2.6,0.8c-0.6,0.6-0.7,1.4-0.4,2.3c0.3,1,0.8,2,1.5,3.1
		c0.7,1.1,1.4,2.2,2,3.4c0.6,1.2,0.9,2.4,0.9,3.7c0,1.3-0.6,2.5-1.6,3.5c-1.3,1.3-2.9,1.9-4.7,1.7
		C414.2,936.1,412.4,935.1,410.5,933.3z"/>
	<path d="M423.8,946.6c-1.1-1.1-1.6-2.2-1.6-3.3c0-1.1,0.6-2.3,1.7-3.4l9.7-9.7l-2.5-2.5l2-2l2.5,2.5l4-4l2.3,2.3l-4,4l3,3l-2,2
		l-3-3l-9.2,9.2c-0.6,0.6-0.9,1.2-1,1.8s0.1,1.2,0.6,1.6c0.7,0.7,1.4,1,2.2,0.9l-1,2.4C426.2,948.3,425,947.7,423.8,946.6z"/>
	<path d="M446.8,968.8l-9.3-9.3l20.4-20.4l9.1,9.1c1.8,1.8,2.7,3.6,2.7,5.6c0.1,2-0.7,3.8-2.2,5.3c-1.2,1.2-2.6,1.9-4.2,2.1
		c-1.5,0.2-2.9-0.2-4.1-1c0.9,1.2,1.3,2.8,1.1,4.5c-0.2,1.8-0.9,3.3-2.1,4.5c-1.7,1.7-3.5,2.5-5.6,2.4
		C450.6,971.6,448.6,970.6,446.8,968.8z M448.5,966c1.2,1.2,2.4,1.8,3.7,1.8c1.3,0,2.5-0.5,3.6-1.6c1-1,1.5-2.2,1.5-3.5
		c0-1.3-0.6-2.6-1.8-3.8l-6.2-6.3l-7,7L448.5,966z M457.7,956.6c1.1,1.1,2.3,1.7,3.5,1.7s2.3-0.5,3.3-1.4c1-1,1.4-2.1,1.4-3.3
		c0-1.2-0.6-2.4-1.7-3.5l-6.1-6.1l-6.6,6.6L457.7,956.6z"/>
	<path d="M470.3,988.6c-2.8,0.2-5.3-0.9-7.6-3.1c-2.2-2.2-3.2-4.7-3.1-7.6c0.2-2.8,1.3-5.3,3.5-7.6c2.2-2.2,4.7-3.4,7.5-3.5
		c2.8-0.1,5.3,0.9,7.5,3.1c2.2,2.2,3.2,4.7,3.1,7.5c-0.1,2.8-1.3,5.3-3.5,7.5C475.6,987.2,473.1,988.4,470.3,988.6z M462.9,978.2
		c-0.2,2,0.4,3.8,1.9,5.3c1.5,1.5,3.3,2.1,5.3,1.9c2-0.2,3.8-1.1,5.4-2.7c1.6-1.6,2.5-3.4,2.7-5.4s-0.4-3.7-1.9-5.2
		c-1.5-1.5-3.3-2.2-5.3-1.9c-2,0.2-3.8,1.1-5.4,2.7C464,974.4,463.1,976.2,462.9,978.2z"/>
	<path d="M486.5,1008.5l-2.3-2.3l9.7-9.7c1.2-1.2,1.8-2.4,1.8-3.5c-0.1-1.1-0.6-2.2-1.7-3.2c-0.9-0.9-1.9-1.5-3.2-1.8
		c-1.3-0.4-2.4-0.4-3.5-0.3l-10.8,10.8l-2.3-2.3l14.8-14.8l2.3,2.3l-2.1,2.1c1.2-0.1,2.6,0.1,4.1,0.5c1.5,0.5,2.7,1.2,3.7,2.2
		c3.1,3.1,3.1,6.3-0.1,9.5L486.5,1008.5z"/>
	<path d="M503.3,1025.3l-2.3-2.3l2.1-2.1c-1.3,0.1-2.7-0.1-4.1-0.6c-1.4-0.5-2.6-1.2-3.7-2.3c-3.1-3.1-3.1-6.3,0-9.4l10.4-10.4
		l2.3,2.3l-9.7,9.7c-1.2,1.2-1.8,2.4-1.8,3.4c0.1,1.1,0.6,2.1,1.7,3.2c0.9,0.9,1.9,1.5,3.1,1.9c1.2,0.4,2.4,0.5,3.5,0.3l10.9-10.9
		l2.3,2.3L503.3,1025.3z"/>
	<path d="M512.3,1035c-2.5-2.5-3.7-5.3-3.6-8.3l2.8-0.5c-0.1,1.1,0.1,2.3,0.6,3.6c0.5,1.3,1.2,2.4,2.2,3.4c1.1,1.1,2.2,1.7,3.3,1.9
		c1.1,0.1,2-0.2,2.8-0.9c0.7-0.7,0.9-1.5,0.6-2.5c-0.3-1-0.7-2.1-1.4-3.1c-0.7-1.1-1.4-2.2-2-3.4c-0.6-1.2-1-2.4-1-3.6
		c0-1.3,0.5-2.4,1.5-3.4c1.2-1.2,2.7-1.7,4.5-1.5c1.8,0.2,3.6,1.1,5.3,2.8c2.2,2.2,3.3,4.8,3.3,7.6l-2.7,0.5
		c0.2-2.3-0.6-4.4-2.5-6.3c-1-1-2-1.6-3.1-1.7c-1-0.2-1.9,0.1-2.6,0.8c-0.6,0.6-0.7,1.4-0.4,2.3c0.3,1,0.8,2,1.5,3.1
		c0.7,1.1,1.4,2.2,2,3.4c0.6,1.2,0.9,2.4,0.9,3.7c0,1.3-0.6,2.5-1.6,3.5c-1.3,1.3-2.9,1.9-4.7,1.7S514.1,1036.8,512.3,1035z"/>
	<path d="M537.8,1059.8l-2.5-2.5l18.2-18.2l-6.5-6.5l2.3-2.3l15.5,15.5l-2.3,2.3l-6.5-6.5L537.8,1059.8z"/>
	<path d="M561.2,1079.5c-2.8,0.2-5.3-0.9-7.6-3.1c-2.2-2.2-3.2-4.7-3.1-7.6c0.2-2.8,1.3-5.3,3.5-7.6c2.2-2.2,4.7-3.4,7.5-3.5
		c2.8-0.1,5.3,0.9,7.5,3.1c2.2,2.2,3.2,4.7,3.1,7.5c-0.1,2.8-1.3,5.3-3.5,7.5C566.5,1078.1,564,1079.3,561.2,1079.5z M553.8,1069.1
		c-0.2,2,0.4,3.8,1.9,5.3c1.5,1.5,3.3,2.1,5.3,1.9c2-0.2,3.8-1.1,5.4-2.7c1.6-1.6,2.5-3.4,2.7-5.4c0.2-2-0.4-3.7-1.9-5.2
		c-1.5-1.5-3.3-2.2-5.3-1.9c-2,0.2-3.8,1.1-5.4,2.7C554.9,1065.3,554,1067.1,553.8,1069.1z"/>
	<path d="M577.4,1099.4l-2.3-2.3l2.1-2.1c-1.3,0.1-2.7-0.1-4.1-0.6c-1.4-0.5-2.6-1.2-3.7-2.3c-3.1-3.1-3.1-6.3,0-9.4l10.4-10.4
		l2.3,2.3l-9.7,9.7c-1.2,1.2-1.8,2.4-1.8,3.4c0.1,1.1,0.6,2.2,1.7,3.2c0.9,0.9,1.9,1.5,3.1,1.9c1.2,0.4,2.4,0.5,3.5,0.3l10.9-10.9
		l2.3,2.3L577.4,1099.4z"/>
	<path d="M584.2,1106.3l-2.3-2.3l14.8-14.8l2.3,2.3l-2.4,2.4c3.2-0.4,5.7,0.3,7.6,2.2l-2.4,2.4c-0.2-0.3-0.5-0.7-0.8-1
		c-0.7-0.7-1.7-1.2-3-1.5c-1.3-0.3-2.4-0.4-3.4-0.1L584.2,1106.3z"/>
	<path d="M604.3,1126.4l-2.3-2.3l9.7-9.7c1.2-1.2,1.8-2.4,1.8-3.5c-0.1-1.1-0.6-2.2-1.7-3.2c-0.9-0.9-1.9-1.5-3.2-1.8
		c-1.3-0.4-2.4-0.4-3.5-0.3l-10.8,10.8l-2.3-2.3l14.8-14.8l2.3,2.3l-2.1,2.1c1.2-0.1,2.6,0.1,4.1,0.5c1.5,0.5,2.7,1.2,3.7,2.2
		c3.1,3.1,3.1,6.3-0.1,9.5L604.3,1126.4z"/>
	<path d="M620.5,1142.5l-2.3-2.3l1.7-1.7c-2.6,0.1-4.9-0.8-7-2.8c-1.4-1.4-2.1-3-2.3-4.9c-0.2-1.9,0.5-3.6,2-5.1
		c1.6-1.6,3.3-2.2,5.1-2.1c1.9,0.2,3.5,1,4.9,2.4c2.1,2.1,3.1,4.4,2.9,6.9l2.7-2.7c1-1,1.4-2.1,1.3-3.3c-0.1-1.2-0.8-2.4-1.9-3.5
		c-1.7-1.7-3.9-2.6-6.6-2.5l0.5-2.7c3.2-0.1,6,1.1,8.4,3.5c1.7,1.7,2.7,3.5,2.9,5.4c0.2,1.9-0.5,3.7-2.2,5.4L620.5,1142.5z
		 M615.4,1134.8c1.8,1.8,3.8,2.6,5.9,2.2l2.8-2.8c0.3-2.1-0.4-4.1-2.2-5.9c-1.1-1.1-2.2-1.6-3.5-1.7c-1.3-0.1-2.4,0.4-3.4,1.3
		c-0.9,0.9-1.4,2.1-1.3,3.3C613.8,1132.6,614.3,1133.8,615.4,1134.8z"/>
	<path d="M645.2,1167.3l-2.3-2.3l10-10c2-2,2.2-4,0.3-5.8c-0.7-0.7-1.7-1.2-2.9-1.5c-1.2-0.3-2.3-0.3-3.3-0.1l-10.8,10.8l-2.3-2.3
		l10-10c2-2,2.2-4,0.3-5.8c-0.7-0.7-1.7-1.2-2.8-1.5c-1.2-0.3-2.3-0.3-3.4-0.1l-10.8,10.8l-2.3-2.3l14.8-14.8l2.3,2.3l-2.1,2.1
		c0.9-0.2,2.1-0.1,3.6,0.2c1.5,0.4,2.7,1,3.7,2c1.1,1.1,1.7,2.2,1.9,3.4c0.2,1.2-0.1,2.3-0.6,3.3c1.2-0.3,2.5-0.2,4,0.1
		c1.5,0.4,2.7,1.1,3.7,2.1c2.8,2.8,2.6,5.6-0.3,8.6L645.2,1167.3z"/>
	<path d="M656.1,1178.9c-2.2-2.2-3.3-4.7-3.3-7.6c0-2.8,1.2-5.4,3.5-7.7c2.2-2.2,4.7-3.3,7.6-3.4c2.9-0.1,5.4,0.9,7.5,3
		c2.2,2.2,3.2,4.7,2.9,7.4c-0.2,2.8-1.5,5.3-3.8,7.6l-0.6,0.6l-12-12c-1.3,1.6-2,3.3-2.1,5.2c0,1.9,0.7,3.7,2.3,5.2
		c1.8,1.8,4,2.7,6.4,2.7l-0.4,2.6C661.3,1182.5,658.6,1181.3,656.1,1178.9z M669.4,1174.8c1.2-1.3,2-2.9,2.1-4.7
		c0.2-1.8-0.5-3.5-2.1-5.1c-1.5-1.5-3.1-2.1-5-2c-1.8,0.2-3.4,0.8-4.8,2.1L669.4,1174.8z"/>
	<path d="M679.4,1201.4l-2.3-2.3l9.7-9.7c1.2-1.2,1.8-2.4,1.8-3.5c-0.1-1.1-0.6-2.2-1.7-3.2c-0.9-0.9-1.9-1.5-3.2-1.8
		c-1.3-0.4-2.4-0.4-3.5-0.3l-10.8,10.8l-2.3-2.3l14.8-14.8l2.3,2.3l-2.1,2.1c1.2-0.1,2.6,0.1,4.1,0.5c1.5,0.5,2.7,1.2,3.7,2.2
		c3.1,3.1,3.1,6.3-0.1,9.5L679.4,1201.4z"/>
	<path d="M687.3,1210.1c-1.1-1.1-1.6-2.2-1.6-3.3c0-1.1,0.6-2.3,1.7-3.4l9.7-9.7l-2.5-2.5l2-2l2.5,2.5l4-4l2.3,2.3l-4,4l3,3l-2,2
		l-3-3l-9.2,9.2c-0.6,0.6-0.9,1.2-1,1.8c-0.1,0.6,0.1,1.1,0.6,1.6c0.7,0.7,1.4,1,2.2,1l-1,2.4
		C689.7,1211.8,688.5,1211.2,687.3,1210.1z"/>
</g>
<g>
	<path d="M480.3,903.9l-9.3-9.3l20.4-20.4l9.1,9.1c1.8,1.8,2.7,3.6,2.7,5.6c0.1,2-0.7,3.8-2.2,5.3c-1.2,1.2-2.6,1.9-4.2,2.1
		c-1.5,0.2-2.9-0.2-4.1-1c0.9,1.2,1.3,2.8,1.1,4.5c-0.2,1.8-0.9,3.3-2.1,4.5c-1.7,1.7-3.5,2.5-5.6,2.4
		C484.1,906.7,482.1,905.8,480.3,903.9z M482,901.1c1.2,1.2,2.4,1.8,3.7,1.8c1.3,0,2.5-0.5,3.6-1.6c1-1,1.5-2.2,1.5-3.5
		c0-1.3-0.6-2.6-1.8-3.8l-6.3-6.3l-7,7L482,901.1z M491.2,891.7c1.1,1.1,2.3,1.7,3.5,1.7c1.2,0,2.3-0.5,3.3-1.4c1-1,1.4-2.1,1.4-3.3
		c0-1.2-0.6-2.4-1.7-3.5l-6.1-6.1l-6.6,6.6L491.2,891.7z"/>
	<path d="M503.8,923.7c-2.8,0.2-5.3-0.9-7.6-3.1c-2.2-2.2-3.2-4.7-3.1-7.6c0.2-2.8,1.3-5.3,3.5-7.5c2.2-2.2,4.7-3.4,7.5-3.5
		c2.8-0.1,5.3,0.9,7.5,3.1c2.2,2.2,3.2,4.7,3.1,7.5c-0.1,2.8-1.3,5.3-3.5,7.5C509.2,922.4,506.6,923.6,503.8,923.7z M496.4,913.3
		c-0.2,2,0.4,3.8,1.9,5.3c1.5,1.5,3.3,2.1,5.3,1.9c2-0.2,3.8-1.1,5.4-2.7c1.6-1.6,2.5-3.4,2.7-5.4c0.2-2-0.4-3.7-1.9-5.2
		c-1.5-1.5-3.3-2.2-5.3-1.9c-2,0.2-3.8,1.1-5.4,2.7C497.5,909.5,496.6,911.3,496.4,913.3z"/>
	<path d="M520,943.6l-2.3-2.3l2.1-2.1c-1.3,0.1-2.7-0.1-4.1-0.6c-1.4-0.5-2.6-1.2-3.7-2.3c-3.1-3.1-3.1-6.3,0-9.4l10.4-10.4l2.3,2.3
		l-9.7,9.7c-1.2,1.2-1.8,2.4-1.8,3.4c0.1,1.1,0.6,2.2,1.7,3.2c0.9,0.9,1.9,1.5,3.1,1.9c1.2,0.4,2.4,0.5,3.5,0.3l10.9-10.9l2.3,2.3
		L520,943.6z"/>
	<path d="M536.8,960.5l-2.3-2.3l9.7-9.7c1.2-1.2,1.8-2.4,1.8-3.5s-0.6-2.2-1.7-3.2c-0.9-0.9-1.9-1.5-3.2-1.8
		c-1.3-0.4-2.4-0.4-3.5-0.3l-10.8,10.8l-2.3-2.3l14.8-14.8l2.3,2.3l-2.1,2.1c1.2-0.1,2.6,0.1,4.1,0.5c1.5,0.5,2.7,1.2,3.7,2.2
		c3.1,3.1,3.1,6.3-0.1,9.5L536.8,960.5z"/>
	<path d="M544.8,969.2c-1.1-1.1-1.6-2.2-1.6-3.3c0-1.1,0.6-2.3,1.7-3.4l9.7-9.7l-2.5-2.5l2-2l2.5,2.5l4-4l2.3,2.3l-4,4l3,3l-2,2
		l-3-3l-9.2,9.2c-0.6,0.6-0.9,1.2-1,1.8s0.1,1.2,0.6,1.6c0.7,0.7,1.4,1,2.2,0.9l-1,2.4C547.2,971,546,970.4,544.8,969.2z"/>
	<path d="M543.8,979.1l2.4-1.7c0.2,0.5,0.5,1,1,1.5c0.5,0.5,1.1,0.9,1.7,1c0.6,0.1,1.3,0,2.1-0.3l3.2-1.3l8.8-21.1l2.5,2.5
		l-7.2,17.1l17-7.2l2.5,2.5l-25.2,10.4c-2.8,1.1-5.2,0.7-7.4-1.3C544.7,980.3,544.2,979.7,543.8,979.1z"/>
	<path d="M576,999.6l-2.5-2.5l20.4-20.4l8.2,8.2c2,2,3,4.1,2.9,6.5s-0.9,4.4-2.7,6.1s-3.8,2.6-6.1,2.7c-2.3,0-4.5-0.9-6.4-2.9
		l-5.7-5.7L576,999.6z M591.7,994.6c1.2,1.2,2.5,1.8,4,1.9c1.5,0,2.8-0.5,3.9-1.7c1.1-1.1,1.7-2.5,1.7-3.9c0-1.5-0.6-2.8-1.9-4
		l-5.4-5.4l-7.8,7.8L591.7,994.6z"/>
	<path d="M593.6,1017.3l-2.3-2.3l14.8-14.8l2.3,2.3l-2.4,2.4c3.2-0.4,5.7,0.3,7.6,2.2l-2.4,2.4c-0.2-0.3-0.5-0.7-0.8-1
		c-0.7-0.7-1.7-1.2-3-1.5c-1.3-0.3-2.4-0.4-3.4-0.1L593.6,1017.3z"/>
	<path d="M615.1,1035c-2.8,0.2-5.3-0.9-7.6-3.1s-3.2-4.7-3.1-7.6c0.2-2.8,1.3-5.3,3.5-7.5s4.7-3.4,7.5-3.5c2.8-0.1,5.3,0.9,7.5,3.1
		c2.2,2.2,3.2,4.7,3.1,7.5c-0.1,2.8-1.3,5.3-3.5,7.5C620.5,1033.7,617.9,1034.9,615.1,1035z M607.7,1024.6c-0.2,2,0.4,3.8,1.9,5.3
		c1.5,1.5,3.3,2.1,5.3,1.9c2-0.2,3.8-1.1,5.4-2.7c1.6-1.6,2.5-3.4,2.7-5.4c0.2-2-0.4-3.7-1.9-5.2c-1.5-1.5-3.3-2.2-5.3-1.9
		c-2,0.2-3.8,1.1-5.4,2.7C608.8,1020.8,607.9,1022.6,607.7,1024.6z"/>
	<path d="M618.9,1054.6c-1.3-1.3-2.3-2.6-2.9-3.8c-0.6-1.2-0.9-2.7-0.9-4.4l2.9-0.5c-0.2,2.5,0.7,4.7,2.8,6.8
		c1.4,1.4,2.9,2.1,4.5,2.3c1.6,0.2,3.2-0.5,4.7-2l2.1-2.1c-1.3,0.2-2.7,0.1-4-0.2c-1.4-0.4-2.6-1.1-3.6-2.1c-2-2-2.9-4.2-2.7-6.8
		c0.2-2.6,1.4-5.1,3.8-7.4c2.3-2.3,4.8-3.6,7.4-3.8c2.6-0.2,4.9,0.7,6.8,2.7c2,2,2.8,4.5,2.4,7.6l2.2-2.2l2.3,2.3l-14.4,14.4
		c-2.3,2.3-4.6,3.2-6.9,2.9C623.2,1057.8,621,1056.6,618.9,1054.6z M627.1,1047.1c0.9,0.9,2,1.5,3.3,1.9c1.3,0.4,2.5,0.4,3.6,0.1
		l6.5-6.5c0.3-1.1,0.2-2.3-0.1-3.5c-0.4-1.3-1-2.4-1.9-3.3c-1.5-1.5-3.2-2.1-5-1.9c-1.9,0.2-3.7,1.1-5.3,2.8
		c-1.7,1.7-2.6,3.4-2.8,5.3C625,1043.9,625.6,1045.6,627.1,1047.1z"/>
	<path d="M638.9,1062.5l-2.3-2.3l14.8-14.8l2.3,2.3l-2.4,2.4c3.2-0.4,5.7,0.3,7.6,2.2l-2.4,2.4c-0.2-0.3-0.5-0.7-0.8-1
		c-0.7-0.7-1.7-1.2-3-1.5c-1.3-0.3-2.4-0.4-3.4-0.1L638.9,1062.5z"/>
	<path d="M658.2,1081.9l-2.3-2.3l1.7-1.7c-2.6,0.1-4.9-0.8-7-2.8c-1.4-1.4-2.1-3-2.3-4.9c-0.2-1.9,0.5-3.6,2-5.1
		c1.6-1.6,3.3-2.2,5.1-2.1c1.9,0.2,3.5,1,4.9,2.4c2.1,2.1,3.1,4.4,2.9,6.9l2.7-2.7c1-1,1.4-2.1,1.3-3.3c-0.1-1.2-0.8-2.4-1.9-3.5
		c-1.7-1.7-3.9-2.6-6.6-2.5l0.5-2.7c3.2-0.1,6,1.1,8.4,3.5c1.7,1.7,2.7,3.5,2.9,5.4c0.2,1.9-0.5,3.7-2.2,5.4L658.2,1081.9z
		 M653.1,1074.2c1.8,1.8,3.8,2.6,5.9,2.2l2.8-2.8c0.3-2.1-0.4-4.1-2.2-5.9c-1.1-1.1-2.2-1.6-3.5-1.7c-1.3-0.1-2.4,0.4-3.4,1.3
		c-0.9,0.9-1.4,2.1-1.3,3.3S652.1,1073.1,653.1,1074.2z"/>
	<path d="M683,1106.6l-2.3-2.3l10-10c2-2,2.2-4,0.3-5.8c-0.7-0.7-1.7-1.2-2.9-1.5c-1.2-0.3-2.3-0.3-3.3-0.1l-10.8,10.8l-2.3-2.3
		l10-10c2-2,2.2-4,0.3-5.8c-0.7-0.7-1.7-1.2-2.8-1.5c-1.2-0.3-2.3-0.3-3.4-0.1l-10.8,10.8l-2.3-2.3l14.8-14.8l2.3,2.3l-2.1,2.1
		c0.9-0.2,2.1-0.1,3.6,0.2s2.7,1,3.7,2c1.1,1.1,1.7,2.2,1.9,3.4c0.2,1.2-0.1,2.3-0.6,3.3c1.2-0.3,2.5-0.2,4,0.1
		c1.5,0.4,2.7,1.1,3.7,2.1c2.8,2.8,2.6,5.6-0.3,8.6L683,1106.6z"/>
</g>
<g>
	<path d="M588.4,905.6l-2.9-2.9l2.7-6.3l-10.2-10.2l-6.3,2.7l-2.9-2.9l28.6-12.2l3.2,3.2L588.4,905.6z M589.8,893.4l6.7-15.3
		l-15.3,6.6L589.8,893.4z"/>
	<path d="M604,921.2l-2.3-2.3l2.2-2.2c-3,0.4-5.5-0.4-7.6-2.4c-2-2-2.8-4.2-2.7-6.9c0.2-2.6,1.5-5.1,3.8-7.5
		c2.3-2.3,4.8-3.6,7.5-3.8c2.6-0.2,4.9,0.7,6.9,2.6c2,2,2.8,4.6,2.4,7.6l7.9-7.9l2.3,2.3L604,921.2z M599,912.8
		c0.9,0.9,2,1.5,3.2,1.9c1.3,0.4,2.4,0.4,3.5,0.2l6.7-6.7c0.2-1.1,0.2-2.3-0.2-3.6s-1-2.4-1.9-3.2c-1.4-1.4-3.1-2.1-5.1-1.9
		c-1.9,0.2-3.7,1.2-5.4,2.8c-1.7,1.7-2.6,3.5-2.8,5.4C596.9,909.7,597.5,911.4,599,912.8z"/>
	<path d="M615.1,932.3l-2.5-2.5l8.6-21l2.5,2.5l-7.2,17.1l17-7.2l2.5,2.5L615.1,932.3z"/>
	<path d="M625.9,943.1l-2.3-2.3l14.8-14.8l2.3,2.3L625.9,943.1z M641.7,925.1c-0.4-0.4-0.6-0.9-0.6-1.5c0-0.6,0.2-1.1,0.6-1.5
		c0.4-0.4,1-0.6,1.6-0.6c0.6,0,1.1,0.2,1.5,0.6c0.4,0.4,0.6,0.9,0.6,1.6c0,0.6-0.2,1.1-0.6,1.6c-0.4,0.4-0.9,0.6-1.5,0.6
		C642.6,925.7,642.1,925.5,641.7,925.1z"/>
	<path d="M634.8,952.8c-2.5-2.5-3.7-5.3-3.6-8.3l2.8-0.5c-0.1,1.1,0.1,2.3,0.6,3.6c0.5,1.3,1.2,2.4,2.2,3.4c1.1,1.1,2.2,1.7,3.3,1.9
		c1.1,0.1,2-0.2,2.8-0.9c0.7-0.7,0.9-1.5,0.6-2.5c-0.3-1-0.7-2.1-1.4-3.1c-0.7-1.1-1.4-2.2-2-3.4c-0.6-1.2-1-2.4-1-3.6
		c0-1.3,0.5-2.4,1.5-3.4c1.2-1.2,2.7-1.7,4.5-1.5c1.8,0.2,3.6,1.1,5.3,2.8c2.2,2.2,3.3,4.8,3.3,7.6l-2.7,0.5
		c0.2-2.3-0.6-4.4-2.5-6.3c-1-1-2-1.6-3.1-1.7c-1-0.2-1.9,0.1-2.6,0.8c-0.6,0.6-0.7,1.4-0.4,2.3c0.3,1,0.8,2,1.5,3.1
		c0.7,1.1,1.4,2.2,2,3.4c0.6,1.2,0.9,2.4,0.9,3.7c0,1.3-0.6,2.5-1.6,3.5c-1.3,1.3-2.9,1.9-4.7,1.7
		C638.5,955.6,636.7,954.6,634.8,952.8z"/>
	<path d="M658.4,971.9c-2.8,0.2-5.3-0.9-7.6-3.1c-2.2-2.2-3.2-4.7-3.1-7.6c0.2-2.8,1.3-5.3,3.5-7.6c2.2-2.2,4.7-3.4,7.5-3.5
		c2.8-0.1,5.3,0.9,7.5,3.1c2.2,2.2,3.2,4.7,3.1,7.5c-0.1,2.8-1.3,5.3-3.5,7.5C663.8,970.6,661.3,971.7,658.4,971.9z M651,961.5
		c-0.2,2,0.4,3.8,1.9,5.3c1.5,1.5,3.3,2.1,5.3,1.9c2-0.2,3.8-1.1,5.4-2.7c1.6-1.6,2.5-3.4,2.7-5.4c0.2-2-0.4-3.7-1.9-5.2
		c-1.5-1.5-3.3-2.2-5.3-1.9c-2,0.2-3.8,1.1-5.4,2.7C652.1,957.7,651.2,959.5,651,961.5z"/>
	<path d="M664.6,981.8l-2.3-2.3l14.8-14.8l2.3,2.3l-2.4,2.4c3.2-0.4,5.7,0.3,7.6,2.2l-2.4,2.4c-0.2-0.3-0.5-0.7-0.8-1
		c-0.7-0.7-1.7-1.2-3-1.5c-1.3-0.3-2.4-0.4-3.4-0.1L664.6,981.8z"/>
	<path d="M665.8,994.6l2.4-1.7c0.2,0.5,0.5,1,1,1.5c0.5,0.5,1.1,0.9,1.7,1c0.6,0.1,1.3,0,2.1-0.3l3.2-1.3l8.8-21.1l2.5,2.5
		l-7.2,17.1l17-7.2l2.5,2.5l-25.2,10.4c-2.8,1.1-5.2,0.7-7.4-1.3C666.6,995.9,666.2,995.2,665.8,994.6z"/>
	<path d="M704.7,1021.9l-9.3-9.3l20.4-20.4l9.1,9.1c1.8,1.8,2.7,3.6,2.7,5.6c0.1,2-0.7,3.8-2.2,5.3c-1.2,1.2-2.6,1.9-4.2,2.1
		c-1.5,0.2-2.9-0.2-4.1-1c0.9,1.2,1.3,2.8,1.1,4.5c-0.2,1.8-0.9,3.3-2.1,4.5c-1.7,1.7-3.5,2.5-5.6,2.4
		C708.5,1024.7,706.6,1023.8,704.7,1021.9z M706.5,1019.1c1.2,1.2,2.4,1.8,3.7,1.8c1.3,0,2.5-0.5,3.6-1.6c1-1,1.5-2.2,1.5-3.5
		c0-1.3-0.6-2.6-1.8-3.8l-6.3-6.3l-7,7L706.5,1019.1z M715.7,1009.7c1.1,1.1,2.3,1.7,3.5,1.7c1.2,0,2.3-0.5,3.3-1.4
		c1-1,1.4-2.1,1.4-3.3c0-1.2-0.6-2.4-1.7-3.5l-6.1-6.1l-6.6,6.6L715.7,1009.7z"/>
	<path d="M728.2,1041.7c-2.8,0.2-5.3-0.9-7.6-3.1c-2.2-2.2-3.2-4.7-3.1-7.6c0.2-2.8,1.3-5.3,3.5-7.6c2.2-2.2,4.7-3.4,7.5-3.5
		c2.8-0.1,5.3,0.9,7.5,3.1c2.2,2.2,3.2,4.7,3.1,7.5c-0.1,2.8-1.3,5.3-3.5,7.5C733.6,1040.4,731.1,1041.6,728.2,1041.7z
		 M720.8,1031.3c-0.2,2,0.4,3.8,1.9,5.3c1.5,1.5,3.3,2.1,5.3,1.9c2-0.2,3.8-1.1,5.4-2.7c1.6-1.6,2.5-3.4,2.7-5.4
		c0.2-2-0.4-3.7-1.9-5.2c-1.5-1.5-3.3-2.2-5.3-1.9c-2,0.2-3.8,1.1-5.4,2.7C721.9,1027.5,721,1029.3,720.8,1031.3z"/>
	<path d="M743.7,1060.9l-2.3-2.3l1.7-1.7c-2.6,0.1-4.9-0.8-7-2.8c-1.4-1.4-2.1-3-2.3-4.9c-0.2-1.9,0.5-3.6,2-5.1
		c1.6-1.6,3.3-2.2,5.1-2.1c1.9,0.2,3.5,1,4.9,2.4c2.1,2.1,3.1,4.4,2.9,6.9l2.7-2.7c1-1,1.4-2.1,1.3-3.3c-0.1-1.2-0.8-2.4-1.9-3.5
		c-1.7-1.7-3.9-2.6-6.6-2.5l0.5-2.7c3.2-0.1,6,1.1,8.4,3.5c1.7,1.7,2.7,3.5,2.9,5.4c0.2,1.9-0.5,3.7-2.2,5.4L743.7,1060.9z
		 M738.6,1053.2c1.8,1.8,3.8,2.6,5.9,2.2l2.8-2.8c0.3-2.1-0.4-4.1-2.2-5.9c-1.1-1.1-2.2-1.6-3.5-1.7c-1.3-0.1-2.4,0.4-3.4,1.3
		c-0.9,0.9-1.4,2.1-1.3,3.3C736.9,1051,737.5,1052.2,738.6,1053.2z"/>
	<path d="M750.6,1067.8l-2.3-2.3l14.8-14.8l2.3,2.3l-2.4,2.4c3.2-0.4,5.7,0.3,7.6,2.2l-2.4,2.4c-0.2-0.3-0.5-0.7-0.8-1
		c-0.7-0.7-1.7-1.2-3-1.5c-1.3-0.3-2.4-0.4-3.4-0.1L750.6,1067.8z"/>
	<path d="M771.4,1088.6l-2.3-2.3l2.2-2.2c-3,0.4-5.5-0.4-7.6-2.4c-2-2-2.8-4.2-2.7-6.9c0.2-2.6,1.5-5.1,3.8-7.5
		c2.3-2.3,4.8-3.6,7.5-3.8c2.6-0.2,4.9,0.7,6.9,2.6c2,2,2.8,4.6,2.4,7.6l7.9-7.9l2.3,2.3L771.4,1088.6z M766.3,1080.2
		c0.9,0.9,2,1.5,3.2,1.9c1.3,0.4,2.4,0.4,3.5,0.2l6.7-6.7c0.2-1.1,0.2-2.3-0.2-3.6s-1-2.4-1.9-3.2c-1.4-1.5-3.1-2.1-5.1-1.9
		c-1.9,0.2-3.7,1.2-5.4,2.8c-1.7,1.7-2.6,3.5-2.8,5.4C764.3,1077,764.9,1078.7,766.3,1080.2z"/>
</g>
<g>
	<linearGradient id="SVGID_9_" gradientUnits="userSpaceOnUse" x1="-1753.2211" y1="391" x2="-873.2211" y2="391">
		<stop  offset="0" style="stop-color:#E72479"/>
		<stop  offset="1" style="stop-color:#F19C6D"/>
	</linearGradient>
	<path class="st11" d="M-888.2,611c0-234.7-190.3-425-425-425s-425,190.3-425,425"/>
	<linearGradient id="SVGID_10_" gradientUnits="userSpaceOnUse" x1="-1703.2211" y1="416" x2="-1313.2211" y2="416">
		<stop  offset="0" style="stop-color:#E72479"/>
		<stop  offset="1" style="stop-color:#F19C6D"/>
	</linearGradient>
	<path class="st12" d="M-1688.2,611c0-207.1,167.9-375,375-375"/>
	<linearGradient id="SVGID_11_" gradientUnits="userSpaceOnUse" x1="-1638.2211" y1="611" x2="-1638.2211" y2="611">
		<stop  offset="0" style="stop-color:#FABA48"/>
		<stop  offset="1" style="stop-color:#DC4076"/>
	</linearGradient>
	<path class="st13" d="M-1638.2,611"/>
	<linearGradient id="SVGID_12_" gradientUnits="userSpaceOnUse" x1="-1653.2211" y1="476.1216" x2="-1501.9264" y2="476.1216">
		<stop  offset="0" style="stop-color:#E72479"/>
		<stop  offset="1" style="stop-color:#F19C6D"/>
	</linearGradient>
	<path class="st14" d="M-1511.1,353.1c-77.3,59.4-127.2,152.8-127.2,257.9"/>
	<linearGradient id="SVGID_13_" gradientUnits="userSpaceOnUse" x1="-1603.2211" y1="516.1059" x2="-1509.8239" y2="516.1059">
		<stop  offset="0" style="stop-color:#E72479"/>
		<stop  offset="1" style="stop-color:#F19C6D"/>
	</linearGradient>
	<path class="st15" d="M-1521.2,431c-41.8,48.2-67.1,111.1-67.1,180"/>
	<linearGradient id="SVGID_14_" gradientUnits="userSpaceOnUse" x1="-1538.2211" y1="611" x2="-1538.2211" y2="611">
		<stop  offset="0" style="stop-color:#FABA48"/>
		<stop  offset="1" style="stop-color:#DC4076"/>
	</linearGradient>
	<path class="st16" d="M-1538.2,611"/>
	<linearGradient id="SVGID_15_" gradientUnits="userSpaceOnUse" x1="-1553.2211" y1="553.7957" x2="-1497.8842" y2="553.7957">
		<stop  offset="0" style="stop-color:#E72479"/>
		<stop  offset="1" style="stop-color:#F19C6D"/>
	</linearGradient>
	<path class="st17" d="M-1511.1,503.8c-17.3,31.9-27.2,68.4-27.2,107.2"/>
	<linearGradient id="SVGID_16_" gradientUnits="userSpaceOnUse" x1="-1503.2211" y1="560.948" x2="-1449.2539" y2="560.948">
		<stop  offset="0" style="stop-color:#E72479"/>
		<stop  offset="1" style="stop-color:#F19C6D"/>
	</linearGradient>
	<path class="st18" d="M-1462,518.8c-16.6,26.8-26.2,58.4-26.2,92.2"/>
</g>
<line class="st19" x1="-1449.2" y1="611" x2="-1780.2" y2="611"/>
<line class="st19" x1="-925.2" y1="611" x2="-851.2" y2="611"/>
<text transform="matrix(0.8467 0.5321 -0.5321 0.8467 -1468.1547 509.2871)" style="font-family:'ProximaNova-Semibold'; font-size:20px;">3%</text>
<text transform="matrix(0.8752 0.4838 -0.4838 0.8752 -1517.4919 492.4238)" style="font-family:'ProximaNova-Semibold'; font-size:20px;">3%</text>
<text transform="matrix(0.7494 0.6622 -0.6622 0.7494 -1524.6436 418.4846)" style="font-family:'ProximaNova-Semibold'; font-size:20px;">5%</text>
<text transform="matrix(0.6135 0.7897 -0.7897 0.6135 -1510.1176 339.7605)" style="font-family:'ProximaNova-Semibold'; font-size:20px;">7%</text>
<text transform="matrix(5.409431e-03 1 -1 5.409431e-03 -1308.0299 219.0474)" class="st9" style="font-family:'ProximaNova-Semibold'; font-size:20px;">12%</text>
<polyline class="st20" points="-888.2,611 -888.2,671.3 -1008.6,671.3 -1008.6,611 -1030.2,611 "/>
<path class="st9" d="M-1038.7,627.3h-35c-4.7,0-8.5-3.8-8.5-8.5v-14c0-4.7,3.8-8.5,8.5-8.5h35c4.7,0,8.5,3.8,8.5,8.5v14
	C-1030.2,623.5-1034,627.3-1038.7,627.3z"/>
<text transform="matrix(1 -5.409431e-03 5.409431e-03 1 -1074.7716 618.5004)" class="st10" style="font-family:'ProximaNova-Regular'; font-size:20px;">70%</text>
<text transform="matrix(1 0 0 1 -1366.455 586.2849)"><tspan x="0" y="0" class="st9" style="font-family:'ProximaNova-Bold'; font-size:56px;">Tokens </tspan><tspan x="-49.1" y="44" class="st9" style="font-family:'ProximaNova-Bold'; font-size:56px;">Distribution</tspan></text>
<text transform="matrix(0.7071 0.7071 -0.7071 0.7071 -1758.0554 631.4204)" style="font-family:'ProximaNova-Semibold'; font-size:27px;">Crowd Sale</text>
<text transform="matrix(0.7071 0.7071 -0.7071 0.7071 -1698.5927 633.2156)" style="font-family:'ProximaNova-Regular'; font-size:23px;">Project Team</text>
<text transform="matrix(0.7071 0.7071 -0.7071 0.7071 -1645.2455 633.2296)" style="font-family:'ProximaNova-Regular'; font-size:23px;">Reserve Fund</text>
<text transform="matrix(0.7071 0.7071 -0.7071 0.7071 -1597.0917 633.1328)" style="font-family:'ProximaNova-Regular'; font-size:23px;">First Bonus Tournament</text>
<text transform="matrix(0.7071 0.7071 -0.7071 0.7071 -1544.7915 633.2142)" style="font-family:'ProximaNova-Regular'; font-size:23px;">Bounty Program</text>
<text transform="matrix(0.7071 0.7071 -0.7071 0.7071 -1491.726 629.7788)" style="font-family:'ProximaNova-Regular'; font-size:23px;">Advisory Board</text>
</svg>
