<?xml version="1.0" encoding="utf-8"?>
<!-- Generator: Adobe Illustrator 22.0.1, SVG Export Plug-In . SVG Version: 6.00 Build 0)  -->
<svg version="1.1" id="Слой_1" xmlns="http://www.w3.org/2000/svg" xmlns:xlink="http://www.w3.org/1999/xlink" x="0px" y="0px"
	 viewBox="0 0 1920 1366" style="enable-background:new 0 0 1920 1366;" xml:space="preserve">
<style type="text/css">
	.st0{fill:none;stroke:url(#SVGID_1_);stroke-width:44;stroke-miterlimit:10;}
	.st1{fill:none;stroke:url(#SVGID_2_);stroke-width:44;stroke-miterlimit:10;}
	.st2{fill:none;stroke:url(#SVGID_3_);stroke-width:44;stroke-miterlimit:10;}
	.st3{fill:none;stroke:url(#SVGID_4_);stroke-width:44;stroke-miterlimit:10;}
	.st4{fill:none;stroke:url(#SVGID_5_);stroke-width:44;stroke-miterlimit:10;}
	.st5{fill:none;stroke:url(#SVGID_6_);stroke-width:44;stroke-miterlimit:10;}
	.st6{fill:none;stroke:url(#SVGID_7_);stroke-width:44;stroke-miterlimit:10;}
	.st7{fill:none;stroke:url(#SVGID_8_);stroke-width:44;stroke-miterlimit:10;}
	.st8{fill:none;stroke:#000000;stroke-width:3;stroke-miterlimit:10;}
	.st9{fill:#2A2E3D;}
	.st10{fill:none;stroke:#000000;stroke-miterlimit:10;}
	.st11{fill:#FFFFFF;stroke:#FFFFFF;stroke-miterlimit:10;}
	.st12{fill:none;stroke:url(#SVGID_9_);stroke-width:30;stroke-miterlimit:10;}
	.st13{fill:none;stroke:url(#SVGID_10_);stroke-width:30;stroke-miterlimit:10;}
	.st14{fill:none;stroke:url(#SVGID_11_);stroke-width:30;stroke-miterlimit:10;}
	.st15{fill:none;stroke:url(#SVGID_12_);stroke-width:30;stroke-miterlimit:10;}
	.st16{fill:none;stroke:url(#SVGID_13_);stroke-width:30;stroke-miterlimit:10;}
	.st17{fill:none;stroke:url(#SVGID_14_);stroke-width:30;stroke-miterlimit:10;}
	.st18{fill:none;stroke:url(#SVGID_15_);stroke-width:30;stroke-miterlimit:10;}
	.st19{fill:none;stroke:url(#SVGID_16_);stroke-width:30;stroke-miterlimit:10;}
</style>
<g>
	<linearGradient id="SVGID_1_" gradientUnits="userSpaceOnUse" x1="261.9852" y1="526.9932" x2="1792.799" y2="526.9932">
		<stop  offset="0" style="stop-color:#E72479"/>
		<stop  offset="1" style="stop-color:#F19C6D"/>
	</linearGradient>
	<path class="st0" d="M1770.8,909.7c0-410.6-332.8-743.4-743.4-743.4S284,499.1,284,909.7"/>
	<linearGradient id="SVGID_2_" gradientUnits="userSpaceOnUse" x1="349.4448" y1="570.723" x2="1027.3921" y2="570.723">
		<stop  offset="0" style="stop-color:#E72479"/>
		<stop  offset="1" style="stop-color:#F19C6D"/>
	</linearGradient>
	<path class="st1" d="M371.4,909.7c0-362.3,293.7-655.9,655.9-655.9"/>
	<linearGradient id="SVGID_3_" gradientUnits="userSpaceOnUse" x1="458.9045" y1="909.6967" x2="458.9045" y2="909.6967">
		<stop  offset="0" style="stop-color:#FABA48"/>
		<stop  offset="1" style="stop-color:#DC4076"/>
	</linearGradient>
	<path class="st2" d="M458.9,909.7"/>
	<linearGradient id="SVGID_4_" gradientUnits="userSpaceOnUse" x1="436.9045" y1="675.4486" x2="694.7281" y2="675.4486">
		<stop  offset="0" style="stop-color:#E72479"/>
		<stop  offset="1" style="stop-color:#F19C6D"/>
	</linearGradient>
	<path class="st3" d="M681.3,458.6C546.1,562.6,458.9,726,458.9,909.7"/>
	<linearGradient id="SVGID_5_" gradientUnits="userSpaceOnUse" x1="524.3641" y1="745.096" x2="680.2928" y2="745.096">
		<stop  offset="0" style="stop-color:#E72479"/>
		<stop  offset="1" style="stop-color:#F19C6D"/>
	</linearGradient>
	<path class="st4" d="M663.7,594.9c-73.1,84.4-117.3,194.4-117.3,314.8"/>
	<linearGradient id="SVGID_6_" gradientUnits="userSpaceOnUse" x1="633.8237" y1="909.6967" x2="633.8237" y2="909.6967">
		<stop  offset="0" style="stop-color:#FABA48"/>
		<stop  offset="1" style="stop-color:#DC4076"/>
	</linearGradient>
	<path class="st5" d="M633.8,909.7"/>
	<linearGradient id="SVGID_7_" gradientUnits="userSpaceOnUse" x1="611.8237" y1="810.6469" x2="700.657" y2="810.6469">
		<stop  offset="0" style="stop-color:#E72479"/>
		<stop  offset="1" style="stop-color:#F19C6D"/>
	</linearGradient>
	<path class="st6" d="M681.3,722.1c-30.3,55.8-47.5,119.7-47.5,187.6"/>
	<linearGradient id="SVGID_8_" gradientUnits="userSpaceOnUse" x1="699.2834" y1="823.2639" x2="785.8442" y2="823.2639">
		<stop  offset="0" style="stop-color:#E72479"/>
		<stop  offset="1" style="stop-color:#F19C6D"/>
	</linearGradient>
	<path class="st7" d="M767.2,748.4c-29.1,46.8-45.9,102.1-45.9,161.3"/>
</g>
<line class="st8" x1="789.5" y1="909.7" x2="210.5" y2="909.7"/>
<line class="st8" x1="1706.1" y1="909.7" x2="1835.5" y2="909.7"/>
<g>
	<path d="M764.3,737.3c-1.7-1.1-3-2.3-3.9-3.7c-0.9-1.4-1.4-2.8-1.6-4.2l3.3-1.1c0.2,1.1,0.6,2.2,1.3,3.3c0.7,1.1,1.6,1.9,2.6,2.6
		c1.3,0.8,2.5,1.2,3.5,1.1c1.1-0.1,1.9-0.6,2.5-1.5c1.2-1.9,0.3-3.7-2.6-5.5c-1.3-0.8-2.1-1.3-2.3-1.4l2-3.1c0.2,0.2,1,0.7,2.3,1.5
		c1.2,0.8,2.3,1.2,3.4,1.2s1.8-0.4,2.3-1.3c0.6-0.9,0.6-1.8,0.2-2.8c-0.4-1-1.3-1.8-2.4-2.5c-1.9-1.2-4.1-1.6-6.5-1l-0.4-3.3
		c3.1-1,6.1-0.5,9.2,1.4c2.2,1.4,3.6,2.9,4.3,4.7c0.7,1.8,0.5,3.5-0.5,5.1c-0.8,1.2-1.8,2-3.2,2.2c-1.4,0.3-2.7,0.1-3.9-0.4
		c1.1,0.8,1.8,1.9,2.2,3.4c0.4,1.5,0.2,2.9-0.7,4.3c-1.1,1.7-2.6,2.7-4.6,2.9C768.7,739.3,766.6,738.7,764.3,737.3z"/>
	<path d="M779.2,746.1l-2-1.2l25-11.8l2,1.2L779.2,746.1z M785.5,735.8c-1.4-0.9-2.3-2.1-2.7-3.6c-0.3-1.5-0.1-2.9,0.8-4.3
		c0.9-1.4,2.1-2.3,3.6-2.7c1.5-0.4,3-0.1,4.4,0.8c1.5,0.9,2.4,2.1,2.7,3.7c0.3,1.5,0,3-0.8,4.4c-0.9,1.4-2.1,2.3-3.6,2.6
		C788.5,737,787,736.7,785.5,735.8z M786.8,733.9c0.8,0.5,1.6,0.6,2.4,0.4c0.8-0.2,1.5-0.8,2.1-1.6c0.6-0.9,0.8-1.8,0.6-2.6
		c-0.2-0.9-0.6-1.5-1.4-2c-0.8-0.5-1.6-0.6-2.4-0.4s-1.5,0.8-2.1,1.7c-0.5,0.8-0.7,1.7-0.6,2.6C785.6,732.7,786,733.4,786.8,733.9z
		 M793.9,753.9c-1.5,0.3-3,0.1-4.4-0.8c-1.4-0.9-2.3-2.1-2.7-3.6c-0.3-1.5-0.1-2.9,0.8-4.3c0.9-1.4,2.1-2.3,3.6-2.7
		c1.5-0.4,3-0.1,4.4,0.8c1.4,0.9,2.3,2.1,2.6,3.6c0.3,1.5,0,3-0.8,4.4C796.6,752.7,795.4,753.6,793.9,753.9z M789.4,749.1
		c0.1,0.8,0.6,1.5,1.4,2c0.8,0.5,1.6,0.6,2.4,0.4c0.8-0.2,1.5-0.8,2.1-1.6c0.6-0.9,0.8-1.8,0.6-2.6c-0.2-0.9-0.6-1.5-1.4-2
		c-0.8-0.5-1.6-0.6-2.4-0.4c-0.8,0.2-1.5,0.8-2.1,1.7C789.4,747.5,789.2,748.3,789.4,749.1z"/>
</g>
<g>
	<path d="M678.3,707.3c-1.7-1-3.1-2.1-4.1-3.5c-1-1.3-1.6-2.7-1.8-4.1l3.2-1.3c0.2,1.1,0.7,2.2,1.5,3.2c0.8,1,1.7,1.8,2.8,2.4
		c1.3,0.7,2.5,1,3.6,0.9c1.1-0.1,1.9-0.7,2.4-1.7c1.1-1.9,0.1-3.7-2.9-5.4c-1.4-0.8-2.2-1.2-2.4-1.3l1.8-3.2c0.2,0.2,1,0.6,2.3,1.3
		c1.3,0.7,2.4,1,3.4,1c1,0,1.8-0.5,2.3-1.4c0.5-0.9,0.5-1.8,0-2.8c-0.5-0.9-1.4-1.7-2.6-2.4c-2-1.1-4.2-1.3-6.5-0.6l-0.6-3.3
		c3-1.1,6.1-0.8,9.2,0.9c2.2,1.2,3.7,2.7,4.5,4.4c0.8,1.7,0.7,3.4-0.2,5.1c-0.7,1.3-1.7,2.1-3.1,2.4c-1.3,0.3-2.7,0.3-4-0.2
		c1.1,0.7,1.9,1.8,2.4,3.3c0.5,1.4,0.4,2.9-0.4,4.3c-1,1.8-2.5,2.8-4.5,3.1C682.8,709.1,680.7,708.6,678.3,707.3z"/>
	<path d="M693.6,715.3l-2-1.1l24.3-13.2l2,1.1L693.6,715.3z M699.4,704.7c-1.5-0.8-2.4-2-2.9-3.4c-0.4-1.5-0.2-2.9,0.6-4.4
		c0.8-1.5,2-2.4,3.4-2.9c1.5-0.5,3-0.3,4.4,0.6c1.5,0.8,2.5,2,2.9,3.5s0.2,3-0.6,4.4c-0.8,1.5-1.9,2.4-3.4,2.8
		C702.4,705.7,700.9,705.5,699.4,704.7z M700.5,702.7c0.8,0.4,1.6,0.5,2.4,0.2c0.8-0.3,1.5-0.9,2-1.7c0.5-0.9,0.7-1.8,0.5-2.6
		c-0.2-0.8-0.7-1.5-1.5-1.9c-0.8-0.4-1.6-0.5-2.4-0.2c-0.8,0.3-1.5,0.9-2,1.8c-0.5,0.9-0.6,1.7-0.4,2.6
		C699.3,701.6,699.8,702.2,700.5,702.7z M708.8,722.3c-1.5,0.4-3,0.2-4.4-0.6s-2.4-2-2.9-3.4c-0.4-1.5-0.2-2.9,0.6-4.4
		c0.8-1.5,2-2.4,3.4-2.9c1.5-0.5,3-0.3,4.4,0.6c1.5,0.8,2.4,2,2.8,3.5c0.4,1.5,0.2,3-0.6,4.4C711.4,720.9,710.3,721.9,708.8,722.3z
		 M704,717.8c0.2,0.8,0.7,1.5,1.5,1.9c0.8,0.4,1.6,0.5,2.4,0.2c0.8-0.3,1.5-0.9,2-1.7c0.5-0.9,0.7-1.8,0.5-2.6
		c-0.2-0.8-0.7-1.5-1.5-1.9s-1.6-0.5-2.4-0.2c-0.8,0.3-1.5,0.9-2,1.8C704,716.1,703.8,716.9,704,717.8z"/>
</g>
<g>
	<path d="M665.3,580.3c-2.8-2.5-4.2-5.3-4.1-8.4l3.6-0.5c0,2.5,1,4.5,2.9,6.2c1.1,1,2.2,1.4,3.4,1.4s2.1-0.4,2.9-1.3
		c0.8-0.9,1.2-2,1-3.1c-0.1-1.1-0.7-2.2-1.8-3.1c-1.5-1.3-3.2-1.9-5.2-1.9l-1.6-2.6l8.6-9.8l11.5,10.1l-2.4,2.7l-8.4-7.4l-4.5,5.1
		c1.9-0.1,3.7,0.5,5.3,2c1.5,1.4,2.4,3,2.6,5c0.2,2-0.5,3.8-2,5.5c-1.6,1.8-3.5,2.7-5.7,2.7C669.3,582.9,667.2,582.1,665.3,580.3z"
		/>
	<path d="M678.4,591.4l-1.7-1.5l26.6-7.6l1.8,1.6L678.4,591.4z M686.4,582.2c-1.3-1.1-2-2.5-2-4c-0.1-1.5,0.4-2.9,1.5-4.1
		c1.1-1.3,2.4-1.9,4-2.1c1.5-0.1,2.9,0.4,4.2,1.5c1.3,1.1,2,2.5,2.1,4c0.1,1.5-0.4,3-1.5,4.2c-1.1,1.2-2.4,1.9-3.9,2
		C689.1,583.9,687.7,583.4,686.4,582.2z M691.7,601.5c-1.5,0.1-2.9-0.4-4.2-1.6c-1.3-1.1-2-2.5-2-4c-0.1-1.5,0.4-2.9,1.5-4.1
		c1.1-1.3,2.4-1.9,4-2.1c1.5-0.1,2.9,0.4,4.2,1.5c1.3,1.1,1.9,2.5,2,4c0.1,1.6-0.4,3-1.5,4.2C694.5,600.7,693.2,601.4,691.7,601.5z
		 M687.9,580.5c0.7,0.6,1.5,0.9,2.3,0.8c0.9-0.1,1.6-0.5,2.3-1.3c0.7-0.8,1-1.6,1-2.5c0-0.9-0.4-1.6-1-2.2c-0.7-0.6-1.4-0.9-2.3-0.7
		c-0.9,0.1-1.6,0.5-2.3,1.3c-0.7,0.8-1,1.6-1,2.4C686.9,579.2,687.2,579.9,687.9,580.5z M688,596c0,0.9,0.3,1.6,1,2.2
		c0.7,0.6,1.5,0.9,2.3,0.8c0.9-0.1,1.6-0.5,2.3-1.3c0.7-0.8,1-1.6,1-2.5c0-0.9-0.4-1.6-1-2.2s-1.5-0.9-2.3-0.7
		c-0.9,0.1-1.6,0.5-2.3,1.3C688.3,594.4,688,595.2,688,596z"/>
</g>
<g>
	<path d="M688.3,442.1l-2.7-3.5l21-5.1l-7.4-9.6l2.8-2.2l10.3,13.3l-2.2,1.7L688.3,442.1z"/>
	<path d="M698.6,455.3l-1.4-1.8l27.6-2.5l1.4,1.9L698.6,455.3z M709.8,467.8c-1.5-0.2-2.8-1-3.9-2.3c-1-1.3-1.5-2.8-1.3-4.3
		c0.2-1.5,1-2.8,2.3-3.8c1.3-1,2.8-1.5,4.3-1.3c1.5,0.2,2.8,0.9,3.9,2.3s1.5,2.8,1.2,4.3c-0.2,1.5-1,2.8-2.3,3.8
		C712.7,467.5,711.3,467.9,709.8,467.8z M708.1,447.9c-1-1.3-1.5-2.8-1.3-4.3c0.2-1.5,0.9-2.8,2.3-3.8c1.3-1,2.8-1.5,4.3-1.3
		c1.5,0.2,2.8,0.9,3.9,2.3c1.1,1.4,1.5,2.8,1.3,4.3c-0.2,1.5-1,2.8-2.3,3.8c-1.3,1-2.7,1.4-4.2,1.2
		C710.4,450,709.2,449.2,708.1,447.9z M707.1,461.7c-0.2,0.8,0,1.6,0.6,2.3c0.6,0.7,1.3,1.1,2.1,1.2c0.9,0.1,1.7-0.2,2.5-0.8
		c0.8-0.6,1.3-1.4,1.5-2.2c0.2-0.9-0.1-1.6-0.6-2.4c-0.6-0.7-1.3-1.1-2.1-1.2c-0.9-0.1-1.7,0.2-2.5,0.9
		C707.8,460.1,707.3,460.8,707.1,461.7z M709.9,446.4c0.6,0.7,1.3,1.1,2.1,1.2c0.9,0.1,1.7-0.2,2.5-0.8c0.8-0.6,1.3-1.4,1.5-2.2
		s-0.1-1.6-0.6-2.4c-0.6-0.7-1.3-1.1-2.1-1.2c-0.9-0.1-1.7,0.2-2.5,0.9c-0.8,0.6-1.3,1.3-1.4,2.2C709.2,445,709.4,445.7,709.9,446.4
		z"/>
</g>
<g>
	<path class="st9" d="M1036.5,234.9l0-4.1l18-0.1l-4-3.8l2.5-2.4l6.8,6.7l0,3.6L1036.5,234.9z"/>
	<path class="st9" d="M1036.6,256l-0.1-16.9l3.2,0c3.7,4.9,6.5,8.2,8.3,9.9c1.8,1.8,3.5,2.6,5.1,2.6c1.1,0,2-0.4,2.6-1.3
		c0.6-0.8,0.9-1.8,0.9-3c0-2.6-1-4.7-2.8-6.3l2.7-2.4c1.2,1,2.2,2.3,2.8,3.8c0.6,1.5,1,3.1,1,4.8c0,2.4-0.6,4.4-1.9,6
		c-1.3,1.6-3,2.5-5.3,2.5c-2,0-4-0.8-6-2.5c-2-1.7-4.3-4.2-6.9-7.7l0.1,10.4L1036.6,256z"/>
	<path class="st9" d="M1038,281.7c-1.1-1.1-1.6-2.5-1.7-4.2c0-1.7,0.5-3.1,1.6-4.2c1.1-1.1,2.4-1.6,4.1-1.6c1.7,0,3.1,0.5,4.2,1.6
		c1.1,1.1,1.7,2.5,1.7,4.2c0,1.7-0.5,3.1-1.7,4.2c-1.1,1.1-2.5,1.6-4.2,1.6C1040.5,283.3,1039.1,282.8,1038,281.7z M1036.7,265
		l0-2.3l23.4,14.8l0,2.3L1036.7,265z M1039.6,275.3c-0.6,0.6-1,1.3-0.9,2.2s0.3,1.7,1,2.2c0.6,0.6,1.5,0.9,2.5,0.9
		c1,0,1.9-0.3,2.5-0.9c0.6-0.6,1-1.3,0.9-2.2c0-0.9-0.3-1.6-1-2.2c-0.6-0.6-1.5-0.8-2.5-0.8C1041.1,274.4,1040.2,274.7,1039.6,275.3
		z M1048.8,264.9c0-1.7,0.5-3.1,1.6-4.2c1.1-1.1,2.4-1.6,4.1-1.6c1.7,0,3.1,0.5,4.2,1.6c1.1,1.1,1.7,2.5,1.7,4.2
		c0,1.7-0.5,3.1-1.6,4.2c-1.1,1.1-2.5,1.6-4.2,1.7c-1.7,0-3-0.5-4.1-1.6C1049.4,268,1048.8,266.6,1048.8,264.9z M1051.1,264.9
		c0,0.9,0.3,1.7,1,2.2c0.6,0.6,1.5,0.9,2.5,0.9c1,0,1.9-0.3,2.5-0.9c0.6-0.6,1-1.3,0.9-2.2c0-0.9-0.3-1.6-1-2.2
		c-0.6-0.6-1.5-0.8-2.5-0.8c-1,0-1.8,0.3-2.5,0.9C1051.4,263.3,1051.1,264,1051.1,264.9z"/>
</g>
<polyline class="st10" points="1770.8,909.7 1770.8,1015.2 1560.3,1015.2 1560.3,909.7 1522.4,909.7 "/>
<path class="st9" d="M1513.9,938.2h-74c-4.7,0-8.5-3.8-8.5-8.5v-37.2c0-4.7,3.8-8.5,8.5-8.5h74c4.7,0,8.5,3.8,8.5,8.5v37.2
	C1522.4,934.4,1518.6,938.2,1513.9,938.2z"/>
<g>
	<path class="st11" d="M1451.9,922.8l-3.2,0l9.3-20.8l-12.6,0.1l0-2.6l15.9-0.1l0,2L1451.9,922.8z"/>
	<path class="st11" d="M1473.2,923.1c-1.5,0-2.9-0.3-4.1-1c-1.2-0.7-2.1-1.7-2.8-2.8c-0.7-1.2-1.2-2.5-1.6-3.8
		c-0.3-1.4-0.5-2.8-0.5-4.3c0-1.5,0.2-2.9,0.5-4.3c0.3-1.4,0.8-2.7,1.5-3.8c0.7-1.2,1.6-2.1,2.8-2.8c1.2-0.7,2.5-1.1,4.1-1.1
		c1.5,0,2.9,0.3,4.1,1c1.2,0.7,2.1,1.6,2.8,2.8c0.7,1.2,1.2,2.4,1.6,3.8c0.3,1.4,0.5,2.8,0.5,4.3c0,1.5-0.2,2.9-0.5,4.3
		c-0.3,1.4-0.8,2.7-1.5,3.9c-0.7,1.2-1.6,2.1-2.8,2.9C1476.1,922.7,1474.7,923.1,1473.2,923.1z M1469.7,919.1c0.9,1,2.1,1.4,3.5,1.4
		c1.4,0,2.6-0.5,3.5-1.5c0.9-1,1.6-2.1,1.9-3.5c0.3-1.4,0.5-2.9,0.5-4.6c0-1.7-0.2-3.2-0.5-4.5c-0.4-1.4-1-2.5-1.9-3.5
		c-0.9-1-2.1-1.4-3.5-1.4c-1.4,0-2.6,0.5-3.5,1.5c-0.9,1-1.6,2.1-1.9,3.5c-0.3,1.4-0.5,2.9-0.5,4.6c0,1.7,0.2,3.2,0.6,4.5
		C1468.1,916.9,1468.8,918.1,1469.7,919.1z"/>
	<path class="st11" d="M1494.6,908.7c-1.1,1.1-2.4,1.6-4.1,1.6c-1.7,0-3-0.5-4-1.6c-1-1.1-1.6-2.4-1.6-4.1c0-1.7,0.5-3,1.6-4.2
		c1-1.1,2.4-1.7,4-1.7c1.7,0,3,0.5,4.1,1.6c1.1,1.1,1.6,2.5,1.6,4.1C1496.2,906.3,1495.6,907.7,1494.6,908.7z M1488,907.5
		c0.7,0.8,1.5,1.1,2.5,1.1c1,0,1.9-0.4,2.5-1.2c0.7-0.8,1-1.7,1-2.8c0-1.2-0.3-2.1-1-2.9c-0.7-0.8-1.5-1.1-2.6-1.1
		c-1,0-1.9,0.4-2.5,1.2c-0.6,0.8-1,1.7-1,2.9C1487,905.8,1487.3,906.8,1488,907.5z M1490.3,922.6l-1.9,0l14.8-23.4l1.9,0
		L1490.3,922.6z M1506.8,921.3c-1,1.1-2.4,1.6-4.1,1.7c-1.7,0-3-0.5-4-1.6c-1-1.1-1.6-2.4-1.6-4.1c0-1.7,0.5-3,1.6-4.2
		c1-1.1,2.4-1.7,4-1.7c1.7,0,3,0.5,4.1,1.6s1.6,2.5,1.6,4.1C1508.4,918.8,1507.9,920.2,1506.8,921.3z M1500.2,920
		c0.7,0.8,1.5,1.1,2.5,1.1c1,0,1.9-0.4,2.5-1.2c0.7-0.8,1-1.7,1-2.8c0-1.2-0.3-2.1-1-2.9c-0.7-0.8-1.5-1.1-2.6-1.1
		c-1,0-1.9,0.4-2.5,1.1c-0.6,0.8-1,1.7-1,2.9C1499.2,918.4,1499.6,919.3,1500.2,920z"/>
</g>
<g>
	<path class="st9" d="M969.8,866.5h-14v-53.1h-19.1v-12.2h52.1v12.2h-19V866.5z"/>
	<path class="st9" d="M1037.6,860.4c-4.6,4.8-10.6,7.2-18.2,7.2c-7.6,0-13.6-2.4-18.2-7.2c-4.5-4.8-6.8-10.7-6.8-17.7
		c0-7,2.3-12.9,6.8-17.6c4.5-4.8,10.6-7.2,18.2-7.2c7.6,0,13.6,2.4,18.2,7.2c4.6,4.8,6.9,10.6,6.9,17.6
		C1044.5,849.7,1042.2,855.6,1037.6,860.4z M1010.6,852.6c2.2,2.6,5.1,4,8.8,4c3.7,0,6.7-1.3,8.9-4c2.2-2.6,3.3-5.9,3.3-9.8
		c0-3.9-1.1-7.1-3.3-9.7c-2.2-2.6-5.1-4-8.9-4c-3.7,0-6.7,1.3-8.8,4c-2.2,2.6-3.2,5.9-3.2,9.7C1007.3,846.7,1008.4,850,1010.6,852.6
		z"/>
	<path class="st9" d="M1099.9,866.5h-15.6l-12.5-18.2l-5.7,6.1v12.1h-12.4v-65.3h12.4v39.1l17.9-21.1h15.3l-18.7,21.5L1099.9,866.5z
		"/>
	<path class="st9" d="M1128.3,867.6c-7.3,0-13.4-2.3-18.1-6.9c-4.8-4.6-7.2-10.6-7.2-18c0-7,2.3-12.9,6.9-17.6
		c4.6-4.8,10.5-7.2,17.6-7.2c7.1,0,12.8,2.4,17.1,7.2c4.4,4.8,6.6,11.1,6.6,18.9v2.7h-35.2c0.4,3.1,1.8,5.7,4.2,7.8
		c2.4,2.1,5.5,3.1,9.4,3.1c2.1,0,4.4-0.4,6.8-1.3c2.4-0.8,4.4-2,5.8-3.4l5.5,8C1143,865.5,1136.5,867.6,1128.3,867.6z M1139.2,838.4
		c-0.2-2.7-1.3-5.1-3.2-7.2c-1.9-2.2-4.8-3.2-8.5-3.2c-3.5,0-6.3,1.1-8.2,3.2c-2,2.1-3.1,4.6-3.4,7.3H1139.2z"/>
	<path class="st9" d="M1204.6,866.5h-12.4v-28.6c0-5.9-2.9-8.8-8.7-8.8c-4.5,0-8.1,1.9-10.8,5.6v31.8h-12.4v-47.3h12.4v6.2
		c4.1-4.9,9.6-7.3,16.6-7.3c5.1,0,8.9,1.3,11.5,4c2.6,2.7,3.9,6.4,3.9,11.1V866.5z"/>
	<path class="st9" d="M1234,867.6c-4.1,0-8.1-0.7-11.8-2c-3.8-1.3-6.9-3.1-9.4-5.4l5.4-8.7c1.8,1.7,4.3,3.2,7.4,4.5
		c3.1,1.3,6.1,2,8.9,2c2.6,0,4.6-0.5,5.9-1.4c1.3-0.9,2-2.2,2-3.7c0-1.2-0.7-2.1-2.1-2.9c-1.4-0.7-3.1-1.3-5.2-1.6
		c-2.1-0.3-4.3-0.8-6.8-1.5c-2.4-0.7-4.7-1.4-6.8-2.4c-2.1-0.9-3.8-2.4-5.2-4.4c-1.4-2-2.1-4.5-2.1-7.4c0-4.2,1.7-7.7,5.2-10.6
		c3.5-2.9,8.2-4.3,14.2-4.3c7.3,0,13.7,2.2,19.1,6.5l-5,8.5c-1.5-1.6-3.5-2.9-6-3.9c-2.5-1-5.2-1.6-8-1.6c-2.2,0-4,0.4-5.4,1.3
		c-1.4,0.9-2.1,2-2.1,3.4c0,1,0.7,1.9,2.1,2.6c1.4,0.7,3.1,1.2,5.2,1.5c2.1,0.3,4.3,0.8,6.8,1.5c2.4,0.7,4.7,1.5,6.8,2.4
		c2.1,0.9,3.8,2.5,5.2,4.6c1.4,2.1,2.1,4.6,2.1,7.6c0,4.4-1.8,8.1-5.4,10.9C1245.4,866.2,1240.4,867.6,1234,867.6z"/>
	<path class="st9" d="M880.7,943.4h-25.8v-65.3h25.8c10.3,0,18.6,3,25,9c6.4,6,9.6,13.9,9.6,23.7c0,9.8-3.2,17.7-9.6,23.7
		C899.4,940.4,891,943.4,880.7,943.4z M880.7,931.2c6.3,0,11.3-2,14.9-5.9c3.7-3.9,5.5-8.7,5.5-14.5c0-6-1.8-10.9-5.4-14.7
		c-3.6-3.8-8.6-5.7-15.1-5.7h-11.9v40.8H880.7z"/>
	<path class="st9" d="M931.1,891c-2,0-3.8-0.7-5.2-2.2c-1.5-1.5-2.2-3.2-2.2-5.2c0-2,0.7-3.8,2.2-5.2c1.5-1.4,3.2-2.2,5.2-2.2
		c2.1,0,3.9,0.7,5.3,2.2c1.4,1.4,2.2,3.2,2.2,5.2c0,2-0.7,3.8-2.2,5.2C935,890.3,933.2,891,931.1,891z M937.4,943.4H925v-47.3h12.4
		V943.4z"/>
	<path class="st9" d="M966.8,944.6c-4.1,0-8-0.7-11.8-2c-3.8-1.3-6.9-3.1-9.4-5.4l5.4-8.7c1.8,1.7,4.3,3.2,7.4,4.5
		c3.1,1.3,6.1,2,8.9,2c2.6,0,4.6-0.5,5.9-1.4s2-2.2,2-3.7c0-1.2-0.7-2.1-2.1-2.9c-1.4-0.7-3.1-1.3-5.2-1.6c-2.1-0.3-4.3-0.8-6.8-1.5
		c-2.4-0.7-4.7-1.4-6.8-2.4c-2.1-0.9-3.8-2.4-5.2-4.4c-1.4-2-2.1-4.5-2.1-7.4c0-4.2,1.7-7.7,5.2-10.6c3.5-2.9,8.2-4.3,14.2-4.3
		c7.3,0,13.7,2.2,19.1,6.5l-5,8.5c-1.5-1.6-3.5-2.9-6-3.9c-2.5-1-5.2-1.6-8-1.6c-2.2,0-4,0.4-5.4,1.3c-1.4,0.9-2.1,2-2.1,3.4
		c0,1,0.7,1.9,2.1,2.6c1.4,0.7,3.1,1.2,5.2,1.5c2.1,0.3,4.3,0.8,6.8,1.5c2.4,0.7,4.7,1.5,6.8,2.4c2.1,0.9,3.8,2.5,5.2,4.6
		c1.4,2.1,2.1,4.6,2.1,7.6c0,4.4-1.8,8.1-5.4,10.9C978.2,943.2,973.2,944.6,966.8,944.6z"/>
	<path class="st9" d="M1012.3,944.6c-4.4,0-7.7-1.1-10-3.3c-2.3-2.2-3.4-5.4-3.4-9.6V907h-7.8v-10.9h7.8v-12.9h12.5v12.9h9.6V907
		h-9.6v21.4c0,1.5,0.4,2.7,1.2,3.7c0.8,1,1.8,1.5,3.1,1.5c2,0,3.4-0.5,4.3-1.4l2.6,9.4C1020.4,943.6,1017,944.6,1012.3,944.6z"/>
	<path class="st9" d="M1042,943.4h-12.4v-47.3h12.4v6.5c1.8-2.2,4-4,6.8-5.5c2.7-1.4,5.5-2.2,8.3-2.2v12.1c-0.9-0.2-2-0.3-3.4-0.3
		c-2.1,0-4.3,0.5-6.7,1.6c-2.4,1-4,2.3-5,3.8V943.4z"/>
	<path class="st9" d="M1071,891c-2,0-3.8-0.7-5.2-2.2c-1.5-1.5-2.2-3.2-2.2-5.2c0-2,0.7-3.8,2.2-5.2c1.5-1.4,3.2-2.2,5.2-2.2
		c2.1,0,3.9,0.7,5.3,2.2c1.4,1.4,2.2,3.2,2.2,5.2c0,2-0.7,3.8-2.2,5.2C1074.9,890.3,1073.1,891,1071,891z M1077.3,943.4h-12.4v-47.3
		h12.4V943.4z"/>
	<path class="st9" d="M1102.1,943.4h-12.4v-65.3h12.4v24.1c3.7-4.8,8.6-7.2,14.6-7.2c6.1,0,11.2,2.3,15.1,6.8
		c3.9,4.5,5.9,10.5,5.9,18.1c0,7.7-2,13.8-5.9,18.2c-3.9,4.4-8.9,6.6-15.1,6.6c-5.9,0-10.7-2.4-14.6-7.2V943.4z M1102.1,928.2
		c1,1.5,2.6,2.8,4.6,3.8c2,1,4,1.5,6.1,1.5c3.6,0,6.5-1.3,8.7-3.8c2.2-2.5,3.3-5.8,3.3-9.9c0-4.1-1.1-7.4-3.3-10
		c-2.2-2.5-5.1-3.8-8.7-3.8c-2,0-4.1,0.5-6.1,1.6c-2,1-3.6,2.4-4.6,3.9V928.2z"/>
	<path class="st9" d="M1191.4,943.4H1179v-6c-4.2,4.8-9.8,7.2-16.7,7.2c-5.1,0-8.9-1.3-11.5-3.9c-2.5-2.6-3.8-6.3-3.8-11v-33.6h12.4
		v28.7c0,5.8,2.9,8.7,8.7,8.7c4.4,0,8-1.8,10.8-5.4v-32h12.4V943.4z"/>
	<path class="st9" d="M1219.6,944.6c-4.4,0-7.7-1.1-10-3.3c-2.3-2.2-3.4-5.4-3.4-9.6V907h-7.8v-10.9h7.8v-12.9h12.5v12.9h9.6V907
		h-9.6v21.4c0,1.5,0.4,2.7,1.2,3.7c0.8,1,1.8,1.5,3.1,1.5c2,0,3.4-0.5,4.3-1.4l2.6,9.4C1227.7,943.6,1224.2,944.6,1219.6,944.6z"/>
	<path class="st9" d="M1243,891c-2,0-3.8-0.7-5.2-2.2c-1.5-1.5-2.2-3.2-2.2-5.2c0-2,0.7-3.8,2.2-5.2c1.5-1.4,3.2-2.2,5.2-2.2
		c2.1,0,3.9,0.7,5.3,2.2c1.4,1.4,2.2,3.2,2.2,5.2c0,2-0.7,3.8-2.2,5.2C1246.9,890.3,1245.1,891,1243,891z M1249.3,943.4h-12.4v-47.3
		h12.4V943.4z"/>
	<path class="st9" d="M1301.8,937.4c-4.6,4.8-10.6,7.2-18.2,7.2c-7.6,0-13.6-2.4-18.2-7.2c-4.5-4.8-6.8-10.7-6.8-17.7
		c0-7,2.3-12.9,6.8-17.6c4.5-4.8,10.6-7.2,18.2-7.2c7.6,0,13.6,2.4,18.2,7.2c4.6,4.8,6.9,10.6,6.9,17.6
		C1308.7,926.7,1306.4,932.6,1301.8,937.4z M1274.8,929.6c2.2,2.6,5.1,4,8.8,4c3.7,0,6.7-1.3,8.9-4c2.2-2.6,3.3-5.9,3.3-9.8
		c0-3.9-1.1-7.1-3.3-9.7c-2.2-2.6-5.1-4-8.9-4c-3.7,0-6.7,1.3-8.8,4c-2.2,2.6-3.2,5.9-3.2,9.7
		C1271.5,923.6,1272.6,926.9,1274.8,929.6z"/>
	<path class="st9" d="M1362.2,943.4h-12.4v-28.6c0-5.9-2.9-8.8-8.7-8.8c-4.5,0-8.1,1.9-10.8,5.6v31.8h-12.4v-47.3h12.4v6.2
		c4.1-4.9,9.6-7.3,16.6-7.3c5.1,0,8.9,1.3,11.5,4c2.6,2.7,3.9,6.4,3.9,11.1V943.4z"/>
</g>
<g>
	<path d="M261.9,958.9c-3.3-3.3-5-7.2-5.1-11.6c-0.1-4.4,1.6-8.3,5-11.6c3.4-3.4,7.3-5,11.6-5c4.4,0.1,8.2,1.8,11.6,5.1
		c3.9,3.9,5.2,8.5,3.9,14l-5-1.6c0.4-1.5,0.4-3.1,0-4.7s-1.2-3-2.4-4.2c-2.2-2.2-4.8-3.3-7.8-3.2c-3,0.1-5.6,1.3-8,3.6
		c-2.3,2.3-3.5,5-3.6,8c-0.1,3,1,5.6,3.2,7.8c1.2,1.2,2.6,2,4.2,2.4s3.2,0.4,4.7,0l1.6,5C270.4,964,265.8,962.7,261.9,958.9z"/>
	<path d="M277.8,974l-3.5-3.5l16.1-16.1l3.5,3.5l-2.4,2.4c1.4-0.2,2.9-0.1,4.3,0.4c1.4,0.4,2.7,1.1,3.7,2.1l-3.5,3.5
		c-0.2-0.4-0.6-0.8-1-1.2c-0.7-0.7-1.7-1.3-3-1.7c-1.3-0.4-2.4-0.5-3.3-0.3L277.8,974z"/>
	<path d="M292.8,989.7c-2.5-2.5-3.7-5.3-3.6-8.5c0.1-3.2,1.4-5.9,3.8-8.3c2.4-2.4,5.1-3.6,8.3-3.7c3.1-0.1,6,1.1,8.5,3.6
		c2.5,2.5,3.7,5.3,3.6,8.5c-0.1,3.1-1.4,5.9-3.7,8.3c-2.4,2.4-5.2,3.7-8.3,3.8C298.1,993.4,295.3,992.2,292.8,989.7z M295.9,986.6
		c1.4,1.4,3.1,2.1,5,1.9c1.9-0.2,3.6-1.1,5.1-2.6c1.5-1.5,2.3-3.2,2.5-5c0.2-1.9-0.4-3.5-1.9-5c-1.4-1.4-3.1-2-4.9-1.8
		c-1.9,0.2-3.6,1-5,2.5c-1.5,1.5-2.4,3.2-2.6,5.1C293.9,983.6,294.5,985.2,295.9,986.6z"/>
	<path d="M322.8,1018.9l-3.7-3.7l8.1-15.6l-15.6,8.1l-3.7-3.7l11.1-21.1l3.6,3.6l-8.3,15.1l15.6-7.9l3.1,3.1l-7.9,15.6l15.1-8.3
		l3.6,3.6L322.8,1018.9z"/>
	<path d="M345.1,1041.2l-3.5-3.5l2.2-2.2c-3.1,0.4-5.7-0.5-7.8-2.6c-2.1-2.1-3.1-4.6-2.9-7.4c0.2-2.9,1.6-5.6,4.2-8.2
		c2.6-2.6,5.3-4,8.2-4.2c2.9-0.2,5.4,0.8,7.5,2.9c2.1,2.1,3,4.7,2.5,7.8l8.4-8.4l3.5,3.5L345.1,1041.2z M340.1,1030.8
		c0.8,0.8,1.8,1.4,3,1.8c1.2,0.4,2.3,0.5,3.3,0.2l6.4-6.4c0.2-1,0.2-2.1-0.2-3.3c-0.4-1.2-1-2.2-1.8-3c-1.4-1.4-3-2-4.8-1.8
		c-1.8,0.2-3.5,1.1-5.1,2.6c-1.6,1.6-2.5,3.3-2.6,5.1C338.1,1027.9,338.7,1029.5,340.1,1030.8z"/>
	<path d="M365.5,1062.5c-3.8-3.8-5.7-8-5.5-12.6l5.2-0.8c-0.1,4,1.2,7.3,4,10.1c1.5,1.5,2.9,2.3,4.3,2.5c1.3,0.1,2.4-0.2,3.3-1
		c0.8-0.8,1.1-2,0.7-3.4c-0.4-1.4-1.1-2.9-2.1-4.4c-1-1.6-1.9-3.2-2.8-4.9c-0.9-1.7-1.3-3.4-1.2-5.3c0.1-1.8,0.9-3.5,2.4-5
		c1.9-1.9,4.2-2.7,6.9-2.4c2.7,0.3,5.3,1.6,7.7,4c3.4,3.4,5.2,7.2,5.2,11.5l-5.1,0.7c0-3.4-1.3-6.4-3.9-9c-1.2-1.2-2.3-1.8-3.5-2
		c-1.2-0.2-2.2,0.2-3,1c-0.6,0.6-0.8,1.3-0.7,2.1c0.1,0.9,0.4,1.8,0.9,2.8c0.5,1,1.1,2.1,1.8,3.2c0.7,1.1,1.4,2.3,2,3.6
		c0.6,1.2,1,2.5,1.3,3.7c0.3,1.2,0.3,2.5-0.1,3.8s-1.1,2.5-2.2,3.7c-2,2-4.4,2.9-7.1,2.8C371.2,1066.8,368.4,1065.3,365.5,1062.5z"
		/>
	<path d="M391.4,1087.5l-3.5-3.5l1.7-1.7c-2.7,0.2-5.1-0.8-7.3-3.1c-1.5-1.5-2.3-3.2-2.5-5.3c-0.2-2.1,0.6-4,2.2-5.6
		c1.7-1.7,3.6-2.5,5.6-2.2c2,0.2,3.8,1.1,5.3,2.6c2.3,2.3,3.3,4.7,3.1,7.3l2.4-2.4c0.9-0.9,1.3-2,1.2-3.2c-0.2-1.2-0.8-2.4-1.9-3.5
		c-1.8-1.8-4.1-2.7-6.8-2.7l1-3.9c3.6,0.1,6.7,1.5,9.4,4.2c2,2,3.1,4.1,3.4,6.2c0.3,2.2-0.5,4.3-2.6,6.3L391.4,1087.5z
		 M386.1,1078.2c1.8,1.8,3.6,2.5,5.5,2.2l2.4-2.4c0.3-1.9-0.4-3.8-2.2-5.5c-1-1-2.1-1.6-3.3-1.7c-1.2-0.1-2.2,0.3-3.1,1.1
		c-0.9,0.9-1.2,1.9-1.1,3.1C384.5,1076.1,385.1,1077.2,386.1,1078.2z"/>
	<path d="M399.5,1095.6l-3.5-3.5l22.3-22.3l3.5,3.5L399.5,1095.6z"/>
	<path d="M411.1,1108c-2.4-2.4-3.7-5.3-3.7-8.4c0-3.2,1.2-6,3.7-8.5c2.4-2.4,5.1-3.6,8.3-3.7c3.2-0.1,6,1,8.3,3.4
		c2.4,2.4,3.5,5.1,3.3,8.2c-0.2,3.1-1.6,5.9-4.1,8.5l-0.8,0.8l-12.5-12.5c-1.1,1.4-1.7,3-1.6,4.7c0.1,1.8,0.8,3.4,2.3,4.8
		c0.8,0.8,1.8,1.5,3,2c1.1,0.5,2.3,0.8,3.4,0.8l-0.7,3.9C416.8,1112.1,413.8,1110.7,411.1,1108z M425.1,1102.5
		c1.1-1.2,1.7-2.6,1.8-4.2c0.1-1.6-0.6-3.2-2-4.6c-1.4-1.4-2.9-2-4.5-2c-1.6,0.1-3.1,0.6-4.3,1.7L425.1,1102.5z"/>
</g>
<g>
	<path d="M357.9,953.1l-2.4-2.4l19-19l7.6,7.6c1.8,1.8,2.7,3.8,2.7,6c0,2.2-0.9,4-2.5,5.7c-1.6,1.6-3.5,2.4-5.7,2.5
		c-2.2,0-4.2-0.9-6-2.7l-5.3-5.3L357.9,953.1z M372.5,948.5c1.1,1.1,2.4,1.7,3.7,1.7c1.4,0,2.6-0.5,3.7-1.5s1.6-2.3,1.5-3.7
		c0-1.4-0.6-2.6-1.7-3.7l-5-5l-7.2,7.2L372.5,948.5z"/>
	<path d="M374.3,969.5l-2.1-2.1l13.7-13.7l2.1,2.1l-2.2,2.2c2.9-0.4,5.3,0.3,7.1,2.1l-2.2,2.2c-0.2-0.3-0.5-0.6-0.8-0.9
		c-0.6-0.6-1.6-1.1-2.8-1.4c-1.2-0.3-2.3-0.3-3.1-0.1L374.3,969.5z"/>
	<path d="M394.2,986c-2.6,0.1-5-0.8-7-2.9c-2-2-3-4.4-2.9-7c0.1-2.6,1.2-5,3.3-7c2-2,4.4-3.1,7-3.3c2.6-0.1,5,0.8,7,2.9
		c2,2,3,4.4,2.9,7c-0.1,2.6-1.2,5-3.3,7C399.2,984.7,396.8,985.8,394.2,986z M387.3,976.3c-0.2,1.9,0.4,3.5,1.8,4.9
		c1.4,1.4,3,2,4.9,1.8c1.8-0.2,3.5-1.1,5-2.5c1.5-1.5,2.3-3.1,2.5-5s-0.4-3.5-1.8-4.9c-1.4-1.4-3-2-4.9-1.8c-1.9,0.2-3.5,1-5,2.5
		C388.3,972.8,387.5,974.5,387.3,976.3z"/>
	<path d="M390.3,996.7c-1.1-1.1-1.8-2.5-2-4l2.4-0.9c0,1.2,0.4,2.1,1.1,2.8c0.7,0.7,1.4,1,2.2,1c0.8,0,1.6-0.4,2.5-1.3l15.1-15.1
		l2.1,2.1l-15.1,15.1c-1.3,1.3-2.7,2-4.2,2.1S391.6,998,390.3,996.7z M414.6,978.4c-0.4-0.4-0.6-0.8-0.6-1.4c0-0.6,0.2-1,0.6-1.4
		c0.4-0.4,0.9-0.6,1.5-0.6c0.6,0,1,0.2,1.4,0.6c0.4,0.4,0.6,0.9,0.6,1.5c0,0.6-0.2,1.1-0.6,1.5c-0.4,0.4-0.9,0.6-1.4,0.6
		C415.4,979,414.9,978.8,414.6,978.4z"/>
	<path d="M410.1,1006c-2-2-3.1-4.4-3-7c0-2.6,1.1-5,3.3-7.2c2-2,4.4-3.1,7-3.2c2.7-0.1,5,0.8,6.9,2.7c2,2,2.9,4.3,2.7,6.9
		c-0.2,2.6-1.4,4.9-3.5,7.1l-0.5,0.5l-11.1-11.1c-1.3,1.4-1.9,3.1-1.9,4.9c0,1.8,0.7,3.4,2.1,4.8c1.7,1.7,3.7,2.5,6,2.5l-0.4,2.4
		C414.8,1009.3,412.3,1008.2,410.1,1006z M422.4,1002.2c1.2-1.2,1.8-2.6,2-4.4c0.2-1.7-0.5-3.3-1.9-4.7c-1.4-1.4-2.9-2-4.6-1.8
		c-1.7,0.1-3.2,0.8-4.5,1.9L422.4,1002.2z"/>
	<path d="M425.9,1021.9c-2-2-3-4.4-2.9-7c0.1-2.6,1.2-5,3.3-7.1c2.1-2.1,4.4-3.1,7.1-3.2c2.6-0.1,5,0.9,7,2.9c2.1,2.1,3,4.6,2.6,7.4
		l-2.7-0.1c0.3-2.1-0.2-3.8-1.7-5.3c-1.4-1.4-3.1-2.1-4.9-2c-1.8,0.1-3.5,1-5.1,2.5c-1.6,1.6-2.4,3.3-2.5,5.1c-0.1,1.9,0.5,3.5,2,5
		c1.4,1.4,3.2,2,5.3,1.7l0.1,2.7C430.5,1024.9,428.1,1024,425.9,1021.9z"/>
	<path d="M437.4,1033.4c-1-1-1.5-2-1.5-3.1c0-1.1,0.6-2.1,1.6-3.2l9-9l-2.3-2.3l1.9-1.9l2.3,2.3l3.8-3.8l2.1,2.1l-3.8,3.8l2.8,2.8
		l-1.9,1.9l-2.8-2.8l-8.5,8.5c-0.5,0.5-0.8,1.1-0.9,1.6s0.1,1.1,0.6,1.5c0.6,0.6,1.3,0.9,2,0.9l-1,2.2
		C439.7,1035,438.5,1034.4,437.4,1033.4z"/>
	<path d="M457.1,1052.4l-2.4-2.4l16.9-16.9l-6-6l2.1-2.1l14.4,14.4l-2.1,2.1l-6-6L457.1,1052.4z"/>
	<path d="M472.1,1068c-2-2-3.1-4.4-3-7c0-2.6,1.1-5,3.3-7.2c2-2,4.4-3.1,7-3.2c2.7-0.1,5,0.8,6.9,2.7c2,2,2.9,4.3,2.7,6.9
		c-0.2,2.6-1.4,4.9-3.5,7.1l-0.5,0.5l-11.1-11.1c-1.3,1.4-1.9,3.1-1.9,4.9c0,1.8,0.7,3.4,2.1,4.8c1.7,1.7,3.7,2.5,6,2.5l-0.4,2.4
		C476.8,1071.4,474.3,1070.2,472.1,1068z M484.4,1064.2c1.2-1.2,1.8-2.6,2-4.4c0.2-1.7-0.5-3.3-1.9-4.7c-1.4-1.4-2.9-2-4.6-1.8
		c-1.7,0.1-3.2,0.8-4.5,1.9L484.4,1064.2z"/>
	<path d="M493,1088.2l-2.1-2.1l1.6-1.6c-2.4,0.1-4.6-0.8-6.5-2.6c-1.3-1.3-2-2.8-2.1-4.6c-0.2-1.8,0.5-3.4,1.9-4.8
		c1.4-1.4,3-2.1,4.8-1.9c1.7,0.2,3.3,0.9,4.6,2.2c2,2,2.8,4.1,2.7,6.4l2.5-2.5c0.9-0.9,1.3-1.9,1.2-3.1c-0.1-1.2-0.7-2.2-1.7-3.3
		c-1.6-1.6-3.7-2.4-6.1-2.3l0.5-2.5c3-0.1,5.6,1,7.8,3.2c1.6,1.6,2.5,3.2,2.7,5c0.2,1.7-0.4,3.4-2,5L493,1088.2z M488.2,1081.1
		c1.7,1.7,3.5,2.4,5.5,2.1l2.6-2.6c0.3-2-0.4-3.8-2.1-5.5c-1-1-2.1-1.5-3.3-1.6c-1.2-0.1-2.2,0.3-3.1,1.2c-0.9,0.9-1.3,1.9-1.2,3.1
		C486.7,1079,487.2,1080.1,488.2,1081.1z"/>
	<path d="M515.9,1111.2l-2.1-2.1l9.3-9.3c1.9-1.9,2-3.7,0.3-5.4c-0.7-0.7-1.6-1.2-2.7-1.4c-1.1-0.3-2.1-0.3-3.1-0.1l-10.1,10.1
		l-2.1-2.1l9.3-9.3c1.9-1.9,2-3.7,0.3-5.4c-0.7-0.7-1.5-1.1-2.6-1.4c-1.1-0.3-2.1-0.3-3.1-0.1l-10,10l-2.1-2.1l13.7-13.7l2.1,2.1
		l-2,2c0.9-0.2,2-0.1,3.4,0.2c1.4,0.3,2.5,1,3.4,1.9c1,1,1.6,2.1,1.7,3.2c0.2,1.1,0,2.1-0.6,3.1c1.1-0.3,2.3-0.2,3.7,0.1
		c1.4,0.3,2.5,1,3.5,1.9c2.6,2.6,2.5,5.2-0.3,8L515.9,1111.2z"/>
</g>
<g>
	<path d="M462.6,964.6l-2.8-2.8l2.7-12.4l-3.8-3.8l-7.5,7.5l-2.4-2.4l19-19l7.6,7.6c1.8,1.8,2.7,3.7,2.7,5.9
		c0.1,2.1-0.8,4.1-2.5,5.8c-1.6,1.6-3.4,2.5-5.3,2.5c-1.9,0-3.6-0.6-5.1-1.9L462.6,964.6z M465.8,948.5c1.1,1.1,2.4,1.7,3.8,1.7
		c1.4,0,2.6-0.5,3.7-1.6c1.1-1.1,1.6-2.3,1.6-3.7c0-1.4-0.6-2.6-1.7-3.7l-5-5l-7.3,7.3L465.8,948.5z"/>
	<path d="M471.9,974.6c-2-2-3.1-4.4-3-7c0-2.6,1.1-5,3.3-7.2c2-2,4.4-3.1,7-3.2c2.7-0.1,5,0.8,6.9,2.7c2,2,2.9,4.3,2.7,6.9
		c-0.2,2.6-1.4,4.9-3.5,7.1l-0.5,0.5l-11.1-11.1c-1.3,1.4-1.9,3.1-1.9,4.9c0,1.8,0.7,3.4,2.1,4.8c1.7,1.7,3.7,2.5,6,2.5l-0.4,2.4
		C476.7,977.9,474.1,976.8,471.9,974.6z M484.3,970.7c1.2-1.2,1.8-2.6,2-4.4c0.2-1.7-0.5-3.3-1.9-4.7c-1.4-1.4-2.9-2-4.6-1.8
		c-1.7,0.1-3.2,0.8-4.5,1.9L484.3,970.7z"/>
	<path d="M486.1,988.7c-2.3-2.3-3.5-4.9-3.4-7.7l2.6-0.4c-0.1,1,0.1,2.1,0.6,3.3c0.4,1.2,1.1,2.3,2,3.1c1,1,2,1.6,3,1.7
		c1,0.1,1.9-0.2,2.6-0.9c0.6-0.6,0.8-1.4,0.6-2.3c-0.2-0.9-0.7-1.9-1.3-2.9c-0.6-1-1.3-2-1.9-3.1c-0.6-1.1-0.9-2.2-0.9-3.4
		c0-1.2,0.5-2.2,1.4-3.2c1.1-1.1,2.5-1.6,4.2-1.4c1.7,0.2,3.3,1,4.9,2.6c2.1,2.1,3.1,4.4,3.1,7.1l-2.5,0.5c0.2-2.1-0.6-4.1-2.4-5.8
		c-0.9-0.9-1.9-1.5-2.8-1.6c-1-0.1-1.7,0.1-2.4,0.7c-0.6,0.6-0.7,1.3-0.4,2.2c0.3,0.9,0.7,1.9,1.4,2.9c0.6,1,1.3,2,1.8,3.1
		c0.6,1.1,0.9,2.2,0.8,3.4c0,1.2-0.5,2.3-1.5,3.3c-1.2,1.2-2.7,1.7-4.4,1.6C489.5,991.4,487.8,990.4,486.1,988.7z"/>
	<path d="M501.2,1003.8c-2-2-3.1-4.4-3-7c0-2.6,1.1-5,3.3-7.2c2-2,4.4-3.1,7-3.2c2.7-0.1,5,0.8,6.9,2.7c2,2,2.9,4.3,2.7,6.9
		c-0.2,2.6-1.4,4.9-3.5,7.1l-0.5,0.5l-11.1-11.1c-1.3,1.4-1.9,3.1-1.9,4.9c0,1.8,0.7,3.4,2.1,4.8c1.7,1.7,3.7,2.5,6,2.5l-0.4,2.4
		C505.9,1007.2,503.4,1006,501.2,1003.8z M513.5,1000c1.2-1.2,1.8-2.7,2-4.4c0.2-1.7-0.5-3.3-1.9-4.7c-1.4-1.4-2.9-2-4.6-1.8
		c-1.7,0.1-3.2,0.8-4.5,1.9L513.5,1000z"/>
	<path d="M513.4,1015.4l-2.1-2.1l13.7-13.7l2.1,2.1l-2.2,2.2c2.9-0.4,5.3,0.3,7.1,2.1l-2.2,2.2c-0.2-0.3-0.5-0.6-0.8-0.9
		c-0.6-0.6-1.6-1.1-2.8-1.4c-1.2-0.3-2.3-0.3-3.1-0.1L513.4,1015.4z"/>
	<path d="M526.7,1028.7l-2.3-2.3l8-19.5l2.3,2.3L528,1025l15.8-6.7l2.3,2.3L526.7,1028.7z"/>
	<path d="M540.5,1043.1c-2-2-3.1-4.4-3-7c0-2.6,1.1-5,3.3-7.2c2-2,4.4-3.1,7-3.2c2.7-0.1,5,0.8,6.9,2.7c2,2,2.9,4.3,2.7,6.9
		c-0.2,2.6-1.4,4.9-3.5,7.1l-0.5,0.5l-11.1-11.1c-1.3,1.4-1.9,3.1-1.9,4.9s0.7,3.4,2.1,4.8c1.7,1.7,3.7,2.5,6,2.5l-0.4,2.4
		C545.3,1046.5,542.7,1045.4,540.5,1043.1z M552.8,1039.3c1.2-1.2,1.8-2.7,2-4.4c0.2-1.7-0.5-3.3-1.9-4.7c-1.4-1.4-2.9-2-4.6-1.8
		c-1.7,0.1-3.2,0.8-4.5,1.9L552.8,1039.3z"/>
	<path d="M560.4,1062.4l-2.4-2.4l19-19l12.4,12.4l-2.1,2.1l-10.1-10.1l-6.1,6.1l9.9,9.9l-2.1,2.1l-9.9-9.9L560.4,1062.4z"/>
	<path d="M585,1087l-2.1-2.1l1.9-1.9c-1.2,0.1-2.5-0.1-3.8-0.5c-1.3-0.4-2.4-1.1-3.4-2.1c-2.9-2.9-2.9-5.8,0-8.8l9.7-9.7l2.1,2.1
		l-9,9c-1.1,1.1-1.7,2.2-1.6,3.2c0,1,0.6,2,1.6,3c0.8,0.8,1.8,1.4,2.9,1.7c1.1,0.4,2.2,0.4,3.2,0.3l10.1-10.1l2.1,2.1L585,1087z"/>
	<path d="M600.7,1102.7l-2.1-2.1l9-9c1.2-1.2,1.7-2.2,1.7-3.3c0-1-0.6-2-1.6-3c-0.8-0.8-1.8-1.4-2.9-1.7c-1.2-0.3-2.3-0.4-3.3-0.2
		l-10,10l-2.1-2.1l13.7-13.7l2.1,2.1l-2,2c1.2-0.1,2.4,0.1,3.8,0.5c1.4,0.4,2.5,1.1,3.5,2.1c2.9,2.9,2.9,5.9-0.1,8.8L600.7,1102.7z"
		/>
	<path d="M617.1,1119l-2.1-2.1l2-2c-2.8,0.4-5.1-0.3-7-2.2c-1.8-1.8-2.6-3.9-2.5-6.4c0.2-2.4,1.4-4.7,3.6-6.9
		c2.2-2.2,4.5-3.4,6.9-3.6c2.4-0.2,4.6,0.6,6.4,2.4c1.9,1.9,2.6,4.2,2.2,7.1l7.3-7.3l2.1,2.1L617.1,1119z M612.4,1111.2
		c0.8,0.8,1.8,1.4,3,1.8c1.2,0.3,2.3,0.4,3.3,0.2l6.2-6.2c0.2-1,0.2-2.1-0.2-3.3s-0.9-2.2-1.7-3c-1.3-1.3-2.9-1.9-4.7-1.7
		c-1.8,0.2-3.5,1.1-5,2.6c-1.6,1.6-2.4,3.2-2.6,5C610.5,1108.3,611,1109.9,612.4,1111.2z"/>
</g>
<g>
	<path d="M535.4,953l-2.4-2.4l19-19l12.4,12.4l-2.1,2.1l-10.1-10.1l-6.1,6.1l9.9,9.9l-2.1,2.1l-9.9-9.9L535.4,953z"/>
	<path d="M550.8,968.3l-2.1-2.1l13.7-13.7l2.1,2.1L550.8,968.3z M565.4,951.5c-0.4-0.4-0.6-0.8-0.6-1.4c0-0.6,0.2-1,0.6-1.4
		c0.4-0.4,0.9-0.6,1.5-0.6c0.6,0,1,0.2,1.4,0.6c0.4,0.4,0.6,0.9,0.6,1.5c0,0.6-0.2,1.1-0.6,1.5s-0.9,0.6-1.4,0.6
		C566.3,952.1,565.8,951.9,565.4,951.5z"/>
	<path d="M557.2,974.7l-2.1-2.1l13.7-13.7l2.1,2.1l-2.2,2.2c2.9-0.4,5.3,0.3,7.1,2.1l-2.2,2.2c-0.2-0.3-0.5-0.6-0.8-0.9
		c-0.6-0.6-1.6-1.1-2.8-1.4c-1.2-0.3-2.3-0.3-3.1-0.1L557.2,974.7z"/>
	<path d="M568.4,986.7c-2.3-2.3-3.5-4.9-3.4-7.7l2.6-0.4c-0.1,1,0.1,2.1,0.6,3.3c0.4,1.2,1.1,2.3,2,3.1c1,1,2,1.6,3,1.7
		c1,0.1,1.9-0.2,2.6-0.9c0.6-0.6,0.8-1.4,0.6-2.3c-0.2-0.9-0.7-1.9-1.3-2.9c-0.6-1-1.3-2-1.9-3.1c-0.6-1.1-0.9-2.2-0.9-3.4
		c0-1.2,0.5-2.2,1.4-3.2c1.1-1.1,2.5-1.6,4.2-1.4c1.7,0.2,3.3,1,4.9,2.6c2.1,2.1,3.1,4.4,3.1,7.1l-2.5,0.5c0.2-2.1-0.6-4.1-2.4-5.8
		c-0.9-0.9-1.9-1.5-2.8-1.6c-1-0.1-1.7,0.1-2.4,0.7c-0.6,0.6-0.7,1.3-0.4,2.2c0.3,0.9,0.7,1.9,1.4,2.9c0.6,1,1.3,2,1.8,3.1
		c0.6,1.1,0.9,2.2,0.8,3.4c0,1.2-0.5,2.3-1.5,3.3c-1.2,1.2-2.7,1.7-4.4,1.6S570.1,988.4,568.4,986.7z"/>
	<path d="M580.8,999c-1-1-1.5-2-1.5-3.1c0-1.1,0.6-2.1,1.6-3.2l9-9l-2.3-2.3l1.9-1.9l2.3,2.3l3.8-3.8l2.1,2.1l-3.8,3.8l2.8,2.8
		l-1.9,1.9l-2.8-2.8l-8.5,8.5c-0.5,0.5-0.8,1.1-0.9,1.6c-0.1,0.6,0.1,1.1,0.6,1.5c0.6,0.6,1.3,0.9,2,0.9l-1,2.2
		C583,1000.7,581.9,1000.1,580.8,999z"/>
	<path d="M602.1,1019.6l-8.6-8.6l19-19l8.4,8.4c1.6,1.6,2.5,3.4,2.5,5.2c0.1,1.8-0.6,3.5-2.1,4.9c-1.1,1.1-2.4,1.8-3.9,1.9
		c-1.4,0.1-2.7-0.2-3.8-0.9c0.9,1.2,1.2,2.6,1,4.2c-0.2,1.6-0.8,3-2,4.2c-1.5,1.5-3.3,2.3-5.2,2.2
		C605.6,1022.2,603.8,1021.3,602.1,1019.6z M603.7,1017.1c1.1,1.1,2.3,1.7,3.5,1.7c1.2,0,2.3-0.4,3.3-1.5c0.9-0.9,1.4-2,1.4-3.3
		c0-1.2-0.5-2.4-1.7-3.5l-5.8-5.8l-6.5,6.5L603.7,1017.1z M612.2,1008.3c1,1,2.1,1.6,3.3,1.6c1.1,0,2.2-0.4,3-1.3
		c0.9-0.9,1.3-1.9,1.3-3.1c0-1.2-0.5-2.2-1.5-3.3l-5.7-5.7l-6.1,6.1L612.2,1008.3z"/>
	<path d="M623.9,1038c-2.6,0.1-5-0.8-7-2.9c-2-2-3-4.4-2.9-7c0.1-2.6,1.2-5,3.3-7c2-2,4.4-3.1,7-3.3c2.6-0.1,5,0.8,7,2.9
		c2,2,3,4.4,2.9,7c-0.1,2.6-1.2,5-3.3,7C628.9,1036.8,626.5,1037.9,623.9,1038z M617,1028.3c-0.2,1.9,0.4,3.5,1.8,4.9
		c1.4,1.4,3,2,4.9,1.8c1.8-0.2,3.5-1.1,5-2.5c1.5-1.5,2.3-3.1,2.5-5s-0.4-3.5-1.8-4.9c-1.4-1.4-3-2-4.9-1.8c-1.9,0.2-3.5,1-5,2.5
		C618.1,1024.8,617.2,1026.5,617,1028.3z"/>
	<path d="M638.9,1056.5l-2.1-2.1l9-9c1.2-1.2,1.7-2.2,1.7-3.3c0-1-0.6-2-1.6-3c-0.8-0.8-1.8-1.4-2.9-1.7c-1.2-0.3-2.3-0.4-3.3-0.2
		l-10,10l-2.1-2.1l13.7-13.7l2.1,2.1l-2,2c1.2-0.1,2.4,0.1,3.8,0.5c1.4,0.4,2.5,1.1,3.5,2.1c2.9,2.9,2.9,5.9-0.1,8.8L638.9,1056.5z"
		/>
	<path d="M654.6,1072.2l-2.1-2.1l1.9-1.9c-1.2,0.1-2.5-0.1-3.8-0.5c-1.3-0.4-2.4-1.1-3.4-2.1c-2.9-2.9-2.9-5.8,0-8.8l9.7-9.7
		l2.1,2.1l-9,9c-1.1,1.1-1.7,2.2-1.6,3.2c0,1,0.6,2,1.6,3c0.8,0.8,1.8,1.4,2.9,1.7c1.1,0.4,2.2,0.4,3.2,0.3l10.1-10.1l2.1,2.1
		L654.6,1072.2z"/>
	<path d="M662.9,1081.1c-2.3-2.3-3.5-4.9-3.4-7.7l2.6-0.4c-0.1,1,0.1,2.1,0.6,3.3c0.4,1.2,1.1,2.3,2,3.1c1,1,2,1.6,3,1.7
		c1,0.1,1.9-0.2,2.6-0.9c0.6-0.6,0.8-1.4,0.6-2.3c-0.2-0.9-0.7-1.9-1.3-2.9c-0.6-1-1.3-2-1.9-3.1c-0.6-1.1-0.9-2.2-0.9-3.4
		c0-1.2,0.5-2.2,1.4-3.2c1.1-1.1,2.5-1.6,4.2-1.4c1.7,0.2,3.3,1,4.9,2.6c2.1,2.1,3.1,4.4,3.1,7.1l-2.5,0.5c0.2-2.1-0.6-4.1-2.4-5.8
		c-0.9-0.9-1.9-1.5-2.8-1.6c-1-0.1-1.7,0.1-2.4,0.7c-0.5,0.6-0.7,1.3-0.4,2.2c0.3,0.9,0.7,1.9,1.4,2.9c0.6,1,1.3,2,1.8,3.1
		c0.6,1.1,0.9,2.2,0.8,3.4c0,1.2-0.5,2.3-1.5,3.3c-1.2,1.2-2.7,1.7-4.4,1.6C666.3,1083.8,664.6,1082.8,662.9,1081.1z"/>
	<path d="M686.6,1104.1l-2.4-2.4l16.9-16.9l-6-6l2.1-2.1l14.4,14.4l-2.1,2.1l-6-6L686.6,1104.1z"/>
	<path d="M708.3,1122.4c-2.6,0.1-5-0.8-7-2.9c-2-2-3-4.4-2.9-7c0.1-2.6,1.2-5,3.3-7c2-2,4.4-3.1,7-3.3c2.6-0.1,4.9,0.8,7,2.9
		c2,2,3,4.4,2.9,7c-0.1,2.6-1.2,5-3.3,7C713.3,1121.2,710.9,1122.3,708.3,1122.4z M701.4,1112.8c-0.2,1.9,0.4,3.5,1.8,4.9
		c1.4,1.4,3,2,4.9,1.8c1.8-0.2,3.5-1.1,5-2.5c1.5-1.5,2.3-3.1,2.5-5c0.2-1.8-0.4-3.5-1.8-4.9c-1.4-1.4-3-2-4.9-1.8s-3.5,1-5,2.5
		C702.5,1109.2,701.6,1110.9,701.4,1112.8z"/>
	<path d="M723.3,1140.9l-2.1-2.1l1.9-1.9c-1.2,0.1-2.5-0.1-3.8-0.5c-1.3-0.4-2.4-1.1-3.4-2.1c-2.9-2.9-2.9-5.8,0-8.8l9.7-9.7
		l2.1,2.1l-9,9c-1.1,1.1-1.7,2.2-1.6,3.2c0,1,0.6,2,1.6,3c0.8,0.8,1.8,1.4,2.9,1.7c1.1,0.4,2.2,0.4,3.2,0.3l10.1-10.1l2.1,2.1
		L723.3,1140.9z"/>
	<path d="M729.7,1147.3l-2.1-2.1l13.7-13.7l2.1,2.1l-2.2,2.2c2.9-0.4,5.3,0.3,7.1,2.1l-2.2,2.2c-0.2-0.3-0.5-0.6-0.8-0.9
		c-0.6-0.6-1.6-1.1-2.8-1.4s-2.3-0.3-3.1-0.1L729.7,1147.3z"/>
	<path d="M748.4,1165.9l-2.1-2.1l9-9c1.2-1.2,1.7-2.2,1.7-3.3c0-1-0.6-2-1.6-3c-0.8-0.8-1.8-1.4-2.9-1.7c-1.2-0.3-2.3-0.4-3.3-0.2
		l-10,10l-2.1-2.1l13.7-13.7l2.1,2.1l-2,2c1.2-0.1,2.4,0.1,3.8,0.5c1.4,0.4,2.5,1.1,3.5,2.1c2.9,2.9,2.9,5.9-0.1,8.8L748.4,1165.9z"
		/>
	<path d="M763.4,1180.9l-2.1-2.1l1.6-1.6c-2.4,0.1-4.6-0.8-6.5-2.6c-1.3-1.3-2-2.8-2.1-4.6c-0.2-1.8,0.5-3.4,1.9-4.8
		c1.4-1.4,3-2.1,4.8-1.9c1.7,0.2,3.3,0.9,4.6,2.2c2,2,2.8,4.1,2.7,6.4l2.5-2.5c0.9-0.9,1.3-1.9,1.2-3.1c-0.1-1.2-0.7-2.2-1.7-3.3
		c-1.6-1.6-3.7-2.4-6.1-2.3l0.5-2.5c3-0.1,5.6,1,7.8,3.2c1.6,1.6,2.5,3.2,2.7,5c0.2,1.7-0.4,3.4-2,5L763.4,1180.9z M758.7,1173.8
		c1.7,1.7,3.5,2.4,5.5,2.1l2.6-2.6c0.3-2-0.4-3.8-2.1-5.5c-1-1-2.1-1.5-3.3-1.6c-1.2-0.1-2.2,0.3-3.1,1.2c-0.9,0.9-1.3,1.9-1.2,3.1
		C757.1,1171.8,757.7,1172.8,758.7,1173.8z"/>
	<path d="M786.4,1203.9l-2.1-2.1l9.3-9.3c1.9-1.9,2-3.7,0.3-5.4c-0.7-0.7-1.6-1.2-2.7-1.4c-1.1-0.3-2.1-0.3-3.1-0.1l-10.1,10.1
		l-2.1-2.1l9.3-9.3c1.9-1.9,2-3.7,0.3-5.4c-0.7-0.7-1.5-1.1-2.6-1.4c-1.1-0.3-2.1-0.3-3.1-0.1l-10,10l-2.1-2.1l13.7-13.7l2.1,2.1
		l-2,2c0.9-0.2,2-0.1,3.4,0.2c1.4,0.3,2.5,1,3.4,1.9c1,1,1.6,2.1,1.7,3.2s0,2.1-0.6,3.1c1.1-0.3,2.3-0.2,3.7,0.1
		c1.4,0.3,2.5,1,3.5,1.9c2.6,2.6,2.5,5.2-0.3,8L786.4,1203.9z"/>
	<path d="M796.5,1214.7c-2-2-3.1-4.4-3-7c0-2.6,1.1-5,3.3-7.2c2-2,4.4-3.1,7-3.2c2.7-0.1,5,0.8,6.9,2.7c2,2,2.9,4.3,2.7,6.9
		c-0.2,2.6-1.4,4.9-3.5,7.1l-0.5,0.5l-11.1-11.1c-1.3,1.4-1.9,3.1-1.9,4.9c0,1.8,0.7,3.4,2.1,4.8c1.7,1.7,3.7,2.5,6,2.5l-0.4,2.4
		C801.3,1218.1,798.7,1217,796.5,1214.7z M808.8,1210.9c1.2-1.2,1.8-2.7,2-4.4c0.2-1.7-0.5-3.3-1.9-4.7c-1.4-1.4-2.9-2-4.6-1.8
		c-1.7,0.1-3.2,0.8-4.5,1.9L808.8,1210.9z"/>
	<path d="M818.1,1235.6l-2.1-2.1l9-9c1.2-1.2,1.7-2.2,1.7-3.3c0-1-0.6-2-1.6-3c-0.8-0.8-1.8-1.4-2.9-1.7c-1.2-0.3-2.3-0.4-3.3-0.2
		l-10,10l-2.1-2.1l13.7-13.7l2.1,2.1l-2,2c1.2-0.1,2.4,0.1,3.8,0.5c1.4,0.4,2.5,1.1,3.5,2.1c2.9,2.9,2.9,5.9-0.1,8.8L818.1,1235.6z"
		/>
	<path d="M825.4,1243.7c-1-1-1.5-2-1.4-3.1c0-1.1,0.6-2.1,1.6-3.2l9-9l-2.3-2.3l1.9-1.9l2.3,2.3l3.8-3.8l2.1,2.1l-3.8,3.8l2.8,2.8
		l-1.9,1.9l-2.8-2.8l-8.5,8.5c-0.5,0.5-0.8,1.1-0.9,1.6c-0.1,0.6,0.1,1.1,0.6,1.5c0.6,0.6,1.3,0.9,2,0.9l-1,2.2
		C827.7,1245.3,826.5,1244.8,825.4,1243.7z"/>
</g>
<g>
	<path d="M633.2,959.4l-8.6-8.6l19-19l8.4,8.4c1.6,1.6,2.5,3.4,2.5,5.2c0.1,1.8-0.6,3.5-2.1,4.9c-1.1,1.1-2.4,1.8-3.9,1.9
		c-1.4,0.1-2.7-0.2-3.8-0.9c0.9,1.2,1.2,2.6,1,4.2c-0.2,1.6-0.8,3-2,4.2c-1.5,1.5-3.3,2.3-5.2,2.2
		C636.7,962,634.9,961.1,633.2,959.4z M634.8,956.8c1.1,1.1,2.3,1.7,3.5,1.7c1.2,0,2.3-0.4,3.3-1.5c0.9-0.9,1.4-2,1.4-3.3
		c0-1.2-0.5-2.4-1.7-3.5l-5.8-5.8L629,951L634.8,956.8z M643.4,948.1c1,1,2.1,1.6,3.3,1.6c1.1,0,2.2-0.4,3-1.3
		c0.9-0.9,1.3-1.9,1.3-3.1c0-1.2-0.5-2.2-1.5-3.3l-5.7-5.7l-6.1,6.1L643.4,948.1z"/>
	<path d="M655,977.8c-2.6,0.1-5-0.8-7-2.9c-2-2-3-4.4-2.9-7c0.1-2.6,1.2-5,3.3-7c2-2,4.4-3.1,7-3.3c2.6-0.1,4.9,0.8,7,2.9
		c2,2,3,4.4,2.9,7c-0.1,2.6-1.2,5-3.3,7C660,976.5,657.7,977.6,655,977.8z M648.1,968.1c-0.2,1.9,0.4,3.5,1.8,4.9
		c1.4,1.4,3,2,4.9,1.8c1.8-0.2,3.5-1.1,5-2.5c1.5-1.5,2.3-3.1,2.5-5c0.2-1.8-0.4-3.5-1.8-4.9c-1.4-1.4-3-2-4.9-1.8
		c-1.9,0.2-3.5,1-5,2.5C649.2,964.6,648.3,966.3,648.1,968.1z"/>
	<path d="M670,996.3l-2.1-2.1l1.9-1.9c-1.2,0.1-2.5-0.1-3.8-0.5c-1.3-0.4-2.4-1.1-3.4-2.1c-2.9-2.9-2.9-5.8,0-8.8l9.7-9.7l2.1,2.1
		l-9,9c-1.1,1.1-1.7,2.2-1.6,3.2c0,1,0.6,2,1.6,3c0.8,0.8,1.8,1.4,2.9,1.7c1.1,0.3,2.2,0.4,3.2,0.3l10.1-10.1l2.1,2.1L670,996.3z"/>
	<path d="M685.7,1011.9l-2.1-2.1l9-9c1.2-1.2,1.7-2.2,1.7-3.3c0-1-0.6-2-1.6-3c-0.8-0.8-1.8-1.4-2.9-1.7c-1.2-0.3-2.3-0.4-3.3-0.2
		l-10,10l-2.1-2.1l13.7-13.7l2.1,2.1l-2,2c1.2-0.1,2.4,0.1,3.8,0.5c1.4,0.4,2.5,1.1,3.5,2.1c2.9,2.9,2.9,5.9-0.1,8.8L685.7,1011.9z"
		/>
	<path d="M693.1,1020c-1-1-1.5-2-1.5-3.1c0-1.1,0.6-2.1,1.6-3.2l9-9l-2.3-2.3l1.9-1.9l2.3,2.3l3.8-3.8l2.1,2.1l-3.8,3.8l2.8,2.8
		l-1.9,1.9l-2.8-2.8l-8.5,8.5c-0.5,0.5-0.8,1.1-0.9,1.6c-0.1,0.6,0.1,1.1,0.6,1.5c0.6,0.6,1.3,0.9,2,0.9l-1,2.2
		C695.3,1021.7,694.2,1021.1,693.1,1020z"/>
	<path d="M692.2,1029.2l2.3-1.6c0.2,0.5,0.5,1,0.9,1.4c0.5,0.5,1,0.8,1.5,0.9c0.5,0.1,1.2,0,2-0.3l3-1.2l8.1-19.6l2.3,2.3l-6.7,15.8
		l15.8-6.7l2.3,2.3l-23.4,9.6c-2.6,1.1-4.9,0.6-6.8-1.3C693,1030.4,692.5,1029.8,692.2,1029.2z"/>
	<path d="M722.1,1048.3l-2.4-2.4l19-19l7.6,7.6c1.8,1.8,2.7,3.8,2.7,6c0,2.2-0.9,4-2.5,5.7s-3.5,2.4-5.7,2.5c-2.2,0-4.2-0.9-6-2.7
		l-5.3-5.3L722.1,1048.3z M736.7,1043.6c1.1,1.1,2.4,1.7,3.7,1.7c1.4,0,2.6-0.5,3.7-1.6c1.1-1.1,1.6-2.3,1.5-3.7
		c0-1.4-0.6-2.6-1.7-3.7l-5-5l-7.2,7.2L736.7,1043.6z"/>
	<path d="M738.5,1064.7l-2.1-2.1l13.7-13.7l2.1,2.1l-2.2,2.2c2.9-0.4,5.3,0.3,7.1,2.1l-2.2,2.2c-0.2-0.3-0.5-0.6-0.8-0.9
		c-0.6-0.6-1.6-1.1-2.8-1.4c-1.2-0.3-2.3-0.3-3.1-0.1L738.5,1064.7z"/>
	<path d="M758.4,1081.1c-2.6,0.1-5-0.8-7-2.9c-2-2-3-4.4-2.9-7c0.1-2.6,1.2-5,3.3-7c2-2,4.4-3.1,7-3.3c2.6-0.1,4.9,0.8,7,2.9
		c2,2,3,4.4,2.9,7c-0.1,2.6-1.2,5-3.3,7C763.3,1079.9,761,1081,758.4,1081.1z M751.5,1071.5c-0.2,1.9,0.4,3.5,1.8,4.9
		c1.4,1.4,3,2,4.9,1.8c1.8-0.2,3.5-1.1,5-2.5c1.5-1.5,2.3-3.1,2.5-5c0.2-1.8-0.4-3.5-1.8-4.9c-1.4-1.4-3-2-4.9-1.8
		c-1.9,0.2-3.5,1-5,2.5C752.5,1067.9,751.7,1069.6,751.5,1071.5z"/>
	<path d="M761.9,1099.3c-1.2-1.2-2.1-2.4-2.7-3.5c-0.6-1.1-0.8-2.5-0.8-4.1l2.7-0.5c-0.2,2.3,0.7,4.4,2.6,6.3c1.3,1.3,2.7,2,4.2,2.1
		c1.5,0.2,3-0.5,4.4-1.9l2-2c-1.2,0.2-2.5,0.1-3.8-0.2c-1.3-0.4-2.4-1-3.3-1.9c-1.8-1.8-2.7-3.9-2.5-6.3c0.2-2.4,1.3-4.7,3.5-6.9
		c2.2-2.2,4.5-3.4,6.9-3.5c2.4-0.2,4.5,0.7,6.4,2.5c1.9,1.9,2.6,4.2,2.2,7l2.1-2.1l2.1,2.1l-13.3,13.3c-2.1,2.1-4.2,3-6.4,2.7
		C765.9,1102.3,763.8,1101.2,761.9,1099.3z M769.5,1092.3c0.8,0.8,1.8,1.4,3,1.7c1.2,0.3,2.3,0.4,3.3,0.1l6-6c0.2-1,0.2-2.1-0.1-3.3
		c-0.3-1.2-0.9-2.2-1.7-3c-1.4-1.4-2.9-2-4.7-1.8c-1.8,0.2-3.4,1-5,2.6c-1.5,1.5-2.4,3.2-2.6,5
		C767.6,1089.4,768.2,1091,769.5,1092.3z"/>
	<path d="M780.4,1106.7l-2.1-2.1l13.7-13.7l2.1,2.1l-2.2,2.2c2.9-0.4,5.3,0.3,7.1,2.1l-2.2,2.2c-0.2-0.3-0.5-0.6-0.8-0.9
		c-0.6-0.6-1.6-1.1-2.8-1.4c-1.2-0.3-2.3-0.3-3.1-0.1L780.4,1106.7z"/>
	<path d="M798.4,1124.6l-2.1-2.1l1.6-1.6c-2.4,0.1-4.6-0.8-6.5-2.6c-1.3-1.3-2-2.8-2.1-4.6c-0.2-1.8,0.5-3.4,1.9-4.8
		c1.4-1.4,3-2.1,4.8-1.9c1.7,0.2,3.3,0.9,4.6,2.2c2,2,2.8,4.1,2.7,6.4l2.5-2.5c0.9-0.9,1.3-1.9,1.2-3.1c-0.1-1.2-0.7-2.2-1.7-3.3
		c-1.6-1.6-3.7-2.4-6.1-2.3l0.5-2.5c3-0.1,5.6,1,7.8,3.2c1.6,1.6,2.5,3.2,2.7,5c0.2,1.7-0.4,3.4-2,5L798.4,1124.6z M793.7,1117.5
		c1.7,1.7,3.5,2.4,5.5,2.1l2.6-2.6c0.3-2-0.4-3.8-2.1-5.5c-1-1-2.1-1.5-3.3-1.6c-1.2-0.1-2.2,0.3-3.1,1.2c-0.9,0.9-1.3,1.9-1.2,3.1
		C792.2,1115.5,792.7,1116.5,793.7,1117.5z"/>
	<path d="M821.4,1147.6l-2.1-2.1l9.3-9.3c1.9-1.9,2-3.7,0.3-5.4c-0.7-0.7-1.6-1.2-2.7-1.4c-1.1-0.3-2.1-0.3-3.1-0.1l-10.1,10.1
		l-2.1-2.1l9.3-9.3c1.9-1.9,2-3.7,0.3-5.4c-0.7-0.7-1.5-1.1-2.6-1.4c-1.1-0.3-2.1-0.3-3.1-0.1l-10,10l-2.1-2.1l13.7-13.7l2.1,2.1
		l-2,2c0.9-0.2,2-0.1,3.4,0.2s2.5,1,3.4,1.9c1,1,1.6,2.1,1.7,3.2c0.2,1.1,0,2.1-0.6,3.1c1.1-0.3,2.3-0.2,3.7,0.1
		c1.4,0.3,2.5,1,3.5,1.9c2.6,2.6,2.5,5.2-0.3,8L821.4,1147.6z"/>
</g>
<g>
	<path d="M733.6,961l-2.7-2.7l2.5-5.9L724,943l-5.9,2.5l-2.7-2.7l26.6-11.4l2.9,2.9L733.6,961z M734.8,949.6l6.2-14.2l-14.3,6.2
		L734.8,949.6z"/>
	<path d="M748.1,975.5l-2.1-2.1l2-2c-2.8,0.4-5.1-0.3-7-2.2c-1.8-1.8-2.6-3.9-2.5-6.4c0.2-2.4,1.4-4.7,3.6-6.9
		c2.2-2.2,4.5-3.4,6.9-3.6c2.4-0.2,4.6,0.6,6.4,2.4c1.9,1.9,2.6,4.2,2.2,7.1l7.3-7.3l2.1,2.1L748.1,975.5z M743.4,967.7
		c0.8,0.8,1.8,1.4,3,1.8c1.2,0.3,2.3,0.4,3.3,0.2l6.2-6.2c0.2-1,0.2-2.1-0.2-3.3c-0.3-1.2-0.9-2.2-1.7-3c-1.3-1.3-2.9-1.9-4.7-1.7
		c-1.8,0.2-3.5,1.1-5,2.6c-1.6,1.6-2.4,3.2-2.6,5C741.5,964.8,742.1,966.3,743.4,967.7z"/>
	<path d="M758.4,985.8l-2.3-2.3l8-19.5l2.3,2.3l-6.7,15.8l15.8-6.7l2.3,2.3L758.4,985.8z"/>
	<path d="M768.4,995.8l-2.1-2.1L780,980l2.1,2.1L768.4,995.8z M783.1,979c-0.4-0.4-0.6-0.8-0.6-1.4c0-0.6,0.2-1,0.6-1.4
		s0.9-0.6,1.5-0.6c0.6,0,1,0.2,1.4,0.6c0.4,0.4,0.6,0.9,0.6,1.5c0,0.6-0.2,1.1-0.6,1.5c-0.4,0.4-0.9,0.6-1.4,0.6
		C783.9,979.6,783.5,979.4,783.1,979z"/>
	<path d="M776.7,1004.8c-2.3-2.3-3.5-4.9-3.4-7.7l2.6-0.4c-0.1,1,0.1,2.1,0.6,3.3c0.4,1.2,1.1,2.3,2,3.1c1,1,2,1.6,3,1.7
		c1,0.1,1.9-0.2,2.6-0.9c0.6-0.6,0.8-1.4,0.6-2.3c-0.2-0.9-0.7-1.9-1.3-2.9c-0.6-1-1.3-2-1.9-3.1c-0.6-1.1-0.9-2.2-0.9-3.4
		c0-1.2,0.5-2.2,1.4-3.2c1.1-1.1,2.5-1.6,4.2-1.4c1.7,0.2,3.3,1,4.9,2.6c2.1,2.1,3.1,4.4,3.1,7.1l-2.5,0.5c0.2-2.1-0.6-4.1-2.4-5.8
		c-0.9-0.9-1.9-1.5-2.8-1.6c-1-0.1-1.7,0.1-2.4,0.7c-0.6,0.6-0.7,1.3-0.4,2.2c0.3,0.9,0.7,1.9,1.4,2.9c0.6,1,1.3,2,1.8,3.1
		c0.6,1.1,0.9,2.2,0.8,3.4c0,1.2-0.5,2.3-1.5,3.3c-1.2,1.2-2.7,1.7-4.4,1.6C780.1,1007.4,778.4,1006.5,776.7,1004.8z"/>
	<path d="M798.6,1022.5c-2.6,0.1-5-0.8-7-2.9c-2-2-3-4.4-2.9-7c0.1-2.6,1.2-5,3.3-7c2-2,4.4-3.1,7-3.3c2.6-0.1,5,0.8,7,2.9
		c2,2,3,4.4,2.9,7c-0.1,2.6-1.2,5-3.3,7C803.6,1021.3,801.2,1022.4,798.6,1022.5z M791.7,1012.9c-0.2,1.9,0.4,3.5,1.8,4.9
		c1.4,1.4,3,2,4.9,1.8c1.8-0.2,3.5-1.1,5-2.5c1.5-1.5,2.3-3.1,2.5-5c0.2-1.8-0.4-3.5-1.8-4.9c-1.4-1.4-3-2-4.9-1.8
		c-1.9,0.2-3.5,1-5,2.5C792.8,1009.3,791.9,1011,791.7,1012.9z"/>
	<path d="M804.3,1031.7l-2.1-2.1l13.7-13.7l2.1,2.1l-2.2,2.2c2.9-0.4,5.3,0.3,7.1,2.1l-2.2,2.2c-0.2-0.3-0.5-0.6-0.8-0.9
		c-0.6-0.6-1.6-1.1-2.8-1.4c-1.2-0.3-2.3-0.3-3.1-0.1L804.3,1031.7z"/>
	<path d="M805.4,1043.6l2.3-1.6c0.2,0.5,0.5,1,0.9,1.4c0.5,0.5,1,0.8,1.5,0.9c0.5,0.1,1.2,0,2-0.3l3-1.2l8.1-19.6l2.3,2.3l-6.7,15.8
		l15.8-6.7l2.3,2.3l-23.4,9.6c-2.6,1.1-4.9,0.6-6.8-1.3C806.2,1044.8,805.8,1044.2,805.4,1043.6z"/>
	<path d="M841.6,1069l-8.6-8.6l19-19l8.5,8.5c1.6,1.6,2.5,3.4,2.5,5.2c0.1,1.8-0.6,3.5-2.1,4.9c-1.1,1.1-2.4,1.8-3.9,1.9
		c-1.4,0.1-2.7-0.2-3.8-0.9c0.9,1.2,1.2,2.6,1,4.2c-0.2,1.6-0.8,3-2,4.2c-1.5,1.5-3.3,2.3-5.2,2.2
		C845.1,1071.6,843.3,1070.7,841.6,1069z M843.2,1066.4c1.1,1.1,2.3,1.7,3.5,1.7c1.2,0,2.3-0.4,3.3-1.5c0.9-0.9,1.4-2,1.4-3.3
		c0-1.2-0.5-2.4-1.7-3.5l-5.8-5.8l-6.5,6.5L843.2,1066.4z M851.8,1057.6c1,1,2.1,1.6,3.3,1.6c1.1,0,2.2-0.4,3-1.3
		c0.9-0.9,1.3-1.9,1.3-3.1c0-1.2-0.5-2.2-1.5-3.3l-5.7-5.7l-6.1,6.1L851.8,1057.6z"/>
	<path d="M863.4,1087.4c-2.6,0.1-5-0.8-7-2.9c-2-2-3-4.4-2.9-7c0.1-2.6,1.2-5,3.3-7c2-2,4.4-3.1,7-3.3c2.6-0.1,4.9,0.8,7,2.9
		c2,2,3,4.4,2.9,7c-0.1,2.6-1.2,5-3.3,7C868.4,1086.1,866.1,1087.2,863.4,1087.4z M856.5,1077.7c-0.2,1.9,0.4,3.5,1.8,4.9
		c1.4,1.4,3,2,4.9,1.8c1.8-0.2,3.5-1.1,5-2.5c1.5-1.5,2.3-3.1,2.5-5c0.2-1.8-0.4-3.5-1.8-4.9c-1.4-1.4-3-2-4.9-1.8
		c-1.9,0.2-3.5,1-5,2.5C857.6,1074.2,856.7,1075.8,856.5,1077.7z"/>
	<path d="M877.8,1105.1l-2.1-2.1l1.6-1.6c-2.4,0.1-4.6-0.8-6.5-2.6c-1.3-1.3-2-2.8-2.1-4.6c-0.2-1.8,0.5-3.4,1.9-4.8
		c1.4-1.4,3-2.1,4.8-1.9c1.7,0.2,3.3,0.9,4.6,2.2c2,2,2.8,4.1,2.7,6.4l2.5-2.5c0.9-0.9,1.3-1.9,1.2-3.1c-0.1-1.2-0.7-2.2-1.7-3.3
		c-1.6-1.6-3.7-2.4-6.1-2.3l0.5-2.5c3-0.1,5.6,1,7.8,3.2c1.6,1.6,2.5,3.2,2.7,5c0.2,1.7-0.4,3.4-2,5L877.8,1105.1z M873,1098
		c1.7,1.7,3.5,2.4,5.5,2.1l2.6-2.6c0.3-2-0.4-3.8-2.1-5.5c-1-1-2.1-1.5-3.3-1.6c-1.2-0.1-2.2,0.3-3.1,1.2c-0.9,0.9-1.3,1.9-1.2,3.1
		C871.5,1096,872,1097.1,873,1098z"/>
	<path d="M884.2,1111.6l-2.1-2.1l13.7-13.7l2.1,2.1l-2.2,2.2c2.9-0.4,5.3,0.3,7.1,2.1l-2.2,2.2c-0.2-0.3-0.5-0.6-0.8-0.9
		c-0.6-0.6-1.6-1.1-2.8-1.4c-1.2-0.3-2.3-0.3-3.1-0.1L884.2,1111.6z"/>
	<path d="M903.5,1130.9l-2.1-2.1l2-2c-2.8,0.4-5.1-0.3-7-2.2c-1.8-1.8-2.6-3.9-2.5-6.4c0.2-2.4,1.4-4.7,3.6-6.9
		c2.2-2.2,4.5-3.4,6.9-3.6s4.6,0.6,6.4,2.4c1.9,1.9,2.6,4.2,2.2,7.1l7.3-7.3l2.1,2.1L903.5,1130.9z M898.8,1123.1
		c0.8,0.8,1.8,1.4,3,1.8c1.2,0.3,2.3,0.4,3.3,0.2l6.2-6.2c0.2-1,0.2-2.1-0.2-3.3c-0.3-1.2-0.9-2.2-1.7-3c-1.3-1.3-2.9-1.9-4.7-1.7
		c-1.8,0.2-3.5,1.1-5,2.6c-1.6,1.6-2.4,3.2-2.6,5C896.9,1120.2,897.5,1121.7,898.8,1123.1z"/>
</g>
<g>
	<linearGradient id="SVGID_9_" gradientUnits="userSpaceOnUse" x1="-1691.2211" y1="463" x2="-811.2211" y2="463">
		<stop  offset="0" style="stop-color:#E72479"/>
		<stop  offset="1" style="stop-color:#F19C6D"/>
	</linearGradient>
	<path class="st12" d="M-826.2,683c0-234.7-190.3-425-425-425s-425,190.3-425,425"/>
	<linearGradient id="SVGID_10_" gradientUnits="userSpaceOnUse" x1="-1641.2211" y1="488" x2="-1251.2211" y2="488">
		<stop  offset="0" style="stop-color:#E72479"/>
		<stop  offset="1" style="stop-color:#F19C6D"/>
	</linearGradient>
	<path class="st13" d="M-1626.2,683c0-207.1,167.9-375,375-375"/>
	<linearGradient id="SVGID_11_" gradientUnits="userSpaceOnUse" x1="-1576.2211" y1="683" x2="-1576.2211" y2="683">
		<stop  offset="0" style="stop-color:#FABA48"/>
		<stop  offset="1" style="stop-color:#DC4076"/>
	</linearGradient>
	<path class="st14" d="M-1576.2,683"/>
	<linearGradient id="SVGID_12_" gradientUnits="userSpaceOnUse" x1="-1591.2211" y1="548.1216" x2="-1439.9264" y2="548.1216">
		<stop  offset="0" style="stop-color:#E72479"/>
		<stop  offset="1" style="stop-color:#F19C6D"/>
	</linearGradient>
	<path class="st15" d="M-1449.1,425.1c-77.3,59.4-127.2,152.8-127.2,257.9"/>
	<linearGradient id="SVGID_13_" gradientUnits="userSpaceOnUse" x1="-1541.2211" y1="588.1059" x2="-1447.8239" y2="588.1059">
		<stop  offset="0" style="stop-color:#E72479"/>
		<stop  offset="1" style="stop-color:#F19C6D"/>
	</linearGradient>
	<path class="st16" d="M-1459.2,503c-41.8,48.2-67.1,111.1-67.1,180"/>
	<linearGradient id="SVGID_14_" gradientUnits="userSpaceOnUse" x1="-1476.2211" y1="683" x2="-1476.2211" y2="683">
		<stop  offset="0" style="stop-color:#FABA48"/>
		<stop  offset="1" style="stop-color:#DC4076"/>
	</linearGradient>
	<path class="st17" d="M-1476.2,683"/>
	<linearGradient id="SVGID_15_" gradientUnits="userSpaceOnUse" x1="-1491.2211" y1="625.7957" x2="-1435.8842" y2="625.7957">
		<stop  offset="0" style="stop-color:#E72479"/>
		<stop  offset="1" style="stop-color:#F19C6D"/>
	</linearGradient>
	<path class="st18" d="M-1449.1,575.8c-17.3,31.9-27.2,68.4-27.2,107.2"/>
	<linearGradient id="SVGID_16_" gradientUnits="userSpaceOnUse" x1="-1441.2211" y1="632.948" x2="-1387.2539" y2="632.948">
		<stop  offset="0" style="stop-color:#E72479"/>
		<stop  offset="1" style="stop-color:#F19C6D"/>
	</linearGradient>
	<path class="st19" d="M-1400,590.8c-16.6,26.8-26.2,58.4-26.2,92.2"/>
</g>
<line class="st8" x1="-1387.2" y1="683" x2="-1718.2" y2="683"/>
<line class="st8" x1="-863.2" y1="683" x2="-789.2" y2="683"/>
<text transform="matrix(0.8467 0.5321 -0.5321 0.8467 -1406.1547 581.2871)" style="font-family:'ProximaNova-Semibold'; font-size:20px;">3%</text>
<text transform="matrix(0.8752 0.4838 -0.4838 0.8752 -1455.4919 564.4238)" style="font-family:'ProximaNova-Semibold'; font-size:20px;">3%</text>
<text transform="matrix(0.7494 0.6622 -0.6622 0.7494 -1462.6436 490.4846)" style="font-family:'ProximaNova-Semibold'; font-size:20px;">5%</text>
<text transform="matrix(0.6135 0.7897 -0.7897 0.6135 -1448.1176 411.7605)" style="font-family:'ProximaNova-Semibold'; font-size:20px;">7%</text>
<text transform="matrix(5.409431e-03 1 -1 5.409431e-03 -1246.0299 291.0474)" class="st9" style="font-family:'ProximaNova-Semibold'; font-size:20px;">12%</text>
<polyline class="st10" points="-826.2,683 -826.2,743.3 -946.6,743.3 -946.6,683 -968.2,683 "/>
<path class="st9" d="M-976.7,699.3h-35c-4.7,0-8.5-3.8-8.5-8.5v-14c0-4.7,3.8-8.5,8.5-8.5h35c4.7,0,8.5,3.8,8.5,8.5v14
	C-968.2,695.5-972,699.3-976.7,699.3z"/>
<text transform="matrix(1 -5.409431e-03 5.409431e-03 1 -1012.7717 690.5004)" class="st11" style="font-family:'ProximaNova-Regular'; font-size:20px;">70%</text>
<text transform="matrix(1 0 0 1 -1304.455 658.2849)"><tspan x="0" y="0" class="st9" style="font-family:'ProximaNova-Bold'; font-size:56px;">Tokens </tspan><tspan x="-49.1" y="44" class="st9" style="font-family:'ProximaNova-Bold'; font-size:56px;">Distribution</tspan></text>
<text transform="matrix(0.7071 0.7071 -0.7071 0.7071 -1696.0554 703.4204)" style="font-family:'ProximaNova-Semibold'; font-size:27px;">Crowd Sale</text>
<text transform="matrix(0.7071 0.7071 -0.7071 0.7071 -1636.5927 705.2156)" style="font-family:'ProximaNova-Regular'; font-size:23px;">Project Team</text>
<text transform="matrix(0.7071 0.7071 -0.7071 0.7071 -1583.2455 705.2296)" style="font-family:'ProximaNova-Regular'; font-size:23px;">Reserve Fund</text>
<text transform="matrix(0.7071 0.7071 -0.7071 0.7071 -1535.0917 705.1328)" style="font-family:'ProximaNova-Regular'; font-size:23px;">First Bonus Tournament</text>
<text transform="matrix(0.7071 0.7071 -0.7071 0.7071 -1482.7915 705.2142)" style="font-family:'ProximaNova-Regular'; font-size:23px;">Bounty Program</text>
<text transform="matrix(0.7071 0.7071 -0.7071 0.7071 -1429.726 701.7788)" style="font-family:'ProximaNova-Regular'; font-size:23px;">Advisory Board</text>
</svg>
