<?xml version="1.0" encoding="utf-8"?>
<!-- Generator: Adobe Illustrator 22.0.1, SVG Export Plug-In . SVG Version: 6.00 Build 0)  -->
<svg version="1.1" id="Слой_1" xmlns="http://www.w3.org/2000/svg" xmlns:xlink="http://www.w3.org/1999/xlink" x="0px" y="0px"
	 viewBox="0 0 1796 1222" style="enable-background:new 0 0 1796 1222;" xml:space="preserve">
<style type="text/css">
	.st0{fill:none;stroke:url(#SVGID_1_);stroke-width:57;stroke-miterlimit:10;}
	.st1{fill:none;stroke:url(#SVGID_2_);stroke-width:57;stroke-miterlimit:10;}
	.st2{fill:none;stroke:url(#SVGID_3_);stroke-width:44;stroke-miterlimit:10;}
	.st3{fill:none;stroke:url(#SVGID_4_);stroke-width:57;stroke-miterlimit:10;}
	.st4{fill:none;stroke:url(#SVGID_5_);stroke-width:57;stroke-miterlimit:10;}
	.st5{fill:none;stroke:url(#SVGID_6_);stroke-width:44;stroke-miterlimit:10;}
	.st6{fill:none;stroke:url(#SVGID_7_);stroke-width:57;stroke-miterlimit:10;}
	.st7{fill:none;stroke:url(#SVGID_8_);stroke-width:57;stroke-miterlimit:10;}
	.st8{fill:none;stroke:#000000;stroke-width:5;stroke-miterlimit:10;}
	.st9{fill:#2A2E3D;}
	.st10{fill:#FFFFFF;stroke:#FFFFFF;stroke-miterlimit:10;}
	.st11{fill:none;stroke:url(#SVGID_9_);stroke-width:30;stroke-miterlimit:10;}
	.st12{fill:none;stroke:url(#SVGID_10_);stroke-width:30;stroke-miterlimit:10;}
	.st13{fill:none;stroke:url(#SVGID_11_);stroke-width:30;stroke-miterlimit:10;}
	.st14{fill:none;stroke:url(#SVGID_12_);stroke-width:30;stroke-miterlimit:10;}
	.st15{fill:none;stroke:url(#SVGID_13_);stroke-width:30;stroke-miterlimit:10;}
	.st16{fill:none;stroke:url(#SVGID_14_);stroke-width:30;stroke-miterlimit:10;}
	.st17{fill:none;stroke:url(#SVGID_15_);stroke-width:30;stroke-miterlimit:10;}
	.st18{fill:none;stroke:url(#SVGID_16_);stroke-width:30;stroke-miterlimit:10;}
	.st19{fill:none;stroke:#000000;stroke-width:3;stroke-miterlimit:10;}
	.st20{fill:none;stroke:#000000;stroke-miterlimit:10;}
</style>
<g>
	
		<linearGradient id="SVGID_1_" gradientUnits="userSpaceOnUse" x1="75.7" y1="577.85" x2="1733.9" y2="577.85" gradientTransform="matrix(1 0 0 1 0 -142)">
		<stop  offset="0" style="stop-color:#E72479"/>
		<stop  offset="1" style="stop-color:#F19C6D"/>
	</linearGradient>
	<path class="st0" d="M1705.4,850.4c0-442.2-358.4-800.6-800.6-800.6S104.2,408.2,104.2,850.4"/>
	
		<linearGradient id="SVGID_2_" gradientUnits="userSpaceOnUse" x1="169.9" y1="624.95" x2="904.8" y2="624.95" gradientTransform="matrix(1 0 0 1 0 -142)">
		<stop  offset="0" style="stop-color:#E72479"/>
		<stop  offset="1" style="stop-color:#F19C6D"/>
	</linearGradient>
	<path class="st1" d="M198.4,850.4c0-390.1,316.3-706.4,706.4-706.4"/>
	
		<linearGradient id="SVGID_3_" gradientUnits="userSpaceOnUse" x1="292.6" y1="992.4" x2="292.6" y2="992.4" gradientTransform="matrix(1 0 0 1 0 -142)">
		<stop  offset="0" style="stop-color:#FABA48"/>
		<stop  offset="1" style="stop-color:#DC4076"/>
	</linearGradient>
	<path class="st2" d="M292.6,850.4"/>
	
		<linearGradient id="SVGID_4_" gradientUnits="userSpaceOnUse" x1="264.1" y1="738.2051" x2="549.4767" y2="738.2051" gradientTransform="matrix(1 0 0 1 0 -142)">
		<stop  offset="0" style="stop-color:#E72479"/>
		<stop  offset="1" style="stop-color:#F19C6D"/>
	</linearGradient>
	<path class="st3" d="M532.1,364.6c-145.6,112-239.5,287.9-239.5,485.8"/>
	
		<linearGradient id="SVGID_5_" gradientUnits="userSpaceOnUse" x1="358.3" y1="813.5727" x2="534.6465" y2="813.5727" gradientTransform="matrix(1 0 0 1 0 -142)">
		<stop  offset="0" style="stop-color:#E72479"/>
		<stop  offset="1" style="stop-color:#F19C6D"/>
	</linearGradient>
	<path class="st4" d="M513.1,511.4c-78.7,90.9-126.3,209.4-126.3,339"/>
	
		<linearGradient id="SVGID_6_" gradientUnits="userSpaceOnUse" x1="481" y1="992.4" x2="481" y2="992.4" gradientTransform="matrix(1 0 0 1 0 -142)">
		<stop  offset="0" style="stop-color:#FABA48"/>
		<stop  offset="1" style="stop-color:#DC4076"/>
	</linearGradient>
	<path class="st5" d="M481,850.4"/>
	
		<linearGradient id="SVGID_7_" gradientUnits="userSpaceOnUse" x1="452.4" y1="884.6056" x2="557.1518" y2="884.6056" gradientTransform="matrix(1 0 0 1 0 -142)">
		<stop  offset="0" style="stop-color:#E72479"/>
		<stop  offset="1" style="stop-color:#F19C6D"/>
	</linearGradient>
	<path class="st6" d="M532.1,648.4c-32.6,60.1-51.2,128.9-51.2,202"/>
	
		<linearGradient id="SVGID_8_" gradientUnits="userSpaceOnUse" x1="546.7" y1="898.0321" x2="648.811" y2="898.0321" gradientTransform="matrix(1 0 0 1 0 -142)">
		<stop  offset="0" style="stop-color:#E72479"/>
		<stop  offset="1" style="stop-color:#F19C6D"/>
	</linearGradient>
	<path class="st7" d="M624.6,676.7c-31.3,50.4-49.4,109.9-49.4,173.7"/>
</g>
<line class="st8" x1="648.6" y1="850.4" x2="25.1" y2="850.4"/>
<line class="st8" x1="1635.7" y1="850.4" x2="1775.1" y2="850.4"/>
<g>
	<path d="M621.5,664.7c-1.8-1.1-3.2-2.5-4.2-4s-1.6-3-1.7-4.5l3.6-1.2c0.2,1.2,0.7,2.4,1.4,3.5c0.8,1.1,1.7,2.1,2.8,2.8
		c1.4,0.9,2.6,1.3,3.8,1.2s2-0.6,2.7-1.6c1.3-2,0.3-4-2.8-6c-1.4-0.9-2.3-1.4-2.5-1.5l2.1-3.3c0.2,0.2,1.1,0.7,2.4,1.6
		c1.3,0.8,2.5,1.3,3.6,1.3s1.9-0.4,2.5-1.4s0.7-1.9,0.2-3c-0.5-1-1.4-1.9-2.6-2.7c-2.1-1.3-4.4-1.7-7-1.1l-0.5-3.5
		c3.3-1,6.6-0.5,9.9,1.5c2.3,1.5,3.9,3.1,4.6,5.1c0.8,1.9,0.6,3.8-0.5,5.5c-0.8,1.3-2,2.1-3.4,2.4c-1.5,0.3-2.9,0.1-4.2-0.4
		c1.1,0.9,2,2.1,2.4,3.7c0.5,1.6,0.2,3.1-0.7,4.6c-1.1,1.8-2.8,2.9-5,3.1C626.2,666.9,623.9,666.2,621.5,664.7z"/>
	<path d="M637.5,674.2l-2.1-1.3l27-12.7l2.1,1.3L637.5,674.2z M644.4,663.1c-1.6-1-2.5-2.3-2.9-3.9c-0.4-1.6-0.1-3.2,0.9-4.7
		s2.2-2.5,3.9-2.9c1.6-0.4,3.2-0.1,4.7,0.9c1.6,1,2.5,2.3,2.9,3.9c0.4,1.6,0,3.2-0.9,4.7s-2.2,2.4-3.8,2.8
		C647.5,664.4,645.9,664.1,644.4,663.1z M645.7,661c0.8,0.5,1.7,0.7,2.6,0.4c0.9-0.3,1.6-0.8,2.2-1.7c0.6-1,0.8-1.9,0.7-2.8
		c-0.2-0.9-0.7-1.6-1.5-2.2c-0.8-0.5-1.7-0.7-2.6-0.4c-0.9,0.3-1.6,0.9-2.2,1.8c-0.6,0.9-0.8,1.8-0.6,2.8
		C644.4,659.8,644.9,660.5,645.7,661z M653.4,682.7c-1.6,0.4-3.2,0.1-4.7-0.9c-1.6-1-2.5-2.3-2.9-3.9c-0.4-1.6-0.1-3.2,0.9-4.7
		s2.2-2.5,3.9-2.9c1.6-0.4,3.2-0.1,4.7,0.9c1.6,1,2.5,2.3,2.8,3.9c0.3,1.6,0,3.2-0.9,4.7C656.3,681.4,655,682.3,653.4,682.7z
		 M648.5,677.5c0.2,0.9,0.6,1.6,1.5,2.2c0.8,0.5,1.7,0.7,2.6,0.4c0.9-0.3,1.6-0.8,2.2-1.7c0.6-1,0.8-1.9,0.7-2.8
		c-0.2-0.9-0.7-1.6-1.5-2.2c-0.8-0.5-1.7-0.7-2.6-0.4c-0.9,0.3-1.6,0.9-2.2,1.8C648.5,675.7,648.3,676.6,648.5,677.5z"/>
</g>
<g>
	<path d="M528.9,632.4c-1.9-1-3.3-2.3-4.4-3.7c-1.1-1.5-1.7-2.9-1.9-4.4l3.5-1.4c0.3,1.2,0.8,2.3,1.6,3.4c0.8,1.1,1.8,2,3,2.6
		c1.4,0.8,2.7,1.1,3.9,1c1.1-0.2,2-0.7,2.6-1.8c1.1-2.1,0.1-4-3.2-5.8c-1.5-0.8-2.3-1.3-2.6-1.4l1.9-3.5c0.3,0.2,1.1,0.6,2.5,1.4
		c1.4,0.8,2.6,1.1,3.7,1.1c1.1,0,1.9-0.5,2.4-1.5s0.6-2,0-3c-0.5-1-1.5-1.9-2.8-2.6c-2.2-1.2-4.5-1.4-7-0.7l-0.6-3.5
		c3.2-1.2,6.5-0.9,9.9,1c2.4,1.3,4,2.9,4.9,4.8c0.9,1.9,0.8,3.7-0.2,5.5c-0.8,1.4-1.9,2.2-3.3,2.6c-1.4,0.4-2.9,0.3-4.3-0.2
		c1.2,0.8,2.1,2,2.6,3.5c0.6,1.5,0.4,3.1-0.5,4.7c-1,1.9-2.6,3-4.8,3.4C533.7,634.3,531.4,633.8,528.9,632.4z"/>
	<path d="M545.4,641l-2.2-1.2l26.2-14.2l2.2,1.2L545.4,641z M551.6,629.6c-1.6-0.9-2.6-2.1-3.1-3.7c-0.4-1.6-0.2-3.2,0.6-4.7
		c0.9-1.6,2.1-2.6,3.7-3.1c1.6-0.5,3.2-0.3,4.8,0.6c1.6,0.9,2.7,2.2,3.1,3.8c0.4,1.6,0.2,3.2-0.6,4.8c-0.9,1.6-2.1,2.6-3.7,3
		C554.8,630.7,553.2,630.5,551.6,629.6z M552.8,627.4c0.9,0.5,1.7,0.6,2.6,0.3c0.9-0.3,1.6-0.9,2.1-1.9s0.7-1.9,0.5-2.8
		c-0.2-0.9-0.8-1.6-1.6-2.1c-0.9-0.5-1.7-0.6-2.6-0.3c-0.9,0.3-1.6,1-2.1,1.9s-0.7,1.9-0.5,2.8C551.5,626.3,552,627,552.8,627.4z
		 M561.7,648.6c-1.6,0.5-3.2,0.2-4.8-0.6c-1.6-0.9-2.6-2.1-3.1-3.7c-0.4-1.6-0.2-3.2,0.6-4.7c0.9-1.6,2.1-2.6,3.7-3.1
		c1.6-0.5,3.2-0.3,4.8,0.6c1.6,0.9,2.6,2.1,3.1,3.8c0.4,1.6,0.2,3.2-0.6,4.8C564.5,647.1,563.3,648.1,561.7,648.6z M556.5,643.7
		c0.2,0.9,0.7,1.6,1.6,2.1c0.9,0.5,1.7,0.6,2.6,0.3c0.9-0.3,1.6-0.9,2.1-1.9s0.7-1.9,0.5-2.8c-0.2-0.9-0.8-1.6-1.6-2.1
		c-0.9-0.5-1.7-0.6-2.6-0.3c-0.9,0.3-1.6,1-2.1,1.9C556.5,641.9,556.3,642.8,556.5,643.7z"/>
</g>
<g>
	<path d="M514.8,495.7c-3-2.7-4.5-5.7-4.4-9.1l3.9-0.6c0,2.6,1,4.9,3.1,6.7c1.2,1,2.4,1.5,3.6,1.5s2.3-0.5,3.1-1.4
		c0.9-1,1.3-2.1,1.1-3.4c-0.1-1.2-0.8-2.3-1.9-3.3c-1.6-1.4-3.5-2.1-5.6-2l-1.7-2.7l9.3-10.5l12.3,10.9l-2.6,2.9l-9-8l-4.8,5.4
		c2.1-0.1,4,0.6,5.7,2.1s2.6,3.3,2.8,5.4s-0.5,4.1-2.1,6c-1.7,1.9-3.7,2.9-6.1,2.9C519.2,498.5,517,497.5,514.8,495.7z"/>
	<path d="M529,507.6l-1.9-1.6l28.7-8.2l1.9,1.7L529,507.6z M537.6,497.8c-1.4-1.2-2.1-2.6-2.2-4.3c-0.1-1.6,0.5-3.1,1.6-4.5
		c1.2-1.4,2.6-2.1,4.3-2.2s3.2,0.4,4.5,1.6c1.4,1.2,2.1,2.7,2.2,4.3c0.1,1.7-0.5,3.2-1.7,4.5s-2.6,2.1-4.2,2.2
		C540.5,499.5,539,499,537.6,497.8z M543.3,518.5c-1.6,0.1-3.2-0.5-4.5-1.7c-1.4-1.2-2.1-2.6-2.2-4.3c-0.1-1.6,0.5-3.1,1.6-4.5
		c1.2-1.4,2.6-2.1,4.3-2.2s3.2,0.4,4.5,1.6c1.4,1.2,2.1,2.7,2.2,4.3c0.1,1.7-0.5,3.2-1.7,4.5C546.4,517.7,545,518.4,543.3,518.5z
		 M539.2,495.9c0.7,0.6,1.6,0.9,2.5,0.8s1.8-0.6,2.5-1.4s1.1-1.7,1.1-2.7c0-0.9-0.4-1.7-1.1-2.4c-0.7-0.6-1.6-0.9-2.5-0.8
		s-1.8,0.6-2.5,1.4s-1.1,1.7-1.1,2.6C538.1,494.5,538.5,495.3,539.2,495.9z M539.3,512.6c0,0.9,0.4,1.7,1.1,2.4
		c0.7,0.6,1.6,0.9,2.5,0.8c0.9-0.1,1.8-0.6,2.5-1.4c0.7-0.8,1.1-1.7,1.1-2.7c0-0.9-0.4-1.7-1.1-2.4c-0.7-0.6-1.6-0.9-2.5-0.8
		s-1.8,0.6-2.5,1.4C539.7,510.8,539.3,511.7,539.3,512.6z"/>
</g>
<g>
	<path d="M539.7,346.9l-3-3.8l22.6-5.5l-8-10.3l3.1-2.4l11.1,14.3l-2.4,1.9L539.7,346.9z"/>
	<path d="M550.7,361.1l-1.5-2l29.7-2.7l1.5,2L550.7,361.1z M562.8,374.5c-1.6-0.2-3-1-4.1-2.5c-1.1-1.4-1.6-3-1.4-4.6
		c0.2-1.6,1-3,2.4-4.1s3-1.6,4.6-1.4s3,1,4.2,2.4c1.1,1.4,1.6,3,1.3,4.7c-0.2,1.7-1.1,3-2.5,4.1
		C565.9,374.2,564.4,374.7,562.8,374.5z M561,353c-1.1-1.4-1.6-3-1.4-4.6c0.2-1.6,1-3,2.4-4.1s3-1.6,4.6-1.4c1.7,0.2,3,1,4.2,2.4
		c1.1,1.5,1.6,3,1.4,4.7c-0.2,1.7-1.1,3-2.5,4.1s-2.9,1.5-4.6,1.3C563.5,355.3,562.1,354.5,561,353z M559.9,367.9
		c-0.2,0.9,0,1.8,0.6,2.5c0.6,0.8,1.4,1.2,2.3,1.3c0.9,0.1,1.8-0.2,2.7-0.9c0.9-0.7,1.4-1.5,1.6-2.4c0.2-0.9-0.1-1.8-0.7-2.5
		c-0.6-0.8-1.4-1.2-2.3-1.3c-0.9-0.1-1.8,0.3-2.7,0.9C560.6,366.2,560.1,367,559.9,367.9z M562.9,351.5c0.6,0.8,1.4,1.2,2.3,1.3
		c0.9,0.1,1.8-0.2,2.7-0.9c0.9-0.7,1.4-1.5,1.6-2.4s-0.1-1.8-0.7-2.5s-1.4-1.2-2.3-1.3c-0.9-0.1-1.8,0.3-2.7,0.9
		c-0.9,0.7-1.4,1.5-1.5,2.4C562.1,349.9,562.3,350.7,562.9,351.5z"/>
</g>
<g>
	<path class="st9" d="M914.7,123.7v-4.4l19.4-0.1l-4.3-4.1l2.7-2.6l7.3,7.2v3.8L914.7,123.7z"/>
	<path class="st9" d="M914.8,146.4l-0.1-18.2h3.5c4,5.2,7,8.8,8.9,10.7s3.8,2.8,5.5,2.8c1.2,0,2.2-0.5,2.8-1.4c0.7-0.9,1-2,1-3.2
		c0-2.8-1-5-3.1-6.8l2.9-2.6c1.3,1.1,2.3,2.4,3,4.1c0.7,1.6,1.1,3.4,1.1,5.2c0,2.6-0.7,4.7-2,6.5c-1.4,1.8-3.3,2.7-5.7,2.7
		c-2.2,0-4.3-0.9-6.5-2.7c-2.1-1.8-4.6-4.5-7.5-8.2l0.1,11.2L914.8,146.4z"/>
	<path class="st9" d="M916.2,174.1c-1.2-1.2-1.8-2.7-1.8-4.5s0.6-3.3,1.7-4.5c1.2-1.2,2.6-1.7,4.4-1.8c1.8,0,3.3,0.6,4.5,1.7
		c1.2,1.1,1.8,2.6,1.8,4.5c0,1.8-0.6,3.3-1.8,4.5s-2.7,1.8-4.5,1.8C918.9,175.8,917.4,175.2,916.2,174.1z M914.8,156.1v-2.5
		l25.2,15.9v2.5L914.8,156.1z M918,167.2c-0.7,0.6-1,1.4-1,2.4s0.4,1.8,1.1,2.4c0.7,0.6,1.6,0.9,2.7,0.9c1.1,0,2-0.3,2.7-1
		c0.7-0.6,1-1.4,1-2.4s-0.4-1.8-1-2.4c-0.7-0.6-1.6-0.9-2.7-0.9C919.5,166.2,918.6,166.6,918,167.2z M927.9,156
		c0-1.8,0.6-3.3,1.7-4.5c1.2-1.2,2.6-1.7,4.4-1.8c1.8,0,3.3,0.6,4.5,1.7c1.2,1.1,1.8,2.6,1.8,4.5s-0.6,3.4-1.8,4.5
		c-1.2,1.2-2.7,1.8-4.5,1.8s-3.3-0.6-4.4-1.7C928.5,159.4,927.9,157.8,927.9,156z M930.3,156c0,1,0.4,1.8,1,2.4
		c0.7,0.6,1.6,0.9,2.7,0.9c1.1,0,2-0.3,2.7-1c0.7-0.6,1-1.4,1-2.4s-0.4-1.8-1-2.4c-0.7-0.6-1.6-0.9-2.7-0.9c-1.1,0-2,0.3-2.7,1
		C930.7,154.2,930.3,155,930.3,156z"/>
</g>
<polyline class="st8" points="1705.4,850.4 1705.4,964 1478.7,964 1478.7,850.4 1437.9,850.4 "/>
<path class="st9" d="M1429.4,881.1h-81c-4.7,0-8.5-3.8-8.5-8.5v-41.4c0-4.7,3.8-8.5,8.5-8.5h81c4.7,0,8.5,3.8,8.5,8.5v41.4
	C1437.9,877.3,1434.1,881.1,1429.4,881.1z"/>
<g>
	<path class="st10" d="M1362,864.5h-3.5l10-22.4l-13.5,0.1v-2.8l17.1-0.1v2.1L1362,864.5z"/>
	<path class="st10" d="M1384.9,864.8c-1.7,0-3.1-0.4-4.4-1.1c-1.3-0.8-2.3-1.8-3-3.1s-1.3-2.7-1.7-4.1c-0.4-1.5-0.6-3-0.6-4.6
		s0.2-3.2,0.5-4.6c0.4-1.5,0.9-2.9,1.6-4.1c0.7-1.3,1.7-2.3,3-3.1s2.7-1.2,4.4-1.2c1.6,0,3.1,0.4,4.4,1.1c1.3,0.8,2.3,1.8,3.1,3
		c0.7,1.3,1.3,2.6,1.7,4.1c0.4,1.5,0.6,3,0.6,4.6s-0.2,3.2-0.5,4.6c-0.4,1.5-0.9,2.9-1.6,4.2s-1.7,2.3-3,3.1
		C1388,864.4,1386.6,864.8,1384.9,864.8z M1381.1,860.5c1,1,2.3,1.6,3.8,1.5c1.5,0,2.8-0.5,3.8-1.6c1-1,1.7-2.3,2.1-3.8
		s0.5-3.1,0.5-4.9c0-1.8-0.2-3.4-0.6-4.9s-1.1-2.7-2.1-3.7s-2.3-1.5-3.8-1.5s-2.8,0.5-3.8,1.6c-1,1-1.7,2.3-2.1,3.7
		c-0.4,1.5-0.5,3.1-0.5,4.9c0,1.8,0.2,3.4,0.6,4.9S1380.1,859.4,1381.1,860.5z"/>
	<path class="st10" d="M1408,849.4c-1.1,1.2-2.6,1.8-4.4,1.8s-3.2-0.6-4.4-1.7c-1.1-1.2-1.7-2.6-1.7-4.4c0-1.8,0.5-3.3,1.7-4.5
		c1.1-1.2,2.6-1.8,4.3-1.8c1.8,0,3.2,0.6,4.4,1.8c1.1,1.2,1.7,2.7,1.7,4.5C1409.7,846.7,1409.1,848.2,1408,849.4z M1400.8,848
		c0.7,0.8,1.6,1.2,2.7,1.2s2-0.4,2.7-1.2s1.1-1.8,1.1-3c0-1.3-0.4-2.3-1.1-3.1s-1.6-1.2-2.8-1.2c-1.1,0-2,0.4-2.7,1.2s-1,1.9-1,3.1
		C1399.8,846.2,1400.1,847.2,1400.8,848z M1403.3,864.3h-2l15.9-25.2h2.1L1403.3,864.3z M1421.1,862.9c-1.1,1.2-2.6,1.8-4.4,1.8
		s-3.2-0.6-4.4-1.7c-1.1-1.2-1.7-2.6-1.7-4.4c0-1.8,0.5-3.3,1.7-4.5c1.1-1.2,2.6-1.8,4.3-1.8c1.8,0,3.2,0.6,4.4,1.8
		c1.1,1.2,1.7,2.7,1.7,4.5C1422.8,860.2,1422.2,861.7,1421.1,862.9z M1414,861.5c0.7,0.8,1.6,1.2,2.7,1.2s2-0.4,2.7-1.2
		s1.1-1.8,1.1-3c0-1.3-0.4-2.3-1.1-3.1s-1.6-1.2-2.8-1.2c-1.1,0-2,0.4-2.7,1.2s-1,1.9-1,3.1C1412.9,859.7,1413.3,860.7,1414,861.5z"
		/>
</g>
<g>
	
		<linearGradient id="SVGID_9_" gradientUnits="userSpaceOnUse" x1="-1753.2" y1="533" x2="-873.2" y2="533" gradientTransform="matrix(1 0 0 1 0 -142)">
		<stop  offset="0" style="stop-color:#E72479"/>
		<stop  offset="1" style="stop-color:#F19C6D"/>
	</linearGradient>
	<path class="st11" d="M-888.2,611c0-234.7-190.3-425-425-425s-425,190.3-425,425"/>
	
		<linearGradient id="SVGID_10_" gradientUnits="userSpaceOnUse" x1="-1703.2" y1="558" x2="-1313.2" y2="558" gradientTransform="matrix(1 0 0 1 0 -142)">
		<stop  offset="0" style="stop-color:#E72479"/>
		<stop  offset="1" style="stop-color:#F19C6D"/>
	</linearGradient>
	<path class="st12" d="M-1688.2,611c0-207.1,167.9-375,375-375"/>
	
		<linearGradient id="SVGID_11_" gradientUnits="userSpaceOnUse" x1="-1638.2" y1="753" x2="-1638.2" y2="753" gradientTransform="matrix(1 0 0 1 0 -142)">
		<stop  offset="0" style="stop-color:#FABA48"/>
		<stop  offset="1" style="stop-color:#DC4076"/>
	</linearGradient>
	<path class="st13" d="M-1638.2,611"/>
	
		<linearGradient id="SVGID_12_" gradientUnits="userSpaceOnUse" x1="-1653.2999" y1="618.103" x2="-1501.9603" y2="618.103" gradientTransform="matrix(1 0 0 1 0 -142)">
		<stop  offset="0" style="stop-color:#E72479"/>
		<stop  offset="1" style="stop-color:#F19C6D"/>
	</linearGradient>
	<path class="st14" d="M-1511.1,353.1c-77.3,59.4-127.2,152.8-127.2,257.9"/>
	
		<linearGradient id="SVGID_13_" gradientUnits="userSpaceOnUse" x1="-1603.2999" y1="658.0862" x2="-1509.8677" y2="658.0862" gradientTransform="matrix(1 0 0 1 0 -142)">
		<stop  offset="0" style="stop-color:#E72479"/>
		<stop  offset="1" style="stop-color:#F19C6D"/>
	</linearGradient>
	<path class="st15" d="M-1521.2,431c-41.8,48.2-67.1,111.1-67.1,180"/>
	
		<linearGradient id="SVGID_14_" gradientUnits="userSpaceOnUse" x1="-1538.2" y1="753" x2="-1538.2" y2="753" gradientTransform="matrix(1 0 0 1 0 -142)">
		<stop  offset="0" style="stop-color:#FABA48"/>
		<stop  offset="1" style="stop-color:#DC4076"/>
	</linearGradient>
	<path class="st16" d="M-1538.2,611"/>
	
		<linearGradient id="SVGID_15_" gradientUnits="userSpaceOnUse" x1="-1553.2211" y1="695.8245" x2="-1497.8353" y2="695.8245" gradientTransform="matrix(1 0 0 1 0 -142)">
		<stop  offset="0" style="stop-color:#E72479"/>
		<stop  offset="1" style="stop-color:#F19C6D"/>
	</linearGradient>
	<path class="st17" d="M-1511.1,503.8c-17.3,31.9-27.2,68.4-27.2,107.2"/>
	
		<linearGradient id="SVGID_16_" gradientUnits="userSpaceOnUse" x1="-1503.2" y1="702.9507" x2="-1449.248" y2="702.9507" gradientTransform="matrix(1 0 0 1 0 -142)">
		<stop  offset="0" style="stop-color:#E72479"/>
		<stop  offset="1" style="stop-color:#F19C6D"/>
	</linearGradient>
	<path class="st18" d="M-1462,518.8c-16.6,26.8-26.2,58.4-26.2,92.2"/>
</g>
<line class="st19" x1="-1449.2" y1="611" x2="-1780.2" y2="611"/>
<line class="st19" x1="-925.2" y1="611" x2="-851.2" y2="611"/>
<text transform="matrix(0.8467 0.5321 -0.5321 0.8467 -1468.1548 509.2872)" style="font-family:'ProximaNova-Semibold'; font-size:20px;">3%</text>
<text transform="matrix(0.8752 0.4838 -0.4838 0.8752 -1517.4918 492.4237)" style="font-family:'ProximaNova-Semibold'; font-size:20px;">3%</text>
<text transform="matrix(0.7494 0.6622 -0.6622 0.7494 -1524.6426 418.4841)" style="font-family:'ProximaNova-Semibold'; font-size:20.0022px;">5%</text>
<text transform="matrix(0.6135 0.7897 -0.7897 0.6135 -1510.1176 339.7606)" style="font-family:'ProximaNova-Semibold'; font-size:20px;">7%</text>
<text transform="matrix(5.409431e-03 1 -1 5.409431e-03 -1308.0304 219.0474)" class="st9" style="font-family:'ProximaNova-Semibold'; font-size:20px;">12%</text>
<polyline class="st20" points="-888.2,611 -888.2,671.3 -1008.6,671.3 -1008.6,611 -1030.2,611 "/>
<path class="st9" d="M-1038.7,627.3h-35c-4.7,0-8.5-3.8-8.5-8.5v-14c0-4.7,3.8-8.5,8.5-8.5h35c4.7,0,8.5,3.8,8.5,8.5v14
	C-1030.2,623.5-1034,627.3-1038.7,627.3z"/>
<text transform="matrix(1 -5.409431e-03 5.409431e-03 1 -1074.7716 618.5004)" style="fill:#FFFFFF; font-family:'ProximaNova-Regular'; font-size:20px;">70%</text>
<text transform="matrix(1 -5.409431e-03 5.409431e-03 1 -1074.7716 618.5004)" style="fill:none;stroke:#FFFFFF;stroke-miterlimit:10; font-family:'ProximaNova-Regular'; font-size:20px;">70%</text>
<text transform="matrix(1 0 0 1 -1366.455 586.2849)" class="st9" style="font-family:'ProximaNova-Bold'; font-size:56px;">Tokens </text>
<text transform="matrix(1 0 0 1 -1415.5549 630.2849)" class="st9" style="font-family:'ProximaNova-Bold'; font-size:56px;">Distribution</text>
<text transform="matrix(0.7071 0.7071 -0.7071 0.7071 -1758.0553 631.4204)" style="font-family:'ProximaNova-Semibold'; font-size:27px;">Crowd Sale</text>
<text transform="matrix(0.7071 0.7071 -0.7071 0.7071 -1698.5929 633.2156)" style="font-family:'ProximaNova-Regular'; font-size:23px;">Project Team</text>
<text transform="matrix(0.7071 0.7071 -0.7071 0.7071 -1645.2457 633.2295)" style="font-family:'ProximaNova-Regular'; font-size:23px;">Reserve Fund</text>
<text transform="matrix(0.7071 0.7071 -0.7071 0.7071 -1597.0919 633.1328)" style="font-family:'ProximaNova-Regular'; font-size:23px;">First Bonus Tournament</text>
<text transform="matrix(0.7071 0.7071 -0.7071 0.7071 -1544.7916 633.2141)" style="font-family:'ProximaNova-Regular'; font-size:23px;">Bounty Program</text>
<text transform="matrix(0.7071 0.7071 -0.7071 0.7071 -1491.7262 629.7788)" style="font-family:'ProximaNova-Regular'; font-size:23px;">Advisory Board</text>
<g>
	<path d="M109.6,914.9l-1.7,1.7l-20.1-20.1l1.7-1.7L109.6,914.9z M114.1,901.4c1.2-1.1,2.4-2.3,3.5-3.4l1.1-1.1l-13.2-13.2l1.7-1.7
		l15.2,15.2l-2.7,2.7c-3.3,3.3-6.3,6.3-11.8,9.9l-1.8-2.2c2.6-1.7,4.7-3.2,6.5-4.8l-14.1-12.6l1.4-2L114.1,901.4z"/>
	<path d="M117.4,918.2c4,4,7.1,6.8,11,9.4l-1.5,1.9c-4.1-2.8-7.2-5.6-11.5-9.9l-1.8-1.8l8.5-8.5l8,8l4.7-4.7l-8-8l1.7-1.7l10,10
		l-8,8l-8-8L117.4,918.2z M139.9,931.4l-3.6-3.6l-11.7,11.7l-2-2l22.3-22.3l2,2l-8.8,8.8l3.6,3.6L139.9,931.4z"/>
	<path d="M158.1,957.4l-9.1-9.1l-7.8,7.8l-2-2l7.8-7.8l-9-9l1.7-1.7l20.1,20.1L158.1,957.4z M149,930.9c3-3,8-1.7,12.6,2.9
		c4.6,4.6,5.9,9.7,2.9,12.6c-3,3-8,1.7-12.6-2.9C147.2,939,146,933.9,149,930.9z M151,933c-2,2-0.9,5.5,2.4,8.9
		c3.4,3.4,7,4.4,8.9,2.5c2-2,0.9-5.5-2.5-8.9C156.6,932.1,153,931.1,151,933z"/>
	<path d="M177.8,983.4l-1.7,1.7L156,964.9l1.7-1.7L177.8,983.4z M180.7,975.8l-15.2-15.2l10.3-10.3l15,15l-1.7,1.7l-13-13l-6.9,6.9
		l13.2,13.2L180.7,975.8z"/>
	<path d="M203.9,986.9c-3.6,3.6-5.7,9-4.5,13.7l-2.7,0.4c-0.8-3.4,0-7.2,2-10.7c-3.7,2.2-7.9,3.1-11.4,2.2l0.3-2.8
		c4.8,1.3,10.6-0.9,14.5-4.7l4.2-4.2l2,2L203.9,986.9z M215.5,986.9l1.9,1.9l-20.6,20.6l-1.9-1.9l11.5-11.5l-3.7-3.7l1.7-1.7
		l3.7,3.7L215.5,986.9z M222.4,992.9l-22.2,22.2l-1.9-1.9l22.2-22.2L222.4,992.9z"/>
	<path d="M221.9,1013.7c-3.3-3.3-3.7-7.7-0.8-10.6c2.9-2.9,7.4-2.5,10.7,0.8c3.3,3.3,3.7,7.7,0.8,10.7
		C229.6,1017.4,225.2,1017,221.9,1013.7z M223.5,1012c2.2,2.2,5.1,2.4,7,0.5c1.9-1.9,1.7-4.9-0.5-7.1c-2.2-2.2-5.1-2.4-7.1-0.5
		C221.1,1006.9,221.4,1009.9,223.5,1012z M225,1036l-1.6,1.6l-15.1-15.1l5.6-5.6l12.3,12.3l2.3-2.3l-12.4-12.4l1.6-1.6l14.4,14.4
		l-5.4,5.4l-12.3-12.3l-2.5,2.5L225,1036z M233.1,1026.4l-2-2l11.4-11.4l2,2L233.1,1026.4z"/>
</g>
<g>
	<path d="M208.9,912.7l-1.7,1.7l-20.1-20.1l1.7-1.7L208.9,912.7z M207.8,884l-3.4-3.4l1.6-1.6l16.5,16.5l-1.6,1.6l-3.4-3.4l-7.7,7.7
		l3.4,3.4l-1.7,1.7L195,889.9l1.7-1.7l3.4,3.4L207.8,884z M215.4,891.5l-5.5-5.5l-7.7,7.7l5.5,5.5L215.4,891.5z"/>
	<path d="M231.6,935.6l-1.7,1.7l-20.2-20.2l1.7-1.7l9,9l4.2-4.2l-6.5-6.5l6.9-6.9l13.2,13.2l3.5-3.5l-13.2-13.2l1.7-1.7l15.2,15.2
		l-6.8,6.8l-13.1-13.1l-3.6,3.6l13.7,13.7l-1.6,1.6l-7.1-7.1l-4.2,4.2L231.6,935.6z"/>
	<path d="M249.3,942.8c-1.1-2.9-1-6,0.2-8.7c-2.9,1.4-6.3,1.7-9.4,0.5l0.5-2.6c4.1,1.6,8.6,0.4,11.3-2.3l1.3-1.3l-4.1-4.1l1.7-1.7
		l9.9,9.9l-1.7,1.7l-3.8-3.8l-1.2,1.2c-2.5,2.5-3.5,6.6-1.9,10.6L249.3,942.8z M241.2,938.8l14.9,14.9l-7.6,7.6l-2-2l6-6l-12.9-12.9
		L241.2,938.8z M258.8,938.6l5.2-5.2l1.9,1.9L253,948.3l-1.9-1.9l6-6l-3.3-3.3l1.7-1.7L258.8,938.6z M270.7,939.2l-13.6,13.6l-2-2
		l13.6-13.6L270.7,939.2z"/>
	<path d="M277.2,981l-1.7,1.7l-20.1-20.1l1.7-1.7L277.2,981z M279,974.6l-15.2-15.2l11.7-11.7l15,15l-1.6,1.6l-13-13l-3.3,3.3
		l12.5,12.5l-1.6,1.6l-12.5-12.5l-3.5,3.5l13.2,13.2L279,974.6z"/>
	<path d="M305.7,996.6c-3.8-2.7-6.6-5.3-11.4-10.1l-1.8-1.8l10.5-10.5l10.6,10.6l-1.6,1.6l-8.6-8.6l-2.7,2.7l7.9,7.9l-1.6,1.6
		l-7.9-7.9l-2.9,2.9c4.6,4.6,7.4,7.2,11,9.7L305.7,996.6z M292.6,989.7l14.4,14.4l-7.5,7.5L285,997.3L292.6,989.7z M288.6,997.6
		L299,1008l4.3-4.3l-10.4-10.4L288.6,997.6z M321.3,989.7L308,1003l-2-2l13.2-13.2L321.3,989.7z"/>
</g>
<g>
	<path d="M310.8,887.1l1.9,1.9l-20.6,20.6l-1.9-1.9l7.3-7.3L294,897c-3,1.4-5.7,1.3-7.6-0.6c-2.9-2.9-1.8-7.7,3-12.5
		c4.8-4.8,9.6-5.9,12.4-3c1.9,1.9,2.1,4.7,0.6,7.6l3.4,3.4L310.8,887.1z M297,891.5c3.6-3.6,4.7-7,2.9-8.7c-1.8-1.8-5.1-0.6-8.7,2.9
		c-3.6,3.6-4.7,7-3,8.8C290,896.3,293.4,895.2,297,891.5z M299.1,898.8l5.1-5.1l-3-3c-0.7,0.9-1.4,1.8-2.4,2.7
		c-0.9,0.9-1.8,1.7-2.7,2.4L299.1,898.8z M317.6,892.9l-22.2,22.2l-1.9-1.9l22.2-22.2L317.6,892.9z"/>
	<path d="M322.8,902l-5.9,5.9l6.4,6.4l5.9-5.9l2,2l-15,15L305.9,915l15-15L322.8,902z M309.5,915.3l6.4,6.4l5.8-5.8l-6.4-6.4
		L309.5,915.3z M339.6,915l-22.2,22.2l-2-2l22.2-22.2L339.6,915z"/>
	<path d="M359.1,939.3c-6.4,6.4-15,9.1-26,5.3l0.6-2.7c8.8,3.1,16,1.8,21.7-3l-8.3-8.3l1.6-1.6L359.1,939.3z M368,943.4l-22.2,22.2
		l-2-2l22.2-22.2L368,943.4z"/>
	<path d="M383.3,977.4l-1.6,1.6l-20.2-20.2l1.6-1.6l14.9,14.9c3.4-2.1,5.4-4.2,7.2-5.9l-13-13l1.6-1.6l15,15l-1.6,1.6
		c-1.7,1.7-3.8,3.8-7.1,5.9L383.3,977.4z M361,964.4l15.1,15.1l-7.9,7.9l-15.1-15.1L361,964.4z M356.7,972.6l11.2,11.2l4.6-4.6
		L361.4,968L356.7,972.6z"/>
</g>
<g>
	<path d="M391.7,900.7c-1.7-3.3-1.9-7-0.8-10c-3.3,1.5-7.3,1.4-10.7-0.3l0.6-2.6c4.4,2.2,9.4,1.6,12.4-1.4l0.5-0.5l-4.9-4.9l1.6-1.6
		l4.9,4.9l2.7-2.7l2,2l-2.7,2.7l4.9,4.9l-1.6,1.6l-4.9-4.9l-0.5,0.5c-2.7,2.7-3.1,7.5-0.9,11.7L391.7,900.7z M390.1,902.6
		c-3.1,3.1-2,9,1.3,13.6l-2.4,0.8c-2.8-4-4.1-8.7-2.8-12.6c-3.9,1.1-8.7-0.1-12.6-2.8l0.8-2.4c4.6,3.2,10.6,4.3,13.6,1.3l0.5-0.5
		l2.1,2.1L390.1,902.6z M402.3,898.6l6.3-6.3l2,2l-15.4,15.4l-2-2l7.4-7.4l-4.4-4.4l1.7-1.7L402.3,898.6z"/>
	<path d="M423.1,942.2l-1.7,1.7l-20.1-20.1l1.7-1.7l9,9l4.8-4.8l-6.6-6.6l11.3-11.3l2,2l-4,4l11.3,11.3l4-4l2,2L425.4,935l-6.6-6.6
		l-4.8,4.8L423.1,942.2z M413.7,920l11.3,11.3l4.1-4.1l-11.3-11.3L413.7,920z"/>
	<path d="M431.5,945.5c3.3,3.3,6.6,6.1,10.5,8.7l-1.5,2c-4.2-2.8-7.5-5.7-11-9.3l-1.7-1.7l14.4-14.4l2,2L431.5,945.5z M461.7,945.4
		l-22.3,22.3l-2-2l13.2-13.2l-6.8-6.8l1.7-1.7l6.8,6.8l7.3-7.3L461.7,945.4z"/>
	<path d="M468.7,987.6l-1.7,1.7l-20.1-20.1l1.7-1.7L468.7,987.6z M471.5,981c-2.6-4.1-3.7-10-1.8-14.7c-4.7,1.8-10.5,0.7-14.6-1.8
		l0.8-2.6c4.7,3.1,12.2,4,16,0.2l1.7-1.7l2.1,2.1l-1.7,1.7c-3.8,3.8-2.9,11.4,0.2,16L471.5,981z"/>
	<path d="M496.9,1016.1l-1.7,1.7L475,997.6l1.7-1.7l9.1,9.1l4.6-4.6l-6.5-6.5l11.4-11.4l15,15l-1.7,1.7l-13-13l-3.1,3.1l12.5,12.5
		l-1.6,1.6L490.9,991l-3.3,3.3l13.2,13.2l-1.7,1.7l-6.8-6.8l-4.6,4.6L496.9,1016.1z"/>
	<path d="M505.3,1019.4c3.3,3.3,6.6,6.1,10.5,8.7l-1.5,2c-4.2-2.8-7.5-5.7-11-9.3l-1.7-1.7l14.4-14.4l2,2L505.3,1019.4z
		 M535.5,1019.3l-22.3,22.3l-2-2l13.2-13.2l-6.8-6.8l1.7-1.7l6.8,6.8l7.3-7.3L535.5,1019.3z"/>
	<path d="M538.9,1047.1l-10.1-10.1l10.3-10.3l10.1,10.1l-4.2,4.2l5.1,5.1l6.2-6.2l2.1,2.1l-16.2,16.2l-2.1-2.1l8.4-8.4l-5.1-5.1
		L538.9,1047.1z M545.6,1036.5l-6.1-6.1l-7.1,7.1l6.1,6.1L545.6,1036.5z M538.9,1062.7l-1.7,1.7l-14.8-14.8l7-7l2.1,2.1l-5.3,5.3
		L538.9,1062.7z"/>
	<path d="M565.2,1084.3l-1.7,1.7l-20.1-20.1l1.7-1.7L565.2,1084.3z M567,1078l-15.2-15.2l11.7-11.7l15,15l-1.6,1.6l-13-13l-3.3,3.3
		l12.5,12.5l-1.6,1.6l-12.5-12.5l-3.5,3.5l13.2,13.2L567,1078z"/>
</g>
<g>
	<path d="M496.8,912.6l-1.7,1.7L475,894.1l1.7-1.7l9,9l5.1-5.1l-7.2-7.2l1.6-1.6l3.4,3.4l7.3-7.3l-3.4-3.4l1.6-1.6l16.5,16.5
		l-1.6,1.6l-3.4-3.4l-7.3,7.3l3.4,3.4l-1.6,1.6l-7.2-7.2l-5.1,5.1L496.8,912.6z M490.6,893l5.5,5.5l7.3-7.3l-5.5-5.5L490.6,893z"/>
	<path d="M516.9,921.3c-1.5-3.3-1.6-7-0.3-10.3c-3.5,1.7-7.5,1.7-11.1,0.1l0.5-2.7c4.6,2.2,9.8,1.3,13.1-2.1l2.3-2.3l2,2l-2.5,2.5
		c-3,3-3.6,7.9-1.5,12.2L516.9,921.3z M516.5,933.1c-2.6,2.6-6.8,1.2-11.3-3.3c-4.5-4.5-5.9-8.8-3.3-11.4c2.6-2.6,6.9-1.3,11.4,3.3
		C517.8,926.2,519.1,930.5,516.5,933.1z M514.5,931.1c1.6-1.6,0.5-4.5-2.8-7.7c-3.3-3.3-6.2-4.4-7.8-2.8c-1.5,1.5-0.4,4.5,2.8,7.7
		C510,931.5,513,932.6,514.5,931.1z M532,923.7l-1.7,1.7l-3.3-3.3l-6,6l-2-2l13.4-13.4l2,2l-5.7,5.7L532,923.7z"/>
	<path d="M528.3,933.9c4.9-4.9,10.2-7.5,16.2-8.9l0.8,2.1c-5.7,1.4-10.9,4.5-15.1,8.7c-4.2,4.2-7.4,9.4-8.7,15.1l-2.1-0.7
		C520.8,944.1,523.4,938.8,528.3,933.9z"/>
	<path d="M555.7,939.7l2,2l-15,15l-10.3-10.3l15-15l2,2l-5.9,5.9l6.3,6.3L555.7,939.7z M548.2,947.2l-6.3-6.3l-5.8,5.8l6.3,6.3
		L548.2,947.2z M558.6,959.8l-3.7-3.7l-11.7,11.7l-2-2l22.2-22.2l2,2l-8.7,8.7l3.7,3.7L558.6,959.8z"/>
	<path d="M579.9,982.7l-1.7,1.7l-8.9-8.9l-4.5,4.5l-2.1-2.1l4.5-4.5l-9.2-9.2l1.7-1.7L579.9,982.7z M568.3,958.7
		c2.7-2.7,7.5-1.4,12.2,3.3s6.1,9.5,3.3,12.2c-2.7,2.7-7.5,1.4-12.2-3.3S565.6,961.4,568.3,958.7z M555.7,976l13.3,13.3l-1.7,1.7
		l-15.3-15.3l6.5-6.5l2,2L555.7,976z M570.5,960.8c-1.7,1.7-0.5,5,2.8,8.4c3.4,3.4,6.7,4.6,8.4,2.8c1.8-1.8,0.6-5-2.8-8.5
		C575.5,960.2,572.2,959,570.5,960.8z"/>
	<path d="M582.1,992.8c4,4,7.1,6.8,11,9.5l-1.5,1.9c-4.1-2.9-7.2-5.7-11.4-9.9l-1.8-1.8l14.9-14.9l10.8,10.8l-1.7,1.7l-8.8-8.8
		l-4.6,4.6l7.9,7.9l-1.6,1.6l-7.9-7.9L582.1,992.8z M612.1,992.4l-22.2,22.2l-2-2l22.2-22.2L612.1,992.4z"/>
	<path d="M591.8,1021.3c5.6-1.4,10.9-4.5,15.1-8.7c4.2-4.2,7.3-9.4,8.7-15.1l2,0.7c-1.4,6-4,11.4-8.9,16.2
		c-4.9,4.9-10.2,7.5-16.2,8.9L591.8,1021.3z"/>
	<path d="M633,1048.6l-1.7,1.7l-20.1-20.1l1.7-1.7L633,1048.6z M631.9,1019.9l-3.4-3.4l1.6-1.6l16.5,16.5l-1.6,1.6l-3.4-3.4
		l-7.7,7.7l3.4,3.4l-1.7,1.7l-16.4-16.4l1.7-1.7l3.4,3.4L631.9,1019.9z M639.5,1027.5l-5.5-5.5l-7.7,7.7l5.5,5.5L639.5,1027.5z"/>
	<path d="M655.7,1071.5l-1.7,1.7l-20.2-20.2l1.7-1.7l9,9l4.2-4.2l-6.5-6.5l6.9-6.9l13.2,13.2l3.5-3.5l-13.2-13.2l1.7-1.7l15.2,15.2
		l-6.8,6.8l-13.1-13.1l-3.6,3.6l13.7,13.7l-1.6,1.6l-7.1-7.1l-4.2,4.2L655.7,1071.5z"/>
	<path d="M678.9,1093.7l-1.7,1.7l-20.1-20.1l1.7-1.7L678.9,1093.7z M687.5,1075.8l-13.2-13.2l1.7-1.7l14.3,14.3l0,0l0.9,0.9
		l-2.2,2.2c-2.8,2.8-6,6-11.7,9.9l-1.8-2.3c5.4-3.6,8.7-7,11.5-9.7L687.5,1075.8z"/>
	<path d="M698,1101.6c-3.3-2.3-5.8-4.5-9-7.7l-1.5-1.5l6.3-6.3l6.3,6.3l2.9-2.9l-6.4-6.4l1.6-1.6l8.3,8.3l-6,6l-6.3-6.3l-3.1,3.1
		c2.9,2.9,5.2,4.9,8.3,7L698,1101.6z M688.7,1097.6l14.6,14.6l-7.6,7.6l-14.6-14.6L688.7,1097.6z M684.7,1105.5l10.6,10.6l4.3-4.3
		l-10.6-10.6L684.7,1105.5z M717.6,1097.9l-13.3,13.3l-2-2l6-6l-3-3l-5.7,5.7l-1.9-1.9l12.5-12.5l1.9,1.9l-5.2,5.2l3,3l5.6-5.6
		L717.6,1097.9z"/>
</g>
<g>
	<path d="M592.9,912.1l-1.7,1.7l-20.1-20.1l1.7-1.7l7.8,7.8l7.9-7.9l2,2l-7.9,7.9L592.9,912.1z M602,894.1l-13.5-13.5l1.7-1.7
		l15.6,15.6l-2.2,2.2c-2.7,2.7-5.8,5.8-11.1,9.4l-1.8-2.3c5.1-3.4,8.2-6.5,10.9-9.2L602,894.1z"/>
	<path d="M621.8,928.8l-1.6,1.6l-8.9-8.9l-4.5,4.5l-2-2l4.5-4.5l-9.2-9.2l1.6-1.6L621.8,928.8z M597.5,921.9l13.3,13.3l-1.7,1.7
		l-15.3-15.3l6.3-6.3l2,2L597.5,921.9z M621.7,923.7l-14.9-14.9l7.8-7.8l14.9,14.9L621.7,923.7z M625.8,915.5l-10.9-10.9l-4.5,4.5
		l10.9,10.9L625.8,915.5z"/>
	<path d="M637.5,944.5c-3.7-2.4-6.4-4.9-11.1-9.6l-1.7-1.7l10.2-10.2l9.8,9.8l-1.6,1.6l-7.8-7.8l-6.9,6.9c4.4,4.4,7.1,6.7,10.5,9.1
		L637.5,944.5z M621.2,945.6l12.8,12.8l-1.7,1.7l-14.8-14.8l7.3-7.3l2,2L621.2,945.6z M649.7,947.2l-1.7,1.7l-3.3-3.3l-7.8,7.8l-2-2
		l16.1-16.1l2,2l-6.6,6.6L649.7,947.2z"/>
</g>
<g>
	<path d="M771.7,829.7v6.9h-82.2v-6.9h36.9V811h-26.3v-46.4h61.3v6.8h-52.9v12.7h50.9v6.6h-50.9v13.6h53.8v6.8h-27.6v18.7H771.7z"/>
	<path d="M864.5,801.9v6.8h-82.2v-6.8H843c1.2-5.7,1.8-10.9,2.2-15.5l-53.5,2.4l-1.1-6.8l55-1.8c0.2-3.7,0.2-7.2,0.2-10.3v-1.1
		h-52.9v-6.7h61.1v7.8c0,8.6,0,18.4-2.5,32H864.5z M800.9,839h54.8v6.8h-63v-28.2h8.3V839z"/>
	<path d="M979.6,815.6h-21.4v32.2h-8.4v-32.2h-22.7v32.2h-8.4v-32.2h-21.1v-6.8h81.9V815.6z M906.9,780.6
		c0-12.1,12.8-19.7,31.6-19.7c18.9,0,31.7,7.6,31.7,19.7c0,12.1-12.8,19.8-31.7,19.8C919.7,800.3,906.9,792.7,906.9,780.6z
		 M915.4,780.6c0,8,9.4,13.1,23.1,13.1c13.8,0,23.2-5.1,23.2-13.1s-9.4-13-23.2-13C924.8,767.6,915.4,772.6,915.4,780.6z"/>
	<path d="M1072.3,805.2v6.7h-81.9v-6.7h36.8v-8.9h-26v-36.4h61v6.5h-52.7v8.4h50.3v6.3h-50.3v8.9h53.2v6.5h-27.2v8.9H1072.3z
		 M1062.3,833.1c0,9.5-11.3,14.5-31,14.5c-19.7,0-31-5-31-14.5c0-9.4,11.3-14.4,31-14.4C1051,818.7,1062.3,823.7,1062.3,833.1z
		 M1054.1,833.1c0-5.3-8.1-8.3-22.7-8.3c-14.5,0-22.7,2.9-22.7,8.3c0,5.4,8.2,8.3,22.7,8.3C1046,841.4,1054.1,838.6,1054.1,833.1z"
		/>
	<path d="M1155.1,807.8c-10.1-3.6-17.8-11.1-21.8-20.4c-3.8,10.5-12.2,19-22.8,23l-4.3-6.6c13.5-4.9,22.8-17.1,22.8-30.2v-3.1h-20.2
		v-6.7h48.3v6.7h-19.9v3.1c0,11.6,8.9,23,22,27.6L1155.1,807.8z M1180.6,830.9c0,10.7-11.5,16.8-30,16.8c-18.6,0-30.2-6.2-30.2-16.8
		c0-10.7,11.6-16.8,30.2-16.8C1169.1,814.1,1180.6,820.2,1180.6,830.9z M1172.4,830.9c0-6.6-8.3-10.5-21.9-10.5
		c-13.6,0-21.9,3.9-21.9,10.5s8.3,10.4,21.9,10.4C1164.2,841.3,1172.4,837.5,1172.4,830.9z M1172,780.8v-23.4h8.4v53.8h-8.4v-23.7
		h-17.8v-6.8H1172z"/>
	<path d="M1239.8,808.5c-8.8-3.5-15-10.2-18.3-18.4c-2.9,8.9-9.2,16.1-18.2,19.9l-4-6.1c11.5-4.7,18.2-15.7,18.2-27.1v-1h-16.3v-6.7
		h16.3v-10.9h7.9v10.9h16.1v6.7h-16.1v1c0,10.7,6.9,21,18.4,25.3L1239.8,808.5z M1214.2,817.6h60.8v30.2h-8.3v-23.4h-52.5V817.6z
		 M1275,757.4v55.5h-8v-24.6h-11.4v24h-7.8v-53.3h7.8v22.6h11.4v-24.1H1275z"/>
</g>
</svg>
