<?xml version="1.0" encoding="utf-8"?>
<!-- Generator: Adobe Illustrator 22.0.1, SVG Export Plug-In . SVG Version: 6.00 Build 0)  -->
<svg version="1.1" id="Слой_1" xmlns="http://www.w3.org/2000/svg" xmlns:xlink="http://www.w3.org/1999/xlink" x="0px" y="0px"
	 viewBox="0 0 1796 1222" style="enable-background:new 0 0 1796 1222;" xml:space="preserve">
<style type="text/css">
	.st0{fill:none;stroke:url(#SVGID_1_);stroke-width:57;stroke-miterlimit:10;}
	.st1{fill:none;stroke:url(#SVGID_2_);stroke-width:57;stroke-miterlimit:10;}
	.st2{fill:none;stroke:url(#SVGID_3_);stroke-width:44;stroke-miterlimit:10;}
	.st3{fill:none;stroke:url(#SVGID_4_);stroke-width:57;stroke-miterlimit:10;}
	.st4{fill:none;stroke:url(#SVGID_5_);stroke-width:57;stroke-miterlimit:10;}
	.st5{fill:none;stroke:url(#SVGID_6_);stroke-width:44;stroke-miterlimit:10;}
	.st6{fill:none;stroke:url(#SVGID_7_);stroke-width:57;stroke-miterlimit:10;}
	.st7{fill:none;stroke:url(#SVGID_8_);stroke-width:57;stroke-miterlimit:10;}
	.st8{fill:none;stroke:#000000;stroke-width:5;stroke-miterlimit:10;}
	.st9{fill:#2A2E3D;}
	.st10{fill:#FFFFFF;stroke:#FFFFFF;stroke-miterlimit:10;}
	.st11{fill:none;stroke:url(#SVGID_9_);stroke-width:30;stroke-miterlimit:10;}
	.st12{fill:none;stroke:url(#SVGID_10_);stroke-width:30;stroke-miterlimit:10;}
	.st13{fill:none;stroke:url(#SVGID_11_);stroke-width:30;stroke-miterlimit:10;}
	.st14{fill:none;stroke:url(#SVGID_12_);stroke-width:30;stroke-miterlimit:10;}
	.st15{fill:none;stroke:url(#SVGID_13_);stroke-width:30;stroke-miterlimit:10;}
	.st16{fill:none;stroke:url(#SVGID_14_);stroke-width:30;stroke-miterlimit:10;}
	.st17{fill:none;stroke:url(#SVGID_15_);stroke-width:30;stroke-miterlimit:10;}
	.st18{fill:none;stroke:url(#SVGID_16_);stroke-width:30;stroke-miterlimit:10;}
	.st19{fill:none;stroke:#000000;stroke-width:3;stroke-miterlimit:10;}
	.st20{fill:none;stroke:#000000;stroke-miterlimit:10;}
</style>
<g>
	
		<linearGradient id="SVGID_1_" gradientUnits="userSpaceOnUse" x1="75.7" y1="788.15" x2="1733.9" y2="788.15" gradientTransform="matrix(1 0 0 -1 0 1224)">
		<stop  offset="0" style="stop-color:#E72479"/>
		<stop  offset="1" style="stop-color:#F19C6D"/>
	</linearGradient>
	<path class="st0" d="M1705.4,850.4c0-442.2-358.4-800.6-800.6-800.6S104.2,408.2,104.2,850.4"/>
	
		<linearGradient id="SVGID_2_" gradientUnits="userSpaceOnUse" x1="169.9" y1="741.05" x2="904.8" y2="741.05" gradientTransform="matrix(1 0 0 -1 0 1224)">
		<stop  offset="0" style="stop-color:#E72479"/>
		<stop  offset="1" style="stop-color:#F19C6D"/>
	</linearGradient>
	<path class="st1" d="M198.4,850.4c0-390.1,316.3-706.4,706.4-706.4"/>
	
		<linearGradient id="SVGID_3_" gradientUnits="userSpaceOnUse" x1="292.6" y1="373.6" x2="292.6" y2="373.6" gradientTransform="matrix(1 0 0 -1 0 1224)">
		<stop  offset="0" style="stop-color:#FABA48"/>
		<stop  offset="1" style="stop-color:#DC4076"/>
	</linearGradient>
	<path class="st2" d="M292.6,850.4"/>
	
		<linearGradient id="SVGID_4_" gradientUnits="userSpaceOnUse" x1="264.1" y1="627.7949" x2="549.4767" y2="627.7949" gradientTransform="matrix(1 0 0 -1 0 1224)">
		<stop  offset="0" style="stop-color:#E72479"/>
		<stop  offset="1" style="stop-color:#F19C6D"/>
	</linearGradient>
	<path class="st3" d="M532.1,364.6c-145.6,112-239.5,287.9-239.5,485.8"/>
	
		<linearGradient id="SVGID_5_" gradientUnits="userSpaceOnUse" x1="358.3" y1="552.4273" x2="534.6465" y2="552.4273" gradientTransform="matrix(1 0 0 -1 0 1224)">
		<stop  offset="0" style="stop-color:#E72479"/>
		<stop  offset="1" style="stop-color:#F19C6D"/>
	</linearGradient>
	<path class="st4" d="M513.1,511.4c-78.7,90.9-126.3,209.4-126.3,339"/>
	
		<linearGradient id="SVGID_6_" gradientUnits="userSpaceOnUse" x1="481" y1="373.6" x2="481" y2="373.6" gradientTransform="matrix(1 0 0 -1 0 1224)">
		<stop  offset="0" style="stop-color:#FABA48"/>
		<stop  offset="1" style="stop-color:#DC4076"/>
	</linearGradient>
	<path class="st5" d="M481,850.4"/>
	
		<linearGradient id="SVGID_7_" gradientUnits="userSpaceOnUse" x1="452.4" y1="481.3944" x2="557.1518" y2="481.3944" gradientTransform="matrix(1 0 0 -1 0 1224)">
		<stop  offset="0" style="stop-color:#E72479"/>
		<stop  offset="1" style="stop-color:#F19C6D"/>
	</linearGradient>
	<path class="st6" d="M532.1,648.4c-32.6,60.1-51.2,128.9-51.2,202"/>
	
		<linearGradient id="SVGID_8_" gradientUnits="userSpaceOnUse" x1="546.7" y1="467.9679" x2="648.811" y2="467.9679" gradientTransform="matrix(1 0 0 -1 0 1224)">
		<stop  offset="0" style="stop-color:#E72479"/>
		<stop  offset="1" style="stop-color:#F19C6D"/>
	</linearGradient>
	<path class="st7" d="M624.6,676.7c-31.3,50.4-49.4,109.9-49.4,173.7"/>
</g>
<line class="st8" x1="648.6" y1="850.4" x2="25.1" y2="850.4"/>
<line class="st8" x1="1635.7" y1="850.4" x2="1775.1" y2="850.4"/>
<g>
	<path d="M621.5,664.7c-1.8-1.1-3.2-2.5-4.2-4s-1.6-3-1.7-4.5l3.6-1.2c0.2,1.2,0.7,2.4,1.4,3.5c0.8,1.1,1.7,2.1,2.8,2.8
		c1.4,0.9,2.6,1.3,3.8,1.2s2-0.6,2.7-1.6c1.3-2,0.3-4-2.8-6c-1.4-0.9-2.3-1.4-2.5-1.5l2.1-3.3c0.2,0.2,1.1,0.7,2.4,1.6
		c1.3,0.8,2.5,1.3,3.6,1.3s1.9-0.4,2.5-1.4s0.7-1.9,0.2-3c-0.5-1-1.4-1.9-2.6-2.7c-2.1-1.3-4.4-1.7-7-1.1l-0.5-3.5
		c3.3-1,6.6-0.5,9.9,1.5c2.3,1.5,3.9,3.1,4.6,5.1c0.8,1.9,0.6,3.8-0.5,5.5c-0.8,1.3-2,2.1-3.4,2.4c-1.5,0.3-2.9,0.1-4.2-0.4
		c1.1,0.9,2,2.1,2.4,3.7c0.5,1.6,0.2,3.1-0.7,4.6c-1.1,1.8-2.8,2.9-5,3.1C626.2,666.9,623.9,666.2,621.5,664.7z"/>
	<path d="M637.5,674.2l-2.1-1.3l27-12.7l2.1,1.3L637.5,674.2z M644.4,663.1c-1.6-1-2.5-2.3-2.9-3.9c-0.4-1.6-0.1-3.2,0.9-4.7
		s2.2-2.5,3.9-2.9c1.6-0.4,3.2-0.1,4.7,0.9c1.6,1,2.5,2.3,2.9,3.9c0.4,1.6,0,3.2-0.9,4.7s-2.2,2.4-3.8,2.8
		C647.5,664.4,645.9,664.1,644.4,663.1z M645.7,661c0.8,0.5,1.7,0.7,2.6,0.4c0.9-0.3,1.6-0.8,2.2-1.7c0.6-1,0.8-1.9,0.7-2.8
		c-0.2-0.9-0.7-1.6-1.5-2.2c-0.8-0.5-1.7-0.7-2.6-0.4c-0.9,0.3-1.6,0.9-2.2,1.8c-0.6,0.9-0.8,1.8-0.6,2.8
		C644.4,659.8,644.9,660.5,645.7,661z M653.4,682.7c-1.6,0.4-3.2,0.1-4.7-0.9c-1.6-1-2.5-2.3-2.9-3.9c-0.4-1.6-0.1-3.2,0.9-4.7
		s2.2-2.5,3.9-2.9c1.6-0.4,3.2-0.1,4.7,0.9c1.6,1,2.5,2.3,2.8,3.9c0.3,1.6,0,3.2-0.9,4.7C656.3,681.4,655,682.3,653.4,682.7z
		 M648.5,677.5c0.2,0.9,0.6,1.6,1.5,2.2c0.8,0.5,1.7,0.7,2.6,0.4c0.9-0.3,1.6-0.8,2.2-1.7c0.6-1,0.8-1.9,0.7-2.8
		c-0.2-0.9-0.7-1.6-1.5-2.2c-0.8-0.5-1.7-0.7-2.6-0.4c-0.9,0.3-1.6,0.9-2.2,1.8C648.5,675.7,648.3,676.6,648.5,677.5z"/>
</g>
<g>
	<path d="M528.9,632.4c-1.9-1-3.3-2.3-4.4-3.7c-1.1-1.5-1.7-2.9-1.9-4.4l3.5-1.4c0.3,1.2,0.8,2.3,1.6,3.4c0.8,1.1,1.8,2,3,2.6
		c1.4,0.8,2.7,1.1,3.9,1c1.1-0.2,2-0.7,2.6-1.8c1.1-2.1,0.1-4-3.2-5.8c-1.5-0.8-2.3-1.3-2.6-1.4l1.9-3.5c0.3,0.2,1.1,0.6,2.5,1.4
		c1.4,0.8,2.6,1.1,3.7,1.1c1.1,0,1.9-0.5,2.4-1.5s0.6-2,0-3c-0.5-1-1.5-1.9-2.8-2.6c-2.2-1.2-4.5-1.4-7-0.7l-0.6-3.5
		c3.2-1.2,6.5-0.9,9.9,1c2.4,1.3,4,2.9,4.9,4.8c0.9,1.9,0.8,3.7-0.2,5.5c-0.8,1.4-1.9,2.2-3.3,2.6c-1.4,0.4-2.9,0.3-4.3-0.2
		c1.2,0.8,2.1,2,2.6,3.5c0.6,1.5,0.4,3.1-0.5,4.7c-1,1.9-2.6,3-4.8,3.4C533.7,634.3,531.4,633.8,528.9,632.4z"/>
	<path d="M545.4,641l-2.2-1.2l26.2-14.2l2.2,1.2L545.4,641z M551.6,629.6c-1.6-0.9-2.6-2.1-3.1-3.7c-0.4-1.6-0.2-3.2,0.6-4.7
		c0.9-1.6,2.1-2.6,3.7-3.1c1.6-0.5,3.2-0.3,4.8,0.6c1.6,0.9,2.7,2.2,3.1,3.8c0.4,1.6,0.2,3.2-0.6,4.8c-0.9,1.6-2.1,2.6-3.7,3
		C554.8,630.7,553.2,630.5,551.6,629.6z M552.8,627.4c0.9,0.5,1.7,0.6,2.6,0.3c0.9-0.3,1.6-0.9,2.1-1.9s0.7-1.9,0.5-2.8
		c-0.2-0.9-0.8-1.6-1.6-2.1c-0.9-0.5-1.7-0.6-2.6-0.3c-0.9,0.3-1.6,1-2.1,1.9s-0.7,1.9-0.5,2.8C551.5,626.3,552,627,552.8,627.4z
		 M561.7,648.6c-1.6,0.5-3.2,0.2-4.8-0.6c-1.6-0.9-2.6-2.1-3.1-3.7c-0.4-1.6-0.2-3.2,0.6-4.7c0.9-1.6,2.1-2.6,3.7-3.1
		c1.6-0.5,3.2-0.3,4.8,0.6c1.6,0.9,2.6,2.1,3.1,3.8c0.4,1.6,0.2,3.2-0.6,4.8C564.5,647.1,563.3,648.1,561.7,648.6z M556.5,643.7
		c0.2,0.9,0.7,1.6,1.6,2.1c0.9,0.5,1.7,0.6,2.6,0.3c0.9-0.3,1.6-0.9,2.1-1.9s0.7-1.9,0.5-2.8c-0.2-0.9-0.8-1.6-1.6-2.1
		c-0.9-0.5-1.7-0.6-2.6-0.3c-0.9,0.3-1.6,1-2.1,1.9C556.5,641.9,556.3,642.8,556.5,643.7z"/>
</g>
<g>
	<path d="M514.8,495.7c-3-2.7-4.5-5.7-4.4-9.1l3.9-0.6c0,2.6,1,4.9,3.1,6.7c1.2,1,2.4,1.5,3.6,1.5s2.3-0.5,3.1-1.4
		c0.9-1,1.3-2.1,1.1-3.4c-0.1-1.2-0.8-2.3-1.9-3.3c-1.6-1.4-3.5-2.1-5.6-2l-1.7-2.7l9.3-10.5l12.3,10.9l-2.6,2.9l-9-8l-4.8,5.4
		c2.1-0.1,4,0.6,5.7,2.1s2.6,3.3,2.8,5.4s-0.5,4.1-2.1,6c-1.7,1.9-3.7,2.9-6.1,2.9C519.2,498.5,517,497.5,514.8,495.7z"/>
	<path d="M529,507.6l-1.9-1.6l28.7-8.2l1.9,1.7L529,507.6z M537.6,497.8c-1.4-1.2-2.1-2.6-2.2-4.3c-0.1-1.6,0.5-3.1,1.6-4.5
		c1.2-1.4,2.6-2.1,4.3-2.2s3.2,0.4,4.5,1.6c1.4,1.2,2.1,2.7,2.2,4.3c0.1,1.7-0.5,3.2-1.7,4.5s-2.6,2.1-4.2,2.2
		C540.5,499.5,539,499,537.6,497.8z M543.3,518.5c-1.6,0.1-3.2-0.5-4.5-1.7c-1.4-1.2-2.1-2.6-2.2-4.3c-0.1-1.6,0.5-3.1,1.6-4.5
		c1.2-1.4,2.6-2.1,4.3-2.2s3.2,0.4,4.5,1.6c1.4,1.2,2.1,2.7,2.2,4.3c0.1,1.7-0.5,3.2-1.7,4.5C546.4,517.7,545,518.4,543.3,518.5z
		 M539.2,495.9c0.7,0.6,1.6,0.9,2.5,0.8s1.8-0.6,2.5-1.4s1.1-1.7,1.1-2.7c0-0.9-0.4-1.7-1.1-2.4c-0.7-0.6-1.6-0.9-2.5-0.8
		s-1.8,0.6-2.5,1.4s-1.1,1.7-1.1,2.6C538.1,494.5,538.5,495.3,539.2,495.9z M539.3,512.6c0,0.9,0.4,1.7,1.1,2.4
		c0.7,0.6,1.6,0.9,2.5,0.8c0.9-0.1,1.8-0.6,2.5-1.4c0.7-0.8,1.1-1.7,1.1-2.7c0-0.9-0.4-1.7-1.1-2.4c-0.7-0.6-1.6-0.9-2.5-0.8
		s-1.8,0.6-2.5,1.4C539.7,510.8,539.3,511.7,539.3,512.6z"/>
</g>
<g>
	<path d="M539.7,346.9l-3-3.8l22.6-5.5l-8-10.3l3.1-2.4l11.1,14.3l-2.4,1.9L539.7,346.9z"/>
	<path d="M550.7,361.1l-1.5-2l29.7-2.7l1.5,2L550.7,361.1z M562.8,374.5c-1.6-0.2-3-1-4.1-2.5c-1.1-1.4-1.6-3-1.4-4.6
		c0.2-1.6,1-3,2.4-4.1s3-1.6,4.6-1.4s3,1,4.2,2.4c1.1,1.4,1.6,3,1.3,4.7c-0.2,1.7-1.1,3-2.5,4.1
		C565.9,374.2,564.4,374.7,562.8,374.5z M561,353c-1.1-1.4-1.6-3-1.4-4.6c0.2-1.6,1-3,2.4-4.1s3-1.6,4.6-1.4c1.7,0.2,3,1,4.2,2.4
		c1.1,1.5,1.6,3,1.4,4.7c-0.2,1.7-1.1,3-2.5,4.1s-2.9,1.5-4.6,1.3C563.5,355.3,562.1,354.5,561,353z M559.9,367.9
		c-0.2,0.9,0,1.8,0.6,2.5c0.6,0.8,1.4,1.2,2.3,1.3c0.9,0.1,1.8-0.2,2.7-0.9c0.9-0.7,1.4-1.5,1.6-2.4c0.2-0.9-0.1-1.8-0.7-2.5
		c-0.6-0.8-1.4-1.2-2.3-1.3c-0.9-0.1-1.8,0.3-2.7,0.9C560.6,366.2,560.1,367,559.9,367.9z M562.9,351.5c0.6,0.8,1.4,1.2,2.3,1.3
		c0.9,0.1,1.8-0.2,2.7-0.9c0.9-0.7,1.4-1.5,1.6-2.4s-0.1-1.8-0.7-2.5s-1.4-1.2-2.3-1.3c-0.9-0.1-1.8,0.3-2.7,0.9
		c-0.9,0.7-1.4,1.5-1.5,2.4C562.1,349.9,562.3,350.7,562.9,351.5z"/>
</g>
<g>
	<path class="st9" d="M914.7,123.7v-4.4l19.4-0.1l-4.3-4.1l2.7-2.6l7.3,7.2v3.8L914.7,123.7z"/>
	<path class="st9" d="M914.8,146.4l-0.1-18.2h3.5c4,5.2,7,8.8,8.9,10.7s3.8,2.8,5.5,2.8c1.2,0,2.2-0.5,2.8-1.4c0.7-0.9,1-2,1-3.2
		c0-2.8-1-5-3.1-6.8l2.9-2.6c1.3,1.1,2.3,2.4,3,4.1c0.7,1.6,1.1,3.4,1.1,5.2c0,2.6-0.7,4.7-2,6.5c-1.4,1.8-3.3,2.7-5.7,2.7
		c-2.2,0-4.3-0.9-6.5-2.7c-2.1-1.8-4.6-4.5-7.5-8.2l0.1,11.2L914.8,146.4z"/>
	<path class="st9" d="M916.2,174.1c-1.2-1.2-1.8-2.7-1.8-4.5s0.6-3.3,1.7-4.5c1.2-1.2,2.6-1.7,4.4-1.8c1.8,0,3.3,0.6,4.5,1.7
		c1.2,1.1,1.8,2.6,1.8,4.5c0,1.8-0.6,3.3-1.8,4.5s-2.7,1.8-4.5,1.8C918.9,175.8,917.4,175.2,916.2,174.1z M914.8,156.1v-2.5
		l25.2,15.9v2.5L914.8,156.1z M918,167.2c-0.7,0.6-1,1.4-1,2.4s0.4,1.8,1.1,2.4c0.7,0.6,1.6,0.9,2.7,0.9c1.1,0,2-0.3,2.7-1
		c0.7-0.6,1-1.4,1-2.4s-0.4-1.8-1-2.4c-0.7-0.6-1.6-0.9-2.7-0.9C919.5,166.2,918.6,166.6,918,167.2z M927.9,156
		c0-1.8,0.6-3.3,1.7-4.5c1.2-1.2,2.6-1.7,4.4-1.8c1.8,0,3.3,0.6,4.5,1.7c1.2,1.1,1.8,2.6,1.8,4.5s-0.6,3.4-1.8,4.5
		c-1.2,1.2-2.7,1.8-4.5,1.8s-3.3-0.6-4.4-1.7C928.5,159.4,927.9,157.8,927.9,156z M930.3,156c0,1,0.4,1.8,1,2.4
		c0.7,0.6,1.6,0.9,2.7,0.9c1.1,0,2-0.3,2.7-1c0.7-0.6,1-1.4,1-2.4s-0.4-1.8-1-2.4c-0.7-0.6-1.6-0.9-2.7-0.9c-1.1,0-2,0.3-2.7,1
		C930.7,154.2,930.3,155,930.3,156z"/>
</g>
<polyline class="st8" points="1705.4,850.4 1705.4,964 1478.7,964 1478.7,850.4 1437.9,850.4 "/>
<path class="st9" d="M1429.4,881.1h-81c-4.7,0-8.5-3.8-8.5-8.5v-41.4c0-4.7,3.8-8.5,8.5-8.5h81c4.7,0,8.5,3.8,8.5,8.5v41.4
	C1437.9,877.3,1434.1,881.1,1429.4,881.1z"/>
<g>
	<path class="st10" d="M1362,864.5h-3.5l10-22.4l-13.5,0.1v-2.8l17.1-0.1v2.1L1362,864.5z"/>
	<path class="st10" d="M1384.9,864.8c-1.7,0-3.1-0.4-4.4-1.1c-1.3-0.8-2.3-1.8-3-3.1s-1.3-2.7-1.7-4.1c-0.4-1.5-0.6-3-0.6-4.6
		s0.2-3.2,0.5-4.6c0.4-1.5,0.9-2.9,1.6-4.1c0.7-1.3,1.7-2.3,3-3.1s2.7-1.2,4.4-1.2c1.6,0,3.1,0.4,4.4,1.1c1.3,0.8,2.3,1.8,3.1,3
		c0.7,1.3,1.3,2.6,1.7,4.1c0.4,1.5,0.6,3,0.6,4.6s-0.2,3.2-0.5,4.6c-0.4,1.5-0.9,2.9-1.6,4.2s-1.7,2.3-3,3.1
		C1388,864.4,1386.6,864.8,1384.9,864.8z M1381.1,860.5c1,1,2.3,1.6,3.8,1.5c1.5,0,2.8-0.5,3.8-1.6c1-1,1.7-2.3,2.1-3.8
		s0.5-3.1,0.5-4.9c0-1.8-0.2-3.4-0.6-4.9s-1.1-2.7-2.1-3.7s-2.3-1.5-3.8-1.5s-2.8,0.5-3.8,1.6c-1,1-1.7,2.3-2.1,3.7
		c-0.4,1.5-0.5,3.1-0.5,4.9c0,1.8,0.2,3.4,0.6,4.9S1380.1,859.4,1381.1,860.5z"/>
	<path class="st10" d="M1408,849.4c-1.1,1.2-2.6,1.8-4.4,1.8s-3.2-0.6-4.4-1.7c-1.1-1.2-1.7-2.6-1.7-4.4c0-1.8,0.5-3.3,1.7-4.5
		c1.1-1.2,2.6-1.8,4.3-1.8c1.8,0,3.2,0.6,4.4,1.8c1.1,1.2,1.7,2.7,1.7,4.5C1409.7,846.7,1409.1,848.2,1408,849.4z M1400.8,848
		c0.7,0.8,1.6,1.2,2.7,1.2s2-0.4,2.7-1.2s1.1-1.8,1.1-3c0-1.3-0.4-2.3-1.1-3.1s-1.6-1.2-2.8-1.2c-1.1,0-2,0.4-2.7,1.2s-1,1.9-1,3.1
		C1399.8,846.2,1400.1,847.2,1400.8,848z M1403.3,864.3h-2l15.9-25.2h2.1L1403.3,864.3z M1421.1,862.9c-1.1,1.2-2.6,1.8-4.4,1.8
		s-3.2-0.6-4.4-1.7c-1.1-1.2-1.7-2.6-1.7-4.4c0-1.8,0.5-3.3,1.7-4.5c1.1-1.2,2.6-1.8,4.3-1.8c1.8,0,3.2,0.6,4.4,1.8
		c1.1,1.2,1.7,2.7,1.7,4.5C1422.8,860.2,1422.2,861.7,1421.1,862.9z M1414,861.5c0.7,0.8,1.6,1.2,2.7,1.2s2-0.4,2.7-1.2
		s1.1-1.8,1.1-3c0-1.3-0.4-2.3-1.1-3.1s-1.6-1.2-2.8-1.2c-1.1,0-2,0.4-2.7,1.2s-1,1.9-1,3.1C1412.9,859.7,1413.3,860.7,1414,861.5z"
		/>
</g>
<g>
	
		<linearGradient id="SVGID_9_" gradientUnits="userSpaceOnUse" x1="-1753.2" y1="833" x2="-873.2" y2="833" gradientTransform="matrix(1 0 0 -1 0 1224)">
		<stop  offset="0" style="stop-color:#E72479"/>
		<stop  offset="1" style="stop-color:#F19C6D"/>
	</linearGradient>
	<path class="st11" d="M-888.2,611c0-234.7-190.3-425-425-425s-425,190.3-425,425"/>
	
		<linearGradient id="SVGID_10_" gradientUnits="userSpaceOnUse" x1="-1703.2" y1="808" x2="-1313.2" y2="808" gradientTransform="matrix(1 0 0 -1 0 1224)">
		<stop  offset="0" style="stop-color:#E72479"/>
		<stop  offset="1" style="stop-color:#F19C6D"/>
	</linearGradient>
	<path class="st12" d="M-1688.2,611c0-207.1,167.9-375,375-375"/>
	
		<linearGradient id="SVGID_11_" gradientUnits="userSpaceOnUse" x1="-1638.2" y1="613" x2="-1638.2" y2="613" gradientTransform="matrix(1 0 0 -1 0 1224)">
		<stop  offset="0" style="stop-color:#FABA48"/>
		<stop  offset="1" style="stop-color:#DC4076"/>
	</linearGradient>
	<path class="st13" d="M-1638.2,611"/>
	
		<linearGradient id="SVGID_12_" gradientUnits="userSpaceOnUse" x1="-1653.2999" y1="747.897" x2="-1501.9603" y2="747.897" gradientTransform="matrix(1 0 0 -1 0 1224)">
		<stop  offset="0" style="stop-color:#E72479"/>
		<stop  offset="1" style="stop-color:#F19C6D"/>
	</linearGradient>
	<path class="st14" d="M-1511.1,353.1c-77.3,59.4-127.2,152.8-127.2,257.9"/>
	
		<linearGradient id="SVGID_13_" gradientUnits="userSpaceOnUse" x1="-1603.2999" y1="707.9138" x2="-1509.8677" y2="707.9138" gradientTransform="matrix(1 0 0 -1 0 1224)">
		<stop  offset="0" style="stop-color:#E72479"/>
		<stop  offset="1" style="stop-color:#F19C6D"/>
	</linearGradient>
	<path class="st15" d="M-1521.2,431c-41.8,48.2-67.1,111.1-67.1,180"/>
	
		<linearGradient id="SVGID_14_" gradientUnits="userSpaceOnUse" x1="-1538.2" y1="613" x2="-1538.2" y2="613" gradientTransform="matrix(1 0 0 -1 0 1224)">
		<stop  offset="0" style="stop-color:#FABA48"/>
		<stop  offset="1" style="stop-color:#DC4076"/>
	</linearGradient>
	<path class="st16" d="M-1538.2,611"/>
	
		<linearGradient id="SVGID_15_" gradientUnits="userSpaceOnUse" x1="-1553.2211" y1="670.1755" x2="-1497.8353" y2="670.1755" gradientTransform="matrix(1 0 0 -1 0 1224)">
		<stop  offset="0" style="stop-color:#E72479"/>
		<stop  offset="1" style="stop-color:#F19C6D"/>
	</linearGradient>
	<path class="st17" d="M-1511.1,503.8c-17.3,31.9-27.2,68.4-27.2,107.2"/>
	
		<linearGradient id="SVGID_16_" gradientUnits="userSpaceOnUse" x1="-1503.2" y1="663.0493" x2="-1449.248" y2="663.0493" gradientTransform="matrix(1 0 0 -1 0 1224)">
		<stop  offset="0" style="stop-color:#E72479"/>
		<stop  offset="1" style="stop-color:#F19C6D"/>
	</linearGradient>
	<path class="st18" d="M-1462,518.8c-16.6,26.8-26.2,58.4-26.2,92.2"/>
</g>
<line class="st19" x1="-1449.2" y1="611" x2="-1780.2" y2="611"/>
<line class="st19" x1="-925.2" y1="611" x2="-851.2" y2="611"/>
<text transform="matrix(0.8467 0.5321 -0.5321 0.8467 -1468.1548 509.2872)" style="font-family:'ProximaNova-Semibold'; font-size:20px;">3%</text>
<text transform="matrix(0.8752 0.4838 -0.4838 0.8752 -1517.4918 492.4237)" style="font-family:'ProximaNova-Semibold'; font-size:20px;">3%</text>
<text transform="matrix(0.7494 0.6622 -0.6622 0.7494 -1524.6429 418.4844)" style="font-family:'ProximaNova-Semibold'; font-size:20.0011px;">5%</text>
<text transform="matrix(0.6135 0.7897 -0.7897 0.6135 -1510.1176 339.7606)" style="font-family:'ProximaNova-Semibold'; font-size:20px;">7%</text>
<text transform="matrix(5.409431e-03 1 -1 5.409431e-03 -1308.0304 219.0474)" class="st9" style="font-family:'ProximaNova-Semibold'; font-size:20px;">12%</text>
<polyline class="st20" points="-888.2,611 -888.2,671.3 -1008.6,671.3 -1008.6,611 -1030.2,611 "/>
<path class="st9" d="M-1038.7,627.3h-35c-4.7,0-8.5-3.8-8.5-8.5v-14c0-4.7,3.8-8.5,8.5-8.5h35c4.7,0,8.5,3.8,8.5,8.5v14
	C-1030.2,623.5-1034,627.3-1038.7,627.3z"/>
<text transform="matrix(1 -5.409431e-03 5.409431e-03 1 -1074.7716 618.5004)" style="fill:#FFFFFF; font-family:'ProximaNova-Regular'; font-size:20px;">70%</text>
<text transform="matrix(1 -5.409431e-03 5.409431e-03 1 -1074.7716 618.5004)" style="fill:none;stroke:#FFFFFF;stroke-miterlimit:10; font-family:'ProximaNova-Regular'; font-size:20px;">70%</text>
<text transform="matrix(1 0 0 1 -1366.455 586.2849)" class="st9" style="font-family:'ProximaNova-Bold'; font-size:56px;">Tokens </text>
<text transform="matrix(1 0 0 1 -1415.5549 630.2849)" class="st9" style="font-family:'ProximaNova-Bold'; font-size:56px;">Distribution</text>
<text transform="matrix(0.7071 0.7071 -0.7071 0.7071 -1758.0553 631.4204)" style="font-family:'ProximaNova-Semibold'; font-size:27px;">Crowd Sale</text>
<text transform="matrix(0.7071 0.7071 -0.7071 0.7071 -1698.5929 633.2156)" style="font-family:'ProximaNova-Regular'; font-size:23px;">Project Team</text>
<text transform="matrix(0.7071 0.7071 -0.7071 0.7071 -1645.2457 633.2295)" style="font-family:'ProximaNova-Regular'; font-size:23px;">Reserve Fund</text>
<text transform="matrix(0.7071 0.7071 -0.7071 0.7071 -1597.0919 633.1328)" style="font-family:'ProximaNova-Regular'; font-size:23px;">First Bonus Tournament</text>
<text transform="matrix(0.7071 0.7071 -0.7071 0.7071 -1544.7916 633.2141)" style="font-family:'ProximaNova-Regular'; font-size:23px;">Bounty Program</text>
<text transform="matrix(0.7071 0.7071 -0.7071 0.7071 -1491.7262 629.7788)" style="font-family:'ProximaNova-Regular'; font-size:23px;">Advisory Board</text>
<g>
	<path d="M104.9,907.4c1.3,1.1,1.7,0.4,3.2,1.9c0.7,0.7,2.9,3,2,3.9c-0.4,0.4-1,0.3-1.6-0.3l-0.1-0.1c-2.1-2.5-5.1-5.5-7.7-8.1
		c-3.6-3.6-7.4-7.1-11.3-10.5c-1.2-0.8-1.7-0.5-2.2-1c-0.5-0.5-2.5-5.1-1.9-5.6c0.1-0.1,0.2-0.1,0.5,0.2c0.2,0.2,0.3,0.4,0.5,0.7
		c0.8,1.4,2.6,3.4,5,5.8c3.1,3.1,7.1,6.7,11.2,10.7c4.2-2.6,8.8-5.9,11.6-8.3c-4.6-2.5-9.6-5.5-13.5-8.3c-1-0.7-1.4-0.4-1.9-0.9
		c-0.7-0.7-2.7-5.3-2.3-5.7c0.1-0.1,0.2,0,0.4,0.2c0.1,0.1,0.3,0.3,0.5,0.7c0.4,0.5,1,1.1,1.6,1.7c4.7,4.7,13.5,10.9,15.9,11.9
		c1.8-1.6,5.1-4.2,6.3-5.4c-2.9-2.6-8.2-7.4-11.7-10.7c-0.8-0.6-1.2-0.4-1.6-0.8c-0.5-0.5-2.2-4.4-1.7-4.8c0.1-0.1,0.2-0.1,0.4,0.1
		c0.1,0.1,0.3,0.4,0.5,0.7c1.1,1.5,2.9,3.4,4.9,5.4c3.7,3.7,8.1,7.6,9.1,8.5c1,0.7,0.8,0.1,1.9,1.3c1.7,1.7,1.8,2.1,1.5,2.4
		c-0.2,0.2-0.9,0.2-1.5,0.4c-6.3,4.5-12.3,8.5-19.5,12.6l0.6,0.6L104.9,907.4z"/>
	<path d="M151,915.3c0.5-0.5-0.4-2.7-1-4.4c-0.2-0.4-0.3-0.8-0.1-0.9c0.2-0.2,0.7,0,1.5,0.8c1,1.4,1.9,2.8,2.5,4
		c0.4,0.8,0.3,1.2,0,1.4c-0.2,0.2-0.6,0.4-1,0.8l-10.3,10.3l1.4,1.4c1.5,1.1,1.6,0.1,3.4,2c0.5,0.5,1.7,1.7,0.8,2.6
		c-0.4,0.4-1.1,0.4-1.7-0.2l-4.9-4.9l-8.2,8.2c-1.9,1.8-3.2,2.8-4.9,3.5c-0.6,0.1-1,0.1-1.2-0.1c-0.3-0.3-0.1-0.8,0.9-1.7l9.5-9.5
		c-6.1-2.1-16.1-7.6-18.1-9.6c-0.8-0.8-0.4-2.3,0.7-3.5l5.2-5.3c0.6-0.7,0-2-0.6-3.2c-0.2-0.3-0.3-0.6-0.2-0.7
		c0.1-0.1,0.7,0,1.4,0.5c1.3,1.4,2.6,3.1,3,4c1.2,1.2,2.3,2.2,4,3.6c1,0.8,1.2,0.8,1.8,1.1c1.4-1,4-3.2,6-4.9
		c-2.2-1.9-3.6-3.2-5.8-4.9c-0.9-0.6-1.3-0.5-1.7-0.8c-0.4-0.4-1.8-3.8-1.3-4.2c0.1-0.1,0.2-0.1,0.4,0.1c0.1,0.1,0.3,0.3,0.4,0.5
		c0.9,1.2,1.8,2.2,2.9,3.3c1.4,1.4,2.9,2.7,4.6,4.3c1.3,0.9,0.8,0,2.9,2.1c0.8,1,0.9,1.4,0.7,1.6c-0.3,0.3-1,0.1-1.6,0.2
		c-1.5,1-4.9,2.9-6.2,3.7c0.8,1.1,0.9,1.8,0.6,2.1c-0.2,0.2-0.6,0.1-1.1-0.3c-2.6-2.3-5.9-5.4-7.2-6.5c-0.7-0.3-0.5-0.5-1.1-0.1
		c-2.2,2.1-3.3,3.2-5.1,5c-0.3,0.5-0.4,0.8,0.1,1.3c0.1,0.1,7.8,6.7,15.9,9.8L151,915.3z"/>
	<path d="M160.8,948.9c-2-2-5.5-5-7.1-6.4c-0.9-0.6-1.4-0.3-2-0.8c-0.8-0.8-2.6-5.3-2.1-5.7c0.1-0.1,0.3,0,0.5,0.2
		c0.1,0.1,0.3,0.4,0.5,0.7c1.6,2,3.8,4.4,6.2,6.8c4.2,4.2,9.1,8.7,13,12c1.7,1.3,1.7,0.5,3.1,1.8c0.8,0.8,3,3,2.1,3.9
		c-0.3,0.3-1,0.3-1.6-0.2c-1.7-1.8-3.3-3.4-5.2-5.3c-1.5-1.5-3.3-3.2-5.5-5.3c-6.7,6.7-9.3,9.3-11.7,10.5c-0.9,0.4-1.5,0.5-1.8,0.3
		c-0.3-0.3,0.1-0.9,1.1-2L160.8,948.9z M173.1,935.9c0.3,0.3,0.9,0.5,1.2,0.2c0.2-0.2,0.3-0.5,0.3-0.8c0-0.5,0-0.7,0.1-0.8
		c0.1-0.1,0.3-0.1,0.5,0.2c0.7,0.7,1.4,2.3,1,2.7c-0.1,0.1-1,0.4-1.2,0.5c2.8,4,2.1,7.6,0,9.7c-2.3,2.3-6.7,2.7-10.4-0.9
		c-3.8-3.8-3.5-8.3-1.1-10.8C165.6,933.7,169.2,933.2,173.1,935.9z M165.1,937.6c-1.8,1.8-2.3,5.1,0.6,7.9c2.7,2.7,5.8,2.1,7.7,0.3
		c1.8-1.8,2.4-5-0.3-7.7C170.3,935.3,167,935.7,165.1,937.6z"/>
	<path d="M189.7,992.2c1.3,1.1,1.7,0.4,3.2,1.9c0.7,0.7,2.9,3,2,3.9c-0.4,0.4-1,0.3-1.6-0.3l-0.1-0.1c-2.1-2.5-5.1-5.5-7.7-8.1
		c-3.6-3.6-7.4-7.1-11.3-10.5c-1.2-0.8-1.7-0.5-2.2-1c-0.5-0.5-2.5-5.1-1.9-5.6c0.1-0.1,0.2-0.1,0.5,0.2c0.2,0.2,0.3,0.4,0.5,0.7
		c0.8,1.4,2.7,3.5,5.2,6c3.4,3.4,7.9,7.6,12.4,11.9L189.7,992.2z M191.4,962c0.5-0.6-0.1-2.1-0.8-3.7c-0.2-0.3-0.3-0.7-0.2-0.9
		c0.2-0.2,0.6-0.1,1.3,0.6c1.6,1.8,2.7,3.5,3.1,4.5l7.9,7.7c3.4,2.9,2.3,0.5,5.5,3.7l0.3,0.3c0.8,0.8,0.9,1.8,0.5,2.1
		c-0.4,0.4-1.1,0.3-2-0.6c-4.6-4.3-9.8-9.4-12.4-12c-0.5-0.2-0.6-0.6-1.2-0.1L187,970c-1.1,1.1-1,1.1,2.9,5c1.7,1.7,3.7,3.6,5.4,5.2
		c1.9,1.8,2.1,0.5,4.6,3c1.4,1.4,1.1,2.2,0.8,2.5c-0.4,0.4-1.1,0.3-1.8-0.4c-1.4-1.2-6.2-5.9-9.6-9.4c-1.7-1.7-3.1-3.2-3.6-3.7
		c-1-1-1.6-2.9-0.1-4.3L191.4,962z"/>
	<path d="M230.4,1004c0.3-0.3,0.1-1.5-0.2-3.2c-0.3-0.8-0.1-1.3,1-0.2c0.5,0.5,2.3,4.4,1.6,5.1c-0.4,0.4-6.6,2.3-7.1,2.4
		c-0.2,1.2-0.3,2.5-0.3,3.4c-0.2,2.2,1.1,2.7-1.2,6c-0.1,0.1-0.1,0.2-0.2,0.3c-0.5,0.5-1.2,0.6-1.5,0.3c-0.2-0.2-0.3-0.7-0.2-1.3
		c0.5-1.8,1.6-4.8,2.4-8.5c-6.4,0.9-12.7,0.3-13.5-0.5c-0.1-0.1-0.1-0.1,0-0.2c0.1-0.1,0.5-0.1,1.2-0.1c4.9,0.2,11.1-0.3,17.6-3.4
		L230.4,1004z M240.6,1009.6c0.7-0.7,0.1-2.3-0.4-4c-0.2-0.5-0.3-1-0.2-1.2c0.1-0.1,0.5,0,1.2,0.7c0.9,1.1,1.7,2.6,2.3,3.6
		c0.4,0.8,0.3,1.3,0,1.6c-0.2,0.2-0.5,0.4-0.8,0.6l-15.3,15.2c-3.8,3.6-5.5,3.9-5.8,3.6c-0.3-0.3,0.2-1.2,1.6-2.5l10.5-10.5
		l-2.7-2.5c-1-0.7-1.4-0.5-1.7-0.9c-0.4-0.4-1.4-2.9-1-3.2c0.1-0.1,0.3,0,0.6,0.3c0.2,0.2,1.1,1.2,1.3,1.4c1.5,1.5,2.9,2.8,4.3,4
		L240.6,1009.6z M247.2,1012.1c0.5-0.5,0.1-2.3-0.4-4c-0.3-0.6-0.3-1-0.2-1.1c0.2-0.2,0.5,0,1.2,0.7c1.1,1.6,1.8,3.1,2.3,4
		c0.3,0.7,0.2,1-0.1,1.2c-0.2,0.2-0.5,0.3-0.8,0.6l-20,20c-2.7,2.5-4.6,3.4-5.3,3c-0.3-0.3-0.2-0.8,1.2-2.3L247.2,1012.1z"/>
	<path d="M260.7,1027.2c0.5,0.5,1,0.5,1.4,0.1c0.1-0.1,0.3-0.3,0.3-0.5c0-0.4,0-0.7,0.1-0.8c0.1-0.1,0.3-0.1,0.5,0.2
		c0.8,0.8,1.2,2.2,0.8,2.6c-0.3,0.3-0.9,0.2-1.3,0.3c2.9,3.6,2.6,7.5,0.1,9.9c-2.7,2.7-7.1,2.5-10.8-1.2c-3.7-3.7-3.4-8.2-0.9-10.7
		c2.1-2.1,5.8-2.8,9.5-0.1L260.7,1027.2z M252.7,1028.9c-1.9,1.9-2.4,5.1,0.3,7.8c3,3,6.3,2.6,8.2,0.7c1.9-1.9,2.3-5.2-0.7-8.2
		C257.8,1026.5,254.5,1027,252.7,1028.9z M244.8,1047.6c0.3-0.4-0.1-1.1-0.8-2.2c-0.2-0.4-0.4-0.7-0.3-0.8c0.1-0.1,0.7-0.1,1.6,0.9
		c1.2,1.2,2.3,2.7,2.4,3.1c2.6,2.6,4.2,4.2,7,6.8c0.7,0.6,1.1,0.8,1.8,1.2c0.5-0.4,2.2-1.8,3.7-3.2c-1.8-1.8-5.8-5.5-8.7-8.1
		c-1-0.7-1.4-0.5-1.9-1c-0.6-0.6-1.8-3.7-1.5-4c0.1-0.1,0.3,0,0.6,0.3c0.1,0.1,0.3,0.3,0.4,0.5c0.9,1,2.2,2.5,3.7,4
		c2.3,2.3,5.1,4.9,7.5,7c0.6,0.5,0.7,0.3,1.3,0.9c0.2,0.2,0.4,0.4,0.6,0.7c0.8,0.9,0.9,1.3,0.7,1.5c-0.2,0.2-0.8,0.2-1.2,0.4
		c-1.2,0.5-2.8,1.2-4,2c0.6,0.9,0.7,1.6,0.5,1.8c-0.2,0.2-0.7,0.1-1.4-0.6c-2.2-2.1-6.5-6.2-9.6-9.2c-0.5-0.1-0.6-0.4-1-0.1
		l-2.5,2.5c-0.5,0.6-0.4,0.9,0.1,1.4c0.6,0.6,1.4,1.4,2.4,2.4c1.4,1.4,3.2,3.1,4.9,4.8c1.9,1.5,1.9,0.4,3.6,2.2
		c0.8,0.8,2.2,2.2,1.4,3c-0.3,0.3-1,0.3-1.6-0.3l-11.3-11.3c-2.1-2.1-1.8-3.3-1-4.1L244.8,1047.6z M274.4,1039.3
		c0.5-0.5,0.3-2-0.7-4.2c-0.3-0.6-0.4-1.1-0.3-1.2c0.2-0.2,0.6,0.1,1.4,0.7c0.1,0.1,3.6,4.6,2.7,5.5c-0.2,0.2-0.6,0.3-0.9,0.7
		l-8.1,8.1c-1.2,1.2-3,2.8-4.4,3.4c-0.9,0.4-1.6,0.4-1.8,0.2c-0.3-0.3-0.1-0.8,0.8-1.8L274.4,1039.3z"/>
</g>
<g>
	<path d="M201.6,909.2c1.3,1.1,1.7,0.4,3.2,1.9c0.7,0.7,2.9,3,2,3.9c-0.4,0.4-1,0.3-1.6-0.3l-0.1-0.1c-2.1-2.5-5.1-5.5-7.7-8.1
		c-3.6-3.6-7.4-7.1-11.3-10.5c-1.2-0.8-1.7-0.5-2.2-1c-0.5-0.5-2.5-5.1-1.9-5.6c0.1-0.1,0.2-0.1,0.5,0.2c0.2,0.2,0.3,0.4,0.5,0.7
		c0.8,1.4,2.7,3.5,5.2,6c3.4,3.4,7.9,7.6,12.4,11.9L201.6,909.2z M215.9,887.5c2.1,1.9,1.8,0,4.8,3c1.3,1.3,1.4,2.3,1,2.8
		c-0.8,0.8-1.9-0.3-2.6-1c-3.8-3.8-9.6-9.1-13.3-12.4c-0.9-0.6-1.3-0.4-1.7-0.8c-0.5-0.5-1.9-4.2-1.4-4.7c0.1-0.1,0.2-0.1,0.4,0.1
		c0.1,0.1,0.3,0.4,0.5,0.7c1.2,1.7,2.9,3.6,4.8,5.5C211.4,883.7,214.6,886.4,215.9,887.5z M211.3,891.6c0.7-0.5,1.1-0.8,0.6-2.7
		c-0.1-0.4-0.1-0.7,0-0.8c0.1-0.1,0.5,0,1.1,0.7c0.6,0.6,2.4,3.8,1.8,4.4c-0.3,0.3-0.8,0.3-1.6,0.6c-2.4,1-6.1,2.7-7.8,3.2
		c0.7,0.5,1.5,1.3,2.2,1.8c1.3,0.9,0.8-0.2,3,2c1.4,1.4,1.4,2.3,1,2.7c-0.4,0.4-1.2,0.2-2-0.6c-0.4-0.4-2.3-2.3-2.7-2.8
		c-3.5-3.5-7.2-6.9-11-10.1c-0.9-0.6-1.2-0.5-1.6-0.8c-0.4-0.4-1.7-3.9-1.2-4.4c0.1-0.1,0.2,0,0.4,0.2c0.1,0.1,0.3,0.4,0.5,0.7
		c0.9,1.4,2.3,2.9,4,4.6c1.9,1.9,4.1,3.9,6.4,5.8C205.4,895.5,208.7,893.6,211.3,891.6z M202.2,889.9c-1.1,0.8-2,0.9-2.3,0.6
		c-0.3-0.3-0.3-1,0.3-1.8c0.7-1.2,1.6-3,3.2-7.4c0.1-0.3,0.2-0.6,0.4-0.7c0.1-0.1,0.2-0.2,0.3-0.1c0.1,0.1,0.2,0.4,0.2,0.8
		c0.2,3.9,0.2,6-1.1,7.5L202.2,889.9z"/>
	<path d="M233.1,942.8c-2.1-2.3-5.1-5.6-8.6-9.1c-4.9-4.9-7.6-7.2-10.2-9.3c-0.9-0.8-1.6-0.8-2.2-1.4c-0.6-0.6-1.2-1.7-1.9-4.3
		c-0.2-0.6-0.2-1-0.1-1.1c0.1-0.1,0.2-0.1,0.5,0.2c0.1,0.1,0.3,0.4,0.5,0.7c1.2,1.8,3.1,3.8,5.4,6.2c1.6,1.6,3.5,3.3,5.4,5.2
		c0.5-0.6,1.5-1.6,6.4-6.5c-1.6-1.4-2.8-2.7-3.8-3.6c-1.2-1.2-1.7-2.6-0.5-4l2.9-3c0.4-0.7-0.3-1.8-1-3.1c-0.2-0.3-0.3-0.6-0.2-0.7
		c0.1-0.1,0.7-0.1,1.9,1.1c1.1,1.1,2,2.2,2.6,3.4c1.6,1.5,5.8,5.3,8.2,7.3c0.9,0.8,1.1,0.8,2.3,1.6c0.9-0.6,2.9-2.3,4.6-3.9
		c-2.6-2.3-6.8-6-10.4-9.1c-1.1-0.8-1.5-0.5-1.9-1c-0.5-0.5-2-4.1-1.6-4.5c0.1-0.1,0.2-0.1,0.5,0.2c0.1,0.1,0.2,0.2,0.3,0.4
		c1.1,1.4,2.4,2.8,3.9,4.3c2.5,2.5,5.5,5.2,8.6,7.7c0.8,0.7,1.1,0.5,2.1,1.6c1.3,1.3,1.8,2.1,1.5,2.4c-0.3,0.3-1.3,0.2-1.9,0.4
		c-1.3,0.8-3.6,1.9-4.7,2.5c0.7,0.8,0.8,1.5,0.6,1.8c-0.2,0.2-0.6,0.1-1.1-0.3c-4-3.8-8-7.3-11.2-10.2c-0.5-0.2-0.5-0.7-0.9-0.3
		l-0.1,0.1c-0.6,0.5-2.1,2-3.6,3.6c-0.5,0.5-0.4,0.8,0.2,1.4c2,2,4.8,4.6,7.8,7.2c1.7,1.4,1.8,0.1,3.8,2.1c0.7,0.7,1.8,1.9,1.2,2.5
		c-0.3,0.3-1,0.3-1.6-0.3c-2.7-2.3-4.7-4.1-6.6-5.9c-4,4-5.1,5.1-6.5,6.4c1.3,1.3,3.6,3.5,6.3,5.8c1.2,1,1.5,0.4,2.8,1.7
		c0.7,0.7,3.2,3.5,2.1,4.5c-0.3,0.3-1,0.3-1.7-0.4L233.1,942.8z"/>
	<path d="M264.9,939.6c1.3,1.1,0.9,0.2,2.6,1.9c0.9,0.9,1,1.3,0.8,1.5c-0.2,0.2-1.1,0.1-1.8,0.2c-3.3,1-5.2,1.4-7.7,1.8
		c0,1.6-0.1,2.8,0.2,4.2c0.4,1.6-0.3,3-1,3.7c-0.5,0.5-1,0.5-1.3,0.2c-0.2-0.2-0.3-0.7-0.2-1.4c0.3-1.6,1.1-4.8,1.3-6.8
		c-3-0.1-7.3-0.2-11.8-1.6c-0.5-0.2-0.9-0.4-1-0.5c-0.1-0.1-0.1-0.1,0-0.1c0.1-0.1,0.5-0.1,1.2,0.1c4.5,0.7,13.3,0.9,18.8-1.9
		c-0.8-0.8-2.3-2.2-3.7-3.3c-0.9-0.6-1.3-0.5-1.6-0.8c-0.4-0.4-1.7-3.6-1.3-4c0.1-0.1,0.2,0,0.4,0.2c0.1,0.1,0.2,0.2,0.4,0.4
		c0.7,1,1.5,1.9,2.3,2.7C261.8,936.7,264.3,939,264.9,939.6z M262.5,962.3c-1.8-1.6-6.5-6-10.2-9.4c-1.1-1-1.7-0.8-2.3-1.4
		c-0.8-0.8-1.8-4-1.5-4.3c0.1-0.1,0.3,0,0.5,0.2c0.1,0.1,0.2,0.2,0.4,0.4c0.9,1.2,2.4,2.8,4.1,4.6c2.8,2.8,6.1,5.8,8.5,8
		c0.7,0.7,1,0.3,1.8,1.2c0.1,0.1,0.3,0.3,0.4,0.5c1,1.1,1.1,1.6,0.9,1.8c-0.2,0.2-0.8,0.3-1.2,0.6c-3.9,3.9-5.6,5.6-7.7,6.9
		c-1,0.6-1.9,0.7-2.2,0.3c-0.3-0.3-0.1-0.8,0.6-1.5L262.5,962.3z M271.4,944.9c0.7-0.7,0.3-2.4-0.2-3.7c-0.2-0.5-0.4-0.9-0.3-1
		c0.1-0.1,0.6,0,1.4,0.7c0.6,0.8,1.4,2.3,1.9,3.2c0.4,0.9,0.3,1.2,0.1,1.5c-0.2,0.2-0.5,0.3-0.7,0.5l-7.5,7.5
		c-2.9,2.9-4.9,3.7-5.4,3.2c-0.3-0.3,0.2-1.2,1.6-2.7l3.4-3.4l-2.2-2c-0.8-0.5-1.1-0.3-1.4-0.6c-0.3-0.3-1.4-2.7-1-3.1
		c0.1-0.1,0.2-0.1,1,0.7c1.9,1.8,3.1,3,4.4,4.2L271.4,944.9z M278,947.9c0.5-0.5,0.1-2.3-0.4-4c-0.3-0.6-0.3-1-0.2-1.1
		c0.1-0.1,0.5,0,1.2,0.7c1.2,1.6,1.8,3.1,2.3,4c0.3,0.7,0.2,1-0.1,1.3c-0.2,0.2-0.5,0.3-0.8,0.6l-8.3,8.2c-3.5,3.5-5.5,3.8-5.9,3.5
		c-0.3-0.3-0.1-0.8,1.2-2.2L278,947.9z"/>
	<path d="M286.4,993.9c1.1,1,1.6,0.3,3.1,1.9c0.7,0.7,3,3.2,2,4.2c-0.3,0.3-1,0.3-1.6-0.3l-0.1-0.1c-1.4-1.5-3-3.2-4.6-4.9
		c-0.9-0.9-5.3-5.2-6.2-6.2c-2.5-2.5-6.1-5.6-7.8-7.2c-1.2-0.9-1.8-0.6-2.4-1.2c-0.7-0.7-2.5-5.2-2-5.7c0.1-0.1,0.3,0,0.5,0.2
		c0.1,0.1,0.3,0.3,0.5,0.6c1,1.6,3.3,4.2,6.4,7.3c3.1,3.1,7,6.8,11,10.4L286.4,993.9z M287.9,963.5c0.5-0.6,0.1-1.9-0.7-3.4
		c-0.3-0.4-0.5-0.9-0.3-1.1c0.3-0.3,1.1,0.3,1.5,0.7c1.2,1.2,2.6,3.3,3.1,4.3c2.3,2.2,5.7,5.5,9.3,8.9c1.8,1.2,1.9,0.2,3.9,2.2
		c2,2,1.5,2.8,1.3,3c-0.3,0.3-1,0.2-1.5-0.3c-4.9-4.6-11.1-10.4-13.6-12.8c-0.4-0.1-0.4-0.4-0.9,0l-3.9,3.9c2.4,2.3,5.4,5.3,9.6,9.1
		c1.4,1,1-0.4,3.6,2.2c0.9,0.9,1,1.6,0.6,2c-0.3,0.3-1.1,0.3-1.7-0.3c-2-1.8-9.2-8.8-12.9-12.3l-3.6,3.6c-0.9,1-0.7,1.3,1.4,3.3
		c2.1,2.1,4.4,4.2,7.4,6.9c1.9,1.6,1.5,0,4.2,2.7c0.6,0.6,1.8,1.8,1,2.5c-0.4,0.4-1.2,0.3-1.9-0.4c-3.4-3.1-6.7-6.2-13-12.4
		c-1.8-1.8-1.9-3.3-0.7-4.6L287.9,963.5z"/>
	<path d="M339.4,1009.4c0.5-0.5,0.3-2-0.7-4.2c-0.3-0.6-0.4-1.1-0.3-1.2c0.2-0.2,0.6,0.1,1.4,0.7c0.1,0.1,3.6,4.6,2.7,5.5
		c-0.2,0.2-0.6,0.3-0.9,0.7l-8.1,8.1c-1.2,1.2-3,2.8-4.4,3.4c-0.9,0.4-1.6,0.4-1.8,0.2c-0.3-0.3-0.1-0.8,0.8-1.8l2.5-2.5
		c-8.5-3.4-17.3-10-18.1-10.7c-1.5-1.5-0.3-3.1,0.4-3.8l7.5-7.6c0.3-0.4-0.1-1.5-0.6-3c-0.3-0.5-0.4-0.9-0.3-1
		c0.2-0.2,0.9,0.2,1.4,0.7c1.2,1.2,2.4,2.9,2.8,3.6c0.3,0.3,0.5,0.6,0.8,0.9c1.1,1.1,2.3,2.2,4,3.6c2,1.6,1.6,0.1,4.1,2.5
		c0.7,0.7,1.2,1.8,0.7,2.3c-0.3,0.3-1,0.3-1.7-0.3c-1.3-1.2-5.4-5.1-8.3-7.7c-0.5-0.1-0.5-0.5-1,0l-3.5,3.5c0.7,0.7,2.9,2.6,4.4,3.9
		c1.8,1.6,1.8,0.3,4.1,2.6l0.1,0.1c1.1,1.1,1.2,1.9,0.8,2.2c-0.3,0.3-0.9,0.3-1.3-0.1c-2-1.8-6.9-6.3-8.8-7.9l-3.4,3.4
		c-0.5,0.5-0.7,0.7,0.1,1.5c4.6,4,10.9,8.5,16.3,10.8L339.4,1009.4z M326.3,1024.2c1,1.1,1.2,1.6,1,1.8c-0.2,0.2-1,0.2-1.5,0.5
		c-2.2,1.6-5.4,3.6-6.6,4.4c0.7,1,0.8,1.6,0.5,1.9c-0.2,0.2-0.7,0.1-1.2-0.5c-2-1.8-7.8-7.4-9.6-9.2c-1.3,0.9-2.3,1.1-2.6,0.8
		c-0.3-0.3-0.1-0.8,0.6-1.6c0.8-1,4.4-4.9,6.3-7.2c0.3-0.4,0.6-0.7-0.5-2.7c-0.2-0.4-0.4-0.8-0.3-0.9c0.1-0.1,0.5,0,1.3,0.5
		c1,1.2,2.2,2.7,2.8,3.6c1.3,1.3,6.3,6,7.8,7.3c0.7,0.7,0.6,0,1.6,1L326.3,1024.2z M316,1028.5c0.9,0.7,1.2,0.8,2.1,1.4
		c1.4-1.2,4.8-4.3,6.1-5.7c-1.7-1.4-6.2-5.8-8.4-7.8c-0.3,0.1-0.5-0.2-0.8,0.1l-5.4,5.8L316,1028.5z"/>
</g>
<g>
	<path d="M310.5,882.3c0.6-0.7,0.3-2.1-0.3-3.6c-0.3-0.7-0.4-1.1-0.3-1.2c0.1-0.1,0.5,0,1,0.5c1.2,1.3,1.7,2.5,2.4,3.5
		c0.5,0.9,0.5,1.2,0.2,1.5c-0.3,0.3-0.7,0.5-1.3,1.1l-12.7,12.7c-3.8,3.8-5.6,5-6.6,5.5c-0.9,0.4-1.5,0.5-1.8,0.3
		c-0.2-0.2,0-0.7,0.7-1.4l8.7-8.7l-1.2-0.9c-1-0.8-1.5-0.7-1.9-1.2c-0.5-0.5-1.5-2.9-1-3.3c-2.1,0.5-4.6-0.1-6.7-2.3
		c-3.4-3.4-2.8-7.7-0.5-10.1c2-2,5.3-2.6,8.7-0.2c0.6,0.6,1.3,0.5,1.4,0.3c0.1-0.1,0.2-0.3,0.2-0.6c0-0.5,0-0.7,0.1-0.8
		s0.3-0.1,0.5,0.2c0.7,0.7,1.1,2.1,0.8,2.5c-0.3,0.3-0.8,0.2-1.3,0.4c2.5,3.7,1.9,7-0.1,9c-0.9,0.9-1.9,1.4-3.1,1.6
		c0.3,0.3,1.6,1.8,2,2.1c1.1,1.1,2.2,2.1,2.9,2.5l4.3-4.3l-1.2-0.9c-1-0.8-1.4-0.9-1.8-1.2c-0.5-0.5-1.5-2.9-1.2-3.3
		c0.1-0.1,0.3-0.1,0.5,0.2c0.1,0.1,0.1,0.2,0.2,0.3c0.5,0.6,1.1,1.2,1.6,1.8c1.1,1.1,2.1,2,2.6,2.3L310.5,882.3z M290.6,876.6
		c-1.7,1.7-2.3,4.6,0.1,7c2.5,2.5,5.6,2.1,7.3,0.3c1.8-1.8,2.2-4.8-0.3-7.3C295.3,874.2,292.4,874.8,290.6,876.6z M316.8,884.7
		c0.4-0.5,0.1-2.3-0.6-4.2c-0.2-0.6-0.3-1.1-0.2-1.2c0.1-0.1,0.4,0,1.1,0.6c1,1.3,1.5,2.2,2.6,4.3c0.4,0.8,0.3,1.1,0,1.4
		c-0.3,0.3-0.6,0.5-1,0.9l-13.4,13.4c-6.9,6.9-8.8,8.4-10.5,9c-0.7,0.2-1.2,0.2-1.5,0c-0.2-0.2-0.1-0.7,0.4-1.2L316.8,884.7z"/>
	<path d="M323.2,900.2c0.4-0.5,0.1-1.7-0.7-3c-0.4-0.6-0.5-1-0.4-1.2c0.1-0.1,0.6,0,1.4,0.5c0.9,1,1.6,1.9,2.4,2.9
		c0.6,0.8,0.6,1.2,0.3,1.4c-0.2,0.2-0.5,0.3-0.7,0.5l-3,3l7.2,6.8l3.5-3.5c0.3-0.4-0.1-1.7-0.7-3.1c-0.3-0.5-0.4-0.9-0.3-1
		c0.1-0.1,0.5,0,1.2,0.5c0.8,0.8,1.8,2.3,2.4,3.3c0.3,0.7,0.3,0.9,0,1.2c-0.2,0.2-0.5,0.3-0.8,0.6l-7.3,7.3c-1,0.9-2.5,2.5-3.4,3.3
		c-1.6,1.4-3.2,1.9-3.6,1.4c-0.3-0.3-0.1-0.8,0.8-1.7c-1.6-1.6-5.1-5-7.2-7c-1,0.7-2.6,1.2-3,0.8c-0.3-0.3,0-0.9,0.9-2L323.2,900.2z
		 M322.4,918.6l6.4-6.6l-7.2-6.8l-6.5,6.4L322.4,918.6z M344,912.3c0.5-0.6,0.3-2.1-0.6-4.4c-0.3-0.5-0.3-0.9-0.2-1.1
		c0.2-0.2,0.6,0,1.3,0.6c1.5,2.1,2.1,3.5,2.5,4.4c0.3,0.6,0.1,0.9-0.1,1.1c-0.2,0.2-0.5,0.4-0.8,0.7l-16.7,16.6
		c-5.2,5.2-6.1,5.7-7.7,6.3c-0.5,0.1-0.9,0.1-1.1-0.1c-0.2-0.2-0.1-0.7,0.8-1.6L344,912.3z"/>
	<path d="M361.9,936c-1.2-0.8-1.7-0.8-2.2-1.2c-0.7-0.7-1.8-4.1-1.4-4.5c0.1-0.1,0.3,0,0.5,0.2c0.2,0.2,0.4,0.4,0.6,0.7
		c1.2,1.7,2.9,3.5,4.8,5.4c1.1,1.1,2.4,2.3,3.6,3.6c0.9,0.7,1,0.4,1.8,1.2c0.1,0.1,0.3,0.3,0.5,0.6c0.9,1,1,1.4,0.8,1.7
		c-0.3,0.3-1,0.2-1.4,0.2c-9,4-16.8,4.6-27.5,2.5c-0.8-0.2-1.3-0.4-1.4-0.6c-0.1-0.1-0.1-0.1,0-0.2c0.1-0.1,0.6-0.1,1.4,0
		c8.6,1.1,19.1,0,26-3.9L361.9,936z M378.3,946.6c0.5-0.6,0.3-2.1-0.6-4.4c-0.3-0.5-0.3-0.9-0.2-1.1c0.2-0.2,0.6,0,1.3,0.6
		c1.5,2.1,2.1,3.5,2.5,4.4c0.3,0.6,0.1,0.9-0.1,1.1c-0.2,0.2-0.5,0.4-0.8,0.7l-16.7,16.6c-5.2,5.2-6.1,5.7-7.7,6.3
		c-0.5,0.1-0.9,0.1-1.1-0.1c-0.2-0.2-0.1-0.7,0.8-1.6L378.3,946.6z"/>
	<path d="M398.8,982.8c2.1,1.9,2.3,0.8,4.1,2.5c0.3,0.3,2.4,2.4,1.4,3.4c-0.3,0.3-1,0.2-1.8-0.6c-0.3-0.3-1.7-1.8-2-2.1
		c-5.1-5.1-15.8-15.3-17.2-16.3c-0.9-0.7-1.4-0.6-1.8-1c-0.7-0.7-2.6-5-2.1-5.5c0.1-0.1,0.3,0,0.5,0.2c0.1,0.1,0.3,0.3,0.4,0.4
		c1.8,2.3,4.1,4.9,7,7.7c2.5,2.5,5.4,5.2,8.7,8.3c3.2-1.6,7.1-3.7,9.7-6c-3.5-3.5-8.9-8.2-11.1-10.2c-1.3-1-1.7-0.6-2.2-1.1
		c-0.5-0.5-1.9-4-1.5-4.4c0.1-0.1,0.2-0.1,0.5,0.2c0.1,0.1,0.2,0.2,0.3,0.4c1,1.3,2.3,2.9,4,4.5c2.7,2.7,6,5.7,9.4,8.8
		c0.7,0.7,1,0.6,2,1.6c0.8,0.8,1.8,1.8,1.4,2.3c-0.3,0.3-1,0.2-1.7,0.4c-2.4,1.2-6.3,3.1-10,4.4
		C397.4,981.5,398.1,982.1,398.8,982.8z M378.5,978c0.5-0.6,0.3-1.4-0.5-2.9c-0.3-0.4-0.4-0.9-0.3-1c0.1-0.1,0.6,0,1.5,0.9
		c1.3,1.3,2.5,3,2.8,3.6l7.9,7.7c0.8,0.7,0.9,0.3,1.6,1.1c0.3,0.3,1.5,1.6,1.1,2c-0.2,0.2-0.8,0.2-1.2,0.4c-2.9,1.8-5.6,3.4-6.8,4.1
		c0.8,1.2,0.9,2,0.7,2.2c-0.2,0.2-0.6,0-1.2-0.6l-9.9-9.6c-1.2,1-2.2,1.2-2.5,0.9c-0.3-0.3-0.1-1,0.9-2.2L378.5,978z M381.5,979.3
		c-0.2,0-0.6-0.2-0.8,0.1l-5.5,5.7l6.5,6.2c1.1,1,1.1,0.8,2.1,1.5l6.2-5.4L381.5,979.3z"/>
</g>
<g>
	<path d="M392.3,880.6c-0.8-0.5-1.1-0.4-1.5-0.8c-0.5-0.5-1.8-3.5-1.4-4c0.1-0.1,0.2,0,0.4,0.2c0.1,0.1,0.3,0.4,0.6,0.8
		c0.7,1,1.7,2,2.8,3.2c1.8,1.8,3.9,3.7,6,5.4c0.8,0.8,0.5,0.1,1.4,0.9c1.6,1.6,1.6,2,1.4,2.2c-0.2,0.2-0.8,0.1-1.5-0.1
		c-2.2,0.3-4.6,0.4-6.6,0.5c-0.5,4.4,1.7,3.6,0.5,7.7c-0.1,0.6-0.3,0.9-0.5,1.2c-0.3,0.3-0.7,0.3-1,0c-0.2-0.2-0.3-0.6-0.4-1
		c0-2.9,0.4-6.4,0.2-8.1c-7.3-0.5-14.1-3.6-14.6-4.2c-0.1-0.1-0.1-0.3-0.1-0.3c0.1-0.1,0.4-0.1,1.1,0.2c5.5,2,13.2,3.2,19.6,1.8
		C397.7,885.5,393.4,881.4,392.3,880.6z M390.1,898.9c0.5-0.5,0.4-1.7,0.1-2.8c-0.1-0.4-0.2-0.7-0.1-0.8c0.2-0.2,0.7,0.1,1.1,0.6
		c0.7,0.7,2.2,4.4,1.7,4.9c-0.3,0.3-1.2,0.4-3.2,0.8c0.1,2.5,0.4,4.7,0.7,5.9c0.5,2.1,1.6,1.5,0.9,7c-0.1,0.5-0.3,0.9-0.6,1.1
		c-0.3,0.3-0.7,0.4-1,0.1c-0.2-0.2-0.3-0.6-0.4-1.1c-0.1-2.5-0.5-9.3-0.8-12.8c-5.9,0.8-11.1,0-16.1-2.5c-0.3-0.2-0.6-0.3-0.7-0.5
		c-0.1-0.1-0.1-0.2-0.1-0.3c0.1-0.1,0.4-0.1,1,0.1c4.6,1.5,10.6,1.9,16.9,0.3C389.8,899.1,389.9,899,390.1,898.9z M398.1,879.6
		c-0.5-0.6-1.6-3.8-1.1-4.2c0.1-0.1,0.2-0.1,0.4,0.1c0.1,0.1,0.3,0.3,0.4,0.5c1.1,1.6,2.3,3.1,5,5.8c0.5,0.8,0.5,1.4,0.2,1.6
		c-0.2,0.2-0.7,0.2-1.1-0.1c-0.5-0.4-1.1-1-1.7-1.6C399.8,881.5,398.4,880,398.1,879.6z M410.6,889.5c0.3-0.3-0.2-2-0.8-3.8
		c-0.2-0.5-0.4-1.1-0.2-1.3c0.1-0.1,0.5,0,1.3,0.7c0.9,1.1,1.6,2.7,2.1,3.7c0.5,1,0.5,1.4,0.2,1.8c-0.2,0.2-0.6,0.3-1,0.6L402,901.4
		c-1,0.9-3.1,3-4.9,3.3c-0.3,0-0.5-0.1-0.6-0.2c-0.3-0.3,0.1-0.9,1-1.8l5.3-5.3l-2.6-2.3c-0.7-0.5-1-0.4-1.3-0.7
		c-0.3-0.3-1.4-2.7-1-3.1c0.1-0.1,0.3,0,0.5,0.2c0.1,0.1,0.3,0.3,0.4,0.5c0.5,0.6,1,1.2,1.6,1.7c1.2,1.2,2.3,2.1,3.2,3L410.6,889.5z
		"/>
	<path d="M427.2,914.2c0.4-0.8-0.4-2.3-1-3.3c-0.3-0.4-0.4-0.7-0.2-0.8c0.1-0.1,0.6-0.1,1.3,0.4c1.1,1.1,2.1,2.4,2.8,3.6
		c0.3,0.6,0.3,0.9,0,1.2c-0.2,0.2-0.6,0.4-1,0.7l-2.6,2.5l9.6,9.1l3.7-3.7c0.5-0.6,0.2-1.8-0.5-3.4c-0.2-0.4-0.2-0.7-0.1-0.8
		c0.1-0.1,0.6,0.1,1.2,0.7c0.8,1,1.7,2.3,2.3,3.6c0.3,0.5,0.2,0.8,0,1c-0.2,0.2-0.6,0.4-0.9,0.7l-8.2,8.1c-1.6,1.4-2.7,2.4-4.2,2.6
		c-0.4,0-0.7,0-0.8-0.2c-0.3-0.3-0.1-0.8,0.5-1.6l-4.7-4.4c0.7,1,0.7,1.4,0.5,1.7c-0.2,0.2-0.5,0.3-0.7,0.5l-4.8,4.6
		c1.2,1.2,2.6,2.5,5.9,5.5c2.1,1.6,2.3,1,3.5,2.1c1.2,1.2,3,3.6,2.1,4.5c-0.3,0.3-1,0.2-1.8-0.5l-0.3-0.3c-2.2-2.6-5-5.7-8-8.7
		c-3.3-3.3-7-6.7-10.2-9.5c-1.4-0.8-2-0.8-2.5-1.3c-0.7-0.7-2.5-5.1-2-5.6c0.1-0.1,0.3-0.1,0.7,0.3c0.1,0.1,0.2,0.2,0.3,0.4
		c1.8,2.5,3.8,4.8,6.8,7.7c1.2,1.2,2.5,2.4,3.9,3.8l4.3-4.3c0.4-0.5,0.3-1.2-0.2-2.6c-0.1-0.4-0.2-0.7-0.2-0.8l-2.5-2.3
		c-1.5,0.8-2.3,1-2.7,0.7c-0.4-0.4,0.1-1,1-1.9L427.2,914.2z M425.7,919.4l-5.5,5.4l9.7,9l5.4-5.4L425.7,919.4z"/>
	<path d="M452.1,940.4c0.4-0.4,0-1.4-0.9-3.4c-0.2-0.3-0.4-0.8-0.2-1c0.1-0.1,0.5,0,1.4,0.7c2.9,3.5,3.1,4.1,2.6,4.6
		c-0.2,0.2-0.5,0.3-0.7,0.6c-3.2,3.1-7.3,7.3-9.7,9.6c-0.6,0.7-0.8,1-0.1,1.7c0.6,0.6,6.3,5.4,12.5,8.1c0.5,0.2,0.9,0.4,1,0.6
		c0.1,0.1,0.1,0.2,0.1,0.2c-0.8,0.8-13.8-5.5-16.5-8.2c-0.9-0.9,0.1-2.8,1-3.7L452.1,940.4z M472.8,952.3c0.4-0.5-0.3-2.5-0.9-4.2
		c-0.1-0.4-0.5-1.2-0.3-1.4c0.2-0.2,1.2,0.5,1.2,0.5c0.7,0.7,2.3,3.5,2.6,4.3c0.6,1.1,0.5,1.5,0.2,1.8c-0.2,0.2-0.5,0.4-0.8,0.7
		l-16.9,16.6c-4.8,4.6-5.9,5.4-7.6,5.9c-0.4,0.1-0.7,0-0.8-0.1c-0.2-0.2,0-0.8,1-1.8l14.8-14.8l-4.2-3.7c-1.2-0.7-1.6-0.6-2-1
		c-0.5-0.5-1.9-3.9-1.6-4.2c0.1-0.1,0.2,0,0.5,0.2c0.1,0.1,0.3,0.3,0.4,0.5c0.7,0.8,1.5,1.7,2.4,2.6c1.9,1.9,4,3.8,5.4,4.9
		L472.8,952.3z"/>
	<path d="M482.3,999.5c1.3,1.1,1.7,0.4,3.2,1.9c0.7,0.7,2.9,3,2,3.9c-0.4,0.4-1,0.3-1.6-0.3l-0.1-0.1c-2.1-2.5-5.1-5.5-7.7-8.1
		c-3.6-3.6-7.4-7.1-11.3-10.5c-1.2-0.8-1.7-0.5-2.2-1c-0.5-0.5-2.5-5.1-1.9-5.6c0.1-0.1,0.2-0.1,0.5,0.2c0.2,0.2,0.3,0.4,0.5,0.7
		c0.8,1.4,2.7,3.5,5.2,6c3.4,3.4,7.9,7.6,12.4,11.9L482.3,999.5z M491.2,971.6c-0.1-0.4-0.1-0.8,0-0.9c0.1-0.1,0.5,0,1.3,0.8
		c0.9,1.5,1.5,2.8,2.1,5.2c0,0.4-0.1,0.6-0.3,0.8c-0.5,0.5-4.8,1.1-5.6,1.3c0.5,1.9,1.5,4.6,2.2,6.3c1.2,2.8,2,0.7,3.4,8
		c0.2,1.1,0,1.8-0.3,2.1c-0.3,0.3-0.7,0.3-1.1-0.1c-0.3-0.3-0.5-0.7-0.7-1.3c-1-3.1-3.5-10.1-4.6-14.9c-9.2,0.3-17-3.4-17.6-4
		c-0.1-0.1-0.2-0.2-0.1-0.3c0.1-0.1,0.5-0.1,1.2,0.2c5.9,2.3,15.2,2.5,20.2,0.8C491.8,974.8,491.6,973.4,491.2,971.6z"/>
	<path d="M519.7,1039c-2.1-2.3-5.1-5.6-8.6-9.1c-4.9-4.9-7.6-7.2-10.2-9.3c-0.9-0.8-1.6-0.8-2.2-1.4c-0.6-0.6-1.2-1.7-1.9-4.3
		c-0.2-0.6-0.2-1-0.1-1.1c0.1-0.1,0.2-0.1,0.5,0.2c0.1,0.1,0.3,0.4,0.5,0.7c1.2,1.8,3.1,3.8,5.4,6.2c1.6,1.6,3.5,3.3,5.4,5.2
		c0.5-0.6,1.5-1.6,6.2-6.4c-1.1-1.1-2.5-2.4-4-3.8c-1.8-1.8-1.9-3.3-0.7-4.6l7.7-7.9c0.5-0.6,0.1-1.9-0.7-3.4
		c-0.3-0.4-0.5-0.9-0.3-1.1c0.3-0.3,1.1,0.3,1.5,0.7c1.2,1.2,2.6,3.3,3.1,4.3c2.3,2.2,5.7,5.5,9.3,8.9c1.8,1.2,1.9,0.2,3.9,2.2
		c2,2,1.5,2.8,1.3,3c-0.3,0.3-1,0.2-1.5-0.3c-4.9-4.6-11.1-10.4-13.6-12.8c-0.4-0.1-0.4-0.4-0.9,0l-3.9,3.9c2.4,2.3,5.4,5.3,9.6,9.1
		c1.4,1,1-0.4,3.6,2.2c0.9,0.9,1,1.6,0.6,2c-0.3,0.3-1.1,0.3-1.7-0.3c-2-1.8-9.2-8.8-12.9-12.3l-3.6,3.6c-0.9,1-0.7,1.3,1.4,3.3
		c2.1,2.1,4.4,4.2,7.4,6.9c1.9,1.6,1.5,0,4.2,2.7c0.6,0.6,1.8,1.8,1,2.5c-0.4,0.4-1.2,0.3-1.9-0.4c-2.2-2-4.3-4-7.1-6.8
		c-3.9,3.9-5,5-6.4,6.3c1.3,1.3,3.6,3.5,6.3,5.8c1.2,1,1.5,0.4,2.8,1.7c0.7,0.7,3.2,3.5,2.1,4.5c-0.3,0.3-1,0.3-1.7-0.4L519.7,1039z
		"/>
	<path d="M542.9,1031.2c0.4-0.4,0-1.4-0.9-3.4c-0.2-0.3-0.4-0.8-0.2-1c0.1-0.1,0.5,0,1.4,0.7c2.9,3.5,3.1,4.1,2.6,4.6
		c-0.2,0.2-0.5,0.3-0.7,0.6c-3.2,3.1-7.3,7.3-9.7,9.6c-0.6,0.7-0.8,1-0.1,1.7c0.6,0.6,6.3,5.4,12.5,8.1c0.5,0.2,0.9,0.4,1,0.6
		c0.1,0.1,0.1,0.2,0.1,0.2c-0.8,0.8-13.8-5.5-16.5-8.2c-0.9-0.9,0.1-2.8,1-3.7L542.9,1031.2z M563.6,1043.2c0.4-0.5-0.3-2.5-0.9-4.2
		c-0.1-0.4-0.5-1.2-0.3-1.4c0.2-0.2,1.2,0.5,1.2,0.5c0.7,0.7,2.3,3.5,2.6,4.3c0.6,1.1,0.5,1.5,0.2,1.8c-0.2,0.2-0.5,0.4-0.8,0.7
		l-16.9,16.6c-4.8,4.6-5.9,5.4-7.6,5.9c-0.4,0.1-0.7,0-0.8-0.1c-0.2-0.2,0-0.8,1-1.8l14.8-14.8l-4.2-3.7c-1.2-0.7-1.6-0.6-2-1
		c-0.5-0.5-1.9-3.9-1.6-4.2c0.1-0.1,0.2,0,0.5,0.2c0.1,0.1,0.3,0.3,0.4,0.5c0.7,0.8,1.5,1.7,2.4,2.6c1.9,1.9,4,3.8,5.4,4.9
		L563.6,1043.2z"/>
	<path d="M571.7,1058.7c0.1-0.5-0.2-1.4-0.9-2.7c-0.2-0.4-0.4-0.8-0.2-0.9c0.1-0.1,0.5,0,1.3,0.5c1,1.2,2.3,2.7,2.8,3.7
		c2.2,2.2,4,4,6.6,6.3c0.8,0.7,0.5,0.1,2.1,1.7c1,1,1.1,1.4,0.9,1.6c-0.3,0.3-1.3,0.1-1.8,0.5l-2.7,1.9c0.2,0.3,1.6,1.8,2,2.2
		c1.3,1.3,2.9,2.7,4.2,3.8l5.6-5.6c0.6-0.6-0.1-2.7-0.7-4.2c-0.3-0.6-0.4-1-0.2-1.2c0.1-0.1,0.5,0,1.3,0.6c1.2,1.6,2.3,3.5,2.6,4.2
		c0.3,0.8,0.3,1.1,0.1,1.3c-0.1,0.1-0.4,0.3-0.8,0.6l-10.9,10.9c-3.8,3.7-5.5,5.2-7,5.5c-0.5,0.1-0.8,0.1-1-0.1
		c-0.3-0.3,0-1,1.4-2.5l8.7-8.7c-1.5-1.4-2.5-2.2-3.3-2.8c-0.7-0.4-1.1-0.3-1.6-0.8c-0.7-0.7-1.2-2.5-1.2-2.7l-4.4,3.1
		c0.6,1,0.8,1.8,0.6,2c-0.3,0.3-1.3-0.6-1.9-1.2c-1.8-1.8-6-5.7-7.4-7.1c-0.4,0.2-1.9,1.1-2.4,0.6c-0.3-0.3,0.4-1,1.9-2.8
		L571.7,1058.7z M574.5,1060.6c-0.4-0.1-0.5-0.5-1.1,0.1l-6.6,7.2c4.6,4.6,5.1,5.1,6.9,6.1c1.6-1.3,5-4.6,7.5-7L574.5,1060.6z
		 M564.2,1077.9c0.5-0.6,0.1-1.5-0.9-3.4c-0.3-0.4-0.3-0.7-0.2-0.8c0.1-0.1,0.5-0.1,1.3,0.5c1.3,1.3,2.4,2.6,2.9,3.3
		c0.4,0.6,0.3,0.8,0.1,1.1c-0.2,0.2-0.5,0.3-0.8,0.7c-1.2,1.2-2.8,2.8-3.8,3.8c-0.6,0.6-0.5,1.2,0.4,2.3l6,5.9
		c2.3,2,1.9,0.3,4.4,2.9c0.9,0.9,2,2.2,1.1,3.1c-0.3,0.3-0.9,0.4-1.4-0.1l-11-11c-1.8-1.9-2.5-3.4-1.1-4.9L564.2,1077.9z"/>
	<path d="M601.4,1118.4c1.1,1,1.6,0.3,3.1,1.9c0.7,0.7,3,3.2,2,4.2c-0.3,0.3-1,0.3-1.6-0.3l-0.1-0.1c-1.4-1.5-3-3.2-4.6-4.9
		c-0.9-0.9-5.3-5.2-6.2-6.2c-2.5-2.5-6.1-5.6-7.8-7.2c-1.2-0.9-1.8-0.6-2.4-1.2c-0.7-0.7-2.5-5.2-2-5.7c0.1-0.1,0.3,0,0.5,0.2
		c0.1,0.1,0.3,0.3,0.5,0.6c1,1.6,3.3,4.2,6.4,7.3c3.1,3.1,7,6.8,11,10.4L601.4,1118.4z M602.8,1088.1c0.5-0.6,0.1-1.9-0.7-3.4
		c-0.3-0.4-0.5-0.9-0.3-1.1c0.3-0.3,1.1,0.3,1.5,0.7c1.2,1.2,2.6,3.3,3.1,4.3c2.3,2.2,5.7,5.5,9.3,8.9c1.8,1.2,1.9,0.2,3.9,2.2
		c2,2,1.5,2.8,1.3,3c-0.3,0.3-1,0.2-1.5-0.3c-4.9-4.6-11.1-10.4-13.6-12.8c-0.4-0.1-0.4-0.4-0.9,0l-3.9,3.9c2.4,2.3,5.4,5.3,9.6,9.1
		c1.4,1,1-0.4,3.6,2.2c0.9,0.9,1,1.6,0.6,2c-0.3,0.3-1.1,0.3-1.7-0.3c-2-1.8-9.2-8.8-12.9-12.3l-3.6,3.6c-0.9,1-0.7,1.3,1.4,3.3
		c2.1,2.1,4.4,4.2,7.4,6.9c1.9,1.6,1.5,0,4.2,2.7c0.6,0.6,1.8,1.8,1,2.5c-0.4,0.4-1.2,0.3-1.9-0.4c-3.4-3.1-6.7-6.2-13-12.4
		c-1.8-1.8-1.9-3.3-0.7-4.6L602.8,1088.1z"/>
</g>
<g>
	<path d="M487.3,895.8c0.4-0.5,0.3-1.2-0.2-2.6c-0.2-0.4-0.2-0.7-0.1-0.8c0.1-0.1,0.5,0,1.1,0.5c2.2,2.7,2.4,3.3,2.1,3.6
		c-0.2,0.2-0.5,0.3-0.7,0.5l-4.8,4.6c1.2,1.2,2.6,2.5,5.9,5.5c2.1,1.6,2.3,1,3.5,2.1c1.2,1.2,3,3.6,2.1,4.5c-0.3,0.3-1,0.2-1.8-0.5
		l-0.3-0.3c-2.2-2.6-5-5.7-8-8.7c-3.3-3.3-7-6.7-10.2-9.5c-1.4-0.8-2-0.8-2.5-1.3c-0.7-0.7-2.5-5.1-2-5.6c0.1-0.1,0.3-0.1,0.7,0.3
		c0.1,0.1,0.2,0.2,0.3,0.4c1.8,2.5,3.8,4.8,6.8,7.7c1.2,1.2,2.5,2.4,3.9,3.8L487.3,895.8z M505.3,885.9c2.1,1.9,1.8,0,4.8,3
		c1.3,1.3,1.4,2.3,1,2.8c-0.8,0.8-1.9-0.3-2.6-1c-3.8-3.8-9.6-9.1-13.3-12.4c-0.9-0.6-1.3-0.4-1.7-0.8c-0.5-0.5-1.9-4.2-1.4-4.7
		c0.1-0.1,0.2-0.1,0.4,0.1c0.1,0.1,0.3,0.4,0.5,0.7c1.2,1.7,2.9,3.6,4.8,5.5C500.8,882,504,884.8,505.3,885.9z M500.7,890
		c0.7-0.5,1.1-0.8,0.6-2.7c-0.1-0.4-0.1-0.7,0-0.8c0.1-0.1,0.5,0,1.1,0.7c0.6,0.6,2.4,3.8,1.8,4.4c-0.3,0.3-0.8,0.3-1.6,0.6
		c-2.4,1-6.1,2.7-7.8,3.2c0.7,0.5,1.5,1.3,2.2,1.8c1.3,0.9,0.8-0.2,3,2c1.4,1.4,1.4,2.3,1,2.7c-0.4,0.4-1.2,0.2-2-0.6
		c-0.4-0.4-2.3-2.3-2.7-2.8c-3.5-3.5-7.2-6.9-11-10.1c-0.9-0.6-1.2-0.5-1.6-0.8c-0.4-0.4-1.7-3.9-1.2-4.4c0.1-0.1,0.2,0,0.4,0.2
		c0.1,0.1,0.3,0.4,0.5,0.7c0.9,1.4,2.3,2.9,4,4.6c1.9,1.9,4.1,3.9,6.4,5.8C494.8,893.9,498,891.9,500.7,890z M491.6,888.3
		c-1.1,0.8-2,0.9-2.3,0.6c-0.3-0.3-0.3-1,0.3-1.8c0.7-1.2,1.6-3,3.2-7.4c0.1-0.3,0.2-0.6,0.4-0.7c0.1-0.1,0.2-0.2,0.3-0.1
		c0.1,0.1,0.2,0.4,0.2,0.8c0.2,3.9,0.2,6-1.1,7.5L491.6,888.3z"/>
	<path d="M507.2,908.6c8.3,1.7,16.8-0.4,17.2-0.9c0.3-0.3,0.4-1.1,0.1-3.2c-0.1-0.7-0.1-1,0.1-1.2c0.1-0.1,0.4,0,0.7,0.3
		c0.2,0.2,0.3,0.4,0.5,0.6c0.1,0.1,1.9,4.6,1.1,5.4c-0.5,0.5-1.9,0.5-4.4,1c-0.1,2.1,0,3.3,0.3,4.5c0.3,2.3,1.2,1.2,0.2,5.9
		c-0.1,0.4-0.3,0.8-0.5,1c-0.4,0.4-0.9,0.4-1.3,0c-0.3-0.3-0.4-0.7-0.4-1.4c0.1-2.3,0.4-7,0.7-10c-5.1,0.3-9.6,0.1-14.3-1.6
		c-0.6-0.2-0.9-0.4-1.1-0.5c-0.1-0.1-0.1-0.1,0-0.2C506.2,908.4,506.6,908.4,507.2,908.6z M518.9,925.3c0.2-0.2,0.4-0.6,0.4-1.1
		c-0.1-0.3,0-0.5,0.1-0.6c0.1-0.1,0.3-0.1,0.5,0.1c0.5,0.5,1.3,2.4,0.9,2.8c-0.3,0.3-0.8,0.2-1.2,0.4c2.6,3.7,2,7.2,0.1,9.1
		c-2.2,2.2-6.5,2.7-10.2-1c-3.5-3.5-3.2-7.7-0.8-10c2-2,5.6-2.5,9.3,0.3C518.3,925.6,518.7,925.5,518.9,925.3z M510.4,926.5
		c-1.7,1.7-2.1,4.8,0.5,7.4c2.6,2.6,5.7,2.2,7.4,0.5c1.8-1.8,2.1-4.8-0.5-7.4C515.2,924.3,512.1,924.7,510.4,926.5z M537,915.6
		c0.2-0.3,0-1.6-0.9-4c-0.3-0.6-0.3-1-0.2-1.1c0.2-0.2,0.6,0.1,1.3,0.7c1.2,1.5,1.9,2.8,2.5,4c0.4,0.8,0.3,1.2,0.1,1.4
		c-0.2,0.2-0.6,0.3-0.9,0.7l-7.9,7.8c0.4,0.4,0.7,0.7,1.2,1c1.6,1,1.6,0,3.5,2c0.7,0.7,1.8,1.8,1,2.5c-0.3,0.3-1,0.4-1.5-0.1
		l-4.9-4.7c-2.4,2.3-3.8,3.4-4.9,3.9c-0.8,0.3-1.6,0.4-1.8,0.1c-0.2-0.2-0.1-0.8,0.8-1.7L537,915.6z"/>
	<path d="M550.9,933.3c-4.8,0.7-10,2.9-15.1,8c-5,5-7.1,10.2-7.9,15l-2-2c0.6-4.1,2.3-9.7,7.8-15.2c5.6-5.5,11.1-7.3,15.3-7.9
		L550.9,933.3z"/>
	<path d="M545,953c-1.4,0.8-2.5,1.1-2.8,0.8c-0.3-0.3-0.1-0.8,0.7-1.7c0.6-0.6,7.5-7.8,10-10.3l0.2-0.2c0.2-0.4-0.3-1.6-0.8-2.9
		c-0.4-0.7-0.5-1-0.3-1.2c0.2-0.2,0.8,0.1,1.7,0.9c2.5,2.9,2.5,3.7,2.1,4.1c-0.1,0.1-0.4,0.3-0.5,0.4l-2.6,2.6l7.2,7l3-3
		c0.3-0.4,0.3-1.2-0.5-2.9c-0.4-0.7-0.5-1.1-0.3-1.3c0.1-0.1,0.6,0.1,1.2,0.7c2.6,3.3,2.7,4.1,2.3,4.5c-0.2,0.2-0.5,0.3-0.7,0.5
		c-4.5,4.3-10.2,10.2-11.8,10.8c-0.8,0.3-1.5,0.5-1.8,0.2c-0.3-0.3-0.1-0.8,1-1.9L545,953z M551.8,946.3l-6,6l7.2,7l6-6L551.8,946.3
		z M573.4,951.8c0.5-0.5-0.4-2.7-1-4.4c-0.2-0.4-0.3-0.8-0.1-0.9c0.2-0.2,0.7,0,1.5,0.8c1,1.4,1.9,2.8,2.5,4c0.4,0.8,0.3,1.2,0,1.4
		c-0.2,0.2-0.6,0.4-1,0.8L565,963.9l1.4,1.4c1.5,1.1,1.6,0.1,3.4,2c0.5,0.5,1.7,1.7,0.8,2.6c-0.4,0.4-1.1,0.4-1.7-0.2l-4.9-4.9
		l-8.2,8.2c-1.9,1.8-3.2,2.8-4.9,3.5c-0.6,0.1-1,0.1-1.2-0.1c-0.3-0.3-0.1-0.8,0.9-1.7L573.4,951.8z"/>
	<path d="M583.7,984.7c-2-2-4.8-4.5-6.6-6.1c-1.2-1-1.9-0.9-2.5-1.6c-0.9-0.9-2.5-4.9-2.1-5.2c0.1-0.1,0.3,0,0.5,0.2
		c0.1,0.1,0.3,0.3,0.5,0.6c0.5,0.7,2,2.3,4.1,4.4c4,4,10.2,9.8,16.1,15.3c1.3,1.2,1.3,0.4,3,2.1c0.8,0.8,2.3,2.3,1.4,3.1
		c-0.4,0.4-1.1,0.3-1.7-0.3l0,0c-1.6-1.8-4.6-4.9-7.2-7.5c-1.4-1.4-2.7-2.7-3.5-3.3c-3.9,3.9-5.4,5.4-7,6.1c-1,0.5-1.8,0.6-2.1,0.3
		s-0.1-0.9,0.8-1.8L583.7,984.7z M571.8,985.4c0.5-0.6,0.1-1.5-0.9-3.4c-0.2-0.4-0.3-0.7-0.2-0.8c0.1-0.1,0.5,0,1.3,0.5
		c1.3,1.3,2.4,2.6,2.9,3.3c0.4,0.6,0.3,0.9,0.1,1.2c-0.2,0.2-0.5,0.3-0.8,0.6c-1.2,1.2-2.7,2.7-3.7,3.7c-0.7,0.7-0.5,1.3,0.3,2.3
		l6.1,6c2.2,1.9,2,0.3,4.3,2.7c0.7,0.7,2.2,2.2,1.2,3.2c-0.3,0.3-0.9,0.3-1.4-0.2L570,993.3c-1.9-1.9-2.4-3.4-1.2-4.9L571.8,985.4z
		 M595.4,972.3c0.1,0.1,0.7,0.4,1.1,0c0.1-0.1,0.3-0.4,0.3-0.7c0-0.4,0.1-0.6,0.2-0.7c0.1-0.1,0.3-0.1,0.4,0.1
		c0.3,0.3,1.5,2.1,0.9,2.6c-0.1,0.1-0.9,0.4-1,0.5c2.7,4,2.2,7.6,0.2,9.7c-2.4,2.4-6.8,2.6-10.3-0.9c-3.8-3.8-3.5-8.2-1.1-10.7
		C588.1,970.3,591.5,969.7,595.4,972.3z M587.6,974c-1.8,1.8-2.2,5,0.7,7.9c2.7,2.7,5.8,2.2,7.6,0.4c1.8-1.8,2.3-4.9-0.4-7.6
		C592.6,971.8,589.3,972.2,587.6,974z"/>
	<path d="M630.9,1010c0.5-0.6,0.3-2.1-0.6-4.4c-0.3-0.5-0.3-0.9-0.2-1.1c0.2-0.2,0.6,0,1.3,0.6c1.5,2.1,2.1,3.5,2.5,4.4
		c0.3,0.6,0.1,0.9-0.1,1.1c-0.2,0.2-0.5,0.4-0.8,0.7l-16.7,16.6c-5.2,5.2-6.1,5.7-7.7,6.3c-0.5,0.1-0.9,0.1-1.1-0.1
		c-0.2-0.2-0.1-0.7,0.8-1.6l9.8-9.8c-9.9-3.6-18.1-9.7-18.8-10.4c-1.3-1.3-0.3-3.1,0.4-3.8l10.9-10.9c0.8-0.8,0.3-1.9-0.5-3.6
		c-0.3-0.5-0.5-0.8-0.3-1c0.1-0.1,0.5,0,1.2,0.5c1.5,1.5,2.4,2.9,3,4.1c0.3,0.3,0.6,0.7,0.9,0.9c1.2,1.2,2.4,2.3,4.1,3.6
		c1.9,1.6,1.9,0.2,4.1,2.4c1.2,1.2,1,2,0.7,2.3c-0.4,0.4-1.1,0.3-1.7-0.3c-1.2-1.2-5.3-5.1-8.2-7.7c-0.5-0.1-0.5-0.4-1,0.1l-5.3,5.3
		c0.7,0.7,2.8,2.7,4.1,3.8c1.8,1.6,1.8,0.3,4.1,2.7l0.1,0.1c1.1,1.1,1.2,1.9,0.8,2.2c-0.3,0.3-0.9,0.3-1.4-0.2
		c-2-1.8-6.6-6.1-8.5-7.9l-5.3,5.3c-0.5,0.5-0.6,0.7,0.1,1.4c4.8,4,11.2,8.5,16.9,10.4L630.9,1010z"/>
	<path d="M613.9,1042.3c4.8-0.8,10-2.9,15.1-8c5.1-5.1,7.2-10.2,7.9-15l1.9,1.9c-0.5,4.1-2.2,9.6-7.8,15.2c-5.5,5.5-11,7.2-15.2,7.8
		L613.9,1042.3z"/>
	<path d="M654.5,1071.1c1.3,1.1,1.7,0.4,3.2,1.9c0.7,0.7,2.9,3,2,3.9c-0.4,0.4-1,0.3-1.6-0.3l-0.1-0.1c-2.1-2.5-5.1-5.5-7.7-8.1
		c-3.6-3.6-7.4-7.1-11.3-10.5c-1.2-0.8-1.7-0.5-2.2-1c-0.5-0.5-2.5-5.1-1.9-5.6c0.1-0.1,0.2-0.1,0.5,0.2c0.2,0.2,0.3,0.4,0.5,0.7
		c0.8,1.4,2.7,3.5,5.2,6c3.4,3.4,7.9,7.6,12.4,11.9L654.5,1071.1z M668.8,1049.4c2.1,1.9,1.8,0,4.8,3c1.3,1.3,1.4,2.3,1,2.8
		c-0.8,0.8-1.9-0.3-2.6-1c-3.8-3.8-9.6-9.1-13.3-12.4c-0.9-0.6-1.3-0.4-1.7-0.8c-0.5-0.5-1.9-4.2-1.4-4.7c0.1-0.1,0.2-0.1,0.4,0.1
		c0.1,0.1,0.3,0.4,0.5,0.7c1.2,1.7,2.9,3.6,4.8,5.5C664.2,1045.5,667.5,1048.3,668.8,1049.4z M664.2,1053.5c0.7-0.5,1.1-0.8,0.6-2.7
		c-0.1-0.4-0.1-0.7,0-0.8c0.1-0.1,0.5,0,1.1,0.7c0.6,0.6,2.4,3.8,1.8,4.4c-0.3,0.3-0.8,0.3-1.6,0.6c-2.4,1-6.1,2.7-7.8,3.2
		c0.7,0.5,1.5,1.3,2.2,1.8c1.3,0.9,0.8-0.2,3,2c1.4,1.4,1.4,2.3,1,2.7c-0.4,0.4-1.2,0.2-2-0.6c-0.4-0.4-2.3-2.3-2.7-2.8
		c-3.5-3.5-7.2-6.9-11-10.1c-0.9-0.6-1.2-0.5-1.6-0.8c-0.4-0.4-1.7-3.9-1.2-4.4c0.1-0.1,0.2,0,0.4,0.2c0.1,0.1,0.3,0.4,0.5,0.7
		c0.9,1.4,2.3,2.9,4,4.6c1.9,1.9,4.1,3.9,6.4,5.8C658.3,1057.4,661.5,1055.4,664.2,1053.5z M655.1,1051.8c-1.1,0.8-2,0.9-2.3,0.6
		c-0.3-0.3-0.3-1,0.3-1.8c0.7-1.2,1.6-3,3.2-7.4c0.1-0.3,0.2-0.6,0.4-0.7c0.1-0.1,0.2-0.2,0.3-0.1c0.1,0.1,0.2,0.4,0.2,0.8
		c0.2,3.9,0.2,6-1.1,7.5L655.1,1051.8z"/>
	<path d="M686,1104.6c-2.1-2.3-5.1-5.6-8.6-9.1c-4.9-4.9-7.6-7.2-10.2-9.3c-0.9-0.8-1.6-0.8-2.2-1.4c-0.6-0.6-1.2-1.7-1.9-4.3
		c-0.2-0.6-0.2-1-0.1-1.1c0.1-0.1,0.2-0.1,0.5,0.2c0.1,0.1,0.3,0.4,0.5,0.7c1.2,1.8,3.1,3.8,5.4,6.2c1.6,1.6,3.5,3.3,5.4,5.2
		c0.5-0.6,1.5-1.6,6.4-6.5c-1.6-1.4-2.8-2.7-3.8-3.6c-1.2-1.2-1.7-2.6-0.5-4l2.9-3c0.4-0.7-0.3-1.8-1-3.1c-0.2-0.3-0.3-0.6-0.2-0.7
		c0.1-0.1,0.7-0.1,1.9,1.1c1.1,1.1,2,2.2,2.6,3.4c1.6,1.5,5.8,5.3,8.2,7.3c0.9,0.8,1.1,0.8,2.3,1.6c0.9-0.6,2.9-2.3,4.6-3.9
		c-2.6-2.3-6.8-6-10.4-9.1c-1.1-0.8-1.5-0.5-1.9-1c-0.5-0.5-2-4.1-1.6-4.5c0.1-0.1,0.2-0.1,0.5,0.2c0.1,0.1,0.2,0.2,0.3,0.4
		c1.1,1.4,2.4,2.8,3.9,4.3c2.5,2.5,5.5,5.2,8.6,7.7c0.8,0.7,1.1,0.5,2.1,1.6c1.3,1.3,1.8,2.1,1.5,2.4c-0.3,0.3-1.3,0.2-1.9,0.4
		c-1.3,0.8-3.6,1.9-4.7,2.5c0.7,0.8,0.8,1.5,0.6,1.8c-0.2,0.2-0.6,0.1-1.1-0.3c-4-3.8-8-7.3-11.2-10.2c-0.5-0.2-0.5-0.7-0.9-0.3
		l-0.1,0.1c-0.6,0.5-2.1,2-3.6,3.6c-0.5,0.5-0.4,0.8,0.2,1.4c2,2,4.8,4.6,7.8,7.2c1.7,1.4,1.8,0.1,3.8,2.1c0.7,0.7,1.8,1.9,1.2,2.5
		c-0.3,0.3-1,0.3-1.6-0.3c-2.7-2.3-4.7-4.1-6.6-5.9c-4,4-5.1,5.1-6.5,6.4c1.3,1.3,3.6,3.5,6.3,5.8c1.2,1,1.5,0.4,2.8,1.7
		c0.7,0.7,3.2,3.5,2.1,4.5c-0.3,0.3-1,0.3-1.7-0.4L686,1104.6z"/>
	<path d="M714.4,1133.2c-2.1-2.4-5-5.5-8-8.5c-3.9-3.9-8-7.7-10.7-10c-1.4-1-2-1-2.6-1.5c-0.7-0.7-2.5-4.7-2-5.2
		c0.1-0.1,0.4,0,0.6,0.3c0.1,0.1,0.3,0.3,0.4,0.4c1.4,1.6,3.3,3.8,5.7,6.1c2.9,2.9,6.4,6.1,10,9.6c3.5-1.6,12-7,18.1-12.3
		c-3.8-3.9-9.1-8.7-11.3-10.5c-1.2-0.8-1.9-0.8-2.4-1.4c-0.8-0.8-2.1-4.7-1.6-5.1c0.1-0.1,0.3,0,0.6,0.3c0.1,0.1,0.3,0.3,0.4,0.5
		c1.2,1.8,3.1,3.9,5.3,6.2c2.5,2.5,5.5,5.3,8.7,8.2c1.3,1,0.9,0.3,2.3,1.7c1.1,1.1,1.8,1.8,1.4,2.1c-0.3,0.3-1.3,0.3-2.2,0.7
		c-2.9,2.3-13,8.1-18.4,10.5c1,1,2.1,2.1,3.2,3.1c1.1,1,1.4,0.5,2.7,1.8c0.7,0.7,2.5,2.7,1.5,3.6c-0.3,0.3-0.9,0.3-1.6-0.4
		L714.4,1133.2z"/>
	<path d="M752.8,1133.9c0.6-0.7,0.2-2-0.3-3.4c-0.1-0.4-0.3-0.9-0.2-1.1c0.1-0.1,0.5,0,1.3,0.7c2.4,3.3,2.5,4,2.1,4.4
		c-0.2,0.2-0.5,0.3-0.7,0.5l-6.5,6.5l3.6,3.4l6.9-6.9c0.6-0.6,0.1-2.3-0.5-4.1c-0.2-0.4-0.3-0.8-0.2-0.9c0.1-0.1,0.5,0,1.2,0.6
		c2.6,3.8,2.7,4.7,2.2,5.2c-0.2,0.2-0.6,0.4-0.9,0.7l-9.7,9.4c-1.8,1.6-3.2,2.1-3.6,1.7c-0.3-0.3-0.1-1,0.9-2l2.7-2.8l-3.6-3.5
		l-2.3,2c-1.6,1.3-2.9,1.6-3.3,1.2c-0.3-0.3-0.1-1,0.8-1.9l1.9-1.9c-4.9-1.3-12.3-4.7-13.7-6.1c-0.8-0.8,0-2.5,0.9-3.5l2.9-3
		c0.5-0.6,0.3-1.2-0.5-2.7c-0.1-0.3-0.2-0.5-0.1-0.6c0.1-0.1,0.5,0,1.1,0.5c1.4,1.4,2.3,2.7,2.8,3.5c0.6,0.6,1.3,1.2,2.7,2.4
		c0.7,0.6,0.8,0.5,1.7,0.8c1.3-1.1,2.8-2.5,3.6-3.3c-1.6-1.6-3.3-2.9-4.3-3.9c-0.8-0.6-1.2-0.4-1.6-0.8c-0.5-0.5-1.6-3.2-1.2-3.5
		c0.1-0.1,0.3,0,0.5,0.3c0.1,0.1,0.2,0.3,0.4,0.4c0.6,0.7,1.2,1.3,2,2c1.3,1.3,2.6,2.6,3.8,3.6c0.9,0.8,0.3-0.3,2.5,1.8
		c1,1,1.1,1.4,0.9,1.6c-0.2,0.2-0.8,0.2-1.3,0.3c-1.5,0.8-2.6,1.6-4.1,2.5c0.6,0.8,0.7,1.4,0.5,1.6c-0.2,0.2-0.9,0-1.8-0.8
		c-0.9-0.8-3.6-3.2-4.8-4.3c-0.4-0.1-0.3-0.4-0.7-0.1c-0.9,0.9-2.2,2.1-3.4,3.3c-0.2,0.3-0.3,0.6,0.3,1.2c0.3,0.3,5.4,4.1,11.5,6
		L752.8,1133.9z M726.4,1150.9c0.8-1,4.4-4.9,6.3-7.2c0.4-0.5,0.5-0.7-0.5-2.7c-0.2-0.4-0.4-0.8-0.3-1c0.1-0.1,0.5,0,1.3,0.5
		c1.1,1.2,2.2,2.7,2.8,3.6c1.3,1.3,6.3,6,7.8,7.3c0.7,0.7,0.6,0,1.6,1c0.1,0.1,1.8,1.8,1.4,2.2c-0.2,0.2-1,0.2-1.5,0.5
		c-2.2,1.6-5.4,3.6-6.6,4.4c0.7,1,0.8,1.6,0.5,1.9c-0.2,0.2-0.7,0.1-1.2-0.4c-2-1.8-7.8-7.4-9.6-9.2c-1.3,0.9-2.3,1.1-2.7,0.8
		C725.6,1152.2,725.7,1151.7,726.4,1150.9z M735.7,1157.2c0.9,0.7,1.2,0.8,2.1,1.4c1.4-1.2,4.7-4.3,6.1-5.7
		c-1.7-1.4-6.2-5.8-8.4-7.8c-0.3,0.1-0.5-0.2-0.7,0.1l-5.5,5.8L735.7,1157.2z"/>
</g>
<g>
	<path d="M590.9,913.7c-2.1-2.3-5.1-5.6-8.6-9.1c-4.9-4.9-7.6-7.2-10.2-9.3c-0.9-0.8-1.6-0.8-2.2-1.4c-0.6-0.6-1.2-1.7-1.9-4.3
		c-0.2-0.6-0.2-1-0.1-1.1c0.1-0.1,0.2-0.1,0.5,0.2c0.1,0.1,0.3,0.4,0.5,0.7c1.2,1.8,3.1,3.8,5.4,6.2c1.6,1.6,3.5,3.3,5.4,5.2
		c0.5-0.6,1.5-1.6,6.2-6.4c-1.1-1.1-2.5-2.4-4-3.8c-1.8-1.8-1.9-3.3-0.7-4.6l7.7-7.9c0.5-0.6,0.1-1.9-0.7-3.4
		c-0.3-0.4-0.5-0.9-0.3-1.1c0.3-0.3,1.1,0.3,1.5,0.7c1.2,1.2,2.6,3.3,3.1,4.3c2.3,2.2,5.7,5.5,9.3,8.9c1.8,1.2,1.9,0.2,3.9,2.2
		c2,2,1.5,2.8,1.3,3c-0.3,0.3-1,0.2-1.5-0.3c-4.9-4.6-11.1-10.4-13.6-12.8c-0.4-0.1-0.4-0.4-0.9,0l-3.9,3.9c2.4,2.3,5.4,5.3,9.6,9.1
		c1.4,1,1-0.4,3.6,2.2c0.9,0.9,1,1.6,0.6,2c-0.3,0.3-1.1,0.3-1.7-0.3c-2-1.8-9.2-8.8-12.9-12.3l-3.6,3.6c-0.9,1-0.7,1.3,1.4,3.3
		c2.1,2.1,4.4,4.2,7.4,6.9c1.9,1.6,1.5,0,4.2,2.7c0.6,0.6,1.8,1.8,1,2.5c-0.4,0.4-1.2,0.3-1.9-0.4c-2.2-2-4.3-4-7.1-6.8
		c-3.9,3.9-5,5-6.4,6.3c1.3,1.3,3.6,3.5,6.3,5.8c1.2,1,1.5,0.4,2.8,1.7c0.7,0.7,3.2,3.5,2.1,4.5c-0.3,0.3-1,0.3-1.7-0.4L590.9,913.7
		z"/>
	<path d="M625.2,928.3c1.4,1,1.5,0.3,3.1,1.9c1,1,2.7,2.7,1.8,3.6c-0.3,0.3-1,0.3-1.6-0.2c-0.6-0.6-3.1-3.3-3.7-3.8
		c-5.8-5.8-12.3-11.6-15.2-14.1c-1.4-1-2-0.8-2.6-1.4c-0.7-0.7-2.5-5.1-2.1-5.5c0.1-0.1,0.3-0.1,0.5,0.1c0.1,0.1,0.3,0.4,0.5,0.6
		c0.9,1.3,2.6,3.1,4.8,5.3c3.2,3.2,7.4,7.1,11.8,11c1.4-0.8,4-2.4,6.6-4.4c-4.2-3-8.3-5.8-12.2-8.7c-1-0.6-1.4-0.2-1.9-0.7
		c-0.7-0.7-2.8-5.4-2.3-5.9c0.1-0.1,0.3,0,0.5,0.2c0.1,0.1,0.3,0.3,0.5,0.6c0.7,0.8,1.4,1.6,2.3,2.5c4.6,4.6,11.7,10.2,13.8,11.5
		c0.8-0.6,2.7-2.2,3.8-3.1c-2.8-2.6-7.6-7.2-11-10.2c-0.9-0.6-1.3-0.4-1.7-0.8c-0.5-0.5-2.1-4.5-1.7-4.9c0.1-0.1,0.3,0,0.5,0.2
		c0.1,0.1,0.3,0.3,0.5,0.6c1.2,1.7,3.2,4,5.4,6.1c3.4,3.4,7,6.6,8,7.4c1,0.8,0.7,0.2,1.9,1.4c1.7,1.7,1.8,2.1,1.6,2.4
		c-0.2,0.2-1,0.1-1.6,0.3c-4.3,2.5-8.3,4.8-12.1,6.4l0.5,0.5L625.2,928.3z M604.1,921.1c0.5-0.6,0.1-1.5-0.9-3.3
		c-0.3-0.4-0.3-0.7-0.2-0.8c0.1-0.1,0.5,0,1.3,0.5c1.3,1.3,2.3,2.6,2.8,3.2c0.4,0.6,0.3,0.9,0.1,1.2c-0.2,0.2-0.5,0.3-0.8,0.6
		c-1.3,1.3-2.9,2.9-3.9,3.9c-0.5,0.7-0.5,1.2,0.5,2.3l6.1,6c2.2,1.9,1.9,0.3,4.4,2.8c0.7,0.7,2.2,2.2,1.2,3.1
		c-0.3,0.3-0.9,0.3-1.4-0.2l-11.1-11.1c-1.9-1.9-2.5-3.4-1.1-4.9L604.1,921.1z"/>
	<path d="M668.9,952c0.6-0.6,0.1-2.3-0.6-4.2c-0.3-0.4-0.6-1.1-0.4-1.2c0.2-0.2,1.1,0.4,1.2,0.6c0.5,0.5,3.8,4.9,2.9,5.8
		c-0.2,0.2-0.7,0.3-1,0.7l-8.7,8.6c-2.9,2.8-4.3,3.8-5.7,4c-0.4,0.1-0.7,0-0.8-0.1c-0.3-0.3,0.2-1.2,1.2-2.3l2.3-2.3
		c-1.3-1.2-3.2-2.8-4.3-3.6c-0.6-0.4-0.9-0.3-1.2-0.6c-0.5-0.5-1.6-3.4-1.4-3.6c0.1-0.1,0.3,0,0.6,0.3c0.3,0.3,1.4,1.6,1.7,1.8
		c1.4,1.4,3,2.8,5.4,4.8l4.6-4.6c-1.6-1.6-2.9-2.7-3.7-3.4c-0.7-0.6-1.1-0.3-1.4-0.7c-0.3-0.3-0.5-0.8-1-2.3c0-0.1-0.1-0.3-0.1-0.4
		c-6.6,1.5-12.9,1.6-21.8-1.1c-0.9-0.3-1.4-0.6-1.5-0.7c-0.1-0.1-0.1-0.1-0.1-0.1c0.1-0.1,0.8-0.1,1.9,0.2
		c8.9,1.8,16.8,1.2,22.3-1.1l-5.2-4.8c-1.2-0.8-1.7-0.8-2.2-1.3c-0.8-0.8-2-4.1-1.6-4.6c0.1-0.1,0.3,0,0.4,0.1
		c0.1,0.1,0.3,0.4,0.5,0.6c0.5,0.9,1.9,2.4,3.4,3.9c1.8,1.8,3.7,3.6,5.2,4.8c0.6,0.5,0.6,0.3,1.2,0.8c0.6,0.6,1.7,1.9,1.3,2.3
		c-0.2,0.2-0.8,0.1-1.4,0.4c-0.5,0.1-1,0.3-1.5,0.4c0.1,0.3,1.6,1.8,1.8,2c1.4,1.4,2.5,2.4,4.4,4.1L668.9,952z M650.9,961.2
		c0.3,0.2,0.7,0.2,0.9,0c0.2-0.2,0.3-0.5,0.3-0.8c0-0.4,0-0.6,0.1-0.7c0.1-0.1,0.2-0.1,0.4,0.1c0.5,0.5,1.3,2.2,0.9,2.6
		c-0.2,0.2-0.6,0.3-1.1,0.6c2.6,3.6,2.1,7.1,0.1,9.1c-2.4,2.4-6.8,2.7-10.4-0.8c-3.7-3.7-3.3-8.1-0.9-10.5c2.1-2.1,5.7-2.6,9.3,0.3
		L650.9,961.2z M642.9,962.3c-1.9,1.9-2.3,5.1,0.5,7.9c2.5,2.5,5.7,2,7.5,0.1c1.8-1.8,2.4-4.9-0.1-7.5
		C647.9,960,644.7,960.4,642.9,962.3z"/>
	<path d="M691.7,979c0.7-0.7,0.1-2.3-0.4-4c-0.2-0.5-0.3-1-0.2-1.2c0.1-0.1,0.5,0,1.2,0.6c0.9,1.1,1.7,2.6,2.3,3.6
		c0.4,0.8,0.3,1.3,0,1.6c-0.2,0.2-0.5,0.4-0.8,0.6l-15.3,15.2c-3.8,3.6-5.5,3.9-5.8,3.6c-0.3-0.3,0.2-1.2,1.6-2.5l10.5-10.5
		l-2.7-2.5c-1-0.7-1.4-0.5-1.7-0.9c-0.3-0.3-1.1-2.1-1.1-3.1c-0.7,0.2-1.5,0.3-2.4,0.5c-1,4.9,0.4,4.9-0.2,6.7
		c-0.5,1.6-1,2.5-1.5,2.9c-0.5,0.5-0.9,0.5-1.1,0.2c-0.1-0.1-0.2-0.4-0.2-0.6c0.1-2.5,1.6-6.7,2-9.1c-4.5,0.4-8.7,0-13.6-1
		c-0.5-0.1-0.8-0.2-0.9-0.3c-0.1-0.1-0.1-0.1,0-0.2c0.1-0.1,0.5-0.1,1.1-0.1c2.3,0.4,13.7,1.2,20.9-2.8c-0.8-0.8-3-2.6-4.5-3.8
		c-0.8-0.6-1.1-0.4-1.5-0.8c-0.5-0.5-1.8-3.4-1.4-3.8c0.1-0.1,0.3,0,0.5,0.2c0.1,0.1,0.3,0.3,0.5,0.6c0.6,0.8,1.5,1.7,2.4,2.7
		c1.4,1.4,3.1,2.9,4.1,3.8c0.9,0.5,0.7,0.2,1.8,1.2c0.7,0.7,1.5,1.5,1.2,1.8c-0.2,0.2-0.6,0.2-0.9,0.3c-2.1,0.8-3.8,1.4-5.7,1.8
		c0.3,0.3,1.4,1.5,1.7,1.8c1.5,1.5,2.9,2.8,4.3,4L691.7,979z M698.3,981.5c0.5-0.5,0.1-2.3-0.4-4c-0.3-0.6-0.3-1-0.2-1.1
		c0.2-0.2,0.5,0,1.2,0.7c1.1,1.6,1.8,3.1,2.3,4c0.3,0.7,0.2,1-0.1,1.2c-0.2,0.2-0.5,0.3-0.8,0.6l-20,20c-2.7,2.5-4.6,3.4-5.3,3
		c-0.3-0.3-0.2-0.8,1.2-2.3L698.3,981.5z"/>
	<path d="M715.3,1003.3c2,1.3,1.7,0.1,4,2.3c1,1,1,1.9,0.7,2.3c-0.3,0.3-1.1,0.3-1.8-0.5c-2.4-2.4-4.8-4.5-6.3-5.8
		c-0.1,0.7-0.2,1.1-0.4,1.3c-0.3,0.3-0.7,0.2-1,0.4c2.7,3.6,2.3,6.9,0.5,8.8c-2.1,2.1-6,2.3-9.4-1.1c-3.5-3.5-3.3-7.5-1.2-9.6
		c1.9-1.9,5.2-2.2,8.8,0.6c0.5,0.1,0.8,0.1,1.1-0.2c0.3-0.3,0.4-0.7,0.4-1.2c-1-0.9-2.2-2-3.8-3.3c-0.7-0.5-1-0.4-1.4-0.8
		c-0.5-0.5-1.5-3.8-1.2-4.1c0.1-0.1,0.3,0,0.5,0.2c0.1,0.1,0.3,0.3,0.5,0.6c1.1,1.5,2.3,2.8,3.9,4.4
		C710.7,999.3,711.5,1000,715.3,1003.3z M708.6,1023.1c-2-1.8-7.8-7.2-10.7-9.6c-1-0.8-1.4-0.6-1.9-1.1c-0.7-0.7-1.9-4.1-1.6-4.4
		c0.1-0.1,0.3,0,0.6,0.3c0.1,0.1,0.3,0.3,0.5,0.5c1.1,1.4,2.6,3,4.4,4.8c2.5,2.5,5.5,5.3,8.3,7.6c0.5,0.5,0.5-0.1,1.6,1
		c1.3,1.3,1.7,2,1.4,2.3c-0.3,0.3-0.9,0.2-1.3,0.5c-2.9,2.9-8.1,8-9.3,6.7c-0.3-0.3-0.1-0.8,0.7-1.6L708.6,1023.1z M712.8,997
		c-0.6-0.6-1.1-3.6-0.8-3.9c0.1-0.1,0.2-0.1,0.4,0.1c0.2,0.2,0.3,0.4,0.6,0.8c1.2,1.6,1.7,2.1,4.9,5.3c0.7,0.8,0.8,1.5,0.5,1.8
		c-0.3,0.3-1.1,0.2-2.3-0.8L712.8,997z M702.1,1002.9c-1.5,1.5-1.8,4.3,0.6,6.7c2.4,2.4,5.2,2.1,6.7,0.6c1.6-1.6,1.9-4.4-0.6-6.8
		C706.5,1001.1,703.7,1001.4,702.1,1002.9z M724.7,1007.1c0.3-0.3,0.1-1.6-0.9-4c-0.3-0.6-0.3-1-0.2-1.1c0.2-0.2,0.6,0,1.4,0.7
		c1.2,1.4,1.7,2.7,2.3,3.6c0.5,1.1,0.5,1.5,0.2,1.8c-0.2,0.2-0.5,0.3-0.9,0.7l-7.7,7.6c0.4,0.4,0.7,0.7,1.2,1c1.6,1.3,1.6,0,3.6,2
		c0.6,0.6,1.7,1.7,0.9,2.4c-0.3,0.3-1,0.4-1.5-0.1l-4.9-4.8c-4.3,4.2-5.8,3.7-6.1,3.4c-0.2-0.2-0.1-0.7,0.7-1.6L724.7,1007.1z"/>
</g>
<g>
	<path d="M762.1,828.7c-7.9-0.5-19.2-1-31.8-1c-17.7,0-26.5,0.8-35.1,1.6c-3,0.3-4.2,1.4-6.5,1.4c-2,0-5.1-0.9-11.2-4.4
		c-1.4-0.7-2.1-1.3-2.1-1.8c0-0.3,0.3-0.5,1.2-0.5c0.5,0,1.3,0.1,2.2,0.3c5.3,1,12.4,1.3,20.8,1.3c5.8,0,12.2-0.2,19.1-0.4
		c-0.1-1.9-0.1-5.5-0.3-22.7c-4.1,0-8.7,0.1-14,0.2c-6.3,0-9.3-2.5-9.4-7.1l-0.3-28c-0.1-2-3.2-3.7-7.3-5c-1.2-0.2-2.4-0.8-2.4-1.4
		c0-0.9,2.6-1.4,4-1.4c4.4,0,10.5,1.2,13.3,2.2c8.1-0.1,20.1-0.4,32.6-0.8c5.3-1,3.7-3,11.1-3c7.1,0,7.7,2.4,7.7,3.1
		c0,1.1-1.3,2.1-3.4,2.1c-17,0.6-38.6,1.1-47.4,1.5c-0.9,0.6-1.5,0-1.5,1.6v14c8.5-0.2,19.2-0.3,33.6-0.8c4.4-0.6,1.1-2.4,10.6-2.5
		c3.2,0,4.7,1.2,4.7,2.4c0,1.2-1.4,2.4-3.7,2.5c-6.9,0.3-32.3,0.7-45.2,1.1v13.1c0.1,3.5,1.1,3.5,8.4,3.5c7.7,0,15.4-0.2,25.6-0.8
		c6.3-0.5,2.6-2.7,12.4-2.7c2,0,6.3,0,6.3,2.5c0,1.3-1.6,2.7-4.1,2.7c-7.5,0.4-14.8,0.5-25,0.6c0,14,0,18.1-0.2,22.7
		c4.7-0.1,12.8-0.3,21.7-0.8c4-0.2,3.4-1.9,8.1-1.9c2.4,0,11.9,0.5,11.9,4.2c0,1.2-1.4,2.3-3.9,2.3H762.1z"/>
	<path d="M849.9,793.2c4.4-0.6,3.2-2.1,8.9-2.1c3.7,0,9.6,0,9.6,3.1c0,1.2-1.2,2.4-3.1,2.4c-2,0-11.5-0.2-13.6-0.2
		c-20.8,0-42.8,1.2-52.7,2c-4.3,0.7-5,2.1-7.2,2.1c-2.6,0-13.7-4.6-13.7-6.1c0-0.4,0.4-0.6,1.1-0.6c0.5,0,1.2,0.1,2,0.3
		c4,0.7,10.3,1,18.1,1c11.5,0,26-0.6,40.9-1.4c1.2-4,2.9-11.6,4.1-19.7c-13,2.2-25.2,4.5-37.6,6.2c-2.8,0.7-2.8,2.1-4.8,2.1
		c-2.3,0-14.7-4.6-14.7-6.4c0-0.3,0.4-0.5,1.2-0.5c0.5,0,1.2,0,2,0.2c2.5,0.2,5.5,0.3,8.6,0.3c16.6,0,39.4-2.7,45.5-4.2
		c0.4-2.6,1-8.8,1.3-12.5c-9.6,0.4-26.5,0.7-38.2,1.4c-2.7,0.6-2.9,1.6-4.4,1.6c-1.7,0-11.9-4.2-11.9-5.8c0-0.3,0.4-0.5,1.2-0.5
		c0.5,0,1.1,0.1,1.8,0.2c5.2,0.9,12.9,1.3,20.7,1.3c12.1,0,24.5-0.8,27.5-1.1c3.1-0.4,1.7-0.9,5.9-0.9c6,0,7.1,0.6,7.1,1.4
		c0,0.8-1.5,2-2.2,3.4c-3.1,12.3-6.3,23.4-10.2,33.2h1.6L849.9,793.2z M799,818.1c-0.2-1.8-2.5-2.9-7.6-4.4
		c-1.2-0.3-1.9-0.7-1.9-1.1c0-0.5,0.9-1,3.1-1.5c4.8,0,8.8,0.4,10.9,0.7c1.8,0.4,2.2,1,2.2,1.9c0,0.7-0.3,1.5-0.4,2.6
		c0,4.6,0,10.3,0.1,14c0.2,2.1,1.4,3,4.9,3.2l21.8-0.2c7.4-0.5,4-2.7,12.9-2.7c2.4,0,7.8,0,7.8,3.4c0,1.1-1,2.2-2.8,2.2h-40
		c-6.8-0.1-10.6-1.7-10.9-6.9L799,818.1z"/>
	<path d="M928,799.5c-1.6,0.1-4.5,0.4-8.3,0.8c-3.5,0.6-3.9,1.9-5.6,1.9c-2.2,0-13-4.9-13-6.3c0-0.3,0.4-0.5,1.3-0.5
		c0.6,0,1.5,0.1,2.6,0.3c3.6,0.8,10.9,1,19.3,1c17.2,0,39.5-1.1,47.7-1.7c5.5-0.4,4.5-1.8,9.9-1.8c3.7,0,10.2,0,10.2,3.1
		c0,1.3-1.5,2.5-4.3,2.5h-0.2c-5.1-0.2-11.9-0.7-21.1-0.7h-2.3c0,14.9,0,34-1.9,39.9c-0.7,2.7-1.8,4.3-2.7,4.3c-1,0-1.8-1.6-1.8-5.3
		v-38.5c-3.6,0.1-16.5,0.4-23.4,0.6c0,21.6,0,28.3-2,34.7c-0.9,2.3-2,3.7-2.8,3.7c-0.9,0-1.5-1.7-1.6-5.8L928,799.5z M942,753.6
		c1.2,0,2.4-0.7,2.4-1.8c0-0.6-0.3-1.3-0.9-1.9c-0.9-0.8-1.3-1.3-1.3-1.7c0-0.4,0.4-0.6,1.2-0.6c2.4,0,6.5,1.6,6.5,3
		c0,0.5-1.1,2.5-1.1,3c12.1,2.1,17.5,9.7,17.5,17.4c0,8.3-7.2,17-20.2,17c-13.7,0-21.3-8.6-21.3-17.5
		C924.7,763.1,930.1,755.7,942,753.6z M930.7,770.9c0,6.6,5.1,13.2,15.3,13.2c9.5,0,14.3-6.6,14.3-13.2s-4.8-13.3-14.3-13.3
		C935.8,757.6,930.7,764.3,930.7,770.9z"/>
	<path d="M1088.2,800.4c-7.9-0.5-19.2-1-31.8-1c-17.7,0-26.5,0.8-35.1,1.6c-3,0.3-4.2,1.4-6.5,1.4c-2,0-5.1-0.9-11.2-4.4
		c-1.4-0.7-2.1-1.4-2.1-1.8c0-0.3,0.4-0.5,1.2-0.5c0.6,0,1.3,0,2.2,0.2c5.3,1,12.2,1.4,20.4,1.4c5.8,0,12.2-0.2,19.1-0.5
		c-0.1-1.9-0.1-6-0.2-13c-4.1,0.2-7.8,0.3-10.9,0.3c-5.7,0-10.8,0-10.8-6.4l-0.3-17.5c-0.3-1.5-3.7-3.1-6.8-4.1
		c-1.5-0.3-2.6-0.9-2.6-1.5c0-0.4,0.8-0.9,3-1.1c4.8,0.1,10.9,1.1,13.7,1.7c5.7,0,17.5-0.3,26.4-0.7c5.3-0.9,3.5-2.8,11.6-2.8
		c5.4,0,6.5,1.7,6.5,2.8c0,1.2-1.3,2.3-3,2.3c-16.4,0.4-34.5,0.7-40.7,0.9c-1,0.8-1.5,0-1.5,1.7v8.7c4.1,0.1,24-0.4,28.4-0.5
		c4-0.8,1.3-2.4,10.5-2.5c3.4,0,4.7,1.2,4.7,2.4c0,1.2-1.3,2.4-3.5,2.5c-7.1,0.3-29.6,0.6-40.1,0.8v7.1c0.2,2.5,0.8,3.1,4.1,3.4
		c2.8,0,5.9,0.1,9.1,0.1c4.6,0,9.3-0.1,13.8-0.4c6.3-0.6,2.5-2.8,12.4-2.8c3.1,0,6.3,0.5,6.3,2.5c0,1.4-1.6,2.7-4.1,2.7
		c-7,0-13.7,0.1-19.8,0.1c0,3.8,0,8.3-0.1,12.8c5-0.1,13.1-0.3,22-0.7c4-0.2,3.4-1.9,8.2-1.9c2.8,0,11.8,0.6,11.8,4.2
		c0,1.2-1.4,2.3-3.9,2.3H1088.2z M1046.7,806.7c0-0.8-0.4-1.8-1.2-2.6c-0.6-0.4-1-0.9-1-1.3c0-0.4,0.4-0.7,1.3-0.7
		c2,0,6.6,2,6.6,3.5c0,0.9-1.1,1.7-1.4,2.9c11.2,2,16.4,9.1,16.4,16.1c0,8.4-7.2,16.5-19.9,16.5c-12.7,0-19.5-8-19.5-16.5
		c0-7.2,5.6-14.6,17.3-16.2C1046.2,808.2,1046.7,807.5,1046.7,806.7z M1033.7,824.1c0,6.1,4.8,12.3,14.2,12.3
		c9.4,0,14.2-6.2,14.2-12.3c0-6.3-4.8-12.5-14.2-12.5C1038.4,811.7,1033.7,817.8,1033.7,824.1z"/>
	<path d="M1148.8,763.7c-3,0.4-3.4,1.4-4.8,1.4s-9.8-3.2-9.8-4.8c0-0.3,0.4-0.5,1.3-0.5c0.5,0,1.2,0.1,2.2,0.2
		c2.8,0.4,6.7,0.5,10.7,0.5c6.7,0,13.7-0.4,17.7-0.6c3.1-0.4,1.3-1,5.4-1c5.5,0,5.7,0.8,5.7,1.2c0,0.9-2,2.2-2.9,3.7
		c-3.6,5.7-7,10.1-11.4,15.3c11.4,11.2,11.1,5.8,15.8,12.4c1.5,2.5,2.1,4.5,2.1,5.9c0,1.4-0.7,2.1-1.6,2.1c-0.7,0-1.5-0.4-2.3-1.3
		c-3.2-3.7-10-11.3-15.8-17.5c-10.5,11.9-29.9,22.7-32.1,22.7c-0.2,0-0.3-0.1-0.3-0.2c0-0.3,0.7-1,1.9-1.8
		c14.8-9.4,30.5-25.4,37.6-39.1c-6.7,0.5-14.6,0.9-18.5,1L1148.8,763.7z M1179.2,806.7c0-0.8-0.5-1.8-1.3-2.6
		c-0.6-0.4-0.9-0.9-0.9-1.3c0-0.4,0.4-0.7,1.2-0.7c2,0,6.7,2,6.7,3.5c0,0.9-1.1,1.7-1.5,2.9c11.3,2,16.5,9.2,16.5,16.2
		c0,8.2-7.1,16.4-20,16.4c-12.8,0-19.4-8.2-19.4-16.3c0-7.3,5.5-14.8,17.2-16.4C1178.7,808.2,1179.2,807.5,1179.2,806.7z
		 M1166,824.1c0,6.1,4.8,12.3,14.2,12.3c9.5,0,14.2-6.2,14.2-12.3c0-6.3-4.7-12.5-14.2-12.5C1170.8,811.7,1166,817.8,1166,824.1z
		 M1195.6,776.9c-5.2,0.2-8.4,0.7-11.1,0.8c-2.5,0.2-3.2,1.2-5,1.2c-2.2,0-8.3-2.6-8.3-3.8c0-0.4,0.7-0.6,1.8-0.6
		c0.7,0,4.2,0.1,5,0.1c5.2,0,12.8-0.3,17.6-0.8v-17c-0.2-2.2-5.2-4.8-8.8-6.3c-1.5-0.5-2.5-1.1-2.5-1.7c0-0.5,0.9-1,3.5-1.2
		c1.1,0,14.6,2.3,14.6,5.1c0,0.6-0.3,1.3-0.3,2.5l-0.1,37.6c-0.1,5.1-0.6,10.8-2.6,14c-0.6,1-1.2,1.6-1.8,1.6c-1,0-1.8-1.8-1.8-6.9
		V776.9z"/>
	<path d="M1248.7,775c-1.5,0.3-1.7,0.9-2.7,0.9c-1.4,0-9-3.1-9-4.5c0-0.3,0.2-0.4,0.8-0.4c0.5,0,1,0.1,1.8,0.2
		c2.8,0.4,7.4,0.7,12.3,0.7c5,0,10.1-0.3,13.8-0.7c1.1-0.2,0.7-0.5,3.5-0.5c2.7,0,5.7,0,5.7,1.2c0,0.7-1,1.7-2.1,2.8
		c-2.3,3-6.6,7.8-9.3,11c7.3,7.3,9.7,2.6,13.2,10.9c0.3,0.8,0.4,1.5,0.4,2c0,1.5-0.9,2.3-1.9,2.3c-0.7,0-1.4-0.3-2.1-0.8
		c-4.3-4.5-8.8-9.4-11.6-12.4c-12.1,11.1-27.8,18.3-29.9,18.3c-0.3,0-0.4,0-0.4-0.2c0-0.3,0.6-0.8,1.8-1.4
		c12.8-7.8,24.4-16.7,32.7-30.4C1261,774.1,1251.9,774.7,1248.7,775z M1253.6,763.4c-1.7,0-8.1-4.8-8.1-6c0-0.4,0.3-0.6,0.9-0.6
		c0.4,0,0.9,0.1,1.5,0.3c6.1,1.7,12.5,1.7,18,1.7c3.1,0.3,4.6,1.2,4.6,2.2c0,0.9-1.1,1.8-2.9,2.2c-3.5,0-6.5,0.1-10.9,0.3
		L1253.6,763.4z M1299.1,811c-6.2,0.3-22.5,0.9-35.1,1.3c-3.9,0.2-4.5,1.7-6.6,1.7c-2.7,0-10.4-3.9-10.4-5c0-0.3,0.4-0.5,1.3-0.5
		c0.4,0,0.8,0,1.4,0.1c3.8,0.6,9.3,0.8,15.5,0.8c9.9,0,21.4-0.5,29.6-0.9c2.5,0,2.3-1.1,5.4-1.1c0.4,0,0.9,0,1.5,0.1
		c3.9,0.2,4.8,0.8,4.8,1.5c0,0.8-1,1.9-1,3.2c0,14.1,0,20-1.5,26.3c-0.8,2.8-2.2,4.6-3.4,4.6c-0.9,0-1.6-1.1-1.6-3.7V811z
		 M1282.3,761.2c-0.2-2.3-3.1-3.9-6.7-5.5c-1-0.5-2.2-1.1-2.2-1.6c0-0.4,0.9-0.8,3.6-1c10.3,1.7,11.8,2.6,11.8,4.1
		c0,0.6-0.3,1.3-0.3,2.2v23.2l12.7-0.4v-24.9c-0.1-2.1-3.9-4.4-8.1-6.5c-1-0.3-1.9-0.8-1.9-1.3s0.9-1,3.2-1.1
		c11.5,2.2,13.3,3.7,13.3,5.3c0,0.8-0.4,1.7-0.4,2.7l-0.6,34.2c-0.2,6.1-2,9.5-3.5,9.5c-0.9,0-1.8-1.6-1.9-5.2l-0.1-9.9l-12.7,0.3
		l-0.5,7.6c-0.5,5.1-2.2,8.1-3.7,8.1c-1,0-1.9-1.5-1.9-5V761.2z"/>
</g>
</svg>
