<svg xmlns="http://www.w3.org/2000/svg" viewBox="1445 10161 40 33.334">
  <defs>
    <style>
      .cls-1 {
        fill: #fff;
      }
    </style>
  </defs>
  <g id="Reddit_logo" data-name="Reddit logo" transform="translate(1432.999 10116.16)">
    <path id="reddit" class="cls-1" d="M28.6,54a2.207,2.207,0,0,1,.15.807,2.572,2.572,0,0,1-.5,1.507,2.4,2.4,0,0,1-1.276.9h0l-.011,0-.007,0a2.29,2.29,0,0,1-.742.122,2.635,2.635,0,0,1-1.609-.567,2.42,2.42,0,0,1-.9-1.474h0a.019.019,0,0,0,0-.006.009.009,0,0,0,0-.006h0a2.205,2.205,0,0,1-.051-.467,2.516,2.516,0,0,1,.474-1.446,2.483,2.483,0,0,1,1.195-.912h0s0,0,0,0a2.462,2.462,0,0,1,.852-.152,2.659,2.659,0,0,1,1.471.448,2.386,2.386,0,0,1,.951,1.222s0,.007,0,.01a.013.013,0,0,0,0,.008h0ZM27,60.439a1.273,1.273,0,0,0-.693-.213,1.084,1.084,0,0,0-.6.182h0A11.642,11.642,0,0,1,19.8,62.04a10.155,10.155,0,0,1-4.482-1.012l-.007,0-.007,0a4.872,4.872,0,0,1-.711-.443,2.592,2.592,0,0,0-.425-.234,1.278,1.278,0,0,0-.5-.11,1.116,1.116,0,0,0-.461.1l-.023.009h0a1.116,1.116,0,0,0-.556.464,1.344,1.344,0,0,0-.033,1.32,1.131,1.131,0,0,0,.459.459,11.889,11.889,0,0,0,6.7,1.951,14.6,14.6,0,0,0,6.163-1.387l.01-.006.01-.005c.251-.149.584-.282.9-.476a1.983,1.983,0,0,0,.437-.362,1.368,1.368,0,0,0,.294-.546h0a1.112,1.112,0,0,0,.036-.281,1.146,1.146,0,0,0-.115-.495A1.333,1.333,0,0,0,27,60.439ZM13.009,57.206a.027.027,0,0,1,.012,0,2.26,2.26,0,0,0,.776.139,2.64,2.64,0,0,0,1.753-.7,2.367,2.367,0,0,0,.8-1.746c0-.018,0-.036,0-.058s0-.066,0-.1A2.385,2.385,0,0,0,15.561,53a2.61,2.61,0,0,0-1.751-.7,2.311,2.311,0,0,0-.523.061h-.01a2.544,2.544,0,0,0-1.894,1.7h0a.009.009,0,0,1,0,0,2.323,2.323,0,0,0-.117.734,2.593,2.593,0,0,0,.485,1.494A2.4,2.4,0,0,0,13,57.2Zm26.984-6.277v0c.006.087.008.175.008.261a4.939,4.939,0,0,1-.831,2.7,5.428,5.428,0,0,1-1.925,1.783,9.192,9.192,0,0,1,.078,1.165,9.643,9.643,0,0,1-1.978,5.8h0a16.887,16.887,0,0,1-9.489,5.83h0l0,0a24.96,24.96,0,0,1-5.88.7,23.255,23.255,0,0,1-8.651-1.635v0h0a14.956,14.956,0,0,1-7.237-5.783,9.423,9.423,0,0,1-1.389-4.9,8.725,8.725,0,0,1,.078-1.166A5.589,5.589,0,0,1,.884,53.952,5.118,5.118,0,0,1,0,51.331v-.015a5.138,5.138,0,0,1,1.48-3.528,4.847,4.847,0,0,1,3.448-1.539h.055c.138-.009.278-.015.417-.015a5.452,5.452,0,0,1,1.957.349l0,0h0a6.534,6.534,0,0,1,1.55.879,4.66,4.66,0,0,1,.512-.244,20.955,20.955,0,0,1,9.519-2.561,10.531,10.531,0,0,1,1.018-4.8,5,5,0,0,1,3.162-2.528l.006,0h.007a8.21,8.21,0,0,1,1.56-.146,10.914,10.914,0,0,1,4.028.839,5,5,0,0,1,2.322-1.895l.009-.005.009,0A5.856,5.856,0,0,1,32.8,35.84a4.488,4.488,0,0,1,1.837.376v0s0,0,0,0a.049.049,0,0,0,.011,0,4.452,4.452,0,0,1,2.061,1.669,4.609,4.609,0,0,1,.8,2.567,4.395,4.395,0,0,1-.029.51l0,0a.029.029,0,0,1,0,.009,4.47,4.47,0,0,1-1.556,2.982,4.791,4.791,0,0,1-3.115,1.2,4.176,4.176,0,0,1-.552-.035,4.628,4.628,0,0,1-2.965-1.45,4.478,4.478,0,0,1-1.28-3.076c0-.057.005-.115.007-.171a8.343,8.343,0,0,0-3.315-.865,4.825,4.825,0,0,0-.487.025h0a2.538,2.538,0,0,0-2,1.372h0v0a8.36,8.36,0,0,0-.707,3.726,21.412,21.412,0,0,1,9.3,2.617h0l.041.024c.054.032.154.087.244.135A5.408,5.408,0,0,1,31.741,47a5.244,5.244,0,0,1,2.9-.859,5.431,5.431,0,0,1,1.347.171h0l.018.005.017,0h0a5.38,5.38,0,0,1,2.689,1.667,5.12,5.12,0,0,1,1.277,2.935v0h0ZM30.5,40.387c0,.044,0,.088.005.134v.008a2.162,2.162,0,0,0,.687,1.465,2.2,2.2,0,0,0,1.483.625h.015c.039,0,.079,0,.117,0a2.229,2.229,0,0,0,1.5-.619,2.159,2.159,0,0,0,.7-1.474v-.006c0-.043.005-.084.005-.128a2.176,2.176,0,0,0-.7-1.545,2.284,2.284,0,0,0-1.556-.662,1.8,1.8,0,0,0-.537.079h-.006l-.005,0a2.371,2.371,0,0,0-1.21.786A2.1,2.1,0,0,0,30.5,40.387ZM6.726,49.021A3.144,3.144,0,0,0,5.41,48.68a2.069,2.069,0,0,0-.222.012h-.02a2.746,2.746,0,0,0-1.748.735,2.432,2.432,0,0,0-.82,1.69v.011c0,.053-.006.106-.006.157a2.261,2.261,0,0,0,.334,1.15,3.115,3.115,0,0,0,.59.716A12.308,12.308,0,0,1,6.726,49.021Zm28.063,7.91a7.051,7.051,0,0,0-1.362-4.055,13.437,13.437,0,0,0-6.992-4.709l-.019-.007q-.78-.239-1.575-.422a21.918,21.918,0,0,0-11.268.425,13.463,13.463,0,0,0-7,4.716v0a7.029,7.029,0,0,0-1.346,4.07,6.034,6.034,0,0,0,.207,1.583h0a7.866,7.866,0,0,0,1.673,3.105,11.985,11.985,0,0,0,2.713,2.31c.22.137.442.267.668.394a19.549,19.549,0,0,0,9.527,2.322c.559,0,1.122-.02,1.677-.06a18.174,18.174,0,0,0,9.374-3.266v0a10.537,10.537,0,0,0,2.287-2.281,7.386,7.386,0,0,0,1.3-2.918v0h0A5.793,5.793,0,0,0,34.788,56.932Zm2.628-5.737a2.147,2.147,0,0,0-.256-1.023l0,0,0-.005a2.5,2.5,0,0,0-1.046-1.1A3.093,3.093,0,0,0,33.269,49,12.539,12.539,0,0,1,36.5,53.155a2.706,2.706,0,0,0,.6-.752A2.582,2.582,0,0,0,37.416,51.195Z" transform="translate(12 9)"/>
  </g>
</svg>
