<svg xmlns="http://www.w3.org/2000/svg" viewBox="797 7238.559 9.818 12">
  <defs>
    <style>
      .cls-1 {
        opacity: 0.3;
      }

      .cls-2 {
        fill: #9498a8;
      }
    </style>
  </defs>
  <g id="padlock" class="cls-1" transform="translate(760.452 7237.559)">
    <path id="Path_1289" data-name="Path 1289" class="cls-2" d="M46.127,5.693a.789.789,0,0,0-.58-.239h-.273V3.818A3.674,3.674,0,0,0,44.15,1.125a3.786,3.786,0,0,0-5.386,0,3.674,3.674,0,0,0-1.125,2.693V5.455h-.273a.815.815,0,0,0-.818.818v4.909a.815.815,0,0,0,.818.818h8.182a.815.815,0,0,0,.818-.818V6.273A.789.789,0,0,0,46.127,5.693Zm-2.488-.239H39.275V3.818a2.1,2.1,0,0,1,.639-1.543,2.181,2.181,0,0,1,3.085,0,2.1,2.1,0,0,1,.639,1.543Z" transform="translate(0 1)"/>
  </g>
</svg>
