<svg xmlns="http://www.w3.org/2000/svg" viewBox="3579.337 1025.03 445 374.687">
  <defs>
    <style>
      .cls-1 {
        fill: #e8836b;
      }

      .cls-2 {
        fill: #eaeaea;
      }

      .cls-3 {
        fill: #ff9d46;
      }

      .cls-4 {
        fill: #b77100;
      }

      .cls-5 {
        fill: #ffdda7;
      }

      .cls-6 {
        fill: #9e5e00;
      }

      .cls-7 {
        fill: #fff;
      }

      .cls-8 {
        fill: #ca4e4b;
      }

      .cls-9 {
        fill: #686868;
      }

      .cls-10 {
        fill: #afafaf;
      }

      .cls-11 {
        fill: #4d1e51;
      }

      .cls-12 {
        fill: #ddd;
      }

      .cls-13 {
        fill: #3a153d;
      }

      .cls-14 {
        fill: #ffbb10;
      }

      .cls-15 {
        fill: none;
        stroke: #4d1e51;
        stroke-miterlimit: 10;
        stroke-width: 3px;
      }
    </style>
  </defs>
  <g id="Bonuce_Tournament_1_" data-name="Bonuce Tournament (1)" transform="translate(3579.337 1025.03)">
    <g id="Layer_1" data-name="Layer 1" transform="translate(0 0)">
      <rect id="Rectangle_335" data-name="Rectangle 335" class="cls-1" width="11.29" height="26.666" transform="translate(160.339 202.752) rotate(-6.34)"/>
      <rect id="Rectangle_336" data-name="Rectangle 336" class="cls-2" width="414.44" height="4.244" transform="translate(430.828 374.687) rotate(180)"/>
      <circle id="Ellipse_356" data-name="Ellipse 356" class="cls-3" cx="14.238" cy="14.238" r="14.238" transform="translate(345.98 296.783)"/>
      <circle id="Ellipse_357" data-name="Ellipse 357" class="cls-4" cx="12.062" cy="12.062" r="12.062" transform="translate(348.156 298.96)"/>
      <circle id="Ellipse_358" data-name="Ellipse 358" class="cls-5" cx="12.062" cy="12.062" r="12.062" transform="translate(348.156 299.355)"/>
      <path id="Path_1052" data-name="Path 1052" class="cls-6" d="M1067.9,907.062a12.059,12.059,0,0,1,12.059,11.872v-.2a12.064,12.064,0,1,0-24.129,0c0,.066,0,.132,0,.2A12.061,12.061,0,0,1,1067.9,907.062Z" transform="translate(-707.687 -607.707)"/>
      <path id="Path_1053" data-name="Path 1053" class="cls-3" d="M1084.4,926.623l-5.276-5.276a2.015,2.015,0,0,0-2.842,0l-1.263,1.263.861.867,1.263-1.263a.781.781,0,0,1,1.1,0l5.276,5.276a.778.778,0,0,1,0,1.1l-5.276,5.276a.781.781,0,0,1-1.1,0l-5.276-5.276a.785.785,0,0,1,0-1.1l2.2-2.2,1.876,1.873a1.943,1.943,0,0,0-.211.884,1.978,1.978,0,1,0,1.081-1.754l-2.747-2.744-3.073,3.073a2.015,2.015,0,0,0,0,2.846l5.276,5.276a2.014,2.014,0,0,0,2.842,0l5.276-5.276A2.015,2.015,0,0,0,1084.4,926.623Zm-6.7.66a.32.32,0,1,1,0-.007Z" transform="translate(-717.453 -617.152)"/>
      <ellipse id="Ellipse_359" data-name="Ellipse 359" class="cls-7" cx="32.532" cy="22.158" rx="32.532" ry="22.158" transform="translate(328.131 319.304)"/>
      <path id="Path_1054" data-name="Path 1054" class="cls-1" d="M505.565,900.06,489.2,915.577V926.36l5.309,16.329L505.093,930.2l-.356-14.624Z" transform="translate(-327.893 -603.277)"/>
      <path id="Path_1055" data-name="Path 1055" class="cls-2" d="M623.5,883.427H537.4v-65.9c0-30.814,18.966-52.969,42.741-52.969h0c31.351,0,43.36,43.585,43.36,74.4Z" transform="translate(-360.199 -512.456)"/>
      <path id="Path_1056" data-name="Path 1056" class="cls-1" d="M602.267,705.233h0l-8.461-16.523h0a12.284,12.284,0,0,0-1.932-2.753c-5.559-5.962-15.953-5.305-23.21,1.464-6.565,6.12-8.316,15.148-4.478,21.229h0l8.484,15.527a12.943,12.943,0,0,0,1.457,2.671h0a12.384,12.384,0,0,0,2.12,2.285c6.265,5.22,16.487,3.271,22.847-4.353C604.189,718.7,605.251,710.815,602.267,705.233Z" transform="translate(-376.806 -457.039)"/>
      <path id="Path_1057" data-name="Path 1057" class="cls-8" d="M592.883,701.122c-3.663,12.312-10.608,18-19.84,19.069-.824.1-1.649.145-2.47.165l-6.4-11.7h0c-3.838-6.08-2.087-15.105,4.478-21.228,7.254-6.773,17.651-7.426,23.21-1.464a12.287,12.287,0,0,1,1.932,2.753h0Z" transform="translate(-376.799 -457.044)"/>
      <ellipse id="Ellipse_360" data-name="Ellipse 360" class="cls-1" cx="29.175" cy="34.791" rx="29.175" ry="34.791" transform="translate(159.003 192.18) rotate(-6.34)"/>
      <ellipse id="Ellipse_361" data-name="Ellipse 361" class="cls-9" cx="9.13" cy="14.347" rx="9.13" ry="14.347" transform="translate(227.056 313.735) rotate(-69.88)"/>
      <ellipse id="Ellipse_362" data-name="Ellipse 362" class="cls-1" cx="8.22" cy="13.13" rx="8.22" ry="13.13" transform="translate(228.162 314.251) rotate(-69.88)"/>
      <path id="Path_1058" data-name="Path 1058" class="cls-1" d="M592.711,931.25s-4.2,23.794-14.8,30.161C566.658,968.177,539.9,979.25,539.9,979.25l4.221,13.265s45.273-2.925,55.946-16.46,17.585-36.7,17.585-36.7Z" transform="translate(-361.875 -624.182)"/>
      <path id="Path_1059" data-name="Path 1059" class="cls-10" d="M696.68,861.51s-1.649,14.564-3.538,18.627S698.731,874.828,696.68,861.51Z" transform="translate(-464.38 -577.438)"/>
      <path id="Path_1060" data-name="Path 1060" class="cls-10" d="M788.911,898.08s-1.649,14.561-3.538,18.624S790.979,911.395,788.911,898.08Z" transform="translate(-526.2 -601.95)"/>
      <path id="Path_1061" data-name="Path 1061" class="cls-8" d="M511.277,723.728s-2.839-2.608-.989-3.706,5.487,1.411,7.145,1.157S515.626,726.752,511.277,723.728Z" transform="translate(-341.607 -482.417)"/>
      <path id="Path_1062" data-name="Path 1062" class="cls-3" d="M296.343,994.315H200.482a3.875,3.875,0,0,1-3.657-2.593l-19.88-56.575A3.878,3.878,0,0,1,180.6,930h95.861a3.875,3.875,0,0,1,3.657,2.593L300,989.171a3.874,3.874,0,0,1-3.657,5.144Z" transform="translate(-118.457 -623.344)"/>
      <ellipse id="Ellipse_363" data-name="Ellipse 363" class="cls-7" cx="6.981" cy="7.594" rx="6.981" ry="7.594" transform="translate(105.893 337.712) rotate(-22.37)"/>
      <path id="Path_1063" data-name="Path 1063" class="cls-10" d="M648.14,799.05l3.98-2.5a27.173,27.173,0,0,0,11.854-16.19l1.006-3.884S668.04,790.421,648.14,799.05Z" transform="translate(-434.424 -520.446)"/>
      <path id="Path_1064" data-name="Path 1064" class="cls-8" d="M536.083,753.1l-1.777-.112a.5.5,0,1,1,.063-.989l1.777.109a9.994,9.994,0,0,0,5.457-1.236.5.5,0,0,1,.478.867A10.99,10.99,0,0,1,536.083,753.1Z" transform="translate(-357.814 -503.242)"/>
      <circle id="Ellipse_364" data-name="Ellipse 364" class="cls-11" cx="1.711" cy="1.711" r="1.711" transform="translate(166.333 228.501)"/>
      <circle id="Ellipse_365" data-name="Ellipse 365" class="cls-11" cx="1.711" cy="1.711" r="1.711" transform="translate(182.315 226.777)"/>
      <path id="Path_1065" data-name="Path 1065" class="cls-12" d="M585.18,938.739l2.931,1.342,6.265-23.942-2.931-1.339Z" transform="translate(-392.224 -613.156)"/>
      <path id="Path_1066" data-name="Path 1066" class="cls-12" d="M626.158,934.256l-1.883-2.493h0l-5.553-7.343-1.883,2.489,5.553,7.347L616.84,941.6l1.883,2.49,5.553-7.343h0l1.883-2.49Z" transform="translate(-413.445 -619.604)"/>
      <path id="Path_1067" data-name="Path 1067" class="cls-12" d="M558.859,924.42l-5.553,7.343h0l-1.886,2.493h0l1.886,2.49h0l5.553,7.343,1.883-2.49-5.553-7.343,5.553-7.347Z" transform="translate(-369.596 -619.604)"/>
      <path id="Path_1068" data-name="Path 1068" class="cls-2" d="M33.181,635.115S7.152,583.735,0,580.161c0,0,41.877.841,52.893-8.451,0,0,25.037,53.747,31.074,61.8Z" transform="translate(0 -383.196)"/>
      <path id="Path_1069" data-name="Path 1069" class="cls-13" d="M510.372,653.644a11.54,11.54,0,0,0-3.587-7.271,8.768,8.768,0,0,0-13.467,1.51,11.54,11.54,0,0,0-1.906,7.881,2.33,2.33,0,0,0,.043.33l-2.249.284a12.157,12.157,0,0,0-.069-1.464,10.951,10.951,0,0,0-3.406-6.895,8.487,8.487,0,0,0-6.73-2.308c-4.963.551-8.494,5.579-7.868,11.211a10.928,10.928,0,0,0,3.406,6.895,8.656,8.656,0,0,0,5.325,2.348,8.019,8.019,0,0,0,1.4-.036,8.477,8.477,0,0,0,6.057-3.733,10.552,10.552,0,0,0,1.781-4.672l2.6-.33c1.138,4.554,4.768,7.858,8.923,8.115a8.334,8.334,0,0,0,1.457-.036,8.937,8.937,0,0,0,6.38-3.93,11.541,11.541,0,0,0,1.906-7.9Zm-24.127,7.973a7.01,7.01,0,0,1-10.815,1.2,9.635,9.635,0,0,1-2.984-6.07c-.547-4.906,2.46-9.282,6.7-9.754a6.638,6.638,0,0,1,1.171-.026,7.363,7.363,0,0,1,4.524,2A9.961,9.961,0,0,1,486.245,661.617Zm21.139-.847a7.646,7.646,0,0,1-5.444,3.373c-4.5.5-8.639-3.33-9.233-8.537a10.222,10.222,0,0,1,1.678-6.981,7.647,7.647,0,0,1,5.457-3.38,7.12,7.12,0,0,1,1.243-.03,7.821,7.821,0,0,1,4.808,2.124,10.581,10.581,0,0,1,1.49,13.424Z" transform="translate(-315.735 -429.768)"/>
      <path id="Path_1070" data-name="Path 1070" class="cls-3" d="M524.527,194.3c.043-1.54.063-3.129.053-4.778h-20.5v-9.45H453.07v9.45H432.55q0,2.47.053,4.775v1.6h.056c.837,20.427,6.281,31,10.941,36.363a25.6,25.6,0,0,0,2.9,2.862,8.052,8.052,0,0,0,8.042,7.65h2.1a25.538,25.538,0,0,0,16.427,11.871,5.928,5.928,0,0,0-.033.6,5.49,5.49,0,0,0,4.079,5.3V275.41A9.579,9.579,0,0,0,469,284.877h19.154a9.582,9.582,0,0,0-8.2-9.477V260.552a5.49,5.49,0,0,0,4.079-5.3,5.781,5.781,0,0,0-.03-.587,25.528,25.528,0,0,0,16.487-11.89h1.945a8.049,8.049,0,0,0,8.032-7.528,25.42,25.42,0,0,0,3.05-2.967c4.659-5.355,10.1-15.936,10.941-36.363h.056ZM444.1,231.816c-4.587-5.276-9.948-15.712-10.779-35.941H453.07v33.867a25.575,25.575,0,0,0,.488,4.982h-6.492A24.7,24.7,0,0,1,444.1,231.816Zm68.978-.049a24.516,24.516,0,0,1-3.01,2.945h-6.473a25.575,25.575,0,0,0,.491-4.982V195.9h19.728c-.831,20.173-6.169,30.6-10.736,35.882Z" transform="translate(-289.922 -120.694)"/>
      <path id="Path_1071" data-name="Path 1071" class="cls-2" d="M0,0H0A11.109,11.109,0,0,1,11.109,11.109v5.378H5.678A5.678,5.678,0,0,1,0,10.809Z" transform="translate(126.337 118.579) rotate(135)"/>
      <path id="Path_1072" data-name="Path 1072" class="cls-2" d="M5.678,0h5.431V5.378A11.109,11.109,0,0,1,0,16.487H0V5.678A5.678,5.678,0,0,1,5.678,0Z" transform="translate(248.402 136.674) rotate(45)"/>
      <path id="Path_1073" data-name="Path 1073" class="cls-2" d="M5.668,0h5.441V5.378A11.109,11.109,0,0,1,0,16.487H0V5.678A5.678,5.678,0,0,1,5.678,0Z" transform="translate(254.527 120.997) rotate(45)"/>
      <path id="Path_1074" data-name="Path 1074" class="cls-2" d="M5.678,0h5.431V5.378A11.109,11.109,0,0,1,0,16.487H0V5.678A5.678,5.678,0,0,1,5.678,0Z" transform="translate(260.898 106.919) rotate(45)"/>
      <path id="Path_1075" data-name="Path 1075" class="cls-2" d="M5.678,0h5.431V5.378A11.109,11.109,0,0,1,0,16.487H0V5.678A5.678,5.678,0,0,1,5.678,0Z" transform="translate(267.274 92.853) rotate(45)"/>
      <path id="Path_1076" data-name="Path 1076" class="cls-2" d="M0,0H0A11.109,11.109,0,0,1,11.1,11.109v5.378H5.678A5.678,5.678,0,0,1,0,10.809Z" transform="translate(236.761 155.29) rotate(180)"/>
      <path id="Path_1077" data-name="Path 1077" class="cls-2" d="M0,0H0A11.109,11.109,0,0,1,11.109,11.109v5.378H5.678A5.678,5.678,0,0,1,0,10.809V0Z" transform="translate(212.001 163.837) rotate(-90)"/>
      <path id="Path_1078" data-name="Path 1078" class="cls-2" d="M0,0H0A11.109,11.109,0,0,1,11.109,11.109v5.378H5.678A5.678,5.678,0,0,1,0,10.815Z" transform="translate(258.688 95.989) rotate(-150)"/>
      <path id="Path_1079" data-name="Path 1079" class="cls-2" d="M0,0H0A11.109,11.109,0,0,1,11.109,11.109v5.378H5.678A5.678,5.678,0,0,1,0,10.809Z" transform="translate(242.957 142.09) rotate(180)"/>
      <path id="Path_1080" data-name="Path 1080" class="cls-2" d="M0,0H0A11.109,11.109,0,0,1,11.109,11.109v5.378H5.678A5.678,5.678,0,0,1,0,10.809Z" transform="translate(249.374 126.217) rotate(180)"/>
      <path id="Path_1081" data-name="Path 1081" class="cls-2" d="M0,0H0A11.109,11.109,0,0,1,11.109,11.109v5.378H5.678A5.678,5.678,0,0,1,0,10.809Z" transform="translate(255.421 112.368) rotate(180)"/>
      <path id="Path_1082" data-name="Path 1082" class="cls-2" d="M0,0H0A11.109,11.109,0,0,1,11.112,11.109v5.378H5.678A5.678,5.678,0,0,1,0,10.809V0Z" transform="translate(138.833 148.332) rotate(135)"/>
      <path id="Path_1083" data-name="Path 1083" class="cls-2" d="M0,0H0A11.109,11.109,0,0,1,11.109,11.109v5.378H5.691A5.678,5.678,0,0,1,0,10.809Z" transform="translate(132.72 132.635) rotate(135)"/>
      <path id="Path_1084" data-name="Path 1084" class="cls-2" d="M0,0H0A11.109,11.109,0,0,1,11.109,11.109v5.378H5.678A5.678,5.678,0,0,1,0,10.822Z" transform="translate(119.964 104.511) rotate(135)"/>
      <path id="Path_1085" data-name="Path 1085" class="cls-2" d="M426.675,420.95h5.431v5.378A11.109,11.109,0,0,1,421,437.437h0V426.628a5.678,5.678,0,0,1,5.675-5.678Z" transform="translate(-282.181 -282.147)"/>
      <path id="Path_1086" data-name="Path 1086" class="cls-2" d="M5.678,0h5.431V5.378A11.109,11.109,0,0,1,0,16.487H0V5.685A5.678,5.678,0,0,1,5.678,0Z" transform="translate(147.076 163.837) rotate(-90)"/>
      <path id="Path_1087" data-name="Path 1087" class="cls-2" d="M5.678,0h5.431V5.378A11.109,11.109,0,0,1,0,16.487H0V5.681A5.678,5.678,0,0,1,5.678,0Z" transform="translate(108.638 81.7) rotate(-30)"/>
      <path id="Path_1088" data-name="Path 1088" class="cls-2" d="M407.868,380.92H413.3V386.3a11.109,11.109,0,0,1-11.109,11.109h0V386.6A5.678,5.678,0,0,1,407.868,380.92Z" transform="translate(-269.573 -255.317)"/>
      <path id="Path_1089" data-name="Path 1089" class="cls-2" d="M388.458,332.78h5.431v5.378a11.109,11.109,0,0,1-11.109,11.109h0V338.458A5.678,5.678,0,0,1,388.458,332.78Z" transform="translate(-256.563 -223.05)"/>
      <path id="Path_1090" data-name="Path 1090" class="cls-2" d="M370.085,290.78h5.434v5.378a11.109,11.109,0,0,1-11.109,11.109h0V296.458A5.678,5.678,0,0,1,370.085,290.78Z" transform="translate(-244.25 -194.899)"/>
      <path id="Path_1091" data-name="Path 1091" class="cls-2" d="M888.025,642.012c0,6.1-3.861,9.289-8.082,9.289-4.442,0-7.943-3.32-7.943-8.794,0-5.206,3.189-9.157,8.171-9.157S888.025,637.03,888.025,642.012Zm-10.954.33c0,3.053,1.032,5.253,3.007,5.253s2.872-1.978,2.872-5.253c0-2.968-.808-5.249-2.915-5.249-2.021-.017-2.964,2.315-2.964,5.233Zm3.231,21.186L897.06,633.35h3.683l-16.787,30.161Zm28.727-9.381c0,6.1-3.861,9.289-8.078,9.289-4.4,0-7.914-3.321-7.947-8.794,0-5.206,3.189-9.157,8.171-9.157s7.854,3.663,7.854,8.646Zm-10.908.33c-.043,3.053.989,5.253,2.967,5.253s2.875-1.979,2.875-5.253c0-2.968-.765-5.249-2.875-5.249s-2.967,2.3-2.967,5.216Z" transform="translate(-584.469 -424.511)"/>
      <path id="Path_1092" data-name="Path 1092" class="cls-3" d="M1073.978,996.263c1.771-1.85,1.932-5.276,1.649-9.872-2.094-.145-5.161.211-6.265,0a24.488,24.488,0,0,0-11.834-11.834c.181-3.429.633-6.595,2.615-8.243-4.807-.33-8.9,2.938-11.5,5.935a24.551,24.551,0,0,0-9.872-5.714l-2.529,4.5a35.411,35.411,0,0,0-23.27.079l-3.3-4.432a.036.036,0,0,0-.033-.033,33.011,33.011,0,0,0-13.605,8.243c-2.4-.178-2.13-5.048.99-4.287-5.068-3.459-7.878,6.027-2.968,7.231-4.089,5.859-4.5,18.409.989,23.022.8,6.925,2.018,13.427,5.391,17.779h11.046a30.888,30.888,0,0,1-.33-7.254,76.555,76.555,0,0,0,22.686,1.319,49.889,49.889,0,0,0,3.9,5.935h10.944c-.389-2.9-.841-5.935-.049-8.9,2.638-.488,16.177-3.927,25.334-13.46ZM1058.9,981.586a2.707,2.707,0,1,1-1.928.787A2.714,2.714,0,0,1,1058.9,981.586Z" transform="translate(-664.204 -647.668)"/>
      <path id="Path_1093" data-name="Path 1093" class="cls-14" d="M1258.921,975.912l-.531-.834s.607-.386,1.612-1.1l.574.808C1259.531,975.516,1258.921,975.9,1258.921,975.912Z" transform="translate(-843.452 -652.822)"/>
      <path id="Path_1094" data-name="Path 1094" class="cls-3" d="M806.183,319.581l-.61-.778c1.022-.8,2.048-1.649,3.043-2.5l.66.752C808.254,317.919,807.219,318.77,806.183,319.581Zm6.051-5.187-.659-.722c.963-.9,1.906-1.83,2.806-2.757l.712.689C814.153,312.541,813.2,313.481,812.234,314.395Zm5.543-5.718-.742-.659c.874-.989,1.718-2.015,2.509-3.024l.778.61c-.811,1.029-1.668,2.061-2.555,3.073Zm4.91-6.265-.814-.561c.752-1.091,1.461-2.2,2.107-3.3l.854.5c-.669,1.095-1.388,2.226-2.156,3.337Zm4.043-6.875-.89-.435c.58-1.19,1.108-2.394,1.566-3.584l.923.356c-.478,1.2-1.016,2.43-1.609,3.647Zm2.852-7.465-.956-.26a36.25,36.25,0,0,0,.834-3.812l.989.158a37.958,37.958,0,0,1-.877,3.9Zm1.266-7.914-.989-.046c.023-.488.033-.989.033-1.471,0-.8-.03-1.622-.089-2.424l.989-.073c.063.824.092,1.649.092,2.5-.013.5-.023,1.009-.046,1.513Zm-1.576-7.795a34.715,34.715,0,0,0-.969-3.775l.943-.3a35.877,35.877,0,0,1,.989,3.884Zm-2.348-7.426c-.514-1.167-1.1-2.344-1.741-3.5l.864-.481c.659,1.177,1.256,2.384,1.784,3.581Zm-3.792-6.829c-.709-1.055-1.487-2.117-2.308-3.162l.778-.613c.838,1.065,1.632,2.15,2.354,3.222Zm-4.84-6.163c-.851-.95-1.764-1.906-2.707-2.842l.7-.7c.956.95,1.883,1.919,2.75,2.882Zm-5.566-5.54c-.95-.854-1.956-1.715-2.988-2.562l.63-.765c1.042.857,2.057,1.728,3.017,2.592Zm-6.074-5.009c-1.039-.8-2.1-1.6-3.149-2.381l.59-.795c1.055.781,2.12,1.589,3.162,2.391Zm-6.341-4.7c-1.068-.762-2.156-1.523-3.235-2.259l.557-.814c1.085.739,2.18,1.5,3.251,2.265Zm-6.516-4.451c-1.091-.715-2.209-1.431-3.32-2.127l.524-.838c1.118.7,2.242,1.418,3.34,2.137Zm-6.684-4.191c-1.114-.66-2.262-1.345-3.4-2l.494-.857c1.148.659,2.308,1.319,3.42,2.011Zm-6.839-3.937c-1.138-.626-2.308-1.256-3.475-1.873l.462-.874c1.174.62,2.348,1.253,3.489,1.88Zm-6.98-3.686c-1.161-.587-2.348-1.177-3.538-1.754l.435-.89c1.19.58,2.384,1.174,3.548,1.764Zm-7.1-3.466c-1.161-.541-2.368-1.1-3.588-1.649l.406-.9c1.226.557,2.437,1.115,3.6,1.649Zm-7.2-3.255q-1.837-.808-3.627-1.573l.389-.907q1.794.765,3.627,1.573ZM751.74,210.6l-3.65-1.523.379-.913q1.8.749,3.653,1.523Zm-7.3-3.043-3.65-1.53.386-.913q1.79.758,3.647,1.53Zm-7.291-3.09c-1.319-.57-2.489-1.1-3.627-1.612l.409-.9c1.124.514,2.308,1.039,3.607,1.606Zm-7.211-3.3c-1.243-.607-2.437-1.213-3.538-1.8l.465-.874c1.091.584,2.272,1.184,3.508,1.787Zm-7-3.749c-1.18-.7-2.308-1.421-3.357-2.137l.557-.818c1.029.706,2.143,1.411,3.3,2.107Zm-6.565-4.5c-1.062-.851-2.071-1.734-3-2.638l.689-.712c.9.874,1.889,1.741,2.928,2.572Zm-5.721-5.549a36.015,36.015,0,0,1-2.394-3.2l.824-.547a35.615,35.615,0,0,0,2.308,3.109Zm-4.422-6.644a37.452,37.452,0,0,1-1.626-3.653l.92-.356a37.553,37.553,0,0,0,1.586,3.548Zm-2.882-7.429c-.29-1.035-.554-2.12-.782-3.218-.046-.224-.089-.448-.132-.659l.989-.178q.059.33.129.659c.224,1.078.481,2.137.765,3.152Zm-1.4-7.871c-.083-1.154-.125-2.394-.125-3.68v-.31h.989v.31c0,1.263.043,2.476.122,3.607Zm.989-7.914-.989-.059c.076-1.256.185-2.588.33-3.957l.989.1c-.135,1.349-.244,2.668-.32,3.911Zm.781-7.841-.989-.129c.165-1.253.356-2.575.57-3.93l.989.152c-.2,1.345-.4,2.661-.561,3.9Zm1.217-7.8-.989-.171c.221-1.246.462-2.562.716-3.9l.989.185c-.241,1.335-.488,2.644-.706,3.888Zm1.471-7.769-.969-.195q.386-1.922.8-3.884l.966.2-.785,3.871Zm1.616-7.746-.966-.208q.416-1.919.838-3.871l.97.211q-.416,1.945-.815,3.865Zm1.688-7.736-.966-.211.847-3.868.966.211Zm1.692-7.736-.966-.211q.422-1.922.834-3.858l.966.2q-.4,1.936-.824,3.861Zm1.649-7.736-.966-.2q.4-1.936.795-3.871l.969.195q-.383,1.942-.785,3.874Zm1.593-7.769-.969-.188q.376-1.945.732-3.891l.989.178Q715,93.424,714.632,95.376Zm1.431-7.811-.989-.165c.227-1.319.445-2.638.643-3.9l.989.155c-.211,1.266-.425,2.585-.656,3.911ZM717.3,79.73l-.989-.138c.188-1.319.366-2.638.524-3.914l.989.122c-.171,1.273-.346,2.6-.537,3.93Zm.989-7.874-.989-.1c.138-1.319.264-2.638.369-3.93l.989.082c-.125,1.293-.251,2.621-.4,3.95Zm.659-7.914-.989-.053c.076-1.339.132-2.664.168-3.94l.989.026c-.069,1.286-.125,2.621-.2,3.967Zm-.778-7.933c0-1.342-.039-2.664-.1-3.937l.989-.043c.059,1.283.092,2.638.1,3.973Zm-.386-7.868c-.115-1.319-.264-2.638-.439-3.907l.989-.135c.175,1.283.33,2.612.442,3.957ZM716.7,40.36q-.386-1.978-.877-3.825l.956-.254c.33,1.253.63,2.562.89,3.888Zm-139.993-.33-.989-.132c.178-1.319.419-2.638.712-3.934l.963.221c-.264,1.269-.514,2.565-.686,3.865Zm137.975-7.254c-.432-1.253-.913-2.48-1.431-3.627l.907-.4c.524,1.19,1.016,2.44,1.457,3.716Zm-136.234-.33-.936-.33a38.592,38.592,0,0,1,1.461-3.726l.9.409a38.348,38.348,0,0,0-1.424,3.647Zm133.062-6.8a38.245,38.245,0,0,0-2.068-3.3l.815-.59c.748,1.078,1.464,2.219,2.117,3.393Zm-129.837-.3-.854-.5a38.915,38.915,0,0,1,2.2-3.344l.8.587a37.173,37.173,0,0,0-2.14,3.258Zm125.373-6.087a37.451,37.451,0,0,0-2.7-2.806l.659-.722a37.613,37.613,0,0,1,2.78,2.882Zm-120.77-.2-.735-.659a39.391,39.391,0,0,1,2.819-2.832l.66.729c-.953.88-1.88,1.81-2.74,2.763Zm115.078-5.111c-1.022-.768-2.11-1.507-3.231-2.186l.514-.844a38.017,38.017,0,0,1,3.3,2.239ZM592.035,13.8l-.6-.788c1.042-.791,2.147-1.56,3.3-2.282l.531.834C594.136,12.273,593.054,13.025,592.035,13.8ZM694.7,9.892c-1.144-.557-2.351-1.085-3.581-1.566l.359-.92c1.256.488,2.486,1.025,3.657,1.6Zm-96.066-.3-.468-.871c1.151-.613,2.354-1.2,3.581-1.754l.406.9C600.942,8.412,599.758,8.992,598.63,9.592ZM687.415,7.05c-1.22-.373-2.493-.719-3.785-1.025l.227-.96c1.319.31,2.608.659,3.848,1.039Zm-81.64-.659-.33-.927c1.217-.455,2.486-.89,3.769-1.289l.294.943c-1.283.389-2.532.818-3.733,1.266Zm74-1.174c-1.3-.254-2.6-.5-3.881-.729l.175-.989c1.279.234,2.592.478,3.894.735ZM613.27,4.043l-.244-.956c1.26-.33,2.565-.623,3.878-.894l.2.966C615.806,3.429,614.517,3.726,613.27,4.043ZM672,3.815c-1.319-.218-2.638-.422-3.9-.613l.145-.989c1.286.191,2.605.4,3.917.617Zm-7.821-1.161c-1.319-.171-2.638-.33-3.921-.478l.112-.989c1.289.145,2.615.307,3.937.481Zm-43.2-.208-.158-.989c1.283-.208,2.6-.4,3.934-.561l.122.989C623.552,2.054,622.243,2.239,620.986,2.447Zm35.378-.659c-1.319-.122-2.638-.234-3.931-.33l.073-.989c1.3.092,2.638.2,3.957.33ZM628.8,1.494,628.712.5c1.3-.112,2.638-.208,3.957-.284l.053.989c-1.329.059-2.651.155-3.937.267Zm19.692-.277q-1.978-.1-3.957-.155l.026-.989q1.978.054,3.957.155Zm-11.828-.165-.023-.989C637.849.016,639.1,0,640.355,0h.237V.989h-.237c-1.233,0-2.49.016-3.706.046Z" transform="translate(-385.884 0)"/>
      <path id="Path_1095" data-name="Path 1095" class="cls-14" d="M575.5,135.938h-.989c0-.66,0-1.342.043-2l.989.043C575.512,134.619,575.5,135.279,575.5,135.938Z" transform="translate(-385.073 -89.775)"/>
      <path id="Path_1096" data-name="Path 1096" class="cls-3" d="M271.89,370.283l-.31-.94c1.236-.406,1.909-.567,1.936-.574l.227.963S273.08,369.894,271.89,370.283Z" transform="translate(-182.03 -247.173)"/>
      <path id="Path_1097" data-name="Path 1097" class="cls-3" d="M93.109,433.835l-.989-.175c.234-1.289.524-2.6.864-3.917l.956.247C93.62,431.286,93.337,432.579,93.109,433.835Zm1.978-7.62-.953-.293c.422-1.256.894-2.519,1.4-3.752l.917.376c-.5,1.2-.966,2.44-1.378,3.677Zm3-7.281L97.2,418.5c.587-1.19,1.22-2.377,1.886-3.531l.857.495c-.669,1.141-1.293,2.311-1.87,3.482Zm3.937-6.822-.824-.551c.735-1.1,1.517-2.2,2.308-3.258l.788.6c-.791,1.049-1.563,2.13-2.285,3.215Zm4.775-6.265-.749-.66c.867-.989,1.777-1.978,2.714-2.945l.706.692c-.933.96-1.833,1.936-2.684,2.918Zm5.477-5.695-.689-.709c.956-.927,1.929-1.847,2.9-2.74l.659.729c-.973.89-1.932,1.807-2.882,2.727Zm5.826-5.365-.659-.745c.989-.874,2.025-1.741,3.043-2.579l.63.765c-1.009.838-2.034,1.708-3.027,2.565Zm6.11-5.032-.617-.765c1.052-.818,2.127-1.622,3.189-2.394l.58.8c-1.052.755-2.117,1.553-3.165,2.364Zm6.4-4.649-.554-.818c1.108-.752,2.232-1.487,3.34-2.183l.528.838c-1.111.7-2.226,1.431-3.327,2.17Zm6.7-4.207-.5-.857c1.164-.659,2.341-1.319,3.5-1.929l.462.877c-1.157.607-2.321,1.25-3.472,1.916Zm7-3.673-.422-.9c1.237-.58,2.47-1.124,3.66-1.609l.373.917c-1.187.495-2.4,1.019-3.624,1.6Z" transform="translate(-61.745 -251.161)"/>
      <path id="Path_1098" data-name="Path 1098" class="cls-14" d="M90.18,567.611c0-.03,0-.745.109-2.021l.989.086c-.109,1.223-.106,1.922-.106,1.929Z" transform="translate(-60.444 -379.094)"/>
      <path id="Path_1099" data-name="Path 1099" class="cls-3" d="M178.609,800.006c-.851-.989-1.263-1.533-1.279-1.556l.791-.59s.412.547,1.236,1.5Z" transform="translate(-118.858 -534.776)"/>
      <path id="Path_1100" data-name="Path 1100" class="cls-3" d="M236.8,841c-1.18-.442-2.364-.9-3.518-1.365l.369-.917c1.147.458,2.325.913,3.5,1.355Zm-7-2.809c-1.154-.495-2.308-1.006-3.449-1.527l.412-.9c1.128.514,2.282,1.022,3.429,1.513Zm-6.859-3.133c-1.131-.551-2.265-1.121-3.373-1.695l.458-.877c1.095.567,2.222,1.134,3.347,1.682Zm-6.7-3.472c-1.1-.607-2.206-1.236-3.278-1.866l.5-.854c1.068.627,2.163,1.25,3.258,1.853Zm-6.509-3.818c-1.068-.66-2.133-1.355-3.172-2.044l.547-.824c1.029.686,2.091,1.368,3.149,2.028Zm-6.285-4.178c-1.032-.729-2.058-1.481-3.047-2.229l.594-.788c.989.742,2,1.487,3.024,2.209Zm-6.024-4.554c-.989-.8-1.962-1.612-2.9-2.424l.659-.748c.927.8,1.889,1.612,2.872,2.4Zm-5.7-4.946c-.943-.884-1.853-1.774-2.7-2.638l.706-.689c.844.861,1.744,1.741,2.674,2.615Z" transform="translate(-126.686 -543.422)"/>
      <path id="Path_1101" data-name="Path 1101" class="cls-3" d="M346.576,905.073q-.943-.33-1.876-.659l.33-.933q.926.33,1.866.64Z" transform="translate(-231.04 -605.569)"/>
      <path id="Path_1102" data-name="Path 1102" class="cls-3" d="M854.1,477.634c-.086-1.319-.2-2.638-.33-3.921l.989-.1c.135,1.293.247,2.638.33,3.957Zm-.824-7.821c-.195-1.319-.419-2.612-.659-3.874l.973-.188c.251,1.276.475,2.6.66,3.917Zm-1.513-7.709c-.33-1.279-.66-2.552-1.045-3.782l.946-.29c.383,1.246.739,2.539,1.059,3.835Zm-2.308-7.5c-.455-1.233-.95-2.457-1.471-3.627l.9-.4c.531,1.2,1.032,2.44,1.494,3.693Zm-3.142-7.169c-.607-1.161-1.256-2.308-1.932-3.409l.844-.518c.686,1.121,1.345,2.288,1.978,3.469Zm-4.1-6.671c-.765-1.065-1.573-2.1-2.4-3.093l.755-.636c.847,1.009,1.672,2.067,2.453,3.152Zm-5.042-5.988c-.917-.93-1.876-1.83-2.859-2.674l.659-.749c.989.861,1.978,1.781,2.918,2.73Zm-5.935-5.1c-1.065-.772-2.166-1.5-3.268-2.156l.508-.847c1.128.659,2.252,1.415,3.34,2.2Zm-6.72-4a25.361,25.361,0,0,0-3.627-1.428l.26-.953a25.621,25.621,0,0,1,3.775,1.487Z" transform="translate(-550.212 -283.715)"/>
      <path id="Path_1103" data-name="Path 1103" class="cls-3" d="M939.083,821.472c-1.319-.33-2.6-.683-3.842-1.095l.33-.94c1.21.406,2.473.765,3.756,1.072Zm-7.584-2.539a38.938,38.938,0,0,1-3.571-1.807l.492-.857c1.114.636,2.285,1.23,3.479,1.761Zm-6.925-3.957a37.328,37.328,0,0,1-3.116-2.509l.659-.739a37.173,37.173,0,0,0,3.037,2.447Zm-5.952-5.335c-.884-.989-1.738-2.018-2.536-3.093l.795-.59c.778,1.052,1.612,2.068,2.473,3.021Zm-4.768-6.413c-.679-1.118-1.319-2.308-1.929-3.5l.884-.442c.59,1.181,1.227,2.335,1.893,3.429Zm-3.574-7.139c-.495-1.21-.956-2.47-1.378-3.746l.94-.313c.416,1.26.87,2.5,1.355,3.683Zm-2.513-7.584c-.33-1.26-.636-2.565-.907-3.884l.969-.2c.267,1.3.567,2.588.894,3.828Zm-1.609-7.821c-.2-1.292-.366-2.621-.5-3.957l.989-.1c.138,1.319.3,2.638.5,3.9Zm-.828-7.914c-.079-1.319-.129-2.638-.152-3.98l.989-.017c.023,1.319.073,2.638.148,3.937Zm.861-7.914-.989-.026c.05-1.767.142-3.139.211-3.98l.989.082C906.331,761.744,906.242,763.1,906.192,764.856Z" transform="translate(-606.708 -509.969)"/>
      <path id="Path_1104" data-name="Path 1104" class="cls-3" d="M818,779.059l-.491-.857c1.141-.659,2.268-1.345,3.357-2.044l.534.831C820.286,777.7,819.142,778.393,818,779.059Zm6.69-4.313-.577-.8c1.065-.768,2.113-1.57,3.119-2.384l.623.768c-1.039.828-2.1,1.639-3.182,2.42Zm6.169-5.015L830.2,769c.989-.884,1.922-1.8,2.819-2.73l.712.689C832.816,767.9,831.85,768.83,830.861,769.731ZM836.4,764l-.755-.636c.857-1.012,1.672-2.051,2.423-3.083l.8.58c-.758,1.055-1.593,2.11-2.466,3.139Zm4.679-6.469-.837-.515a25.72,25.72,0,0,0,1.8-3.436l.92.359A25.8,25.8,0,0,1,841.083,757.53Z" transform="translate(-547.946 -505.097)"/>
      <path id="Path_1105" data-name="Path 1105" class="cls-3" d="M166.593,785.606l-.983-.128.969-7.277,6.209,4.181-.551.821-4.887-3.291Z" transform="translate(-111.002 -521.598)"/>
      <path id="Path_1106" data-name="Path 1106" class="cls-3" d="M287.042,363.5l-.814-.557,3.324-4.867-5.691-.795L284,356.3l7.271,1.016Z" transform="translate(-190.261 -238.815)"/>
      <path id="Path_1107" data-name="Path 1107" class="cls-14" d="M568.355,150.925,564.2,144.7l.821-.551,3.271,4.9,2.865-4.982.857.495Z" transform="translate(-378.162 -96.565)"/>
      <path id="Path_1108" data-name="Path 1108" class="cls-3" d="M915.874,599.475l-4.155-6.229.824-.547,3.268,4.9,2.869-4.979.857.495Z" transform="translate(-611.092 -397.211)"/>
      <path id="Path_1109" data-name="Path 1109" class="cls-3" d="M803.937,828.4l-7.307-.669,3.921-6.377.841.518-3.086,5.022,5.721.521Z" transform="translate(-533.951 -550.52)"/>
      <path id="Path_1110" data-name="Path 1110" class="cls-3" d="M1009.7,940.839l-.247-.956,5.7-1.487-3.766-4.339.748-.646,4.811,5.54Z" transform="translate(-676.597 -625.63)"/>
      <path id="Path_1111" data-name="Path 1111" class="cls-11" d="M498.583,587.119a61.212,61.212,0,0,1-13.4,2.245,10.712,10.712,0,0,1-8.662-2.968c-2.994-2.608-7.812-18.874-2.147-17.9,18.413,3.175,20.114,1.4,25.822-.785,7.521-2.869,20.414-3.01,26.8.178,8.854,4.425,5.757,10.677,10.041,31.473,4.2,20.394,1.761,22.287,1.761,22.287s-5.764-3.36-6.562-7.693,2.612-11.65-.2-16.207-9.249-5.18-9.325.33a17.3,17.3,0,0,0,2.539,9.3s-7.079-10.09-7.792-16.381,5.23-12.448-4.392-8.679C507.657,584.445,502.263,586.09,498.583,587.119Z" transform="translate(-316.192 -379.055)"/>
      <path id="Path_1112" data-name="Path 1112" class="cls-11" d="M515.028,570.19s-9.605,1.547-10.588-5.81c0,0,5.817,4.712,17.667,2.565S515.028,570.19,515.028,570.19Z" transform="translate(-338.107 -378.283)"/>
      <path id="Path_1113" data-name="Path 1113" class="cls-15" d="M539.07,677.561s6.318,1.022,9.031-1.721" transform="translate(-361.319 -452.99)"/>
      <path id="Path_1114" data-name="Path 1114" class="cls-15" d="M490.74,680.495s6.321,1.022,9.035-1.724" transform="translate(-328.925 -454.954)"/>
    </g>
  </g>
</svg>
